<?xml version="1.0" encoding="utf-8"?>
<!-- Generator: Adobe Illustrator 27.8.1, SVG Export Plug-In . SVG Version: 6.00 Build 0)  -->
<svg version="1.1" id="레이어_1" xmlns="http://www.w3.org/2000/svg" xmlns:xlink="http://www.w3.org/1999/xlink" x="0px"
	 y="0px" viewBox="0 0 1470.3 1909.3" style="enable-background:new 0 0 1470.3 1909.3;" xml:space="preserve">
<style type="text/css">
	.st0{fill:url(#SVGID_1_);}
</style>
<g>
	
		<radialGradient id="SVGID_1_" cx="735.095" cy="955.418" r="852.0581" fx="375.2354" fy="1284.724" gradientTransform="matrix(1 0 0 -1 0 1910.1575)" gradientUnits="userSpaceOnUse">
		<stop  offset="0" style="stop-color:#27B084"/>
		<stop  offset="1" style="stop-color:#B4C4B4"/>
	</radialGradient>
	<path class="st0" d="M992.7,1713.1c4.3,7.6,11,12.6,18.2,17c1.4,0.9,3.4,0.9,5.5,1.4c0.8-6.7-2-10.8-6-14.6c-3-2.9-7-5-7.7-10.3
		c5.7-1.5,5.8-5.5,4.8-10.2c-0.5-2.4-0.3-5-0.5-7.8c5.1,1.8,13.5,8.7,15.3,12.3c2.1,4.1,0.5,8-0.6,11.9c-0.2,0.9-0.3,1.9-0.2,2.8
		c0,0.3,0.5,0.7,1.1,1.3c1.2-0.9,2.4-1.8,3.7-2.8c1.1,1.5,1.9,2.7,2.8,3.8c6,7.6,14.5,10.9,23.5,12.9c4.3,1,5.9-1.2,4.5-5.3
		c-0.3-0.9-0.7-1.8-1.1-2.7c-4.6-10.1-9-20.2-13.8-30.1c-1.2-2.5-3.2-5.1-5.5-6.4c-9.2-5.5-7.7-14.3-7.4-22.6
		c0.4-9.5,1.2-18.9-5.3-27c-1-1.2-1.6-3-1.9-4.6c-1-5.4-4.1-9.6-7.7-13.6c-3.6-4.1-6.8-8.5-10.5-12.6c-1.5-1.6-3.7-2.9-5.8-3.6
		c-6.6-2.1-12.7-5.1-18.4-9.9c3.5-4.3,4.5-8.7,3.4-13.4c-1.4-6.3-5.1-8-10.5-4.7c-5,3.1-9.1,7-10.9,12.9c-0.7,2.1-1.8,4.1-3,6.7
		c-1.9-1.4-3.3-2-4.1-3c-3.7-4.7-7.5-9.3-10.9-14.3c-4-5.7-7.5-11.7-11.3-17.5c-1.1-1.8-2.4-4.4-4.8-3c-1.5,0.8-2.3,3.4-2.7,5.3
		c-0.6,3.5-1.1,7.2-0.8,10.8c0.3,5,0.4,10.3,2.3,14.8c5.7,13.2,12,26.2,18.5,39c1.5,3,2.2,5.8,1.4,8.9c-2.8,10.6-5.6,21.2-8.8,31.7
		c-0.8,2.7-2.5,5.4-4.5,7.3c-5,4.8-10.1,9.6-15.7,13.7c-34.1,24.9-64.4,53.9-92.1,85.8c-12,13.8-23.6,27.8-35.5,41.7
		c-1,1.1-2.2,2-3.3,3c-0.5-0.2-1-0.4-1.5-0.6c1-11.1,2-22.2,3.2-33.3c0.8-6.9,2.1-13.8,2.9-20.7c1-8.6,0.8-17.4,2.9-25.7
		c3-12.1,3.4-24.2,4.1-36.4c0.3-5.6-0.5-10.9-4.2-15.5c-4.4,1.8-5.4,5.8-6.9,9.1c-5.1,11.4-9.7,23-15.3,34.2
		c-3.1,6.1-7.7,11.5-11.8,17.1c-0.9,1.2-2.4,1.9-4.8,3.6c-0.3-5.4-0.8-9.6-0.8-13.8c0.1-8.9,0.3-17.8,0.7-26.7
		c1.5-36.7,2.9-73.5,4.5-110.2c2.8-65.5,5.7-131.1,8.5-196.6c0.2-5.4,2.1-9.5,6.8-13.3c3.5,3.6,6.7,6.9,10.7,11
		c0.4-5.7,4.3-7.5,7.9-9.7c5.1-3.1,10.1-6.4,15.1-9.6c5.1-3.2,10.1-6.3,16.6-6.2c6,0.2,12-0.4,18-0.4c6,0,6.6,0.6,7.5,7
		c0.4,2.8,0.7,5.7,1.2,8.6c1,4.8,2.1,9.6,3.2,14.6c7.1-1.1,13.4-0.3,18.8-5.4c3.3-3.1,8.8-3.7,13-5.9c5.8-3.1,11.9-4.6,18.3-6.2
		c7.4-1.8,16.1-2.9,18.6-12.6c0.1-0.4,0.5-0.8,0.9-1.1c4.1-3.3,8.1-6.8,12.4-9.8c1.1-0.8,3.2-0.7,4.8-0.5c12.4,1.2,24.8,2.4,37.2,4
		c7.6,0.9,15.3,1.8,22.6,3.9c8.4,2.4,15.5,7.4,21.5,13.9c7.5,8.1,15.1,16.1,23.1,23.7c13.4,12.8,27.3,25,40.6,37.8
		c8.8,8.5,17,17.5,25.4,26.4c2.8,3,5.6,5.2,10,4.6c3.8-0.5,5.2-2.1,4.6-5.7c-2.2-12.6-5-24.9-9.3-36.9c-7.3-20.5-18-39.2-29.4-57.6
		c-0.9-1.5-1.5-3.1-2.6-5.5c10,4.6,19,8.5,27.8,12.7c7.9,3.7,16.1,5.3,26.3,3.7c-2.3-2.8-3.3-5-5.1-6.1c-3-1.8-6.4-3.8-9.8-4.1
		c-8.4-0.9-13.4-5.9-17.1-12.7c-2.5-4.6-4.4-9.6-6.5-14.4c-7.8-17.8-16-35.4-23.4-53.4c-5-12.1-12.2-22.8-19.5-33.4
		c-7.4-10.6-15.8-20.5-23.9-30.6c-3.4-4.3-6.9-8.6-10.8-12.3c-5.6-5.3-11.4-6.9-17.9-1.3c-3.3,2.9-6.7,2.9-10.6,0.8
		c-7-3.7-14.2-6.9-21.3-10.4c-2.1-1-4.2-3-6.3-3.1c-7.2-0.3-14.4-0.2-21.5,0.2c-12,0.7-23.9,1.7-35.8,2.6c-2.8,0.2-4.5-0.9-5.6-3.5
		c-2-4.6-4.2-9.1-6.4-13.8c0.9-1.2,1.6-2.4,2.5-3.5c11.6-13.7,24.7-25.7,40.4-34.4c12.9-7.1,26.5-12.4,41.8-11.1
		c2.3,0.2,4.7-0.7,7-1.1c2.3-0.4,4.6-1.2,7-1.3c10.5-0.7,21.1-1.2,31.6-1.8c7.2-0.4,9.3,2.9,6.2,9.7c-0.1,0.3,0.3,0.8,0.8,1.9
		c1.5-1.9,3.6-3.4,3.9-5.2c1-7.3,6.2-8.3,11.9-9c20.3-2.5,40.1-7.5,59.7-13.2c19.5-5.7,37.1-15.7,54.8-25.4
		c6.2-3.4,6.3-3.5,10.6,1.7c1.8,2.2,3.9,4.2,5.8,6.4c3.6,4.1,8.3,5.4,13.6,5.6c4.1,0.2,6.8-1.5,8.5-5.2c2-4.5,4.3-8.9,6.8-14.1
		c2.3,0.8,4.5,1.4,6.7,2.3c8.7,3.5,17.2,7.4,26,10.5c4,1.4,8.4,2,12.7,2.1c4.8,0.2,5.9-1.9,4.1-6.5c-0.8-2-1.9-3.9-3.3-5.6
		c-3.1-3.6-6.6-7-9.8-10.5c-2.4-2.6-5.1-5.2-7-8.1c-2.7-4.1-4.7-8.7-7.5-13.8c0.5-3.8,3.4-6.6,7.8-8.2c4.1-1.5,8.3-2.8,11.9-5
		c4-2.4,8-5.3,11.2-8.8c3.2-3.4,1.6-7-3.1-7.6c-5-0.6-10.1-0.6-15.1-0.8c-2-0.1-4-0.3-6.5-0.5c0.7-3.2,1.4-5.4,1.7-7.8
		c0.8-6-0.9-10.9-6-14.4c-5-3.4-10.3-4.1-15.5-0.5c-2.6,1.7-4.9,3.9-7.2,5.9c-2.5,2.2-4.8,4.5-7.5,6.9c-4-4.2-8.2-4.4-13-3.7
		c-2.7,0.4-5.8-0.4-8.3-1.4c-7.1-3-14.1-6.2-19.5-11.9c-1.7-1.8-4-3-6.5-4.9c-4,9.9,1.8,18.2,1.4,27.9c-9.6-3.9-18.5-7.7-29.3-9.8
		c1.7,4.4,2.8,7.7,4.1,11c0.9,2.5,2.7,4.8,2.8,7.3c0.4,6.2,3.5,10.2,8.7,13.1c4,2.2,5.9,5.7,6.9,10.3c1.4,6.8,3.5,13.5,6.1,19.9
		c2.4,5.9,2.9,5.9-2.1,10.2c-12.1,10.6-26.1,17.9-41.2,23.2c-27.4,9.6-55.9,13.2-84.7,15.5c-12.9,1-25.9,1.5-38.8,2.1
		c-22.5,1.2-43.7,6.7-62.4,19.7c-8.4,5.9-16.2,12.8-23.9,19.6c-5.7,5-10.9,10.7-16.1,15.8c-18.4-8-36.4-3.6-50.1,6.7
		c-1.4,1-3.1,1.5-6.3,3c0.7-3.9,0.9-6.2,1.6-8.3c5.2-15.2,10.4-30.4,15.7-45.6c4.3-12.4,8.6-24.9,13.1-37.3c0.6-1.6,2.1-3,3.4-4.3
		c6.2-5.8,12.5-11.6,18.7-17.4c0.9-0.8,1.5-1.9,2.1-2.9c6.4-11.6,7.9-24.2,7.6-37.8c-2.2,2.2-4.3,4.5-7.2,7.5
		c0.2-8.2,1.5-14.8,4.3-21.3c3.3-8,6.5-16,9.9-24c14.4-32.7,28.5-65.6,43.5-98.1c17.7-38.4,36.7-76.2,59-112.2
		c4-6.4,7.7-12.8,15.3-15.6c0.9-0.3,1.7-1,2.3-1.7c3.6-4.3,8.7-5.7,13.7-7.4c7.4-2.6,15.3-4.7,21.9-8.9c8.8-5.6,18.2-7,28.1-7.7
		c8.9-0.6,17.2,1,24.2,6.9c5.7,4.8,11.3,9.8,14.3,16.8c1.6,3.7,3.9,4.7,7.3,3.7c6.2-1.9,12.2-4.1,18.3-6.1c2.2-0.7,4.7-2.2,6.7-1.7
		c10.2,2.6,20.4,5.5,30.4,8.6c7.6,2.4,14.5,6,20.3,11.9c3,3,7.1,4.8,10.9,6.9c1.3,0.7,3.3,0.3,5.4,0.5c-3.8-5.7-7.4-10.2-10.2-15.2
		c-3.9-6.8-9.9-11-16.5-14.5c-4-2.1-8.3-3.8-12.3-5.9c-7.4-3.9-14.7-7.1-23.3-3.4c-1.6,0.7-3.8,0-5.7-0.1c-2.4-0.2-3.6-1.5-4.5-3.9
		c-4-11-12.3-18.2-22.3-23.3c-8.1-4.1-11.9-3-18.6,3.3c-1.2,1.2-3.3,2.4-4.8,2.2c-7.8-0.9-17.4-6-26-13.6c2-1.5,4.2-2.7,5.9-4.3
		c7.8-7.1,15.4-14.4,23.2-21.6c26.1-24,50.1-49.8,68.6-80.3c1.5-2.4,3.4-4.6,5.4-6.7c13.9-14.3,27.8-28.6,41.7-42.9
		c2.5-2.5,5-5,7.7-7.7c10.2,6.8,20.7,6.2,31.9,3.5c-2.6-3.9-6.1-3.8-9.3-4.1c-5.8-0.6-10.4-2.8-13.3-8c4.7-6.8,6.4-8.4,12.6-11.9
		c3.8-2.1,7.5-4.2,11.4-6.1c11.4-5.6,22.8-11.2,34.2-16.7c2.3-1.1,4.9-1.5,7.4-2.2c1,1.8,1.8,3,2.3,4.3c3.8,8.5,10.2,13.1,19.6,13.4
		c3.6,0.1,7.2,0.6,10.8,0.8c4.7,0.3,8.2,2.3,10.7,6.2c0.8,1.2,1.3,2.7,2.4,3.5c0.7,0.5,2.2,0.1,5.3,0.1c-7.6-5.9-6.2-11.7-4.1-18.5
		c4.3,2.2,8.1,4.1,11.8,6c0.3-0.4,0.5-0.8,0.8-1.1c-2.2-2.5-4.5-5.1-6.7-7.6c0.2-0.4,0.4-0.8,0.6-1.2c3.3,0.5,6.6,1,9.8,1.5
		c0.4-0.5,0.8-1,1.2-1.6c-1.9-0.9-3.8-1.8-6.7-3.1c5.1-3.8,8.7-6.5,12.3-9.2c1.9-1.4,4.2-2.5,5.9-4.1c3.3-3.2,3.1-5.8-0.8-8.1
		c-3.3-2-6.9-3.4-10.8-5.3c2.4-1.4,4.8-2.7,8.4-4.9c-4.3-1.8-7.5-3.1-11.2-4.6c0.8-2,1.6-4,2.5-5.8c1.9-4.1,3.3-8.4,0.4-12.3
		c-2.9-3.8-7.4-3-11.4-2c-11.3,2.9-22.6,6-34.7,9.3c-4.5-1.7-5.2-7.5-8.5-12c7.3-11.7,14.6-23.5,22.2-35.2c3-4.6,6.3-9.1,9.9-13.3
		c2.7-3.2,5.9-6.1,11.2-5.6c-3.4,7.2-8.6,13.3-8.4,21.2c5.8,1.5,6,1.7,9.9-1.2c6.7-5.1,13.3-10.2,19.5-15.9
		c4.3-3.9,8.8-3.9,14.5-3.3c-1.2,2.7-2.1,4.8-3.1,6.9c-2,4.6-4.2,9.2-6,13.9c-0.9,2.4-1.7,5.1-1.8,7.7c-0.4,5.3,2.2,7.6,7.5,6.7
		c2-0.3,3.9-1.3,5.9-2.1c0.2,2.7,0.4,4.9,0.8,8.6c3-2.5,5.1-4,6.8-5.8c1.9-1.9,3.4-4.1,5.2-6.3c3.3,2.4,5.7,4.2,8.2,6.1
		c7.2-5.5,3.2-14.5,7.3-20.8c2.7,0.7,5.2,1.6,7.8,2c4.9,0.8,9.9,1.5,14.9,2c2.4,0.2,5.4,0,5.8-2.9c0.2-1.7-1.4-3.9-2.7-5.4
		c-1.6-1.8-3.8-2.9-5.5-4.6c-2.7-2.6-5.2-5.5-8.7-9.2c2.2-1,3.7-1.6,6.1-2.7c-4.3-4.9-7.7-8.6-10.9-12.3c-1.7-2-4.1-3.9-4.6-6.2
		c-1.2-5.5-1.4-11.2-2-17.6c4.7,0.4,9.9-0.6,13.5,1.4c5.7,3.2,11.9,2,17.6,4c2.1,0.7,4.4,0.6,6.6,0.9c0.1-0.4,0.3-0.9,0.4-1.3
		c-1.5-1.7-3.1-3.3-4.6-5.1c1.5-1.6,2.8-3,4.2-4.5c-4.9-2.3-10.8,1.3-15.2-4.6c4.2-1.2,8.1-1.7,11.2-3.4c3.2-1.8,7.7-1.9,9.8-6.7
		c-4.6,0.4-8.3,0.7-12.1,1.1c-3.7,0.4-7.3,3.4-13.2-0.2c3-2.2,5.3-3.8,8.7-6.2c-4.7,0-7.8,0-10.9,0c-0.2-0.5-0.4-0.9-0.7-1.4
		c3.5-2.8,7-5.6,11.5-9.2c-3.2-0.3-4.8-0.5-7.6-0.7c2.8-3.7,4.9-6.6,7-9.4c-4.8,1.4-8.3,5.3-13.7,3c-0.8-0.3-2.4,1.4-3.6,2
		c-1.1,0.6-2.2,1-3.3,1.5c-0.2-0.3-0.4-0.6-0.7-0.9c2.9-3.8,5.8-7.5,8.7-11.3c-0.5-0.5-1-0.9-1.4-1.4c-2.9,2.4-5.9,4.8-8.8,7.2
		c-0.2-0.2-0.5-0.4-0.7-0.6c1.4-2.8,2.8-5.5,4.3-8.2c-0.4-0.3-0.7-0.5-1.1-0.8c-1.9,1.3-3.8,2.6-6.2,4.3c0.8-3.8,1.3-6.6,2.1-10.3
		c-2.9,1.5-4.8,3.3-6.8,3.2c-1.8,0-3.6-2-5.4-3.1c-1.3,2.5-2.5,5.1-3.8,7.6c-0.6-0.1-1.1-0.3-1.7-0.4c-0.5-4.3-0.9-8.6-1.5-13.8
		c-4.1,3.3-3,7.2-3.5,10.5c-0.6,3.4-1.1,6.8-1.6,10.3c-2.4-1.5-0.7-6.4-5.7-5.7c0.4,3.6,0.9,7.3,1.3,10.9c0.4,3.6,6.4,5.8,2.4,10.8
		c-3.6-0.4-5.4-2.5-7.1-5.9c-2.5-4.9-3.9-10.6-9.1-13.7c3-4.9,7.3-8.4,9.6-15.1c-2.3,1.3-3.5,1.6-4.2,2.4c-2.3,2.9-4.5,5.7-8.6,5.8
		c-0.6,0-1.7,0.5-1.8,0.9c-1.2,5.5-5.7,3.7-8.7,3.4c-6-0.6-11.8-2.3-16.6-6.3c-1.3-1-2.7-2.4-4.2-2.7c-7.3-1.3-13.3-5.3-19.6-8.8
		c-2.7-1.5-5.5-3-8.9-1c0.2,2.6,0.3,5.2,0.6,8.1c-15.2,2.2-30.5,3.6-43.2,15c2.8,0.9,4.5,1.5,7.8,2.6c-4,1.3-6.5,2.1-8.8,3
		c-2,0.8-4.3,1.4-5.7,2.9c-1.1,1.1-1.6,3.5-1.3,5.1c0.5,2.4,2.7,2.2,4.7,1.7c5.6-1.3,11.1-2.5,16.7-3.7c4.4-0.9,8.8-1.6,13.2-2.4
		c1.3,4.6-4,9.3,2.1,12.5c6.9-2.7,14-5.5,21.2-8.2c12.6-4.7,25.1-5.1,37.2,1.3c-0.1,0.9,0.1,1.5-0.2,1.8c-3.8,6.1-7.7,12.2-7.5,19.9
		c0,2-1.3,4.1-2,6.1c-1.1,3.6-1.9,7.4-3.3,11c-3.4,9.2-4.8,19-10.2,27.6c-13.4,21.4-26.2,43.1-39.6,64.5
		c-13.7,21.9-29.7,41.9-48,60.1c-1.2,1.2-2.8,2.2-4.1,3.2c-0.5-0.3-1-0.6-1.5-1c0.8-2.3,1.5-4.7,2.5-6.9c1.5-3.3,3.1-6.5,4.9-9.6
		c2.2-3.7,4.4-7.4,7.1-10.7c3.8-4.6,8.8-8.4,12.1-13.3c9.6-14.5,15.2-30.5,14.1-48.2c-0.1-2-0.8-3.9-1.6-7.4c-2,2.7-3.3,3.8-3.8,5.2
		c-1.8,4.7-3.6,9.4-4.9,14.3c-2.1,7.4-5.9,13.9-12,18.4c-10.6,7.8-21.7,14.9-32.6,22.2c-1.6,1-3.5,1.7-5.3,2.2
		c-4.5,1.4-8.1,4.2-10.9,7.9c-1,1.3-2,2.7-3.1,4c-3.5,4.1-5.8,4.1-8-0.6c-3-6.2-5.4-12.8-8.1-19.2c-0.6-1.3-1.1-2.7-2.3-5.5
		c-0.3,4.7-0.6,7.6-0.8,10.8c-2.9-1.5-5-2.7-7.1-3.8c-0.3,1.9,0.1,2.9,0.7,3.8c3,4.6,6.3,9.1,9.1,13.8c2.8,4.6,3.5,9.4-0.2,14.1
		c-1,1.3-2,3-2.1,4.5c-0.4,8-8.8,8.8-12.4,14c-0.4,0.6-2.8,0.4-4-0.1c-3.9-1.5-7.7-3.3-11.7-5.1c4.2,6,4.4,6.2,29.4,15.7
		c0.6,3.8,0.5,7.8,1.9,11.2c1.9,4.4,1.2,7.6-1.5,11.3c-4.5,6.2-8.7,12.7-12.9,19.1c-9.2,14.1-18.9,27.6-31.7,38.9
		c-36.1,32.1-71.7,64.7-107.5,97.1c-1,0.9-2.3,1.6-3.2,2.3c-0.9-0.2-1.4-0.2-1.8-0.5c-7.9-6.9-14.3-14.7-16.1-25.6
		c-0.5-2.8-1.3-5.7-2.7-8.1c-1.8-3-1.7-5.9-0.9-9c7.3-26.9,14.3-53.8,21.9-80.6c8.8-31.2,18.9-62.1,27-93.4
		c6.7-25.8,11.2-52.1,17.2-78.1c3.8-16.4,8.5-32.5,12.9-48.7c2-7.1,6.4-11.8,13.7-14.4c4.8-1.7,9.3-4.9,13.4-8.2
		c4.5-3.5,8.7-7.6,12.5-11.9c6.1-6.9,13.8-10.9,21.9-14.7c8-3.7,15.8-8.1,23.4-12.5c2.5-1.4,4.4-3.9,6.6-5.9c-0.3-0.6-0.7-1.1-1-1.7
		c-1.8,0.6-3.8,1-5.4,1.9c-3.3,2-6.4,4.2-9.6,6.4c-4.2,2.9-8.8,4.9-14,5.3c-1.2-1.8-2.3-3.5-3.6-5.4c-3.3,2.1-6.2,4.4-9.4,5.7
		c-3.4,1.4-7.3,1.9-11-1.1c2.8-4.2,5.5-8.1,8-11.8c1.4,0.2,2.1,0.3,2.8,0.5c13.3,4.7,21.7,1.1,27-11.9c1.6-3.9,4-6.4,7.6-8.1
		c2.3-1.1,4.3-2.5,4.3-6.2c-1.7,1.1-2.7,1.8-3.7,2.3c-1.6,0.8-3.3,1.4-4.9,2.1c-0.7-1.9-1.9-3.8-1.9-5.6c0.1-5,0.8-10,1.1-15
		c0.3-4.8,0.8-9.6,0.8-14.4c0-3.6-2.2-5.5-4.9-4.3c-4.6,1.9-9.7,3.1-12.7,7.7c-2.7,4-6.4,6.2-11.6,6.7c-0.4-1.3-0.7-2.4-1.1-3.5
		c-2.3-6.2-5-7-10-2.9c-0.7,0.6-1.4,1.8-2.1,1.9c-2.5,0.2-5.2,0.6-7.5-0.1c-2.6-0.9-1.9-3.5-1.3-5.6c1.1-3.4,1.7-7.1,3.5-10.1
		c1.7-2.8,2.8-5.2,2.6-8.6c-0.3-4.1,1.3-4.9,5.3-4c3.5,0.9,7,2.5,10.4,2.3c4.9-0.2,10-1.3,14.6-3c5-1.9,9.8-1.6,14.9-0.8
		c3.6,0.6,7.1,1.6,10.7,1.5c5.7-0.1,11.6-0.3,17-1.7c7.8-2,8.9-5.4,4-11.8c-2-2.6,0.2-4,0.1-5.8c-6.7-5.5-14.5-5.6-22.5-6
		c4.6-4.4,10.1-6.4,15.8-8.1c5.8-1.7,11.6-3.1,18.8-4.9c-10.2-7-19.6-3.7-29.6-2.4c4.4-9.2,9.9-16.2,17.4-23.2c-2.8,0-4.3,0-5.2,0
		c-1.9-3.1-3.6-5.8-5.5-8.8c-8.6,2.3-16.5,4.5-25.5,7c2.4-5.7,4.7-10.1,6.2-14.8c1.5-4.6,4.3-9.4,0.7-16.1
		c-3.9,5.9-6.8,10.8-10.2,15.3c-3.2,4.4-4.7,10.2-10.6,14.4c1.5-6.3,3-11.3,3.9-16.4c0.8-5,1.5-10.2-1.5-15.3
		c-2,4.4-3.8,8.3-5.6,12.2c-4.7-2-0.2-5.9-2.1-8.2c-6.6,4.8-11.2,10.9-15.3,17.8c-2.2-1.6-3.6-2.7-6.1-4.6c0.9,3.1,1.4,5,2,7.2
		c-2.6-0.1-4.5-0.2-6.9-0.4c0.2,1.6,0.4,2.5,0.6,3.4c1.2,6.5,0.5,7.5-6.2,8c-3.8,0.3-7.6,0.4-12.4,0.7c1.7,5.3,2.6,10.6,5.1,15
		c2.8,4.9,2.7,9.5,1.9,14.5c-0.3,2-0.4,4.2-0.1,6.2c0.6,4.5,1.5,8.9,2.4,13.9c2.1,1.8,4.8,4.2,7.7,6.7c-1.4,5.2-2.8,10.4-4.3,15.4
		c-0.7,2.3-2,4.4-2.7,6.7c-0.9,2.9-3.1,4.5-5.8,4.8c-4.8,0.4-9.6,0.2-14.3,0.1c-1,0-2.4-0.9-3-1.8c-4.5-6.8-8.8-13.8-13.1-20.7
		c-0.1-0.1,0.1-0.4,0.1-0.7c4.1-2.5,4.1-2.4,8.4-2c6.9,0.6,12.7-3.1,18.8-6c-2.7,0-5.4,0-8.1,0c0.5-0.5,0.9-1.1,1.4-1.6
		c-2.3-1-4.5-2-7.6-3.3c3.7-2.8,6.3-4.8,8.9-6.8c-0.2-0.5-0.5-1-0.7-1.5c-2.5,0.5-5.1,0.6-7.3,1.5c-6.2,2.5-6.1,2.6-11.1-3
		c-0.2-3.5,4.5-5.5,3.2-10.2c-3.2,2.9-5.9,5.3-8.6,7.8c-0.5-0.2-1-0.4-1.5-0.7c0-1.8-0.1-3.5,0-5.3c0.1-1.9,0.4-3.8,0.6-5.7
		c-0.5-0.1-1-0.2-1.5-0.3c-0.7,1.7-1.3,3.4-2.2,5c-0.6,1.2-1.3,3.1-2.2,3.3c-3.4,0.6-3,3.2-3.4,5.5c-0.3,1.7-0.8,3.3-1.2,4.9
		c-3.7-4.4-2.8-8.6-1.1-11.4c-2.8-5.7-5.1-10.4-7.4-15.2c-2,5.7,1.6,11.5-4.2,16.1c4.2,2.5,7.8,5,5.5,10.1c-0.6,0-0.9,0-1.1-0.1
		c-8.3-4-16.4-4.5-23.8,2.1c-0.6,0.5-1.7,0.6-2.6,0.6c-2.3,0.1-4.6,0-6,0c-2.2-2.8-4-4.8-5.5-7.1c-2.1-3.2-4.7-6.2-5.9-9.8
		c-1.9-5.8-2.9-11.9-4.4-18.4c-2,0-4.6,0-8,0c3.2-1.4,5.4-2.4,7.7-3.3c-0.1-0.5-0.2-1-0.2-1.5c-2.5-0.1-5.1-0.9-7.5-0.3
		c-3.2,0.8-6.8,2.3-7.5-2.1c-0.5-3.9,3.6-3.5,6.4-3.9c1.3-0.2,2.7-0.6,4.7-1c-1.4-1.5-2.2-2.5-3.1-3.5c0.7-1.9,1.5-3.7,2.5-6.6
		c-3.8,1-6.5,1.8-10.1,2.8c5.9-6.6,5.9-6.6-0.8-11.4c-2.9,1.7-5.7,3.3-8.6,4.9c-1.3-3.3-2.2-5.6-3.3-8.4c2.4-1.1,5-1.8,7-3.3
		c0.9-0.6,1-2.9,0.7-4.2c-0.1-0.5-2.6-1-3.6-0.6c-1.7,0.6-3.1,1.9-4.5,2.9c-5.3-2.9,4.3-5.5-0.9-8.3c-2.3,1.1-5,2.5-8,4
		c-1.5-3.7-3.2-6.7,0.1-10.2c2.6-2.8,0-4.6-2.2-7.1c-2.6,5.6-8.8,1.5-12.2,6c0-2.4,0-4.3,0-6.3c-3.9,0.9-2.9,6.9-8,6.1
		c0-3.9,0-7.8,0-13.1c-2.2,3.5-3.5,5.7-4.9,7.9c-0.5-0.1-1-0.1-1.5-0.2c-1.2-4.3-2.3-8.7-3.7-12.9c-0.8-2.4-1.9-4.8-3.2-6.9
		c-1.4-2.2-3.2-4.2-4.9-6.2c-12.8-15.3-29.3-21.2-48.8-17.7c-7.2,1.3-13-1.2-20.2-4.1c2.9-1.9,4.7-3.4,6.8-4.5
		c7.6-3.9,15.6-6.1,24.3-4.4c2.6,0.5,5.5,1.8,8.1-0.7c-0.8-3.4-3.2-4.9-6-5.9c-4.8-1.6-9.5-3.2-14.4-4.5c-6.2-1.7-12.1-1.5-18.2,1.3
		c-6.5,3-13.4,5-20.8,3c-2.2-3.9-0.4-7.7,0-11.4c0.4-3.8,2.1-4.9,5.9-4.5c2.2,0.3,4.4,1,6.9,1.6c-3.4-3.8-6.4-7.2-9.2-10.3
		c-5.8-0.7-11.8-1.4-17.9-2.1c0-2.2,0.9-5.6-0.2-6.5c-3.5-3-1-5.7-0.4-8.5c0.4-1.7,1.3-3.3,2.2-5.4c-4.5-0.7-8.3-1.2-12-2
		c-4.6-1-7.5,1-9.3,4.9c-1.7,3.7-3.2,7.5-4.6,11.3c-0.8,2.1-1.4,4.1-4.3,4.1c-5.1-4.7,1-11.3-2.9-16.4c-3.5,3.6-2.4,10-7.8,12.8
		c-8.4-3.9-9.7-12.1-11.8-19.9c-16.1-5.2-20.7-5-25.8,1.2c7.5,4.2,15,8.3,22.6,12.6c-1.4,4-2.6,7.5-3.8,11c-5.2-1.3-10-1.8-14.2-3.7
		c-4.3-1.9-8-5.2-12-7.8c-1.6-1.1-3.2-2.1-4.9-3c-13.7-7.1-28.6-9.6-43.7-10.6c-2.1-0.1-4.3,0.5-6.3,1.2c-3.1,1-4,3.3-4.2,6.6
		c-0.3,4.8-0.9,9.6-2.2,14.1c-1.6,5.4-1.9,6.6,2.8,9.3c5,2.9,10.3,5.1,15.5,7.6c1.4,0.7,2.7,1.4,4,2.2c-0.1,0.4-0.2,0.8-0.2,1.1
		c-2.5,0.3-5,0.5-7.8,0.8c-0.4,1.7-0.9,3.4-1.2,4.9c-5.9,2.4-11.5,4.5-17,7c-4,1.9-7.3,4.7-6.5,10.3c2.1,0.8,4.2,1.7,6.2,2.6
		c-3,10.2-3,10.2-1.4,11.8c3.3-7.4,5.2-9.2,13.5-12.3c2.4-0.9,5.1-1.7,7.7-1.6c9.6,0.3,19.2,0.4,28.7,1.9c6.4,1,12.4,4.3,18.6,6.6
		c-3.8,5.2-7.6,9.2-10,14c-2.7,5.3-0.5,10.9,1.8,15.9c2.3,5,5.2,9.5,11.8,11.3c-0.1-2.6-0.2-4.2-0.3-5.8c-0.2-5.5-0.6-11-0.5-16.6
		c0-4.2,1.3-7.9,6.1-10.2c2.5,6.9,5.8,12.8,4.2,20.2c-1.4,6.2,0.9,8.1,6.9,6.5c2.5-0.7,4.1,0,5.9,1.4c4.2,3.4,5.6,7.7,3.7,12.8
		c-2.5,7-4.9,14.1-7.7,21c-10.7,26.5-19.6,53.6-28.3,80.9c-2.7,8.4-4.3,17.3-9.7,24.7c-1,1.3-0.9,3.6-0.9,5.4
		c0.1,4.7-1.6,8.7-4.1,12.6c-1-0.5-1.7-0.7-2.2-1.2c-12.1-12.1-23.5-24.7-32-39.7c-3.4-6.1-6.5-12.3-9.8-18.4
		c-1.5-2.8-2.5-6.2-7.2-7.5c0.7,3.3,1,5.9,1.8,8.3c7.6,25.8,19.5,49.6,35.4,71.2c11.4,15.5,9,9.6,6.2,28.1
		c-0.7,4.8-3.5,8.5-5.9,12.1c-3.8-2.5-7-5.1-10.6-6.9c-4.5-2.3-9.4-3.7-13.9-5.9c-13.8-6.7-27.6-13.3-41.1-20.7
		c-6-3.3-11.2-8.2-16.6-12.6c-6.1-5-12.1-10.3-18.5-15.8c5,16.8,13,31.3,24.1,44.3c7.5,8.8,16.1,17.3,17.8,29.7
		c0.1,0.6,0.8,1.2,1.2,1.8c6,8.1,12,16.1,17.9,24.3c0.9,1.2,1.7,3.4,1.2,4.5c-1.5,3.4-3.4,6.8-5.7,9.7c-3.7,4.6-7.8,8.8-9.3,14.6
		c2.7,3.3,8.4,3,8.3,8.5c0,0.4,3.4,1.7,4.3,1.1c6.1-3.5,11.7-0.7,17.3,1c6,1.8,6.1,2.7,4.2,9c-3.7,12.4-7.8,24.7-11.1,37.2
		c-7.4,28.1-14.3,56.3-21.5,84.4c-0.3,1.3-1.2,2.4-2.4,4.7c-1.7-2.5-3.5-4.1-3.8-5.9c-0.6-4.9-3.7-7.6-7.5-9.9
		c-2.7-1.6-5.2-3.3-8.3-5.4c0.5-2.3,0.3-5.7,1.7-6.6c4.7-2.8,4.2-7.8,5.9-11.8c1.2-2.9,1.1-6.2,1.6-9.4c-0.5-0.2-1-0.3-1.4-0.5
		c-2,3.2-4.1,6.5-6,9.6c-14.3-4.8-14.1-4.8-12.1-18.1c0.5-3.5,2-4.7,5.2-5.7c5.2-1.6,10.3-3.7,15.2-6c3.2-1.5,5.1-4.3,4.3-8.2
		c-1.1-5.1,2-8.1,5.6-10.7c1.4-1.1,3.1-1.8,5.9-3.4c-5.5-3.5-10.1-6.4-15.5-9.8c-3.1-9.4-6.4-19.9-10.2-30.2
		c-1.3-3.6-2.6-7.7-6.4-9.8c-5.8,3.5-11.6,9.3-11.7,13.2c-0.2,5.3-3.2,8.2-6.7,11.2c-2.1,1.8-4.3,4.1-5.2,6.7
		c-2.5,7.3-5.4,14.1-12.2,18.6c-1.5,1-2.1,3.2-3.2,4.8c-0.9,1.3-1.8,2.5-3.1,4.2c-9.6-7-17.2-15.1-23.6-24.8c3.3-4.1,6.6-7.9,9.6-12
		c2.8-3.8,7-6.8,8.1-12.4c-7.7,1-11.2,7.7-18.2,11.6c2.5-10.9,5.9-19.9,10.7-28.5c-8.5,6.3-16.1,13.1-19.1,23.9
		c-3.9-0.8-5.4-4.6-7.4-7.7c-4.2-6.5-8.1-13.1-12.3-19.5c-1.5-2.2-2.8-5.1-7-4.2c0.4,2.1,0.4,4,1.1,5.7c6.1,15.2,9.4,31.2,12.5,47.3
		c0.8,4.4,1.4,8.6-1,12.6c-2.6,4.2-5.5,8.3-8.9,13.2c-4.4-4.4-8.2-7.6-7.2-14.3c1-6.8,0.9-13.9,0.5-20.8c-0.6-9.6-0.9-19.2,1.2-28.7
		c0.4-1.6,0.4-3.3,0.4-5c-0.1-2.7-1.7-3.7-5.2-3.4c-0.5,12.1-10.1,21.7-10.2,35.3c1.7-1.9,2.8-3.1,4.5-5.1c0.4,3,0.2,5.1,1,6.7
		c0.9,1.9,2.8,3.2,3.8,5c0.7,1.1,1,2.7,0.9,4.1c-0.8,9.1-1.6,18.2-2.8,27.2c-1.2,9.2-2.7,18.3-4,27.4c-4.4-2.3-5.5-6.3-5.5-10.8
		c0-2.1-0.1-4.2-0.2-6.4c-0.2-4.3-0.6-8.5-0.6-12.8c0.1-7,0.6-13.9,0.7-20.8c0-1.5-0.7-3-1.2-4.9c-5.5,1.7-4.3,5.8-3.9,9
		c1.5,10.2-1.5,20-2.5,29.9c0,0.3-0.8,0.5-2,1.1c-1.9-2.1-3.5-5.6-6-6.3c-6.3-1.6-5.5-6.4-6.1-10.7c-0.8-5.5-0.6-11.1-2.1-16.4
		c-3.4-12-3.6-24.1-2-36.4c0.1-1.2,1.1-2.3,1.6-3.5c0.5,0,1,0.1,1.4,0.1c0.3,2.2,0.7,4.5,0.8,6.7c0.2,7.9,0.2,15.9,0.5,23.8
		c0,1.6,0.6,3.2,1,4.7c0.5-0.1,0.9-0.2,1.4-0.3c0-10.1,0-20.1,0-30.2c0-1.9-0.4-4.1,0.5-5.5c0.7-1.3,2.9-1.8,4.9-2.9
		c-3.6-3.2-6.8-6-10.2-9.1c-8.3,4.5-11.4,12.1-13.3,20.4c-4.3,18.8-1.5,37.2,3.7,55.5c0.2,0.6,0.8,1.1,1.4,1.9
		c1.7-1.4,3.3-2.7,4.8-4c1.8,1.9,3.2,3.5,5.2,5.5c-1.8,2.1-3.5,4.2-5.2,6.2c-1.5-1.3-2.4-2-3.8-3.3c2.5,10,3.1,29,0.9,34.4
		c-2.6-1.8-5-3.7-7.6-5.2c-2.9-1.6-5.8-3.6-9-4.2c-6.8-1.3-13.8-2.2-20.7-2.5c-5.9-0.2-11.9,0.5-17.9,1c-2.1,0.2-4.2,0.9-6.4,1
		c-5.5,0.1-7-1.6-5.9-6.9c0.6-2.8,1.4-5.6,2.1-8.4c6.1-22.7,8.7-45.6,4.8-69.2c-2-11.8-2.8-23.8-4.2-35.8c-0.1-1.3-0.9-2.5-1.4-3.9
		c-4.7,1.3-6.3,4.8-7.9,8.3c-2.3,5-4.7,10-6.9,15c-3.5,8.4-8,16.6-10,25.3c-5,22.5-10.8,44.8-18.7,66.5c-1.2,3.2-2.7,4.8-6.2,4.6
		c-1.1-0.1-2.2,0.4-4.5,0.8c1.7,3,2.7,5.5,4.4,7.7c2.4,3.1,3.2,6.1,0.9,9.9c-4.3-2.7-3.8-8.9-9-11.3c0.2,8.1,3.3,14.6,6,21.2
		c3.5,8.3,0.3,16.2-0.4,24.1c-17.3-3.5-33.6-6.8-49.1-10c-2.1-4.4-3.1-9.1-6-12c-9.9-10.2-20.4-19.7-35.3-22.1
		c-6.1-1-12.2-2.7-18.3-3.9c-1.7-0.3-3.5,0-6.6,0c2.3,3.7,4,6.5,5.8,9.2c4.4,6.6,8.8,13.2,5.8,21.8c-0.1,0.4,0.1,1,0.1,1.4
		c-0.1,6.3-2.6,10-8.6,11.3c-3.5,0.8-7.1,0.5-10.7,0.9c-1.7,0.2-3.4,0.7-5.1,1c-0.1,0.6-0.2,1.2-0.3,1.7c2,1,3.9,2.3,5.9,3.1
		c7.3,2.9,15.2,4.8,22,8.7c6.6,3.8,13.6,4.3,20.6,5.4c4.2,0.7,8.1-0.1,11.8-2c7.2-3.8,14.9-7.2,16.6-16.8
		c17.2-0.2,32.7,4.3,48.6,8.8c-1.2,4-2.4,6.8-2.9,9.8c-0.5,3.4-2.6,4.8-5.5,5.8c-3.4,1.1-6.7,2.5-8.9,3.3c-1.4,3.7-1.8,6.8-3.5,8.8
		c-11.2,13.5-21.3,27.9-34.7,39.4c-5.3,4.5-10.6,9-15.9,13.5c-3.4,3-6.9,6-9.9,9.4c-6,6.5-11.9,13.2-17.6,20
		c-2.6,3.1-6.1,6-5.8,11.8c2.5-0.5,4.7-0.5,6.5-1.4c10-4.8,19.9-9.6,29.7-14.6c8.5-4.4,16.9-9.2,25.2-13.8
		c6.1-3.4,12.1-6.8,18.2-10.2c8.1-4.7,15.8-10.4,25.2-12.2c10.2-2,16.5-8.3,20.4-17.4c2.5-5.7,4.8-11.5,7.1-17.3
		c4.7-12.1,15.9-15.5,26.6-8c9.9,6.9,18.5,15.2,26.6,24.2c3.9,4.2,3.8,7.6,1.5,12.7c-4.4,9.8-8.2,20-11.2,30.4
		c-2.7,9.4-2,18.6,6.5,25.5c1,0.8,1.6,2,2.8,3.6c-4.6,1-8.3,1.5-11.9,2.7c-3.1,1-6.6,2-8.9,4.2c-6.8,6.3-13.1,13.2-19.6,19.8
		c-1.1,1.2-2.2,2.4-3.1,3.8c-8.8,12.9-18,25.5-29.1,36.5c-8.2,8.2-16,16.7-21.4,27c-3.2,6.1-5.2,12.8-6.9,19.5
		c-4.1,15.9-3,33.1-11.2,48.1c-0.4,0.8-0.4,1.9-0.6,2.8c-2.5,8.7-6.5,16.5-12.8,23c-4.9,5-9.3,10.3-16,13.2
		c-3.3,1.5-4.8,5.5-3.6,7.7c1.1,2.3,4.8,3.3,8.4,2c2.2-0.8,4.6-1.8,6.3-3.4c9.3-9,19.6-16.8,27.8-27c14.2-17.6,26.4-36.6,39.1-55.2
		c4.9-7.2,10.4-13.8,17.3-19.1c3.8-2.9,8.1-5.2,11.7-8.3c7.1-6,15.1-8.3,24.1-6.5c5.6,1.2,11.4,2.4,16.3,5.1
		c8.8,4.8,17,10.8,25.5,16.2c3.5,2.2,5.3,5.3,5.4,9.5c0.2,5.7,0.7,11.4,1.1,17.2c6.1,2.1,12,3.4,17.8,1.2c6.5-2.5,12.7-5.5,19-8.5
		c4.3-2,8.5-4.3,12.9-6.3c3.2-1.5,6.2-0.9,8.1,2.3c1.3,2.2,2.7,4.7,3,7.1c0.8,6.9,1.7,13.9,1.4,20.8c-1.5,47.1-1.6,94.2-4.7,141.2
		c-3.4,52.3-10.9,104.1-18.1,156c-3.8,27.1-8.7,54-13.1,81.1c-1.2,7.7-1.6,7.4-9.1,9.8c-14.8,4.7-29.5,10.1-44.1,15.2
		c-2.2,0.8-4.3,1.5-6.9,2.4c-0.9-2.9-1.6-4.9-2.1-6.9c-2.3-10.3-4.3-20.7-6.9-30.9c-9.2-36.3-16.5-73-26.2-109.1
		c-7.5-28.1-13.6-56.5-20.5-84.7c-1.1-4.6-1.1-8.6,1.2-13.1c2-3.8,3.4-7.7,6.6-10.9c2.2-2.3,3.5-5.7,4.8-8.7
		c1.4-3.1,2.1-6.4,3.5-9.4c0.6-1.4,1.9-3.4,3.1-3.6c6.1-1.1,5.7-6.1,5.8-10c0.1-3.8-1.5-7.6-2.5-11.8c5.1-2,10.5-1.8,16,1
		c7.5,3.8,15.5,2.9,23.5,1.4c-1-1.2-2.2-1.9-3.4-2.3c-7.6-2.3-15.2-4.4-22.8-6.9c-2.2-0.7-4.4-1.9-6-3.4c-5.1-5-6.9-5.5-13.2-2.7
		c-2.3,1-4.6,2-6.8,2.9c-4.9-7.2,1.1-12.9,1.4-20.1c-5,0.8-9.4,1.5-13.8,2.3c-0.5,0.8-0.8,1.5-1.2,2.1c-3.5,5.8-7.7,9.5-15.2,10.3
		c-8,0.8-16.4,2.8-23.3,6.6c-8.3,4.5-16.5,5.8-25.5,5c-5-0.4-10-1-15.1-1.4c-5.3-0.4-10.5-0.8-15.8-0.7c-2.4,0-4.7,1.2-8,2.2
		c1.7,2.2,2.5,3.7,3.6,4.7c4.8,4.5,10.7,6.4,17,6.9c8.8,0.7,13.9,6.4,19.5,13.2c-4.6,1-4.8,5.8-9,7.2c-5.2,1.6-10.3,4.1-14.8,7.1
		c-9.4,6.3-19.4,10.3-30.8,10.2c-0.7,0-1.5,0.9-2.2,1.4c1.3,3.8,4.5,4.6,7.3,5.7c9.4,3.3,17.4-0.1,25.1-5.1
		c3.8-2.5,7.4-5.3,11.1-7.9c3-2.1,5.7-2.4,9.3-0.7c4.5,2.1,9.6,2.8,14.3,4.4c1.9,0.6,4.1,1.5,5.3,3c4.1,5.1,9.3,8.1,15.4,10
		c2.5,0.8,5.1,2.5,7,4.5c3.4,3.5,6.6,7,11.5,8.2c3,0.7,4.3,3,5.1,5.5c2.1,6.4,4.4,12.7,6.1,19.2c7.9,28.9,12.9,58.5,20.8,87.5
		c8.2,30.1,14.6,60.7,21.6,91.1c2.3,10,4.1,20.1,6.2,30.2c-3.9,2.8-7.6,1.9-11.4,1.7c-2.8-0.2-5.7-0.2-8.5,0.2c-1,0.2-1.6,2.1-3,4.1
		c8.9,0,16.4,0,23.6,0c4.6,16.5,8.9,32.2,13.1,48c0.4,1.3-0.4,3-0.7,4.3c-2.2,0-3.8,0-5.3,0c-1,3-1.9,5.6-2.8,8.2
		c-2.3-0.9-4.1-1.7-6.8-2.8c0.5,3.1,0.8,5.1,1.1,7.3c-4.1,0.9-7.1-1.3-10.1-3.1c-4.8-2.8-9.3-6-14.2-8.6c-1.8-0.9-5.1-1.3-6.5-0.3
		c-1.5,1.1-1.9,4.1-2,6.4c-0.1,2.5,0.8,5.1,1.1,6.8c-5.5,4.2-11.3,7.2-15.1,11.8c-7.6,8.9-14.1,18.8-21.2,28.1
		c-1.3,1.8-3.4,3.3-5.5,4.1c-6.7,2.6-9.8,6.6-8.6,13.7c0.9,5.5,0.4,9.9-5.1,12.9c3.8,4.9,7.2,9.3,11.1,14.3
		c-1.8,0.5-2.7,0.8-3.5,0.9c-10.1,0.6-20.1,1.4-29.8,4.7c-13.2,4.4-26.6,8.2-39.6,13.2c-14.2,5.5-27.1,13.5-36.8,25.7
		c-3.4,4.3-5.7,9.4-8.9,13.9c-4.6,6.5-6.7,13.8-7.2,21.6c-0.5,8.4-0.5,16.8-0.9,25.2c-0.1,2.5-0.5,5.1-0.7,8
		c-10.4,0.1-17.1-8.8-27.1-8.9c-0.1,11.3,8.8,18.1,12.8,27.2c-1.2-0.4-2.2-1-2.8-1.9c-13.9-18.1-27-36.8-37.2-57.3
		c-3.6-7.3-7.9-14.3-8.6-22.8c-0.2-2.4-2.2-4.7-3.4-7.1s-2.6-4.6-3.5-7.1c-2.5-7.5-5.1-15.1-7-22.7c-4.9-19.6-9.9-39.1-13.8-58.9
		c-2.3-11.7-2.6-23.8-3.4-35.8c-0.1-1.9,0.7-4.5,2-5.7c2.9-2.5,6.2-4.6,9.6-6.2c10.8-5,17-14.5,23.4-23.7c0.7-0.9,0.8-2.2,1.1-3.4
		c2.2-10.1,5.6-19.2,15.6-24.6c4.6-2.5,3.5-7.3-1.6-9c-2.4-0.8-5-1.1-7.8-1.7c1.5-4.4,6.7-6.5,5.4-12c-4.9,2.6-9.9,4.5-14.1,7.5
		c-4.3,3.1-7.9,7.2-12,10.9c-1.8-10.7,1-20.9,2.4-32.4c-3.9,0.3-7.1,0.6-11.2,0.9c1.4-3.8,2.6-6.9,4.2-11.3
		c-7.1,3.9-8.6,11.1-14.3,15.2c-2.7-10.2,0.6-20.5-2.8-30.8c-5.6,4.7-3.7,11.4-6.7,16.5c-5.2-4.5-10.1-8.7-15.4-13.3
		c0.6,9.2-7,14.3-9.5,22.2c-1.7-3.7-2.2-7.4-3.1-10.9c-0.8-3.3,0.7-7.7-4.6-9.9c0,6.9-0.4,13.1,0.1,19.3c0.5,6.1,2.1,12.2,3.2,18.2
		c-7.9-11.3-16.7-20.4-30.3-23.7c3.7,5,8.3,9.1,11.8,13.9c3.6,4.9,6.5,10.4,7,16.9c-1.7-0.9-2.8-2.2-4-3.4
		c-5.7-6.1-11.4-12.3-17.3-18.3c-1.3-1.3-3-3.2-6.5-1.4c1.7,2.3,3.1,4.3,4.6,6.3c6,8.1,12.1,16.2,17.9,24.4c1.6,2.3,2.5,5.2,3.7,7.8
		c-0.5,0.3-1,0.6-1.5,0.9c-4.4-8.2-11.6-13.3-18.9-18.4c-2.1-1.4-4.1-2.7-5.6,0.8c2.4,4,8.6,4.9,8.9,11.4c-2.4-1.3-4.2-2.3-6.2-3.4
		c-0.4,1.5-0.8,2.7-1.1,3.9c-3.1-0.2-6-3-9.3,0.7c3.5,7,5.8,14.9,13,19.9c-1.1,1.8-2,3.3-3.1,5.2c4,1.2,8.2,1.3,10.5,3.4
		c2.3,2.2,2,7.2,4.2,9.6c5.1,5.7,7.2,12,5.5,20.1c3.9-0.2,6.7-0.2,9.5-0.6c5.4-0.8,10.1-0.5,14.7,3.5c2.9,2.4,7.4,3,11.3,4.2
		c1.8,0.6,3.7,0.6,6.1,1c0.2,2.3,0.4,4.4,0.6,6.5c0.8,7.9,0.9,15.9,2.5,23.6c4.3,21.2,8.5,42.4,13.9,63.3c4.2,16,9.3,31.9,15.6,47.1
		c12.1,29,28.5,55.5,48.1,80.1c0.9,1.1,1.5,2.3,2.9,4.4c-5.5,3-10.6,6.2-15.9,8.7c-7.4,3.4-12.4,9-15.4,16.4
		c-2.2,5.3-3.9,10.7-6,16.3c-13.6,2.7-27.1,5-40.8,4.8c-2.8-0.1-5.9-0.9-8.2-2.4c-8.2-5.1-17.3-7.2-26.5-8.8
		c-4.8-0.8-10-0.5-14.8,0.5c-6.8,1.4-13.3,3.8-20,5.8c-10.6,3.1-21.2,6.1-31.8,9.1c-3,0.8-6,2.1-9,2.1c-6.3-0.1-11.7,2.2-16.9,5.3
		c-2.1,1.3-4.7,1.8-7.1,2.6c0,8.7,0,17.3,0,26c2.1-0.3,4.3-0.2,6.2-0.9c26-9.6,53.2-14.4,80.4-19.4c6.8-1.2,13.7-1.7,20.6-1.9
		c10.2-0.4,20.5-2.4,30.5-4.5c4-0.8,6.4-0.1,8.9,2.6c4.1,4.4,8.5,8.6,12.1,13.3c4.7,6.1,11.3,7.8,18.2,8.8
		c7.2,1.1,11.3-1.4,13.9-8.3c1.1-2.9,1.6-6,2.9-8.9c2.8-6.6,5.7-13.2,8.9-19.5c0.9-1.7,3.2-3.5,4.9-3.6c6.4-0.4,13-0.8,19.3,0.1
		c3.4,0.5,6.9,3.4,9.4,6c6.6,6.8,13.7,12.7,22.8,15.8c9.7,3.3,16.9,10,22.7,18.1c13.8,19.4,27.6,38.7,40.7,58.5
		c11.4,17.2,22.4,34.7,32.3,52.8c16.6,30.3,27.7,62.8,35.5,96.3c5.7,24.3,10.9,48.7,16.3,73.1c0.6,2.8,0.8,5.7,1.2,8.5
		c5.3,0,10.6,0,15.9,0c-1-6.9-1.8-13.8-3.2-20.6c-6.1-30.6-12.9-61.1-22-91c-11-36.5-25.6-71.4-46.6-103.5
		c-16.1-24.5-32-49.1-48.1-73.6c-4.5-6.8-9.4-13.3-14.3-19.9c-3.2-4.3-5.1-8.8-5.2-14.5c-0.2-13.4-1.2-26.8-2.3-40.2
		c-0.3-4,1-7.3,3.4-9.9c6.6-7.1,9.1-15.2,7.2-24.5c-1.8-8.6,2.3-13.4,9-17.5c7.2-4.3,14.5-7,23.2-5.9c9.8,1.2,19.5,2,28.8,5.8
		c3.9,1.6,8.3,2.3,12.8,3.5c1.8,5.7-0.2,11.6-0.9,17.4c-1.7,14.4-2.5,28.8,0.4,43c2.1,10.4-0.6,20.6-0.1,30.8
		c0.3,7.7,0.4,15.3,1.1,23c0.9,10.3,2.7,20.5,3.5,30.8c0.6,7.1-0.4,14.4,0.6,21.5c1,7.4,2,14.5,1,22.1c-1.2,9.7,2.2,17.6,12.8,21.3
		c5.5-2.6,8.7-7.7,10.6-13.8c5.8-18.9,8.8-38.3,11.1-57.9c0.6-5.2,1.5-10.4,2.5-15.6c4.6-22.6,10.1-44.9,17.2-66.8
		c8.1-24.9,18.2-48.4,33.1-70c6-8.6,12.7-16.9,15.4-27.4c0.2-0.6,0.7-1.3,1.3-1.7c5.4-4.1,10.9-8.2,17.6-13.3
		c0.3,5.2,0.8,8.7,0.6,12.1c-0.7,13.7-1.2,27.4-2.4,41c-4.7,53.8-9.9,107.7-14.6,161.5c-3.3,37.8-6.4,75.7-9.1,113.5
		c-3.1,44.3-5.7,88.7-8.5,133.1c-0.1,2.4,0,4.8,0,7.2c9.6,0,19.2,0,28.8,0c1-13.2,2.1-26.3,2.9-39.5c1.3-21.3,2.2-42.7,3.8-64
		c3.5-46.9,7.1-93.9,10.9-140.8c2.1-26.1,4-52.2,6.6-78.2c3.8-38.7,7.7-77.4,12.3-116c1.3-11.4,4.5-22.6,7.5-33.7
		c1.2-4.4,4.7-8.2,6.7-12.5c2.7-5.6,5.5-11.2,7.2-17.1c1.4-4.8,3.3-8.2,8-10.2c2.6-1.1,4.8-3.2,7.3-4.6c1.8-1,3.9-2.5,5.8-2.4
		c6.3,0.4,11.2-2.7,15.8-6.1c6.1-4.6,11.2-10.7,17.6-14.7c8.2-5.1,8.7-12.4,8.5-20.5c0-2.3,0.8-4.7,1.6-6.9c1.2-3.3,2.9-6.5,4.1-9.8
		c1.4-4.1,4.1-6.9,8.4-6.5c9.1,0.7,17.5-2.1,26.2-4c8.2-1.8,16.5,3.5,17.8,12c0.5,3.3,1.9,5,4.2,6.9c2.8,2.3,5.2,5,7.8,7.4
		c3.2,2.8,4,6.3,3.7,9.6c5.2,3.9,9.8,7.6,14.7,10.9c5.8,3.9,5.8,10,6.3,16.3c5,0,9.8,0.1,14.5,0c3.6-0.1,5.2,1.7,6.7,5.1
		c4.7,11.2,2.4,22.3-0.2,33.3c-6.5,26.6-13.3,53.1-20.3,79.5c-14.5,54.5-29.6,108.9-43.6,163.5c-13.2,51.6-25.3,103.5-37.7,155.3
		c-6.5,26.8-12.6,53.7-18.8,80.6c-0.5,2.3-0.5,4.7-0.7,7.1c8.7,0,17.3,0,25.9,0c5.8-24.3,11.6-48.5,17.5-72.8
		c7.2-29.9,14.3-59.8,21.5-89.6c7.3-30.1,14.5-60.2,22.2-90.2c8.4-32.6,17-65.1,26-97.4c8.9-31.9,18.6-63.6,27.9-95.4
		c0.5-1.6,1.2-3.1,2.4-6.3c0.4,2.9,0.8,4.3,0.8,5.8c-2,43.7-3.9,87.4-6,131c-1.8,38.6-4,77.2-5.6,115.9c-0.8,20.4-0.8,40.8-1,61.3
		c-0.1,5.1-1.1,9.8-2.9,14.7c-3.3,9-6.3,18.2-8.1,27.6c-3.7,19.3-6.6,38.7-9.8,58.1c-1.4,8.3,0.5,16.4,3.5,24
		c2,4.9,2.3,9.1-0.5,13.5c24.5,0,49,0,73.5,0c1.1-5.8,2.7-11.7,3.3-17.6c1.7-16.7-0.8-33.1-4.8-49.2c-0.9-3.6-0.5-6.3,1.8-9.3
		c24.6-32,50.6-62.9,79.6-91.1c18.8-18.3,39.6-34.2,62.4-47.4c5.3-3.1,10.9-4.6,17.2-4.3c7.1,0.3,14.2-0.2,22.2-0.4
		c0.7,0.9,1.8,2.8,3.2,4.4c3.4,4,6.9,7.9,10.4,11.9C988.7,1708.6,991.2,1710.5,992.7,1713.1z M1300.8,486.3c0.4,0.1,0.8,0.2,1.2,0.3
		c0,7.8,0,15.6,0,23.8c-7.2,3.6-13.9,10.2-23.6,3.9C1286.1,504.8,1293.5,495.5,1300.8,486.3z M1128,666.7
		c-20.5,20.5-41.2,40.7-63.3,59.5c-0.3,0.2-1.2-0.3-1.9-0.5C1065,720.9,1116.5,673.7,1128,666.7z M1134.8,303.4c2.6,2,5,4,8.1,6.5
		c-2.8,4.2-5.4,8-8.7,12.9C1130.3,314.2,1130.5,311.4,1134.8,303.4z M743,51.8c6.9-0.3,12.8,2,17.5,7.2
		C754.4,57.2,747.5,57.3,743,51.8z M526.5,410.6c-0.4-0.1-0.8-0.1-1.2-0.2c0.1-1.4,0.2-2.8,0.4-4.1c0.5,0,1.1,0.1,1.7,0.1
		C527,407.8,526.8,409.2,526.5,410.6z M76.3,1256.1c-1.2-1.6-2.5-3.1-3.7-4.7c0.3-0.3,0.7-0.6,1-0.9c1.3,1.5,2.7,2.9,4.1,4.4
		C77.2,1255.3,76.8,1255.7,76.3,1256.1z M503.6,1286c-0.4,6.3-0.7,6.5-6.5,7.3c-4.7,0.7-8.5,2.8-12.1,5.9c-2.4,2-4.8,4-7.4,5.7
		c-2.5,1.6-4.6,0.9-5.7-2c-8.1-19.7-13.8-40.1-19-61.9c16.3-4.8,31.9-9.2,46.7-13.6c2,5.6,3.8,10.6,5.4,15.7
		c0.6,1.8,0.8,3.8,0.7,5.6C505.1,1261.2,504.4,1273.6,503.6,1286z M812.8,1184.9c-0.4-2.2-1.2-3.8-0.9-4.9c4-14,7.7-28.2,12.5-42
		c2-5.8,6.3-10.9,9.5-16.3C834.6,1127.4,816.9,1178.9,812.8,1184.9z M1119.4,297.3c1.2-4.6,2.4-9.2,3.6-13.7c0.7-2.5,2-4.1,5.8-3.3
		c-2.4,7.3-4.6,14.3-6.9,21.4C1119.2,301,1118.8,299.4,1119.4,297.3z M1119.5,313.2c-0.7,4.6-1.2,9.3-2.2,13.9
		c-0.6,2.8-2.6,2.2-4.7,0.7C1113.4,322.4,1113.6,316.7,1119.5,313.2z M1105.4,288.8c6.1,1.1,7.8,2.8,6.7,7.4c-2.3,9.5-5,19-7.5,28.4
		c-0.2,0.8-0.9,1.5-1.6,2.6c-3.2-1.6-6.1-3.1-9-4.7c-2.2-1.2-2.8-3-2.4-5.4c1.3-7.8,2.4-15.6,8.6-21.6
		C1102.2,293.6,1103.7,291,1105.4,288.8z M1094.1,280.8c-2,4.1-3.8,7.8-5.8,11.8c-3.2-4.5-4.2-10-2.2-12
		C1088.2,278.4,1090.7,278.8,1094.1,280.8z M1092.3,215.4c-3.1,2.1-6.2,4.1-10.3,6.9C1085,214.1,1086.6,212.9,1092.3,215.4z
		 M1080.4,305.4c0,8.5-1.7,9.8-8.9,6.3C1074.9,309.3,1077.4,307.5,1080.4,305.4z M1041.6,294.4c0.9,3.6,1.5,6.2,2.5,10.3
		c-4.7-1.5-8-2.5-11.4-3.6c0-0.6-0.1-1.2-0.1-1.8C1035.3,297.8,1038,296.3,1041.6,294.4z M1027.8,305.8c7,2.6,13.2,5.2,17.7,11
		c2.5,3.1,6.2,5.3,8.7,8.4c3.9,4.8,7.6,9.8,10.7,15c2.3,3.9,3.8,8.3,5.4,12.6c2.7,7.2,6.9,13.4,13.2,17.6c5.8,4,6.6,8.9,5.2,15
		c-3,13.1-5.9,26.2-8.8,39.4c-5.3,24.2-9.8,48.5-15.9,72.5c-7.2,28.4-15.6,56.5-23.5,84.7c-7.6,27.3-15.2,54.6-22.9,81.8
		c-1.1,3.8-2.2,7.7-3.5,12.1c-3.1-2.1-3-4.7-3.2-6.8c-0.8-8.3-5.2-14.5-12.1-18.6c-3.8-2.2-5.7-4.8-5.3-9.2
		c0.5-5.4-1.9-9.6-5.6-13.5c-6.6-6.7-13.2-13.5-17.1-22.1c-2.8-6.1-5.5-12.3-6.9-18.8c-0.8-3.4,0.9-7.4,2-11c1.2-4,3-7.9,3.9-12
		c-4.4,2.5-6.3,6.7-7.9,10.8c-3,7.6-5.2,15.5-8.1,23.1c-4.9,12.9-2.8,26-1.7,39.1c0.3,3.7,2.9,7.5,5.2,10.8c1,1.4,3.8,2.7,5.5,2.4
		c11.6-1.8,18.8,5,24.5,13.2c8.7,12.7,12.3,26.9,9.3,42.5c-1.5,7.7-4.5,15.5-2.3,23.5c3.4,12.7,1.8,25.4-0.8,37.8
		c-1.5,7.1-5.5,13.8-9,20.2c-26.5,48.2-50.9,97.5-73.7,147.6c-5.7,12.5-10.9,25.1-16.4,37.7c-0.7,1.7-1.7,3.3-2.6,4.9
		c-0.5-0.1-1-0.2-1.5-0.3c-0.6-2.2-1.1-4.5-1.8-7c1.8-1.4,3.6-2.8,5.4-4.1c-5.9-5.7-11.4-11.2-17.1-16.5c-3.6-3.2-5.6-3.2-8.3,0.7
		c-2.1,3-4.2,3.2-7.3,2.8c-17.7-2.1-34.9-0.2-51.6,6.2c-3.3,1.3-7,1.7-10.4,3c-8.2,3.4-16.2,7.1-24.4,10.6c-2.3,1-4.6,2.1-7.5,3.4
		c0-2.4-0.2-3.8,0-5.1c4.9-26.4,9.4-53,14.9-79.3c11.3-54.3,24.2-108.3,41.1-161.2c6.6-20.8,13.2-41.7,19.5-62.6
		c4-13.3,11.5-24.8,19.1-36.1c2-3,4.2-5.8,6.5-8.9c1.1,0.1,2.4,0,3.4,0.4c9.7,3.6,18.2,0.8,25.1-6c6.6-6.6,12.1-14.2,18.2-21.3
		c2-2.3,4-4.8,6.5-6.6c17.9-13.3,28.4-31.7,35.3-52.3c2.3-6.9,3-14.4-0.2-21.8c-1.9-4.2-2.3-9.2-3.5-14.3c3.9-1.2,7-2.4,10.2-3.2
		c11.5-2.9,22.4-6.8,32.9-12.5c8.6-4.6,18-7.9,27-11.8c5.3-2.3,5.5-2.8,5.1-8.8c-4.7-0.4-8.6,1.9-12.7,3.7c-4.6,2.1-9.2,4.1-13.8,6
		c-4.4,1.8-9.1,3.1-13.4,5.2c-14.2,6.8-29.6,9.9-44.2,15c-11.9,4.2-23.6,2.6-35.5,1.5c-1.4-0.1-2.8-0.5-4.2-1
		c-7.6-3-8.1-4.9-7.2-12.9c1.2-10.7,5.9-18.8,13.1-26.9c26.1-29.5,51.7-59.5,76.4-90.1c12.6-15.6,22.9-33.2,34.3-49.8
		C1023.2,312.3,1025.4,309.2,1027.8,305.8z M822.4,345c-4.1-4.2-7.3-9.3-11.5-14.8c3.3-2.3,5.3-4.4,7.6-5.1c5-1.5,7.4-4.9,8.8-9.5
		c0.4-1.3,1.3-2.5,2.4-4.3c4.4,6,10.5,5.3,16.4,5.5c10.7,0.4,20.3,3.2,27,13.5c-5.4,5.3-10.3,10.5-18.8,10.2c-2.7-0.1-5.6,1-8.1,2.1
		c-2.6,1.1-4.9,3-7.4,4.4C832.7,350.4,827.2,350,822.4,345z M827,383.9c-3.7-0.2-6.3-0.4-8.8-0.5C822.2,380.1,822.2,380.1,827,383.9
		z M839.7,354.5c9.8-4,19.7-7.5,29.6-11.1c2.9-1.1,5.9-1.9,9.4-3c2.1,2.8,4.2,5.6,6.4,8.6c-4.6,7-10.4,11.6-18.4,12.9
		c-1.1,0.2-2.4,0.2-3.5-0.1c-8.7-3.4-16.9-2.7-25.4,3.7c-1.8-1.5-3.2-2.8-5.2-4.5C835.6,358,837.3,355.4,839.7,354.5z M888.7,422.5
		c-4.7-4.8-4-10.2-2.2-16c1.5-4.8,2.3-9.8,3.6-14.7c1.5-6.1,1.9-6.4,9.6-6.3c0,2.5,0.2,5.1,0,7.7c-2.1,20.5-4.2,41-6.4,61.5
		c-0.2,2-1.2,4.3-2.5,5.7c-8.1,8.5-16.4,16.8-24.7,25.1c-0.3,0.3-0.9,0.2-2.9,0.5c6.5-20.9,12.7-40.9,19-61.3
		c2.4,0.1,4.4,0.2,6.5,0.3C888.7,423.8,889,422.8,888.7,422.5z M895.6,361.2c6.6,4.4,5.3,10.2,4.6,16.5c-2.3,0.1-4.3,0.2-6.6,0.3
		C892.4,372.1,894,367,895.6,361.2z M868.8,499.6c5.8-7,12-12.2,17.9-17.8C887.1,492.8,882,497.8,868.8,499.6z M880.4,389.1
		c-0.8,6.8-1.5,13.4-6.1,19.5c-5.8-5.1-5.8-5.1-3.7-10.8c0.6-1.6,1.2-3.1,1.7-4.7C873.8,388.2,873.8,388.2,880.4,389.1z
		 M879.6,375.7c0.8-2.1,1.5-4.3,2.6-7.3c2,5,1.9,5-1.1,7.9C880.6,376.1,880.1,375.9,879.6,375.7z M853.8,415.9
		c0.4-0.2,0.9-0.4,1.3-0.7c6.1-5.2,12-4,18.9,1.5c-4.3,16.3-8.7,32.5-16.1,49.5c-1-2.6-1.5-3.6-1.6-4.6c-2.1-12.2-4-24.5-6.3-36.7
		C848.8,418.8,848.5,418.8,853.8,415.9z M1020.6,258.5c0.3,1.8,1.5,3.5,2.4,5.2c0.5,1.1,1.4,2.1,1.5,3.2c0.3,8.6-0.3,17.2-4,25.1
		c-0.6,1.2-3.3,2.4-4.6,2c-4-1.3-7.7-3.3-10.6-4.7c2-7.7,4.2-14.2,5.1-20.9c0.5-4-1-8.4-2.1-12.5c-1-3.8-3.3-7.4-1.5-12.2
		C1012.7,247.9,1019.3,250.5,1020.6,258.5z M992.1,187.2c8.1-1.3,15.5-2.4,22.8-3.5c2.7,10-1.2,14.3-11.6,12.7
		c11.3,4.5,8.3,13.1,7.1,21.2c-0.6,0.3-1.2,0.6-1.7,0.9c-5.5-8.1-11-16.2-16.9-24.9c1.7-0.5,2.9-0.8,4.3-1.2
		C994.9,190.9,993.7,189.4,992.1,187.2z M945.8,230.5c0.4-4.6,1.1-9.4,5.7-12.6c3.1,9.7,3.9,8.8,14.2,5c0.6,1.4,1.3,2.8,1.9,4.2
		c2,5.4,4.3,10.7,6,16.1c1.4,4.5,2.7,9.2,3.2,13.9c0.2,2-1.3,4.4-2.6,6.2c-3.2,4.4-6.7,8.6-10,12.9c4.2-4.1,8.4-8.3,12.9-12.8
		c4.1,15.5-11.6,43.6-29.3,56.5c2.1,0.5,3.5,1.1,4.9,1c12.4-1.1,21.2-8.1,28.7-17.4c2.8-3.5,6.1-6.5,9.5-10.2c3,2.3,5.2,4.5,7.9,6
		c1.6,0.9,4.4,1.9,5.7,1.1c4-2.2,6.8,0,10.5,1.8c-0.8,2-1.2,3.8-2.1,5.3c-13.3,23.5-28.7,45.5-46.1,66.1
		c-15.2,18-30.5,35.9-45.8,53.7c-5,5.8-10.2,11.4-16.2,18.1c-1.2-8.1,1-14.6,1.5-21.3c0.5-6.7,1.2-13.4,1.8-20.1
		c0.6-6.9,1.2-13.8,1.9-21.1c4.4-0.9,8.3-1.7,12.2-2.5c0-0.4,0.1-0.8,0.1-1.2c-3.5-0.2-7-0.4-11.3-0.6c-1.2-6.7-1.3-13.9,2.5-19.2
		c6-8.5,8-18.4,12.2-27.5c2.8-6,6-11.9,9.3-18.4c-2.3-2.2-1.1-5.2,1.3-7.8c4.2-4.6,8.7-9,13-13.5c4.9-5.2,9.7-10.5,14.6-15.7
		c-5.4,4.7-10.8,9.4-16.3,14c-1.8,1.6-3.5,3.3-5.5,4.6c-3,1.9-6.5,3.2-9.5,5.1c-3,2-5.6,4.4-8.5,6.8c-3.9-2-5.1-4.9-4.7-8.9
		c1-11.2,1.9-22.4,2.6-33.7c0.2-3.5,1.5-5.5,4.7-7.2C937.5,251.6,944.6,243.2,945.8,230.5z M904.7,296.8c1.7-13.9,3.9-26,6.7-39.5
		C917.6,267.6,914.5,285.3,904.7,296.8z M904.2,82.6c11.2,6.8,21.6,14.3,28.3,25.9c2,3.5,3.5,7.3,5,11.1c1.1,2.7,0.1,4.6-3.5,5.9
		c-6.5-6.4-14.1-12.4-20-19.8c-6.4-8-13.3-15-22.5-19.7c-0.8-0.4-1.6-1-2.3-1.6c-0.3-0.3-0.4-0.8-0.7-1.5
		C893.7,79.6,898.4,79,904.2,82.6z M902.2,124.2c-5.2,2.1-9.2,1.5-13.2,0.2c-5.9-2-11.7-4.2-17.6-5.9c-4.3-1.2-6.3-4.6-8.3-8.2
		C876.5,113,889.3,116.9,902.2,124.2z M786.5,18.8c2.3,2.8,4,5,6.6,8.3C785.5,26.8,785,26.1,786.5,18.8z M794.2,35.5
		c-0.4,0.7-0.6,1.5-1.2,2c-0.4,0.4-1.2,0.5-2.7,0c0.8-1,1.6-2.1,2.3-3.1C793.2,34.8,793.7,35.1,794.2,35.5z M752.6,241.8
		c1.5-4.8,3.5-9.4,5.4-14c0.4-1.1,1.4-2.1,1.4-3.1c0.2-11.1,5.2-20.8,8.7-30.9c2.2-6.3,4.6-12.5,6.8-18.8
		c5.6-15.8,12.6-31.1,19.1-46.6c1.1-2.6,3.1-3.5,5.8-2.6c4.8,1.6,9.4,0.2,14.1-0.7c3.9-0.8,8-0.5,12-0.2c1.3,0.1,2.6,1.9,3.5,3.2
		c1.1,1.6,1.7,3.4,2.5,5.2c1.1,2.2,2.3,4.9,5.2,3.9c2-0.7,3.7-2.7,4.9-4.5c1.3-1.9,1.8-4.3,3.1-7.4c7.7,1.8,15,4.5,22.4,4.9
		c9.3,0.5,17.8,3.5,26.6,5.6c1.4,0.3,2.8,0.8,4.1,1.2c7.3,2.6,7.3,2.6,6.8,10.3c-0.2,3,0.4,5.2,3.8,5.8c1.2,0.2,2.5,0.3,3.4,1
		c0.9,0.6,1.8,1.9,1.8,2.7c-0.1,0.8-1.5,1.8-2.4,2.1c-1.6,0.4-3.4,0.1-5,0.5c-4.7,1.1-6,2.6-6.5,7.8c-0.2,2.7-1.4,4-3.8,5.3
		c-3.9,2.2-7.5,5.2-7.3,11.2c1.6-0.4,3.4-0.3,4-1.1c5-6.8,11.3-5.9,18.6-3.2c0.4,3.8,0.8,7.7,1.1,11.6c-1.1,0.1-1.7,0.3-1.9,0.1
		c-5.2-5.4-6.8-5.6-11,0.2c-3.4,4.6-6,9.7-9.6,15.6c-2-4.5-3.9-8.6-6.3-13.9c-2.3,5.3-2,9.2-1,12.7c1.9,6.4,2,12.7,1,19.2
		c-0.3,1.9,0.5,4.2,1.4,5.9c2.4,4.4,5,8.8,7.7,12.9c1.7,2.6,3.6,5.2,6,7c2.7,2,3.5,4,2.9,7.3c-2.6,14.7-5,29.4-7.6,44
		c-0.3,1.6-0.8,3.8-1.9,4.4c-2.3,1.2-2.4,3.1-3.1,5.2c-1.6,4.6-5.5,5.3-8.7,1.3c-1.9-2.4-3.4-5.2-4.6-8.1
		c-4.8-11.5-12.6-20.2-23.4-26.4c-7.8-4.5-15.3-9.7-23.6-15c1.7-4,3.3-7.8,4.9-11.6c-0.2-0.1-0.5-0.2-0.7-0.3
		c-2.2,3.3-4.4,6.6-7,10.5c-3.6-2.1-6.8-3.8-9.8-5.7c-9.5-6-19.1-12-28.6-18.1c-4.2-2.7-4.2-2.8-3.9-7.4c-3.7,0.3-7.5,0.7-11.9,1.1
		c0.1,1.4,0.2,3.4,0.3,5.4c-9.5,8.8-9.5,8.8-19.8,10.6C752.8,245.6,752.1,243.5,752.6,241.8z M785,249.9
		c6.1,6.4,12.2,12.9,18.6,19.6c-3.8,4.5-8.8,6.5-13.3,8.9c-5.1,2.7-5.9,8.1-9.3,13.6c-1.1-6.4,2.9-9.7,3.5-13.9
		c0.7-4.7,1.5-9.5,1.3-14.2C785.7,259.5,784.5,255,785,249.9z M738.9,402.2c4.1,0.8,7.5,1.5,11.8,2.4c-4.1,3.9-7.9,5.1-13.5,4.5
		C737.8,406.6,738.3,404.6,738.9,402.2z M725.5,468.9c3.7-17.3,7-34.7,10.5-52.3c1.5-0.1,2.7-0.3,3.8-0.3c8.6-0.3,17.2-0.6,25.8-1
		c6-0.2,11.9-0.5,17.4,4.2c-2.2,2.2-4.2,4-6,6.1c-4.8,5.6-4.3,15.6,2.1,19c6.9,3.7,7.2,9.2,7.6,15.6c0.1,2.7,0.8,5.8,2.4,7.9
		c4,5.5,13.4,5.3,19.2,0.1c2.5-2.2,5.2-4.2,7.5-6.7c3.5-3.7,7.4-3.6,11.9-2.5c5.8,1.4,11.6,2.5,18.5,4c0.2,1.5,0.7,4,0.7,6.6
		c0.3,10.3,0.4,20.7,0.8,31c0.2,3.6-1.5,5.9-3.8,8.2c-15.5,16-30.9,32.2-46.7,48.1c-21.2,21.3-42.5,42.5-64,63.4
		c-8.6,8.3-18.9,14.5-29.7,22.3c-0.5-3.4-0.9-5.4-1.1-7.3c-0.6-7.9-4.3-11.5-12.3-11.6c-1,0-1.9,0.3-2.8,0.3c-0.7,0-1.3-0.3-2.7-0.7
		c3.6-17.5,9.7-34.1,14.3-51.1c4.6-17.2,10-34.1,14.4-51.3C717.9,503.6,721.8,486.3,725.5,468.9z M712.1,687.8
		c3.6,1.9,6.6,3.5,9.7,5.2c-8.8,11-13.1,14.5-20,15.6C702,700,708.1,694.8,712.1,687.8z M687.8,704.7c3.9-10.2,11.1-16.4,19-15.4
		C699.9,694.4,698.1,703.8,687.8,704.7z M669.5,584.9c3.7-17.1,7.5-34.2,11.4-51.2c3.4-15,6.7-30,10.7-44.8
		c5.9-21.5,12.4-42.9,18.7-64.3c0.7-2.4,1.8-4.8,2.8-7.1c9.7,3.7,10,4.1,8.3,13.3c-8,43.7-18.4,86.9-32,129.2
		c-3.9,12.1-7.3,24.4-11,36.5c-0.7,2.2-1.5,4.4-2.8,7.7c-2.6-5.2-4.7-8.6-6-12.4C668.8,589.8,669,587.1,669.5,584.9z M663.8,541.4
		c-2.3,11.8-4.6,23.7-7,36c-5.9-1.5-7.8-4.7-8-9.3c-0.5-9.3-1.1-18.6-1.7-28.3C652.8,538.5,658,538.6,663.8,541.4z M627.8,552.3
		c0.5-0.1,0.9-0.2,1.4-0.3c2.5,5.2,5.1,10.3,8.2,16.7c-4-0.3-6.8-0.5-9.6-0.7C627.8,562.3,627.8,557.3,627.8,552.3z M637.1,714.5
		c0,0.4-0.4,0.8-0.7,1.2c-3.6-4.3-3.8-6.3-0.4-10.7C636.4,708.4,636.8,711.5,637.1,714.5z M603.5,547.4c5.3-1.6,9.7-2.9,14.9-4.5
		c1.6,8.4,1.2,15.9-0.1,23.7c-5.8,0.5-10.2-2.2-13.7-5.6C600.7,557,606.4,551.9,603.5,547.4z M616.8,651.2c-6.1,0.2-6.1,0.2-4.6-4.9
		C613.8,648,615,649.4,616.8,651.2z M601.6,544.2c-11.3-1.3-11.3-1.3-12.1-7.5C596.9,534.4,599.2,536.5,601.6,544.2z M595.2,560.1
		c-2.1,1.9-3.6,3.3-5,4.5c-11.7-3.8-13.8-6.5-11.3-14.4c-6.2-4.3-15.5-5.6-17.1-15.2c3.6-1.7,6.9-3.3,11.1-5.3
		c2.3,5.9,3.6,12.4,7.2,17.3C583.7,552,589.6,555.4,595.2,560.1z M585.3,572.3c-0.3,0.5-1.8,1.1-2.4,0.8c-2.5-1.2-2.6-3.1-0.8-5.6
		C584.8,568.5,586.6,569.6,585.3,572.3z M574.2,523.4c-4.1,0.7-6.4,6-11.4,4.3C566.5,521.2,569.2,520.1,574.2,523.4z M563,516.6
		c1.5-0.2,3-0.5,5.5-0.9c-1.7,3.7-3.2,4-5.2,2.8C563.2,517.9,563.1,517.2,563,516.6z M559.1,467.1c6.6,10.4,12.1,21,17.9,31.4
		c-0.6,0.5-1.2,1-1.8,1.5c-1.3-1.5-3-2.7-3.9-4.4c-2.7-5-6.6-8.7-11.2-12C551.4,477.3,551.5,476.8,559.1,467.1z M555.2,573.9
		c2,1.8,3.9,3,7.1,2.1c7.2-1.9,12.5,1.3,16.9,7.3c-0.8,1.4-1.6,2.8-2.3,4.3c-1.3,2.9-1.1,5.4,1.8,7.5c2.7,2,5.1,4.4,7.7,6.5
		c5.6,4.4,9.5,10.1,12.5,16.4c0.7,1.5,1,3.3,2,4.6c4.5,6.8,4.3,13.7,1.7,21.1c-2.7,7.5-2.5,7.8-11.9,8c-8.9-30.9-25.7-57.6-48-81.2
		C547.8,570,551.8,570.9,555.2,573.9z M569.1,661.3c-4.4,1-7.2,1.7-10.3,2.4c-1.7-4.6-2.4-8.6-0.7-14.3
		C562,653.6,565,656.9,569.1,661.3z M529.8,466.6c3.6,1.8,4.2,4.7,3.6,7.4c-1.5,6.4-3.4,12.7-5.1,18.8c-4.4,0.2-4.1-3-5.3-4.8
		c0,0-0.1,0.2-0.1,0.2C525.2,481.2,527.4,474.2,529.8,466.6z M501.2,594.1c0.6,0.7,1.3,1.1,1.3,1.6c0,0.6-0.5,1.2-0.9,1.7
		c-0.5-0.4-1.4-0.7-1.4-1.1C500.1,595.8,500.7,595.1,501.2,594.1z M498.1,605.9c1,5.4-3,8.5-5,12.5
		C492.7,613.4,495.2,609.5,498.1,605.9z M495.8,560.4c-1.2,5-4.9,7.6-8.8,10.7C486.2,562,489.1,558.5,495.8,560.4z M473.7,497.6
		c2.9,2.5,5.8,5,9.2,7.9c-5.2-0.1-6.9-1.3-10.3-6.6C472.9,498.4,473.3,498,473.7,497.6z M446.8,510.5c-8.6-1.9-17.2-3.8-25.8-5.7
		C430.3,502.6,438.8,505.6,446.8,510.5z M410.9,521.3c1.3-3.1,2.7-4.6,6.2-4.6c7.7,0.1,15.3-0.1,23-0.3c1.8-0.1,4-0.4,5.4-1.3
		c8.8-5.9,17-2.8,25.3,0.5c-0.1,0.6-0.1,1.2-0.2,1.9c-4.5-0.3-9-0.6-13.5-0.8c-1.4-0.1-2.9-0.3-4.3-0.1c-1.1,0.2-2.8,0.9-2.8,1.6
		c-0.1,1.2,0.3,2.9,1.2,3.7c2.6,2.3,5.6,4.2,9.4,7c-17.1,4.8-32.8,9.2-48.9,13.7C410.1,535.2,407.8,528.5,410.9,521.3z M463.5,538.9
		c-3.7,5.5-9,6.3-16,5.7C452.1,538.7,458.1,539.7,463.5,538.9z M450.5,535.2c0.9-0.4,1.9-0.7,2.9-1.1c0.1,0.5,0.3,1,0.4,1.5
		c-1,0.2-2,0.4-3,0.5C450.7,536.2,450.4,535.3,450.5,535.2z M416.3,558.5c0.4-0.5,0.7-1,1.1-1.5c3.3,2.1,6.5,2.7,10.1,0.6
		c2.1-1.3,5.1-1.2,7.6-1.9c1.6-0.5,3.3-1,4.4-2c5.1-4.7,6.8-4.7,13.2,1.2c-7.7,6.8-18,6.9-26.5,11.8
		C422.8,563.7,419.6,561.1,416.3,558.5z M431,568.1c6.8-3,14-6.2,21.2-9.2c1-0.4,2.6-0.9,3.4-0.4c6.6,3.4,13.5,2,20.4,1.7
		c1.1,0,2.1,0.5,4.2,1.1c-8,11.9-15.6,23.2-22.2,33.1C448.9,585.3,440,576.8,431,568.1z M463.1,667.3c-1.2,2.8-4.1,3.6-10.2,3.5
		c-1.6-5.7-1.5-11,3.4-15.5c2.1-1.9,3.4-4.7,5.4-6.7c1.9-1.9,4.3-3.3,6.5-4.9c0.5,0.4,1,0.9,1.5,1.3
		C468.6,652.7,466.2,660.1,463.1,667.3z M474,671.9c1.7-3.5,3.2-6.8,4.7-10c0.6,0,1.1,0,1.7,0c1.9,4.4,3.8,8.7,6,13.8
		C481.2,676.3,478,674.3,474,671.9z M545.4,667.8c-7.1,2.4-13.6,5.7-19.9,9.8c-6.8,4.5-14.5,6-22.7,3.9c-2.8-0.7-4.6-2.2-5.6-4.9
		c-3.4-9-7-17.8-10.3-26.8c-0.5-1.5,0-3.8,0.7-5.3c6-12.5,12.1-25,18.2-37.5c0.7-1.5,1.4-3.5,2.6-4.2c8-4.2,11.4-12.1,16.1-18.9
		c0.8-1.2,1.7-2.2,3.6-4.8c1,3.6,1.8,5.6,2,7.6c1.7,14,6.5,27,12.6,39.6c4,8.2,4.8,17,6.3,25.7c0.5,2.8,0.6,5.7,1,8.6
		C550.6,665.8,550.6,666,545.4,667.8z M546.3,1085.6c6.6-44,10.8-88.2,13.2-132.6c2.1-38.4,2.9-76.8,4.4-115.2
		c0.5-11.8,1.3-23.5,2-35.2c0.5-8.6,5.5-15.2,10.1-21.8c0.8-1.1,3.5-1.8,5-1.3c9.2,2.5,17-0.2,24.4-5.4c5.2-3.7,10.5-7.3,16-11.2
		c1.7,3.6,3.2,7,4.5,9.7c-2.4,7.9-1.6,15.7-4.9,22.9c-3.2,7-3.6,15.2-5.4,22.9c-1.9,7.9-4.2,15.8-6.2,23.7c-2,7.7-3.8,15.4-5.8,23
		s-4.2,15.3-6.4,22.9c-2.1,7.5-4.2,15-7.8,22.5c-0.5-1.5-1.1-2.9-1.3-4.4c-2.1-16.7-3.3-33.4-2.9-50.3c0.2-7.6-0.8-15.3-1.6-23
		c-0.3-3.1-1.3-6.2-5-7.7c-4.4,2.4-5.4,6.8-5.7,11.3c-1.4,19.4-2.7,38.8-4,58.2c-1.2,17.3-0.6,34.6,3,51.6c0.9,4.5,1.5,9,2.8,13.4
		c1.9,6.8,0.9,13.2-0.7,19.8c-8.2,33.6-16.2,67.2-24.1,100.8c-1.3,5.3-2.2,10.7-3.2,16c-0.6-0.1-1.1-0.1-1.7-0.2
		C545.4,1092.7,545.8,1089.1,546.3,1085.6z M556.1,1249.7c-0.8,4.7-1.6,9.5-2.5,14.2c-1.3,7.8-2.1,8.5-11.7,10.3
		c0-2.9-0.2-5.7,0-8.5c0.9-9.3,1.9-18.6,3.2-27.9c0.3-2.2,1.3-4.8,2.9-6.3c3.2-3.1,6.6-6.1,12.6-8.1
		C558.9,1233.3,557.5,1241.5,556.1,1249.7z M561.4,1193.5c-3.1,0.4-6.1,0.6-10.2,0.9c0.4-15.2,2.9-29.5,5.2-43.8
		c2.3-14.1,5-28.2,7.5-42.2c0.7-0.1,1.5-0.1,2.2-0.2c1.1,3.1,1.6,6.6,3.5,9.2c4.7,6.8,5,14,3.9,21.7c-0.1,0.9,0,2,0.2,2.9
		c3,10.2,0.2,19.9-2.5,29.7c-1.4,5.1-2.9,10.2-3.6,15.4C567.2,1191.2,565.1,1193,561.4,1193.5z M564.4,1259.5
		c0.7-13.7,3.2-25.3,5.6-37.5c8.2,1.1,15.5,2.8,23.2,7.3C585.5,1240.9,575.8,1249.7,564.4,1259.5z M672.1,1176.1
		c-2,0.2-4.2-0.7-6.1-1.6c-2.5-1.3-5.3-2.7-7.1-4.8c-5.3-6-13-4.9-19.5-7.1c-2-0.7-4.7,0.4-7,0.9c-5.5,1.2-10.3,0.4-14.8-3.2
		c-5.8-4.6-11.8-8.7-18-13.3c2.5-4,6.3-4.6,10.5-3.4c3.9,1.1,6.9-0.1,9.4-3.7c-1.4,0.1-2.9,0.2-4.3,0.4c-4.1,0.5-5-0.3-5.4-4.5
		c-0.3-3.3,0.9-5.9,2.9-8.6c3.1-4,5.9-8.1,8.5-12.4c2.7-4.5,3.2-9.4,2.6-14.6c-0.7-5.5-1-11-1.5-16.4c-0.2-2.2-0.2-4.3-0.7-6.4
		c-1-4.8-2.2-5.5-7.6-4.8c-0.7,0.1-1.4,0-2.5,0c-1.3-3.6-2.5-7.2-4-10.7c-4-9.5-8.1-19-12.1-28.5c-1.8-4.4-3.3-9-4.8-13.5
		c-1.5-4.4-1.5-8.9-0.3-13.5c1.1-3.9,2.1-8,2.1-12c-0.1-11,2.4-21.4,5.1-31.9c12.6-48.6,25-97.2,37.6-145.7c2-7.9,4.4-15.6,7.1-24.9
		c6.6,3.3,11.8,6,17.1,8.7c3.6,1.8,5,4.9,4.9,8.9c-0.3,8.6-0.3,17.3-1,25.9c-2.4,29-5.2,57.9-7.5,86.8c-1.9,23.9-3.3,47.9-4.9,71.9
		c-0.2,2.8-0.3,5.6-0.5,9.6c-7.1-3.8-11.5-9.4-17-13.3c-5.5-3.9-10.5-8.7-17.5-9.6c-0.4,0.5-0.8,1-1.1,1.4c2.1,2.4,4,5.1,6.4,7.3
		c8.2,7.4,16.4,14.8,24.9,21.8c3.3,2.7,4.8,5.5,5,9.7c0.9,18.4,5.3,36,11.2,53.4c3,8.8,5.2,17.9,7.9,26.8c0.5,1.8,1.7,3.4,2.4,5.2
		c4.2,10.9,8.4,21.8,12.8,33.3c-11.1-1.8-21-3.6-31.1-4.9c-10.3-1.3-20.1,2.2-30.7,3.1c1.3,3.9,4.1,3.8,6.2,4
		c8.8,0.6,16.8,3.4,24.6,7.4c9.5,4.9,19.8,7.4,30.4,8.3c6.2,0.5,9.6,3.2,11.1,9c0.6,2.3,1.5,4.4,2.5,7
		C689.2,1174.4,680.7,1175.4,672.1,1176.1z M696.6,1141.2c-4.7-13.8-11.8-26.8-13.7-41.6c-0.5-3.7-2-7.4-3.9-10.8
		c-7.4-13.4-11.1-28-13.6-43c-0.6-3.5-1.7-7-2.4-10.5c-0.7-3.4-1.1-6.8-1.7-10.8c15.9,5.6,23,17.6,26.4,31.6
		c2.2,8.9,6.9,15.1,14.2,19.8c4.2,2.8,7,6.2,7.7,11.5c2.3,19.3,4.8,38.6,7.2,57.8c0.1,0.9,0,1.8,0,3.2c-6.2,0.6-11.6-1.4-16.9-3.1
		C698.5,1145.1,697.1,1142.9,696.6,1141.2z M708.5,1170c-1.5-3.5-2.8-6.4-4.7-11c6.1,0.3,10.5,0.5,15,0.7
		C719.4,1167.9,712.9,1166.9,708.5,1170z M728.8,1129.8c-0.7,0.1-1.5,0.2-2.2,0.4c-0.5-2.2-1.3-4.4-1.5-6.6c-1.1-10-2-20.1-3-30.1
		c-0.6-6,0.8-11.3,4.9-16c2.5-2.8,4.5-5.9,6.8-8.9c0.5,0.2,1,0.4,1.5,0.6C733.1,1089.3,731,1109.6,728.8,1129.8z M722,1022.6
		c-2.6,3.7-4.4,7.9-6.7,11.8c-1.3,2.2-2.9,4.2-5.3,7.6c-3.5-8.6-4.5-15.9-5.1-23.3c-0.3-4,1.4-6.5,4.9-7.9c2.5-1,5-1.7,7.5-2.4
		c8.8-2.5,14-8.4,14.7-17.5c0.5-5.4,2-9.3,6.4-12.9c4.7-3.8,7.7-9.2,8.1-15.6c0.1-1.7,0.1-3.4-0.4-5c-1.1-3.6-3.8-4.4-6.5-1.7
		c-1.8,1.8-3.2,4.2-4.5,6.4c-2,3.2-3.8,6.5-5.9,10.3c-3.9-5-6.6-10.2-10.8-13.5c-4.3-3.5-10-5.2-16-8c-1.5-4.3-3.3-9.7-5.3-15.1
		c-1.7-4.5-4.9-5.5-8.3-2.1c-3.7,3.7-7.6,7.7-9.8,12.3c-1.7,3.5-1,8.1-1.5,13.5c-4.4,2.5-4.7,8.3-4.9,14.1
		c-0.1,4.1-0.5,8.2-0.2,12.2c0.6,8.6,4,15.7,12,20c11.3,6.2,11.3,6.2,13.1,19c0.3,2.4,0.8,4.8,1,7.1c0.3,4.2-2.6,7-6.7,6.1
		c-5.1-1.2-9.7-2.9-12.7-8.3c-2.3-4.2-6.2-8.1-10.3-10.7c-6.5-4.2-8.6-9.4-8.1-16.9c1.5-19.4,2.2-38.9,3.7-58.2
		c2.6-33.5,5.6-67,8.5-100.5c0.9-10.5,1.7-21.1,3.2-31.5c1.3-9,4.9-17,13.7-21.7c1.8-1,3.8-2.6,4.6-4.4c3.5-7.6,9.9-12.9,14.7-19.4
		c2.2-2.9,4.2-5.7,3.6-9.8c-0.2-1.7,0.7-3.8,1.6-5.4c6.5-10.3,8.8-21.7,9.2-33.6c0.1-3.4,1.4-5.6,4-7c3.8-2,7.8-3.7,11.7-5.5
		c2.1-1,4.8-1.1,4.8-5c-5.2-3.2-10.1,2.2-17,1.5c5.3-4.5,9.4-8,13.5-11.5c-1.9-3.3-4-2.6-6.4-1.4c-2,1-4.3,1.8-7.5,3
		c-0.7-4.9-1.7-8.8-1.7-12.7c0-2.1,1.6-4.3,2.8-6.3c1.3-2,3.5-3.5,4.4-5.6c2.1-4.9,5.8-6.2,10.7-7.1c13.5-2.3,26.8-5.1,40.2-7.7
		c5-0.9,10-1.5,15-2.2c6-0.8,10.6-3.9,15.4-8.5c-4.1-1.7-7.5-0.8-10.8,0c-10.1,2.4-20.2,3.3-30.7,2.4c-6.1-0.5-12.4,0.6-18.6,1.3
		c-3.8,0.4-7.4,1.3-11.5,2c-0.9-4.9-2-9-2.3-13.2c-0.1-1.8,1.2-4,2.5-5.5c3.5-4,7.2-7.8,10.9-11.5c16.6-16.7,33.2-33.3,49.9-49.9
		c0.8-0.8,1.8-1.3,4.3-3.2c-2,7.9,2.6,14.1-0.6,20.7c-0.8,1.6-0.5,3.8-0.4,5.7c0.5,7,4.5,10.8,11.7,10.9c6.9,0.1,8,1,7.9,7.8
		c-0.1,8.7,1.3,17.1,3.8,25.5c3.2,10.8,2,21.8-1.4,32.6c-7,22.2-14.1,44.4-21,66.6c-10.4,33.2-19.9,66.7-28.2,100.5
		c-9.5,38.5-17.6,77.2-24.4,116.3c-2.2,12.3-4.6,24.5-7.1,36.8c-0.4,1.8-1.1,4-2.5,5C734.6,1000.4,729.3,1012.3,722,1022.6z
		 M742.9,1162c-0.1-2.6-0.4-4.2-0.2-5.8c3.3-40,8.1-79.8,14-119.4c0.7-4.9,2.7-7.9,7.2-9.6c2-0.7,3.9-2.2,5.9-2.6
		c12-2.2,21.1-10.1,31.3-15.7c1.9-1,3.7-2.4,5.2-3.9c14.3-14.4,32.7-22.3,50.4-31.2c0.4-0.2,0.9,0,1.4,0c0.3,0.4,0.9,0.8,0.9,1.1
		c-2,7.3-3.6,14.8-8.2,21.2c-4.2,5.8-7.8,12.1-11.7,18.1c-2.2,3.4-4.8,6.6-6.7,10.2c-2.7,5-4.9,10.3-7.2,15.5
		c-0.3,0.7-0.3,1.5-0.6,2.1c-7.5,11.6-6.4,25.3-9.7,37.9c-0.7,2.5-1.3,5-2.2,8.4c-2.6-1.5-4.5-2.6-7-4c-1,1.2-2.1,2.6-3.2,4
		c8.5,5,12.2,13.2,9.3,22.1c-1.8,5.8-2.2,11.2,0.1,16.8c2.2,5.5,2.1,11.2,0.5,16.9c-3.2,11.3-6.3,22.5-9.9,35.6
		C783.2,1167.8,763.1,1164.9,742.9,1162z"/>
</g>
</svg>
