<?xml version="1.0" encoding="utf-8"?>
<!-- Generator: Adobe Illustrator 27.8.1, SVG Export Plug-In . SVG Version: 6.00 Build 0)  -->
<svg version="1.1" id="레이어_1" xmlns="http://www.w3.org/2000/svg" xmlns:xlink="http://www.w3.org/1999/xlink" x="0px"
	 y="0px" viewBox="0 0 374.5 443.1" style="enable-background:new 0 0 374.5 443.1;" xml:space="preserve">
<style type="text/css">
	.st0{fill:#166966;}
</style>
<path class="st0" d="M332.1,3.3c-2.3,4.4-4.4,9-7.3,13.1c-1.5,2.1-4.4,4.3-6.9,4.5c-7.7,0.8-15.5,0.3-23.3,0.9
	c-9.3,0.7-18.5,2-27.7,2.9c-2.1,0.2-4.3,0-6.4,0c-5.1,0-10.3-0.8-15.3,0c-20.9,3.3-40.4,11.2-59.1,20.7
	c-11.2,5.7-21.4,13.5-32.8,18.8c-10.7,5-19.6,12-28,19.6c-10.8,9.7-20.9,20.3-31.2,30.6c-4.8,4.8-9.4,9.8-14.1,14.7
	c-7,7-14.1,13.8-21,20.8c-2.8,2.8-5.2,6-7.8,9.2c0.8,0.2,1.8,0.5,1.6,0.4c-2.2,2.6-4.5,5.2-6.7,7.8c-0.4,0.4-1.1,1.3-1.2,1.2
	c-3.1-1.5-3.2,1.4-4,2.9c-1.6,2.9-2.9,5.5-2.6,9.5c0.2,3.8-3.3,7.7-5.2,11.6c-0.6,1.2-1,2.4-1.6,4c1.5-0.4,2.6-0.7,4.5-1.1
	c-2.3,3.2-4.5,5.6-5.8,8.3c-2.5,5.6-4.8,11.3-6.6,17.1c-2.8,8.8-5.1,17.7-7.5,26.5c-2,7.3-4.2,14.6-5.5,22c-0.6,3.3,0.6,7,0.7,10.5
	c0,1.1-0.5,2.5-1.2,3.4c-2.8,3.5-3.8,6.9,0.5,9.9c-5.8,7.2-7,19.7-2.5,26.9c-5.4,1.6-3.5,5.5-3,9.1c0.2,1.3,0.4,2.6,0.4,4
	c0.1,5.6,0.2,11.1,0.4,16.7c0,1,0.3,1.9,0.3,2.9c0.2,10.7-0.4,21.6,0.8,32.2c1,8.9,2.4,17.5,2,26.6c-0.2,5.6-1.8,10.3-3.5,15.3
	C3.7,432,2,437.1,0,443.1c2,0,3,0.1,4,0c10.7-1.5,21.4-2.6,32-4.6c20.1-3.8,40.2-7.4,60-12.4c13.5-3.4,26.2-9.8,39.6-13.3
	c19.6-5,37.4-13,54.4-24c12.8-8.3,26.7-14.8,39.7-22.6c8.8-5.3,18-10.5,25.4-17.4c12-11.2,23.9-22.1,37.6-31.5
	c24.7-16.9,41.9-40.4,50.9-69.5c2.2-7.1,5-14.1,8.4-20.7c8-15.7,15.2-31.7,20-48.7c2.8-9.9,2.6-20,2.4-30.2
	c-0.3-10.9-0.6-21.6-4.5-31.9c-3.5-9.2-5.7-18.5-4.5-28.3c1.2-13.8-4-25.5-10.2-37c-0.6-1-2.1-2.3-3-2.2c-4.5,0.8-6.3-2.3-8-5.3
	c-2.6-4.3-5.4-8.5-7.1-13.1c-1-2.6-0.9-6.3,0.1-8.9c1.6-4.3,4.4-8.2,6.7-12.3c1.6-2.8,2.6-5.6-1-7.7C338.1-1,334-0.2,332.1,3.3z
	 M190.9,89.1c0-0.2,0-0.4,0-0.7c13.9,0,27.9,0,41.8,0c0.1,0.2,0.1,0.4,0.2,0.7C218.8,89.1,204.9,89.1,190.9,89.1z M109.2,142.2
	c0.1-0.1,0.3-0.1,0.4-0.1c13-2.3,26.4-3.2,39.1-6.8c9.9-2.8,19.8-2.2,29.6-4.1c16.8-3.3,33.5-6.5,50.3-9.7c1.9-0.4,3.8-0.6,5.9,0.3
	c-17.8,3.4-35.6,7-53.4,10.2c-6.8,1.2-13.9,1.1-20.7,2.4c-11.1,2.2-22,5.3-33.1,7.7c-3.8,0.8-7.8,0.4-11.7,0.8
	c-2.9,0.3-5.8,1-8.7,1.5l0,0l0,0l0,0C107.6,143.7,108.4,142.6,109.2,142.2z M89.2,147.3c5.8-1,11.7-2,17.5-2.9l0,0l0,0l0,0l0,0
	c0,0,0,0-0.1,0c-5.7,1.5-11.4,3-17.1,4.5C89.5,148.4,89.4,147.8,89.2,147.3z M59.4,199.4c9.1,0,16.2-5.5,24.3-8.5
	c1.4-0.5,2.9-0.5,4.4-0.8c0.1,0,0.1-0.1,0.2-0.1s0.1,0,0.2-0.1c4.5-6.6,11.5-8.3,18.6-9.4c0.5-0.1,1-0.2,1.4-0.2
	c12.1-1.9,24.3-3.1,36.5-4.9c10.8-1.5,21.6-2.9,32.2-5.3c10.9-2.4,21.5-5.8,32.2-8.7c1.2-0.3,2.5-0.4,4,0.4
	c-13.9,3.6-27.9,7.2-41.8,10.8c-2.2,0.6-4.7,0.5-6.8,1.3c-12.5,4.5-25.9,2.5-38.7,5.4c-6.4,1.5-13.1,1.7-19.5,3.4
	c-5.2,1.4-10,4.1-15,6.2c-1,0.4-2,0.7-3,1.1c0,0.1-0.1,0.1-0.1,0.2l0,0c-0.1,0-0.2,0-0.3,0c-6.1,3.1-12.1,6.5-18.5,9
	c-4,1.6-8.7,1.8-14.5,2.9C57.2,200.7,58.3,199.4,59.4,199.4z M54.5,258.4c7.9-4.2,15.8-8.2,23.7-12.3c0.5-0.2,1.1-0.2,1.6-0.2
	c0.1,0,0.1-0.1,0.2-0.1s0.1-0.1,0.2-0.1c0.6-1,1.2-2.1,2-3.5c-10.3-7.1-22.4-8-34.3-9.7c10.8,0.1,21.4,0.8,31,6.2
	c4.6,2.6,8.8,2.6,13.1-0.2c0.7-0.4,1.5-0.8,2.1-1.3c18.7-14.2,40.5-21.7,62.6-28.6c8.7-2.7,17.5-4.8,26.3-7.2
	c0.1,0.4,0.3,0.8,0.4,1.2c-0.9,0.3-1.8,0.7-2.7,1c-14.3,4.3-28.9,7.9-43,13c-16.4,5.9-32,13.6-46.2,24c-3.3,2.4-7.6,3.4-11.4,5
	c0,0.1-0.1,0.1-0.1,0.2l-0.1-0.1l0.1,0.1c-0.1,0-0.2,0-0.3,0c-5.4,3.3-10.7,6.8-16.1,9.9c-3.5,2-7.3,3.6-11.5,4.9
	C53,260,53.6,258.9,54.5,258.4z M17,283.9c9.2-5.8,18.3-11.6,27.5-17.4c0.2,0.4,0.4,0.8,0.6,1.3c-9.1,5.8-18.2,11.6-27.3,17.4
	C17.6,284.8,17.3,284.4,17,283.9z M48.3,303.5c-9.8-0.5-19.7-4-29.5,0.5C22.9,299.1,39.8,300,48.3,303.5z M20.6,339.2
	c4.1-4.8,8.2-9.6,12.3-14.4c0.4,0.3,0.7,0.6,1.1,0.9c-4.1,4.8-8.3,9.6-12.4,14.3C21.2,339.8,20.9,339.5,20.6,339.2z M27.1,366.4
	c4.4-2.9,8.8-5.7,13.2-8.6c0.3,0.4,0.5,0.8,0.8,1.2c-4.4,2.8-8.8,5.7-13.2,8.5C27.6,367.1,27.4,366.7,27.1,366.4z M13.7,384
	c3.7-4.5,7.3-8.9,11-13.4c0.3,0.3,0.7,0.5,1,0.8c-3.6,4.6-7.3,9.1-10.9,13.7C14.5,384.7,14.1,384.3,13.7,384z M71.3,419.3
	c-0.4-0.1-0.8-0.2-1.3-0.3c1.4-5.8,2.8-11.6,4.2-17.4c0.4,0.1,0.8,0.2,1.2,0.3C74,407.7,72.7,413.5,71.3,419.3z M99.7,409.8
	c5.9-19.8,7-39.2-4-57.9C108,366.4,107.8,394.1,99.7,409.8z M179.5,384.5c0,0.7,0,1.3,0,2c-3.2-0.3-6.4-0.6-9.7-0.9
	c0-0.6,0.1-1.1,0.1-1.7C173.1,384.1,176.3,384.3,179.5,384.5z M213.5,323.2c-2,4.9-4.1,9.8-6.1,14.7c-0.5-0.2-0.9-0.4-1.4-0.6
	c2.1-4.9,4.1-9.7,6.2-14.6C212.6,322.8,213.1,323,213.5,323.2z M267.1,298.2c-8.1,5.1-2.7,13.1-5.1,20.4c-0.7-5.5-1.2-10.1-1.7-13.9
	c1.9-2.5,3.7-4.8,5.4-7.1C266.2,297.8,266.7,298,267.1,298.2z M309.3,267.3c-4,4.8-6,4.6-14-1.7C299.9,266.9,304,271.1,309.3,267.3z
	 M276.8,278.8c-0.5-0.1-1.1-0.2-1.6-0.3c0.9-4.3,1.8-8.6,2.7-12.9c0.3,0.2,0.7,0.4,1,0.6C278.2,270.4,277.5,274.6,276.8,278.8z
	 M327.6,211.7c-0.7,11.4-1.3,22.8-2,34.3c-0.5,0-0.9-0.1-1.4-0.1c0.8-11.5,1.5-23,2.3-34.4C326.8,211.5,327.2,211.6,327.6,211.7z
	 M311.7,140c4,4,8,7.9,7.8,14.1c0,0,0,0,0,0.1c0.1,0.1,0.1,0.2,0.2,0.3c1.5,1.8,3.3,3.5,4.2,5.6c1.9,4.2,4.5,6.2,9.3,5.7
	c5.3-0.6,10.6-0.7,15.9-0.1c-5.4,0.4-10.7,0.9-16.1,1.1c-6.3,0.2-7.5,2.2-6.2,8.7c1.4,7.4,2.1,14.9,2.2,22.5
	c-2.2-14.7-1.9-29.8-9.2-43.4c-0.1-0.1-0.2-0.2-0.3-0.4l0,0c0-0.1,0-0.1,0-0.2c-2.9-5-5.7-9.9-8.6-14.9
	C311.2,139.5,311.4,139.8,311.7,140z M282.4,86c-1.4,1.9-2.9,3.7-4.2,5.6c-5.9,8.3-11.9,16.4-17.5,24.9c-1.2,1.8-1.7,4.8-1.2,6.9
	c3.2,12.3,7.4,24.5,10.3,36.9c3.3,14.5,6.6,29.1,8.1,43.8c1.2,11.7,2,23.6,0.7,35.5c-0.6,5.4,1.3,11.1,2.5,16.6c0.2,1.2,1.8,2.2,3,3
	c1.8,1.3,3.8,2.3,5.4,3.8c-2.9-1-5.9-1.8-8.8-3c-0.7-0.3-1.4-1.3-1.6-2.2c-2.5-9.2-2.8-18.6-1.9-28.1c0.4-4-0.4-8.2-0.7-12.3
	c-0.4-6.3-0.7-12.6-1.4-18.8c-2.8-24.7-8.6-48.6-16.4-72.1c-0.4-1.1-0.8-2.2-1.3-3.2c-0.2-0.4-0.7-0.6-1.9-1.6
	c-4.4,5.5-8.9,11-13.2,16.5c-5.9,7.6-11.7,15.3-17.3,23.1c-3.7,5.2-7.2,10.7-10.4,16.3c-1,1.8-1.2,4.4-0.9,6.6
	c1.3,13.5,2.9,27,4.3,40.5c0.7,6.1,1.3,12.2,2,18.3c0.1,0.5,0.4,1,0.2,1.4c-4.9,14.4,0.6,28.5,0.7,42.8c0,2.6-1.4,5.2-1.6,7.9
	c-0.6,6.8-0.8,13.6-1.3,20.4c-0.1,0.9-0.4,1.7-0.7,3c-0.7-0.8-1.3-1.1-1.3-1.4c0.8-8.8,2.2-17.5,2.2-26.3c0-10.6-1.2-21.2-1.8-31.8
	c-0.1-2.4,0-4.9,0-7.3c0.1-4.3,0.6-8.5,0.3-12.8c-1.1-16.6-2.5-33.1-3.9-49.6c-0.2-2.2-1.3-4.4-2.2-7.2c-1.6,1.3-2.8,2-3.5,2.9
	c-10.6,13.7-21.1,27.3-31.6,41.1c-2.3,3-3.9,6.4-6.4,9.5c-8.6,10.6-16,22.1-23.4,33.5c-1.3,2-1.6,5.5-0.9,7.9
	c4.9,17.6,10.2,35.1,15.3,52.6c0.8,2.6,1.2,5.6,0.7,8.3c-1.4,9-2.6,18.1-5.2,26.8c-1.6,5.2-5.6,9.6-8.4,14.5c-1.5,2.5-2.8,5-5.1,7.1
	c2.8-5.6,5.8-11,8.2-16.8c2.5-5.7,4.6-11.6,6.4-17.6c1.1-3.6,1.6-7.5,1.9-11.3c0.3-3.6,0.5-7.5-0.4-10.9
	c-4.7-17.2-9.8-34.4-14.8-51.5c-0.2-0.8-0.8-1.4-1.2-2.1c-5.1,3.1-30.7,41.7-30.4,44.8c-1.7,0.9-3.4,1.3-4.3,2.4
	c-4.4,5.6-9.2,11.1-12.7,17.3c-3.5,6.1-8.8,10.7-12.2,16.8c-3.5,6.4-7.2,12.8-11.7,18.5c-5.7,7.3-12.3,14-18.6,20.7
	c-10.4,11.2-20.7,22.5-31.6,33.2c-4.2,4.2-9.8,7-15.1,9.9c33.5-27.4,61.2-59.6,85-97.5c-16.8,2.7-31.3,7.7-45.2,14.6
	c-0.2-0.5-0.4-1-0.6-1.5c6.5-2.7,12.7-5.9,19.4-8c7.9-2.4,16.2-3.7,24.2-5.9c2.2-0.6,4.4-2.4,5.8-4.3c14.1-19.3,28.1-38.8,42-58.3
	c2.3-3.2,4.4-6.5,6.2-10.3c-30.5,6.1-57.5,20.5-84.2,35.1c-0.2-0.4-0.4-0.7-0.6-1.1c2.8-1.7,5.4-3.6,8.3-5
	c14.5-7.1,28.8-14.5,43.6-20.9c9.4-4,19.6-6.2,29.3-9.6c2.8-1,6-2.6,7.6-4.9c13.3-18.1,26.8-36.1,39-54.9
	c6.1-9.5,14.8-16.4,21.2-25.4c4.9-6.8,9.1-14.2,14-21.1c3.3-4.7,7.4-8.9,11-13.4c15.5-19.6,30.9-39.2,46.4-58.8
	c1-1.3,2.2-2.4,3.3-3.5C281.7,85.5,282.1,85.7,282.4,86z M185.9,306.7c-5.6-14.1-4.7-28.9-5.4-43.6c-0.2-4.7-1.7-9.4-2.7-14.1
	c-0.2-1.2-0.7-2.4-0.7-3.7c4.3,7,5.8,14.8,6.2,25.2C179.8,280.9,184.6,293.8,185.9,306.7z M199,56.2c-4,1-8,1.9-11.9,2.9
	c-0.1-0.5-0.2-1-0.3-1.5c4-0.8,8-1.6,12-2.5C198.9,55.5,198.9,55.9,199,56.2z M240.1,52.8c0,0.5,0,0.9-0.1,1.4
	c-5.1-0.3-10.1-0.5-15.2-0.8c0.1-0.4,0.2-0.8,0.2-1.3C230.1,52.4,235.1,52.6,240.1,52.8z"/>
</svg>
