<?xml version="1.0" encoding="utf-8"?>
<!-- Generator: Adobe Illustrator 27.8.1, SVG Export Plug-In . SVG Version: 6.00 Build 0)  -->
<svg version="1.1" id="레이어_1" xmlns="http://www.w3.org/2000/svg" xmlns:xlink="http://www.w3.org/1999/xlink" x="0px"
	 y="0px" viewBox="0 0 442.9 374.5" style="enable-background:new 0 0 442.9 374.5;" xml:space="preserve">
<style type="text/css">
	.st0{fill:#02956A;}
</style>
<path class="st0" d="M3.2,42.1c4.4,2.3,9,4.4,13.1,7.3c2.1,1.5,4.3,4.4,4.5,6.9c0.8,7.7,0.3,15.5,0.9,23.3c0.7,9.3,2,18.5,2.9,27.7
	c0.2,2.1,0,4.3,0,6.4c0,5.1-0.8,10.3,0,15.3c3.3,20.9,11.2,40.4,20.7,59.1c5.7,11.2,13.5,21.4,18.8,32.8c5,10.7,12,19.6,19.6,28
	c9.7,10.8,20.3,20.9,30.6,31.2c4.8,4.8,9.8,9.4,14.7,14.1c7,7,13.8,14.1,20.8,21c2.8,2.8,6,5.2,9.2,7.8c0.2-0.8,0.5-1.8,0.4-1.6
	c2.6,2.2,5.2,4.5,7.8,6.7c0.4,0.4,1.3,1.1,1.2,1.2c-1.5,3.1,1.4,3.2,2.9,4c2.9,1.6,5.5,2.9,9.5,2.6c3.8-0.2,7.7,3.3,11.6,5.2
	c1.2,0.6,2.4,1,4,1.6c-0.4-1.5-0.7-2.6-1.1-4.5c3.2,2.3,5.6,4.5,8.3,5.8c5.6,2.5,11.3,4.8,17.1,6.6c8.8,2.8,17.7,5.1,26.5,7.5
	c7.3,2,14.6,4.2,22,5.5c3.3,0.6,7-0.6,10.5-0.7c1.1,0,2.5,0.5,3.4,1.2c3.5,2.8,6.9,3.8,9.9-0.5c7.2,5.8,19.7,7,26.9,2.5
	c1.6,5.4,5.5,3.5,9.1,3c1.3-0.2,2.6-0.4,4-0.4c5.6-0.1,11.1-0.2,16.7-0.4c1,0,1.9-0.3,2.9-0.3c10.7-0.2,21.6,0.4,32.2-0.8
	c8.9-1,17.5-2.4,26.6-2c5.6,0.2,10.3,1.8,15.3,3.5c5.2,1.8,10.3,3.5,16.3,5.5c0-2,0.1-3,0-4c-1.5-10.7-2.6-21.4-4.6-32
	c-3.8-20.1-7.4-40.2-12.4-60c-3.4-13.5-9.8-26.2-13.3-39.6c-5-19.6-13-37.4-24-54.4c-8.3-12.8-14.8-26.7-22.6-39.7
	c-5.3-8.8-10.5-18-17.4-25.4c-11.2-12-22.1-23.9-31.5-37.6c-16.9-24.7-40.4-41.9-69.5-50.9c-7.1-2.2-14.1-5-20.7-8.4
	c-15.7-8-31.7-15.2-48.7-20c-9.9-2.8-20-2.6-30.2-2.4c-10.9,0.3-21.6,0.6-31.9,4.5C107,7.8,97.7,10,87.9,8.8
	c-13.8-1.2-25.5,4-37,10.2c-1,0.6-2.3,2.1-2.2,3c0.8,4.5-2.3,6.3-5.3,8c-4.3,2.6-8.5,5.4-13.1,7.1c-2.6,1-6.3,0.9-8.9-0.1
	c-4.3-1.6-8.2-4.4-12.3-6.7c-2.8-1.6-5.6-2.6-7.7,1C-1.1,36.1-0.3,40.2,3.2,42.1z M89,183.3c-0.2,0-0.4,0-0.7,0
	c0-13.9,0-27.9,0-41.8c0.2-0.1,0.4-0.1,0.7-0.2C89,155.4,89,169.3,89,183.3z M142.1,265c-0.1-0.1-0.1-0.3-0.1-0.4
	c-2.3-13-3.2-26.4-6.8-39.1c-2.8-9.9-2.2-19.8-4.1-29.6c-3.3-16.8-6.5-33.5-9.7-50.3c-0.4-1.9-0.6-3.8,0.3-5.9
	c3.4,17.8,7,35.6,10.2,53.4c1.2,6.8,1.1,13.9,2.4,20.7c2.2,11.1,5.3,22,7.7,33.1c0.8,3.8,0.4,7.8,0.8,11.7c0.3,2.9,1,5.8,1.5,8.7
	l0,0l0,0l0,0C143.6,266.6,142.5,265.8,142.1,265z M147.2,285c-1-5.8-2-11.7-2.9-17.5l0,0l0,0l0,0l0,0c0,0,0,0,0,0.1
	c1.5,5.7,3,11.4,4.5,17.1C148.3,284.7,147.7,284.8,147.2,285z M199.3,314.8c0-9.1-5.5-16.2-8.5-24.3c-0.5-1.4-0.5-2.9-0.8-4.4
	c0-0.1-0.1-0.1-0.1-0.2s0-0.1-0.1-0.2c-6.6-4.5-8.3-11.5-9.4-18.6c-0.1-0.5-0.2-1-0.2-1.4c-1.9-12.1-3.1-24.3-4.9-36.5
	c-1.5-10.8-2.9-21.6-5.3-32.2c-2.4-10.9-5.8-21.5-8.7-32.2c-0.3-1.2-0.4-2.5,0.4-4c3.6,13.9,7.2,27.9,10.8,41.8
	c0.6,2.2,0.5,4.7,1.3,6.8c4.5,12.5,2.5,25.9,5.4,38.7c1.5,6.4,1.7,13.1,3.4,19.5c1.4,5.2,4.1,10,6.2,15c0.4,1,0.7,2,1.1,3
	c0.1,0,0.1,0.1,0.2,0.1l0,0c0,0.1,0,0.2,0,0.3c3.1,6.1,6.5,12.1,9,18.5c1.6,4,1.8,8.7,2.9,14.5C200.6,317,199.3,315.9,199.3,314.8z
	 M258.3,319.7c-4.2-7.9-8.2-15.8-12.3-23.7c-0.2-0.5-0.2-1.1-0.2-1.6c0-0.1-0.1-0.1-0.1-0.2s-0.1-0.1-0.1-0.2c-1-0.6-2.1-1.2-3.5-2
	c-7.1,10.3-8,22.4-9.7,34.3c0.1-10.8,0.8-21.4,6.2-31c2.6-4.6,2.6-8.8-0.2-13.1c-0.4-0.7-0.8-1.5-1.3-2.1
	c-14.2-18.7-21.7-40.5-28.6-62.6c-2.7-8.7-4.8-17.5-7.2-26.3c0.4-0.1,0.8-0.3,1.2-0.4c0.3,0.9,0.7,1.8,1,2.7
	c4.3,14.3,7.9,28.9,13,43c5.9,16.4,13.6,32,24,46.2c2.4,3.3,3.4,7.6,5,11.4c0.1,0,0.1,0.1,0.2,0.1l-0.1,0.1l0.1-0.1
	c0,0.1,0,0.2,0,0.3c3.3,5.4,6.8,10.7,9.9,16.1c2,3.5,3.6,7.3,4.9,11.5C259.9,321.2,258.8,320.6,258.3,319.7z M283.8,357.2
	c-5.8-9.2-11.6-18.3-17.4-27.5c0.4-0.2,0.8-0.4,1.3-0.6c5.8,9.1,11.6,18.2,17.4,27.3C284.7,356.6,284.3,356.9,283.8,357.2z
	 M303.4,325.9c-0.5,9.8-4,19.7,0.5,29.5C299,351.3,299.9,334.4,303.4,325.9z M339.1,353.6c-4.8-4.1-9.6-8.2-14.4-12.3
	c0.3-0.4,0.6-0.7,0.9-1.1c4.8,4.1,9.6,8.3,14.3,12.4C339.7,353,339.4,353.3,339.1,353.6z M366.3,347.1c-2.9-4.4-5.7-8.8-8.6-13.2
	c0.4-0.3,0.8-0.5,1.2-0.8c2.8,4.4,5.7,8.8,8.5,13.2C367,346.6,366.6,346.8,366.3,347.1z M383.9,360.5c-4.5-3.7-8.9-7.3-13.4-11
	c0.3-0.3,0.5-0.7,0.8-1c4.6,3.6,9.1,7.3,13.7,10.9C384.6,359.7,384.2,360.1,383.9,360.5z M419.2,302.9c-0.1,0.4-0.2,0.8-0.3,1.3
	c-5.8-1.4-11.6-2.8-17.4-4.2c0.1-0.4,0.2-0.8,0.3-1.2C407.6,300.2,413.4,301.5,419.2,302.9z M409.7,274.5c-19.8-5.9-39.2-7-57.9,4
	C366.3,266.2,394,266.4,409.7,274.5z M384.4,194.7c0.7,0,1.3,0,2,0c-0.3,3.2-0.6,6.4-0.9,9.7c-0.6,0-1.1-0.1-1.7-0.1
	C384,201.1,384.2,197.9,384.4,194.7z M323.1,160.7c4.9,2,9.8,4.1,14.7,6.1c-0.2,0.5-0.4,0.9-0.6,1.4c-4.9-2.1-9.7-4.1-14.6-6.2
	C322.7,161.6,322.9,161.1,323.1,160.7z M298.1,107.1c5.1,8.1,13.1,2.7,20.4,5.1c-5.5,0.7-10.1,1.2-13.9,1.7
	c-2.5-1.9-4.8-3.7-7.1-5.4C297.7,108,297.9,107.5,298.1,107.1z M267.2,64.9c4.8,4,4.6,6-1.7,14C266.8,74.3,271,70.2,267.2,64.9z
	 M278.7,97.4c-0.1,0.5-0.2,1.1-0.3,1.6c-4.3-0.9-8.6-1.8-12.9-2.7c0.2-0.3,0.4-0.7,0.6-1C270.3,96,274.5,96.7,278.7,97.4z
	 M211.6,46.6c11.4,0.7,22.8,1.3,34.3,2c0,0.5-0.1,0.9-0.1,1.4c-11.5-0.8-23-1.5-34.4-2.3C211.4,47.4,211.5,47,211.6,46.6z
	 M139.9,62.5c4-4,7.9-8,14.1-7.8c0,0,0,0,0.1,0c0.1-0.1,0.2-0.1,0.3-0.2c1.8-1.5,3.5-3.3,5.6-4.2c4.2-1.9,6.2-4.5,5.7-9.3
	c-0.6-5.3-0.7-10.6-0.1-15.9c0.4,5.4,0.9,10.7,1.1,16.1c0.2,6.3,2.2,7.5,8.7,6.2c7.4-1.4,14.9-2.1,22.5-2.2
	c-14.7,2.2-29.8,1.9-43.4,9.2c-0.1,0.1-0.2,0.2-0.4,0.3l0,0c-0.1,0-0.1,0-0.2,0c-5,2.9-9.9,5.7-14.9,8.6
	C139.4,63,139.7,62.8,139.9,62.5z M85.9,91.8c1.9,1.4,3.7,2.9,5.6,4.2c8.3,5.9,16.4,11.9,24.9,17.5c1.8,1.2,4.8,1.7,6.9,1.2
	c12.3-3.2,24.5-7.4,36.9-10.3c14.5-3.3,29.1-6.6,43.8-8.1c11.7-1.2,23.6-2,35.5-0.7c5.4,0.6,11.1-1.3,16.6-2.5c1.2-0.2,2.2-1.8,3-3
	c1.3-1.8,2.3-3.8,3.8-5.4c-1,2.9-1.8,5.9-3,8.8c-0.3,0.7-1.3,1.4-2.2,1.6c-9.2,2.5-18.6,2.8-28.1,1.9c-4-0.4-8.2,0.4-12.3,0.7
	c-6.3,0.4-12.6,0.7-18.8,1.4c-24.7,2.8-48.6,8.6-72.1,16.4c-1.1,0.4-2.2,0.8-3.2,1.3c-0.4,0.2-0.6,0.7-1.6,1.9
	c5.5,4.4,11,8.9,16.5,13.2c7.6,5.9,15.3,11.7,23.1,17.3c5.2,3.7,10.7,7.2,16.3,10.4c1.8,1,4.4,1.2,6.6,0.9c13.5-1.3,27-2.9,40.5-4.3
	c6.1-0.7,12.2-1.3,18.3-2c0.5-0.1,1-0.4,1.4-0.2c14.4,4.9,28.5-0.6,42.8-0.7c2.6,0,5.2,1.4,7.9,1.6c6.8,0.6,13.6,0.8,20.4,1.3
	c0.9,0.1,1.7,0.4,3,0.7c-0.8,0.7-1.1,1.3-1.4,1.3c-8.8-0.8-17.5-2.2-26.3-2.2c-10.6,0-21.2,1.2-31.8,1.8c-2.4,0.1-4.9,0-7.3,0
	c-4.3-0.1-8.5-0.6-12.8-0.3c-16.6,1.1-33.1,2.5-49.6,3.9c-2.2,0.2-4.4,1.3-7.2,2.2c1.3,1.6,2,2.8,2.9,3.5
	c13.7,10.6,27.3,21.1,41.1,31.6c3,2.3,6.4,3.9,9.5,6.4c10.6,8.6,22.1,16,33.5,23.4c2,1.3,5.5,1.6,7.9,0.9
	c17.6-4.9,35.1-10.2,52.6-15.3c2.6-0.8,5.6-1.2,8.3-0.7c9,1.4,18.1,2.6,26.8,5.2c5.2,1.6,9.6,5.6,14.5,8.4c2.5,1.5,5,2.8,7.1,5.1
	c-5.6-2.8-11-5.8-16.8-8.2c-5.7-2.5-11.6-4.6-17.6-6.4c-3.6-1.1-7.5-1.6-11.3-1.9c-3.6-0.3-7.5-0.5-10.9,0.4
	c-17.2,4.7-34.4,9.8-51.5,14.8c-0.8,0.2-1.4,0.8-2.1,1.2c3.1,5.1,41.7,30.7,44.8,30.4c0.9,1.7,1.3,3.4,2.4,4.3
	c5.6,4.4,11.1,9.2,17.3,12.7c6.1,3.5,10.7,8.8,16.8,12.2c6.4,3.5,12.8,7.2,18.5,11.7c7.3,5.7,14,12.3,20.7,18.6
	c11.2,10.4,22.5,20.7,33.2,31.6c4.2,4.2,7,9.8,9.9,15.1c-27.4-33.5-59.6-61.2-97.5-85c2.7,16.8,7.7,31.3,14.6,45.2
	c-0.5,0.2-1,0.4-1.5,0.6c-2.7-6.5-5.9-12.7-8-19.4c-2.4-7.9-3.7-16.2-5.9-24.2c-0.6-2.2-2.4-4.4-4.3-5.8
	c-19.3-14.1-38.8-28.1-58.3-42c-3.2-2.3-6.5-4.4-10.3-6.2c6.1,30.5,20.5,57.5,35.1,84.2c-0.4,0.2-0.7,0.4-1.1,0.6
	c-1.7-2.8-3.6-5.4-5-8.3c-7.1-14.5-14.5-28.8-20.9-43.6c-4-9.4-6.2-19.6-9.6-29.3c-1-2.8-2.6-6-4.9-7.6
	c-18.1-13.3-36.1-26.8-54.9-39c-9.5-6.1-16.4-14.8-25.4-21.2c-6.8-4.9-14.2-9.1-21.1-14c-4.7-3.3-8.9-7.4-13.4-11
	c-19.6-15.5-39.2-30.9-58.8-46.4c-1.3-1-2.4-2.2-3.5-3.3C85.4,92.5,85.6,92.1,85.9,91.8z M306.6,188.3c-14.1,5.6-28.9,4.7-43.6,5.4
	c-4.7,0.2-9.4,1.7-14.1,2.7c-1.2,0.2-2.4,0.7-3.7,0.7c7-4.3,14.8-5.8,25.2-6.2C280.8,194.4,293.7,189.6,306.6,188.3z M56.1,175.2
	c1,4,1.9,8,2.9,11.9c-0.5,0.1-1,0.2-1.5,0.3c-0.8-4-1.6-8-2.5-12C55.4,175.3,55.8,175.3,56.1,175.2z M52.7,134.1
	c0.5,0,0.9,0,1.4,0.1c-0.3,5.1-0.5,10.1-0.8,15.2c-0.4-0.1-0.8-0.2-1.3-0.2C52.3,144.1,52.5,139.1,52.7,134.1z"/>
</svg>
