<?xml version="1.0" encoding="utf-8"?>
<!-- Generator: Adobe Illustrator 27.8.1, SVG Export Plug-In . SVG Version: 6.00 Build 0)  -->
<svg version="1.1" id="레이어_1" xmlns="http://www.w3.org/2000/svg" xmlns:xlink="http://www.w3.org/1999/xlink" x="0px"
	 y="0px" viewBox="0 0 1412.8 1909.5" style="enable-background:new 0 0 1412.8 1909.5;" xml:space="preserve">
<style type="text/css">
	.st0{fill:url(#SVGID_1_);}
</style>
<radialGradient id="SVGID_1_" cx="706.6578" cy="955.507" r="839.9147" gradientTransform="matrix(1 0 0 -1 0 1910.1575)" gradientUnits="userSpaceOnUse">
	<stop  offset="0" style="stop-color:#27B084"/>
	<stop  offset="1" style="stop-color:#B4C4B4"/>
</radialGradient>
<path class="st0" d="M189.4,911.6c-3.6-3.2-7.2-6.5-11.6-10.4c3,0,5.3,0,6.5,0c2.3-12.2,4.5-23.9,6.7-35.9c1.6,16.3,0.3,32.4,5.4,46
	c5.5,14.9,19.2,24.6,36.4,29.7c2-9.5,1.8-18.8,6-25.4c3.5-5.5,12-7.9,19.9-10.6c-2.8,3.5-5,8.3-8.7,10.1
	c-10.9,5.5-14.7,16-10.9,24.7c2.4,5.5,14.2,7,22.5,10.6c4.4-17.5,7.8-31.4,11.3-45.3c2.1-8.5,2.3-18.3,13.9-20.5
	c1.5-0.3,3.3-2.7,3.7-4.4c2.8-14.9,5.4-29.8,8-45c11.3,5.6,1.5,13.6,1.1,20.7c-0.4,6.6-0.1,13.3-0.1,21.6
	c25.4-4.7,48.2-16.2,71.5-35.9c-29.3-15.1-40.4-46.6-68.6-60.6c-12.3-6.1-22.6-16.3-35.1-21.8c-15.7-6.9-32.2-4.8-49.6-2.2
	c-41.3,6-82.9,11.2-124.6-2.3c-11.3-3.7-25.8,2.5-38.9,4.1l-0.8-0.9c10.7-14.6,9.7-13.2-5.2-24.5C30.5,720.1,15,704,0,686.6
	c62.5,68.5,139.4,81.3,227.7,61.3c-5.3-4.5-9.1-7.7-15-12.7c5.4,0.8,8.5,1.3,12.9,1.9c0.3-3.6,0.7-7.1,1.1-11.1
	c3.6-0.4,7.5-0.9,13.1-1.5c-16.3,19-0.6,20.9,11.8,23.4c10.9,2.2,25.1,12.5,28.9-11.5c4.4,26.8,29.2,48.3,48.7,44.5
	c7.4,31.3,41.9,58.3,80.9,61c23.5,1.6,44.2-7.8,64.1-20.5c0.1,0.4,0.9,2.9,1.3,4.1c5.9-1.5,11.8-3,16.3-4.2c1.7-9,3.8-19.4,5.8-29.8
	c1-0.2,2-0.4,3-0.6c2.8,9.3,5.7,18.5,8.5,27.8c12.5-1.4,28,2.4,28.9-18c0,3.5,0,7,0,13.9c9.8-5.6,17.9-10.3,25.3-14.6
	c-6-14.5-10.6-27.2-16.5-39.2c-5.7-11.8-12.7-23-17.8-36c5.3,6.6,11.6,12.6,15.5,19.9c4.2,7.8,5.7,17,9.2,25.2
	c3.6,8.5,8.3,16.6,12.5,24.9c1.6-0.7,3.1-1.3,4.7-2c-5-10.5-10-20.9-15-31.4c1.1-0.5,2.1-1,3.2-1.6c4.4,8.3,8.8,16.5,13.5,25.2
	c10.4-12.7,33.1-16.6,25.3-38.1c-16.3-2.3-32.3-4.6-48.2-6.8c0.2-2.3,0.5-4.5,0.7-6.8c14.9,1.6,29.1,15.8,44.2,4.6
	c-9.9-2.9-20.1-5.9-30.4-8.9c0.3-1.6,0.6-3.3,0.9-4.9c3.3,0.8,6.7,1.4,10,2.5c4.4,1.5,8.6,3.3,15.2,6c-7.3-15-13.7-21.4-30-18.5
	c-22.6,4-44.8-1.9-62.2-18.7c-12.7-12.3-24.9-25.2-37.6-37.5c-3.1-3-7.3-4.9-11-7.3c9.3-9.5,10.2-9.3,14.3,2.6
	c0.5,1.4,1.1,2.9,2.1,3.9c23.2,22.7,43.9,49.7,80.5,50.9c6.3,0.2,12.8-2.8,19.2-4.4c-1.4-5.9-1.3-12.8-4.5-17.5
	c-10.4-15.2-22.1-29.5-31.8-42.3c2.5,2.3,7.3,6.6,10.9,9.9c7.5-25.7,14-50.4,22-74.7c3.5-10.8,2.6-17.7-4.6-18.8
	c-3.2-13.6-5.7-24.2-8.2-34.7c0.9-0.2,1.8-0.5,2.7-0.7c3.7,8.2,7.4,16.4,11.4,25.4c10.3-8.8,14-18.3,8.7-31.4
	c-5.6-13.8-9.8-28.1-15-43.5c-18.3,8.7-35.4,17.8-53.3,25.1c-15.1,6.1-31.4,9.6-46.7,15.3c-6,2.3-11,7.6-16.3,11.7
	c-1.8,1.4-4.1,4.7-4.8,4.4c-17.4-8-31.5,6.2-47.5,6.8c-12.8,0.5-25.7,1.4-38.5,0.8c-8.9-0.4-15,0.4-19.3,9.7
	c-3,6.5-9.6,11.3-15,17.3c-11.3-15.3-10.9-43.2-0.8-56.3c-0.9,11.3-2.2,21.9-2.3,32.6c0,3.7,2.9,7.5,4.5,11.2
	c2.9-3.6,6.8-6.8,8.2-10.8c1.2-3.4-0.4-7.8-0.5-9.7c24.7-21.1,48.3-41.1,69.9-59.5c-6.2,24.6-36.2,32.2-54.9,52.6
	c25.1,11.9,46.6,5.1,67.6-2c14.7-5,28.2-16.8,42.9-18.1c23.8-2.1,44.2-11.3,64.7-21.2c10.2-4.9,19.1-12.6,29.3-17.5
	c7-3.4,15.5-3.4,22.8-6.4c26-10.5,47.4-26.5,64.1-49.8c13.7-19.1,15.1-17.9,3-39.2c-3-5.3-4.5-11.5-7.9-20.4
	c10.7,8.2,18.2,14,28.9,22.2c0-12.5,0-20.5,0-28.5c0.9-0.1,1.7-0.2,2.6-0.3c1.3,5,2.6,10,3.9,15c2.8-1.1,5.1-2.1,10.1-4.2
	c-3,6.7-4.7,10.5-6.5,14.5c30.8,1.7,72.7-11.5,79.4-24c-20.5-20.6-45.3-17.9-70.9-10.8c-0.2-1.9-0.4-3.8-0.6-5.7
	c10.3-2.4,20.6-4.7,31-7.1c1.5-2.1,3-4.1,4.5-6.2c-5.1-2.9-10.9-5.1-15.1-9c-6.9-6.4-13.5-13.3-18.8-21.1
	c-7.8-11.4-13.1-23.1-31.3-22.9c-7.3,0.1-14.8-13-25-22.6c18.4,0.3,20.2,26.4,39.5,15.5c-17.3-20,0.8-39.7,1.1-60
	c0.3-21.5-3.5-43.1-4.4-64.7c-0.4-9.2,1-18.9,4-27.5c0.7-2,11.2-0.8,17.2-0.5c1,0,1.9,2.8,2.9,4.3c-6.3,1.1-16,1.5-16.1,2.9
	c-0.8,7.4,0.9,15.1,1.6,22.7c0.6,6,1.1,12.1,1.8,18.1c2.9,24.4,2.3,48.3-4.1,72.4c-2.2,8.3,1.8,19.5,5.9,27.9
	c7.6,15.3,17.4,29.5,27.7,46.5c5.8-9.9,9.4-16.1,15-25.7c0.4,5.9,1.2,8.1,0.6,9.8c-6.8,19.1-4.9,24.9,11.9,37.5
	c16.6,12.5,34.1,16.5,52.9,5.7c5.7-3.3,10.4-8.5,16.5-13.6c-2.6-2.3-5.5-4.9-8.9-8c5.1-3.5,9.3-6.3,14.6-9.8
	c0.7,5.5,1.2,10.2,2.1,17.7c30.4-15.4,61.5-21.6,90.2-14.8c1-12.1,1.5-22.9,2.9-33.5c1.8-13.5,4.2-27,6.5-40.4
	c0.2-1.3,1.2-2.4,1.7-3.6c2.3-5.8,4.6-11.6,5.4-18.1c12.5-21,36.6-20.1,56.6-27.3c34.3-12.3,69.2-22.9,100.4-33.1
	c2.9-12,4.8-20.3,6.8-28.6c2.7,0.9,6.4,1,7.8,2.8c2.7,3.5,4,7.9,8.3,17.3c4.9-10.2,9.5-16.5,11-23.5c2.7-13,5.6-21.9,21.9-25.8
	c18.2-4.3,24.4-24,25.8-40.4c1-12.4-4.9-26.3-18.6-33.2c-1.7-0.8-2.9-2.6-5.6-5.1c5.4-1.9,9.5-3.4,14.7-5.2c3.2,5.4,6.2,10.5,8,13.6
	c9.5,3.4,17.6,6.4,27.6,10c0.7-7.6,1.2-13.6,1.8-20.3c15.3,13.3,13.1,32.4-3.9,38.3c-8.8,3-12.9,8.4-16.7,16.4
	c-6.9,14.3-15.3,27.8-24,43.3c6.2,0.3,10.2,0.4,14.2,0.6c-10.7,6.7-14.9,20.4-29.2,22.4c-5.9,0.9-11.6,8.6-15.8,14.4
	c-7.2,10-14.6,16.8-28.3,15.7c-6.9-0.5-14.2,3.3-21.3,5.5c-32,10.1-63.8,20.6-95.8,30.6c-24.9,7.7-28.8,14.7-31.2,41.4
	c-1.1,12.5-9.3,24.2-13.4,36.6c-5.1,15.5,3.4,27.6,19.4,30.5c3.9,0.7,8.3,4.1,10.5,7.5c9.6,14.9,18.5,30.3,28.2,46.6
	c6-10.1-11.2-21.2,1-28.3c4.6,19.6,8.2,39.5,14.3,58.6c3.5,11,12.5,20.1,16.6,31c8.2,22,29.2,31.9,43,48.4c6,7.2,11,15.1,17.5,24.2
	c-0.4,0.2,2.7-1.4,2.3-1.2c-5,11-11.2,24.3-17.3,37.6c1.9,1.3,3.8,2.5,5.7,3.8c12.7-12.8,25.4-25.6,39.2-39.5
	c1.3,18.5-10.1,29.1-25.8,42.2c17.2-4,29.8-6.9,43.5-10.1c-4.4-10-8.3-19-12.3-27.9c1.2-0.5,2.3-1.1,3.5-1.6
	c2.5,4.6,4.9,9.2,7.4,13.8c7,12.7,17.3,15.3,27.9,5.1c6.7-6.5,10.4-16,16.3-23.4c6.1-7.7,15.1-13.5,19.8-21.8
	c5.2-9.2,6.9-20.3,12.2-31c0.7,9.3,1.4,18.5,2,27.8c1.1,0.5,2.2,1,3.3,1.5c3.2-7.8,6.4-15.7,10.4-25.2c1.1,4.5,2,8.1,3.5,14.2
	c2.9-7.5,5.1-12.9,7.2-18.4c1.2,0.5,2.5,1,3.7,1.6c-7.4,15.9-14.8,31.8-22.9,49.3c9.1,0,15.3,0,23.1,0c-1.8-5.1-3.1-8.9-4.1-11.8
	c3.5,7.3,7.2,15,10.9,22.7c2.8-1.8,5.6-3.7,8.5-5.5c-4.3,1.2-8.8,3.8-13,3.5c-15.6-0.9-29.3,3.7-42.5,11.7
	c-11.8,7.1-25.1,12.1-36.3,20c-13.2,9.4-13.2,22.2-3.4,32.3c-11.8,20.5-22.2,40.7-16.7,64.9c4.6,20.5,11.5,40.5,15.5,61
	c3,15.6,3.2,31.9,8.1,49.3c3.1-8.3,6.3-16.6,9.4-24.9c0.8,0.2,1.6,0.3,2.4,0.5c-0.5,5.4-1,10.8-1.9,21.1c13.4-2.6,25.3-3.5,35.8-7.7
	c5.4-2.2,4.4-4.9-7.7-25.6c2.1,0.9,3.4,1.2,4.3,1.9c16.8,14.7,16.8,14.8,35.6,0.5c14.6-11.1,29.6-21.8,43.6-33.7
	c16.9-14.4,22.9-32.5,14.5-54.1c-1-2.6-1.7-5.4,0.4-8.9c2.2,8.6,4.4,17.3,6.6,25.9c1.2-0.2,2.5-0.3,3.7-0.5c-1-6.5-2-12.9-3.6-22.9
	c4,6.3,6.3,9.8,10.8,16.8c8.3-16.4,15.4-30.8,22.8-45.1c10.2-19.7,20.3-39.5,31.2-58.8c4.6-8.2,10-15.3,2.2-24.3
	c-16,1.2-32.2,2.5-48.3,3.7c-0.1-1-0.3-2.1-0.4-3.1c5.4-0.7,10.7-1.4,17.4-2.3c-1.7-3.5-3.1-6.3-3.7-7.6c9.1,2.5,18.5,5.2,28,7.9
	c1.7-1.6,3.3-3.2,5-4.9c-6.6-14-13.1-28.1-20.6-44c4.3,2.5,6.7,3.9,9.9,5.8c1.4-5.1,2.7-9.6,4.1-14.6c1.2,1.5,2.4,2.4,2.2,2.8
	c-10.7,22.7,7.9,38.4,13.3,57.2c1.7,6,1.8,14-0.8,19.4c-11.5,24.1-23.8,47.8-36.6,71.3c-14.3,26.3-28.9,52.5-44.5,77.9
	c-4.1,6.7-13.9,9.7-19,16c-5.9,7.2-9.6,16.2-14.3,24.5c-11.6-5.9-23.4-0.9-38.9,17.7c7.4,6.3,14.5,13,22.4,18.7
	c8.3,5.9,15.6,2.5,16.3-7.7c0.7-9.7-0.1-19.4-0.3-29.2c18.1,26.1,18.4,32,3.1,53.2c-16.3-4.6-32.6-9.2-49-13.8
	c0.4-1.1,0.7-2.2,1.1-3.2c4.3,1.9,8.6,3.9,13,5.8c1.3-1.5,2.5-3,3.8-4.5c-5.5-3.9-11.1-7.9-14.3-10.1c-8.6,2.9-16,7.4-23.6,7.7
	c-34.2,1.6-49.6,11.1-58.3,43.9c-5.7,21.3-17.4,37.5-31,53.8c-19.9,24-35.5,51-40.9,82.2c-2.2,12.9-0.4,26.5,2.5,40.1
	c2.1-11.4,4.8-22.7,6.2-34.2c1.4-10.9,1.5-22,18.6-20.9c-21.2,10.5-15,31.4-19.7,48.2c-4.3,15.6-6.6,31.8-10.7,52.2
	c15,1.1,30.2,5,44.4,2.5c13.9-2.4,26.8-11.2,41.8-15.4c-2.2,2.8-3.9,6.5-6.7,8.3c-22.4,13.3-44.1,28-72.5,14.9
	c-9.2-4.3-21.1-2.5-31.2-5.3c-5.8-1.6-10.5-7-15.9-10.9c-9.9,7.9-20.7,15.1-29.6,24c-3.4,3.4-2.6,10.9-3.9,17.5
	c-4,0.6-8.8,1.3-13.6,2c1.7-4.3,3.4-8.6,4.8-12c-13.4,1.1-26.5,2.2-39.6,3.3c5.1,25.5,5.6,25.7,27.5,9.9c1.3-0.9,3.9,0.1,5.8,0.1
	c-8.3,10.5-18.2,17.2-34.5,11c0.4,6.1-1.2,12.4,1.3,15c15.8,16.7,8,37.5,10.8,56.3c1.9,12.7,1.6,25.7,3.4,38.4
	c0.5,3.5,4.9,6.4,9,11.5c1.5-9.2,2.4-14.6,3.3-20.1c1.7,0.4,3.4,0.7,5.1,1.1c-0.3,4.8-0.6,9.5-0.9,14c23.8,4.2,47.5,8.4,71.3,12.5
	c2.5-4.2,5-8.2,7.5-12.3c0.8,0.3,1.6,0.6,2.4,0.8c-1.3,4-2.6,8-4,12.2c21.3,7.7,41.7,7,64.9-3.5c-19.9-21.5-38.1-41.2-56.3-60.8
	c0.6-0.5,1.3-1,1.9-1.6c20.4,19.9,40.8,39.7,62,60.4c-1.4,1-5.4,3.7-9.5,6.5c20.6,17.4,56.1,6.3,70.5-21.5c-1.2,13.6-4,17.2-22,28.2
	c20.6,4.6,36.2-2.7,40.5-19.5c-2.4,15.3,8.6,9.6,15.6,12.6c-5.6,1.1-11.6,1.4-16.7,3.6c-4.1,1.8-13.7,1-8.6,11.3
	c0.5,1.1-5.9,7.7-9.7,8.3c-6.6,1.1-13.7-0.5-22,2.4c11,4.6,22.7,8,32.8,14c10.4,6.1,21.6,13.1,28.1,22.7
	c6.7,9.8,14.3,13.4,24.6,16.9c16.5,5.7,35.7,10.7,47.1,22.4c11.8,12.1,24.1,16.2,37.7,15.2c17.6-1.3,36.2-4.3,52-11.7
	c38.1-18,39.3-32.6,37.7-72.2c7.1,12,4.9,46.2-6.8,55.7c-15.5,12.7-33.6,22.4-50.4,33.3c15.5,12.8,15.5,12.8,19.2,9.2
	c10.7,8.1,20.2,17.2,31.5,22.6c2.9,1.4,13-7.8,16.6-14c3.3-5.7,2.4-13.9,4.3-20.7c6.2,17.8-4.6,30.1-15.5,44.2
	c-8.7-5.1-18.5-10.7-28.6-16.6c-13.9,12.7-21.5-0.5-30.4-8.5c7.2,3.2,14.4,6.5,21.7,9.7c0.9-1.5,1.7-3.1,2.6-4.6
	c-10-6.4-20.1-12.9-33.1-21.2c2.7,6.4,3.9,9.3,5.1,12.3c-8.8-8.2-19.8-8.7-31-11.2c-16.1-3.5-31-12.5-46.3-19.5
	c-12.4-5.7-24.1-13.4-37-17.8c-11.8-4-21.9-7.8-27.6-20.4c-2.9-6.3-9.2-12.2-15.4-15.7c-18.2-10.1-36.8-19.6-56-27.7
	c-8.1-3.5-18.5-5.6-26.8-3.8c-30.2,6.6-59.9,15-89.8,22.9c-2.2,0.6-4.2,2.3-7.4,4.2c7.7,11.3,14.7,22.1,22.4,32.4
	c8.4,11.2,14.6-2.3,22-2.6l0.8,0.9c-4.8,4.6-9.6,9.1-14.5,13.8c3.6,6.7,7.4,13.9,11.3,21c-1.2,0.7-2.4,1.5-3.6,2.2
	c-3.4-3.2-6.8-6.4-10.1-9.6c-22.8,11.7-33.8,10.2-49.2-10.2c-11.7-15.6-27.2-30.2-25.3-52.5c0.3-3.5,2.4-6.9,3.6-10.4
	c2,3.4,6,7,5.7,10.1c-2.2,23.9,10,41.1,25.3,56.8c3.6,3.7,9,7.6,13.8,7.9c6.4,0.4,13.1-2.6,19.7-4.1c-1.7-5.8-1.9-13.1-5.6-17.2
	c-8.9-10-11.1-26.5-27.6-29.4c-1.2-0.2-1.7-4-2.6-6c-4.8-10.1-9.5-20.2-14.6-30.2c-1-2-3.6-4.3-5.6-4.5c-29.4-2.6-56.9-11.4-83-24.8
	c-0.7-0.3-1.8,0.2-2.2,0.3c2.7,24.8,5.3,49.6,7.7,71.6c-5.6,0-10.6,0-13.8,0c2.1-5.6,6.3-12.9,7.3-20.7c1.2-8.7-0.5-17.8-0.9-26.3
	c-11.1-4-16.2,0.3-20.2,9.6c-4,9.5-8.5,19.4-15.2,26.9c-14.9,16.8-21.5,16.5-38.4,1.7c-4.4-3.9-7.9-8.6-10.4-14.6
	c7,5.6,13.5,11.9,21,16.7c10.7,6.7,28-2.4,28.8-15.1c0.4-6.3-0.7-10.7,7.5-14.7c4.3-2.1,4.3-15.7,3.7-24c-0.4-5.3-5.4-10.2-8.6-15.7
	c9.3-12.6,4.4-22.4-6-32c-11.3-10.5-20.8-21.7-38.7-22.6c-11-0.6-17.5,2.9-23.6,10c-18.3,21-32.1,43.3-29.3,73.4
	c1.1,11.9-4.5,24.3-5.2,36.6c-2,31.9,13.2,60.1,21.3,89.8c6,21.7,13.2,43.1,18,65c2.5,11.4,0.2,23.8,1.4,35.6
	c1.4,13.2,1.3,27.8,7.1,39.1c13.6,26.4,14,55,17.8,83c3.2,23.9,9.7,46.4,21.9,67.4c10.5,18.2,13.4,37,9.3,58.8
	c-4,21.6-0.1,44.6-1.1,66.9c-0.6,13.2-4.1,26.2-6.2,39.3c-2.6,16.2-4.8,32.4-7.9,48.5c-1.7,9.3-5.1,18.2-7.1,27.5
	c-4,18.4-7.6,36.9-11.7,56.5c-36.6,0-74.4,0-115.1,0c10.4-29,18.5-57.8,30.8-84.6c16-34.7,20.8-70.4,17.5-107.8
	c-2-22.3-5.2-44.4-7.3-66.7c-0.5-5.8-0.4-12.6,2.2-17.6c11.8-23,4-45.7,1.2-68.8c-3.4-27.4-12.7-52.9-21.2-78.9
	c-3.8-11.6-3.2-24.5-5-36.8c-6-39.1-11.7-78.2-18.4-117.2c-4.8-28-11.9-55.6-15.8-83.7c-1.3-9.7,3.6-20.5,6.8-30.4
	c3-9.4,2.8-16.7-5.4-23.8c-5.9-5.1-9.6-12.7-11.9-20.9c6.4,7.8,12.8,15.6,19.2,23.5c3.2-23.6,2.5-45.4-12.7-64
	c-3.4-4.1-5.6-9.3-8-14.1c-4.3-8.8-7.2-18.9-20.5-17.1c-1.9,0.3-5-1.8-6.3-3.7c-13.5-19.6-31.4-13.4-49.4-9.4
	c-6.2,1.4-13.2-0.6-19.9-1c8.1-1,16.1-2,24.2-3c-0.2-2.1-0.4-4.3-0.6-6.4c-10.3,0-20.5,0-30.8,0c-0.7,1.1-1.5,2.1-2.2,3.2
	c3.3,2.2,6.6,4.4,9.8,6.6c-10.2-5.5-20.4-11-28.6-15.3c-9.9,9.8-17.8,17.4-25.6,25.2c-20.9,20.9-35.1,48.7-64.6,61.1
	c-7.7,3.2-12.8,12.3-19.4,18.4c-19.2,17.6-48.4,20.8-70.8,8.4c-3.2-1.8-7.5-3.8-10.6-3c-22.8,5.9-32.8-10.2-41-28.5
	c-2.8-6.1-3.2-13.2-5.5-23.5c6.9,14.5,11.9,25.5,17.3,36.4c7.7,15.4,20.9,12.1,35,10.2c-3-21.8-6-43-8.9-64.2
	c0.8-0.2,1.7-0.3,2.5-0.5c2.8,18.4,5.6,36.7,8.9,58.2c6.6-8.8,10.9-14.5,15.2-20.3c-3.1,7.3-7.1,14.3-9,21.9
	c-0.8,3.2,1.9,10,4.4,10.9c31.3,10.2,59.1-2.3,72.9-28.3c-5.3-8-12.6-16.2-1.8-23.7c2.1,6.2,4.2,12.4,6.2,18.7
	c6.7-2.5,13.7-4.5,20-7.7c3.4-1.7,6-5.3,8.5-8.3c13.1-16.2,23.6-36,39.9-47.9c17.6-12.9,11.9-24.5,6.4-37.9
	c-4.7-11.4-12.7-14.9-25.2-8.9c-13.3,6.4-27.8,10.6-41.8,15.6c-9.9,3.6-19.7,7.2-20.4,20.1c-0.6,11.8-2.4,23.7-1.5,35.4
	c1.5,18.8-4.6,27.2-23.1,29.2c-4.7,0.5-9.1,2.7-13.7,4.1c-0.5,0.2-1.3-0.5,0,0.1c-0.7-4.5-1.2-7.9-1.7-11
	c-7.9,7-14.4,12.7-20.9,18.4c2.5-4.3,5.9-8.3,7.2-12.9c1.4-4.8,1.4-10.2,0.9-15.2c-0.4-3.8-3.1-7.4-3.6-11.3
	c-2.4-16.5-4.5-33.1-6.6-49c0.8-0.1,5.3,0.4,6.9-1.5c1.5-1.8,0.3-6.2-0.5-9.3c-0.6-2.3-2-4.8-3.7-6.4c-13-12.6-18.9-27.5-12.4-47.7
	c-24.5,5-46.3,9.2-68,13.9c-41.7,8.9-83.5,16.3-125.9,5.7c-10.2-2.5-20.8-7.8-28.5-14.8c-20.3-18.4-39.2-38.5-48.8-65.2
	c-1.7-4.7-2.1-9.8-1.2-15.5c6,34.2,31.6,54.1,52.9,79.4c13.1-46.3-13.4-87.2-7.7-132.2c4.7,29.7,9.2,57.7,14.5,90.7
	c17.2-17.5,36.5-25.8,43.9-46.2c-3.8,8-6.1,17.3-11.8,23.7c-8.1,9.2-18.5,16.2-28.7,24.8c17.7,12.7,25.5,1.9,33.4-10.1
	c-1.3,6.8-2.7,13.7-4.2,21.8c-9.5-1.3-19.4-2.6-30-4.1c-0.6,6.6-1.4,11.5-1.5,16.5c-0.4,19.7,1.7,20.3,20.8,25.7
	c24.8,7.1,49.3,2.9,73.7,0.3c24.7-2.7,49.3-7.3,73.6-12.4c8.9-1.9,17-7.6,25.5-11.6c4.7,0.8,9.4,1.6,14.8,2.5c0-13.7,0-26.6,0-39.7
	c-5.8,2.5-12.8,6-20.2,8.5c-12.2,4.1-14.7,10.5-6,20.5c-8-6.1-15.2-13.9-24.1-18c-14.7-6.8-28.8-11.9-47.4-9.6
	C226.9,954.8,206.3,934.1,189.4,911.6z M721.3,769.9c6.2-6,12.4-12,20.9-20.3c-13.6-1.9-22.8-3.1-33.4-4.6c1.3,4.5,2.2,7.6,3.1,10.8
	c-3.3-3.4-6.2-9-10-9.6c-15.2-2.5-30.7-3.4-46.1-4.9c-3.2,29.9-0.2,36.6,22.3,47.7c0.6-2.4,1.4-4.7,1.7-7c0.3-2.4,0.5-5,0.2-7.4
	c-1.5-12.8-1.6-12.8,11.6-10.7c-12.8,20.4-12.1,37.6,3.1,48.7c2.3-11.1,4.4-21.4,6.5-31.6c1.5,0.4,3,0.8,4.5,1.2
	c-1,3.6-2,7.3-3,10.9c1,0.5,2,0.9,3,1.4C710.9,786.3,716.1,778.1,721.3,769.9z M907.3,1093.2c-3.5,4.5-7,9-10.7,13.8
	c-3.9-4.4-6.7-7.5-10-11.2c-11.2,12.7-25.8,23.8-16.3,41.8c4.7,8.9,15.1,14.7,24,22.8c1.5-4.5,2.3-6.8,3.1-9c1.3,3.3,2.7,6.6,4,9.8
	c1.4-0.3,2.8-0.5,4.2-0.8c-0.5-10.4-0.9-20.7-1.4-31.1c0.8,0.2,1.5,0.3,2.3,0.5c1.8,5.7,3.7,11.5,6.7,20.7
	c-5.4,13.9-3.7,17.2,13.2,15.7c-3.6-23.3-7.3-46.5-11-70c10.8-4.5,11.1-8,0.1-21.1c-2.6,4.9-5.1,9.7-7.6,14.5
	c1.6-8.7,3.2-17.4,4.8-26.2c-1.4-0.3-2.8-0.5-4.2-0.8c-4.3,6.7-9.1,13.1-12.8,20.1c-2.1,3.9-2.7,8.7-4,13.1
	C896.9,1095,902.1,1094.1,907.3,1093.2z M503.7,988.2c-2.3-6.1-4.6-12.1-7.8-20.5c-9.2,0-21.1,2.5-31.5-0.5
	c-26.8-7.7-42.2,13.4-62.5,22.1c-1.3,0.5-2.3,3.5-2.1,5.1c0.8,7.1,0,16,4,20.5s13,4.5,19.3,6.3c-11.5,6.4-20.5,0.9-28.5-9
	c-8.4-10.4-19-16-32.2-15.8c-6.5,20.3-1.1,35.2,16.2,46.7c0-9.5,0-18.5,0-26.3c3.2,2.8,6.5,5.6,8.7,7.6c-1.3,7.1-2.4,13.7-3.7,21.1
	c4.9-0.4,8.2-0.7,13.3-1.1c-4.5,3.9-7.5,6.6-14,12.2c33.9-1.5,62.6-5.6,88.8-20.9c10.9,2.9,22.7-4.7,24.2-15.6c2,0.9,4.9,3.1,6,2.4
	c11.7-7,10-16.3,3.9-26.1c11.1,3.7,11.6-5,12.2-11.5c0.9-9.5-4.8-13.2-15.1-12.5C503.2,977.8,503.4,983,503.7,988.2z M930,781.7
	c21.3,7.4,23.4,6.3,30.9-15.8c0.6-1.9,0.7-4.1,1.6-5.8c6.9-12.2,7.7-30.5,31.1-26.5c-4.7-13.8-8.4-24.8-12.1-35.6
	c-16.1,7.5-18.4,32.8-39.8,27c-15.1-4.1-29.1-12.6-43.3-19c0,0-0.4,3,0.6,5.4c9.1,22.4,18.5,44.8,27.8,67.1
	c-5.9-7.9-13.7-15.1-17.2-24c-9.2-23.4-16.5-47.6-25.2-73.2c-7.3,3.7-15.7,6.9-22.8,12c-25,17.9-43.7,44.2-74.1,55
	c-1.8,0.6-3.3,2.3-4.5,3.9c-14.8,18.4-29.7,36.7-44.2,55.3c-2.6,3.3-3.8,7.9-5.1,12.1c-4,12.8,1.1,19.3,14.1,21.6
	c15.2,2.8,30,8.4,45.3,9.6c20.2,1.6,40.8,0.7,58.7-12.5c-7.6-4.9-14.6-9.3-21.5-13.7c0.5-0.7,1-1.4,1.5-2.2
	c4.4,1.5,8.8,3.1,13.2,4.6c0.5-1.9,1.1-3.8,1.6-5.7c-10.4-3-20.8-5.9-33.1-9.5c12.5-6.5,12.2-12,4.4-19.6
	c-8.3-8.1-15.6-17.3-23.3-26.1c1.1-0.9,2.1-1.7,3.2-2.6c7.8,9.7,15.7,19.3,23.5,29c1.6-0.4,3.3-0.7,4.9-1.1
	c0.4-8.6,0.9-17.2,1.3-25.8c3.2,11,1.8,22.9,5.8,32.7c4,10,13.2,17.9,20.2,26.7c1.9-0.6,3.7-1.3,5.6-1.9c0-33.7,0-67.5,0-101.2
	c1.6,0.1,3.2,0.1,4.8,0.2c0,31.8,0,63.5,0,95.5c1.3-0.4,3.9-1.2,5.6-1.8c3.5,5.7,6.1,11.5,10.1,16.4c9.6,11.9,20.7,13.3,29.2,3.8
	c11.8-13.4,23-27.3,33.1-39.4C938,791.9,934,786.8,930,781.7z M282.3,942l-0.2-0.3c11.6,14.6,35.4,20.4,48.9,12.6
	c11.2-6.5,22.8-12.3,34.6-17.6c3.1-1.4,7.6,0.3,13.4,0.7c-7.5,4.9-16.6,7.7-17.3,11.9c-2,12.4-0.7,25.3-0.7,39
	c25-6.5,51.8-6,69.1-29.2c-6.1-5.4-11.7-10.3-17.2-15.2c0.6-0.4,1.1-0.9,1.7-1.3c8.7,2.8,17.3,5.6,27.6,8.9
	c-1.3-6.8-2.1-11-3.6-18.5c14.8,26.1,16,26.7,35.1,21.5c4-13.3-9.7-28,1-40.3c1.2,13.8,2.4,27.8,3.5,40.5
	c14.7,3.1,27.2,5.7,40.2,8.4c1.5-12,1.9-23.9,4.7-35.2c3.4-13.4-2.4-21.5-12-29c-8.1-6.3-16.5-12.3-23.8-19.4
	c-15.2-14.8-18.1-15.3-34.6-2.2c-14.5,11.5-28,11.5-41.7-0.8c-7.4-6.6-14.4-13.9-20.8-21.5c-5.9-7-10.7-7.5-19.1-2.6
	c-18.9,11-38,22.4-58.6,29.2c-15.1,5-21.5,14.1-26.6,26.8c-3.1,7.8-5.9,15.9-10.3,23C270,940.7,275.4,941.4,282.3,942z M602.7,634.7
	c1.4-0.2,2.7-0.4,4.1-0.6c-0.7-8.5-1.9-17-2-25.5c-0.1-7.4,1.2-14.8,1.9-22.2c3.3,12.1,3.6,23.8,5,35.3c1.3,10.8-2.1,23.2,10.2,30.7
	c10,6.1,19.6,12.8,29.7,19.5c1.3-4.8,2-7.7,2.9-10.9c21.6,13.1,21.6,13.1,25,3.2c11.3,11.9,26.3,10.9,40.9,13.7
	c22.9,4.4,21.9-15.6,32.8-25.2c-2.2,8.1-4.3,16.1-6.5,24.1c28,2.7,29.4,2.2,37.3-23.1c6.1-19.4,11.8-39,16.5-58.8
	c6.8-28.6,11.2-57.7,19-86c6.4-23.2-2.6-38.8-27.1-43c-13.1-2.3-26.7-5.3-38.5-11.2c-21.9-10.8-42.8-23.6-63.8-36.1
	c-21.4-12.7-32.6-14.1-48.5,3c-21.7,23.3-46.3,41.3-77.9,54.1c6.3,18.9,11.5,37.6,19,55.3c4.5,10.5,0.6,35.1-7.9,42.7
	c-6.3,5.6-10.2,13.9-15.1,20.9c1.5,1.1,3.1,2.2,4.6,3.3c1.3-3,2.6-5.9,3.9-8.9c1.1,0.9,2.1,1.8,3.2,2.7c-5,20.1-30.4,33.9-21.9,57.5
	c7.1,19.6,18.7,37.6,28.3,56.3c2.1-0.6,4.1-1.3,6.2-1.9c0-10.5,0-20.9,0-31.4c1.1,0.1,2.3,0.1,3.4,0.2c-0.4,9.7-0.9,19.4-1.3,29.3
	c13-1.8,13.4-1.8,13-13.2c-1-23.9-2.5-47.7-3.8-70.4C597.2,622.5,599.9,628.6,602.7,634.7z M845.5,582.9c1.1-0.5,2.3-1,3.4-1.5
	c10.8,18.5,21.7,37,32.5,55.5c1.8-0.2,3.6-0.3,5.4-0.5c2.5-8,5-16,7.7-24.6c3.2-1.6,8.7-4.2,14-6.7c15.6,7.7,31.9,15.8,51,25.3
	c10.7-8.2,28.5-15.8,36.8-29.2c19.5-31.9,43.2-62.1,48.8-101.4c2.5-17.5-1.3-29.6-15-38.6c-20.4-13.4-33.3-32-42.7-54
	c-4-9.4-10.7-17.7-14.3-23.6c-19.3,38-38.4,75.6-57.9,114c3.9,1.9,10,4.9,16.6,8.2c5.1-7.8,9.7-14.8,14.2-21.7
	c1.3,0.6,2.5,1.2,3.8,1.9c-3.5,7.2-5.9,19.5-10.8,20.7c-9.9,2.3-21.2-1.6-32-2.9c-16,8.7-33.3,19.1-51.4,27.8
	c-10,4.8-15.7,11.2-18.2,21.8c-6.3,26.3-12.9,52.5-19.7,78.6c-3.1,12.1-7,24.1-11.2,38.1c14.1-5,28.9,5.1,38.2-11.1
	c3.4-5.9,11.3-9.4,17.8-13c4.4-2.5,9.7-3.4,15.4-5.2C866,620.5,855,602,845.5,582.9z M1090.7,783.1c-0.6-1.4-1.1-2.9-1.7-4.3
	c-19.1,7.8-36.9,6.4-52.6-5.7c-4.9-3.8-8.6-9.3-12.4-14.4c-9.7-13-24.6-10-37.4-10.6c-4-0.2-8.4,10.3-12.5,16
	c-15.5,21.2-14.3,42.9-2.5,65.4c2.4,4.6,1.9,10.8,3.3,16c3.4,12.3,1.6,22.8-9.4,30.5c-10.7,7.4-20.6,3-31.1-1.1
	c-5.5-2.1-12.1-2.9-18.1-2.4c-8.4,0.7-16.8,2.6-24.9,5c-6.4,1.8-12.3,5.1-16.9,7.1c-42,0-83.4,0-126.5,0
	c4.7,24.8,28.2,28.5,38.1,44.4c5.3-5.7,9.9-10.6,14.4-15.5c0.8,12.8-1.6,24.7-3.7,36.6c-0.3,1.6,0.8,3.8,1.8,5.3
	c5.8,8.7,31.8,16.8,41.1,12.5c12.6-5.9,25.5-11.3,37.3-18.4c8.7-5.2,15.8-13,22.6-18.7c0,1.8,0,6.7,0,12.8c22.4,3,44.5,5.9,67.9,9
	c0-9.5,0-18,0-26.5c3,5.6,1.5,11.7,3.4,16.5c2.2,5.6,6.5,12.7,11.6,14.5c9.6,3.5,16.3-2.1,20.9-11.6c3.5-7.3,4.9-12.4-2.2-18.1
	c-3.2-2.5-4.9-6.8-7.2-10.4c1-0.6,2-1.1,2.9-1.7c4.3,5.1,8.7,10.1,15.8,18.5c5.4-26,26.1-43.1,17.5-69.2c1.3-1,2.6-2,3.9-3.1
	c0.3,3.5,0.6,7,0.7,8.5C1054.5,839.5,1072.6,811.3,1090.7,783.1z M1115.4,527.8c-13.4,3-24.8,6.9-36.5,8c-26,2.5-41,18-51.5,39.9
	c-0.9,1.8-2.5,3.3-3.1,5.1c-9.9,31.5-34.6,48.7-61.4,64c-3.5,2-7.5,3-12.4,4.9c21.8,15.8,38.4,21.2,55.3,20.4
	c10.8-0.6,13.7-6.1,8.2-15.6c15.7,3.9,22.8-7.3,25.1-18.4c2.4-11.6-0.6-24.3-1.1-33.1c3.1,1.3,9.8,4.2,14.5,6.2
	c-2,6.3-4.7,12.7-6,19.4c-5.1,25.1-16.2,42.5-34.1,46.5c-34.7,7.7-34.7,7.7-16.6,40.1c3.1-4.3,6.1-8.6,9.2-12.9
	c0.8,0.5,1.5,1,2.3,1.4c-3.6,10-7.1,19.9-12.5,34.7c11.6-2.5,18.2-3.9,26-5.6c4.8,5.7,11.4,14.4,18.8,22.3
	c19.8,21,51.3,15.7,62.8-10.2c1.8-4.1,5.3-7.4,7-11.5c3.3-8.3,8.8-17.1,8-25.2c-1.8-19.3-6.7-38.4-10.4-57.5
	c-2.2-11.5-7.6-23.2-6.3-34.3C1104,587.2,1110.2,558.2,1115.4,527.8z M793.5,329.6c-20.6,13.2-36.8,26.5-55.3,34.5
	c-18.5,8.1-39.3,10.9-59.1,16.1c-0.5,1.8-1,3.6-1.5,5.3c10.9,8.4,20.8,18.7,32.8,24.8c22.1,11.3,46.1,19,68.1,30.5
	c20.7,10.9,32.1-3,46.3-12.6c13.3-9.1,4.7-19.8,3.7-31.9c6.6,6.9,12.1,12.7,18.4,19.3c-13.1,11.2-26,22.3-38.5,33.1
	c6.6,5,13.4,9.9,20,15.1c19.8,15.8,22.7,15,31.2-8.6c0.2-0.5,1.7-0.6,2.5-0.9c5,11.3,4.1,21.1-5.1,25.8c-15,7.8-11.5,20.5-10.3,34.5
	c18.6-10.3,36.4-21.3,52.2-34.7c15.5-13.1,16.4-65,3.1-79.9c-1.3-1.4-3.3-2.2-4.9-3.4c-25.8-18.7-51.4-37.7-77.5-56
	c-6.2-4.4-14.1-6.4-22.5-10c-0.4,7.6-0.6,11.5-0.9,15.4c-0.9,0-1.8-0.1-2.7-0.1C793.5,342.5,793.5,338.8,793.5,329.6z M562,890.6
	c-16.3,15.7-15.8,19.4,0.5,34.5c5.7,5.3,9.1,13,13.8,19.3c3.8,5.1,7.1,11.5,12.3,14.4c17.5,9.9,35.7,18.5,53.7,27.6
	c14.6,7.4,29.1,14.7,45.6,23c-1.7-17.8-3.3-33.1-4.6-48.4c-2.4-27.6-4.4-55.2-7.2-82.8c-0.7-7.2-3.2-14.6-6.3-21.2
	c-1.6-3.4-7.9-4.6-9.4-8c-9.6-21.5-30.1-34.4-52.9-33c-6.9,0.4-13.9-0.9-20.8-1.4c-4.8-0.3-10.2-2.3-14.2-0.7
	c-13.8,5.4-26.1,14.4-41.6,15.5c-1,0.1-1.8,1.9-3.1,3.3c4.4,6.8,8.7,13.3,12.5,19c4.5-1.3,8-2.3,12.7-3.7
	C543,863.6,546.5,878.9,562,890.6z M712.2,897.3c4,46.8,7.9,92.2,11.8,138.8c3.8-4.5,6.7-7.6,9.2-11c2.6-3.5,4.7-7.2,7-10.9
	c-9.5,23.3-20.7,45.6-5.4,75.5c6.1-12.9,12.6-22.7,15.3-33.4c3-11.5,2.4-24,3.5-36c1.2,0,2.3,0.1,3.5,0.1
	c-0.7,11.9-1.4,23.8-2.2,35.7c27.9-21.2,49.6-50.2,85.9-57.5c-8-20.2-21.3-24.4-59.7-20.5c4.6-1.7,9.1-3.4,15-5.6
	c-17.3-24.1-27.8-50.7-50.9-70.1C731.9,891.4,723,891.2,712.2,897.3z M918.2,441.8c9.3-15.1,18-26.5,23.9-39.2
	c10.1-22,10.8-43.5-6-64.2c-14.8-18.2-32-29.2-56-28.3c-4.5,0.2-9-0.4-13.4-0.9c-20-2.2-38.1,2.7-56.4,14.6
	c29.7,27.3,56.5,55.8,97.2,66.7c1.2,3.9,3,9.4,5,15.6c2.7-2.3,4.7-4.1,5.7-5C918.2,413.9,918.2,426.3,918.2,441.8z M773.8,688.4
	c-25.4-1.1-47.4-0.5-68.9-3.3c-29.7-3.8-57.1-4.4-84.9,12.2c-16.4,9.8-16.9,19.5-15,34.1c14.2-0.8,27.5-1.5,41-2.3
	c0-11.6,0-21.9,0-32.3c3.4,5.6,3.7,11.3,3.4,16.9c-0.8,11.9,1.4,20,16.2,20.9c22.7,1.4,45.2,5.5,67.9,6.6c5.8,0.3,14.1-4.8,17.4-9.9
	C759.4,718.2,765.9,703.6,773.8,688.4z M637.5,1047.8c14.7,7.4,32.2,9.9,38,27.9c1,3.1,9.5,3.7,16.6,6.2
	c-1.4-19.4-3.6-35.3-3.2-51.1c0.3-10.3-5.1-14.7-12.3-18.2c-27.7-13.5-55.7-26.5-83.5-39.8c-3.1-1.5-6.4-3.4-8.5-6
	c-10.9-13.7-28.6-22-33-41c-0.3-1.4-3.7-2.1-7.7-4.2c1.7,14.4,5.6,26.9,4,38.7c-1.8,13.4,2,19.2,13.7,24.8
	c16.9,8.2,29.3,21.8,34.6,40.7c0.1,0.5,1.6,0.7,3.3,1.3c0.2-3.3,0.4-6.3,0.4-6.7c25.6,1.4,25.9,28.7,39.6,43
	c1.3-1.1,2.5-2.2,3.8-3.2C641.4,1056.1,639.5,1052,637.5,1047.8z M931.7,865c9.8,10.3,21.2,11.6,31.7,5.4c9.3-5.6,8.8-15.9,5.5-25.7
	c-1.1-3.3-1.1-6.9-2.1-10.2c-3.6-11.2-7.4-22.3-10.2-30.5c-13,11.4-26.7,20.3-36.5,32.5c-14.9,18.7-29,20.8-45.1,3.1
	c-2-2.2-3-5.2-4.2-7.5c-46.3,39.8-93,22.8-140.7,9.4c-0.8,5.4-2,10.7-2.1,16c-0.3,16.4,3.7,19.9,19.5,18.4c18.3-1.6,36.7-3.5,55-4.3
	c11-0.5,22,0.9,34.8,1.5c-3.2-6.9-5.1-10.7-5.5-11.6c12.1,2.7,24.8,5.5,39.4,8.7c-3.8-9-5.9-14.1-8.1-19.3
	c28.3,38.9,55.2,12.8,82.7,0.8C941.2,856.1,936.7,860.3,931.7,865z M853.2,1111.3c2.2,0.5,4.4,0.9,6.7,1.4
	c15.2-20.9,30.4-41.9,44.4-61.2c-24.3-17.4-48.9-19.8-73.2-10.1c-24.6,9.9-40.7,30.3-57.7,52.2c14.9,2.7,27.3,4.2,39.3,7.3
	c11.1,2.9,21.7,7.7,34,12.2c-3.5-11.4-6.1-19.8-8.7-28.3c0.4,0,0.8-0.1,1.2-0.1C843.8,1093.6,848.5,1102.5,853.2,1111.3z
	 M983.4,676.9c-28.8-20.9-56.7-14.2-83.8,0.2c-4.1,2.2-4.5,11.2-6.5,17.1c-0.1,0.4,1.1,1.3,2.2,2.5c1.8-2.6,3.6-5.1,5.7-8.2
	c2.7,15.5,31.3,33.4,48.3,30.9c2.7-0.4,6.2-1.4,7.6-3.4C966.1,703.1,974.8,689.8,983.4,676.9z M380.8,1063.7c0,16.4,0,36,0,55.6
	c1.1,0,2.2,0.1,3.4,0.1c2.2-3.8,4.4-7.5,6.7-11.3c2,3.1,2.5,5.7,1.4,7.6c-6.1,11.1,2.6,15.8,9.7,16.9c8.6,1.3,19.6-0.6,20.5-12.2
	c1.6-20.3,1.4-40.7,1.9-60.9C411.7,1060.8,396.9,1062.2,380.8,1063.7z M670.2,823.4c-2.6-8.1-3.4-16.5-7.6-22.7
	c-9.9-14.8-20.2-29.6-32.6-42.1c-5.4-5.5-14.4-15.4-23.4-8.1c0,9.6,0,16.9,0,25.9c3.3,4.5,6.9,13.1,13.3,17.5
	C635.7,804.6,652.8,813.4,670.2,823.4z M524.2,1042.1c5.4,8.9,8.5,21.1,15.6,24.2c11.6,4.9,25.8,3.8,42.3,5.7
	c-4.9-8.6-8.7-14-11.3-19.9C560.6,1029.3,546.8,1025.6,524.2,1042.1z M478.4,864.3c10.9,8.5,21.5,16.9,35,27.4
	c2.9-19.5,5.4-36.3,7.9-53.8c-10.2,0-16.4,0-22.8,0C492.5,845.9,486.3,854.1,478.4,864.3z M465.7,842.5c-12.3,3.5-22.6,7.1-33.2,9.3
	c-10.3,2.1-20.9,2.8-31.5,4.1c13.3,20.1,22.9,26.3,36.3,23.5C450.4,876.7,461.4,860.9,465.7,842.5z M908.4,989.5
	c16.9,6.5,32.2,2.9,47-3.7c2.6-1.2,5.7-5.2,5.5-7.6c-0.2-2.2-4.4-4.8-7.3-5.8c-6.1-2-12.5-3.2-18.8-4.4
	C910.6,963,909.6,963.9,908.4,989.5z M895,993c2-1,4.1-1.9,6.1-2.9c1.3-5.6,4.2-11.4,3.4-16.6c-0.5-3.5-7.1-9.3-9.6-8.7
	c-12.5,3.2-24.7,7.6-36.5,12.8c-2.6,1.1-5,8.1-3.9,10.7c1.6,3.4,6.8,7.3,10.4,7.3c8.1,0,16.2-2.3,25.8-3.9c-2.3-3.7-3.5-5.3-4.3-7
	c-0.5-1.1-0.5-2.4-0.8-3.6c0.7-0.4,1.4-0.7,2.1-1.1C890.2,984.3,892.6,988.7,895,993z M1039.7,939.9c-2-0.3-4-0.5-6-0.8
	c-6.7,10.7-13.8,21.2-20,32.3c-2.1,3.9-4,11.9-2.4,13.1c5.8,4.1,13,7.4,19.9,8.2c2.4,0.3,7.8-7.6,8.2-12.1
	C1040.4,967.1,1039.7,953.5,1039.7,939.9z M608.4,647c-1.5,0.3-2.9,0.7-4.4,1c0,16.2,0,32.3,0,52.9c12.6-9,27-13.9,29.6-22.4
	C639.5,659.2,614.3,660.1,608.4,647z M1020.2,1191.9c-0.8-1.5-1.6-2.9-2.3-4.4c-13.5-3.1-27-6.4-40.5-9.1c-2.2-0.4-6,1.1-7.2,2.9
	c-1.1,1.8-0.5,5.4,0.6,7.7c6.4,14,19.4,17.3,32.5,15.9C1009.3,1204.2,1014.6,1196.4,1020.2,1191.9z M873.4,665.6
	c24.1-10.4,44.5-19.2,67.1-28.9c-12.3-5.1-22.1-9.2-30.1-12.6C898.4,637.5,887.5,649.8,873.4,665.6z M1027.4,1207
	c20.4-4.7,40.3-9.2,60.1-13.7c-0.2-0.9-0.3-1.7-0.5-2.6c-21.4,0-42.9,0-65.6,0C1023.5,1196.2,1025.3,1201,1027.4,1207z M651,765.4
	c1.5-30.7-9.9-38.4-38.7-26.6C624.9,747.5,637.5,756.2,651,765.4z M524.5,839.8c1,10.5,1.1,20.4,3,30c2,9.8,5.8,19.2,8.9,28.8
	C538.6,877.8,544.3,856.6,524.5,839.8z M526.6,938.9c-4.7,17.4-1.3,27.3,11.1,31.8C539,958.2,543.8,945,526.6,938.9z M530.9,990.2
	c-10.6,4.2-14.5,17.4-6.7,23.8c3.1-0.8,7.1-1.8,11.1-2.9C533.8,1003.7,532.5,997.5,530.9,990.2z M469.9,864.7
	c6.9-7.6,13.9-15.2,22-24.1C471,836.5,470,850.3,469.9,864.7z M1132.2,1195.7c-0.3,1.1-0.5,2.2-0.8,3.2c8.5,1.8,17,4.2,25.6,5.1
	c1.9,0.2,4.4-5,6.6-7.7c-2.7-1.1-5.5-3.3-8.1-3.1C1147.7,1193.5,1140,1194.8,1132.2,1195.7z M838.9,685.7c-0.9-0.9-1.7-1.8-2.6-2.8
	c-7.4,7.8-22.6,7.2-25.2,20.1c1.1,1.2,2.3,2.4,3.4,3.7C822.6,699.7,830.8,692.7,838.9,685.7z"/>
</svg>
