<?xml version="1.0" encoding="utf-8"?>
<!-- Generator: Adobe Illustrator 27.8.1, SVG Export Plug-In . SVG Version: 6.00 Build 0)  -->
<svg version="1.1" id="레이어_1" xmlns="http://www.w3.org/2000/svg" xmlns:xlink="http://www.w3.org/1999/xlink" x="0px"
	 y="0px" viewBox="0 0 288.9 248.3" style="enable-background:new 0 0 288.9 248.3;" xml:space="preserve">
<style type="text/css">
	.st0{fill:#FDF4D2;}
	.st1{fill:#FCEBAB;}
	.st2{fill:#F5C972;}
</style>
<g id="petalT">
	<g>
		<path class="st0" d="M272.2,62.6C258.1,52,237.5,53,216,63.2C202.3,25.6,175.4,0,144.4,0S86.5,25.6,72.8,63.2
			c-21.5-10.1-42.1-11.1-56.2-0.6c-27,20.2-20.4,74.9,14.9,122.2c32.3,43.2,77.2,65.3,105.4,53.4c2.5,0.4,5,0.5,7.5,0.5
			s5-0.2,7.5-0.5c28.2,11.9,73.2-10.2,105.4-53.4C292.6,137.5,299.3,82.8,272.2,62.6z"/>
		<path class="st1" d="M245.4,103.6c-11.2-8.4-27.5-7.6-44.4,0.4c-10.8-29.7-32.1-49.9-56.6-49.9S98.6,74.4,87.8,104
			c-16.9-8-33.2-8.8-44.4-0.4c-21.4,15.9-16.1,59.2,11.8,96.6c25.5,34.2,61,51.6,83.2,42.2c1.9,0.3,4,0.4,6,0.4s4-0.1,6-0.4
			c22.3,9.4,57.8-8,83.2-42.2C261.5,162.8,266.8,119.5,245.4,103.6z"/>
		<path class="st2" d="M218.1,145.2c-8.1-6.1-20-5.5-32.4,0.3c-7.9-21.7-23.4-36.5-41.3-36.5s-33.4,14.8-41.3,36.5
			c-12.4-5.8-24.3-6.4-32.4-0.3c-15.6,11.7-11.7,43.2,8.6,70.5c18.6,24.9,44.5,37.6,60.8,30.8c1.4,0.2,2.9,0.3,4.3,0.3
			s2.9-0.1,4.3-0.3c16.2,6.8,42.2-5.8,60.8-30.8C229.8,188.4,233.7,156.9,218.1,145.2z"/>
	</g>
</g>
</svg>
