<?xml version="1.0" encoding="utf-8"?>
<!-- Generator: Adobe Illustrator 27.8.1, SVG Export Plug-In . SVG Version: 6.00 Build 0)  -->
<svg version="1.1" id="레이어_1" xmlns="http://www.w3.org/2000/svg" xmlns:xlink="http://www.w3.org/1999/xlink" x="0px"
	 y="0px" viewBox="0 0 248.3 288.8" style="enable-background:new 0 0 248.3 288.8;" xml:space="preserve">
<style type="text/css">
	.st0{fill:#FDF4D2;}
	.st1{fill:#FCEBAB;}
	.st2{fill:#F5C972;}
</style>
<g id="petalR">
	<g>
		<path class="st0" d="M185.7,272.2c10.6-14.1,9.6-34.7-0.6-56.2c37.6-13.7,63.2-40.6,63.2-71.6s-25.6-57.9-63.2-71.6
			c10.1-21.5,11.1-42.1,0.6-56.2c-20.2-27-74.9-20.4-122.2,14.9C20.3,63.8-1.8,108.7,10.1,136.9c-0.4,2.5-0.5,5-0.5,7.5
			s0.2,5,0.5,7.5c-11.9,28.2,10.2,73.2,53.4,105.4C110.9,292.6,165.6,299.2,185.7,272.2z"/>
		<path class="st1" d="M144.7,245.4c8.4-11.2,7.6-27.5-0.4-44.4c29.7-10.8,49.9-32.1,49.9-56.6s-20.3-45.8-49.9-56.6
			c8-16.9,8.8-33.2,0.4-44.4C128.8,22,85.5,27.3,48.1,55.2c-34.2,25.5-51.6,61-42.2,83.2c-0.3,1.9-0.4,4-0.4,6s0.1,4,0.4,6
			c-9.4,22.3,8,57.8,42.2,83.2C85.6,261.5,128.8,266.7,144.7,245.4z"/>
		<path class="st2" d="M103.1,218.1c6.1-8.1,5.5-20-0.3-32.4c21.7-7.9,36.5-23.4,36.5-41.3s-14.8-33.4-36.5-41.3
			c5.8-12.4,6.4-24.3,0.3-32.4C91.4,55.1,59.9,59,32.6,79.3C7.7,97.9-5,123.8,1.8,140.1c-0.2,1.4-0.3,2.9-0.3,4.3s0.1,2.9,0.3,4.3
			c-6.8,16.2,5.8,42.2,30.8,60.8C59.9,229.8,91.5,233.7,103.1,218.1z"/>
	</g>
</g>
</svg>
