<?xml version="1.0" encoding="utf-8"?>
<!-- Generator: Adobe Illustrator 27.8.1, SVG Export Plug-In . SVG Version: 6.00 Build 0)  -->
<svg version="1.1" id="레이어_1" xmlns="http://www.w3.org/2000/svg" xmlns:xlink="http://www.w3.org/1999/xlink" x="0px"
	 y="0px" viewBox="0 0 288.8 248.3" style="enable-background:new 0 0 288.8 248.3;" xml:space="preserve">
<style type="text/css">
	.st0{fill:#FDF4D2;}
	.st1{fill:#FCEBAB;}
	.st2{fill:#F5C972;}
</style>
<g id="petalB">
	<g>
		<path class="st0" d="M16.6,185.7c14.1,10.6,34.7,9.6,56.2-0.6c13.7,37.6,40.6,63.2,71.6,63.2s57.9-25.6,71.6-63.2
			c21.5,10.1,42.1,11.1,56.2,0.6c27-20.2,20.4-74.9-14.9-122.2C225,20.3,180.1-1.8,151.9,10.1c-2.5-0.4-5-0.5-7.5-0.5
			s-5,0.2-7.5,0.5C108.7-1.8,63.7,20.3,31.5,63.5C-3.8,110.9-10.4,165.6,16.6,185.7z"/>
		<path class="st1" d="M43.4,144.7c11.2,8.4,27.5,7.6,44.4-0.4c10.8,29.7,32.1,49.9,56.6,49.9s45.8-20.3,56.6-49.9
			c16.9,8,33.2,8.8,44.4,0.4c21.4-15.9,16.1-59.2-11.8-96.6c-25.5-34.2-61-51.6-83.2-42.2c-1.9-0.3-4-0.4-6-0.4s-4,0.1-6,0.4
			c-22.3-9.4-57.8,8-83.2,42.2C27.3,85.6,22.1,128.8,43.4,144.7z"/>
		<path class="st2" d="M70.7,103.1c8.1,6.1,20,5.5,32.4-0.3c7.9,21.7,23.4,36.5,41.3,36.5s33.4-14.8,41.3-36.5
			c12.4,5.8,24.3,6.4,32.4,0.3c15.6-11.7,11.7-43.2-8.6-70.5C190.9,7.7,165-5,148.7,1.8c-1.4-0.2-2.9-0.3-4.3-0.3s-2.9,0.1-4.3,0.3
			C123.9-5,97.9,7.6,79.3,32.6C59,59.9,55.1,91.5,70.7,103.1z"/>
	</g>
</g>
</svg>
