<?xml version="1.0" encoding="utf-8"?>
<!-- Generator: Adobe Illustrator 27.8.1, SVG Export Plug-In . SVG Version: 6.00 Build 0)  -->
<svg version="1.1" id="레이어_1" xmlns="http://www.w3.org/2000/svg" xmlns:xlink="http://www.w3.org/1999/xlink" x="0px"
	 y="0px" viewBox="0 0 248.3 288.8" style="enable-background:new 0 0 248.3 288.8;" xml:space="preserve">
<style type="text/css">
	.st0{fill:#FDF4D2;}
	.st1{fill:#FCEBAB;}
	.st2{fill:#F5C972;}
</style>
<g id="petalL">
	<g>
		<path class="st0" d="M62.6,16.6C52,30.7,53,51.3,63.2,72.8C25.6,86.5,0,113.4,0,144.4s25.6,57.9,63.2,71.6
			c-10.1,21.5-11.1,42.1-0.6,56.2c20.2,27,74.9,20.4,122.2-14.9c43.2-32.3,65.3-77.2,53.4-105.4c0.4-2.5,0.5-5,0.5-7.5
			s-0.2-5-0.5-7.5c11.9-28-10.1-73-53.4-105.2C137.5-3.8,82.8-10.4,62.6,16.6z"/>
		<path class="st1" d="M103.6,43.4C95.2,54.6,96,70.9,104,87.8c-29.7,10.8-49.9,32.1-49.9,56.6S74.4,190.2,104,201
			c-8,16.9-8.8,33.2-0.4,44.4c15.9,21.4,59.2,16.1,96.6-11.8c34.2-25.5,51.6-61,42.2-83.2c0.3-1.9,0.4-4,0.4-6s-0.1-4-0.4-6
			c9.4-22.3-8-57.8-42.2-83.2C162.8,27.3,119.5,22.1,103.6,43.4z"/>
		<path class="st2" d="M145.2,70.7c-6.1,8.1-5.5,20,0.3,32.4c-21.7,7.9-36.5,23.4-36.5,41.3s14.8,33.4,36.5,41.3
			c-5.8,12.4-6.4,24.3-0.3,32.4c11.7,15.6,43.2,11.7,70.5-8.6c24.9-18.6,37.6-44.5,30.8-60.8c0.2-1.4,0.3-2.9,0.3-4.3
			s-0.1-2.9-0.3-4.3c6.8-16.2-5.8-42.2-30.8-60.8C188.4,59,156.9,55.1,145.2,70.7z"/>
	</g>
</g>
</svg>
