<?xml version="1.0" encoding="utf-8"?>
<!-- Generator: Adobe Illustrator 27.8.1, SVG Export Plug-In . SVG Version: 6.00 Build 0)  -->
<svg version="1.1" id="레이어_1" xmlns="http://www.w3.org/2000/svg" xmlns:xlink="http://www.w3.org/1999/xlink" x="0px"
	 y="0px" viewBox="0 0 950.7 534.6" style="enable-background:new 0 0 950.7 534.6;" xml:space="preserve">
<style type="text/css">
	.st0{fill:url(#SVGID_1_);}
</style>
<radialGradient id="SVGID_1_" cx="474.8499" cy="266.5921" r="385.9033" gradientTransform="matrix(1 0 0 -0.6268 0 434.3857)" gradientUnits="userSpaceOnUse">
	<stop  offset="0" style="stop-color:#2379AF"/>
	<stop  offset="0.242" style="stop-color:#1A6393"/>
	<stop  offset="0.5379" style="stop-color:#114E78"/>
	<stop  offset="0.8003" style="stop-color:#0C4268"/>
	<stop  offset="1" style="stop-color:#0A3D62"/>
</radialGradient>
<path class="st0" d="M0,396c0-4.9,0-9.9,0-14.8c2.2-0.4,3.8-1.8,4.4-3.9c1-3.7,1.3-7.5,1.3-11.4c0-2.5,0.4-5,0.8-7.5
	c0.4-2.4,0.9-4.8,1.4-7.2c0.2-1.3,0.4-2.5,0.5-3.8c0.2-2.1,0.1-4.3,0.7-6.3c0.4-1.4,0.1-2.4-0.6-3.5c-0.6-1.1-1.5-2-2.1-3
	c-0.4-0.7-0.7-1.5-0.9-2.1c-0.7-0.8-1.5-1.4-1.9-2.2c-0.6-1-1.1-2.1-1.4-3.3c-0.3-1.2-0.4-2.4-0.2-3.6c0.1-0.6,1.1-1,1.7-1.6
	c0.3-0.3,0.6-0.6,0.8-0.9c0.7-1.1,1.8-1.4,3-1.5c2.4-0.1,4.8-0.5,7.1-0.4c3.3,0.2,6.3-0.8,9.4-1.9c3.3-1.3,6.8-2.2,10.4-2.2
	c2.1,0,4.2,0.4,6.2,0.6c0.8,1,1.9,1.7,2.1,2.7c0.3,1.4,1.2,2,2.2,2.7c1.3,0.9,2.4,2,3.7,2.8c1.4,0.9,3.1,2.1,4.6,2.1
	c1.7,0,2.9,0.6,3.9,1.5c1.8,1.5,4.3,2.4,5.3,5c0.3,0.9,1.7,1.5,2.7,1.9c0.4,0.2,1.5-0.1,1.7-0.4c1-1.5,1.9-3.1,2.6-4.7
	c0.5-1.2,0.7-2.5,0.9-3.6c1.3,0.1,2.2,0.2,2.9,0.3c1,1.5,1.8,2.8,2.6,4.1c0.3,0.4,0.6,0.8,0.7,1.3c0.7,2.3,1.8,4.6,2.1,6.9
	c0.4,3.4,2.7,5.6,4.1,8.3c0.2,0.5,1,0.8,1.6,1c2.2,0.9,4.5,1.7,6.7,2.5c3,1,6.1,2.1,9.1,3c1.7,0.5,3.3,0.1,4.5-1.2
	c1.3-1.5,2.8-1.4,4.5-0.6c2.8,1.4,5.3,3,7.5,5.2c2.6,2.5,5.5,3.9,9.2,3.3c1.6-0.3,3.3-0.2,4.9-0.5c7.2-1.3,14.4-2.6,21.7-4
	c2.8-0.5,5.7-1.2,8.5-1.9c1.8-0.5,1.9-0.9,1.3-2.6c-0.8-2.3-2.1-4.3-4.2-5.6c-0.8-0.5-1.9-0.9-2.2-2.3c1.2,0.2,2.2,0.3,3.8,0.5
	c-1.2-1.8-2.1-3.1-2.8-4.4c-1.5-2.7-2.8-5.6-4.3-8.3c-1.7-3-3.5-5.9-5.2-8.9c-1.5-2.6-2.7-5.3-4.2-7.8c-1.5-2.7-2-5.7-3.3-8.4
	c-1.9-3.9-3.2-8-5-11.9c-1.7-3.7-3.9-6.8-7.2-9c-1.2,0-2.2,1.1-3.4,0.4c1.4-2.1,1.4-3,0.3-4.2c-0.4-0.4-0.8-0.8-1.3-1.1
	c-1.6-1-3.5-1.8-4-4c-0.1-0.3-0.4-0.5-0.7-0.7c-3.3-1.7-5.6-4.9-9.1-6.3c-0.4-0.1-0.6-0.5-1-0.7c-1.4-0.9-2.7-1.8-4.1-2.6
	c-3-1.5-6.7-2-8.7-5.2c-0.1-0.1-0.3-0.2-0.4-0.3c-1.4-1.1-2.8-2-4.1-3.2c-0.9-0.9-1.8-1.3-3.2-1.4c-3.5-0.1-6-2.3-6.9-5.7
	c-0.2-0.8-0.5-1.6-1-2.2c-1.5-1.7-3.1-3.3-4.8-4.9c-0.4-0.4-1.3-0.5-1.8-0.3c-2.5,0.9-4.7-0.6-6.4-1.7c-2.5-1.5-4.3-4-5.1-7.1
	c-0.3-1-1-2-1.7-2.9c-0.7-1.1-1.5-2.1-2.4-3.3c2.2-2,4.1-3.9,6.1-5.8c0.5-0.5,0.9-1.1,1-1.8c0.3-2,0.2-2,2.1-2.2
	c0.8-0.1,1.6,0.1,2.4,0s1.7-0.1,2.3-0.5c2-1.3,2-1.3,3.8,0.3c1.1,1,1.8,2,2.3,3.4c0.5,1.8,1.2,3.6,2,5.3c0.4,0.8,1.1,1.4,1.8,2
	c0.6,0.5,1.5,0.8,2.1,1.3c2.1,1.8,4.4,2.5,7.2,1.2c0.7,1,1.4,1.9,1.9,2.9c0.7,1.3,1.2,2.7,1.7,4c0.9,2.7,2.4,5.2,2.5,8.1
	c0,0.3,0.4,0.7,0.6,1c0.3,0.5,0.6,0.9,0.9,1.4c1,2.1,2.5,4.2,3,6.5c0.8,3.4,2.9,5.7,5.3,7.9c1.4,1.3,2.4,1.8,4.1,0.9
	c0.9-0.4,1.5-0.3,2.3,0c1.8,0.6,3.6,1.2,5.4,1.5c2.2,0.4,4.2-0.7,6.1-1.7c1.3-0.7,2.6-1.4,4.1-1.7c2.6-0.5,5.1-0.8,7.6-1.9
	c1.2-0.5,2.6-0.6,3.9-0.6c0.7,0,1.8,0.5,2,1.1c1.1,2.9,3.4,5,4.7,7.7c0.6,1.3,1.5,1.8,2.6,1.3c2.1-1,4.4-1.6,5.5-3.9
	c0.6-1.3,1.7-1.6,3.1-1.5c0.8,0.1,1.6-0.1,2.4-0.4c5.1-1.6,9.4-4.8,13.9-7.5c0.2-0.1,0.3-0.4,0.6-0.9c-1-0.2-1.7-0.4-2.5-0.4
	c-1.9-0.1-3.8-0.1-5.7,0c-5.5,0.2-10.9-0.2-16.2-1.3c-0.7-0.1-1.3-0.4-2-0.6c0-0.2,0.1-0.4,0.1-0.6c1.9,0,3.8,0.2,5.6,0
	c5.1-0.7,10.1-1.7,15.1-2.5c1.4-0.2,2.2-0.8,2.6-2.2c0.4-1.6,1.3-3,1.7-4.6c0.2-0.8,0.4-1.8,0.1-2.6c-1-2.8-2.1-5.5-3.2-8.3
	c-0.5-1.3-1.4-2.2-2.7-2.7c-1.6-0.6-2.6-1.6-2.8-3.3c-0.1-0.8-0.7-1.5-1.1-2.2c-1.6-2.5-3.2-5-4.8-7.5c-3-4.7-5.9-9.5-9-14.2
	c-1.9-3-3.8-6.1-6.2-8.6c-4.6-4.7-9.5-9.1-14.3-13.6c-0.5-0.4-1-0.7-1.4-1c-0.8,1.5-1.3,3.2-2.4,4c-2.5,1.9-4,4.1-3.6,7.9
	c-1.1-1-1.8-1.5-2.4-2.1s-1.2-1.4-1.9-1.9c-1.4-1.1-1.8-1.2-2.8,0.2c-1.1,1.6-2.5,1.7-4.2,1c-0.1-3-0.3-6-1.9-8.7
	c-0.5-0.9-1-1.8-1.4-2.8c-0.3-0.7-0.6-1.5-0.8-2.3c-1-4-0.3-8,0.5-12c0.5-2.5,0.2-3.2-1.8-4.6c-0.7-0.5-1.4-0.9-2.2-1.1
	c-3.1-1-6.3-2.1-9.4-3c-3-0.9-6.1-1.5-9.1-2.4c-1.2-0.4-2.1-0.2-3.1,0.7c-2.3,2.1-4.8,4-7.3,5.9c-0.1,0.1-0.4,0-0.7,0
	c1.5-2.9,3-5.7,4.5-8.6c-4.2-1.9-8.1-3.8-12-5.6c0.5-0.4,0.9-0.4,1.2-0.4c3,0.5,6,1.1,9,1.5c4.6,0.6,5,0.3,6.6-4.1
	c0.1-0.2,0.1-0.3,0.2-0.5c0.4-1.1,0.2-1.8-0.9-2.4c-2-1-2.3-2.1-0.9-3.7c1.1-1.4,1.2-2.8,1.2-4.4c0-2.4-0.5-4.6-1.4-6.7
	c-1.4-3.3-2.8-6.7-4.3-10c-0.3-0.8-0.7-1.5-1.2-2.2c-0.8-1-1.9-0.9-2.6,0.2c-1.7,2.6-1.6,2.6-0.7,5.6c0.2,0.7,0.1,1.5,0.3,2.2
	c0.5,1.8,0.7,3.8,1.6,5.4c1.8,2.9,2.9,5.7,2.1,9.2c-2.5,0.7-3.2-1.9-4.8-2.9c-1.4,0.8-2.5,0.4-3.7-0.7c-1.3-1.2-2.3-2.5-3-4.1
	c-0.9-1.9-1.7-2-3.4-0.7c-0.1,0.1-0.2,0.2-0.4,0.3c-1.6,1.1-2.4,0.9-3.6-0.8c-1-1.6-2.2-3.1-3.3-4.6c-0.4-0.5-1-1.1-1.5-1.1
	c-1.8-0.2-3.4-0.8-5-1.7c-3.8-2.1-7.8-4-11.8-5.7c-2.8-1.2-5.8-1.8-8.7-2.7c-2.8-0.9-5.7-1.5-7.1-4.6c-0.7-1.5-0.7-2.1,0.7-3.2
	c0.7-0.6,1.5-1,2.3-1.6c-0.7-2.6-2-4.8-4.2-6.2c-3.1-2-6.3-3.9-9.5-5.7c-2.4-1.4-4.9-2.7-6.9-4.7c-0.6-0.6-1.5-1-2.3-1.4
	c0-0.5,0-1,0-1.5c2.3-0.9,4.6-1.6,6.9-2.6C8,76.1,8.9,75.5,9,74.9c0.1-0.6-0.7-1.4-1.2-2c-0.2-0.3-0.7-0.5-1-0.6
	c-2.1-0.9-4.2-1.8-6.4-2.7C0,66,0,62,0,58c0.7,0,1.5-0.1,2.2,0.1c2.4,0.4,4.8,1,7.2,1.5c0.3,0.1,0.8,0.1,0.9,0.3
	c1.1,1.4,2.5,0.9,3.9,0.7c1.9-0.3,3.7-0.8,5.6-1.1c1.1-0.2,1.9-0.6,1.7-1.9c-0.1-1.3,0.6-2.2,1.6-2.8c0.5-0.3,0.9-0.7,1.5-1.1
	c-1.5-2.8-2.8-5.6-6.1-6.8c-2-0.7-2.4-2.1-1.5-3.9c0.4-0.9,1-1.7,1.5-2.5c0.6-0.9,1.5-1.3,2.6-0.8c1.2,0.5,2.4,0.9,3.9,1.5
	c0.2-0.8,0.4-1.5,0.5-2.2c0.1-1.1,0-2.2,0.2-3.2c0.5-2-0.3-3.9-1.3-5.1c-2.1-2.7-3.8-5.8-7-7.4c-1.9-1-3.1-3.4-5.7-3.3
	c-3.3-2-6.6-3.8-10-5.6C1.2,14.1,0.6,14.1,0,14C0,9.4,0,4.8,0,0.1c16.3,0.1,32.5,0.1,48.8,0.2c0.5,0,1,0,1.5,0.1
	c1.3,0.2,1.6,1,0.9,2.1c-1,1.5-2.1,3-2.9,4.6c-1.4,2.7-2.9,5.4-3.7,8.2c-1.1,3.7-1.7,7.6-2.5,11.4c-0.1,0.7-0.4,1.5-0.3,2.2
	c0.4,3.5,0.6,7.1,1.5,10.4c0.7,2.4,1.1,4.7,1,7.1c-0.1,1.3-0.4,2.5-0.3,3.8c0.1,2.2,0.3,4.3,0.4,6.5c0.5,0.3,1.1,0.5,1.5,0.9
	c1.1,1.1,2.2,1.7,3.9,1.8c2.6,0.2,4.8,1.5,6.1,4c0.5,0.9,1.2,1.7,1.9,2.5c-0.2,0.6-0.5,1.3-0.7,2c2.1,2.2,4.7,3.2,7.5,3.6
	c2.3,0.4,2.8,0,2.5-2.3c-1-6.6-0.3-13.3-0.7-20c0-0.2,0.1-0.4,0.3-0.8c0.3,0.6,0.4,1,0.5,1.4c2.5,9.3,4.5,18.8,6.2,28.3
	c0.1,0.8,0.5,1.9,1.1,2.3c1.8,1.1,3.5,2.3,5.4,3.3c2.9,1.5,4.8,3.8,6.6,6.4c0.3,0.5,0.7,1.2,0.6,1.8c-0.2,1.9-0.6,3.8-0.8,5.8
	c-0.1,0.7-0.1,1.6,0.2,2.1c0.7,1.2,0.8,2.5,0.8,3.8c0,0.8,0.3,1.6,0.5,2.4c0.7,2.4,1.5,4.8,2.2,7.3c0.2,0.8,0,1.8,0.4,2.4
	c0.8,1.3,0.4,2.4-0.3,3.4c-0.5,0.8-0.4,1.3-0.1,2c1.4,2.8,2.7,5.7,4.4,8.3c4.6,7.1,10.3,13.3,15.7,19.7c1.6,1.9,3.5,2.9,5.8,3.3
	c0.5,0.1,1.2,0.2,1.5,0.6c0.9,1.1,2.2,1.3,3.5,1.6c0.8,0.2,1.8,0.2,2.3,0.7c1.6,1.5,3,3.3,4.4,4.9c0.7,0.8,1.3,1.6,1.8,2.2
	c0.3,1.2,0.9,2.3,0.8,3.3c-0.2,2.1,0.6,3.7,2,5.1c3.6,3.8,7.3,7.6,11.1,11.3c0.9,0.9,2.3,1.4,3.5,1.6c3.2,0.5,6.4,0.3,9.2-1.8
	c0.8-0.7,1.8-1.2,2.7-1.8c4.2-2.8,8.4-5.5,13.3-7.1c0.5-0.2,1-0.5,1.5-0.9c-1.9-4.8-3.6-9.5-5.5-14.2c-3.3-8-6.2-16.2-11.2-23.4
	c-0.2-0.3-0.3-0.8-0.6-1.1c-0.6-0.8-1.1-1.7-1.8-2.2c-3.1-2.1-6.1-4.2-9.4-5.9c-7.2-3.7-14-8.1-20.5-12.9c-0.4-0.3-0.8-0.7-1.2-1
	c0.8,0,1.5,0.3,2.1,0.6c2.2,0.9,4.3,2,6.6,2.8c5,1.8,10,3.4,15,5c1.4,0.5,2.8,1,4-0.5c0.3-0.3,0.9-0.5,1.3-0.6
	c3.2-0.8,4.8-3.1,5.4-6.1c0.3-1.2,0.4-2.5,0.4-3.7c0.1-5.7,0.2-11.4,0.2-17.1c0-4.4-1.2-8.5-3.3-12.3c-2.8-4.9-5.9-9.6-9.8-13.6
	c-2.2-2.2-4.7-4.1-7.2-6c-3.2-2.5-6.4-4.9-9.6-7.3c-0.2-0.1-0.3-0.4-0.4-0.6c3.6,1.8,7.3,2.7,11.1,3.1c1.8-2.8,3-3.2,5.5-1.6
	c0.5,0.3,0.9,0.9,1.3,1.4c0.4,0.7,0.6,1.6,1.1,2.2c4.2,5.6,8.5,11.2,12.7,16.7c0.2,0.3,0.6,0.6,0.9,0.9c1.9,1.7,3.8,2.9,6.7,1.8
	c2-0.8,3.5,0.6,3.2,2.9c0,0.3,0,0.5-0.1,1c1.9-0.5,3.5-0.9,5-1.4c0.7-0.2,1.4-0.7,1.7-1.3c0.6-0.9,1.2-1.1,2.2-1.2
	c2.3-0.2,3.2-2,2.3-4.1c-0.2-0.4-0.3-0.9-0.5-1.3c-1.1-3,0-5.6,1.3-8.2c0.7-1.4,0.7-2.7-0.1-4c-0.5-0.9-0.8-1.7-0.7-2.8
	c0.1-0.9-0.3-1.9-0.5-2.9c-0.4-1.8-0.9-3.5-1.1-5.3c-0.3-1.7-0.2-3.4-0.4-5.1c-0.1-1.4-0.2-2.7,0.7-4c0.5-0.7,0.5-1.8,0.7-2.7
	c-2.3-1.3-3.8-0.3-5.3,1c-3,2.4-5.9,4.9-9,7.2c-1.6,1.2-3.2,2.4-4.1,4.2c-0.8,1.6-1.4,3.3-2.2,4.9c-0.6,1.2-1.2,2.3-2.1,3.2
	c-1,1-2.1,1-3.1,0.1c-1.8-1.8-4.2-2.5-6.3-3.8c-2-1.2-2.2-1.2-1.3-3.4c0.5-1.3,1.3-2.6,2.1-3.8c0.9-1.3,2-2.3,2.9-3.6
	c1.5-2.2,3.2-4.5,4.3-6.9s2.4-4.8,3-7.5c0.6-2.2,1.8-4.4,3.1-6.3c1.1-1.5,1.6-2.9,1.1-4.6c-0.7-2.1-0.9-4.3-2.2-6.4
	c-1.6-2.6-2.8-5.5-5.4-7.3c-0.9-0.7-1.7-1.5-2.9-2.7c1.4-0.1,2.4-0.1,3.3-0.1c4.8,0.1,4.9-1.1,7.5,4.8c0.4,0.9,1.2,2,2,2.3
	c1.8,0.6,3.7,1.4,5.6-0.2c0.5-0.4,1.4-0.4,2.1-0.5c2.7-0.3,3.9-1.8,3.3-4.5c-0.1-0.5-0.3-1-0.5-1.9c2.6-0.1,4.8-0.2,7.1-0.2
	c8.5,0,17,0.1,25.5,0.1c1.7,0,2.9,0.4,3.7,2.2c0.5,1.1,1.6,2.4,2.7,2.7c2.6,0.8,4.7,2.3,7,3.5c1.2,0.6,2,1.4,2.4,2.6
	c0.3,0.7,0.5,1.4,1,2c1.6,2.3,3.4,4.5,6.3,5.3c3,0.8,5.9,1.6,8.4,3.7c0.9,0.8,2.1,1.2,3.2,1.8c1,0.6,2.1,1.1,2.8,1.9
	c3.4,3.5,7,6.7,10.9,9.5c1,0.8,2,1.5,1.8,3c-0.1,0.3,0.2,0.9,0.4,1.1c1.5,1.4,3,2.8,4.7,4c2.4,1.8,4.9,3.2,7.2,5.1
	c2.7,2.2,5.6,4.1,9.1,4.7c0.6,0.1,1.3,0.2,1.9,0.6c3.8,2.3,7.7,1.8,11.7,1c0.6-0.1,1-0.6,1.6-0.9c-0.6-0.9-1-1.6-1.4-2.4
	c1.7-1.1,3.4-2,4.8-3.2s2.4-2.8,3.7-4.3c0.3,0.3,0.7,0.5,0.9,0.8c1.4,2.1,2.7,4.3,4,6.5c0.6,0.9,1.2,1.8,2,2.4
	c2,1.5,4.2,2.1,6.7,1.4c1.6-0.5,3.4-1,5,0c3.1,1.7,6.3,2.8,9.8,3.2c1.3,0.2,2.7,0.3,2.6,2.2c0,0.3,0.4,0.6,0.7,0.9
	c0.6,0.7,1.1,1.4,1.7,2.1c1.2,1.2,2.2,2.9,3.7,3.5c2.5,0.9,5.4,0.9,8,0.1c1.1-0.3,2.1-1,1.8-2.3c-2.8-0.9-5.5-1.7-8-2.6
	c-2-0.7-2.2-1.1-1.8-3.8c1.6-0.1,3.2-0.1,4.8-0.2c1.1,0,2.3,0,3.4-0.2c2.2-0.5,4.4-1.2,6.6-1.8c1.7-0.4,3.4-1,5.1-1.1
	c2.7-0.1,5.2-0.9,7.6-1.9c2.7-1,5.4-1.6,8.1-1.7c4.8-0.1,9.1-1.8,13.6-3.1c3.7-1.1,6.7-3.7,10.4-4.9c1.3-0.4,2.3-1.5,3.4-2.3
	c2.2-1.4,4.4-2.8,6.6-4.3c2.1-1.4,4.1-3,6.2-4.4c2.7-1.7,5.5-3.3,8.3-4.9c1.3-0.7,2.6-1.5,3.9-2.1c2.6-1.4,5.3-2.7,7.9-4
	c3.6-1.7,7.1-3.3,11.3-2.2c1.8,0.5,3.9,0.6,5.8,0.4c2.9-0.2,5.9-0.9,8.8-1.3c0.6-0.1,1.2,0,1.7,0.1c2.2,0.3,4.4,0.8,6.6,1
	c1.1,0.1,2.3-0.3,3.3-0.7c1.6-0.6,3.3-1.3,5-0.7c2.6,0.8,5.3-0.1,8,1.1c1.7,0.7,3.9,0.3,5.8,0.2c2.6-0.1,4.9,1,7.1,2.2
	c1.7,0.9,3.3,1.4,5.5,1.5c-3-4.7-6.8-8.4-10.6-12c-3.8-3.6-7.6-7.2-11.6-10.9c0.6-0.2,0.8-0.4,1-0.4c3,0,5.9-0.1,8.9,0
	c0.7,0,1.5,0.5,2.1,1c1.5,1.3,2.9,2.7,4.4,4c0.9,0.7,1.7,1.6,2.9,1.3c0.7-0.8,1.4-1.8,2.3-2c0.8-0.2,1.8,0.6,2.8,1.1
	c1.5-1.1,3-2.3,4-4.2c0.2-0.5,0.9-1.1,1.4-1.1c2.2-0.1,4.4-0.1,6.8-0.1c-0.2,1-0.3,1.6-0.4,2.3c-0.8,3.6-1.6,7.3-2.3,10.9
	c-1.1,5,0.4,9.4,2.7,13.7c0.3,0.5,1.1,1.1,1.7,1.1c1.7,0.1,3.4,0.1,5.1-0.5c2.8-1,5.7-1.7,8.6-2.3c6-1.2,12.1-2.2,18.2-3.4
	c0.7-0.1,1.5-0.4,2-0.8c1.2-0.8,2.3-1.8,3.5-2.7c1-0.8,2-1.7,2-3.2c0-0.5,0.4-1.1,0.7-1.5c2.4-3,4.9-6,7.4-8.9
	c0.3-0.4,0.9-0.6,1.7-1.1c0,2.2-0.2,3.9,0.1,5.5c0.2,1.5,0.6,3.1,1.5,4.3c1.4,1.9,3.9,1.8,6,0.2c2.5-1.8,4-4.3,5.5-7
	c2.7,0.6,3.8-1.4,5-3.2c0.2-0.3,0.4-0.7,0.6-1.1c0.9-1.6,2.1-2.6,4.2-2.5c8,0.2,16,0.3,24,0.3c25.5,0,51-0.1,76.5-0.1
	c16.5,0,33,0,49.5,0c9.1,0,18.2,0.1,27.2,0.1c0.9,0,1.7,0.1,2.6,0.2c-0.8,3.6-0.6,4.2,1.8,4.8c3,0.8,6.1,1.6,9.1,2.1
	c3.2,0.5,6.3,0.1,8.8-2.5c1.3-1.3,1.8-2.8,2.4-4.4c0.8,0,1.5-0.1,2.1-0.1c13.6-0.1,27.2-0.2,40.8-0.2c2.9,0,5.8,0.1,8.7,0.2
	c1.1,0,2,0.4,2.8,1.3c1.5,1.7,2.6,3.7,4.6,5c3,2,6.3,3.4,9.7,4.6c4.6,1.7,9.3,2.7,14,3.8c2.3,0.6,4.8,0.6,6.3,2.9
	c0.2,0.3,0.5,0.4,0.8,0.5c2.3,1.3,2.5,1.7,2,4.8c-1.1,0.1-2.3,0.5-3.5,0.3c-4.3-0.6-8.6-1.3-12.9-2c-3.1-0.5-6.3-0.9-9.4-1.4
	c-2-0.3-4.1-0.6-6.1-0.9c-1.9-0.3-3.9-1-5.8-0.9c-4.5,0.2-8.4-1.5-12.2-3.5c-0.8-0.4-1.6-0.7-2.5-0.8c-3.8-0.6-6.5,1.7-9.3,3.6
	c-1,0.7-2.1,1.4-3.2,1.6c-1.6,0.3-3.3,0.1-4.9,0.1c-4.2,0.1-8.4,0.3-12.4,1.7c-1.9,0.7-3.8,1.6-5.7,2.2c-2.7,0.9-5.5,1.4-8.5,1.3
	c-2.9-0.1-5.8,0-8.6,0.4c-3.1,0.4-6,1.3-9.2,0.7c-3.8-0.7-7-2.7-10.6-3.7c-0.7-0.2-1.2-1.1-1.8-1.7c-0.5-0.4-0.9-1.1-1.5-1.2
	c-4.8-1-9.1,0.1-12.8,3.4c-1.1,1-1.7,2.4-1.6,4c0.1,3.2-0.8,6.2-2.2,9c-0.8,1.5-1.9,3.2-3.3,3.8c-2.1,1-3.9,2.4-5.8,3.7
	c-2.2,1.5-4.3,3-6.4,4.6c-0.7,0.5-1.4,1.2-0.9,2.3c0.4,1,1.2,1.6,2.3,1.6c1.6,0,3.1,0,4.7-0.2c5.3-0.4,10.7-0.9,16-1.3
	c0.1,0,0.2,0.2,0.5,0.4c-2.2,0.9-4.2,1.8-6.2,2.6c0.6,0.3,1.1,0.3,1.6,0.2c5.6-1.5,11.1-3.1,16.7-4.7c3.9-1.1,7.3-3,10.4-5.6
	c1.2-1,2.5-1.9,3.6-3c4.9-5,11.3-7.3,17.4-10.1c0.1,0,0.2,0.1,0.5,0.3c-6,3.6-10.3,8.8-14.7,14c0.9,0.8,1.8,1.3,2.3,2.1
	c1,1.5,2.4,2,4,2.2c5.7,0.6,11.5,1.1,17.2,1.5c3.9,0.3,7.7,0.3,11.6,0.3c1.1,0,2.3-0.3,3.3-0.8c1.2-0.5,2.3-0.9,3.6-0.3
	c0.3,0.9,0.7,1.7,1.1,2.6c1.1,0.1,2.2,0.2,3.6,0.4c-1.1,0.6-1.7,0.9-2.7,1.4c1.3,0.4,2.1,0.7,3,0.9c4.1,1.3,8.2,2.6,12.3,3.8
	c2,0.6,4.1,1,6.2,1.5c0.5,0.1,1.1,0.4,1.5,0.7c1.2,0.9,2.3,1.9,3.3,2.8c1.2-0.1,2.5-0.8,3.3,0.4c0.3,0.6,0,1.6-0.1,2.6
	c1.1,0.4,2.3,0.9,3.6,1.4c-2.5-0.1-4.9-0.5-7.4-0.6c-4.1-0.2-8.2-0.4-11.8-2.8c-0.5-0.3-1-0.5-1.6-0.7c-6.3-2.6-12.7-4.7-19.4-5.9
	c-9.4-1.6-18.9-2.8-28.4-4c-6.2-0.8-12.5-0.8-18.7,0.5c-5.6,1.2-11.2,2.6-16.8,4.1c-4.1,1.1-8,2.4-12,3.8c-2.6,0.9-4.9,2.3-6.5,4.8
	c-0.6,0.9-1.1,1.7-0.9,2.9c0.2,1.8-0.2,2.2-2.1,2.7c-0.4,0.1-0.8,0.2-1.2,0.4c-0.4,2.9,0.9,5.4,1.9,7.9s2.1,5,3.1,7.5
	c1.1,2.6,2,5.3,3.1,7.8c1.1,2.4,2.5,4.6,3.8,6.9c-0.1,0.1-0.3,0.2-0.4,0.3c-0.9-1-1.8-1.9-2.6-2.9c-0.9-1.1-1.7-2.2-2.7-3.2
	c-4-4.3-7.4-9.1-10.4-14.1c-1.6-2.7-3.4-5.3-5.2-7.9c-0.3-0.5-0.8-0.9-1.4-1.5c-0.2,2.6-0.3,4.9-0.6,7.2c-0.1,1-0.5,1.9-0.9,2.8
	c-0.2,0.5-0.6,0.9-0.6,1.3c0,2.5-0.6,5.1-0.4,7.5c0.2,3.8,0,7.5-0.5,11.2c-0.2,1.4,0.1,2.9,0.1,4.4c0,0.4,0.1,0.8,0,1.2
	c-0.2,1.9-0.4,3.7-0.5,5.6c-0.1,2.4,0,4.7-0.3,7.1c-0.2,1.6,0.1,3,0.7,4.7c1.9-1.1,3.8-2,5.5-3.1c1.6-1.1,3-2.5,4.5-3.7
	c0.2,0.6,0.1,0.9,0,1.2c-2,3.6-4,7.2-6.1,10.8c-1.5,2.6-1.6,3.1,0.6,5.1c2,1.9,4.2,3.7,6.6,5.1c3.6,2,4.6,4.6,3.3,8.5
	c-0.6,1.9-2,3.5-1.7,5.6c0,0.2-0.1,0.5-0.3,0.7c-2.4,2.5-1.8,5.8-2.5,8.8c-0.1,0.6,0.2,1.3,0.3,1.9c2.7,0.8,4.7-0.5,6.2-2.2
	c2.3-2.7,4.5-5.7,5.7-9.2c0.5-1.4,1.6-2.7,2.2-4.1c0.8-1.6,2.1-2,3.7-1.9c1.2,0.1,2.7-0.4,3.3,1s-0.5,2.3-1.4,3.1
	c-1.9,1.7-2.9,4-4,6.2c-0.8,1.8-1.5,3.7-2.6,5.3c-2,2.9-2.5,5.7-0.8,8.9c1.2,0.4,2.3,0.8,3.7,0.2s2.9-0.9,3.9-1.2
	c0.8,1.1,1.1,2,1.8,2.4c1.2,0.8,2.6,1.4,4.1,1.7c4.4,0.9,8.9,1.2,13.4,0.7c3.2-0.4,6.3-1,9.4-1.5c3.7-0.5,7.5-1,11.2-1.6
	c3.8-0.5,7.7-1,11.5-1.5c0.7-0.1,1.5-0.2,2.2-0.2c3.5,0.2,6.7-0.5,9.8-1.9c2.5-1.1,3.7-3.2,3.5-5.9c0-0.5,0.1-1,0.2-1.4
	c0.3-2.2,2.3-2.6,3.7-3.6c0.5-0.4,1.4-0.6,2-0.4c2,0.5,3.9,1,5.7,2.1c2.1,1.3,4.4,2.1,6.7,3.1c0.7,0.3,1.7,0.2,1.9-0.6
	c0.1-0.6-0.3-1.3-0.6-1.9c-0.1-0.3-0.5-0.4-0.8-0.5c-3-1.1-3.9-3.4-3.7-6.3c0.5-0.1,0.9-0.2,1.3-0.4c2.2-1.2,4.1-0.6,5.9,0.9
	c0.8,0.7,1.7,1.2,2.7,1.8c2.8,1.5,5.5,2.8,8.9,2c1.5-0.4,3.3,0.1,4.8,0.5c2.5,0.7,5.2,1.2,7.4-0.1c3.1-1.7,6.3-2.5,9.7-3.3
	c1.8-0.4,3.7-0.7,5.3-1.9c0.8-0.6,2-0.8,3-0.6c1.9,0.3,2.5,1.8,1.4,3.5c-0.4,0.5-0.9,1-1.2,1.6c-2.3,4.5-6.3,6.4-10.9,7.7
	c-2.7,0.8-5.5,1.3-8.1,2.2c-2.1,0.7-4.1,2-6.2,2.9c-3.4,1.5-7.1,1.3-10.7,1.3c-1.5,0-3.2-0.2-4.6,0.2c-1.8,0.5-3.4,1.6-5.1,2.4
	c-0.2,0.1-0.5,0.3-0.7,0.3c-1.8-0.8-3.8,0-5.6-0.5c-2.1-0.7-4.2-0.4-6.4-0.4c-1.1,0-2.1,0.1-3.2,0c-4.8-0.3-9.5-0.3-14.1,1.5
	c-1.8,0.7-3.7,1.5-5.7,1.7c-4.5,0.5-9,0.8-13.5,1.1c-3.2,0.3-6.4,0.4-9.6,0.8c-3.1,0.4-6.1,1.1-8.3,3.6c-0.7,0.8-1.6,1.5-2.5,2.3
	c2.2,1.4,4.4,2.2,6.7,2.3c6.5,0.3,13,0.2,19.5,0.5c3.3,0.1,6.5,0.7,10.1,1.2c-0.2,0.8-0.2,1.7-0.6,1.9c-1.2,0.8-2.6,1.5-4,1.9
	c-3.6,1-7.3,1-11.1,0.8c-5.6-0.4-11.2-0.5-16.7,0.4c-0.5,0.1-1.1,0.2-1.5,0c-1.6-0.9-3-0.1-4.4,0.4c-1.2,0.4-1.3,1.2-1.3,2.1
	c0,0.7,0.3,1.4,0.6,2.1c0.4,1.2,0.8,2.4,1.3,4c-1-0.2-1.6-0.3-2.3-0.4c-2.8-0.4-5.6-1-8.4-1.3c-1.5-0.1-3.2-1-4.6,0.6
	c-1.7,2.1-3.5,4.1-5.3,6.2c-0.8,1-1.5,2.1-0.6,3.5c0.3,0.6,0.2,1.6-0.1,2.4c-0.9,2.7-1.6,5.5-0.9,8.4c0.1,0.5-0.2,1.3-0.4,1.9
	c-0.9,2.6-2.4,5.1-2.2,8c0.1,1.4,0.1,2.9-0.1,4.4c-0.1,1.7-0.1,3.6-0.8,5c-1,1.9-1.4,4-2.2,5.9c-1.2,2.7-0.3,4.5,1.3,7.1
	c0.5-0.8,0.8-1.3,1.2-1.8c1.6-2.2,3.2-4.4,4.9-6.5c3.3-3.9,4.7-8.9,8-12.7c0.3-0.3,0.3-0.7,0.4-1.1c0.3-1.4,0.8-2.7,0.9-4.1
	c0.7-5.7,1.9-11.4,3.8-16.9c0.1-0.4,0.4-0.7,0.8-1.6c-0.2,5.3-0.3,10-0.4,14.7c-0.1,2.7,1.6,4.3,4.2,4.3c3.4,0,6.4-1.3,9.4-2.8
	c6.3-3.3,12.5-6.7,18.8-10c2.8-1.5,5.4-3.2,7.3-5.8c0.8-1,1.7-1.8,2.6-2.6c2.1-2,4.1-4,5.5-6.6c1.3-2.6,3.3-4.4,6-5.5
	c-0.2,1.1-0.8,2.2-0.5,3c1,3.2,0.8,2.9-1.4,5.5c-2,2.4-3.4,5.4-5,8.2c-0.2,0.4-0.1,1.5,0.3,1.7c1.4,0.9,1.7,2.3,1.9,3.9
	c1.7,0.4,3.4,0.8,5,1.1c-0.5,0.4-0.9,0.5-1.3,0.6c-2.4,0.1-4.8,0.2-7.2,0.3c-1.1,0.1-2.3,0.3-3.4,0.5c-1,0.2-2,0.7-3,1
	c-1.7,0.5-3.6,0.8-5.2,1.5c-5,2.3-10.1,4.6-15,7.1c-8.6,4.4-16.5,9.5-22.5,17.4c-4.5,5.9-9.4,11.5-14,17.3c-2.3,2.9-3,6.1-0.9,9.6
	c0.7,1.1,1.3,2.2,1.9,3.4c0.7,1.5,1.4,3,2.1,4.4c0.1,0.1,0.2,0.2,0.4,0.3c1.5,1.3,3.2,2.6,4.6,4c1.8,1.8,3.8,3.3,5.1,5.7
	c1,1.8,2.8,3.1,4.8,4.1c2.4,1.3,4.9,2.8,7,4.5c2,1.7,4.2,3.2,5.2,5.8c0.1,0.2,0.3,0.4,0.5,0.5c3.3,2.1,5.8,5.1,9.4,6.7
	c1.1,0.5,2.2,1.1,3,2c1.4,1.5,3.1,2.1,4.9,2.6c2.6,0.8,5.4,1.1,6.9,3.8c0.2,0.4,0.8,0.7,1.2,0.7c1.9,0.3,3.9,0.5,5.9,0.6
	c2.9,0.2,5.9-0.6,8.7,0.8c5.1-0.3,8.5,2.8,11.5,6.2c2.3,2.5,4.8,4.4,7.8,5.8c2.8,1.3,5.7,2.5,8.5,3.8c1.5,0.7,2.8,1.7,4.3,2.4
	c1.3,0.6,2.7,0.9,3.9,1.5c2.2,1.1,4.3,2.3,6.5,3.6c2.1,1.2,4.1,1.9,6.5,0.8c0.3-0.2,0.8-0.2,1.2-0.2c0.2,0,0.4,0.2,0.7,0.4
	c-0.3,0.7-0.6,1.3-0.9,1.9c1.6,1.8,8.7,6.3,10.7,7.2c4.1,1.8,8.1,3.7,12.1,5.6c2.5,1.2,4.9,2.6,7.4,3.8c0.8,0.4,1.7,0.7,2.6,0.8
	c2,0.2,3.8,0.9,5.6,1.7c1,0.4,2,0.8,3.1,1c4.1,0.6,8.2,0.8,12.3,0.2c1.5-0.2,3.1-0.4,4.5-1c1.7-0.7,3.1-1.8,4.8-2.6
	c0.8-0.4,1.7-0.8,2.5-0.8c1.8-0.1,3.6,0,5.4-0.1c2-0.1,3.6,1,5.2,2.1c0.5,0.3,0.8,1.3,0.8,1.9c-0.3,2.4,0.6,4.6,0.6,6.9
	c0,1,0.2,2.2,0.7,3.1c1.4,2.2,2.8,4.3,5.5,5.4c2.2,0.8,4.4,1.2,6.7,1.1s2.5,0.2,2.6,2.5c0.1,5.4,0.3,10.7,0.3,16.1
	c0,18.3-0.1,36.6-0.2,54.9c0,0.8-0.1,1.6-0.1,2.4c-3.5-0.3-6.5-1.2-9.1-3.4c-0.3-0.3-0.9-0.5-1.3-0.5c-2.1,0.2-3.8-0.9-5.5-1.7
	c-1.9-0.9-3.8-1.4-5.9-1.7c-3.7-0.5-7.4-1.3-11.1-1.8c-2.1-0.3-4-1.2-6-2c-2.4-0.9-4.9-1.6-7.5-2.1c-2.4-0.4-4.8-2.1-6.9-3.6
	c-4.5-3.2-8.8-6.6-13.2-10c-1-0.8-2-1.7-3.1-2.4c-1.5-1-3-2-4.6-3s-3.2-2-4.8-2.9c-1.8-1-3.6-2-5.3-3.1c-0.6-0.4-1-1.4-1.6-1.7
	c-1.7-0.9-3.6-1.5-5.4-2.3c-0.5-0.2-1-0.6-1.4-0.9c-0.6-0.3-1.1-0.7-1.7-0.8c-1.5-0.3-3.1-0.4-4.7-0.5c-3.7-0.3-6.4,1.2-8.1,4.5
	c-1.4,2.7-2.9,5.4-4.5,8c-0.5,0.8-0.7,1.9-2,2.1c0-0.6-0.2-1.1-0.1-1.5c0.7-3.3,1.5-6.6,2.2-9.9c0.4-1.7,0.8-3.4,0.8-5.1
	c0.1-2-1-3-2.9-3.2c-0.5-0.1-1,0.1-1.5,0c-1.2-0.4-2.3-0.8-3.4-1.3c-1-0.4-1.8-1.1-2.7-1.5c-2.1-1-4-2-4.9-4.5
	c-0.6-1.6-1.2-3.5-2.8-4.5s-3.2-2-4.8-2.9c-0.9-0.5-1.8-0.8-2.7-1.3c-2.7-1.5-5.4-3.1-8.1-4.6c-0.2-0.1-0.5-0.1-0.8-0.1
	c-0.3,2.4,0.6,4.6,1.1,6.8c0.5,2.2,1.1,4.3,1.6,6.5c0.6,2.2,1,4.5,1.7,6.7c0.6,2.1,1.5,4.2,2.2,6.2c-0.5,0-0.7-0.2-0.8-0.4
	c-3.4-5.5-6.6-11-9-17c-1.6-4-3.5-7.8-5.3-11.7c-0.5-1.1-1.2-2-2.7-2.1c-1.7-0.1-3.4-0.6-5-1.1c-1.8-0.6-3.6-1.5-5.4-2.3
	c-2.2-1-4.4-1.2-6.5,0.3c-1.1,0.8-2.4,1.3-3.3,2.1c-5.3,4.9-10.5,9.8-15.7,14.7c-0.6,0.6-1.1,1.4-1.6,2.2c-0.5,0.8-0.7,1.8,0.3,2.4
	c1.1,0.7,1,1.7,0.7,2.6c-0.6,1.5-0.2,2.9,0.3,4.3c0.8,2.3,2.1,4.3,4,5.8c4.4,3.6,8.8,7.2,13.5,10.5c7.2,5,14.9,9.1,23.6,11.1
	c2.7,0.6,5.3,1.4,7.9,2.1c4.2,1.1,8.5,2.1,12.9,1.5c0.9-0.1,1.8,0,2.7,0c2,0.1,5.3,1.1,6.1,1.7c-1.8,0.3-3.7,0.6-5.6,1.1
	c-1.3,0.4-1.4,1.3-0.5,2.2c0.2,0.2,0.5,0.5,0.8,0.6c2.3,0.6,3.4,2.6,4.9,4.1c-1.1-0.1-2.1-0.4-3.1-0.8c-0.9-0.3-1.9-1-2.8-1
	c-2.1,0-4.2,0-5.7-1.9c-0.3-0.3-0.9-0.3-1.4-0.4c-5.4-1.1-10.8-2.3-16.2-3.3c-1.5-0.3-3.1-0.3-4.7-0.2c-1.6,0.1-3.1,0.6-3.5,2.6
	c-0.2,1-1,1.7-2.2,1.5c-1.3-0.1-1.8,0.6-1.9,1.8c-0.1,1.2-0.3,2.5-0.3,3.7c0.1,5.1,0,10.2,0.9,15.2c-0.3-0.3-0.5-0.6-0.7-1
	c-2.1-5.6-4.2-11.3-5.5-17.2c-0.8-3.4-1.8-6.5-4.3-9.2c-4.8-5.4-9.4-10.8-15.3-15.1c-7.6-5.5-15.4-10.5-24.6-12.8
	c-4.6-1.2-9.3-2.2-14-3.2c-1.8-0.4-2.6-0.1-3,1.3c-0.4,1.8-1.6,2.6-3,3.2c2.3,5.1,4.5,10.1,6.7,15.1c-3.6-3.2-7.1-6.6-10.3-10.1
	c-1.8-1.9-3.3-4.1-4.8-6.3c-2.3-3.2-5.5-5.4-9-7.2c-0.8-0.4-1.6-0.6-2.7-1c-0.2,1.2-0.5,2-0.5,2.9c0,2.2-0.5,4.1-1.8,6.1
	s-2.7,3.4-4.6,4.6c-1.2,0.8-2.5,1.5-3.5,2.6c-2.3,2.7-4.4,5.5-6.5,8.3c-1,1.2-1.8,2.5-2.8,3.8c-1,1.4-2.2,2.7-3.2,4
	c-1.7,2.4-3.2,5-5.1,7.2c-3,3.5-6,7-9.4,10c-2.6,2.3-5.3,4.4-7.1,7.4c-0.1,0.2-0.3,0.4-0.6,0.5c-2.8,1.5-4.2,4-5.5,6.7
	c-0.6,1.4-0.9,2.9-2.3,4c-1,0.8-0.8,1.9,0.4,2.6c1,0.7,2.2,1.2,3.3,1.6c6.7,2.5,13.6,4,20.6,5.4c5.3,1,10.6,1.1,15.9-0.7
	c2.9-1,6.1-1.3,9.2-1.9c0.5-0.1,1,0.1,2,0.2c-0.8,0.4-1.1,0.6-1.3,0.7c-1.9,0.9-3.9,1.8-5.8,2.9c-1.7,0.9-1.7,1.4-1.2,3.2
	c0.2,0.6,0.4,1.3,0.4,1.9c0,1.8,0.9,3.1,2.3,4.1c2.1,1.5,4.1,3,6.2,4.5c2.4,1.6,4.6,3.5,7.7,3.6c1.5,0.1,2,1.2,1.7,2.7
	c-0.2,0.8-0.4,1.6-0.7,2.5c1,1.1,2,2.2,2.9,3.3c-0.1,0.1-0.2,0.3-0.3,0.4c-2-1.3-4.3-2.3-5.9-4c-3.8-3.9-8.3-6.7-12.8-9.7
	c-10.2-6.7-21.6-9.2-33.5-10.1c-1.9-0.1-3.9,0.3-5.8,0.8c-0.9,0.2-2,1.1-2.4,1.9c-0.8,1.9-1.9,2.8-4.2,2.5
	c-0.9,5.6-0.5,11.2-1.4,17.2c-0.4-0.9-0.6-1.4-0.8-1.8c-1.4-5-2.8-10-4.3-15c-0.5-1.7-1-3.5-1.6-5.2c-0.6-1.5-1.5-1.8-2.9-1.2
	c-2.1,1-4.3,1.9-6.4,3c-1.1,0.6-2.2,1.4-2.6,2.8c-0.2,0.6-0.7,1.1-1,1.6c-0.6,0.9-1.2,1.8-1.7,2.7c-0.5,0.8-0.9,1.7-1.4,2.5
	c-1.2,2.1-3.3,3.7-4,6.2c-0.1,0.5-0.9,1-1.4,1.2c-1,0.4-2.1,0.4-3.1,0.7c-0.6,0.2-1.4,0.4-1.7,0.8c-1.7,2.3-4.3,3.3-6.8,4.3
	c-1.5,0.6-2.7,1.5-3.6,2.8c-0.5,0.6-1,1.4-1.7,1.7c-2.1,0.8-3.4,2.2-4.4,4c-0.9,1.5-1.4,3.2-2.5,4.5c-1.4,1.7-1.9,3.6-2.5,5.5
	c-16.8,0-33.7,0-50.5,0c0.6-2.2,1.2-4.4,1.7-6.7c0.3-1.5,0.6-3-0.3-4.6c-0.6,0.3-1.1,0.6-1.5,0.9c-3.2,2.8-6.4,5.7-9.5,8.5
	c-0.5,0.5-0.8,1.2-1.2,1.8c-1,0-2,0-3,0c0.7-0.9,1.2-1.9,2-2.7c3.6-3.5,7.2-7.1,10.8-10.5c1.5-1.4,2.2-3,1.9-5
	c-0.6-4.2-0.9-8.4-1.8-12.5c-3.1-13-6.4-25.9-9.7-38.9c-1-4-1.1-3.9-5.3-4.3c-0.3,0-0.7-0.1-1-0.1c-5.4-0.1-10.7-0.2-16.1-0.1
	c-2,0-3.7,0.8-5,2.6c-2.1,2.9-5.2,4.9-8.2,6.9c1.1-2,2.7-3.7,3-6.5c-1,0.6-1.6,0.9-2.2,1.2c-0.3,0.2-0.6,0.5-0.9,0.6
	c-1.5,0.6-3,0.9-4.4,1.6c-5.9,3.1-11.8,6.2-17.7,9.3c-7.9,4.1-15.1,9.1-21,15.8c-2.7,3.1-5.3,6.3-8.1,9.4c-2,2.3-3.8,4.6-3.1,7.9
	c0,0.1,0,0.2,0,0.2c-0.2,1.1-0.6,2.2,0.8,3.1c0.2,0.1,0.1,1,0.1,1.6c0,0.5-0.4,1.1-0.3,1.6c0.9,3.2,1.7,6.4,3,9.4
	c1.5,3.3,3.5,6.3,5.3,9.5c-5.6,0-11.2,0-16.8,0c-1.6-1.8-3.7-3.1-5.9-4.3c-0.4,1.6-0.7,3-1,4.3c-2.6,0-5.3,0-7.9,0
	c1.1-2.5,2.1-4.9,3.1-7.5c0.2-0.5,0.3-1.5,0.1-1.7c-0.5-0.4-1.3-0.5-2-0.4c-0.4,0-0.9,0.4-1.3,0.6c-5,2.6-10,5.2-15,7.9
	c-0.5,0.2-0.8,0.7-1.2,1.1c-19.3,0-38.6,0-57.9,0c1.5-1.8,3.1-3.6,4.6-5.5c1.1-1.4,2.1-2.9,3.4-4.6c-5.1-3.7-9.9-7.4-14.8-10.7
	c-5-3.4-10.1-6.7-15.4-9.8c-5.1-3-9.8-6.6-15.5-9.5c-0.8,3-1.5,5.6-2.1,8.2c-0.4,1.6-0.3,2.9,1.2,3.9c0.9,0.6,1.6,1.5,2.2,2.4
	c1.5,2.3,3.1,4.6,4.4,7.1c1.8,3.5,4,6.9,5.1,10.9c0.7,2.5,0,3.9-2.6,3.9c-1.7,0-3.4-0.4-5.1-0.7c-2.7-0.5-5.5-0.6-8.1-1.9
	c-1.7-0.9-3.7-1.3-5.8-2c-1,3-2,5.7-2.9,8.4c-19.1,0-38.3,0-57.4,0c0.2-1.8,0.4-3.5,1.3-5.2c0.7-1.3,0.9-2.9,1.5-4.4
	c1.2-3.3,1-6.9,1.8-10.3c0.2-1-0.2-1.8-0.9-2.4c-0.8-0.6-1-1.4-0.8-2.4c0.1-0.5,0.1-1,0.2-1.5c-0.8-0.5-1.6-0.9-2.5-1.5
	c0.4-1.3-0.1-2.3-1.1-3.2c-1.2-1-2.1-2.3-1.6-4.1c-14.9-0.2-29.6,0.7-44.2-1.3c0.5-0.2,1-0.3,1.5-0.4c2.8-0.5,5.7-0.7,8.5-1.5
	c7.2-2,14.5-3.2,21.8-4.2c1.8-0.2,3.7-0.6,5.6-0.9c-1.4-0.8-2.7-1.7-4-2.3c-2.8-1.3-4.7-3.3-5.3-6.3c-0.1-0.5-0.6-0.8-1.1-1.4
	c0.7-1.2,1.4-2.4,2.2-3.7c0.6-1,0.9-1.9,0.4-3c-0.5-1.2-0.8-2.4-1.7-3.6c-0.8-0.9-1.3-1.9-2.5-2.4c-1-0.4-1.9-1-1.4-2.4
	c0.3-0.9-0.4-1.3-1.2-1.6c-1.3-0.4-2.5-0.8-2.7-2.5c0-0.3-0.4-0.5-0.6-0.8c-2.3-2.4-4.9-4.4-7-7c-0.8-1-2.1-1.7-2-3.2
	c0.1-2.6-0.8-5-1.7-7.4c-0.8-2.2-2.3-4.2-2.3-6.7c0-0.4-0.3-0.9-0.6-1.3c-1.8-2.2-1.9-5.4-4.3-7.2c-0.1-0.1-0.1-0.3-0.2-0.5
	c-0.6-1-1.2-2.1-1.9-3.1c-0.5-0.8-1.4-1.6-1.6-2.5c-0.7-2.8-2.6-4.6-4.7-6.2c-0.8-0.6-1.6-1.3-2.5-1.5c-1.4-0.3-2.4-0.9-2.8-2.1
	c-1.1,0-2.3,0.4-2.8-0.1c-0.9-0.9-2.1-0.7-3.1-1.1c-1.3-0.6-2.8-1-4.1-1.6c-2.1-1.1-4.3-2.1-6.8-1.8c-0.3,0-0.8,0.1-0.9-0.1
	c-0.8-0.7-1.7-0.4-2.6-0.2c-2.7,0.6-5.5,1.2-7.8-1.2c-0.4-0.5-1.1-0.7-1.7-1c-1.2-0.6-2-1.6-2.6-2.9c-0.3-0.8-0.8-1.8-1.5-2.1
	c-2.1-0.9-3.8-3-6.5-2.2c-0.1,0-0.3-0.1-0.5-0.1c-5.8-1.3-11.6-1-17.4-0.5c-4.7,0.4-9.5,1.4-14.1,2.4c-7.4,1.6-14.8,3.4-22.1,5.3
	c-3.3,0.8-6.7,1.8-9.9,3.1c-5.6,2.3-9.4,6.8-12.3,12c-1.3,2.3-2.1,5-3.2,7.5c-1,2.5-1.9,5.1-5.4,5.3c-2.2,0.1-2.7,0.2-3.3-1.9
	c-0.8-2.9-1.5-5.9-2.3-8.8c-0.1-0.6-0.2-1.2-0.5-1.6c-1.6-2.6-3.3-5.1-5-7.6c-0.2-0.3-0.5-0.8-0.4-1.1c0.6-1.9-0.6-3.5-1-5.2
	c-0.4-1.6-1.6-2.6-3.2-3.2c-1.2-0.5-2.3-1.2-3.5-1.8c-1-0.5-2-1.2-3.1-1.5c-2.7-0.8-5.4-1.4-8.1-2C10.2,397.6,5.2,396.3,0,396z
	 M216.9,35.7c-0.3,0.9,0,1.5,0.8,2c1.9,1.2,3.8,2.6,5.7,3.9c0.3,0.2,0.8,0,1.4,0c-0.3-1.4-0.8-2.3-2.3-2.7c-1.3-0.4-2.4-1.4-3.6-2.1
	C218.3,36.5,217.5,36.1,216.9,35.7c-0.1-1.7-1.2-2.5-2.6-3.3c-1.2-0.7-2.4-1.4-3.6-2.1c-1.8-1.1-3.6-2.2-5.4-3.3
	c0.6,1.6,1.4,2.5,3,3.7c1.3,0.9,2.8,1.7,3.6,2.9c0.9,1.2,2.1,1.7,3.2,2.4C215.6,36.1,216.3,35.8,216.9,35.7z M398,219.9l0.1,0.1
	c-1.1-0.2-2.2-0.4-3.2-0.6c-2.6,3.8-2.5,3.3-5.8,2.6c-1.1-0.2-2.1-0.4-2.8,0.7c-0.1,0.1-0.4,0.1-0.5,0.1c-0.6-1.7-1.2-3.2-1.8-4.9
	c-8.7-1.5-17.3-2.5-25.9-2.4c-0.6,0-1.1,0.2-1.7,0.2c-1.6,0.2-2.6,1.1-3.3,2.6c-0.6,1.3-1.1,2.6-1.5,4c-1.1,5-2.4,9.9-3.7,14.8
	c-0.3,1.3-0.9,2.5-1,3.8c-0.1,2.7-1.7,4.5-3.6,5.9c-1.2,0.9-1.6,2-1.5,3.1c0.2,2.2,0.7,4.4,2.3,6.1c0.4,0.5,0.8,1.1,1.1,1.6
	c2.5,3.7,4.3,8,7.7,11.1c1.1,1,2.3,2.3,3.6,2.5c3.3,0.5,6.8,0.7,9.7-1.7c0.6,0.3,1.2,0.6,1.7,0.9c0.4,0.2,1,0.5,1.1,0.9
	c0.7,2.3,1.9,4.6,1.4,7.2c-0.1,0.7-0.1,1.6,0.3,2c2.9,3.5,6.3,6.5,11.2,6.6c1.3,0,2.4,0.7,3,1.9c0.4,0.8,0.7,1.6,1.2,2.6
	c-1.4,0.5-2.6,0.9-3.8,1.4c-1.2,0.5-2.3,1.2-3.5,1.8c-2.6,1.3-5.3,3.4-4.5,7c0.3,1.6-0.3,3-2,3.8c-0.4,0.2-0.9,0.8-1,1.2
	c-0.2,1.6-0.2,3.2-0.3,4.9c3-0.4,3.8,0.2,3.7,2.9c0,1.2,0.5,2,1.4,2.3c1.2,0.5,2.5,0.9,3.8,1.1c2.7,0.3,5.4,0.5,8.1,0.7
	c7.1,0.7,14.2,0.3,21.1-1.7c2.8-0.8,5.6-0.9,8.5-0.6c-2.3,0.8-5,0.9-5,4.4c0,0.9-1.5,1.8-2.5,0.7c-0.9-0.9-1.9-0.9-3-0.7
	c-0.8,0.2-1.6,0.3-2.4,0.4c-2.6,0.4-4.7,1.3-5.9,4.1c-0.7,1.6-0.8,2.7,0.1,4.1c2.2,3.5,4.5,6.9,6.7,10.3c0.1,0.2,0.3,0.5,0.4,0.7
	c-0.9-0.3-1.5-0.7-2-1.2c-3.5-3.1-6.9-6.1-10.3-9.2c-1.3-1.2-2.6-2.3-4.3-2.7c-2.4-0.5-4.8-1.3-7.2-1.6c-5.9-0.7-11.7-0.5-17.1,2.6
	c-6.1,3.5-11.6,7.9-16.5,12.9c-1.2,1.2-2.2,2.5-2.1,4.3c0,0.5,0.1,1.3,0.4,1.6c1.9,1.3,2,2.9,0.7,4.8c2.8,2.9,6.4,4.4,9.7,6.4
	c3.3,2.1,6.7,4.3,10,6.4c3.2,2,6.3,4.1,9.7,6.3c-4.1-1.4-8-2.4-11.8-3.9c-6.5-2.5-13.1-5.1-19.4-8c-8.1-3.8-16.3-5.1-25-3.3
	c-9.6,2.1-19.2,4-28.8,6.2c-6.3,1.4-12.5,3.1-18.3,5.9c-3.9,1.8-3.9,1.8-3.4,6c0.7,5.4,2.4,10.6,4.4,15.7c0.3,0.8,0.7,1.6,1.8,1.4
	c1.6-0.4,3.1-1,4.6-1.6c0.4-0.1,0.8-0.6,1-0.5c1.1,0.3,1.4-0.6,2-1.1c1.8-1.5,3.7-2.9,5.6-4.3c0.2-0.1,0.5-0.1,0.7-0.1
	c1.1-0.3,2.2-0.6,3.3-0.8c0.7-0.1,1.5-0.2,2.1,0.1c0.9,0.3,1.7,0.9,2.6,1.5c1.1,0.8,2.6,1.4,3.2,2.5c0.5,0.8-0.1,2.2-0.2,3.3
	c0.5,0.1,0.9,0.2,1.3,0.3c0.1,0.8,0.2,1.4,0.1,2.1c0,0.7-0.3,1.5-0.3,2.2s0.1,1.8,0.6,2c1.2,0.6,0.4,1.8,0.9,2.7
	c6.6-1.6,12.6-4.5,18.6-7.6c-0.2,0.6-0.5,1-0.9,1.2c-5.1,3.9-10.1,8.1-15.4,11.5c-3.3,2.1-4.9,5.4-7.1,8.2c-0.2,2.5-1.5,4.3-2.8,6.3
	c-1.4,2-2.2,4.5-3.7,6.4c-1.4,1.8-2.1,3.8-3,5.8c-1,2.2-0.9,5.1-3.6,6.5c-0.5,0.3-0.7,1.3-1.1,1.9c-0.8,1.5-1.5,3.1-2.5,4.5
	c-1.6,2-1.8,3.8-0.5,5.9c2.3,3.5,4.6,7,6.9,10.5c1,1.5,1.8,3.2,3,4.5c2.8,3.2,5.7,6.4,8.8,9.3c4.5,4.1,9.1,8.1,13.8,11.9
	c4.6,3.7,9.5,7.1,14.2,10.7c1.9,1.5,3.5,2.9,6.3,1.9c2.1-0.8,4.1-1,4.2-3.8c4.8,3.6,7.2,8.7,10.7,13.1c-2.8-11.4-5.6-22.8-7.4-34.5
	c1.1,1.9,2,3.8,2.9,5.7c2.1,4.5,4.3,8.9,6.3,13.4c1.9,4.3,3.6,8.7,5.5,13c0.2,0.5,0.6,0.9,0.9,1.5c0.5-0.7,0.9-1.3,1.3-1.8
	c4.2-6.9,8.5-13.7,12.6-20.7c2-3.6,3.5-7.4,5.3-11.1c0.6-1.4,0.5-2.6-0.6-3.6c-1.7-1.5-3.3-3.2-5.3-4.4c-5.8-3.6-11.7-7-17.6-10.6
	c-2.6-1.6-5.1-3.4-7.7-5.1c3.4,0.7,6.8,1.5,10.1,2.4c6.1,1.8,11.9,4.4,17.6,7.2c1.2,0.6,2.4,1.1,3.6,1.6c0.9,0.4,1.8,0.5,2.6-0.6
	c0.7-1,1.5-2,2.6-2.6c2.3-1.2,3.5-3.2,4.7-5.2c3.8-6.6,7.3-13.3,11-19.9c0.5-1,0.4-1.8-0.3-2.7c-2.6-3.7-5.1-7.5-7.6-11.3
	c-0.7-1-1.3-2-1.9-3.1c0.1-0.1,0.3-0.2,0.4-0.4c3.5,4.4,7.9,7.7,12.7,10.5c0.3-0.4,0.5-0.6,0.6-0.8c4.2-9.1,8.5-18.2,12.7-27.4
	c0.3-0.7,0.5-1.6,0.5-2.4c0.2-4.5-0.1-8.9-1.1-13.3c-1.8-8.8-3.5-17.6-5.4-26.4c-1.1-5.1,0-10-0.1-15.1c0.7,1.7,1.1,3.5,1.9,5
	c2.2,4.4,3.4,9.1,4.8,13.8c2.1,7,4.2,14.1,6.3,21.1c0.2,0.7,0.6,1.4,1.1,2.5c0.7-1.1,1.1-1.8,1.5-2.5c7.3-12.5,14-25.4,20.1-38.6
	c3.8-8.2,7.5-16.3,10.3-24.9c5.3-16.6,7.6-33.6,6.6-51c0-0.8-0.4-1.6-0.8-2.3c-3.9-5.4-8.3-10.2-13.3-14.6
	c-7.3-6.3-14.4-12.8-21.7-19.2c-1-0.9-2.2-1.8-3.4-2.4c-2.2-1.2-4.4-2.1-6.7-3.2c-0.1-0.1-0.3,0-0.5-0.1c-0.4,0.5-0.8,1-1.2,1.5
	c-0.7-0.2-1.3-0.3-2.1-0.5c0.1,1.5,0.1,2.8,0.2,4.1c0.1,1.4-0.6,2.3-1.6,2.8c-0.9,0.4-2.1,0.8-3.2-0.2c-1-0.9-1.8-1.8-2.2-3.2
	c-0.8-2.7-1.8-5.2-4.7-6.5C399.3,221.9,398.7,220.7,398,219.9z M352,289.7c-2-1.4-3.4-3.6-6.3-2.8c-0.9,0.3-1.5-0.6-1.3-1.6
	c0.1-0.8,0.3-1.6,0.7-2.4c1.1-2.1,0.5-3.8-0.8-5.4c-0.7-0.8-1.5-1.6-1.9-2.6c-1.1-2.7-2.4-5.3-4.2-7.6c-0.5-0.7-1.1-1.3-1.3-2.1
	c-0.9-3.1-3.3-4.4-6-5.3c-1.3-0.4-1.9-1.3-1.9-2.3c0.1-3.5-0.1-7.2,4-9c1.3-0.6,1.8-1.5,1.7-3.2c-0.1-1.5-0.5-3.3,1-4.6
	c1.3-1.1,2.4-2.4,3.7-3.5c1.5-1.3,2.1-2.9,1.7-4.9c-0.4-1.8,0.3-3.1,1.8-3.9c0.9-0.5,1.9-0.9,2.8-1.4c0.6-0.4,1.3-0.7,1.7-1.3
	c1.1-1.6,2.1-3.2,2.7-5.2c0.4-1.4,0.4-2.3-0.5-3.5c-0.5,0.1-1,0.1-1.4,0.2c-4.2,1.4-8.6,2.5-12.6,4.2c-10.3,4.5-21.2,6.3-32.2,8.2
	c0.9-0.5,1.8-0.8,2.7-1.2c2.7-1.1,5.4-2.2,7.9-3.4c5.1-2.5,10.1-5.2,15.1-7.9c2.5-1.3,4.8-2.9,7.1-4.5c1-0.7,1.7-1.7,2.5-2.6
	c-2.1-2.3-1.9-2.1,0.1-4.6c-0.7-1.8-0.7-1.9-2.5-3.5c-5.1-4.5-10.7-8.4-16.7-11.5c-7.4-3.8-14.9-7.4-22.5-10.9c-6.8-3.1-14-5-21.5-5
	c-0.5,0-1-0.1-1.4-0.3c-1.3-0.4-2.6-0.9-4-1.3c-2.5-0.8-5.1-1.6-7.6-2.4c0-0.1,0.1-0.2,0.1-0.3c2,0.1,4.1,0.3,6,0.4
	c1.3-2.8,1.4-2.9,4.2-2.5c0.6,0.1,1.4,0.1,1.9,0.3c2.5,1.3,5.3,1.1,8,1.3c0.5,0.1,1-0.1,1.9-0.3c-4.7-2.9-8.9-5.5-13.6-8.5
	c0.9,0.2,1.2,0.2,1.5,0.3c3.8,1.2,7.5,2.5,11.2,3.8c0.9,0.3,1.7,0.6,2.6,0.1c1.1-0.5,2.2-0.1,2.7,1c0.5,1.2,1.5,1.7,2.4,2.3
	c1.7,1,3.4,2.1,5.1,3c7.1,3.8,14.2,7.7,21.4,11.3c1.7,0.9,3.6,1.4,6,1.4c-0.8-1.5-1.5-2.6-2.2-3.8c3.2,1.3,5.7,3,7.1,6.2
	c0.4,1,1,1.9,1.8,2.6c4.7,4,9.5,7.6,14.8,10.6c0.8,0.4,1.6,0.8,2.4,1.1c0.9-2,0.4-3.4-0.9-4.6c-2.5-2.4-2.7-5.2-1.2-8.3
	c0.5-1,1-2.2,1-3.3c0.1-3.4,1-6.8,0.2-10.3c-0.3-1.3-0.4-2.6-0.7-3.9c-1.2-4.7-2.3-9.4-3.8-14c-0.9-3-2.4-5.9-3.5-8.9
	c-0.7-1.9-1.2-3.9-1.9-5.9c-2.1-6.3-4.2-12.6-6.5-18.8c-0.8-2.1-2-4.2-3.5-5.9c-2.4-2.8-5.1-5.3-8-7.7c-2.4-2-5.1-3.6-8.4-3.7
	c-2.1,0-4.2-0.3-6.4-0.5c-4.7-0.5-9.3-1.2-14-1.5c-5.6-0.3-11.1-1-16.3-3.3c-3.3-1.5-6.8-2.5-10.1-3.9c-1.2-0.5-2.4-1.3-3.1-2.2
	c-2-2.6-3.8-5.4-5.7-8c-0.2-0.3-0.4-0.5-0.7-0.7c-3.2-2.5-6.5-4.9-9.7-7.5c-2.4-2-5.6-2.8-7.7-5.2c-0.8-0.8-2.1-1.3-3.2-1.7
	c-0.8-0.3-1.4-0.6-1.9-1.3c-1-1.2-2.3-2.1-4-2.1c-2.2,0-4.7-0.6-6.2,1.9c-0.1,0.2-0.6,0.3-0.9,0.4c-3,1.5-6.1,2.9-9.1,4.4
	c-1.4,0.7-2.7,1.6-4,2.4c-0.7,0.5-1.1,1-1.2,2c-0.1,1.7-1.7,3.3-3.3,3.1c-1.8-0.3-3.2,0.6-4.7,1.1c-0.5,0.1-0.9,0.4-1.4,0.4
	c-2.9,0.1-2.9,0.1-3.5,2.9c-0.2,1.2-0.7,1.8-2,1.7c-1-0.1-2,0-2.9-0.3c-3.1-0.7-5-3.3-7.7-4.8c-1.2-0.7-2.1-1.9-3.1-2.9
	c-2.5,1.8-4.8,3.4-7,5.1c-0.8,0.6-1.7,1.5-2,2.4c-0.8,2.4-1.6,4.9-1.9,7.4c-0.5,5.6-0.9,11.2-1,16.8c-0.1,6.7,0.8,13.3,2.9,19.7
	c2.7,8.3,5.6,16.6,8,25c4.9,17.2,12,33.7,18.6,50.3c0.4,0.9,0.6,1.9,2.1,2.1c2.3-12.1,4.5-24,6-36.5c0.2,0.6,0.4,0.9,0.4,1.2
	c0.4,3.7,0.8,7.4,1.2,11.1c0.6,6.1-0.5,12.2-1.2,18.2c-1,7.7-3.3,15.3-2.4,23.3c0.3,2.5,0.3,5.1,0.5,7.6c0,0.5,0.3,1,0.6,1.9
	c4.8-3.7,9.8-6.3,15-8.5c-4.3,5.2-9.5,9.4-14.9,13.5c0.2,2,0.4,4.1,0.6,6.1c1.1,10.1,2.3,20.1,3.3,30.2c0.2,2.1,0.7,3.6,2.9,4.7
	c7.2-8.4,14.5-16.9,21.7-25.3c0,0.1,0,0.4-0.2,0.7c-3.3,6.9-6.7,13.8-11.2,20c-2.2,3.2-4.4,6.4-6.4,9.7c-2.9,4.6-4.2,9.6-3.9,15.1
	c0.8,12.2,1.6,24.3,2.6,36.5c0.5,6.6,1.9,13,4.4,19.2c3.2,7.8,7.3,15.1,11.5,22.4c0.6,1.1,1.8,1.9,2.9,2.6c0.9,0.7,2,0.6,3-0.2
	c1.5-1.2,3.1-2.2,4.6-3.4c1.7-1.4,3.4-2.8,5.5-4.4c-2.3-1.2-4.1-2.2-6-3.2c2.5,0,4.9,0.4,7.2,0.8c1.4,0.2,2.8,0.1,4-0.8
	c4.5-2.9,9-5.8,13.6-8.6c1.7-1.1,2.7-2.3,2.5-4.4c-0.1-1.1,0.2-2.3,0.2-3.5c0.1-2.8,0.7-5.6-0.5-8.3c-0.1-0.3,0-0.6,0-1
	c0-1.1,0.1-2.3-0.1-3.4c-0.2-2.2-0.5-4.5-0.2-6.9c1.3,2.3,2.4,4.4,3.6,6.5c0.2,0,0.4,0,0.6,0c1.6-3.9,3.2-7.8,4.8-11.8
	c-0.5,4.5-1.4,8.9-2.3,13.4c-0.2,1-0.5,2.2-0.2,3.1c1,2.4,2.2,4.8,4.4,6.6c0.4-0.3,0.6-0.6,1-0.8c1.2-0.6,2-0.4,2.3,0.9
	c0.5,1.9,1.8,2,3.2,1.9c1-0.1,1.9-0.4,2.9-0.7c10.4-3,20.8-5.9,31.1-8.9c4.9-1.4,10-2.6,14.6-4.6c10.9-4.7,19.8-12.4,28.1-20.7
	c3.8-3.8,5.5-8.7,6.1-13.8c0.4-3.1,1.2-5.9,2.2-8.8c0.2-0.5,0.4-1.1,0.5-1.7c0.3-1.4,0-2.5-1.2-3.4c-0.8-0.6-1.4-1.4-2.1-2
	s-1.4-1.2-2.2-1.4c-1.2-0.4-2.6-0.7-3.9-0.5C356.2,289.3,353.9,288,352,289.7z M595.1,325.3c0.3,0.6,0.4,0.8,0.5,0.8
	c3,1.3,6,2.7,9.1,3.9c0.9,0.4,2.1,0.2,3.1,0.1c1.8-0.2,3.5-0.8,5.3-0.9c3.2-0.2,5.9-1.2,8.4-3.1c10.3-7.8,20.9-15.3,29.8-24.8
	c0.7-0.7,1.3-1.7,1.6-2.7c1-3.5,1.9-7,2.7-10.5c0.9-4.4,2.3-8.8,2.2-13.4c0-0.5,0.1-1.1,0.4-1.3c1.4-1.2,1.2-3,1.7-4.6
	c0.4-1.5-0.8-2.6-1.9-3.5c-1-0.8-2.1-0.8-3.2,0c-0.9,0.7-1.9,1.3-2.8,2c-5.1,4-10.2,8.1-15.4,12c-4.8,3.5-9.8,6.7-14.7,10
	c-0.5,0.4-1.1,0.9-2.2,0.3c0.7-0.9,1.3-1.7,2-2.3c5.4-4.8,10.8-9.7,16.2-14.5c2.8-2.5,5.9-4.8,8.5-7.5c2.4-2.5,5-5.1,5.4-8.9
	c0.1-0.6,0.7-1.1,1.1-1.6c0.6-0.6,1.3-1.2,2-1.8c1.4-1.2,2-2.7,2.1-4.6c0.1-5.1-0.3-10.2-1-15.3c-0.4-2.6-0.6-5.2-1-7.8
	c-0.3-1.7-0.5-3.4-1.1-5c-1.8-4.8-4.4-9.2-7.6-13.3c-0.8-1-1.3-2.3-1.7-3.5c-1.2-3.6-2.9-7-5.5-9.8c-1.1-1.1-2.1-0.9-2.5,0.6
	c-0.2,0.7-0.2,1.5-0.2,2.2c0,2.2,0,4.5,0,6.7c-0.1,3.5-2.4,5.7-4.7,8.2c-0.2-0.6-0.4-0.8-0.4-1c0.1-4.6,0.2-9.2,0.3-13.8
	c0-0.5,0.1-1,0.2-1.5c0.3-2.1,0.4-4.3,0.8-6.4c0.3-1.8-0.3-3-1.8-3.9c-2.9-1.9-5.6-4-8.6-5.8c-6.8-4-13.7-7.7-20.4-11.6
	c-2.9-1.7-5.6-3.7-8.4-5.6c0.1-0.2,0.2-0.3,0.2-0.5c2.5,0.9,5.1,1.7,7.6,2.9c8.6,4.1,17.1,8.2,25.6,12.3c0.9,0.4,2,0.7,3,0.9
	c1.2,0.2,1.9-0.4,1.9-1.6c0.2-3.7,0.6-7.4-0.8-11c-0.5-1.2-0.7-2.6-1-3.8c-2.1-6.9-4.1-13.9-6.4-20.8c-1.9-5.7-5.9-9.9-11.4-12.4
	c-3.1-1.4-6.3-2.4-9.4-3.8c-4.1-1.8-8.4-2.1-12.8-1.9c-3.3,0.2-6.6,0-9.9-0.1c-1.6,0-3.1-0.4-4.8-1.7c2.5-0.3,4.4-0.6,6.4-0.9
	c3.4-0.5,6.8-1,10.3-1.5c1.5-0.2,2.7-1,3.3-2.3c0.4-1,1.2-1.3,2.1-1.5c0.5-0.1,1-0.1,1.5-0.3c1.3-0.4,1.6-1,1.1-2.2
	c-0.4-0.9-1.1-1.6-1.6-2.5c-0.3-0.5-0.8-1.2-0.7-1.5c0.7-1.3-0.1-3.2,1.7-4.1c0.2-0.1,0-0.8,0-1.3c-2.1,0-3.6,0.6-4.5,2.3
	c-0.3,0.6-0.7,1.1-1,1.7c-1.4,1.9-3.7,2.5-5.8,1.6c-1.7-0.7-3.4-1.3-5.1-1.9c-0.5-0.2-1.2-0.2-1.7-0.1c-3.1,1.1-6.5,1.2-9.2,3.5
	c-0.4,0.4-1.2,0.4-1.8,0.6c-1.9,0.6-3.6,1.4-5.2,2.7c-1.9,1.5-4.2,2.9-6.5,3.4s-4.9,0.9-7.3-0.1c-1.3-0.5-2-0.1-2.6,1
	c-1,1.8-2.2,3.5-3.2,5.3c-0.3,0.6-0.6,1.4-0.6,2.1c-0.1,3.2-0.1,6.4-0.2,9.6c0,1-0.1,2,0.1,3c0.2,0.8,0.4,1.8,1,2.4
	c0.8,1,1,1.6,0.4,3c-0.8,1.9-1.3,4,0.1,6.1c0.9,1.3,1.4,3,1.9,4.5c1.5,4.4,2.9,8.9,4.6,13.3c1.6,4.1,2.9,4.8,7.3,4.7
	c0.4,0,0.8,0,1.2-0.1c2.5-0.3,3.3-1.4,2.7-3.9c-0.3-1.1-0.3-2.1,0.1-3c2.4-0.6,4.6-1.1,6.8-1.7c0.9-0.2,1.8-0.3,2.4,0.7
	c1,1.9,2.4,1.9,4.2,1.1c1.2-0.5,2.4,0.3,2.1,1.5c-0.6,2.1,1,3.9,0,6.3c10.5-0.5,20.4,1.3,30.7,3.8c-5.7,0.2-11,0.4-16.2,0.7
	c-4.3,0.2-8.6,0.3-12.8,0.6c-2.1,0.1-3,1.5-3.3,3.6c-0.5,3.4-1.9,6.3-4.9,8.3c-0.5,0.3-1,0.7-1.2,1.2c-0.6,1.4-1.1,2.9-1.4,4.4
	c-0.2,1-0.1,2.2,0.3,3.1c0.5,1.4,1.4,2.7,2.2,4.1c1,1.9,0.8,3.4-0.9,4.8c-2.2,1.8-3.3,4.3-4.3,6.8c-0.4,1-0.6,2.1-1,3.4
	c1.3,0.1,2.1,0.1,3,0.2c0.9,0.1,1.8-0.3,3.2,0.4c-2.2,0.6-3.9,1-5.7,1.5c1.7,6,3.3,11.8,5,17.6c-0.2,0.1-0.3,0.1-0.5,0.2
	c-0.3-0.4-0.6-0.9-0.9-1.3c-2.3-4-4.5-8-6.8-12c-0.4-0.6-0.9-1.4-1.5-1.5c-1.5-0.4-3.1-0.8-4.6-0.8c-5.4-0.2-10.9-0.2-16.3-0.4
	c-1.2,0-2,0.3-2.6,1.4c-1,1.9-1.9,3.8-3,5.7c-2.1,3.6-2.8,7.5-2.9,11.6c-0.1,2.9,0,5.8-0.3,8.6c-0.3,2.1-1.1,4.1-1.7,6.2
	c-0.7,2.3,0.3,6.5,2.3,7.5c1.5,0.8,1.8,1.9,1.8,3.3c0.1,2.1,0.5,4.1,0.3,6.2c-0.1,1.8-0.4,3.9-2.5,4.7c-2.8,1.1-4.1,3.4-5.4,5.8
	c-1.6,2.9-3.1,5.8-4.9,8.5c-0.6,1-0.9,1.7-0.5,2.7c2.2,5.3,4.4,10.5,6.5,15.8c0.4,1.1,1.2,1.4,2.3,1.3c1.3-0.2,2.6-0.2,3.9-0.2
	c3.6,0,7.1-0.5,10.5-1.7c1.4-0.5,2.8-0.9,4.2-1.3c-1.8,1.4-3.8,2.4-5.7,3.4s-3.8,2.1-5.7,3c-2,0.9-4.1,1.6-6.1,2.3
	c0,0.4,0,0.6,0.1,0.8c5.1,11.3,10.2,22.5,15.3,33.8c0.5,1.1,1.3,2.2,2,3.2c0.2-0.1,0.4-0.1,0.6-0.2c0-2.8,0-5.7,0.2-8.5
	c0.2-2.9,0.8-5.7,1.3-8.6c0.4-2.8,0.9-5.5,1.4-8.3c0.6,2.1,0.7,4.1,0.8,6.1c0.3,5.9,0.6,11.9,0.8,17.8c0.2,4.9,0.1,9.9,0.2,14.8
	c0.1,2.9,1.3,5.3,3.9,7.2c0.5-0.7,0.9-1.1,1.3-1.5c3.1-3.2,6.1-6.5,9.5-9.4c4.8-4.2,8-9.1,8.3-15.7c0-1.2,0.2-2.5,0.4-3.7
	c0.3-2.9,0.7-5.9,1.1-8.8c0.2-1.3,0.5-2.7,1.9-4.1c0.3,1.3,0.5,2.3,0.7,3.3c0.1,1.1,0.1,2.1,0.2,3.2c0.1,0.9-0.2,2,0.6,2.8
	c0.3-1.6,0.4-3.1,0.3-4.6c-0.5-4.7-2-9-5-12.7c-3.3-4.1-6.6-8.2-9.8-12.4c-3.3-4.4-7.3-7.8-12.4-9.8c-8-3.2-15.4-7.6-22.6-12.1
	c-0.4-0.2-0.7-0.6-1.3-1c4.6,1.6,8.9,3.3,13.3,4.7c4.3,1.5,8.5,3.5,13.2,4.4c0-1.7,0.5-2.5,2-2.8c1.8-0.3,1.9,1.6,3.5,2.1
	c0.4-0.8,1.1-1.5,1.3-2.4c1.1-4.1,1.5-8.2,1.5-12.5c-0.1-10-0.3-19.9-0.1-29.9c0.1-4.9,0.2-9.7-0.3-14.6c0-0.5,0.1-0.9,0.1-1.4
	c1.1,2.9,1.9,5.9,2.7,8.8c0.3,1.1,0.6,2,1.8,2.4c1.1,0.4,1.7,1.4,1.1,2.4c-1.3,2.4-1.3,4.9-1.3,7.4c-0.3,7.9-0.4,15.8-0.5,23.7
	c-0.1,4,1.6,7.3,4.4,10.1c1.4,1.3,2.7,2.7,3.3,4.8c-2.4-0.7-4.8-1.5-7.3-2.3c-1.1,3.5-1.9,6.7-0.2,9.8c3.3,6,7.7,11.3,12.4,16.3
	c1,1,2.3,1.7,3.8,1.7c0.8,0,1.4-0.1,1.9-0.9c1.4-2.1,2.2-2,3.4,0.2c0.1,0.2,0.3,0.4,0.7,0.8c9.2-4.4,16.6-11.6,24.9-17.3
	c-0.8,1.3-1.8,2.5-2.7,3.8c-3.7,5.5-8.3,10.2-13.6,14.3C598.8,322,597,323.7,595.1,325.3z M487.4,171.7c1.9-1.1,3.8-2.1,5.5-3.2
	c0.9-0.6,1.9-1.3,2.6-2.1c3.5-4,5.6-8.8,8.4-13.3c0.7-1.1,0.7-2.6,1.3-3.7c1.7-3.2,3.6-6.4,5.6-9.8c-7.8-3.6-15.9-6.7-22-13.7
	c2,0.9,3.7,1.7,5.4,2.3c6,2,12.1,3.7,18.1,5.8c1.9,0.6,3.1,0.3,4.3-1.1c1.2-1.5,2.4-3,3.7-4.3c2.9-2.9,5.7-5.8,7.3-9.7
	c1.2-3.1,2.2-6.1,2.5-9.5c0.2-2.5,1.3-5,2-7.5c0.1-0.3,0.3-0.6,0.6-0.8c1.2-0.8,1.1-1.9,0.8-3.1c-0.5-2.6-0.9-5.3-1.3-8
	c-0.3-2.5-1.7-4.3-4.1-5.1c-0.8-0.3-1.5-0.9-2.3-1.4c-0.7-0.5-1.4-1.1-2.1-1.5c-0.9-0.5-2-0.8-2.9-1.3c-1.5-0.7-3.1-1.5-4.6-2.3
	c-1.4-0.7-2.8-1.3-4-2.3c-2.5-2-5.3-3.3-8.1-4.7c-3.2-1.6-6.6-2.8-10-4c-2-0.7-4.1-1.3-6.1-1.8c-2.4-0.6-4.7-1.2-7.1-1.6
	c-3.6-0.6-7.2-1.8-11-1c-2.1,0.5-4.2,0.8-6.3,1.2c-0.3,0.1-0.6,0.2-0.9,0.4c-2.4,1.1-4.7,2.2-7.1,3.3c-2,0.9-4.2,1.5-6.2,2.5
	c-4.7,2.2-9.3,4.5-14,6.7c-4.1,1.9-8.2,3.8-12.3,5.7c-2.2,1-4.4,2.2-6.8,2.9c-3.7,1.2-7.3,2.8-11.1,3.7c-4.9,1.1-9.6,3-14.3,4.5
	c-1.2,0.4-2.4,0.5-3.6,0.9c-2.4,0.8-4.7,2-7.2,2.5c-3.4,0.7-5.8,4.2-6,7.5c-0.2,2.2-0.3,4.3-1.3,6.2c-0.2,0.3-0.2,0.8-0.1,1.2
	c0.4,1.9,0.6,3.9,2.4,5.2c0.4,0.3,0.6,0.8,0.9,1.1c1,1.2,1.8,2.5,3,3.6c1.1,1,1.6,2.2,2.1,3.5c1.3,3.4,1.6,7,2,10.6
	c0.1,1.1,0.3,2.3,0.2,3.4c0,0.5-0.5,1.4-1,1.5c-1.7,0.5-3.7,1.1-5.2-0.3c-1.5-1.5-2.5-3.4-2.7-5.6c0-0.3,0.2-0.6,0.4-0.9
	c0.8-0.9,0.8-1.9,0.6-3c-0.4-2.8-0.7-5.5-1.1-8.3c-0.1-0.4-0.2-0.8-0.3-1.2c-1.3-3.2-3.8-5.5-6.2-7.9c-1.2-1.2-3.2-0.6-3.7,1.1
	c-0.9,3.1-1.1,6.1,0,9.2c0.3,1,0.6,2.1,0.4,3.1c-0.3,1.1-0.3,2.1,0.1,3.1s1,1.9,1.3,2.9c1.4,4.4,3,8.7,3.8,13.2
	c0.6,3.5,2.1,6.5,4.7,9.1c0.6,0.6,1.1,1.1,1.9,0.7c1.8-1,3.5-2.2,4.8-3.7c0.6-0.6,0.8-1.6,1.1-2.4c0.9-2.7,2.9-4.1,6.2-4.2
	c0.2,1.9,0.4,3.8,0.7,5.9c3.6,2.1,7.8,3.3,11.2,6.2c0.2,0.1,0.5,0.2,0.7,0.2c4.2,1.1,8.4,2.2,12.6,3.2c1.9,0.5,3.9,0.8,5.8,1.2
	c1.8,0.4,3.5,1.4,5.2,1.2c1.6-0.2,2.6,0.3,3.9,0.8c1.4,0.5,2.8,0.8,4.2,1.2c4.6,1,9.3,2,12.8,5.2c2.1,1.9,4.2,3.5,6.9,4.5
	c1.6,0.6,3.1,1.4,4.9,1c2.4-0.6,4.8-1.1,7.2-1.5c1.2-0.2,2.7-0.5,3.6,0.1c2,1.2,4.1,0.8,6.2,1.1c1.3,0.2,2.7-0.3,4.4-0.5
	c-1.7-2.2-3.1-4-5.2-5.1c-2.5-1.4-5.2-2.4-7.7-3.9c-3.6-2.1-7.2-4.4-10.7-6.6c-0.4-0.2-0.8-0.4-1.3-0.7c0.1-0.2,0.3-0.3,0.4-0.5
	c2.6,0.8,5.2,1.8,7.9,2.5c2.7,0.7,5.3,1.7,8.3,1.4c0-2.3,1.2-3.1,3.2-2.9c1.4,0.1,1.7-0.9,1.7-2c-0.1-2.5-0.2-5.1-0.5-7.6
	c-0.1-0.9-0.6-1.9-1.2-2.7c-2.2-3.3-1.7-4.4,2.5-4.9c0.2-1.1,0.3-2.3,0.5-3.4c0.7,0.8,1,1.7,1.2,2.7c0.2,1.1,0.5,2.3,0.5,3.4
	c-0.1,5.1,1.6,9.9,2.8,14.8C482.5,164.3,484.3,168.1,487.4,171.7z M624.6,413c-0.2,0.1-0.4,0.2-0.6,0.4c-3.2-4.2-6.5-8.3-9.5-12.6
	c-2.3-3.3-4.3-6.8-6.4-10.3c-2.3-3.6-4.5-7.3-7.7-10.3c-1.7-1.7-3.5-2.1-5.9-1.7c-4.6,0.8-8.6,2.8-12.1,5.9
	c-8,7.3-16,14.5-23.9,21.9c-1.8,1.7-3.3,3.7-5,5.5c-1.6,1.7-1.8,3.6-0.7,5.7c0.6,1.1,1.2,2.2,1.7,3.3c1.4,3.6,4.1,5.8,7.6,7.3
	c8.1,3.6,16.2,7.3,24.3,11c3.9,1.8,7.8,3.6,11.8,5.1c6.4,2.3,6.4,2.2,12.8,0.4c6.7-1.9,13.4-4,20.4-4.8c1.1-0.1,2.3-0.4,3.4-0.8
	c0.7-0.2,1.4-0.5,1.9-1.1c1.5-1.7,3-3.5,4.4-5.4c2.7-3.8,5.2-7.8,7.8-11.7c2-3.1,3.6-6.4,4.6-10c0.1-0.5,0.1-1.2,0.2-1.7
	c1-2.7,1.7-5.3,1.8-8.2c0.1-2.6-0.2-5.1-0.1-7.8c-1-0.4-1.9-0.8-2.8-1.2c-9.5-3.4-19.1-6.9-28.6-10.3c-4.5-1.6-9.1-3-13.6-4.5
	c-1.2-0.4-2.4-0.8-3.3,0.7C613,389.6,618.8,401.3,624.6,413z M497.4,321.6c-2.7,0.3-5.1,0.5-7.4,0.9c-6.3,1-12.2,3.3-18.3,5.2
	c-0.7,0.2-1.3,0.8-1.7,1.3c-1.4,1.7-2.8,3.4-4,5.3c-3.3,5.3-6.5,10.7-9.6,16.1c-5.1,8.9-9.9,17.9-15.1,26.7
	c-9.4,15.9-18.4,32-26.6,48.6c-0.5,0.9-0.9,1.9-1.4,3c0.8,0.4,1.3,0.8,1.9,1c1.2,0.4,1.4,1.3,1,2.4c-0.3,0.7-0.6,1.4-0.9,2
	c-0.5,1-1,2-1.6,3.2c6.3,6,12.4,11.9,18.5,17.7c0.6,0.5,1.3,0.9,2.2,1.5c0.6-2.2,1.3-4.2,1.7-6.2c0.4-2.2,0.4-4.4,0.9-6.6
	c1-4.2-0.1-8-1.9-11.6c-1.3-2.6-3.1-5-4.6-7.5c-0.4-0.6-0.7-1.3-0.8-2c-0.3-3.4,1-6.3,2.4-9.4c0.7,0.2,1.3,0.4,1.9,0.6
	c4.4,1.7,8.8,1.9,13.1-0.6c0.8-0.5,1.8-0.7,2.8-0.9c2.7-0.5,5.2-1.2,7.7-2.4c3.7-1.7,5.8-4.7,7.3-8.2c1.3-3.1,2.4-6.3,3.8-9.4
	c2.2-4.8,5.5-8.9,8.3-13.4c0.5-0.7,0.8-1.6,0.9-2.5c0.2-1.7,0.6-3.2,1.6-4.6c0.6-0.8,0.9-1.9,1.3-2.9c0.2-0.5,0.2-1.2,0.5-1.6
	c1.5-2.4,2.8-4.8,4.5-7c3.6-4.6,5.2-10.1,7.5-15.2c0.4-0.9,0.4-1.9,0.6-2.9c0.5-2.5,0.9-5,1.7-7.4c1.2-3.4,1.7-7,2.2-10.5
	C498,323.7,497.6,322.9,497.4,321.6z M532.5,462.2c0.2,1.3,0.3,2.3,0.5,3.2c3.2,11.5,6.4,23.1,9.7,34.5c0.6,2.1,1.6,4.1,2.7,6.1
	c1,1.8,2.7,2.8,5,2.4c0.6-0.1,1.2,0.1,2.1,0.2c-0.3,1-0.4,1.7-0.6,2.4c-0.2,0.8-0.3,1.7,0.6,2.2c1,0.5,1.9,0.3,2.4-0.6
	c0.6-1.1,1.1-2.4,1.6-3.6c0.4-1,1-2,0.8-2.9c-0.3-1.5-2-0.6-3.3-1.3c0.9-1,1.5-1.9,2.3-2.6c6.7-5.6,13.7-10.8,21.2-15.3
	c2-1.2,4.3-2.3,4.8-5c0.1-0.3,0.4-0.5,0.7-0.7c4.2-4.6,9.6-7.5,15.3-9.6c3.9-1.4,6.9-4.1,10.4-6.1c0.3-0.2,0.5-0.6,0.7-1
	c-4.4-5.2-9.3-9.5-15.3-12.5c-10.5-5.3-21-10.7-31.5-16c-1-0.5-2-1.1-3-0.2c-5.7-4.6-5.7-4.6-7.8-4.2c3.4,3.6,7.1,6.6,10.5,9.8
	c3.4,3.3,6.8,6.6,10.2,10c-0.1,0.2-0.3,0.4-0.4,0.5c-4.2-2.7-8.6-5.2-12.7-8.1c-4.1-2.8-7.8-6.1-11.8-9c-2.3-1.7-4.8-3.2-7.3-4.6
	c-0.8-0.4-1.9-0.5-2.8-0.4c-4.5,0.4-8.7,1.8-12.9,3.2c-0.4,0.2-0.8,0.5-1.4,0.8c0.2,1.1,0.3,2.2,0.7,3.2c2,5.4,4.1,10.8,6.1,16.2
	c0.5,1.3,1.2,1.8,2.5,2c7.9,1.3,15.8,2.6,23.6,4c5.5,1,11.1,1.7,16.4,3.6c3.5,1.2,7.1,2.2,10.6,3.2c0.7,0.2,1.3,0.4,2.4,0.7
	c-6.8-0.5-13.2-0.8-19.6-1.4c-9.7-0.9-19.4-2-29-3C535.4,462.4,534.1,462.3,532.5,462.2z M433.8,189.3c0.2,0.6,0.5,1.5,0.6,1.4
	c1.8-0.4,2.5,1.5,4,1.8c2,0.5,2.2,1.8,0.7,3.3c-0.6,0.6-1.3,1.3-1.5,2.1c-0.6,2.2-1.1,3-3.3,3.2c-1,0.1-2,0.2-2.9,0.1
	c-2.4-0.1-5.8,2.8-5.5,5.1c0.2,1.6-0.6,1.8-1.6,1.9c-0.2,1.1,0,2.1-0.5,2.8c-1.3,1.9-0.3,3.1,0.9,4.3c0.7,0.7,1.5,1.3,2.3,1.9
	c5.5,3.7,10.9,7.4,16.4,11c7.8,5.2,15.7,10.4,23.5,15.5c0.7,0.5,1.7,1.1,2.4,1c2.4-0.3,4.8-0.8,6.6-2.5c1.3-1.2,2.6-2.5,3.7-4
	c6.1-8.2,11.3-16.8,15.9-25.9c0.4-0.9,0.7-2.1,0.5-3.1c-1.3-8.4-4.2-16.2-9-23.3c-1.2-1.8-2.5-3.2-4.9-3c-0.6,0.1-1.3-0.2-1.9-0.3
	c-2.7-0.5-5.5-1.4-8.2-1.5c-5.6-0.2-11.1,0.1-16.7,0.3c-0.5,0-0.9,0.3-1.4,0.4c-0.8,0.2-1.6,0.4-2.4,0.4c-3,0.3-6.1,0.2-9,0.8
	c-3.4,0.7-6.8,0.9-10.2,1.4c-1.4,0.2-2.4,0.8-3.2,1.9C430.7,189.3,431.8,189.9,433.8,189.3z M508.1,319.9c-0.3,1.3-0.6,2.3-0.7,3.2
	c-0.2,2.8-1.2,5.2-2.3,7.7c-1.2,2.7-2,5.5-2.8,8.4c-0.4,1.3,0,2.8-0.4,4.2c-0.8,3-0.6,6-0.1,9c0.2,1.1,0.6,2,1.4,2.7
	c1.8,1.7,4.1,3,5.5,5.2c0.7,1.1,1.1,1.7,0.3,2.9c-0.8,1.2-0.4,1.8,0.9,2.4c1.4,0.6,2.8,1.1,4,1.9c2,1.2,2,4.2,0.1,5.5
	c-0.7,0.5-1.5,1.1-1.9,1.8c-0.8,1.3-1.4,2.7-2.3,4.3c1.1,0.7,2.3,1.4,3.6,2.2c-1.9,1.7-1.9,1.6-3.8,1.8c-2.4,0.2-4.8,0.3-7.1,0.7
	c-5.2,0.9-9.4,3.8-13.6,6.8c-0.4,0.3-0.6,0.9-1.1,1.5c1.3,0.9,2.3,1.9,3.5,2.5c5.8,2.5,11.2,5.7,16.4,9.1c3.1,2.1,6.4,2.4,9.8,2.6
	c2.5,0.2,4.6-0.7,6.5-2.5c2-1.8,4.1-3.5,6.2-5.3c1.3-1.2,3-2.1,3.5-4c0.1-0.3,0.5-0.7,0.9-0.8c2.7-0.9,4.5-3.1,6.7-4.6
	c3.3-2.2,5.1-5.4,6.1-9.2c0.4-1.6,0.2-3.1,0.1-4.7c-0.1-2.1-0.5-4.1-1.2-6c-1.8-5.1-3.6-10.3-5.6-15.3c-2.3-5.7-4.9-11.4-7.3-17
	c-2.8-6.3-5.6-12.7-8.4-19c-0.2-0.4-0.4-0.7-0.8-1.2C518.8,317.8,513.4,318.8,508.1,319.9z M183.5,264.9c-0.3,0.6-0.5,0.9-0.6,1.2
	c-0.7,6.6-1.4,13.1-2.1,19.7c-0.1,1.3,0.4,2.1,1.3,3c2.5,2.3,4.9,4.7,7.2,7.2c1.1,1.2,2,2.5,2.6,4.6c-0.9-0.6-1.4-0.8-1.8-1.2
	c-2.3-1.8-4.5-3.6-6.8-5.3c-0.3-0.2-0.5-0.4-0.8-0.6c-1.7-1.2-2.3-1-2.6,1c-0.1,0.3,0,0.7-0.1,1c-0.8,4.6-1.7,9.2-2.6,13.9
	c-0.8,4-1.6,7.9-2.4,11.9c-0.1,0.5-0.3,1-0.4,1.5c-0.4-0.8-0.5-1.5-0.5-2.2c0.3-9.3,0.4-18.6,1.6-27.9c0.2-1.5-0.1-3.1-0.4-4.6
	c-0.4-1.6-1.2-2-2.9-1.8c-0.3,0-0.6,0.1-1,0.1c-1.5-1.9-2.7-4-2.3-6.3c0.2-1.6,0-2.7-0.9-3.9c-1.2-1.6-2.5-3-3.8-4.5s-3-1.7-5-1.5
	c-3.6,0.4-6.5,2.3-9.3,4.3c-1.4,1-2.9,2.1-1.8,4.2c0.1,0.2,0.1,0.5,0,0.7c-0.8,2.9,0.2,5.6,0.3,8.5c0.1,2.2,0.7,4.1,1.7,6.1
	s1.4,4.3,2.2,6.4c0.5,1.2,1.6,2.1,2,3.3c0.5,1.7,1.3,3.3,2.1,4.9c2.1,4.1,4,8.3,6.5,12.1c1,1.4,1,3.5,2.6,4.6
	c0.3,0.2,0.3,0.8,0.4,1.1c1.3,3.9,2.6,7.8,4.1,11.6c0.7,1.9,1.8,3.7,2.5,5.6s2,2.9,3.8,3.4c1.3,0.4,2.6,0.6,3.8,0.9
	c3.3,1,6.6,0.9,10,0.4c2.7-0.5,5.2-2,8.1-1.5c0.5,0.1,1.1-0.4,1.5-0.7c2-1.3,3.1-3.2,3.3-5.5s0.5-4.6,0.3-6.9
	c-0.5-9.1-1.1-18.3-1.9-27.4c-0.7-7.4-2.5-14.6-6.1-21.3c-3.4-6.1-6.9-12.2-10.4-18.3C184.6,266.1,184.1,265.6,183.5,264.9z
	 M632.1,97.7c0.2,0,0.4,0,0.6,0c0.2,0.8,0.4,1.7,0.7,2.5c0.2,0.9,0.4,1.7,1.3,2.2c3.7,2,7.4,4,11,6.1c2.4,1.4,5,2,7.6,2.6
	c1.7,0.4,3.6,0.6,5.4,0.6c1.6,0,3.4-0.1,4.8-0.8c2.4-1.1,4.5-2.7,6.7-4.1c2.5-1.7,4.3-3.9,5.5-7.1c-1.2-0.9-2.4-2-3.8-2.9
	c-3.5-2.2-7-4.3-10.6-6.4c-4-2.4-7.5-5.5-11.5-8.7c9.4,3.6,18.4,7.1,27.2,10.4c1-1.4,1.8-2.5,2.6-3.6c0.2-0.3,0.4-0.6,0.4-0.9
	c0.4-4.2,0.2-8.3-0.9-12.4c-0.2-1-0.6-1.8-0.4-2.8c0.3-1.6,0.6-3.3,0.9-4.9c0.1-0.4,0-0.9-0.1-1.3c-0.1-0.6-0.3-1.2-0.1-1.7
	c0.3-1.2-0.1-2-0.7-3c-1-1.4-0.9-1.6,0.7-2.8c-2.5-1.2-4.8-1.5-7.2,0.4c-1.1,0.9-2.4,1.4-3.9,0.4c-0.2-0.1-0.6,0-0.9,0
	c-0.7,0-1.5,0.1-2.2,0.1c-1.8,0-2.1-0.8-1.2-2.3c0.3-0.5,0.6-0.9,1-1.5c-0.6-0.1-0.9-0.2-1.2-0.2c-7.9-0.9-15.8-0.5-23.7-0.2
	c-1.6,0.1-3.1,0.3-4.1,1.8c-0.4,0.5-1.1,0.8-1.6,1.1c-1.9,1-3.8,2-5.7,2.9c-1.3,0.5-2.6,0.9-4,1c-3.1,0.2-5.9,1.4-9.3,2.5
	c1.4,0.7,2.4,1.2,3.4,1.7c-1.3,0.2-2.5,0.1-3.6,0.1c-0.8,0.1-1.8,0.3-2.2,0.8c-1,1.4-2.1,2.7-2.2,4.6c-0.1,1.9-0.7,3.7-1,5.6
	c-0.2,1.5-0.6,3-0.2,4.4c0.5,1.8,1.7,3.4,2.6,5c1.4-0.2,2.8-0.8,4-0.6c2.1,0.3,4.1,0,6.1-0.4c3.7-0.8,6.4-3.2,8.8-5.9
	c0.2-0.2,0.4-0.6,0.4-0.9c0.3-1.3,0.6-2.5,0.9-3.8c0.3-1.6,0.5-3.3,1-4.8c1.1-3.4,3.5-4.6,7-4.1c3.3,0.5,6.5,0.8,9.6-1
	c0.5-0.3,1.1-0.3,1.6-0.6c1.2-0.5,2.4-1,3.5-1.6c1.2-0.7,2.4-1.1,4.1-1.2c-0.4,1.6-1.6,2-2.7,2.6c-3.8,2.2-7.6,4.3-10.4,7.8
	c-0.4,0.4-0.8,0.8-1.3,1.2c-2.1,1.8-4.2,3.7-6.3,5.5c-0.8,0.7-1.6,1.4-2.5,2c-1.8,1-3.6,2-5.2,2.8c-0.3,2.1-0.5,4-0.8,5.9
	c-0.4,2.2-0.8,4.3-1.2,6.5c-0.2,1.3,0,2.5,1.4,3.1c0.2,0.1,0.5,0,0.8,0C631.3,98.7,631.7,98.2,632.1,97.7z M633.9,120.7
	c-0.5,2.6-1.3,5-1.5,7.4c-0.2,2.5,0,5.1,0.3,7.6c0.9,8.4,1.5,16.9,3.2,25.2c2.1,10.5,4.5,20.9,9.8,30.4c1.6,2.9,2.9,6,5.6,8.1
	c1.7,1.3,2.8,2.9,3.5,4.9c1,3,2.8,5.3,5.3,7.2c3.6,2.7,7.5-0.4,8.3-3.3c0.4-1.4-0.1-2.4-1.5-3c-0.5-0.2-1.2-0.2-1.7-0.5
	c-0.4-0.3-1.1-0.9-1-1.2c0.4-1.6,0.1-3.5,1.9-4.6c0.7-0.4,1.2-1.3,1.6-2.1c0.6-1,0.9-2.1,1.5-3c1.3-1.8,2-3.7,1.9-5.9
	c-0.1-3,0-6.1,0-9.1c0-0.4-0.1-0.8-0.3-1.2c-1-1.4-0.6-2.9,0.4-3.9c1.6-1.6,1.7-3.7,2-5.7c0.5-3.4,1-6.8,1.2-10.3
	c0.1-1.9,0.7-3.9-0.4-6c-1.9-3.6-4.3-6.8-7.2-9.6c-2-1.9-4.4-3.3-6.7-4.9c-2.9-2-5.9-3.9-8.9-5.8c-3.5-2.2-7.2-4.3-10.7-6.5
	C638.5,124,636.4,122.5,633.9,120.7z M409.7,444.4c-0.4,0.6-0.9,1.1-1.2,1.7c-2.9,5-5.9,9.9-8.8,14.9c-4.4,7.5-8.6,15-13,22.4
	c-6.3,10.6-12.6,21.1-18.9,31.6c-0.5,0.8-0.9,1.6-1.3,2.4c-0.4,0.7-0.2,1.4,0.5,1.7c2.2,1,4.2,2.7,6.9,1.7c1-0.4,2.1-0.6,3.1-1
	c6.4-2.4,12.5-5.5,18.5-8.9c9.8-5.5,18.1-12.9,26.2-20.6c1.7-1.6,3.7-3.1,3.9-5.9c0.1-1.5,0.8-3,1.3-4.5c0.7-2.4,1.4-4.8,2.2-7.2
	c0.5-1.6,0.8-3.2-0.3-4.7c-0.9-1.4-1.7-2.8-2.7-4.1c-5.1-6.3-10.2-12.5-15.4-18.7C410.4,445,410.1,444.8,409.7,444.4z M11.9,345.7
	c-0.3,2.8-1,5.5-0.7,8.3c0.2,1.6,0.3,3.3,0.1,4.9c-0.4,4-0.8,8,0.4,12c0.1,0.4,0.2,0.8,0.3,1.2c0.6,3.2,1.2,6.4,1.8,9.7
	c0.4,2.2,1.5,3.8,4,4c0.5,0,0.9,0.4,1.4,0.6c2.6,0.9,5.2,2.1,7.9,2.6c3.3,0.7,6.5,1.6,9.6,3.1c2.6,1.2,5.3,2.3,8.1,3.1
	c1.8,0.5,3.7,0.5,5.6,0.6c2.5,0.1,5.1-0.1,7.6,0c2.8,0.1,5.6,0.1,8-1.7c1.2-0.9,2.5-1.3,3.9-1.2c2.9,0.2,5.7,0.7,8.6,0.8
	c1.6,0.1,3.4,0.1,4.8-0.4c3.4-1.2,6.6-2.8,10-4.2c1.4-0.6,2.5-1.4,3.5-2.4c-0.3-2.4-1.2-4.4-3-5.9c-0.9-0.7-2.1-1.4-3.2-1.5
	c-3.4-0.3-6.6,1.1-9.1,3.1s-5.3,3.5-8,5.1c-1.4,0.9-4.7-0.4-4.9-2c-0.2-1.9-1.5-3-1.9-4.6c-1-0.5-2.3,1-2.7-0.1
	c0.6-2.4,1.1-4.4,1.6-6.3c0.1-0.2,0-0.6-0.1-0.7c-1.1-1.1-0.7-2.6-0.9-3.9c-0.1-0.7-0.2-1.5-0.5-2.1c-0.8-1.6-1.1-3.2-0.4-5.1
	c-1.7-0.1-3.3-0.4-4.7-0.1c-3.1,0.6-6.1,0.7-9.2,0.4c-0.6-0.1-1.2-0.1-1.7,0c-1.1,0.2-2.1,0-3-0.8c-0.4-0.3-0.8-0.7-1.2-0.7
	c-2.8-0.2-5-1.9-7.4-3.2c-0.5-0.3-1.1-0.4-1.6-0.7c-2.4-1.2-5-2.2-6.8-4.3c-0.9-1-2-1.5-3.4-1.7c-1.8-0.3-3.8-0.6-5-1.6
	c-2-1.8-4.7-2.2-6.6-3.9C12.7,345.6,12.5,345.7,11.9,345.7z M495.4,422.3c0.2,0.1,0.4,0.2,0.6,0.3c-0.6,2.5-1.2,4.9-1.7,7.4
	c-0.1,0.7-0.1,1.7,0.3,2c0.5,0.4,1.5,0.4,2.2,0.2c2-0.5,3.4-1.8,4.2-3.8c0.6-1.4,1.2-2.9,2-4.2c2.4-4.1,2.6-8.6,2.1-13.2
	c-0.2-1.9-0.9-3.6-2.4-4.7c-5-3.8-9.9-7.6-15-11.3c-2-1.5-4.1-1.1-5.8,0.7c-1.2,1.3-2.3,2.6-3.3,4c-2.1,3.3-3.9,6.8-6.3,10
	c-2.6,3.4-5,6.9-7.5,10.4c-0.6,0.9-1.2,1.8-1.8,2.7c-1.2,2-2.2,4.1-3.5,5.9c-1.9,2.5-3.9,4.9-4.9,7.9c-0.4,1.2-1,2.4-1.6,3.6
	c-1.6,3-3.4,6-5,9c-2.1,4.1-3.5,8.5-6,12.4c-0.6,0.9,0,1.3,1,1.6c0.9-1.8,1.6-3.6,2.6-5.3c1-1.8,2.3-3.4,3.5-5
	c1.2-1.5,2.5-3,3.7-4.4c0.2,0.1,0.3,0.1,0.5,0.2c-1.4,5.4-2.9,10.7-4.3,16.2c0.6,0.8,1.3,0.5,2.1,0c0.8-0.6,1.6-1.1,2.4-1.7
	c5.6-4.2,11.2-8.4,16.8-12.6c4-3,8.1-5.9,11.4-9.8c0.5-0.6,1.2-0.9,1.7-1.5c1.2-1.3,2.5-2.6,3.5-4.1c0.9-1.2,1.4-2.6,2.1-3.9
	C491,428,492.7,424.8,495.4,422.3z M606.9,362.9c0.2,0.1,0.3,0.3,0.5,0.4c2.8-1,5.6-2,8.3-3c7.6-2.9,15.2-5.8,22.8-8.8
	c1.2-0.5,2.4-1.2,3.3-2.1c1-1.2,2.1-2,3.4-2.8c1.2-0.7,2.4-1.5,3.5-2.4c4-3.3,8.1-6.6,12-9.9c3.9-3.4,7.8-6.9,11.6-10.4
	c1.2-1.1,2-2.3,1.5-4.1c-0.2-0.6-0.1-1.4,0.2-1.9c0.9-1.7,1.9-3.4,2.9-5.2c-0.2-0.5-0.6-1.2-0.9-1.8c-0.9-1.9-2-3.8-2.7-5.8
	c-0.8-2.5-0.9-2.8-3.9-2.1c-0.6,0.1-1.1,0.3-1.7,0.5c-5.5,1.9-10.8,4.3-15.4,7.8c-8.7,6.6-17.2,13.3-25.7,20.2c-2.5,2-4.7,4.4-6.6,7
	c-5.2,6.9-9,14.6-12.5,22.4C607.4,361.3,607.2,362.1,606.9,362.9z M776.4,384.5c-0.7-0.3-1-0.5-1.4-0.6c-5.2-1.3-10.3-2.6-15.5-3.7
	c-2.8-0.6-5.5-1.5-7.9-3.2c-0.5-0.3-1-0.6-1.5-0.9c-2.8-1.5-5.6-2.9-8.5-4.4c-0.7-0.4-1.5-0.7-2.3-0.8c-3.2-0.4-6.5-0.9-9.8-0.9
	c-1.9,0-3.5,0.4-5.3,0.9c-2.1,0.6-3.2,2.3-4.4,3.8c-0.9,1.1-1.5,2.4-2.3,3.7c-0.7,1.2-1.2,2.5-2.1,3.5c-2.6,3-5.4,5.7-8,8.7
	c-0.9,1-1.3,2.3-2.2,3.2c-1.8,1.7-2.4,4-3.4,6.4c1.4,0.5,2.6,1,3.8,1.4c11,3.2,22.2,4.6,33.7,3.7c3-0.2,5.6-1.1,8.1-2.7
	c2.8-1.8,5.5-3.7,8.2-5.5c5.8-4,11.5-8,17.9-10.9C774.4,385.6,775.2,385.1,776.4,384.5z M168.9,207.4c0.1,0,0.2-0.1,0.3-0.1
	c0.1,0.3,0.3,0.5,0.4,0.8c1.1,3.5,2.2,7.1,3.2,10.6c0.6,2,0.8,4,2.1,5.8c0.4,0.6,0.6,1.4,0.7,2.1c0.3,2.3,0.8,4.4,2.3,6.3
	c1.2,1.5,1.5,3.7,2.6,5.2c1.8,2.6,3,5.4,3.7,8.5c0.1,0.7,0.6,1.4,1.1,2.4c3.9-2.8,7.5-5.4,11-8.1c0.4-0.3,0.5-1.3,0.5-2
	c-0.9-7.5-2-15-4.8-22.1c-3.7-9.3-7.4-18.5-11.2-27.7c-1.6-4-2.4-4.6-6.5-3.4c-5.4,1.5-10.7,2.7-16.3,2.4c-0.2,0-0.3,0-0.5,0
	c-1.2,0.2-3.3,2.6-3.2,3.7c0.2,1.7,0.3,3.4,1.2,5c4.2,6.8,8.3,13.7,12.4,20.5c0.3,0.5,0.8,0.9,1.1,1.4c0.2-0.1,0.4-0.1,0.5-0.2
	C169.4,214.9,169.1,211.2,168.9,207.4z M492.5,311.7c-0.1-1.7-0.2-3.2-0.2-4.6c0-3.3,1-6.2,3.3-8.5c1-1.1,2.3-1.9,3.3-3
	c2.3-2.4,4.9-4.6,5.3-8.3c0.3-2.5,0.5-4.7-1.8-6.5c-1.5-1.2-2.8-2.6-4.3-3.8c-5.1-4.1-10.2-8.2-14-13.6c-0.1-0.2-0.4-0.2-0.8-0.4
	c-0.6,1.6-1.2,3.1-1.6,4.7c-1.9,8-3.6,16.1-5.5,24.1c-1,4-1.3,7.9,0.6,11.8c0.6,1.3,1.3,2.3,2.3,3.4c0.9,1,0.9,2.8,2.3,3.5
	c1.3,0.7,2.7,1.3,4.1,1.5C487.9,312.5,490.3,312.6,492.5,311.7z M524.7,233.7c-0.2-0.1-0.4-0.2-0.5-0.2c0.6-2.5,1.2-4.9,1.8-7.4
	c0.3-1.4,0.6-2.7,0.7-4.1c0.1-1.9-0.3-2.3-2.2-2.5c-4.6-0.4-9.3-0.1-13.7,1.1c-2.7,0.8-4.3,2.3-3.8,5.1c0.4,2.4,0.4,4.9,0.8,7.4
	c1.2,8,2.3,16,3.7,23.9c0.9,5.1,2,10.2,3.1,15.2c0.2,0.8,0.6,1.6,1,2.7c0.4-0.5,0.6-0.7,0.6-0.9c1.5-3.7,2.8-7.5,4.4-11.2
	c1.9-4.3,3.5-8.7,3.4-13.5c0-0.5,0.1-1,0.2-1.5c0.5-3.5,1.1-7,1.6-10.4c0.2-1.6,0.2-3.2,0.3-5.1
	C525.5,232.8,525.1,233.3,524.7,233.7z M394.9,194.3c0.2-0.3,0.3-0.5,0.4-0.7c1.2-2.4,0.6-3.4-2-3.8c-2.3-0.3-4.5-1-6.7-1.4
	c-2-0.4-3.8-2-6.1-1.1c-0.5,0.2-1.3-0.5-2-0.8c-1.7-0.8-3.3-1.8-5-2.5c-2.2-0.9-4.5-1.6-6.7-2.5c-2.6-1-4-0.4-4.9,2.3
	c-0.2,0.6-0.3,1.4-0.7,1.8c-1.5,1.5-1.3,3.3-1,5.1c0.2,0.9,0.7,1.8,0.6,2.6c-0.5,4.1-0.5,8.5-3.7,12c8.4,2.2,16.8,3.4,25.3,3.9
	c0-2.1,0-3.9,0-5.7c-0.1-1.9,0.6-3.2,2.4-3.9c1.1-0.4,2.4-0.5,3.6-0.7s2.1,0.2,2.6,1.3c0.6,1.3,1.4,2.5,2.2,4
	c0.9-1.3,1.6-2.4,2.4-3.7c-0.6-1.5-0.7-3.2,0.5-4.8C395.6,195.2,395.3,194.7,394.9,194.3z M532,145.9c-0.4,0.6-0.6,1-0.9,1.5
	c-3,5.5-5.7,11.1-7.6,17.1c-2.3,7-4.6,14.1-6.8,21.1c-0.2,0.5-0.2,1-0.3,1.8c0.8-0.2,1.4-0.3,1.9-0.4c3.9-0.8,7.7-1.6,11.6-2.3
	c2.8-0.5,5.7-0.8,8.6-1.1c1-0.1,1.7-0.4,2-1.5c1.1-4.1,2-8.2,1.5-12.4c-0.7-5.7-2.1-11.3-3.7-16.8
	C537.3,149.4,535.1,147.5,532,145.9z M610.2,368.8c0,0.2,0,0.4-0.1,0.6c0.8,0.3,1.5,0.6,2.3,0.8c2.6,0.8,5.2,1.5,7.8,2.3
	c9.7,3.1,19.3,6.2,29,9.3c0.9,0.3,1.7,0.6,2.6,0.7c1.2,0.2,1.8-0.3,1.6-1.5c-0.3-1.3-0.5-2.9-1.3-3.6c-1.3-1.2-1-2.4-1.1-3.7
	c-0.2-2.6,1.7-4.8,1.1-7.5c-0.1-0.3,0.5-0.8,0.8-1.2c0.4-0.5,0.9-1,1.1-1.6c0.6-1.4,0.1-2.9-1.2-3.2c-3.4-0.8-6.7-1.6-10.1-2.3
	c-0.9-0.2-2-0.2-2.9,0c-2.2,0.5-4.5,1.1-6.6,1.9c-6.9,2.6-13.8,5.4-20.7,8.1C611.6,368.1,610.9,368.4,610.2,368.8z M223.5,395.9
	c-0.2-0.6-0.3-1-0.5-1.3c-5.4-11.1-11.7-21.5-19.5-31.1c-0.4-0.4-0.8-0.9-1.3-1.1c-5.5-2.8-11.2-5.1-17.3-6.6
	c-1.9-0.5-3.7,0.2-5.3,1.1c0.1,0.4,0.1,0.6,0.2,0.8c2.2,3.5,4.3,7.2,7.3,10.2c1.1,1.1,1.9,2.6,3.2,3.3c1.8,1,3,2.4,4,4.2
	c0.5,0.9,1.1,1.8,1.9,2.5c1.9,1.8,3.4,3.9,5.7,5.3c0.5,0.3,0.9,0.9,1.3,1.5c1.5,2,2.4,4.6,5.4,4.8c0.3,0,0.5,0.6,0.9,0.8
	c1.6,1.2,3.2,2.3,5.3,2c0.4-0.1,0.9,0,1.2,0.2c1.9,1.6,4.4,1.7,6.4,3C222.5,395.7,222.9,395.7,223.5,395.9z M677.4,250.1
	c-0.2,0.6-0.3,0.9-0.5,1.2c-2,4-4.6,7.8-6,12.2c-0.5,1.6-0.6,3.2,0.1,4.8c1.5,3.3,2.8,6.7,4.3,10c0.7,1.5,1.5,2.9,2.3,4.3
	c1.1,2.1,2.2,4.1,0.8,6.5c-0.3,0.5-0.3,1.2-0.5,2.3c1.6-0.5,2.8-0.8,4.1-1.2c-1.1,1.7-3.8,1.5-4.2,4c1.1,0.5,2.3,0.8,3,1.5
	c1.1,1.2,2.5,1.6,3.9,2c2,0.6,2.9,0,3.5-1.9c0.5-1.5,1-2.9,1.5-4.4c0.4-1.2,0.8-2.5,1.1-3.8c0.6-2.8,1.2-5.6,1.8-8.4
	c0.1-0.5,0.2-1.1,0.1-1.7c-0.7-2.8-1.5-5.7-2.4-8.5c-0.2-0.8-0.7-1.5-1.1-2.2c-0.7-1.2-1.5-2.4-2.2-3.6c-1.1-1.7-2.1-3.5-3.6-5
	c-1.4-1.3-2.5-3-3.7-4.6C679,252.7,678.4,251.6,677.4,250.1z M614.3,46.6c0.5-2.3,2.1-2.8,3.9-3.1c1.4-0.3,2.7-0.5,4.1-0.9
	c0.6-0.2,1.1-0.6,1.5-1.1c1.8-2.3,3.3-2.9,6-1.9c2.6,0.9,5.1,1.1,7.5-0.2c2.2-1.2,4.5-2.4,6.5-3.9c1.7-1.4,2.8-3.4,4.4-4.9
	c1.3-1.2,1.7-2.8,2.3-4.3c0.6-1.6-0.6-3.2-2.4-3.3c-5.3-0.2-10.6-1-15.9,0.6c-1.6,0.5-3.2,1.1-4.8,1.9c-1.6,0.7-3,1.7-4.5,2.5
	c-1.7,1-3.6,1.9-4.2,3.9c-0.5,1.7-1.8,2.3-3.3,3c-3.5,1.6-6.9,3.4-10.3,5.2c-1.5,0.8-1.5,2.3-0.3,3.6c1.1,1.1,2.1,2.2,3.4,3.5
	C610,46.9,612,46.8,614.3,46.6z M343.2,115.7c-1.1,0.1-2.4,1.8-2.1,2.8s0.6,1.9,0.9,2.9c1,3.5,2.2,6.9,2.9,10.4
	c0.5,2.6,2.1,4.6,3.3,6.8c1.3,2.2,2.5,4.4,2.7,7c0,0.5,0.1,1,0.3,1.4c1.1,2.9,2.3,5.7,2.6,8.9c0.1,0.6,0.3,1.1,0.5,1.6
	c1.7,4,3.7,7.9,6.3,11.4c1.8,2.5,3.2,5.3,6.6,6.2c1.6,0.4,2.7,0.2,3.8-0.8c1.7-1.5,2.3-4.2,1.2-5.5c-1.2-1.4-2.3-3-3.7-4.2
	c-1.8-1.4-2.5-3.2-2.8-5.3c-0.2-1.4-0.7-2.5-2.2-3c-0.9-0.3-1.2-1-1.3-1.9c-0.2-0.9-0.6-1.8-0.9-2.7c-0.6-1.5-1.2-3-1.7-4.6
	c-0.8-2.5-1.3-5.1-2.1-7.6c-0.8-2.5-2-4.9-2.6-7.4c-1.1-4.5-3.3-8.4-5.5-12.3C347.8,117.4,345.3,116.8,343.2,115.7z M515.7,190.1
	c-2.1,6.4-1.5,12.3,1.5,18.1c0.7,1.4,1.6,2.3,3.1,2.5c2.1,0.4,4.2,0.8,6.3,1c2.8,0.3,2.9,0.2,4-2.5c2.3-6.2,4.6-12.3,6.9-18.5
	c0.2-0.5,0.2-1.1,0.4-1.9C530.4,189.2,523.1,189.7,515.7,190.1z M133.3,366.6c2.2,1.2,3.8,2.3,5.6,3.1c2.6,1.3,5.3,2.3,7.8,3.6
	c3.1,1.6,6.1,3.5,9.9,2.8c0.6-0.1,1.3,0.2,1.9,0.3c1.3,0.3,2.6,0.6,3.8,1c2.2,0.6,6-1.2,6-3.3c0-2.2-0.1-4.4-0.2-6.6
	c0-0.1-0.2-0.3-0.2-0.4c-0.9-1.8-1.7-3.5-2.6-5.3c-1.1-2.1-1.1-2.2-3.4-1.8c-8.6,1.8-17.2,3.7-25.8,5.6
	C135.3,365.7,134.5,366.1,133.3,366.6z M609.5,18.7c2.5-0.4,4.5-1.4,6.2-2.8c0.3-0.2,0.5-0.4,0.8-0.5c1-0.4,1.9-0.3,2.8,0.3
	c0.9,0.6,0.7,1.4,0.5,2.2c-0.1,0.5-0.2,1-0.3,1.4c-0.2,1.1,0.4,1.8,1.4,1.9c2.1,0.1,4.3,0.1,6.1-1.3c1.9-1.6,4-2.9,6.4-3.6
	c0.6-0.2,1.2-0.6,1.8-0.9c1.5-0.8,3-1.6,4.5-2.3c1.1-0.5,1.9-1.2,1.9-2.3c-0.1-1.1,0.2-1.9,0.7-2.8c0.5-0.9,0.2-1.6-0.4-2.4
	c-1.5-1.8-3.6-2.3-5.7-2.4c-5.4,0-10.4,1.5-15.1,3.9c-2.9,1.5-5.5,3.5-8.3,5.3c-0.3,0.2-0.5,0.4-0.9,0.5c-2,0.4-3.2,1.8-4.3,3.5
	C608.3,17.2,608.9,17.9,609.5,18.7z M518.9,145c-1,0.4-1.2,1.3-1.7,2.2c-0.9,1.6-1.9,3.3-3.1,4.7c-2,2.3-4.3,4.2-5.6,7.1
	c-0.6,1.2-1.7,2.2-2.6,3.3c-0.4,0.5-0.8,1.1-0.9,1.7c-0.5,2.2-1.2,4.3-1.3,6.5c-0.1,2.9-1.2,4.8-4.1,5.7c-1.7,0.6-2.5,2.3-3.3,3.8
	c-0.5,0.9-0.7,1.9-1.2,3c0.7,1.7,2,3.2,3.7,4.2c2.2,1.3,4.3,0.4,4.9-2.1c0.3-1.1,0.6-2.2,0.9-3.3c0.8-2.7,1.6-5.3,2.4-8
	c0.2-0.6,0.4-1.2,0.7-1.8c0.2,0,0.4,0.1,0.6,0.1c0,2,0,3.9,0,5.9c1.6-3,2.7-6.1,3.9-9.2c2.5-6.7,5-13.4,7.6-20.1
	C520.3,147.1,520.1,146,518.9,145z M484.4,260.7c3.1,2.2,5.9,4.2,8.8,6.1c3.1,2.1,6.3,4.3,9.5,6.2c2.8,1.6,2.9,0.3,3.5-2
	c0.1-0.5-0.1-1.1-0.2-1.7c-0.9-4-1.9-8-3.7-11.8c-0.7-1.4-1.4-2.6-2.8-3.4c-3.1-1.7-6.2-3.4-9.5-5.2
	C487.9,252.8,485.9,256.6,484.4,260.7z M258.6,381.5c0.1,0.1,0.2,0.2,0.4,0.4c-0.1,0.4-0.2,0.8-0.3,1.1c-1,3-2.8,5.6-4.9,7.9
	c-1.1,1.2-1.7,2.6-1,4.4c0.3,0.8,0.2,1.6,1.1,2.4c0.7,0.6,0.6,2.2,0.9,3.4c1.3,0.1,2.5,0.3,3.3,0.3c1.2-0.6,2.1-1.1,2.9-1.5
	c0.7-0.4,1.5-0.7,2-1.3c0.8-1,1.8-1.6,3-2.1c1.7-0.7,2.2-1.7,1.7-3.3c-1-3.1-2.2-6.2-3.5-9.2c-1.1-2.6-3.2-4.2-6.1-4.9
	c-2.4-0.5-5.3,0.3-6.6,2.5c-0.5,0.8-0.5,1.8-0.9,3.1C253.6,383.9,256.4,383.6,258.6,381.5z M197.2,245.7c-0.7,0.5-1.3,0.8-1.8,1.2
	c-1.2,0.9-2.7,1.7-2.1,3.7c0.1,0.4-0.4,1.1-0.8,1.3c-0.6,0.3-1.4,0.3-2.1,0.4c-2.6,0.2-4.2,3-2.9,5.2c3.9,6.6,8,13.1,12,19.6
	c0.3,0.5,0.8,0.9,1.3,1.5C201.2,276.3,198.2,248.8,197.2,245.7z M655.9,3.3c0.4,1,0.7,1.7,1.1,2.5c-1.2,0.3-2.1,0.4-2.9,0.7
	c-1.6,0.6-1.8,0.9-1.5,2.6s2,2.8,3.9,2.4c0.8-0.2,1.7-0.6,2.4-0.4c2.6,0.6,4.9-0.4,7.2-0.9c2.6-0.5,5.2-1.2,7.9-1.4
	c2-0.1,4-2.5,3.4-4.3c-0.3-0.9-1-1.7-1.6-2.4c-1-1.2-2.8-1.5-4-1.1c-1.6,0.6-2,1.7-1.9,3.3c0,1.5-0.8,2-2.2,1.4
	c-0.8-0.4-1.5-1-2.4-1.3c-4.5-1.4-8.8-3-13.6-2.8c-3.2,0.1-4.8,1.1-5.3,4.3C649,7.5,652.1,6.7,655.9,3.3z M536,210.1
	c1-0.2,1.3-0.1,1.6-0.3c2.1-0.9,4.1-1.9,6.1,0.1c0.2,0.2,0.5,0.2,0.7,0.2c1.6,0.4,2.2,0.2,2.9-1.4c0.6-1.6,1.2-3.2,1.7-4.9
	c0.1-0.4,0.2-0.9,0-1.2c-1-2.1,0.1-3.7,1.4-5.1c-1.5-3.8-3.9-6.2-7.2-6.9C540.8,196.9,538.4,203.2,536,210.1z M298.5,493.1
	c-0.4-0.5-0.5-0.8-0.8-0.9c-2-1.4-4-2.8-6.2-4c-1.8-1-3.8-1.9-5.8-2.6c-1.5-0.5-1.9,0.2-2.2,1.8c-0.3,1.8,0.4,3.2,1.5,4.4
	c0.8,0.9,1.6,1.9,2.4,2.8c1.4,1.6,2.8,3.2,4.3,4.7c1.3,1.3,2.2,1.2,3.1-0.3C296.2,497,297.3,495,298.5,493.1z M593.1,329.5
	c-1.6,2.4-2.5,12.1-1.6,16.3c3.8-2.7,7.5-5.4,11.1-8.1c0.9-0.7,0.8-2-0.3-2.7C599.3,333.1,596.2,331.3,593.1,329.5z M389.3,166.7
	c-2.7-0.3-4.8-0.5-7-0.8c-0.2,0-0.3-0.1-0.5-0.2c-3.1-1.7-6-3.6-6.8-7.3c-1.5,0.1-2.9,0.3-4.4,0.4c-0.6,1.9-0.6,2.1,0.9,3.1
	c1.1,0.7,2.7,1.1,3.3,2c1,1.6,2.5,0.9,3.6,1.6c0.3,0.2,0.8,0.3,1.1,0.5c0.9,0.4,1.2,1.1,0.6,2c-0.2,0.3-0.5,0.6-0.7,0.9
	c0.6,0.4,1.2,0.6,2,1.1c-1.1,0.5-1.8,0.8-2.4,1.2c-0.7,0.4-1.3,0.9-1.9,1.3c2.7,2.6,2.8,2.6,6.5,2c3.2-0.5,5-3.4,4-6.5
	C388,167.7,388.5,167.3,389.3,166.7z M634.6,441.7c0-0.1-0.1-0.2-0.1-0.3c-0.9,0.3-1.8,0.5-2.7,0.8c-2.4,0.9-4.7,1.9-7.1,2.9
	c-2.5,1-5,2-7.6,3.1c-1.2,0.5-2.3,1.1-2.2,2.9c0.1,0.6-0.6,1.3-1,1.9c-1,1.4-0.9,3.1,0.4,4.2c0.6,0.5,1.3,0.9,2.1,1.4
	c0.6-0.8,1.1-1.6,1.6-2.3c0.7-1,1.3-2.3,2.3-2.9c2.5-1.6,4-4.4,6.8-5.6c0.3-0.1,0.5-0.6,0.8-0.9c0.8-0.8,1.5-1.7,2.4-2.4
	C631.7,443.4,633.2,442.6,634.6,441.7z M175.6,281.4c0.5-0.7,0.7-0.8,0.8-1c0.4-3,0.9-6,1.2-9c0-0.4-0.3-0.9-0.7-1.2
	c-2-1.9-2-2-0.2-4.1c1.1-1.3,1.6-2.6,0.9-4.3c-0.3,0-0.6-0.1-0.8,0c-2.6,1.6-5,3.5-6.7,6.1c-0.5,0.7-0.7,1.9-0.4,2.8
	C170.9,274.6,173.3,277.8,175.6,281.4z M581.1,489.9c-0.1-0.2-0.3-0.3-0.4-0.5c-0.7,0.4-1.4,0.6-2,1.1c-3,2.1-6,4.3-9.1,6.4
	c-1.4,1-2.6,2.1-3.2,3.7c-1.1,3.2-1.9,6.4-2.8,9.7c-0.1,0.5,0.1,1,0.2,1.8c0.9-0.6,1.6-1.1,2.2-1.6c0.6-0.5,1.4-1,1.8-1.6
	c0.8-1.3,1.3-2.8,2-4.2c1.8-3.3,3.9-6.5,6.5-9.2C578,493.7,579.5,491.7,581.1,489.9z M397.9,56.4c0-2.2-0.6-2.8-2.1-2.5
	c-0.7,0.1-1.4,0.4-2.1,0.7c-1.7,0.8-3.3,1.9-5.1,2.3c-2.5,0.6-4.7,1.6-6.6,3.4c-0.8,0.7-1.8,1.6-1.2,2.7c0.4,0.6,1.7,0.8,2.5,1.1
	c0.1,0,0.2,0,0.2,0c3.4-0.6,6.8-1.1,9.7-3.2c1.1-0.8,2.3-1.6,3.3-2.5C397.3,57.6,397.7,56.7,397.9,56.4z M376.2,62.6
	c-0.6-0.4-1.2-0.7-1.7-1c-0.3-0.2-0.9-0.5-1-0.3c-0.7,0.6-1.2,0.1-1.8-0.2c-0.4-0.2-0.9-0.3-1.4-0.3c-1.9,0.1-3.7,0.4-5.5,0.5
	c-0.6,0-1.2-0.3-1.8-0.5c-0.5-0.2-0.9-0.5-1.3-0.7c-2.1,1.4-4,2.7-5.9,4c-1.3-0.3-2.6-0.5-4-0.9c0,1.4,0.2,2.5,1.3,2.7
	c2,0.3,4.1,0.4,6.1,0.3c2.6-0.1,5.2-0.7,7.7-0.7c3.3,0.1,6.1-1.3,9-2.6C376.1,62.9,376.1,62.8,376.2,62.6z M612.8,119.7
	c0.3,0.3,0.6,0.8,0.9,1c2.1,1,4.2,2.3,6.5,2.9c1.8,0.4,3.7,0.1,5.6-0.1c0.7-0.1,1.7-0.8,1.8-1.4c0.6-3.5,0.4-5.3-3.6-5.7
	c-2.7-0.3-5.1,0.7-7.7,1.3C615.1,117.9,613.6,118.2,612.8,119.7z M742.2,194.6c0.6,0.5,1.2,1.1,1.8,1.5c0.7,0.5,1.5,1.1,2.3,1.4
	c0.7,0.2,1.6,0.2,2.3,0.1c1.2-0.2,2.4-0.4,3.6-0.7c1.3-0.3,2.8-0.4,3.6-1.8c0.6-1.1,1.4-2.1,2.1-3.2c-1.9-1.9-1.9-1.9-4.4-1.7
	c-2.8,0.3-5.5,0.7-8.3,1C742.6,191.5,742.4,191.7,742.2,194.6z M590.1,364.1c0.6-0.2,0.7-0.2,0.8-0.2c4.6-4.2,7.8-9.6,11-14.8
	c0.2-0.4,0.2-1.2-0.1-1.5s-1.1-0.3-1.5,0c-2.8,1.8-5.5,3.6-8.2,5.5c-0.7,0.5-1.2,1.7-1.3,2.6C590.5,358.3,590.4,361,590.1,364.1z
	 M556,530c2.5-3,2.8-6.3,2-9.7c-0.2-0.7-1.1-1.6-1.8-1.8c-1.7-0.6-3.5-0.8-5.3-1.1c-0.7-0.1-1.4,0.3-2,0.5
	C549,521.5,552.6,527.6,556,530z M521,416.4c-7.3,1.6-15.6,9.2-16.5,14.7C512.4,429.1,516.9,423.4,521,416.4z M667.4,280.6
	c-1.7-0.1-2.3,0.7-2.6,1.9c-0.8,3.3-1.6,6.5-2.4,9.8c-0.2,0.6-0.2,1.3-0.2,1.9c0.1,1.2,0.9,1.6,1.9,1c2.3-1.3,4.4-2.9,5.9-5.1
	c0.5-0.8,0.9-1.6,0.5-2.5C669.5,285.2,668.5,282.9,667.4,280.6z M557.9,28c-4.4,0.1-7.6,2.3-10.8,4.2c-0.5,0.3-0.7,1.1-0.9,1.7
	c-0.3,0.9,0.2,1.5,1.1,1.6c2.2,0.3,4.4-0.8,6.5,0.2c2.4-1,4.9-2,6.2-4.6c0.9-1.8,0.6-2.5-1.3-3C558.2,28.1,557.8,28,557.9,28z
	 M663,349.2c-0.7-0.1-1-0.2-1.3-0.2c-4.5-0.1-8.5,1.8-12.4,3.6c-0.1,0.1-0.3,0.2-0.4,0.3c-1,0.9-1,1.7,0.2,2.2
	c1.3,0.6,2.6,1,3.9,1.4c2,0.6,3.9,0.7,5.3-1.3c0.3-0.4,0.9-0.8,1.4-1.1C661.6,353.1,662.2,351.3,663,349.2z M521.4,453.1
	c-1.3-3.9-2.5-7.4-3.7-10.8c-0.5-1.5-2.1-1.9-3.1-0.8c-1.4,1.5-2.5,3.1-3.9,4.9c1.8,0.7,3,1.5,2.6,3.3c0,0.2,0.3,0.6,0.6,0.7
	C516.1,451.7,518.3,452.9,521.4,453.1z M398.9,65.9c-0.7-0.2-1.3-0.5-1.9-0.6c-1.4-0.1-3,0.1-4.3-0.3c-1.7-0.5-2.9-0.1-4,1.1
	c-0.8,0.9-1.7,1.8-3,2c-0.4,0.1-0.8,0.4-1,0.7c-0.3,0.5-0.9,1.4-0.7,1.7c0.4,0.6,1.2,1.4,1.8,1.4c1.8,0,3.6-0.2,5.3-0.8
	c1.9-0.6,3.6-1.6,5.3-2.4C397.5,68.2,398.5,67.5,398.9,65.9z M568.8,374.3c0.1,0.2,0.3,0.5,0.4,0.7c2.4-0.9,4.7-1.9,7.1-2.6
	c2.7-0.9,4.1-2.6,4-5.5c0-1.5,0.6-3-0.1-4.7C576.2,366.2,572.1,369.9,568.8,374.3z M516.6,301.7c-2.2,3.1-3.4,6-4.8,9.2
	c3.3,0.1,6.2,0.3,9.4-0.6C519.7,307.4,518.3,304.8,516.6,301.7z M606.6,20.2c-1.1,0.2-1.9,0.6-2.8,0.6c-3,0-4.6,1.9-6,4.1
	c-0.3,0.5-0.2,1.4,0,2c0.3,0.8,1.1,0.8,1.9,0.6c0.9-0.3,1.8-0.3,2.6-0.8C606,24.7,607.1,24.5,606.6,20.2z M675.6,330.3
	c-0.1-0.1-0.1-0.3-0.2-0.4c-3.9,3.2-7.9,6.4-11.8,9.6c0.1,0.2,0.2,0.3,0.3,0.5c0.4-0.2,0.9-0.5,1.3-0.7c0.6,0.4,1.2,1,1.8,1
	c2.7,0.1,5.7-2.1,6.7-4.7C674.4,333.9,675,332.1,675.6,330.3z M485.3,451.4c-6.6,4.3-13,8.5-19.8,13c0.8-0.1,1-0.1,1.2-0.1
	c5.9-3,11.7-6.1,17.5-9.1C485.8,454.4,485.9,453.2,485.3,451.4z M498.2,245.5c-0.5-0.6-0.7-0.9-1-1.3c-0.9-1.3-0.9-1.9,0.3-2.9
	c0.3-0.2,0.5-0.4,0.8-0.5c1.3-0.5,1.6-1.6,1.6-2.8c-0.1-1.4-0.3-2.8-0.5-4.3c-0.2,0-0.4-0.1-0.6-0.1c-2.2,3.6-4.3,7.2-6.6,11
	C494.4,245.3,495.9,246.1,498.2,245.5z M200.8,23.7c-0.9-2-2.2-3.6-3.3-4.5c-2-1.5-3.9-0.7-4.2,1.8c-0.1,0.6-0.1,1.3-0.1,1.9
	c0,1,0.4,1.5,1.5,1.3c0.8-0.1,1.6-0.1,2.4,0.1C198.4,24.6,199.6,24.5,200.8,23.7z M173,174.5c-4.8,4-9.6,7.9-14.4,11.8
	c0.1,0.2,0.2,0.3,0.3,0.5c0.6-0.4,1.4-0.7,1.9-1.2c2.2-2.3,5-3.8,7.8-5.1c1-0.4,1.9-1,2.8-1.5C173.3,177.7,173.5,177.1,173,174.5z
	 M86.1,145.8c3.3,0.7,6.3,1.8,9.7,1.7c-0.2-0.5-0.3-0.8-0.5-1c-0.9-0.7-1.8-1.5-2.7-2.1C89.4,142.4,88.8,142.5,86.1,145.8z
	 M677.2,303.4c-0.4,2.3,0.1,4.2,0.7,6.1c0.3,0.9,1.1,1,1.8,0.3c0.9-0.9,1.6-2,2.4-3.1C680.5,305.6,679.7,303.7,677.2,303.4z
	 M568.1,64.9c-0.1-0.1-0.1-0.3-0.2-0.4c-1.4,0.9-2.9,1-4.4,0.4c-1-0.4-1.5,0.3-1.9,1s0,1.2,0.7,1.6c1,0.6,2.1,1.2,3.2,1.9
	C566.3,67.9,567.2,66.4,568.1,64.9z M670.8,242.9c-0.2-0.2-0.5-0.3-0.7-0.5c-0.5,0.4-1.3,0.7-1.5,1.3c-0.7,2.1-1.1,4.3-1.7,6.4
	c0.7,0.1,1.3,0.2,2.2,0.3C669.6,248,670.2,245.4,670.8,242.9z M560.1,393c-4.7,2.6-10.7,8.5-11.4,10.9
	C552.8,400,556.4,396.5,560.1,393z M738,7.8c2.1,1.7,5.1,0.9,7.1-1.6C742.5,5.3,740.4,6.5,738,7.8z M507.7,287.9
	c-0.2,0.1-0.4,0.1-0.6,0.2c0.2,1.3,0.4,2.7,0.6,4c0.1,0.5,0.4,1.2,0.8,1.3c0.4,0.1,1.1-0.2,1.4-0.6c0.5-0.5,0.5-1.1,0-1.8
	C509.2,290,508.4,288.9,507.7,287.9z M539.2,138.4c0.2-2,0.4-3.6,0.6-5.3c-0.2-0.1-0.4-0.1-0.6-0.2c-0.8,1.5-1.7,3-2.6,4.6
	C537.5,137.8,538.1,138,539.2,138.4z M235.4,49.2c-0.2-2-1.5-2.3-2.9-2.5C233.2,49.1,233.4,49.3,235.4,49.2z M586.2,64.1
	c1.1,0.2,1.1,0.2,3.8-3.1C588.2,61.6,587.1,62.7,586.2,64.1z M556,191.5c1.5-1.6,1.5-1.6,1.4-3.2C556.2,189.8,556.2,189.8,556,191.5
	z M582.8,347.1c0.1,0,0.1,0,0.2,0c0-1.9,0-3.9,0-5.8c-0.1,0-0.1,0-0.2,0C582.8,343.2,582.8,345.2,582.8,347.1z M550.9,422.8
	c0.1-0.1,0.3-0.3,0.4-0.4c-0.6-0.6-1.1-1.3-1.7-1.9C549.2,422,549.8,422.5,550.9,422.8z M811.1,5.8c-0.1-0.1-0.2-0.2-0.4-0.3
	c-0.3,0.3-0.5,0.6-0.8,0.9c0.1,0.1,0.3,0.2,0.4,0.3C810.6,6.4,810.8,6.1,811.1,5.8z M384.9,201.2c0.2-0.1,0.5-0.2,0.4-0.3
	c-0.1-0.2-0.2-0.4-0.3-0.5c-0.1,0.1-0.4,0.1-0.4,0.2C384.8,200.8,384.9,201,384.9,201.2z M393.3,206.5c-0.2-0.1-0.4-0.1-0.6-0.1
	c0,0.1-0.1,0.3,0,0.4c0.1,0.1,0.3,0.2,0.4,0.1C393.1,206.9,393.2,206.7,393.3,206.5z M793.8,12.4c-0.1-0.1-0.2-0.3-0.2-0.4
	c-0.1,0.1-0.3,0.2-0.4,0.4c0.1,0.1,0.2,0.3,0.3,0.3C793.6,12.7,793.7,12.5,793.8,12.4z"/>
<path d="M-1281.5,3500.3c-0.4,0.6-0.8,1.3-1.2,1.9c-0.2-0.2-0.4-0.4-0.6-0.6c0.7-0.3,1.3-0.7,2-1
	C-1281.2,3500.6-1281.5,3500.3-1281.5,3500.3z"/>
<path d="M-1256.2,3528.7c-0.3,0.1-0.5,0.3-0.8,0.4c-0.1-0.2-0.4-0.6-0.3-0.7c0.2-0.2,0.5-0.3,0.8-0.4
	C-1256.5,3528.2-1256.4,3528.4-1256.2,3528.7z"/>
</svg>
