<?xml version="1.0" encoding="utf-8"?>
<!-- Generator: Adobe Illustrator 27.8.1, SVG Export Plug-In . SVG Version: 6.00 Build 0)  -->
<svg version="1.1" id="레이어_1" xmlns="http://www.w3.org/2000/svg" xmlns:xlink="http://www.w3.org/1999/xlink" x="0px"
	 y="0px" viewBox="0 0 759.1 534.6" style="enable-background:new 0 0 759.1 534.6;" xml:space="preserve">
<style type="text/css">
	.st0{fill:url(#SVGID_1_);}
	.st1{fill:url(#SVGID_00000029010684125071727220000003156095433383034005_);}
	.st2{fill:url(#SVGID_00000107556220149582485710000014872483435966675586_);}
	.st3{fill:url(#SVGID_00000106122583354342950280000008454489112050461832_);}
	.st4{fill:url(#SVGID_00000160876984031368881000000008197474999040141717_);}
	.st5{fill:url(#SVGID_00000041286031367855412190000013272729797302194052_);}
	.st6{fill:url(#SVGID_00000012437583730248994560000013789157425294486915_);}
	.st7{fill:url(#SVGID_00000044860586203721899590000017050818069849666227_);}
	.st8{fill:url(#SVGID_00000153681093691555771790000015995023734902473144_);}
	.st9{fill:url(#SVGID_00000005257082650452172160000011884292441807467188_);}
	.st10{fill:url(#SVGID_00000131339146653639981750000010422804689439031177_);}
	.st11{fill:url(#SVGID_00000072964029122533962880000013353317237433511337_);}
	.st12{fill:url(#SVGID_00000021812019766914395590000013219209989477438606_);}
	.st13{fill:url(#SVGID_00000157273080573474995460000007486669634693998746_);}
	.st14{fill:url(#SVGID_00000141413745869163468690000001348684429061920660_);}
	.st15{fill:url(#SVGID_00000027604858446030533450000003454095948177062326_);}
</style>
<path d="M-1356.7,2822c-0.4,0.6-0.8,1.3-1.2,1.9c-0.2-0.2-0.4-0.4-0.6-0.6c0.7-0.3,1.3-0.7,2-1
	C-1356.4,2822.3-1356.7,2822-1356.7,2822z"/>
<path d="M-1331.4,2850.4c-0.3,0.1-0.5,0.3-0.8,0.4c-0.1-0.2-0.4-0.6-0.3-0.7c0.2-0.2,0.5-0.3,0.8-0.4
	C-1331.7,2849.9-1331.6,2850.1-1331.4,2850.4z"/>
<radialGradient id="SVGID_1_" cx="516.437" cy="536.2663" r="25.3313" gradientTransform="matrix(1 0 0 1 0 -308)" gradientUnits="userSpaceOnUse">
	<stop  offset="0" style="stop-color:#2379AF"/>
	<stop  offset="0.242" style="stop-color:#1A6393"/>
	<stop  offset="0.5379" style="stop-color:#114E78"/>
	<stop  offset="0.8003" style="stop-color:#0C4268"/>
	<stop  offset="1" style="stop-color:#0A3D62"/>
</radialGradient>
<path class="st0" d="M542.3,213.5c-0.5-9.8-4.6-12.4-13.3-7.7c-6.4,3.5-12.6,7.7-18.4,12.2c-6.6,5.1-14.4,9.1-18.4,17
	c-3.5,6.8-1.5,10.9,6,12.3c2.7,0.5,4.9,1.7,7.2,3.1c4.4,2.9,9.2,3.3,14.4,2.1c15-3.5,22.4-14.2,22.5-33.5
	C542.3,217.1,542.4,215.3,542.3,213.5z"/>
<radialGradient id="SVGID_00000169545558156709483620000000742089728380053422_" cx="173.5879" cy="723.713" r="27.9896" gradientTransform="matrix(1 0 0 1 0 -308)" gradientUnits="userSpaceOnUse">
	<stop  offset="0" style="stop-color:#2379AF"/>
	<stop  offset="0.242" style="stop-color:#1A6393"/>
	<stop  offset="0.5379" style="stop-color:#114E78"/>
	<stop  offset="0.8003" style="stop-color:#0C4268"/>
	<stop  offset="1" style="stop-color:#0A3D62"/>
</radialGradient>
<path style="fill:url(#SVGID_00000169545558156709483620000000742089728380053422_);" d="M190,386.1c-9.1,0.2-18.4,1-27.1,4.5
	c-5.7,2.2-9.3,6.4-12,11.9c-5.5,11.4-4.1,22.6,0.3,33.7c4.1,10.3,12.3,12,20.6,4.5c8.1-7.2,14.8-15.8,21.6-24.1
	c4.1-5,6.3-10.9,6.3-18.6C199.6,392.4,197.3,386,190,386.1z"/>
<radialGradient id="SVGID_00000063604199319213179120000012810070174147100331_" cx="403.7528" cy="575.2839" r="28.3082" gradientTransform="matrix(1 0 0 1 0 -308)" gradientUnits="userSpaceOnUse">
	<stop  offset="0" style="stop-color:#2379AF"/>
	<stop  offset="0.242" style="stop-color:#1A6393"/>
	<stop  offset="0.5379" style="stop-color:#114E78"/>
	<stop  offset="0.8003" style="stop-color:#0C4268"/>
	<stop  offset="1" style="stop-color:#0A3D62"/>
</radialGradient>
<path style="fill:url(#SVGID_00000063604199319213179120000012810070174147100331_);" d="M414.5,237.8c-2.1,0.3-4.2,0.3-6.3,0.4
	c-19.8,0.8-31.1,12.5-31.3,34.1c0.6,2.9,1.2,7.6,2.7,12.1c4.5,14.1,14.3,16.6,24.7,6.2c7-7.1,13.2-15,19.8-22.5
	c3.4-3.9,5-8.7,6-13.6C432.5,243,426.2,236.3,414.5,237.8z"/>
<radialGradient id="SVGID_00000116957441245538296450000009944978503967973539_" cx="346.037" cy="724.4276" r="24.0766" gradientTransform="matrix(1 0 0 1 0 -308)" gradientUnits="userSpaceOnUse">
	<stop  offset="0" style="stop-color:#2379AF"/>
	<stop  offset="0.242" style="stop-color:#1A6393"/>
	<stop  offset="0.5379" style="stop-color:#114E78"/>
	<stop  offset="0.8003" style="stop-color:#0C4268"/>
	<stop  offset="1" style="stop-color:#0A3D62"/>
</radialGradient>
<path style="fill:url(#SVGID_00000116957441245538296450000009944978503967973539_);" d="M371.1,408.8L371.1,408.8
	c-10,0.6-20.2-1.3-30.1,1.6l0,0c-7.1,1.7-13.9,0.5-20.6-2.1c-1.7-0.7-3.8-1.3-4.9,0.6c-1,1.8,0.4,3.3,1.9,3.6
	c6.5,1.3,9.2,7.2,13.9,10.7l0,0c0.3,2.3,2.3,3.1,3.7,4.5l0,0c9.9,5.7,19.7,3,28.1-2.5c11.7-7.7,15.1-14.9,13.4-23.3
	C374.6,404.4,372.8,406.6,371.1,408.8z"/>
<radialGradient id="SVGID_00000062155289929003049790000004141205608236004774_" cx="558.3876" cy="813.0117" r="26.1406" gradientTransform="matrix(1 0 0 1 0 -308)" gradientUnits="userSpaceOnUse">
	<stop  offset="0" style="stop-color:#2379AF"/>
	<stop  offset="0.242" style="stop-color:#1A6393"/>
	<stop  offset="0.5379" style="stop-color:#114E78"/>
	<stop  offset="0.8003" style="stop-color:#0C4268"/>
	<stop  offset="1" style="stop-color:#0A3D62"/>
</radialGradient>
<path style="fill:url(#SVGID_00000062155289929003049790000004141205608236004774_);" d="M578.8,519.6c-1.4-8.2-7.3-13.5-12.8-19
	l0,0c-6.1-6.1-11.8-12.4-12.3-21.7c-0.1-1.6-0.6-4.1-3.2-3.4c-2.2,0.6-1.5,3-1.9,4.7c0.6,0.5,0.7,1.2,0.7,2c-0.2-0.7-0.4-1.3-0.7-2
	c-1.7,5.8-4.1,11.3-8,16l0,0l0,0c0,1,0,2.1,0,3.1c-4.3,5-5.7,10.4-2.8,16.6c3.4,7.2,7.6,13.7,15.5,16.7c7.2,3,14.8,0.7,22.1,1.3
	c3.3,1.7,4.8,0.4,4.9-3c0.1-3.5,0.3-7-1.1-10.3C579.1,520.3,579,520,578.8,519.6z"/>
<radialGradient id="SVGID_00000042008560060682675700000012992515297399085968_" cx="571.4389" cy="669.7192" r="19.3547" gradientTransform="matrix(1 0 0 1 0 -308)" gradientUnits="userSpaceOnUse">
	<stop  offset="0" style="stop-color:#2379AF"/>
	<stop  offset="0.242" style="stop-color:#1A6393"/>
	<stop  offset="0.5379" style="stop-color:#114E78"/>
	<stop  offset="0.8003" style="stop-color:#0C4268"/>
	<stop  offset="1" style="stop-color:#0A3D62"/>
</radialGradient>
<path style="fill:url(#SVGID_00000042008560060682675700000012992515297399085968_);" d="M585.9,362.9c5.8-3.1,4-6.9,2.4-11.1
	c-3.5-4.9-8.4-7.1-14.1-8l0,0c-6.4-3-10.1,1.7-14.5,4.8c-10,3.4-10.3,4.7-2.6,12.4c1.3,1.3,2.8,2.3,4.3,3.4c1.6,0.6,3.1,1.1,4.7,1.7
	c1.5,0.6,3,1.2,4.6,1.8l0,0c8.2,1.7,15.8,4.6,20.4,12.7c1.1-5.1-2.1-7.6-4.2-10.7C585.4,367.9,581.9,365,585.9,362.9z"/>
<radialGradient id="SVGID_00000145780464095323893500000001463948335491433612_" cx="195.0104" cy="552.2883" r="16.2821" gradientTransform="matrix(1 0 0 1 0 -308)" gradientUnits="userSpaceOnUse">
	<stop  offset="0" style="stop-color:#2379AF"/>
	<stop  offset="0.242" style="stop-color:#1A6393"/>
	<stop  offset="0.5379" style="stop-color:#114E78"/>
	<stop  offset="0.8003" style="stop-color:#0C4268"/>
	<stop  offset="1" style="stop-color:#0A3D62"/>
</radialGradient>
<path style="fill:url(#SVGID_00000145780464095323893500000001463948335491433612_);" d="M212.6,240.7c-4.7-6.5-11-9.7-19-9.2l0,0
	c-6,0.9-10,5.6-15.5,7.5c-2.7,0.9-2.6,2.9-1.4,5c1.5,2.5,3.2,4.8,5.8,6.4l0,0l0,0c5.6,4.3,11.8,6.5,18.1,6.8
	c3.2-1.9-4.3-6.2,2.4-6.5c3.1,6.1,5.4,0,7.7-0.8C215.9,248,214,244.2,212.6,240.7z"/>
<radialGradient id="SVGID_00000091725265585267236340000018402769848930987192_" cx="467.1939" cy="752.8725" r="13.7205" gradientTransform="matrix(1 0 0 1 0 -308)" gradientUnits="userSpaceOnUse">
	<stop  offset="0" style="stop-color:#2379AF"/>
	<stop  offset="0.242" style="stop-color:#1A6393"/>
	<stop  offset="0.5379" style="stop-color:#114E78"/>
	<stop  offset="0.8003" style="stop-color:#0C4268"/>
	<stop  offset="1" style="stop-color:#0A3D62"/>
</radialGradient>
<path style="fill:url(#SVGID_00000091725265585267236340000018402769848930987192_);" d="M469.3,442.2c-6.9,1.9-9.3,10.3-16.8,11.8
	c3.5,0.8,7,1.6,10.5,2.5l0,0c7,3.3,10.9-1.9,14.5-6.1c4.3-4.9,5.9-10.7,2.7-18.2C477.2,437.1,473.8,440.3,469.3,442.2z"/>
<radialGradient id="SVGID_00000028285498239716675120000015191708095941828786_" cx="557.7001" cy="387.9664" r="27.6616" gradientTransform="matrix(1 0 0 1 0 -308)" gradientUnits="userSpaceOnUse">
	<stop  offset="0" style="stop-color:#2379AF"/>
	<stop  offset="0.242" style="stop-color:#1A6393"/>
	<stop  offset="0.5379" style="stop-color:#114E78"/>
	<stop  offset="0.8003" style="stop-color:#0C4268"/>
	<stop  offset="1" style="stop-color:#0A3D62"/>
</radialGradient>
<path style="fill:url(#SVGID_00000028285498239716675120000015191708095941828786_);" d="M532.5,80.8c3,13.1,21.2,22.4,36.7,18.9
	c7.9-2.8,17.4-2.9,21.9-13.3c-4,1.4-7,4.4-10.7,2.2l0,0c-7.1-5-14.7-9.2-22.6-12.9c-6-2.9-13.2-1.7-18.7-5.8l0,0l0,0
	c-3.8-3.6-7.2-7.9-14.8-10.3c6.5,6.7,6.1,13.9,7.9,20.3C532.1,80.1,532.2,80.4,532.5,80.8z"/>
<radialGradient id="SVGID_00000003798674707963769550000010195371158254975130_" cx="141.2378" cy="413.5683" r="13.5702" gradientTransform="matrix(1 0 0 1 0 -308)" gradientUnits="userSpaceOnUse">
	<stop  offset="0" style="stop-color:#2379AF"/>
	<stop  offset="0.242" style="stop-color:#1A6393"/>
	<stop  offset="0.5379" style="stop-color:#114E78"/>
	<stop  offset="0.8003" style="stop-color:#0C4268"/>
	<stop  offset="1" style="stop-color:#0A3D62"/>
</radialGradient>
<path style="fill:url(#SVGID_00000003798674707963769550000010195371158254975130_);" d="M148.4,117.5c4.9-6.5,5.2-13.5,2.3-20.8
	c0-2.9-0.2-5.8-3.9-6.5c-3.3-0.6-4.4,2.2-5.6,4.3c-0.9,1.5-1.2,3.3-1.8,5l0,0c-4.6,1.2-5.4,5.6-7,9c-4.4,9.8-3.5,10.9,7.2,11.9
	C143.4,122.1,146.1,120.6,148.4,117.5z"/>
<radialGradient id="SVGID_00000108281157726479387390000012289643600902190474_" cx="295.2657" cy="429.7878" r="28.9267" gradientTransform="matrix(1 0 0 1 0 -308)" gradientUnits="userSpaceOnUse">
	<stop  offset="0" style="stop-color:#2379AF"/>
	<stop  offset="0.242" style="stop-color:#1A6393"/>
	<stop  offset="0.5379" style="stop-color:#114E78"/>
	<stop  offset="0.8003" style="stop-color:#0C4268"/>
	<stop  offset="1" style="stop-color:#0A3D62"/>
</radialGradient>
<path style="fill:url(#SVGID_00000108281157726479387390000012289643600902190474_);" d="M318.7,141
	C318.7,141,318.7,140.9,318.7,141c6.1-4.4,11.3-9.5,11.8-17.7c0.1-1.2-0.1-2.9-0.9-3.6c-1.5-1.5-2.8,0.1-4,1c-1.2,1-2.5,1.9-3.7,2.9
	l0,0c-4.7,1.3-8.2,4.3-11.6,7.6c-2.1,2-4.3,4-7.5,1.9l0,0l0,0c0.7-1,1.3-2.1,2-3.1l0,0c3.8-2.9,4.2-7.5,5.9-11.5l0,0l0,0
	c3.6-4.7,6.2-10,2.2-15.2c-2.9-3.8-7.7-2-11.7-0.4l0,0c-7.2,3.1-15.2,3.8-22,8.1c-7.3,2.9-16.2,3.7-17.4,14.1
	c-1.6,1.9-3.2,3.6,0.3,5.3c3,1.4,5.9,2.9,8.9,4.4l0,0c1.1,0.6,2.1,1.2,3.2,1.7c7.3,3.9,14.8,2.8,22.4,1.4l0,0c5.5,2,11.9,0.5,17,4.3
	C315,143.1,317.2,142,318.7,141L318.7,141z"/>
<radialGradient id="SVGID_00000079452222271859651040000011824150471430290306_" cx="440.353" cy="458.011" r="13.5746" gradientTransform="matrix(1 0 0 1 0 -308)" gradientUnits="userSpaceOnUse">
	<stop  offset="0" style="stop-color:#2379AF"/>
	<stop  offset="0.242" style="stop-color:#1A6393"/>
	<stop  offset="0.5379" style="stop-color:#114E78"/>
	<stop  offset="0.8003" style="stop-color:#0C4268"/>
	<stop  offset="1" style="stop-color:#0A3D62"/>
</radialGradient>
<path style="fill:url(#SVGID_00000079452222271859651040000011824150471430290306_);" d="M445.4,134.7c-4-0.3-4.6,3.7-6.2,6.3l0,0
	c-3.2,2.7-5.8,6-7.8,9.7c-5,9.5-3,13,7.8,14.1c4.1,1.9,6.4-0.4,8.6-3.4c4.7-6.3,5-13.1,2.4-20.2C449.6,138.2,449,134.9,445.4,134.7z
	"/>
<radialGradient id="SVGID_00000052091866821207124020000013983984092177064362_" cx="248.6468" cy="635.1749" r="36.9359" gradientTransform="matrix(1 0 0 1 0 -308)" gradientUnits="userSpaceOnUse">
	<stop  offset="0" style="stop-color:#2379AF"/>
	<stop  offset="0.242" style="stop-color:#1A6393"/>
	<stop  offset="0.5379" style="stop-color:#114E78"/>
	<stop  offset="0.8003" style="stop-color:#0C4268"/>
	<stop  offset="1" style="stop-color:#0A3D62"/>
</radialGradient>
<path style="fill:url(#SVGID_00000052091866821207124020000013983984092177064362_);" d="M287.4,317.7c-2-1.5-3.6,1-5.1,2.3
	c-1-0.5-2-1.1-3-1.6l0,0c-4.2-1.8-6.4-4.7-7.1-9.4c-0.6-4.4-1.5-8.8-4-12.7l0,0c-2.9-4.2-7.1-4.2-8.5,0c-2.2,6.6-6.7,6.5-11.8,6.3
	c-4-0.1-6.9,0.9-8.5,5.3c-3.1,8.7-6.2,9.9-14.9,6.2c-4-1.7-7.1-1.3-10.2,1.3c-4.8-0.4-5.9,2-5,6.3c1.6,7.7,7.6,11.5,13.2,15.7l0,0
	c1.3,1,2.6,2,4,3l0,0c-10.8,8.5-11.6,15.1-2.7,20.8c2.9-0.5,4.6-2.6,6.3-4.7c3.9-1.2,7.9-2,11.1-4.7c2.8-0.5,5.6-1.3,8.4-1.5
	c7.7-0.3,13.5-4.2,18.5-9.7c2.4-0.7,3.9-2.7,5.6-4.4c5.5-3.2,9.4-8,12.7-13.2C287.3,321.5,289.5,319.3,287.4,317.7z"/>
<radialGradient id="SVGID_00000088835701448568432410000000939412547524408453_" cx="266.6082" cy="802.2488" r="7.8166" gradientTransform="matrix(1 0 0 1 0 -308)" gradientUnits="userSpaceOnUse">
	<stop  offset="0" style="stop-color:#2379AF"/>
	<stop  offset="0.242" style="stop-color:#1A6393"/>
	<stop  offset="0.5379" style="stop-color:#114E78"/>
	<stop  offset="0.8003" style="stop-color:#0C4268"/>
	<stop  offset="1" style="stop-color:#0A3D62"/>
</radialGradient>
<path style="fill:url(#SVGID_00000088835701448568432410000000939412547524408453_);" d="M263.7,488.3c-5.5-0.1-8.2,1.9-5.1,7.7l0,0
	l0,0c4.1,2.8,8.2,5.3,13.6,3.7c4.3-1.3,4.7-3.5,2.1-6.7C271.3,490.1,267.8,488.4,263.7,488.3z"/>
<radialGradient id="SVGID_00000006689885866867134610000000898494596982606514_" cx="600.0822" cy="566.0135" r="11.5559" gradientTransform="matrix(1 0 0 1 0 -308)" gradientUnits="userSpaceOnUse">
	<stop  offset="0" style="stop-color:#2379AF"/>
	<stop  offset="0.242" style="stop-color:#1A6393"/>
	<stop  offset="0.5379" style="stop-color:#114E78"/>
	<stop  offset="0.8003" style="stop-color:#0C4268"/>
	<stop  offset="1" style="stop-color:#0A3D62"/>
</radialGradient>
<path style="fill:url(#SVGID_00000006689885866867134610000000898494596982606514_);" d="M607,250.6c0-2.8,0.2-5.8-3.7-6.9
	c-2.2,6.8-7.1,12.2-8.6,19.2l0,0l0,0c-0.8,1.9-1.8,3.8-2.3,5.8c-1.3,5.7,1.6,3.3,3.9,2l0,0l0,0C605.9,269.6,610.3,261.3,607,250.6
	L607,250.6z"/>
<radialGradient id="SVGID_00000047744618719642488360000015720578337576786076_" cx="632.6482" cy="449.367" r="10.5888" gradientTransform="matrix(1 0 0 1 0 -308)" gradientUnits="userSpaceOnUse">
	<stop  offset="0" style="stop-color:#2379AF"/>
	<stop  offset="0.242" style="stop-color:#1A6393"/>
	<stop  offset="0.5379" style="stop-color:#114E78"/>
	<stop  offset="0.8003" style="stop-color:#0C4268"/>
	<stop  offset="1" style="stop-color:#0A3D62"/>
</radialGradient>
<path style="fill:url(#SVGID_00000047744618719642488360000015720578337576786076_);" d="M638.9,133.1c-0.7-4.3-2.3-6.6-5.6-1.8
	c-2.3,3.4-4.9,6.9-5.7,11.2c-0.9,2.6-2,5.2-2.7,7.8c-1.1,4,1.4,4.2,4.3,3.5c7-0.2,8.5-5.4,9.9-10.7
	C641.2,139.6,640.8,136.3,638.9,133.1z"/>
</svg>
