<?xml version="1.0" encoding="utf-8"?>
<!-- Generator: Adobe Illustrator 27.8.1, SVG Export Plug-In . SVG Version: 6.00 Build 0)  -->
<svg version="1.1" id="레이어_1" xmlns="http://www.w3.org/2000/svg" xmlns:xlink="http://www.w3.org/1999/xlink" x="0px"
	 y="0px" viewBox="0 0 1470.3 1909.3" style="enable-background:new 0 0 1470.3 1909.3;" xml:space="preserve">
<style type="text/css">
	.st0{fill:url(#SVGID_1_);}
	.st1{fill:url(#SVGID_00000015345819846292959660000011921224572502259360_);}
	.st2{fill:url(#SVGID_00000124144391501008879120000014419771540262131646_);}
</style>
<g>
	<radialGradient id="SVGID_1_" cx="735.15" cy="1279.6611" r="729.7422" gradientUnits="userSpaceOnUse">
		<stop  offset="0" style="stop-color:#2379AF"/>
		<stop  offset="0.242" style="stop-color:#1A6393"/>
		<stop  offset="0.5379" style="stop-color:#114E78"/>
		<stop  offset="0.8003" style="stop-color:#0C4268"/>
		<stop  offset="1" style="stop-color:#0A3D62"/>
	</radialGradient>
	<path class="st0" d="M1150.4,1377c7.8,2.3,15.6,4.6,23.8,7.1c-1.2-1.7-2.5-3.4-5.1-7c13.3,4,24.5,7.8,36,10.6
		c3.9,1,8.4-0.8,12.7-0.8c4.5-0.1,9.2-0.3,13.4,0.9c4.7,1.4,8.1,7.1,14.4,3.7c0.8-0.4,3.6,1.7,4.6,3.3c3.8,6.1,9.1,7.5,16.2,4.1
		c3.5-1.7,9.7,2.4,11.6,8c5.9-0.7,11.8-1.5,17.7-2.2c1.5-0.2,3-0.4,4.5-0.6c0,1.7,0,3.4,0,4.9c17.2-1.9,34.3,0.5,50.6,7.2
		c10.1,4.1,19.9,8.9,29.7,13.8c1.6,0.8,2.3,3.4,3.5,5.2c-1.8-0.3-3.6-0.5-5.4-0.9c-0.7-0.1-1.4-0.6-2.1-0.6
		c-17.6,0.2-35.3-0.1-52.9,0.9c-7.2,0.4-14.2,4.6-21.3,4.8c-5.7,0.1-11.8-2.8-17.2-5.3c-5.7-2.6-17.3-1.9-22.4,2.4
		c-0.7,0.6-1.8,0.8-2.8,1c-9.7,1.8-19.5,3.5-29.2,5.5c-5,1-9.9,3-14.9,3.7c-4.3,0.6-8.8-0.3-13.2-0.1c-3,0.1-6,1.8-8.9,1.6
		c-11.2-0.8-23.3-1-32.1-8.4c-5.5-4.6-10.7-8.8-17.3-11.6c-4-1.7-7.9-3.7-11.6-5.9c-1.4-0.9-3.2-3-3-4.2
		c1.9-11.1-7.6-11.3-13.7-14.7c-0.9-0.5-1.8-0.9-2.5-1.2c4.7-1.5,9.5-3,14.2-4.5c-1.8,1.4-3.7,2.8-6.1,4.7c7,2.7,12.6,4.9,18.2,7.1
		c0.1-0.3,0.2-0.7,0.2-1c-4.2-3.6-8.4-7.1-12.6-10.7c-1.2-1.3-2.5-2.6-5-5.4c4,1.5,6.7,2.7,9.5,3.5c5.7,1.6,11.5,2.7,17.1,4.6
		c4.1,1.4,7.9,3.8,12.3,6c2.8,0,6.7-0.6,10.3,0.1c9,1.9,17.8,4.5,26.7,6.6c1.7,0.4,4.1,0.9,5.2,0.1c8-5.9,14.2-2.2,20.4,3.1
		c1.1,0.9,2.8,1.1,4.3,1.4c7.9,1.4,16.3,0.2,23.5,5.1c1.8,1.2,6,1.4,7.3,0.1c6.4-6.3,13.1-3.6,19-1.5c3.6-2.9,6.6-5.4,9.9-8
		c-10-1.4-21-2.8-31.9-4.3c-42.7-6-85.4-12.2-128.1-18c-23.2-3.1-46.5-5.3-69.7-8.3c-12.7-1.7-22.9,4.6-33.6,9.4
		c-15.3,6.8-30,15.2-45.8,20.4c-18.5,6.1-35.5,14.8-52.7,23.6c-17.5,9-35.3,6.1-52.2-2.6c-5.8-3-10.7-7.8-16.2-11.5
		c-1.3-0.9-4-1.3-5.2-0.6c-4.6,2.6-9.1,5.4-13.2,8.7c-10.4,8.5-25.7,7.9-36.4-0.5c-6.8-5.4-14.9-9-22.3-13.6
		c-2.1-1.3-3.9-3.1-5.8-4.6c12.3,3,24.6,5.9,37.2,9c-5.9-4.4-11.1-8.5-16.4-12.3c-1-0.7-2.9-0.3-4.3-0.2c-3.6,0.3-7.2,0.6-10.7,1.3
		c-1.9,0.4-3.7,1.6-5.6,2.4c-11.1-3.5-22.2-3.2-33.6-0.6c-3.7,0.8-8.1-0.6-12.1-1.5c-6.6-1.5-12.9-0.6-16.5,5.2
		c-3.7,6.1-9.6,7-15.3,9.2c-7.1,2.7-14,5.8-21.1,8.6c-3.3,1.3-6.9,3.7-10,3.2c-13.3-2.1-22.2,5.9-31.2,13.1
		c-6.7,5.3-12.6,11.7-19.5,18.2c-1.4-0.6-3.7-1.5-6.7-2.8c0,2.9,0,5.2,0,8c-2.6,1-5.1,2-7.8,3c-2.7-15.5-2.4-16.2,6.4-15.3
		c0.2-0.7,0.4-1.3,0.7-2c-2.8-0.9-5.6-1.8-8.5-2.8c3.2-11.7,4.2-25.3-3.5-35.4c-6.4-8.4-5.6-20.5-15.2-26.7c-1-0.6-0.5-3.2-1-4.9
		c-1.7-5.8-3.2-11.6-5.5-17.2c-0.7-1.6-3.7-3.1-5.8-3.2c-12.2-0.8-24.4-1.3-36.6-1.5c-6.8-0.1-10.1,4.6-12.7,10.5
		c-1.6,3.6-4.9,6.7-7.9,9.6c-3.7,3.7-8.8,6.3-11.6,10.5c-28.2,43-56,86.3-83.8,129.5c-15,23.3-30.3,46.6-44.8,70.2
		c-6.4,10.4-10.3,22.3-17,32.5c-34.5,52.1-69.7,103.7-104.2,155.8c-18.2,27.4-35.8,55.3-53.4,83.1c-20.8,32.9-35.8,68.8-50.6,104.7
		c-15,36.3-29.6,72.8-44.6,109.7c-1-0.8-2.9-1.5-3.6-2.8c-6.9-12.4-13.7-24.9-11.3-39.9c0.3-2,0.8-4,1.5-5.9
		c19.2-47.4,38.4-94.8,57.7-142.2c3.7-9.1,7.7-18.1,11.5-27.2c0.4-0.9,0.7-2.3,1.4-2.7c16.4-8.3,23-25,32.3-39.1
		c39.5-60.2,78.4-120.8,117.4-181.3c5.3-8.2,9.5-17.1,14.9-25.2c4.9-7.4,10.8-14.2,15.9-21.5c11.9-16.7,24.2-33.2,35.3-50.5
		c26.1-40.7,51.6-81.8,77.2-122.8c18.3-29.2,29.9-61.3,39.5-94.3c10.6-36.3,21.7-72.4,32.4-108.6c0.7-2.3,1.2-5.3,0.2-7.2
		c-5.2-10.6-3-20.9-0.1-31.5c4.4-16.3,15.4-28.4,24.6-41.9c7.7-11.3,12.9-24.9,8.8-39.2c-2.5-8.7,2.7-14.7,5.1-21.8
		c0.6-1.8,1.6-3.5,1.9-4.1c-2.2-1.8-4.1-2.6-4.7-4c-6.6-15.3-13-30.6-19.3-46c-6.2-15.4-15.1-27.3-33.7-27.6c-2.5,0-5-0.9-7.4-2.7
		c8.6,0,17.2,0,28,0c-5.9-10.2-10.8-18.8-15.8-27.5c-3.1,1.1-5.3,2.8-7.3,2.6c-17.2-1.8-28.3,10.9-41.8,17.6
		c-14.2,7.1-28.3,14.6-41.8,23c-7.9,4.9-14.4,12-21.9,17.8c-2,1.6-5,1.9-7.6,2.8c0,0,0.1,0.1,0.1,0.1c6.5-5.6,13-11.1,19.5-16.7
		c-0.3-0.4-0.6-0.9-1-1.3c-2.9,1.8-5.8,3.7-9.2,5.8c-4.8-7.1-10.7-4.5-18,0.3c7.9-22.4,12.2-44.2,27.9-61
		c7.7-8.2,13.3-18.5,21.6-25.8c5.3-4.6,13.8-6.7,21.1-7.5c10.6-1.2,21.5-0.3,33.6-0.3c-4.5-9-7.9-17.4-12.9-24.6
		c-1.3-1.9-8.3-1.7-11.5-0.1c-7.8,3.8-15.1,2.9-23.1,1.2c-10.2-2.2-20.9-2.3-31-4.8c-7.5-1.9-14.9-5.1-21.3-9.4
		c-12.5-8.5-19.2-22.1-28-33.9c-4.1-5.6-11.1-9.3-17.2-13c-11.5-7-23.4-13.4-35.2-20.1c-0.4-0.3-0.9-0.5-1.3-0.8
		c-9.8-6.4-20.2-12.1-29.3-19.4c-6.1-4.9-10.4-11.9-15.4-18c-0.3-0.4-0.6-0.8-0.9-1.2c-8-9.9-15.8-19.9-24.1-29.5
		c-2.2-2.6-5.8-4.1-9-5.6c-9.8-4.6-14.5-14.3-21.2-21.8c-3.3-3.7-3.7-9.7-5.7-14.7c-1-2.6-2.6-4.9-3.5-7.5c-0.7-2.2-0.8-4.6-1.5-8.8
		c-2.1-4.7-7.8-11.5-7.3-17.8c0.8-10-4.6-18-5.3-27c-0.7-9.3,0.5-18.8,0.8-28.2c0-1.5-0.5-3-0.7-4.5c-1.6-9.9,1.2-19,5.7-27.6
		c0.1-0.2,0.5-0.4,0.4-0.6c-2.6-11.4,4.5-22.4,3.3-33.3c1.3-4.4,3.2-8.7,3.8-13.2c1.3-9.1,0.9-18.5,3-27.3c2.7-11,0.8-23.5,9.5-33.5
		c12.6,13.5,27.1,22.8,44,28.5c2.2,0.7,3.7,3.4,5.4,5.3c19.7,21.3,44.6,34.4,71.5,43.3c10.7,3.5,22.8,2.9,34.3,3.4
		c2.8,0.1,5.7-2.7,10.2-5.1c3.4,4.3,7.9,9,11.2,14.4c8.1,13.4,18.9,23.7,32,32.4c8.7,5.7,16.3,12.7,16.9,25.3
		c0.7,15.1,10.5,25.5,22.9,33.6c10.4,6.8,20.6,13.6,21.9,28c0.9,10.3,7,17.7,14.8,24.7c5.3,4.8,8.7,12.3,11.6,19.2
		c4.3,10.5,8.2,21.1,7.2,33.1c-0.8,9.9,1.1,19.9,1.4,29.9c0.1,2.5-1.1,5.3-2.5,7.4c-4.3,6.3-7.1,12.9-5.5,20.9
		c1.8-14.6,12.9-23.3,21.2-33.7c3.8-4.8,7.3-9.9,11.5-14.3c8.7-9.2,17.2-18.6,26.7-26.8c8.4-7.3,18.3-12.8,27.1-19.8
		c8.8-7,17.1-14.6,25.3-22.2c3.9-3.6,7.4-7.7,10.7-11.9c6-7.4,15.3-7.9,23.3-11c9.1-3.5,18.6-6.1,28.2-7.6
		c7.9-1.2,16.2-0.1,24.4-0.3c17.9-0.5,35.8-0.6,53.6-2.2c7.5-0.7,14.7-4.1,22.5-5c10.8-1.3,17.7,3.5,16.8,14.6
		c-0.3,4.3-2.5,8.5-2.6,12.8c-0.1,4.4-5.7,8.5-0.6,13.6c0.8,0.8-1.7,5.5-3.1,8.2c-10,20.1-15.2,41.6-16.7,64.9
		c7.6-10,15.1-19.9,22.7-29.9c0.3,0.1,0.7,0.3,1,0.4c-0.8,2.5-1.7,5-2.5,7.5c0.8,0.5,1.5,1,2.3,1.4c6.4-9.5,14.5-18.4,18.9-28.7
		c6.1-14.4,13.8-27.4,23.3-39.6c8.1-10.3,15.6-20.9,24.5-33c2.1,11.6,4.2,21.5,5.6,31.5c1.1,7.1-1.3,13-5.7,19.1
		C806,790,748.4,870.5,691.3,951.4c-8,11.4-13.6,24.6-19.3,37.4c-1.8,4-0.3,9.5-0.3,14.6c0.7,0.1,1.7,0.4,2.6,0.3
		c4.2-0.4,10-2.9,12.3-1c8.4,6.8,17.2,13.1,21.3,24.6c5.8,16.1-1.7,30-4.3,44.8c-2.5,14.3-4.7,28.8-6,43.3c-0.4,4.7,2.3,9.9,4,14.6
		c0.6,1.6,2.6,3.6,3.9,3.6c1.5,0,3.7-1.8,4.3-3.4c6.9-16.7,15.6-32.6,19.8-50.7c1.9-8.3,13.1-14.4,20.2-21.4
		c3.2-3.2,6.9-5.8,10.2-8.9c7.4-7,14.8-14,22-21.1c3.6-3.5,8.5-6.9,9.8-11.3c3.1-10.1,11.9-13.6,19.1-18.7c5.6-4,13-5.3,19.3-8.5
		c8.7-4.4,17.6-8.8,25.3-14.6c4-3,5.8-9,9.4-15.1c3.3,6.7,6.2,11.7,8.4,17.1c4.7,11.7,11.7,22.6,21.7,29
		c12.5,7.9,17.7,19.4,23.7,31.4c3.9,7.7,9.8,14.3,14.8,21.5c0.7,1,0.9,2.3,1.3,3.5c1.5,4.6,0.7,10.4,6.7,12.9c0.9,0.4,0.9,3.2,1,5
		c0.4,5.4,0.5,10.8,1.2,16.1c0.2,1.4,2.1,2.5,4,4.6c-1.4,12,1.7,24.6,5.8,37.4c1.9,6,7.6,13.1,0.7,19.9c-0.4,0.4-0.1,2,0.3,2.4
		c7.4,6.7,3.1,14.7,2.2,22.2c-1,8.7-1.6,17.5-3.7,25.9c-2.1,8.5-8.5,16.8-8,24.8c0.7,10.7-6.5,17.4-9.1,26.1
		c-3,9.8-5.7,20.6-14.2,28.8c-6.7,6.5-10.1,16.2-16.1,23.7c-4.9,6.1-10.6,12.5-17.5,15.8c-11,5.3-17.4,14.8-25.6,22.8
		c-3.6,3.5-6.7,7.6-10.5,10.9c-14.9,13.2-30.3,25.5-51.4,27.1c-2.2,0.2-4.3,1.3-8.3,2.6c3.2,1,4.7,1.8,6.3,1.8
		c12.9,0.2,25.7,0.3,38.6,0.3c6.5,0,10.4-3.2,11.9-9.6c1.3-5.7,2.8-11.4,4.9-16.8c1.9-4.9,5.1-8.7,11.5-8.2
		c4.3,0.4,8.8,0.4,13.1-0.2c3.4-0.5,7.1-1.5,10-3.3c12.3-7.6,24.2-16,36.7-23.2c8.1-4.6,15.9-0.7,22.6,4.4
		c8.1,6.1,15.8,12.7,23.8,18.9c1.6,1.2,3.9,1.5,5.8,4.1c-7.1,0.4-14.2,0.8-21.3,1.1c0,0.3,0,0.5-0.1,0.8c5,0.8,9.9,1.5,14.9,2.3
		c0.1,1,0.2,2.1,0.4,3.1c-2.7,0.4-5.5,1.4-8.2,1.2c-5.3-0.5-10.7-4.5-16.5,2.4c10.5,1.7,20.1,3.3,28.4,4.7
		c-4.7,0.9-10.6,2.1-17.9,3.5c11.4,5.6,22.2,7.2,33.1,5.8c21.4-2.7,42.6-6.4,64-9.3c1.7-0.2,7.3-4.4,6.5,3c0,0.1,1.8,0.6,2.7,0.6
		c14.2-0.1,28.4-0.2,42.5-2.1c-13.6-4.3-27.3-1.9-41-1c-0.1-0.8-0.3-1.6-0.4-2.4c4-0.7,7.9-1.9,11.9-2.1c11.5-0.7,23.1-1.4,34.6-1.5
		c5,0,10,1.5,15.1,2.2c2.7,0.4,5.5,0.4,8.2,0.6c-5.9,2.5-11.7,5-19.6,8.4c4.3,0.8,6.8,1.8,9.3,1.7c6.1-0.1,12.1-0.6,18.2-1
		c2.5-0.2,5.1-0.4,7.6-0.9C1150.5,1380.5,1150.4,1378.2,1150.4,1377z M623.5,1332.2c-1.9-2.1-3.8-4.2-5.7-6.4
		c-13.2,1.8-14.3,3.9-18.7-2.9c-1.8,3-3.4,5.7-5.1,8.5c1.2-4.8,2.4-9.7,4.1-16.7c-6.3,3.7-15.6-2-14.9,9.9c0,0.9-2,2.1-3.2,2.9
		c-2.5,1.7-5.1,3.3-7.7,5c-3.5-3.5-7-7-10.1-10c0.5-5.7,1.2-11.7,1.7-17.7c0.2-3.1-0.2-6.3,0.4-9.4c1.2-6.1,2.9-12.1,4.5-18.1
		c2.6-10.2,4.3-20.7,8.1-30.4c5.7-14.4,11-29.5,20-41.8c7.6-10.3,11.7-24.3,25.1-30c0.7-0.3,1.3-0.9,1.6-1.6
		c8.3-13.9,19.5-25.1,32.2-35c1.3-1,2.6-2.2,3.6-3.5c6.3-8.4,12.4-16.9,18.7-25.3c2.4-3.1,5.1-6,7.9-9.2c-10.5-4.7-12.8-9-11.5-20.2
		c1.8,1.9,3.4,3.4,4.8,5.1c3.6,4.5,8.8,3.6,10.2-0.2c4.2-11.6,9.8-23.9,9.5-35.7c-0.2-9.2-2.4-18.8-2.2-28.5c0.1-6-1.8-10.4-9.6-9.5
		c-3.5,0.4-8.8,0.7-9.1-6c-5.1,0.8-10.1,1.7-15.2,2.5c0,0.6,0.1,1.1,0.1,1.7c1.9,0.4,3.9,0.8,5.8,1.3c-12.9,0.2-17.9,10.3-24.2,18.8
		c0.9-6.2,3-11.9,3.3-17.6c0.2-3.5-2.2-7.1-3.5-10.6c-1.7,2.9-4.7,5.9-4.8,8.9c-0.3,9.4,1.3,18.9,0.6,28.3c-1.8,25-5.1,49.6-21,70.6
		c-6.4,8.4-12,17.4-18.2,26c-1.4,2-3.9,3.3-5.5,5.2c-8.3,9.5-20.2,17.8-24.1,28.8c-19.1,53.1-35.7,107.1-53.9,160.6
		c-3.9,11.6-1.9,21.4,3.6,31.4c4.9-1.4,9.7-3.2,14.7-4.1c7.8-1.3,15.8-1.9,23.7-3c5.6-0.8,9-3,7-9.8c-1-3.5-0.5-7.4-0.7-11.3
		c3.1-0.3,5.1-0.5,7.1-0.7c-1.2,0.8-2.4,1.6-3.6,2.4c0.3,0.6,0.6,1.1,0.9,1.7c3.7-2,7.3-3.9,11.3-6.1c-0.9,2.9-1.7,5.4-2.8,9
		c4.4-1.6,7.9-2.8,11.4-4c-3.5,2.9-7,5.8-10.8,8.8c2.9,4,6.1,4.6,8.8,0.2c1.8-2.9,2.8-6.4,4.1-9.7c1.2,1,2.4,2.8,3.4,2.7
		c7.9-0.7,15.7-1.7,23.6-2.6c0.1,1,0.3,2.1,0.5,3.2c0.4,0.1,0.9,0.3,1.3,0.4c0.8-2.1,1.6-4.2,2.4-6.2c2.8,3.6,5.8,6.3,10.3,3.5
		c-3.1-3.4-5.9-6.7-10.2-11.5C623.5,1328.5,623.5,1330.4,623.5,1332.2z M707.9,875.9c-0.6-1-1.3-2-1.9-3
		c-6.8,3.8-13.8,7.4-20.3,11.6c-7.3,4.7-13.9,10.6-21.4,15c-19.6,11.5-42.2,14.4-63.7,20.4c-17.4,4.9-35.3,8.2-52.5,13.6
		c-8.5,2.7-16.4,8.3-18.6,20.3c8.7-2.9,12.6,1.3,16.9,7.4c3.9,5.5,2.3,10.3,0.8,15c-0.4,1.3-6.5,1.1-9.9,1.3
		c-2.4,0.1-4.8-0.3-8.6-0.7c4.4,7.3,8.2,13.7,12.8,21.3c9.3-18.7,11.9-20.6,21.7-17.3c-16.6,9.2-18,14.7-7.7,31.2
		c1.5,2.4,3.1,4.8,3.9,7.5c4.5,14.2,9,28.4,12.9,42.7c0.8,3.1-0.5,6.7-0.6,10c-0.1,4,0,8,0,12c3.4-0.8,5-1.8,6-3.1
		c15.9-20.6,29.7-42.5,39.9-66.5c2-4.7,3.9-9.6,4.7-14.6c1.8-12.2,5.5-23.2,15.5-31.5c4.7-3.9,8.9-8.6,12.6-13.5
		c10.9-14.3,21.4-28.9,32-43.4C691.1,899.8,699.4,887.8,707.9,875.9z M493.7,877c-8.8,8-10.6,13.4-6.8,23.2c3.2,8.1,6.9,16,11,23.7
		c1.7,3.2,5.1,5.6,7.7,8.4c0.6-0.4,1.3-0.8,1.9-1.3C503,913.1,498.4,895.1,493.7,877z M732.6,1325.7c-0.9,0.1-1.9,0.2-2.8,0.2
		c-0.5,8-1.3,16.1-1.2,24.1c0,2.4,2.5,4.7,3.8,7.1c2.5-2.2,6.8-4.2,7.1-6.7C740.7,1341.5,738.4,1332.9,732.6,1325.7z M604.3,1323.7
		c13.2,3.8,20.6-7.3,31.6-8.3c-5.4-2.4-8.7-7.6-15-3c-5.2,3.7-11.6,5.8-16.1,7.9c0.1,0,2.5,0.3,5.2,0.6
		C608.4,1321.6,606.9,1322.3,604.3,1323.7z M755.8,1384.6c0.6-0.7,1.2-1.4,1.7-2.1c-3.3-3.2-6.2-8-10-9c-2.8-0.8-7,3.4-11.4,5.9
		C743.9,1381.5,749.8,1383.1,755.8,1384.6z M646.5,976.8c8.8,5.2,13.5,2.2,14.2-9.5C655.5,970.8,651.3,973.6,646.5,976.8z
		 M653,1303.5c-0.3-0.9-0.5-1.7-0.8-2.6c-3.2-1-6.4-2-11.9-3.8c1.8,3.9,2.5,7.9,3.9,8.1C646.9,1305.8,650,1304.2,653,1303.5z
		 M635.3,1305.9c0.3-0.9,0.6-1.9,0.9-2.8c-6.7-2.3-13.3-4.6-20-6.9c-0.2,0.8-0.5,1.5-0.7,2.3C622.1,1301,628.7,1303.5,635.3,1305.9z
		"/>
	
		<radialGradient id="SVGID_00000026853387469652083370000017810711543682632348_" cx="1048.4055" cy="432.5641" r="265.0125" gradientUnits="userSpaceOnUse">
		<stop  offset="0" style="stop-color:#2379AF"/>
		<stop  offset="0.2014" style="stop-color:#2073A7"/>
		<stop  offset="0.5192" style="stop-color:#196190"/>
		<stop  offset="0.9118" style="stop-color:#0D446B"/>
		<stop  offset="1" style="stop-color:#0A3D62"/>
	</radialGradient>
	<path style="fill:url(#SVGID_00000026853387469652083370000017810711543682632348_);" d="M861.1,535.9c-8.1-2.5-17.1-5-25.9-8.3
		c-2.6-1-4.8-3.8-6.4-6.3c-8.4-12.9-16.6-25.9-24.6-39c-1.1-1.8-1.4-4.4-1.4-6.6c0.1-7.2,0-13.6-5.7-19.9c-3.4-3.7-2.8-11-3.9-16
		c3-1.7,7.7-3.5,7.5-4.5c-0.7-4-2.3-8.2-4.6-11.6c-6.7-10.3-14.3-20.2-14.7-33.3c0-1.3,0.8-3,0.2-3.8c-10.2-13,2.6-22.3,5.2-33.2
		c2.7-11.4,5.4-22.8,8.5-34.1c1.5-5.3,3.3-10.8,6.1-15.5c3.6-5.9,8-11.4,12.6-16.5c4.7-5.2,10.6-8.4,17.8-4.3
		c12,6.9,23.6,14.5,35.8,20.8c6.4,3.3,13.9,4.5,20.9,6.8c1.9,0.6,3.7,1.8,7.4,3.6c14.6-19,24.9-42.4,34.7-66.1
		c-1.3-1.1-3.1-1.9-3.4-3c-2.3-9.1-6.8-16.2-16.2-19.6c-1.3-0.5-3-3.6-2.6-4.3c5.3-8.5,2.9-21.7,16.8-25.8c3.9,5.5,9.7,11,12.1,17.6
		c3.8,10.2,10.6,16,20,19.9c4.5,1.8,9.2,3.3,13.5,5.5c6.4,3.3,10.2,1.1,12.5-5.1c2-5.5,5-10.9,5.8-16.6c0.5-3.7-1.7-8.1-3.3-11.9
		c-3.5-7.9-8.1-15.4-11.1-23.4c-1.6-4.4-1.4-8.7,6.5-8.2c7.8,0.5,15.5-1.1,22.4,4.5c1.7,1.4,6.6-1.5,8.9-0.3
		c12.3,6.4,24.2,13.8,36.5,20.2c3.7,1.9,8.6,3.2,12.7,2.6c12.2-1.7,21.3,3.8,24.8,15.5c0.9,3.1,3.1,6.6,5.7,8.5
		c22.4,15.9,45,31.5,67.5,47.3c1.8,1.3,4.1,3,4.7,5c3.6,11.6,13.1,13.1,23,14.4c2.5,0.3,5.3,0.3,7.2,1.6c8.7,5.7,17.2,11.4,28.4,7.6
		c0.5-0.2,1.3,0.5,3.4,1.3c-3.5,2.2-6.1,3.8-9.6,5.9c3.3,1.8,6.5,3.2,9.3,5.2c5,3.7,10.2,7.3,14.4,11.7c2.9,3,2.9,6.6-2.7,7.6
		c-4.7,0.8-9.4,1.6-13.9,3.1c-4,1.3-7.8,3.7-11.6,6.5c12.3,4.2,11.3,14.8,13.3,23.6c1.8,8.4,3.1,16.9,4.4,25.4
		c0.3,2.2,0.7,4.8-0.2,6.7c-8.1,17.3-2.4,35.4-4.6,54.8c14.1-2.7,26.6-5,39.1-7.5c3.5-0.7,6.9-2,10.4-2.9c13-3.5,13.5-3.7,18.4,9
		c6.2,16,11.4,32.5,17.2,48.6c1.6,4.5,3.7,9,6.3,13.1c3.8,5.9,3.3,8.1-3.5,9.9c-1.2,0.3-2.4,0.2-5.9,0.4c2,4.3,3.8,7.4,5,10.7
		c1.1,3.1,1.8,6.5,2,9.7c0.1,2.2-1,4.4-1.6,6.7c-0.7,2.5-1.4,4.9-2.1,7.3c-3.2-1-7.2-1.2-9.6-3.1c-9.6-7.7-9.9-7.3-18.7,0.8
		c-7.6,7.1-16.3,12.9-24.7,19.1c-1.1,0.8-3,1-4.4,0.9c-7.1-0.5-13.1,1.8-19.7,4.7c-6.8,3-15.5,1.8-23.4,2.2c-1.5,0.1-3-0.6-4.5-1
		c-9.5-2.9-16.3-1.1-23.5,7.1c-17.7,20.1-36.7,38.8-59,54.1c-20.1,13.8-41.2,13.7-63.3,8.1c-17.2-4.3-32.6-11.9-46.4-23
		c-1.5-1.2-3.5-1.9-4.7-2.6c-5.5,5.8-10.6,11.2-16.4,17.4c-2.3-11.5-14.6-5.6-21.7-11.3c4.2,9.8,8.4,19.6,12.9,30
		c-26.7,6.8-52.2,5.3-78.9,1.5c3.4-17.1,5.7-34,19.9-46.6c7.2-6.4,12.9-14.5,18.1-22.9c-4,1.6-8.8,5.2-11.8,4.1
		c-3.6-1.3-5-7.5-8.4-10.2c-8.9-7.1-18.1-13.8-27.6-20c-2.3-1.5-6.2-0.1-9-1.1c-4.8-1.7-10.6-2.8-11.2-10.2
		c-13.6,9.3-12.8,25.9-21.5,39.3c3.1-1.2,4.6-1.8,6.6-2.6c0,12.4,0,24.3,0,36.2C848,625,846.6,613.1,855,597
		c-1.2,1.4-3.3,2.7-3.5,4.4c-2.1,12.1-3.7,24.3-5.8,36.5c-1.4,8.4,2.7,10.4,9.9,9.7c1.8-0.2,3.5,0,5.3,0c0.6,6.3,0.2,6.4-17.1,3.6
		c-5.3,13.4-10.6,27.1-16,40.7c-0.5,0-1,0-1.6,0c-0.2-2.5-0.7-5-0.6-7.5c0.2-7.4,0.4-14.7,1.2-22c0.7-7.6-2.8-9.6-9.5-8.2
		c-1,0.2-2,0-2,0c3.3-2.1,9-3.9,11.1-7.7c2.5-4.3,2.5-10.4,2.3-15.8c-0.3-13.1-1.1-26.2-2-39.2c-1.4-19.9,10.7-31.3,25.4-40.8
		C857.4,547.5,862.7,545.1,861.1,535.9z M917.7,643.5c21.3,2.8,41.3-9.8,40.8-25.7C944.4,625.6,926,625.4,917.7,643.5z"/>
	
		<radialGradient id="SVGID_00000101081419779325956670000010973305641904519607_" cx="883.9717" cy="651.8998" r="26.2083" gradientUnits="userSpaceOnUse">
		<stop  offset="0" style="stop-color:#2379AF"/>
		<stop  offset="0.242" style="stop-color:#1A6393"/>
		<stop  offset="0.5379" style="stop-color:#114E78"/>
		<stop  offset="0.8003" style="stop-color:#0C4268"/>
		<stop  offset="1" style="stop-color:#0A3D62"/>
	</radialGradient>
	<path style="fill:url(#SVGID_00000101081419779325956670000010973305641904519607_);" d="M866.2,619.4c6.8,4.3,13.7,8.8,21.3,13.6
		c-0.6-2.1-1.2-4.3-1.9-7c4-1.4,8.2-2.9,14.2-5.1c-1.6,2.8-2.5,4.2-2.6,4.5c1.8,2.9,4.8,5.5,4.7,7.9c-1.2,16.6-4.4,32.8-13.5,48.2
		c-2.6-4.5-0.5-13.1-9-10.8c-0.5,4.7-1,9-1.4,13.3c-0.9,0.1-1.8,0.2-2.7,0.3c-1.2-2-3.9-5-3.3-5.9c4-6.2-1.3-9.8-2.6-14.7
		c-2.4-8.8-2.3-18.3-2.9-27.6C865.9,630.6,866.2,625.1,866.2,619.4z"/>
</g>
</svg>
