<?xml version="1.0" encoding="utf-8"?>
<!-- Generator: Adobe Illustrator 27.8.1, SVG Export Plug-In . SVG Version: 6.00 Build 0)  -->
<svg version="1.1" id="레이어_1" xmlns="http://www.w3.org/2000/svg" xmlns:xlink="http://www.w3.org/1999/xlink" x="0px"
	 y="0px" viewBox="0 0 829.8 463.6" style="enable-background:new 0 0 829.8 463.6;" xml:space="preserve">
<style type="text/css">
	.st0{fill:url(#SVGID_1_);}
</style>
<radialGradient id="SVGID_1_" cx="1525.8785" cy="2203.0198" r="296.9268" fx="1529.3682" fy="2205.1194" gradientTransform="matrix(-0.9877 0.1565 -0.1104 -0.6966 2166.1838 1567.0743)" gradientUnits="userSpaceOnUse">
	<stop  offset="0.3031" style="stop-color:#81BFDA"/>
	<stop  offset="1" style="stop-color:#B7E0FF"/>
</radialGradient>
<path class="st0" d="M758.5,266.1c-0.7-1.7-1.7-3.3-2.8-4.7c-1.5-1.7-3.2-3.1-5.1-4.6c-1.6-1.3-3.3-2.3-4.8-3.6
	c-1.3-1.2-2.2-2.8-3.6-3.8c-1.9-1.5-4.1-2.7-6.2-3.8c-2-1-4-2.2-6.2-2.6c-4.6-0.8-9.3-0.6-13.7-2.3c-0.6-0.2-1.3-0.2-1.9-0.2
	c-7.2-0.2-14.3-0.6-21.5-0.7c-5.5-0.2-10.9-0.3-16.4-0.1c-4.1,0.2-8.1,1.1-12.3,1.6c-0.7,0.1-1.4-0.1-2.7-0.2c2.4-2.5,4-5.1,6.4-6.5
	c3.4-2.2,5.8-5.3,8.5-8.1c2.5-2.7,4-6.5,8.3-7c0.1,0,0.2-0.1,0.2-0.2c4.4-2.9,9.2-5.3,14.4-6.3c3.4-0.7,6.1-3.3,9.8-3.1
	c0.2,0,0.6-0.2,0.7-0.3c2.1-2.7,6-4,6.2-8.1c-1.7-1-2.1-3.2-1.2-5c0.6-1.2,0.6-2.7,0.5-4.1c0-0.3-1.3-0.6-2.1-0.9
	c-0.4-0.2-0.7-0.5-1.2-0.7c-0.9-0.4-1.7-0.9-2.7-1.2c-2.7-0.7-5.5-0.3-8.1,0.2c-1.8,0.3-3.7,0.2-5.5,0.6c-2.1,0.2-4.2,0.5-6.3,1.1
	c-4.5,1.3-8.9,2.7-13.4,4.3c-2.2,0.7-4.3,2-6.3,3.1c-0.9,0.5-1.7,1.2-2.6,1.7c-7.4,4.4-14.7,8.9-22.2,13.3c-0.2,0.2-0.5,0.2-0.7,0.4
	c-3.7,2.8-7.4,5.7-11.2,8.5c-5.6,4.2-11.3,8.4-17.1,12.6c-5.3,4-10.4,8-15.7,11.8c-2.9,2.1-6,4-9,5.9c-0.4,0.2-0.9,0.3-1.4,0.5
	c-0.2-0.2-0.2-0.2-0.3-0.4c3-2.7,2.1-7.4,5.5-10.2c-0.3,1.7-0.6,3.1-1,5c0.8-0.7,1.2-1.1,1.7-1.4c2.2-1.9,4.4-3.7,6.5-5.7
	c2.7-2.6,5.1-5.3,7.8-8c0.7-0.7,1.5-1.3,2.2-2c3.6-3.1,7.4-5.9,11-9.1c2.8-2.5,5.4-5.4,8.1-8c2.5-2.4,5.1-4.6,7.5-7
	c2.7-2.5,5.1-5.5,8.1-7.5c2.7-1.7,4.8-4.2,7.5-5.6c4-2.2,7-5.3,10.8-7.5c4.5-2.8,8-6.4,11.6-10c0.9-0.9,1.6-2.1,2.6-2.5
	c1.3-0.7,1.8-1.4,1.9-2.8c0-0.6,0.7-1.3,1.2-1.7c1.7-0.9,3.4-1.7,5.1-2.6c0.3-0.2,0.5-0.7,0.7-1c0.5-0.7,0.9-1.7,1.6-2.2
	c1.7-1.3,1.7-2.3-0.1-3.9c-1.5-1.3-3-2.5-4.7-3.4c-3.2-1.7-6.3-4-9.6-5.7c-2.7-1.4-5.4-2.7-8.1-4c-1-0.5-2.3-0.4-3.2-0.9
	c-2.4-1.3-4.8-1.7-7.4-1c-0.9,0.2-2.1,0.1-3.1,0.2c-3.4,0.2-6.8,0.2-10.1,0.7c-1.5,0.2-2.8,0.9-3.4-1.3c-0.3,0.3-0.7,0.5-0.7,0.6
	c0.2,1.7-0.9,1.7-2.2,1.9c-1.6,0.2-3.1,0.6-4.6,1.1c-2.7,0.8-5.4,1.7-8,2.7c-1.5,0.6-3.2,1.1-4.4,2.1c-2.7,2.1-2.9,2.2-5.7-0.1
	c-1.1-0.9-2.5-1.6-3.9-2c-1.8-0.6-3.8-0.7-5.7-1c-1.2-0.2-1.7-0.8-0.9-2.1c3.5-5.3,6.5-10.9,8.9-16.8c2-4.9,4.1-9.7,6-14.6
	c0.8-2.2,1.4-4.4,1.9-6.6c0.5-2.2,0.7-4.4,0.9-6.6c0.2-1.3,0.1-2.8-0.2-4.1c-0.3-1.2-0.8-2.1,0-3.2c0.6-0.9,0.4-1.7-0.9-1.8
	c-1.7-0.2-3.4-0.7-5.1-0.9c-3.3-0.2-6.7-1.2-9.6,1.6c-0.2,0.2-1.3-0.4-2-0.9c-0.9-0.7-1.7-1.7-2.7-2.3c-0.9-0.6-2.1-0.8-3.1-0.8
	c-1.2,0-2.4,0.2-3.5,0.7c-1.5,0.6-2.9,1.3-4.4,2c-1.4,0.7-2.9,1.3-4.4,2.1c-0.7,0.3-1.3,0.7-2.1,1c-4.3,1.7-8.5,3.4-12.8,5.1
	c-0.2,0.1-0.3,0.2-0.5,0.3c-3.1,2.2-6.2,4.1-9,6.6c-3.3,2.8-6.5,5.9-9.4,9.1c-2.8,3.1-5.4,6.4-8.1,9.6c-0.3,0.4-0.7,0.8-0.9,1.2
	c-2.5,4.7-5,9.4-8.5,13.5c-1.3,1.5-1.7,3.8-3.1,5.2c-4.4,4.5-6.5,9.9-7.8,15.9c-0.2,1.3-0.5,3.1-2.5,3.3c-2.7,0.3-4.6,1.9-6.5,4.1
	c1,0.9,1.8,2.1,3,2.6c1.2,0.6,2.7,1,4.1,1.1c3.3,0.2,4.1,3,5.1,5.3c0.4,0.8,0.4,1.9,0.4,2.8c0,0.4-0.5,0.7-0.8,1.2
	c-0.3-0.2-0.7-0.5-1-0.7c-0.3-0.5-0.5-1.1-0.7-1.6c-1.3-2.3-3.1-3.7-5.8-4.1c-0.5-0.1-1,0.5-1.6,0.7c0.3,0.5,0.6,1.1,0.9,1.3
	c1,0.6,2.1,0.7,3.1,1.2c3,1.5,3.5,4.3,3.2,7.3c-0.1,1,0.2,1.7,1.3,2c1.7,0.5,3.5,1,5,2c5.5,3.4,6.8,8.5,4.1,14.3
	c-0.6,1.3-1.7,1.4-3,0.9c-0.1-0.1,0.2-1.5,0.6-2.1c1.3-1.9,1.7-3.8,0.7-5.9c-1.5-3-4.1-4.7-7.2-5.8c-0.7-0.2-1.7-0.2-2.3,0.2
	c-0.3,0.2,0,1.3,0,2.1c0.2,2.1,0.6,4.1,0.2,6c-0.2,1.5-0.2,2.7,0.6,4c1.3,2.7,1.7,5.5-0.2,8.2c-0.4,0.6-1.4,0.8-2.2,1.2
	c-0.2-0.7-0.7-1.3-0.8-2c-0.2-0.9,0-1.8,0.1-2.7c0-0.2,0.2-0.2,0.2-0.5c0.4,0.3,0.7,0.6,1.1,0.9c0.2-0.2,0.3-0.2,0.6-0.3
	c-0.5-0.9-0.9-2.1-1.6-2.8c-1.1-1.3-2.4-2.4-3.5-3.6c-0.5-0.6-0.6-1.3-0.9-1.9c0.8-0.2,1.7-0.9,2.5-0.8c1.9,0.2,2.5-0.4,2.1-2.2
	c-0.8-3.2-5.5-6.7-8.8-6.5c-2.1,0.2-2.4,0.7-2.7,2.7c-0.2,2.1-1,4-1.7,5.9c-0.2,0.3-0.7,0.6-1.2,0.9c-0.2-0.3-0.6-0.7-0.7-1
	c-0.2-0.6-0.4-1.2-0.7-1.7c-2.4-3.4-6.8-4.6-10.7-2.9c-2.4,1-4.7,2.2-7,3.1c-0.6,0.2-1.2,0.2-1.8,0.3c-0.1-0.2-0.2-0.4-0.2-0.6
	c1.8-3.8,4.9-6.2,9.3-6.8c-1.2-2.6-5.1-4.3-7.4-3.3c-0.2,0.2-0.6,0.4-0.7,0.7c-1,2.6-2.9,3.9-5.5,4.2c-2.7-4.2-3.6-9.9-10.3-9.9
	c1.4,1.6,0.3,2.2-0.9,2.5c-1.6,0.2-1.8,1.2-2.1,2.5c-0.2,1.9-0.7,3.7-1.2,5.5c-0.2,0.9-0.6,1.9-1.1,2.8c-0.3,0.6-0.9,0.9-1.4,1.4
	c-0.2-0.6-0.6-1.3-0.6-1.9c0.2-1.3,0.9-2.5,1.1-3.6c0.4-2.6-3.4-5.5-5.9-4.5c-1.5,0.6-2.9,1.2-4.4,2c-0.9,0.6-1.9,1.2-1.4,2.7
	c1.1-0.6,1.9-1,2.7-1.4c0.1,1.1-0.1,1.9-0.6,2.5c-0.5,0.6-1.2,1.4-1.7,1.3c-0.8-0.2-2-0.7-2.2-1.4c-1.7-4.1,0.5-7.8,4.8-8.5
	c1.2-0.2,2.6-0.5,3.6-1.2c1.7-1.2,3.4-1.3,5.3-1c1.1,0.2,1.9-0.1,2.6-1.2c0.7-1,1.7-2.1,2.7-2.7c1.7-0.8,3.3-1.3,3.2-3.6
	c0-0.2,0.4-0.2,0.7-0.4c0.2,0.6,0.3,1.1,0.5,1.6c0.2,1.5,1.1,1.5,2.2,0.9c1-0.6,2-1.2,3.1-1.5c3.1-0.8,4.7-3.3,7-5.1
	c0.2-0.2,0-1.3-0.3-1.5c-0.7-0.5-1.5-0.9-2.3-0.9c-2.1,0-3.5-1.1-4.6-2.5c-1.7-2-3.6-2.6-6-2.3c-1.5,0.2-2.9,0.5-4.4,0.8
	c-2.5,0.6-3.6,2.1-3.9,4.7c-0.1,0.6-0.2,1.2-0.2,1.9c-0.2,0-0.3,0-0.5,0c-0.2-0.7-0.6-1.3-0.9-2c-0.2,0-0.4-0.1-0.6-0.1
	c-0.2,0.7-0.5,1.4-0.4,2.1c0.2,1.4-0.6,1.7-1.7,1.7c0.2-2.4,0.5-4.6,2.8-5.7c0.7-0.3,1-1.4,1.3-2.2s0.4-1.7,0.7-2.8
	c-2.7,0.2-5.5-1.3-7.8,0.6c-0.5-0.7-0.7-1.8-1.2-1.8c-0.6-0.1-1.5,0.6-1.9,1.1c-0.8,1.3-1.4,2.8-2.1,4.3c-0.6,1.4-1.1,2.8-1.7,4.6
	c-1.3-2-1.3-3.9-0.3-5.3c0.8-1.2,1.9-2.2,2.5-3.5c1.5-3.5,4.5-3.7,7-4.1c1.6-1,2.7-1.7,3.9-2.5c-2.2-0.5-4,0.1-5.7,1.1
	c-2.2,1.2-2.2,1.2-3.1-1.2c-1.3,0.2-2.7,0.3-4,0.8c-1.7,0.6-3.3,1.2-3.7,3.4c-0.2,1.2-0.7,3.1-2.6,2.5c-0.6,0.6-0.9,1.3-1.3,1.4
	c-0.2,0.1-0.9-0.6-1.3-0.9c-1.3-1.7-0.9-2.9,1-4.3c0.7-0.6,1.3-1.4,1.5-2.3c0.1-0.2-1.2-1.3-1.8-1.3c-3.4-0.2-5.9,0.7-5.5,4.5
	c0.1,0.6,0.2,1.1,0.2,1.5c-0.2,0.4-0.7,0.9-1.1,0.9c-2.7,0-5.9-4.5-4.9-7c-4.3-2.2-8.4-1.4-12.5,0.5c-0.5-1.7,0.7-5.2,2-6.6
	c0.9-1,0.7-2.3-0.3-3.1c-2.5-1.6-5.7-0.4-6.5,2.5c-0.6,2-1.1,4-1.5,6c-0.2,1.3-0.5,2.4-2.1,2.7c-0.3,0.1-0.7,0.7-0.8,1.2
	c-0.6,2.2-1.7,2.8-3.6,1.6c-1.3-0.8-2.7-1.7-4-2.7c1.3-2.5,1-5.6,3.2-7.8c0.2-0.2-0.2-1.5-0.7-2.2c-0.2-0.2-0.9-0.5-1.3-0.4
	c-1.1,0.2-2.2,0.3-3.2,0.8c-1.1,0.5-2.1,1.2-3.2,1.8c-0.5,0.2-0.9,0.7-1.3,0.9c-0.2-0.5-0.6-0.9-0.7-1.5c-0.2-0.3,0.2-1-0.1-1.1
	c-0.8-0.6-1.7-0.9-2.7-1.4c-0.2,0.5-0.7,1-0.6,1.5c0.5,3.1,0.2,3.3-2.8,3.1c-0.4-0.1-0.8-0.2-1.2-0.2c-1.8,0.6-3.7,1-5.4,1.9
	c-0.6,0.3-0.2,2.1-0.2,3.1c0,0.2-0.2,0.2-0.3,0.5c-0.8-0.2-1.7-0.5-2.5-0.6c-0.9-0.1-1.7,0.2-2.7,0.3c-0.8,0.2-2,0.8-2.5,0.5
	c-1.2-0.7-2.5-1.9-2.8-3.1c-0.2-1,0.5-2.7,1.3-3.5c1.3-1.2,2.5,0.2,3.5,1.1c0.3,0.2,1,0.2,1.6,0.3c0.1-0.6,0.5-1.3,0.2-1.7
	c-0.9-1.3-2.3-1.7-4-1.6c-1.4,0.2-2.7,0.6-3.1,2.1c-0.2,0.9-0.6,1.7-0.9,2.5c-1.2,2.8-1.1,2.7-4,2.1c-3.2-0.7-6.6-0.6-9.6-2.5
	c-0.5-0.2-1.7,0.3-2.3,0.8c-0.2,0.2,0,1.3,0.3,1.8c0.9,1.2,2.1,2.2,1.2,3.9c-0.1,0.2,0.2,0.5,0.2,0.7c-0.1,0.7,0,1.6-0.4,2.1
	c-0.2,0.4-1.3,0.7-1.7,0.5c-0.6-0.4-1.1-1.2-1.4-1.8c-0.2-0.7-0.2-1.4-0.4-2.2c-0.2,0-0.3,0-0.6,0.1c-0.6,0.8-1,1.7-1.7,2.8
	c-0.4-1.6-0.7-2.7-1-4c1.2-0.2,2.1-0.3,3.1-0.5c-2.2-2-4.8-1.7-7.3-1.2c-4.4,1.1-7,4.4-9.7,7.8c0.6,0.1,0.9-0.1,1.2-0.2
	c1.4-0.7,2.8-1.8,4.4-2c3.4-0.3,6.8-0.2,9.9,1.9c0.8,0.6,1.7,1.2,2.8,1.3c2.8,0.6,4.4,2.4,5.5,4.7c0.6,1.3,1.3,2.7-0.5,3.6
	c-0.2,0.2-0.3,0.6-0.3,0.8c0.3,1.7,0.7,3.6,1.2,5.5c0.5-0.2,0.7-0.5,0.9-0.6c2-1.2,4.1-1.3,6-0.3c2,0.9,2.8,2.7,2.5,5.1
	c-0.2,0.6-0.2,1.3-0.2,1.9c0.1,0.5,0.3,1.2,0.7,1.3c0.2,0.2,1-0.2,1.3-0.6c0.6-0.6,1-1.3,1.7-1.8c3.6-2.4,7.4-4.1,11.6-4.7
	c3-0.5,7.2,1.9,8.2,4.7c0.6,1.4,1.3,1.7,2.7,2c2.2,0.2,4,1.2,4.7,3.5c0.7,1.8,1.3,3.6,2,5.5c0.2,0.7,0.6,1.3,0.9,2
	c1.2-1.7,2.1-3.5,3.3-4.8c2.7-2.9,5.9-4.7,10-4.3c0.9,0.1,1.8-0.2,2.8-0.3c3.4-0.6,6.6-0.6,9.7,1.3c2.5,1.5,2.5,1.7,1.7,5.1
	c-1.6-0.6-3.2-1-4.5-1.8c-2.9-1.8-8.1-0.6-10.3,3.1c1.7-0.2,3.1-0.3,4.4-0.7c2.5-0.8,4.1,0.4,3.7,3.1c-0.2,1.5-0.1,3-0.2,4.4
	c-0.2,1.2-0.6,2.2-0.9,3.4c-0.2,0-0.6,0.1-0.8,0.1c-0.6-1.2-1.9-2.7-1.6-3.5c0.9-2-0.5-2.5-1.6-2.8c-1.8-0.6-3.9-0.6-3.6-3.2
	c-0.4,0-0.6,0-0.7,0.1c-2,1.8-3.9,3.8-7,3.6c-0.4,0-1.2,0.9-1.3,1.5c-0.1,0.3,0.6,0.9,0.9,1.4c0.4,0.5,0.9,0.8,1.2,1.1
	c-1.7,1.7-3,3.2-4.4,4.7c-0.2-0.1-0.3-0.1-0.5-0.2c0.2-0.9,0.4-1.7,0.6-2.2c-0.8-0.9-1.5-1.7-2.2-2.5c-0.9-0.9-1.9-1.7-2.8-2.7
	c-0.2,0.2-0.2,0.2-0.4,0.3c0,0.9,0,1.9,0,3.2c-0.5-0.5-0.7-0.7-0.8-0.9c-0.5-1.3-1.1-2.5-2.9-2.1c-0.4,0.1-0.9-0.2-1.4-0.6
	c-1.7-0.9-3.2-2.1-5-3c-3.8-2.1-7.8-3-12-1.4c-2.7,1-2.7,1-3.6-1.5c-1.3,0-2.6,0.2-3.9,0c-1.8-0.2-3.6-0.5-5.5-0.8
	c-0.5-0.1-0.9-0.5-1.3-0.7c-1.7-0.7-3.5-1.9-5.1-1.7c-1.9,0.2-3.2-0.2-4.9-0.8c-3.5-1.2-7.3-1.7-10.9-2.4c-0.6-0.2-1.2-0.2-1.7-0.2
	c-0.1-0.2-0.2-0.6-0.2-0.7c1.3-0.7,2.6-1.3,3.9-2.1c0.3-0.2,0.8-0.6,0.9-0.8c0-0.3-0.3-0.8-0.7-1c-0.7-0.5-1.7-0.7-2.4-1.3
	c-0.5-0.3-0.8-1-1.2-1.6c0.5-0.3,0.9-0.9,1.5-1c2-0.2,3-1.3,3.9-3.1c0.7-1.3,1.8-2.5,2.8-3.8c1.3,2.1,3.1,2.5,5,1.4
	c-0.5-0.2-0.9-0.5-1.3-0.8c-2.8-2.1-3.4-2.1-6.3-0.2c-0.9,0.6-1.6,1.3-2.4,2c-1.7,1.2-3.3,2.2-5,3.2c-0.2-0.2-0.4-0.2-0.6-0.5
	c0-1.3-0.1-2.5,0-3.8c0.1-1.4-0.2-2.2-2-2.1c-0.6,0.1-1.2-0.4-2.4-0.7c0.8-0.5,1-0.6,1.2-0.7c0.5-0.3,0.9-0.6,1.4-0.9
	c-0.5-0.3-0.9-0.9-1.5-1.1c-2.1-0.6-3.9,0.3-4.9,2c-2.1,3.2-5.1,3.1-8.4,3.1c-2.4,0-4.7,0.7-7.1,1.2c-0.4,0.1-1,0.2-1.2,0.2
	c-0.3-0.3-0.6-0.9-0.5-1.3c0.2-0.9,0.6-1.7,1-3.2c-2,0.8-3.6,1.2-5.1,2.1c-1.4,0.9-2.5,2.2-4,3.6c-0.1-0.7-0.2-1.1-0.1-1.5
	c0.5-4.1,3.2-6.1,6.8-7c2-0.6,3.6-1.1,5.2-2.6c1.5-1.4,3.1-1.3,4.7,0.2c-1.8,1.3-3.6,2.7-5.5,4c2.7,0.4,5.2,0.2,7.8,0.4
	c1.2,0.1,1.5-0.4,1.8-1.3c0.4-0.9,1.2-1.7,1.8-2.5c0.5-0.6,1.2-0.8,1.7-1.2c-0.1-0.2-0.1-0.4-0.2-0.6c-1.7-0.2-3.2-0.4-4.8-0.7
	c-0.5-0.2-1.1-0.8-1.1-1.2c0-2.2,2.7-3.9,5-3.2c1,0.2,1.5,0,2.3-0.6c1.2-0.9,2.7-1.7,4.1-2.1c1.9-0.7,4.1-0.7,5.9-1.6
	c1.4-0.7,3.6-1.3,3.3-3.6c-0.2-1.7,0.6-2.5,1.7-3.2c1.7-1.3,6.2-1.3,8,0.1c0.7,0.6,0.9,1.6,1.4,2.4c0.2,0.5,0.4,1,0.6,1.6
	c0.2-0.1,0.4-0.1,0.7-0.2c0-0.9,0.1-1.7,0-2.7c-0.2-1.7-0.7-3.5,1.2-4.6c3.1-1.9,7.5-0.3,8.9,3.1c0.7,1.7,1.3,3.6,2.2,5.6
	c0.4-0.7,0.8-1.3,0.9-1.9c0.4-3.8,2-6.5,6-7.5c4.2-1.1,8.3-2,12.2,0.9c0.3,0.2,1.1,0.2,1.6,0c1.8-0.5,3.6-1.1,5.5-1.6
	c2.3-0.6,4.7-0.2,7-1.5c2.1-1.1,5.1-1.6,7.4,0.1c1.7,1.2,3,2.8,4.5,4.2c-0.2,0.2,0,0,0.2-0.2c2.5-4.8,5.1-5.9,10.3-4
	c0.6,0.2,1.3,0.2,1.8-0.1c2.9-1.5,6-1.7,9.3-1.6c3.6,0.2,6.6,2.8,7.5,6.3c0.4,1.7-0.2,2.6-2.1,2.8c-0.6-3.5-3.1-4.7-6.1-5.4
	c-3.6-0.8-7.3,1.2-7.9,4.2c-0.4,1.9-0.2,2.2,1.7,2c3.9-0.6,7.4,0.1,10.1,3c0.6,0.7,1.2,0.9,2.1,0.2c2.2-1.5,4.6-2.8,7.5-1.9
	c0.9,0.2,2.2,0.2,3.1-0.1c1.8-0.5,3.6-1.7,5.5-0.8c0.3,0.2,0.9-0.1,1.3-0.2c3.2-2.3,7-2.4,10.6-1.9c3.7,0.5,6.8,2.2,8.2,6.1
	c0.6,1.4,1.3,2.7,2.1,4.4c0.7-0.9,0.9-1.4,1.4-1.8c0.8-0.8,1.7-1.7,2.6-2.2c2.7-1.2,5.6-1.8,8.6-1.6c3.3,0.3,6.3,1.4,8.1,4.5
	c0.8,1.4,1.9,1.7,3.3,1.7c1.5,0.1,3.1,0.2,4.5,0.8c3.3,1.4,5.6,3.8,5.5,8c0.5-0.7,0.7-1.2,1-1.7c2.1-3.1,4.4-6.2,6.4-9.4
	c3.5-5.4,4.7-11.6,6.6-17.6c0.5-1.6,0.3-3.3,0.6-5c0.7-4.7,1.1-9.4-0.5-14.2c-0.4-1.2-0.7-2.4-0.8-3.6c-0.4-3.9-1.4-7.5-4-10.5
	c-0.4-0.5-0.7-1.1-0.9-1.7c-3.7-8.1-10.4-12.7-18.5-15.6c-2.6-0.9-5.5-0.7-7.7-2.8c-2.4-2.2-5.1-2.7-8.2-1.2
	c-0.5,0.2-1.2,0.2-1.7,0.3c-1.7,0.4-3.1-1-4.7-1.2c-3-0.2-6-2.1-9.1-0.7c-0.4,0.2-1.1-0.2-1.7-0.3c-0.8-0.2-1.7-0.3-2.5-0.5
	c-1.7-0.3-3.4-0.7-5.1-1.1c-1.3-0.2-2.8-0.6-4.1-0.7c-1.6-0.2-3.1-0.2-4.6-0.3c-3.5-0.2-7-0.9-10.4,0.6c-4.9,2.2-10.4,3.2-14.6,6.9
	c-1,0.9-2.5,1.2-3.7,1.7c-0.7,0.2-1.7,0.3-2.1,0.8c-1.5,1.3-2.8,2.8-4.1,4.4s-2.7,3.1-3.6,5c-0.6,1.3-1.2,1.8-2.7,1.7
	c-5.6-0.2-11.2,1-16.6,2.4c-4.2,1-8.4,2.5-12.8,2.8c-4.1,0.4-8.4,1.6-12.3,3.3c-4.7,2.2-9.5,3.4-14.3,4.8c-2.5,0.7-4.7,2.8-7,4.4
	c-1.2,0.9-2.1,2.2-3.2,3.4c-0.2-0.1-0.6-0.1-0.9-0.2c-0.6-1.4-1.7-2.9-1.5-4.2c0.2-1.3,0.1-1.9-1.2-2c-1.5-0.1-1.9-0.9-2.2-2.2
	c-0.2-1.1-0.7-2.2-1.3-3.1c-0.7-1-1.8-1.7-2.7-2.8c-5.7-7.1-13.4-11.2-22-13.7c-3.8-1.1-7.9-1.2-11.8-1.9c-3.6-0.6-7-0.3-9.9,1.9
	c-1.7,1.2-3.6,1.7-5.5,0.7c-3.4-1.7-7-3.1-9.9-5.4c-2.1-1.7-4.3-2-6.5-2.9c-1.3-0.6-2.9,0.2-4-0.2c-2.4-0.7-4.6-0.2-6.9,0
	c-2,0.2-3.3,1.6-3.2,2.7c-1,0.6-1.7,1.1-2.4,1.4c-4.7-0.4-9.4-0.7-14-1.2c-0.3,0.7-0.6,1.3-0.9,1.7c-1.4,1.4-1.7,2.7-0.2,3.8
	c1.5,1.2,1.3,2.4,0.5,3.7c-2.9,4.6-2.5,8.8,1.5,12.6c0.6,0.6,1.1,1.1,1.6,1.7c0.9,1.3,2.5,2.7,2.5,4s-1.6,2.7-2.5,4
	c-3.7,6-5.9,12.4-5.9,19.5c0,1.7-0.6,1.9-2,1.3c-0.9-0.3-1.9-0.4-2.8-0.6c-2.2-0.3-4.6-0.3-6.6-1.1c-1.8-0.7-3.3-1.3-5,0.3
	c-0.6-0.6-0.9-1.1-1.3-1.6c-0.2,0.1-0.3,0.2-0.5,0.2c0.2,0.5,0.2,0.9,0.5,1.3c0.3,0.4,0.7,0.7,0.9,1.1c-0.2,0.2-0.2,0.2-0.3,0.3
	c-1.2-0.5-2.2-0.9-3.3-1.4c-0.2,0.7-0.3,1.1-0.3,1.1c-1.3-0.2-3.1-1.1-3.6-0.7c-1.7,1.8-3,0.3-4.4,0.2c-0.9,0.5-1.7,0.9-2.7,1
	c-1,0.2-2.1,0.2-3.5,0.3c0.7,1.1,1.2,1.7,1.7,2.3c-1.3-0.1-2.5-0.5-3.5-0.9c-0.6-0.2-1.2-1.1-1.7-1c-0.7,0.2-1.3,0.9-2,1.6
	c-0.2,0.2-0.3,0.7-0.6,1c-0.3-0.2-0.7-0.6-1.1-0.9c-1.3,0.9-2.8,1.8-4.4,2.8c0.7,0,1.4,0,2.2,0c-0.2,0.6-0.2,1.1-0.2,1.6
	c0.6,0.1,1,0.1,1.4,0.1c0.1,0.2,0.1,0.4,0.2,0.6c-2.6,1.7-6.1,0.7-7.9,1.8c-2.5-0.2-4.1-0.5-5.7-0.7c2.8,0.7,3.1,1.2,1.8,3.2
	c-0.4-0.5-0.9-0.9-1.3-1.4c-0.5,0.6-0.9,1.2-1.5,1.8c-0.2-0.6-0.4-1.3-0.8-1.7c-0.7-0.6-1.6-1.4-2.4-1.4c-0.7,0-1.7,0.8-2.4,1.3
	c-0.5,0.3-1.2,0.9-1.1,1.2c0.2,0.7,0.9,1.7,1.3,1.7c1.7-0.1,2.1,1.3,2.6,2.4c0.2,0.6,0.2,1.4,0.2,2.1c-0.7-0.2-1.5-0.2-2.1-0.6
	c-2.9-1.7-5.7-3.8-8.8-5.2c-4.9-2.3-10.1-4-14.8-6.5c-4-2.2-8.3-2.8-12.4-3.7c-4-0.9-8.1-0.6-12.3-0.7c-0.2,0-0.2,0.1-0.3,0.2
	c-2.2,0.6-4.6,1.2-7,1.7c0.1,0.2,0.2,1.1,0.2,1.1c1.8-0.1,3.6-0.2,5.9-0.3c-0.7,0.4-1.2,0.9-1.7,0.9c-2.3,0.5-4.6,0.9-7,1.3l0,0l0,0
	v-0.1l0,0l0,0c-0.9,0.4-1.7,2.1-2.8,0.5c-0.2-0.4,0.2-1.4,0.5-2.3c-0.2,0.1-0.9,0.2-1.5,0.2c-0.2-0.4-0.3-0.7-0.7-1.6
	c-1.3,0.9-2.4,1.7-3.5,2.6c-0.9,0.2-2.1,0.6-2.5,1.2c-0.2,0.6,0.6,1.7,1.1,2.8c-0.2,0.2-0.5,0.9-0.8,1.7c-1.1-2.3-2.2-0.1-3.4,0
	c0.2-0.5,0.3-0.8,0.7-1.7c-0.9,0.5-1.7,0.7-2.1,1.2c-1.7,1.7-3.5,3.4-5.1,5.1c-0.2,0.3-0.3,1.2-0.2,1.7c0.6,1.3,0.9,2.8,2.8,3.1
	c0.4,0.1,0.9,0.6,1.2,0.9c0.7,1.4,1.2,2.8,1.7,4.3c0.7,1.9,1.2,4,4.1,3c0.2-0.1,0.5,0.2,0.7,0.2c2.7,1.4,5.5,2.8,8.2,4.4
	c2.5,1.4,5.1,2.8,7.5,4.4c2.1,1.3,4,3,6.4,4.8c-1.4,0.2-2.2,0.2-2.9,0.3c-3.8,1.1-7.8,2-11.4,3.6c-3.3,1.3-7,2.3-9.5,5.3
	c-2.8,3.4-5.5,6.8-8.3,10.3c-0.9,1.2-1.5,2.7-2.6,3.7c-1.2,1.2-2.8,1.8-4.2,2.7c-1.2,0.7-2.8,0.4-3.4-0.3c-1.3,0.6-2.7,0.9-3.7,1.6
	c-0.8,0.5-2,1.3-2,2.1c0,0.8,0.9,2.1,1.7,2.4c1.3,0.5,2.8,0.2,4.2,0.5c0.6,0.1,1.1,0.4,1.7,0.6c-0.3,0.3-0.7,0.6-1,0.9
	c-0.7,0.8-1.6,1.6-2.3,2.4c-0.6,0.6-0.9,1.4-1.5,1.8c-2.3,1.7-5,3.5-5.3,6.3c-0.4,3.1-1.8,4.2-4.4,5c-0.3,0.1-0.7,1.9-0.3,2.2
	c2.2,1.8,2.3,5.7,5.8,6.4c0.1,0,0.2,0.2,0.2,0.2c1,1.5,2,3.1,3,4.6c0.3,0.5,0.9,0.9,1.5,1.1c2.2,0.6,4,2.1,5.6,3.6
	c0.9,0.9,2.1,1.5,3.2,2.1c4.1,2.1,8.3,4.1,12.4,6.2c2.7,1.3,5.5,2.7,8.5,2.8c0.7,0,1.3,0.4,2.1,0.6c2.2,0.6,4.4,1.4,6.7,1.7
	c2.8,0.2,5.1,1.1,7,3.1c1.6,1.7,1.2,3.1-1.1,3.8c-0.6,0.2-1.1,0.6-1.5,0.9c-0.6,0.6-1.1,1.2-1.4,1.9c-0.2,0.6-0.7,1.4-0.5,1.7
	c0.2,0.4,1.2,0.6,1.7,0.6c0.7,0,1.4-0.6,2-0.3c1.3,0.5,2.5,1.3,3.6,1.9c0.5,0.2,1,0.2,1.6,0.2c1.4-0.2,2.8-0.6,4.3-0.6
	c4.5,0,8.9,0.2,13.4,0.2c1.1,0,2.2-0.2,3.2-0.3c2.8-0.2,5.8-0.6,8.6-0.3c4.7,0.2,9.4,0.8,14,1.3c0.6,0.1,1.2,0.2,1.7,0.2
	c-2.2,1.4-4.1,2.7-6.1,4c-0.7,0.5-1.7,0.6-2.5,0.9c-2.7,0.7-5.5,1-7.9,2.2c-5.7,2.9-11.6,5.5-16.3,10c-2.5,2.4-5,5-3.8,9.1
	c0.6,2.1,0.7,4.3,1.2,6.4c0.1,0.3,0.2,0.8,0.5,1.1c2.3,2.2,2,5.5,3.2,8.1c1.7,3.6,4.6,5.9,8.4,4.8c2.8-0.8,5.6-2.1,8.4-3.2
	c1.7-0.7,2.4-0.4,2.9,1.3c0.2,0.8,1,1.5,1.6,2.3c0.4,0.6,0.9,1.2,1.2,1.9c0.2,0.6,0.3,1.2,0.6,1.8c0.4,0.9,1,1.9,1.3,2.8
	c0.6,1.5,3.2,3.8,4.7,4c4.7,0.7,8.7-0.6,11.7-4.4c0.6-0.7,1.4-1.2,2.2-1.5c2.8-0.9,5.6-1.6,8.4-2.3c2.5-0.7,5.1-1.2,7.4-2
	c3.6-1.2,7-2.8,10.6-4c7.6-2.5,15.3-5,22.9-7.4c0.5-0.2,1-0.2,1.5-0.2c2.5,0.3,4.4-0.7,5.5-2.7c0.7-1.2,1.5-0.9,2.5-0.5
	c1.7,0.8,3.4,1.6,5.1,2.4c0.6,0.2,1.4,0.5,1.8,0.9c1.6,1.8,3.6,1.8,5.5,1.3c3.4-0.8,6.5-1.1,9.5,1.2c0.6,0.5,1.6,0.4,2.5,0.6
	c1.1,0.2,2.2,0.3,3.2,0.6c1.3,0.2,2.1,0.8,2,2.4c-0.1,0.7,0.2,1.7,0.6,2.2c2.1,2,3.2,4.6,4.7,6.9c0.4,0.6,1.2,1,1.7,1.6
	c1.2,0.9,2.2,2,3.4,2.8c0.6,0.4,1.6,0.8,2.2,0.7c1.4-0.2,2.8-0.9,4.1-1.5c1.2-0.5,2.3-1.2,3.6,0c2.8,3.1,6.5,2.4,9.2,0.7
	c1.7-1,3.3-1.7,5.3-1.9c2.2-0.3,2.9-0.1,3.2,2.2c0.3,2.5,0.1,2.9-2.5,2.8c-2-0.1-4.2-0.5-5.5,1.8c-0.2,0.3-0.9,0.3-1.3,0.6
	c-2.3,1.4-4.7,2.7-7,4.3c-1.1,0.8-0.6,3.1,0.6,3.7c2.5,1.4,5.1,2.9,7.6,4.3c0.7,0.4,1.7,0.1,2.7,0.3c0.9,0.2,2.2,0.6,2.4,1.2
	c0.7,1.8,0.9,4,1.6,5.9c0.2,0.7,0.8,1.7,1.4,1.8c0.6,0.2,1.5-0.4,2.1-0.9c2-1.8,4.3-3.1,7-3.2c3.3-0.2,6.6-0.2,10-0.2
	c3.1-0.2,6.2-0.4,9.3-0.5c2.2-0.1,4.7,1.7,4.9,3.2c0.2,3.2,0.6,6.4,1.1,9.6c0.2,1.3,0.9,2.7,1.3,4c0.2,0.6,0.5,1.3,0.4,2
	c-0.3,1.9,0.2,3.6,1.3,5.1c0.5,0.7,0.9,1.4,1,2.2c0.2,1.5,0.3,3.1,0.5,4.6c0.1,1-0.1,2.1,0,3.1c0.1,1,0.2,2.1,0.6,2.8
	c0.2,0.2,1.6-0.2,2.6-0.3c1.8,1.7,3.9,3.6,5.9,5.4c1.6,1.3,2.5,2.8,2.2,5.1c-0.2,1.3,0.2,2.9,0.7,4.1c2,4.2,4.2,8.3,6.3,12.4
	c1.5,3,3.2,5.9,4.2,9.1c1.4,4.7,3.2,9.3,4.3,14.2c1.1,4.8,2.4,9.6,2.7,14.6c0.2,3.1,2.3,5.8,5,5.8c2.8,0,5.6-0.4,8.5-0.5
	c3.2-0.1,6.5,0.2,9.8,0.2c2.7,0.1,5.4,0,8.5,0c-1.3-1.7-2.3-2.7-2.9-3.9c-0.7-1.4-1.2-3.1-1.7-4.6c-0.4-1.2-0.9-2.3-0.9-3.6
	c-0.1-1.3,0.2-2.7,1.7-3.1c0.5,0.8,0.9,1.5,1.3,2.1c0.6,0.8,1.2,1.7,1.8,2.5c1.9,2.8,3.7,5.9,5.8,8.5c0.6,0.8,1.8,1.5,2.8,1.6
	c2.2,0.2,4.5,0.1,6.7,0c1.1,0,1.7-0.7,1.4-1.7c-0.2-1-0.7-2-1.2-2.9c1.7-0.1,2.2-0.8,1.7-2.5c-0.2-0.7-0.7-1.2-1-1.8
	c-0.4-0.7-1.1-1.5-1.1-2.2c-0.1-2.5,0.2-5.1,0.2-7.6c0-1.7-0.1-3.6-0.1-5.4c0-0.8,0.1-1.7,0-2.5c-0.1-4-0.7-7.9-0.2-11.8
	c0.6-5.1,2.1-9.9,3.2-14.8c0.3-1.6,0.6-3.2,1.3-4.6c1.7-3.8,3.6-7.5,5.5-11.2c0.6-1,1.7-2.2,2.7-2.5c2.6-0.6,5.3-0.6,8-0.8
	c2.2-0.2,3.7-1.6,4-3.7c0.1-0.7,0.2-1.4,0.4-2.1c1.7-3.8,3.3-7.4,7.7-9.4c3.1-1.4,5.5-4.3,8.4-6.5c4.4-3.4,8.9-6.6,13.2-10
	c1.3-1,2.5-1.3,3.4,0.4c0.4,0.7,0.9,1.4,1.4,2.1c0.6,0.6,1.2,1.5,1.8,1.6c3.6,0.6,7.2,1.2,10.8,1.3c2.4,0.1,4.8-0.7,7.3-0.8
	c1.7-0.1,3.6,0.1,5.2,0.4c3.1,0.6,4.4-0.5,3.7-3.6c-0.1-0.5-0.2-1.1-0.5-1.4c-1.7-2.2-3.1-4.4-5-6.3c-1.3-1.3-3.1-2.3-4.6-3.4
	c-1.2-0.9-1.4-2.2-0.3-2.4c1.4-0.2,3-0.2,4.3,0.2c2.1,0.7,3.9,2.2,6,3c1,0.4,1.7,0.7,2.3,1.7c0.3,0.6,1.3,0.6,2.1,0.9
	c1.7,0.6,3.4,1.2,5,1.9c2.7,1.3,5.1,2.8,7.8,4.2c1.9,1,3.8,2,5.7,3c0.9,0.6,1.8,1.2,2.8,1.6c2.1,0.7,4.4,1.2,6.5,2.1
	c5.2,2.1,10.4,4.2,15.7,6.5c1.3,0.6,2.5,1.3,3.6,2c2.5,1.5,4.9,3.1,7.5,4.4c2.9,1.5,6,2.8,8.9,4.2c1.6,0.7,2.9,1.8,4.5,2.7
	c2.5,1.3,4.4,3.1,5.3,5.9c1.5,4.4,6.5,6.9,10.9,5.7c2.3-0.6,4.7-1,7-1.2c5.1-0.2,8.5-4.3,7.7-9.5c-0.2-1.3,0.4-2,1.7-1.5
	c0.9,0.2,1.7,0.8,2.5,0.9c2.1,0.2,3.2,1.2,3.6,3.3c0.2,0.7,1.2,1.5,1.9,1.9c0.8,0.5,1.8,0.6,3,0.8c2-0.2,4.4-0.7,6.6-0.9
	c3.1-0.2,4.9-2.8,7.3-4.2c0.1,0,0.1-0.2,0.1-0.2c0.8-1.2,1.6-2.2,2.5-3.6c-0.3-1.5-0.2-2.2,1.4-3c-0.2,0.8-0.2,1.4-0.2,2
	c0.5-0.5,0.7-1.1,0.8-1.7c0.7-3.6,1.2-7.1,2.2-10.6c0.8-2.8-0.3-5.9,1.3-8.6c0.1-0.2-0.2-0.6-0.4-0.8c-0.7-0.7-1.6-1.3-2.4-2
	c-1.5-1.3-3-2.6-4.6-3.7c-1.3-1.1-2.7-2.5-4.2-2.9c-3.3-0.8-6.1-2.6-8.8-4.4c-4.4-3-8.9-4.5-14.2-3.9c-1.7,0.2-3-0.1-4.4-0.9
	c-1.3-0.8-3-1.2-4.6-1.5c-2.7-0.7-5.5-1.3-8.3-1.8c-1.7-0.3-3.2-0.6-4.9-0.7c-1.2-0.2-2.3-0.1-3.5-0.2c-3.2-0.2-6.5-0.6-9.8-0.6
	c-5.5,0-11.2,0.4-16.8,0.4c-3.2,0-6.5-0.3-9.9-0.5c-3.4-0.2-6.8-0.1-10.1-0.3c-2.4-0.2-4.7-0.7-7-1.2c-0.6-0.2-1.1-0.8-1.3-1.3
	c-0.2-0.7-0.2-1.7-0.2-2.5c-0.2-2.7-1.5-3.6-4.1-3.6c-1.7,0-3.6-0.3-5.5-0.6c2-3.1,4.4-4.1,7.4-3.7c2.4,0.2,5,0.2,7.3-0.2
	c5.4-1.1,10.7-2.5,16-3.8c1.3-0.3,2.7-0.3,4-0.7c2.7-0.6,5.4-1.2,8-1.9c3.5-0.9,6.9-2.1,10.4-2.9c3.2-0.7,6.6-0.9,9.9-1.8
	c7-2.1,14.3-1.7,21.5-1.6c6.6,0.2,13.1,0.6,19.7,0.8c1.3,0.1,2.7-0.2,4.1-0.2c1.9-0.2,3.8-0.4,5.7-0.2c4.6,0.2,9,1.2,13.6-0.4
	c2.1-0.7,3.6-1.7,4-4c0.5-2.2,1.3-4.1,3.2-5.5c1.1-0.8,1.8-2.1,2.6-3.3c1.6-2.6,5.3-3.6,7.5-2.3s4.1,3.4,7,3.3
	c0.4,0,0.9,0.6,1.3,0.9c0.2-0.2,0.3-0.6,0.6-0.9c2.2,1.2,3.5,0.9,5.1-1c2.5-2.9,3.1-6.6,4.3-10.1c0.7-2.1,0.9-4.3,1.3-6.5
	c0.5,0.9,0.4,2.1,0.9,2.6c1.4,1.2,2.9,2.6,5.1,2.1c0.7-0.2,1.5-0.1,2.2,0.1c1.8,0.5,3.6,1.1,5.5,1.6c1.7,0.4,3.3,0.5,4.8,1.2
	c2.1,1,4.1,2.5,6,3.7c1.7,1.1,4.7,1.3,5.9,0.5c1-0.7,2.7-4.6,2.1-5.5c-0.9-1.6-1.8-3.2-3.2-4.2c-1.4-1.1-2.2-2.5-3.1-3.9
	c-1.3-1.7-2.5-3.6-4-5.1c-1.2-1.3-2.7-2.6-4-3.8c-0.8-0.7-1.7-1.6-2.7-2.2c-0.7-0.6-1.7-0.9-2.5-1.3c-1.1-0.6-2.2-1.2-3.2-1.9
	c-1-0.6-2-1.3-2.9-2c0.1-0.3,0.2-0.7,0.2-0.9c6-0.3,12-0.6,18-1c2.8-0.2,5.8-0.6,8.6-0.7c3.4-0.2,7-2.1,9.8,1.7
	c0.1,0.1,0.2,0.1,0.3,0.1c0-0.2,0-0.3,0-0.6c0.9,0,2-0.1,2.9,0.1c0.2,0,0.3,0.6,0.5,0.9c-0.7,0.2-1.3,0.4-2.1,0.7
	c0.2,0.6,0.2,1.5,0.7,1.7c2,1.2,1.9,3,2,4.9c0.1,1.7,1.1,2.7,2.3,2.5c1.7-0.3,3.4-2.4,3.1-3.6c-0.6-1.9-1.2-3.8-1.6-5.7
	c-0.2-0.6,0.3-1.2,0.6-1.8c0.6,0.3,1.2,0.7,1.7,1.1c0.5,0.3,0.7,0.9,1.2,1.3c0.2,0.2,0.7,0.5,1,0.7c-0.3,0.4-0.7,0.7-0.9,1.2
	c0.2,1.8,0.6,3.6,0.9,5.5c0.2,0,0.3-0.1,0.6-0.1c0.4-0.6,0.7-1.1,0.8-1.2c1.3,0,2.6,0.3,3.1-0.1
	C758.7,268.1,758.8,266.8,758.5,266.1z M601,226.1c1.7-1.7,3.5-3.6,5.5-5.1c1.4-1.1,2.5-0.4,2.5,1.3c-0.1,1.7-0.3,3.6-1.1,5.1
	c-1.2,2.2-2.9,4.1-4.5,6c-0.2,0.3-0.8,0.6-1.2,0.7c-0.2-0.2-0.2-0.2-0.4-0.4c2-3.1,5.2-5.4,5.6-9.5c-0.3,0.2-0.7,0.2-0.9,0.2
	c-0.9,2.1-3.2,1.5-4.7,2.5c-0.2,0.1-0.6,0-0.7-0.1C601,226.7,600.8,226.3,601,226.1z M598.4,155.8c0.2,0.2,0.4,0.2,0.7,0.4
	c-0.5,0.9-0.9,1.7-1.3,2.6c-0.2-0.2-0.6-0.3-0.8-0.5C597.4,157.5,597.9,156.6,598.4,155.8z M595.4,160.4c0.2,0.2,0.5,0.4,0.7,0.6
	c-0.4,0.4-0.9,0.8-1.2,1.3c-0.2,0.5-0.4,1.1-0.6,1.7c-0.2-0.1-0.7-0.1-1.5-0.2C593.9,162.4,594.7,161.4,595.4,160.4z M471.1,170.3
	c0.7,2.9-0.2,5.3-2.5,5.9C468.1,171.5,468.4,171,471.1,170.3z M360,159.3c-0.6-0.1-0.9-0.7-1.4-1.2c0.6-0.6,1.2-1.2,1.8-1.6
	c0.2-0.1,0.8,0.7,1.7,1.6C361.1,158.8,360.6,159.4,360,159.3z M387.3,159.2c0,0.2-0.5,0.5-0.7,0.7c-0.7-0.9-1.3-1.7-2.1-2.6
	c0.2-0.2,0.5-0.4,0.7-0.6C386.4,157.1,387.5,157.6,387.3,159.2z M401.3,171.9c-0.2-1-0.2-2-0.3-3c0.2,0,0.4-0.1,0.6-0.1
	c0.2,0.9,0.5,2,0.7,2.9C401.9,171.8,401.5,171.9,401.3,171.9z M411.1,170.1c-0.3,0.9-1.2,1.7-1.9,2.6c-0.3-0.2-0.7-0.2-1-0.4
	c0.2-1.1,0.2-2.2,0.4-3.2c0.2-0.5,0.9-0.8,1.4-1.2C410.5,168.7,411.3,169.6,411.1,170.1z M416.4,148.4c0-1.3,0.3-2.6,2.6-2.8
	c0.5,0.6,1.2,1.3,2,2.1c-1.2,0.7-2.3,1.6-3.6,2.2C417.3,149.8,416.4,148.8,416.4,148.4z M418.9,173.5c-1.6-2.5-1.4-4,0.6-5.6
	C419.8,170.1,420.3,171.7,418.9,173.5z M430.4,161.8c-0.1,1.3-1.5,1.6-3.1,0.6c0.3-1.3,0.6-2.5,0.9-3.6c0.2-0.7,0.2-1.4,0.6-2
	c0.2-0.3,0.8-0.6,1.2-0.7c0.2,0.4,0.6,0.8,0.6,1.2C430.4,158.7,430.4,160.2,430.4,161.8z M111.7,149.6c-0.9,0-1.8,0-2.7,0
	c0-0.4,0-1.2,0.1-1.2c0.9-0.1,1.8-0.1,2.7-0.1C111.8,148.8,111.7,149.2,111.7,149.6z M129.3,227.1c-0.7-0.4-1.6-0.9-2.2-1.3
	c0,0,0.2-0.6,0.5-0.9c0.4,0.2,0.9,0.5,1.3,0.8c0.2,0.2,0.5,0.7,0.7,1C129.4,226.8,129.4,227,129.3,227.1z M156,251
	c0.1-0.4,0-1,0.2-1.2c0.7-0.6,1.7-1.1,2.5-1.6c0.2,0.9,0.3,1.7,0.6,2.8C157.9,251,156.9,251,156,251z M161.4,249.3
	c0,0.1-0.7-0.3-1.1-0.6c0.5-0.6,0.9-1.2,1.3-1.8c0.2,0.2,0.5,0.3,0.7,0.5C162.2,248.1,161.8,248.7,161.4,249.3z M164.2,247.6
	c-0.9-0.2-1.3-0.6-0.7-1.4c0.2-0.4,0.7-0.8,1.2-1.4c2.1,2,3.2-0.8,5.1-1C169,245.6,165.6,247.7,164.2,247.6z M171,244.2
	c-0.1-0.3-0.2-0.6-0.2-0.9c1.3-0.5,2.7-0.9,4-1.3c0.1,0.2,0.2,0.6,0.2,0.8C173.7,243.3,172.3,243.8,171,244.2z M235.4,258.4
	c-0.6,0-1.2-0.2-1.7-0.2c-1.2-0.2-2.5-0.6-4.1-0.9c1.7-0.4,3-0.9,4.3-0.9c0.6,0,1.3,0.7,1.8,1.2
	C235.6,257.6,235.5,258.4,235.4,258.4z M245.6,244.9c-1.3-0.6-2.5-1.1-3.8-1.6c0.2-0.2,0.2-0.6,0.4-0.9c1.2,0.6,2.5,1.1,3.7,1.7
	C245.9,244.5,245.7,244.8,245.6,244.9z M268.6,182.2c-0.7-1.1-1.5-2.2-2.2-3.3c0.2-0.2,0.6-0.3,0.7-0.5c0.7,1.1,1.4,2.2,2.1,3.3
	C269,181.9,268.8,182,268.6,182.2z M304.2,176.6c0.2,0.4,0.9,1.1,0.7,1.3c-0.7,0.9-1.6,1.7-2.4,2.7c-0.2-0.4-0.6-0.8-1.1-1.6
	C302.6,178.1,303.5,177.3,304.2,176.6z M282.6,265.8c-0.9-0.6-1.7-1-2.6-1.6c0.1-0.2,0.2-0.5,0.2-0.7c1-0.3,2.1-1.4,2.9,0.2
	C283.5,264.1,282.8,265.1,282.6,265.8z M317.1,232.1c-1.3-0.6-2.7-1.1-4-1.7c-2.7-0.9-5.5-1.5-8-3c-3.1-2-6.3-4.2-8.5-7
	c-3-3.7-5.3-8.1-7.7-12.3c-1.7-2.9-3.1-6-4.5-9.1c-0.2-0.5-0.2-1-0.4-2.1c3.6,3.1,6.6,5.9,10,8.5c3.6,2.8,5.7,7,8.6,10.4
	c4.1,4.7,8.5,9.3,12.8,13.9c0.6,0.7,1.4,1.2,2.2,1.7C317.4,231.6,317.2,231.9,317.1,232.1z M313,179.3c0.5-3.6,4.6-4.6,8.9-1.5
	C318.6,178.3,315.8,178.8,313,179.3z M326.7,184.3c-0.6-2.5,1.3-4.3,3.9-3.6C329.2,182.1,328,183.1,326.7,184.3z M335.9,211.6
	c-0.7-1.2-1.5-2.5-2.2-3.6c0.2-0.2,0.4-0.2,0.6-0.4c0.8,1.2,1.7,2.3,2.5,3.5C336.4,211.1,336.1,211.3,335.9,211.6z M340.2,212.7
	c0.6-0.9,1.1-1.7,1.7-2.7C342.7,211.6,342.5,212.1,340.2,212.7z M344.5,200c-0.3,0.2-0.9-0.3-1.5-0.4c-0.7-0.2-1.5-0.2-2.2-0.2
	c-0.9-0.2-2.1-0.1-2.8-0.5c-0.2-0.2-0.2-2.1,0.1-2.2c1.7-0.6,1.3-1.8,1.4-3c0.1-2.1,0.9-3.1,2.8-3.1c0.6,0,1.4,0.6,1.6,0.9
	c0.5,2.3,0.8,4.6,1.2,7.3C345,199,344.9,199.8,344.5,200z M357.4,294.3c-1.6,0.3-2.9,1.4-4.4,2.2c-1.3,0.7-2.5,1.6-3.8,2.2
	c-0.3,0.2-0.9,0.2-1.3,0.2c0.2-0.3,0.3-0.7,0.6-1.1c0.4-0.5,0.8-0.9,1.2-1.3c0.2-0.2,0.2-0.6,0.4-0.6c1.3-0.6,2.8-0.9,4.1-1.5
	c0.7-0.2,1.3-0.7,2.1-1c0.9-0.4,1.7-0.8,3.1-1.4C359.2,293.6,358.7,294,357.4,294.3z M362.1,198.2c-0.3,0.7-1.7,1.2-2.6,1.7
	c-0.5-3.6-2.2-3.6-4.8-3.5c0.4-1.4,0.4-1.4,5.4-3C361.6,194.7,362.9,196.1,362.1,198.2z M375.4,219.9c-0.7,0.4-1.3,1-2.2,1.7
	c-1.7-0.7-2.5-2.1-2-3.7c0.9,0.5,1.8,1.3,2.5,1.2c0.7-0.2,1.2-1.2,2-2C376.5,218.3,376.6,219.2,375.4,219.9z M375.7,207.6
	c-0.4,2.7-0.8,5.4-1.3,8c-0.2,0.1-0.4,0.2-0.6,0.2c-0.9-2-1.8-4-2.8-6.1c-1.1,1.7-2.5,1-3.5,0.2c-0.7-0.7-1.2-2-1.2-3
	c0-0.9,0.6-2,2.1-1.4c1.3,0.5,1.7-0.2,1.7-1.5c0-1.8,0.3-3.6,2.8-4.3c0.1,0.9,0,1.7,0.2,2.3c0.1,0.3,0.5,0.7,0.7,0.9
	c0.2-0.2,0.8-0.6,0.7-0.9c-0.2-1.8,1-2.1,2.2-2.5C376.4,202.2,376.1,204.8,375.7,207.6z M378.5,219.1c-1.5-2.3-0.4-7.4,1.7-8.1
	C379.7,213.8,379.2,216.4,378.5,219.1z M385.6,290.4c0.3-1.7,1.3-2.2,3.6-1.8C388.4,290.2,387.1,290.5,385.6,290.4z M396,282.2
	c-0.2,0.6-1.1,1.2-1.7,1.2c-0.8-0.1-1.6-0.7-2.3-1.2c-0.2-0.1-0.2-0.7,0-0.9c0.2-0.2,0.6-0.4,0.7-0.5c0.7,0.2,1.2,0.3,1.7,0.2
	C395.5,281,396.3,281.2,396,282.2z M397.9,281.6c-0.2,0.1-0.6-0.5-0.8-0.7c0.5-0.3,0.9-0.9,1.3-1.1c0.2-0.2,0.7,0.3,1.7,0.8
	C399.1,281.2,398.6,281.6,397.9,281.6z M401.6,207.8c-0.2-1-0.5-2.1-0.7-3.1c0.3-0.1,0.6-0.2,0.9-0.2c0.2,1,0.6,2.1,0.9,3.1
	C402.4,207.7,402,207.7,401.6,207.8z M405,224.9c-2.1-1.7-2-4.2,0-5.4C405,221.3,405,222.9,405,224.9z M409.2,224.3
	c-0.3,0-0.7,0-1,0c0-1.7-0.1-3.3,0.1-5c0-0.3,0.7-0.6,1-0.9c0.2,0.4,0.6,0.8,0.6,1.2C409.7,221.2,409.3,222.7,409.2,224.3z
	 M421,211.7c-0.7-0.2-1.6-0.3-2.1-0.8c-1.2-0.9-2.2-2.2-3.3-3.2c-0.6-0.5-1.3-0.9-2-1.1c-1.2-0.2-2.5-0.3-2.2-2
	c0.2-1.6,1.2-2.2,2.8-1.7c1.3,0,2.7-0.1,4.1,0.1c0.5,0.1,1,0.6,1.2,1c0.7,1.7,1.5,3.6,2.1,5.5C421.6,210.1,421.1,211,421,211.7z
	 M426.5,213.8c-0.6,1.1-1.1,2.1-1.7,3.2c-0.2,0.4-0.6,0.7-0.8,1.1c-0.2-0.4-0.6-0.8-0.8-1.3c-0.2-0.7-0.4-1.6-0.7-2.7
	c1.7-0.7,3.2-1.5,3.8-3.6c0.1-0.4,0.9-0.6,1.3-0.9c0.2,0.2,0.4,0.2,0.6,0.5C427.6,211.3,427,212.6,426.5,213.8z M438.6,290.4
	c-0.2-3.6,0.4-5,2.2-5.7C439.8,286.3,441.5,288.9,438.6,290.4z M442.3,281.8c0.5-2,0.9-3.7,1.3-5.8
	C444.9,278.1,444.4,279.8,442.3,281.8z M440.9,202.7c-0.1-0.2-0.1-0.3-0.2-0.5c-2.2,0.7-4.4,1.3-6.5,1.9c-0.5,0.2-1,0-1.6,0
	c0.2-0.6,0-1.3,0.3-1.6c2.2-2,4.4-4,7.6-4.2c0.7-0.1,1.5-0.7,2.3-0.9c0.6-0.2,1.5-0.3,1.9-0.1c0.6,0.3,0.9,1.2,0.9,1.9
	C445.6,202.5,445.3,202.8,440.9,202.7z M449.2,196.7c-1.5-1.4-3.1-2.7-4.5-4.2c-1.7-1.7-3.5-1.2-5.5-0.9c0.2,0.8,0.2,1.4,0.3,2.2
	c-1.4-0.8-2-2.2-1.7-4.1c0.2-1.3,0.7-2.4,2.2-2.8c0.9-0.2,1.7-0.8,2.7-1.2c0.1-0.2,0.2-0.4,0.2-0.6c2.3,1.7,4.9,3.3,6.7,5.5
	c1.2,1.3,1.4,3.6,1.6,5.6C451.4,197.3,450.4,197.9,449.2,196.7z M455.3,207.7c-0.4,0.9-0.9,1.7-1.5,2.5c-0.4-0.6-0.9-1.2-1.6-2.2
	c0.9-0.6,1.3-1.2,2-1.2C454.5,206.6,455.4,207.4,455.3,207.7z M515,193.3c2.6,0.1,5.1,3.2,4.6,5.9c-0.3-0.2-0.7-0.2-1-0.4
	c-1.5-1.2-2.9-2.3-4.4-3.6c-0.3-0.3-0.5-0.9-0.7-1.4C514.2,193.6,514.6,193.2,515,193.3z M503.4,257.9c0.5,0.6,1,1,1.5,1.7
	c0.2,0.2,0.2,0.7,0.2,1.1c-0.3,0-0.9,0.1-1-0.1c-0.5-0.7-0.9-1.7-1.3-2.5C503.1,258,503.3,257.9,503.4,257.9z M459.4,196.4
	c0.4-0.8,1.2-1.7,2.1-2.1c0.3-0.2,1.2,0.8,2.2,1.7c-1.2,0.9-2.1,1.7-2.9,2.3C460.3,197.6,459.3,196.7,459.4,196.4z M469.7,217.4
	c-1.3-0.1-2.4-0.6-2.5-2.1c0-0.2,0.6-0.6,0.9-0.9c0.7,0.8,1.4,1.7,2.2,2.5C470.1,217.1,469.9,217.3,469.7,217.4z M473.5,211.2
	c0.9-1,1.9-2.2,2.8-3.5c0.5-0.6,0.9-1.3,1.1-2.2c0.5-1.4,0.6-1.6,2.4-1.2C479.5,207,476.1,210.6,473.5,211.2z M490.3,215.9
	c-0.2-0.2-0.5-0.2-0.7-0.4c0.3-0.9,0.6-2,0.9-2.8c1.3-2.8,1-4.5-1.3-6.5c-0.8-0.7-1.4-0.9-2.1,0.2c-1.1,1.7-1.9,1.6-2.8-0.2
	c-2.8-5.2-8.6-7-13.8-4c-4.4,2.5-8.5,5.2-12.9,7.8c-0.3,0.2-0.9,0.2-1.2,0.2c-0.2-0.1-0.3-0.6-0.4-1c-0.1-1.6,0.9-2.7,2.2-2.7
	c2.7-0.1,3.2-2.1,4.4-3.8c1.4-2.2,2.7-4.5,5.9-4.6c1.4-0.1,2.8-0.7,4.4-0.9c4.1-0.7,7.9,0.3,11.3,2.7c0.9,0.7,2.3,0.9,3.5,1.2
	c0.7,0.2,1.5,0.4,2.2,0.6c0.7,0.2,1.3,0.2,2.1,0.2c1.6,3.6,2.7,7.4,0.8,11.3C492.2,214.3,491.1,215,490.3,215.9z M515.3,360.8
	c-0.1,0.2-0.2,0.2-0.2,0.5c-0.7-0.2-1.3-0.5-2-0.6c-3.1-0.7-6.1-1.2-9.2-2c-2.1-0.6-4.1-1.5-6-2.2c-0.2-0.1-0.2-0.2-0.2-0.2
	c-0.4-1.7-1.4-2.2-3.3-1.3c0-0.2,0.1-0.4,0.1-0.6c0.7-0.7,1.3-1.3,2-2.1c-0.1-0.2-0.2-0.2-0.2-0.4c-0.6,0.4-1.2,0.8-1.7,1.1
	c-0.5,0.2-1.1,0.2-1.7,0.3c0.2-0.5,0.2-1.1,0.5-1.4c1.2-1.3,2.2-2.7,3.6-3.7c0.7-0.6,2.1-0.9,2.8-0.7c3.2,0.9,6.1,2.2,7.1,6
	c0.2,1,1.2,1.9,1.5,2.4C510.7,357.5,512.9,359.2,515.3,360.8z M512.2,227.1c-0.5-0.2-0.7-1.1-0.9-1.7c1.4,1.6,1.8,1.5,3.2-0.2
	c2.8-3.6,1.9-7.5-2.2-11.1c-1.3-1.2-2.8-2.1-4.1-3.2c-0.7-0.7-1.2-1.7-1.7-2.7c0.2-0.1,0.2-0.2,0.4-0.2c1.7,0.6,3.6,1.1,5.2,2
	c4.7,2.5,7.4,8.2,6.3,13.4C517.7,226.7,514.9,228.6,512.2,227.1z M564.9,282c-2.1,1.2-2.4,3.6-3.8,5.1c-0.2,0.2-0.8,0.4-1.2,0.6
	c-0.1-0.5-0.2-1-0.1-1.3c1.4-2.2,2.9-4.3,4.5-6.4c0.2-0.3,0.8-0.6,1.2-0.7c0.2-0.1,0.4,0.4,0.7,0.7
	C565.8,280.9,565.4,281.7,564.9,282z M569.9,203.2c-2.4,6.5-7.5,11.1-10.9,16.8c-3.2,5.3-6.2,10.8-9.6,16.1
	c-3.1,4.7-6.4,9.4-9.7,13.9c-2.6,3.6-5.1,7.1-8.1,10.3c-3.1,3.3-7,5.6-11.6,6.5c-0.8,0.2-1.7,0.1-2.5-0.2c-0.4-0.2-1.2-0.9-1-1.1
	c0.6-1.3,1-2.8,2-4c1.8-2.3,3.9-4.4,5.9-6.6c0.8-0.9,1.8-1.6,2.6-2.5c1.5-1.8,2.8-3.9,4.4-5.7c1.4-1.7,3.1-3.2,4.5-5.1
	c2.8-3.4,5.5-6.9,8.4-10.3c0.5-0.6,0.9-1.1,1.3-1.7c4.1-4.7,8.1-9.6,11.2-15.2c1-1.8,2.7-3.3,4-5.1c3.2-4.3,6.4-8.5,9.6-12.8
	c0.7-0.9,1.7-1.7,2.6-2.5c0.2,0.2,0.5,0.4,0.7,0.6C572.3,197.7,570.9,200.4,569.9,203.2z"/>
</svg>
