<?xml version="1.0" encoding="utf-8"?>
<!-- Generator: Adobe Illustrator 27.8.1, SVG Export Plug-In . SVG Version: 6.00 Build 0)  -->
<svg version="1.1" id="레이어_1" xmlns="http://www.w3.org/2000/svg" xmlns:xlink="http://www.w3.org/1999/xlink" x="0px"
	 y="0px" viewBox="0 0 1199.4 716.8" style="enable-background:new 0 0 1199.4 716.8;" xml:space="preserve">
<style type="text/css">
	.st0{fill:#0A3D62;}
	.st1{fill:#FF3749;}
	.st2{fill:url(#SVGID_1_);}
	.st3{fill:url(#SVGID_00000157272150021123101030000012960068432740809389_);}
	.st4{fill:url(#SVGID_00000069373752388712625470000011069234063544430982_);}
</style>
<rect x="-1396" y="669.6" class="st0" width="198.6" height="183.4"/>
<rect x="-967.2" y="587.6" class="st1" width="205.8" height="258.3"/>
<image style="overflow:visible;enable-background:new    ;" width="6000" height="4000" xlink:href="../../Downloads/matt-hardy-6ArTTluciuA-unsplash.jpg"  transform="matrix(0.1091 0 0 0.1091 1808.3768 -2177.9971)">
</image>
<g>
	
		<radialGradient id="SVGID_1_" cx="599.7122" cy="542.4183" r="474.2321" gradientTransform="matrix(1 0 0 1 0 -124)" gradientUnits="userSpaceOnUse">
		<stop  offset="0" style="stop-color:#81BFDA"/>
		<stop  offset="1" style="stop-color:#B7E0FF"/>
	</radialGradient>
	<path class="st2" d="M1161.4,428.7c2.5,1.3,5.2,1.2,7.7,0.7c8.2-1.5,16.5-3.2,24.6-5.2c1.7-0.4,5.3,0.6,4.8-3
		c-0.4-3-2.3-4.8-5.8-4.8c-6.4-0.2-12.8-0.8-19.2,0c-3.4,0.4-6-0.1-7.2-3.6c0.1-0.8,0.2-1.5,0.2-2.3c2.1-1.3,0.8-7,4.6-5
		c5,2.7,6.8,1.8,7.8-3.4c0.2-0.9,1.6-1.7,2.7-2.1c4.8-2.2,6.5-6.2,6.5-11.1c0.3-1.4,0.8-2.8-1-3.5c-2.7-1.2-5.3-2.8-8.5-2.5l0,0
		c-2.5-0.5-4.2-2.2-6.2-3.6l0,0l0,0c-0.9-3.1-5.8-2.3-6-6.2c0-0.8,0-1.6,0-2.4c0.5-9.3-3-13-10.7-11.3l0,0c-5.4,1-10,3.2-13.2,7.7
		c-4.8-0.7-10,3-14.5-1.2c-1.4-2.1-4-1.4-5.9-2.5c-0.2-3.3-0.9-7.8-5.1-5.5c-6.5,3.5-12.7,5.1-19.8,3.2c-1.3-0.4-3.4-0.5-4,1.6
		c-0.6,2,0.3,3.6,2,4.6c3.6,2.1,7.3,3.9,11,5.9c0,0.8-0.1,1.5-0.1,2.3c-1.2,0.4-2.4,0.7-3.7,1.1l0,0c-3.7,0.8-6.9,0.3-9.8-2.6
		c-2.1-2.1-5-3.1-8.1-2c-2.1,4.1-0.7,8.1,0.1,12.1c0,1.2,0,2.4,0.1,3.6l0,0c0,1.2,0,2.4,0,3.7c-0.2,0.7-0.4,1.5-0.5,2.2
		c-1.1,0.1-2.2,0.2-3.2,0.2c1.5-3.5,3.1-6.9-1-9.8l0,0c-0.1-1.2-0.4-2.4-0.9-3.4c0-0.6,0-1.1-0.4-1.1h-0.1c-1.7-2.9-4.8-4.8-9.2-5.8
		c-0.5-0.2-1-0.3-1.6-0.3l0,0l0,0l0,0c-0.6-3.6-4-3.6-6.3-4.9c0-2.8,2-4.7,3.1-7l0,0c2.7-3.6,5.4-7.3,8.1-10.9
		c3.3-4.8,9,0.8,12.7-2.7c-1.6-2.9-4.8-3-6.9-4.7c1.9-2.6,3.8-5.1,5.8-7.7c7.9-10.3,16.7-20.1,22.1-32.1c2.3-0.9,3.2,0.2,3.6,2.3
		c0.5,2.8,0.9,5.7,1.4,8.5c1.2,2.6,1.2,5.9,3.9,7.9c2.4-3.6,5.9-6.6,5.3-11.5c1.9-2.3,4.9-0.9,7.2-2.3c2.5-1.6,8-1,7.6-4.1
		c-0.6-4.6-6.1-4.2-9.9-4.9c-0.7-0.1-1.6,0.2-2.3,0.4c-4.6,1.6-8.9,0.5-13.2-1.3c3.7-4.4,7.4-8.7,11.1-13.1c1.2-1.3,2.3-2.5,3.5-3.8
		l0,0c1.3-1.5,3.9-2.7,3.4-4.5c-1.2-4.9,2.3-5.5,5.2-7.6c4.8-3.5,11.9,0,15.6-5.8c1.3,1.5,3,3.3,4.9,1.6c2.1-1.9,0.1-3.8-1.1-5.5
		c-1-1.4-2.4-1-3.8-0.9c-5,0-7.8-6.1-13.3-5c-3.1,0-5.7-1.8-8.4-2.9c-3.7-1.4-6.6-0.9-8.6,2.7l0,0c-2.2-0.1-4.4-0.1-6.5-0.2
		c-3.2-0.1-5.2,2.2-5.6,4.5c-0.5,2.7,3.4,0.7,4.3,2.2c0.3,1.9-2.7,2.1-1.5,4.3c2.7,0.1,5.5,0.3,8.2,0.4c7,4.1,2.9,9.2,1.2,14
		c-2.4,2.3-5.4-1.4-7.9,0.7c0.4,2.6,5.3,1.7,4.3,5.4c-1.2,4.4-3.9,8-6.1,11.8l0,0c-3.6-1.6-6,1.6-8.9,2.4c-2-0.8-4.2-1.4-6.1-2.4
		c-7.3-4-14.1-2-18.6,6.4c3.4-1,6.1-1.9,8.9-2.7c4.3-1.3,8.5-2.2,12.6,0.5l0,0c2.6,1.7,5.6-1.7,8.2,0.7c-8,12.6-16.8,24.6-25.8,36.5
		c-2.9,3.7-6.2,6.7-11,7.4c-1.4-0.3-2.7-0.5-3.8,0.7l0,0c-1.5,0.1-3.2,1.2-4.3-0.5c-0.9-1.4,0.4-2.4,1.2-3.6
		c0.7-1.1,0.9-2.5,1.3-3.8c3.9-0.3,8.4,0.2,9.5-4.9c1-4.9-3.4-4.2-6.2-5.1c-1.9-5.7-6.7-4.6-11-4.8c-1.2-3.2-4.8-2.1-6.9-3.8
		c-0.1-2.1,1-3.1,2.4-4.7c3.8-4.4,9.8-5.4,14.6-10.4c-12.3,0.2-21.9-6.3-32.8-6.8c0.1-1.9-0.1-3.9,1.2-5.5c0.7-0.9,1.4-1.8,2.2-2.7
		c0.8-0.8,1.6-1.6,2.4-2.4c3.2-0.6,4.6-2.9,4.6-5.8c-0.1-2.8-2.6-2.5-4.6-2.4c-0.3-0.1-0.7-0.2-1.1-0.3c-1.2-4.1,1.1-6.5,4-8.9
		s7.6-2.3,9.2-6.6l0.1,0.2l0,0c1.9-0.4,3.8-1.6,5.8-0.3l0,0c-0.6,0.9,0,1.7,0.7,1.9c6.2,1.9,12.5,3.7,18.8,5.5
		c-3.1-3.8-6.8-6.5-10.8-8.6l0,0l0,0c0-1-0.1-2-0.1-3c6.4-1.9,8.7-7.3,11.1-12.6c3.8-3.3,2.9-5.6-1.4-7.3l0,0c0.1-2.1-0.9-4.6,2-5.7
		c1.5-0.6,4.7,0,4.1-2.3c-0.7-2.4-2-5.4-5-6.1c-10-2.3-19.7-5.7-30-6.3l0,0c-2.8,0-5.6,0-8.4,0c-1.6-0.8-2.4-2.2-2.6-3.9
		c1.3-1.6,2.5-3.2,3.8-4.8c4.1,0.5,8.2,1.1,12.3,1.4c1.7,0.1,4,0.3,4.3-2c0.4-3,2.4-3.6,4.8-4.4c3-0.9,4.2-2.5,0.8-4.7l0,0
		c-2.5-1.1-4.9-2.4-7.5-3.4c-2.6-1.1-5.3-2.4-7.9-0.4c-3.1,2.4-6.1,1.5-9.3,0.5c-1.6-0.5-3.5,0-4.8-1.3c-4.3-2.2-8.7-2-13.3-1.2l0,0
		l0,0c-3.7,0.8-7.4,1.6-11.1,2.2c-1.9,0.3-4.3-0.4-4.5,2.6c-0.2,2.5,1.8,3.3,3.7,4.1c4.7,1.9,10,2.5,14.2,5.8l0,0
		c-0.2,2.8,4.1,1.6,3.9,4.4c-0.3,2.2-1.7,3.3-3.8,3.7c-4.1,1-8.1,2-12.7,3.1c3.2,1.4,5.4,2.9,5.2,6.3l0,0c-3.3,1.9-8.1,0.8-10.3,4.9
		c-0.3,1.3-0.5,2.7-0.9,4c-1.3,4.3,1.3,5.5,4.3,4.1c6.6-2.9,6.6,0.5,5.7,5.2l0,0c-2.3,0.4-4.4,0.9-1.3,3.3c3.9,3.1,7.8,2.9,11.4-0.6
		c2.8,0.2,4.5,2.5,6.8,3.7l0,0c0,0.3,0.1,0.6,0.2,0.9c-0.4,3-2.4,3.9-5.1,3.7c-2.7-0.2-3.7,1-3.1,3.6l0,0l0,0
		c-0.2,1.2-0.6,2.4,0.6,3.3c4,2.8,3.6,6.2,1.5,9.8c-5.4-0.6-10.3-0.1-12,6.3c-7.1-1.8-13.8-6.7-21.8-1.6c4.5,3.4,9,6.8,14.4,8.8
		c0.2,2.2-1.7,3-3.1,3.9c-3.7,2.5-5,6.1-5.6,10.2l0,0c-1.3,1.1-2.8,1.3-4.4,1.3c-1.5-2.6-8.1-2-5.7-5.9c3.2-5.2-0.2-4.7-3-6.4
		c-3.1-1.9-6.1-3-9.7-2.5c-1.6,0.2-2.9-0.5-3.7-2.3c-1.2-2.5-2.9-4.6-4.5-6.9c0.4-2.5,1.2-4.3,4.3-3.2c3.8,1.4,7.8,1.4,11.1-0.5
		c8.7-4.9,15.5-12,21.5-19.9c1.3-1.7-0.9-2.9-2.7-2.6c-4.9,0.8-9.7,0.7-14.6,2.6c-6.1,2.4-10.9,7.1-17.1,9c-1.6-0.5-3.7-1.1-2.3-3.1
		c3.1-4.4-0.4-8.4-0.3-12.5c1-11.2,2-22.4,3.1-34.1c3.2,1.2,4.7,3.6,6.7,5.4c3.6,3.4,6.4,7.7,11.2,9.7c1.3,0.5,2.8,1.5,3.9,0.4
		c1.5-1.5-0.2-2.9-0.8-4.2c-2.7-5.2-7-8.8-11.8-12l0,0l0,0c-1.5-1.2-2.9-2.5-5.1-2.9c-4.6-0.9-6.8-3.1-4.9-8.3
		c1-2.8,0.2-6.3,0.2-9.5c0-2.8,0-5.6,0-8.4c0.7-2-0.7-5.4,1.9-5.7c6.4-0.7,11.7-7.4,18.7-3.4c3,1.7,4.4-0.8,6.2-2.1
		c2.4-1.8-0.4-2.9-1-4.3c-2.4-5.4-6.7-6.9-12.1-6.3c-10.4-4.4-21-2-31.6-1.1c-5.5,1-9.3,5-13.7,7.9c-1.2,0.8-2.4,2.7-1.9,4.8
		c0.6,2.5,2.5,1.2,3.9,1.3c3.6,0.2,7.2,0.2,10.8,0.6c8.7,1,12.1,3.8,14.4,11.9c0,2,0,4,0.1,6c0.1,3.2-2.6,4-4.7,4.3
		c-6,1-7.5,4.9-7.7,10.1c-2.4,9-5.2,17.9-4.7,27.3c0.1,1.3-0.6,3,1.2,3.6c1.7,0.6,2.4-1,3.3-2c4.1-4.8,8.3-9.7,12.4-14.5
		c0.3,0.2,0.7,0.3,1,0.3c0.1,8.4-0.6,16.8-2.2,25.1c-9.3-4.3-19.8-2.9-29.3-6.2c-1-0.3-2.3,0.5-3.5,0.6s-2.5,0.3-3.5-0.2
		c-5-2.3-9.8-0.8-14.6,0.7c-0.7,0.1-1.5,0.2-2.2,0.3l0,0c-4.1-0.8-8.2-1.8-12.4-0.6c-2.1,0.6-3.4-0.3-4.4-2
		c1.2-4.2,0.2-8.8,2.4-12.8c1.1,0.3,2.4,1.2,3.2,0.8c1.8-0.8,0.1-1.8-0.2-2.8c-0.9-2.7-0.8-5.3,0.9-7.8l0,0c1.3-1.6,0.7-3.4,0.6-5.1
		c6-3.3,9.9,0.3,13.2,4.5c3.4,4.2,7.1,7.9,12.3,11c-0.3-6-2.6-10.8-5.3-15.1c-4.8-7.7-10.1-15.2-21.1-13.7c-2.1,0.3-2.4-1.7-3.5-2.7
		c-0.1-0.7-0.3-1.4-0.4-2.1c0.5-2.1,1.1-4.2,1.4-6.3c0.6-5.8-0.1-12.2,7.3-14.6c0.1,0,0.1-0.4,0.1-0.6c1.2-0.5,1.7-1.4,2.3-2.5
		c2-3.8,4.8-3,7-0.3c3.9,4.7,6.9,4.6,12.8,0.7c6.1-3.9,1.1-6.1-0.6-9c3.3-6,0.2-11.5-7-12.7l0,0c-2,0.2-4.1,0.4-6.1,0.6
		c-10-1.7-20-2.8-30.2-1.2c-4-0.6-7.5,0.6-10.9,2.6c-13-0.9-18.8,2.6-20.4,12c-0.8,4.6-0.1,8.1,5.9,7.7c2-0.1,5.1-0.6,5.3,2.5
		c0.3,8.1,6.6,4.7,8.8,3.5c3.7-2,6.7-2.2,10.2-0.7c6.2-1.5,8.7,1.3,8.5,7.2c-0.1,1.5,0.6,2.7,1.3,3.8c-0.4,2.2,0.1,4.2,0.7,6.3
		c1,3.8-0.2,6.1-4.5,6c-2.8-0.5-5.6-1-8.4-1.6l0,0c-1.9-0.9-3.8-0.2-5.8-0.3c-5.2,0-10.3-0.5-14.9-3.3c-6.1-1.8-12.4,0.5-18.6-0.7
		c-0.3-0.1-0.6,0.4-1,0.7c-2,1.1-4.2,1.3-6.3,0.7c-3.8-1-4.4,1.2-4.5,4.1c-1.2,0.8-2.3,1.7-3.5,2.5c-1.8,1.1-3.9,0.3-5.8,0.6
		c-4.8,0.6-9.4,1.5-13.5,4.2c-1.3,1.1-3.8,1.8-2.6,4c0.9,1.6,2.8,0.5,4.4,0.1c2.2-0.6,4.3-2.5,6.7-0.4l0,0l0,0
		c-1.6,0.9-3.2,1.7-4.8,2.6l0,0l0,0c-0.9,1.3-1.7,2.6-2.7,3.7c-1,1-2.6,1.5-2.1,3.2c0.7,2,2.6,1.3,4.1,1.4
		c6.1,0.4,12.3,0.8,18.4,1.1l0,0c0.7,2.6,2.8,2.4,4.8,2.5c2.6,0,5.2-0.2,7.7,0.9c3.4,3,0.6,6.5,0.8,9.8c-0.4,2,0.6,3,2.3,3.7
		c0.1,0,0.2,0,0.4-0.1c-0.4,5.7-4.2,7-9.6,6.3c-1.2-2.6-8.8-2-3.8-7.7c2-1,4.7,0.2,6.2-2.2c-1.4,0.2-2.4-0.6-3.5-1.3
		c-1.8-1.7-4.1-1.8-6.4-2.5c-6.8-1.9-13.7,0.9-20.4-0.9l0,0l0,0c-7.7-2.3-15.6,0.6-23.5-0.6c-2.3-0.3-5.2,0.3-6.7,2.9
		c-4.2-1.3-8.2,2.1-12.4,1.4c-0.6-0.3-1.3-0.5-2-0.7c-1.7-1.6-1.5-3.6-1.3-5.6c2.4-2.9,1.2-7.6,4.8-9.9c0.8-1.1,1.6-2.2,2.4-3.4
		c2-0.3,4-0.7,6.1-1c1.5,2.6,2,8,6.4,5.2c3.5-2.2,7.4-2.1,11.6-4.1c-4-2-3.6-4.9-1.9-8.2c-6.4,1.4-11.7,2.3-14-5.2
		c-0.8-2.6-3.5-3.6-6.4-3.6c-5.6,0-11.1,0-16.7-0.1c-4.1,0-5.6,2.3-5.7,6.1c-3.5,1.5-8.4-3.2-10.9,2.5c-0.5,0.3-1,0.8-1.5,0.9
		c-3.4,0.5-4.2,2.5-3.1,5.4c1.2,3.2,3.5,2.5,5.8,1.4c1.2-0.6,2.5-1.1,3.8-1.6c3.6,0.9,7.1,1.7,10.7,2.6c1.2,0.8,2.4,1.6,3.5,2.4
		c1.1,3.8,2.6,7.6,1.2,11.7c-1.7,1.2-0.8,3.1-1.1,4.7c-8,2.5-14.5-2-21.6-4.2c-2.4,0-4.8,0-7.2,0c0.3,0,0.6,0.1,0.8,0.2
		c-0.3-0.1-0.6-0.1-0.8-0.2c-1.5,0.3-3,0.8-3.9,2.2l0,0c-1.6,0-3.1,0.1-4.7,0.1c-3.2,0.2-7.2-1.9-9.4,1.4c-2.7,4.1-6,3.9-9.8,3
		c-0.5-2.1,1.2-4.9-2.2-6c-2.6-0.8-3.1-3.4-4-5.6c-1.6-3.4-3.1-6.7-4.7-10.1c-2.8,4.8,1.6,7.6,3.1,11.2c0.1,0.4,0.2,0.9,0.4,1.4
		c-1.7,4.4-0.1,8.7,0.3,13l0,0l0,0c0.5,3.9-4.1,4.3-5.1,7.2c0,1.6,0,3.2,0.1,4.8c-6.5,3.5-0.3,6.6,0.3,9.8c-1.5,5.8-5.3,3.5-8.7,2.4
		l0,0c-2.1-3.7-5-6.2-9.6-5.8l0,0l0,0c-2.7-1-5.5-1.7-8.4-1.2l0,0l0,0c-6.2,0.5-11.2-1.1-13.3-7.7c-3,4.2-7.5,5.5-12.1,6.6
		c-4.9-3.3-5.5-11.3-1.8-15.6c0.5,0.2,1.1,0.5,1.6,0.8c2.8,0.6,5.4,1.6,7.6,3.5c1.9,1.6,3.9,1.9,5.9,0.1c-0.3-3.2-0.1-5.4,4.1-6.4
		c4.1-0.9,6.3-5.4,5-8.9c-1.3-3.3-4.7-0.6-7.1,0.5c-1.3,0.6-2.8,1.3-3.8,0c-1.3-1.6-0.1-2.9,1-4.2c1.5-3.9,2.9-7.9,2.2-12.2l0,0l0,0
		c2.9-1.6,5.7-3.6,8.8-4.9c5.4-2.2,7.8,2.9,11.3,5.1c1.3,2.5,2.6,4.7,6.2,3.6c2.1-0.7,4.4-0.7,3.6-3.9l0,0c0-0.8,0-1.6,0-2.4
		c2.7-2.4,5.7-0.8,8.6-0.7c2.1-1.2,3.4-2.7,2.3-5.3l0,0l0,0c3.4-5.3,6.7-10.6,13.6-12.3c1.6-0.4,2.9-1.6,1.3-3.5l0,0
		c-3.1-2.1-7.5-1.4-10.7-3.6c-0.4-0.4-0.8-0.8-1.2-1c-0.3-0.3-0.6-0.7-0.9-1.1c-0.4-0.6-2.4-0.6-3.5-0.3c-6.1,1.9-12.3,2.4-18.7,1.4
		c-1.2-0.2-2.6,0.8-3.9,1.3l0,0c-1.6,0.4-3.2,0.8-4.8,1.3l0,0c-3.4-1.1-6.9-2.4-10.5-1c-2,0.8-2.9-0.6-4.1-1.6
		c-0.5-0.4-0.9-0.7-1.4-1.1c1.8-3.7,6.2-4.3,8.6-7.2c5.6,1.4,11.3,2.9,16.8-0.2c1.5,0.1,4.4-0.5,4.1-0.8c-3-2.8,0.9-9.1-5.2-10
		c-14-3.6-28.1-3-42.3-0.9c-5.4-1.8-6.9,2.1-8.5,5.8c-1.7,0.2-4.3-0.1-4.2,2.2c0.2,2.6,2.8,4.2,4.7,5.8c1.1,1,2.8,0.7,4.2-0.7
		c5.3-5.4,13.5-4.3,18.2,2.4l0,0c0.8,1.2,1.6,2.4,2.4,3.6c0.3,1.8,0.7,3.7-1.2,5c-7.2-1.6-14.5-1.4-21.8-1.2l0,0l0,0
		c-0.4,0-0.9,0-1.3,0c-5.5-0.5-11.1-1-16.6-1.5l0,0c-2.7-1.7-6.8-2.3-8.3-0.4c-3,3.8-6.6,2.6-10.1,3.2c-2.7-0.2-5.4-0.3-8.1-0.5
		c-4.7-1.1-4-4.7-3.8-8l0,0c0.1-0.3,0.1-0.6,0-0.9c5.3-2.8,11.1-3.9,16.9-5.2c-5.3-6-5.3-6-14.6-1.4c-3.3-1.6-5.3-1.1-6,1.7
		c-2.8,0-5,0.7-5.9,3.6c-2.5-2.2-6.3-2.6-8.2-5.7c-4.7-4.9-9.9-5.3-14-1.1c-0.3,0.6-0.3,1.1-0.3,1.6c-0.3,0-0.5,0-0.8,0.1
		c-3.3-1.8-6.5-0.9-9.7,0.2l0,0l0,0c-2.4-0.2-4.3-1.5-6.2-2.8c-0.4,0.4-0.9,0.7-1.3,1.1c-1,1.4-2.4,2.7-2.1,4.6
		c-8.8-0.6-15.2,4.7-22.2,8.7c-2.1,1.2-3.4,2.8-2.9,5.3c0.5,2.8,2.6,0.8,3.8,1.2c5.5,2.1,10.9-1.2,16.4-0.2c1.9,1.7,5.4,1.4,6.3,4.6
		c-0.3,1.9-0.7,3.5-3.1,3.8c-7.7,0.8-12.9,5.3-17.2,11.4c-2.4,3.3,0.1,2.9,1.9,3.4c2.8-0.9,5.7-1.8,8.5-2.8c9.2-1.8,17.5-6.8,27.2-7
		c2.1,0,4.7,0.3,6-2.3c0-0.1,0-0.2,0-0.3c4.8,0.3,9.8-1,14.1,2.2c3.6,0.8,7.1,0.2,10.7-0.3c2.3-0.3,5.5-1.2,6.7,1
		c1.9,3.4,5,2.6,7.7,3.4c0.7,0.6,1.5,0.6,2.3,0.2c0.1-0.1,0.2-0.2,0.3-0.3c1,0.9,2.1,1.7,3.2,2.3c0.5,1.2,1.3,2.3,2.4,3.2
		c2.4,2.6,4.2,5.7,7.1,7.8c-1.9,2.4-0.9,5.6-0.6,8.5c0.2,0.5,0.5,1,0.7,1.4c-4.6,1.6-9.4,1.3-14.1,1.9c-2.1,1.1-4.3,0.2-6.4,0.3
		c-5.1,0.2-11-1.7-14.3,4.4l0,0c-1.2,1.5-2.5,3.1-3.7,4.6l0,0c-0.8,0.4-1.6,0.8-2.4,1.3c-5.1,0.1-6.8,0.2-7.3-2.1
		c0-0.4-0.1-0.8-0.2-1.2c-0.1-1-0.1-2.4,0-4.1c0-0.7-0.3-1.4-0.6-2.1c1.5,0.1,2.9-0.2,4-1.4c1.7-4.1,0.5-6.7-3.9-7.4
		c-1-0.2-1.7-0.5-2.4-1c4.6,0.7,19.4-0.3,21.6-1.6c0.3-0.2,0.6-0.5,0.9-0.8c0.4-0.4,0.7-0.9,1-1.4c0.3-2.2,1.7-3.9,2.5-5.8
		c-3.3-1.4-7-1.8-9.7-5.1c-1.9-2.3-5.3-2.5-8.2-0.9c-3.5-4.4-7.1-2.6-10.8-0.3l0,0c-2.8-4.6-6.5-0.4-9.7-0.9
		c-1.4,2.8-3.3,5.3-6.9,6.4c2,1.1,3.8,1.2,4.2,3.2c-0.2,1.7,1.1,1.7,2.3,2c0.3-0.2,0.6-0.4,0.9-0.5c1.3,1,3.2-0.3,4.5,0.9
		c0.4,0,0.7,0,1,0.2c0.6,0.8,1,1.7,1.9,2.2c-2.2,1.2-4.5,2.4-6.7,3.6c0.4,0.8,0.8,1.7,1.3,2.5c3.1,0.4,6.3,0.3,8.3,3.3
		c-0.2,0.2-0.3,0.4-0.5,0.6c-0.2-0.1-0.5-0.2-0.8-0.3c-1.8-0.1-2.8,0.8-3.3,2.5c-0.5,4.3-0.9,8.6-1.4,13c-3.4,1-4.5-2.8-7.1-3.5
		c-2.4-2.1-5.2-3.4-8.4-3.7c-3.3-2.1-6.9-0.9-10.4-1.2c-7.6-0.7-11.6,7.3-18.7,7.4c-3.5,0.6-7,2.6-10.5-0.1l0,0
		c-0.9-0.4-1.8-0.7-2.7-1.1c-6.9-2.9-14.3-0.3-21.4-2c-3.8-0.9-4.8-2.5-5.1-6c-1.6-25.5-3.4-51-5.1-76.5c0.1-5.2,0.1-10.4,0.2-15.6
		c0-7.2,4.2-10.2,10.9-10.7c0.4,0,0.8-0.2,1.2-0.3c13.6,2,14.2,1.8,17.3-7.1c4.1-2.9,4-4.9-1-6.7c-7.3-2.7-14.3-2.9-21,1.7
		c-2.4-2-3.1-7.1-7.3-5.6c-7.1,2.5-15.1,0.8-21.8,4.7c-3.3-1.2-5.1,2.6-8.4,2.2c-6.1-0.7-10.2,5-16,5.8c-1,0.1-0.9,1.6-0.8,2.7
		c-0.3,3.5,2.4,2.5,4.1,2.5c6.2,0.1,12.4,0.3,18.5-0.1c4.6-0.3,8.7,0.7,12.2,3.6c0.2,3,1.1,5.7,2.4,8.4c0.5,5.4,2.3,10.5,3.7,15.7
		c-0.8,6.8,0.8,13.5,1.6,20.2c2.4,20.2,4.9,40.3,5.7,60.6c-2.5,0.5-5,0.9-7.8,1.4c2.1,3.8,7,2.3,8.9,5.8l0,0
		c-0.1,4,1.2,8.5-3.8,10.8c-2.4,0.5-4.2,1.9-5.9,3.5c-6,4.1-7.6,11-10.8,16.9c-2,0.1-4,0.2-6,0.3l0,0l0,0c-3.9,2-7.5,4.9-12.2,4.7
		c-0.5-5.2,4.4-7.1,6.6-10.7c0.9-1.4,2.6-3,1.4-4.8c-1.1-1.6-3-0.6-4.4-0.2c-3.1,0.9-5.4-0.1-7.3-2.5l0,0l0,0c-2-3.6,0.6-5,3.2-6.4
		c5.2-2.9,10.4-5.9,14.3-10.4c4.2-0.7,7-4.4,5.9-7.3c-1.2-3.1-5.6-1-8.5-0.3c-0.5,0.1-1,0.6-1.5,0.9c-3.9,1.9-7.8,3.7-11.7,5.5l0,0
		c-0.5,0-0.9,0-1.4,0c-0.3-0.1-0.6-0.2-0.9-0.2c-0.2-2.1-0.1-4.1,0.8-6c0.8-0.3,1.6-0.7,2.4-1c-2.7-0.1-5.5-0.1-8.2-0.2
		c-6-1.5-12.1-3.1-18.4-1.8c-2.3,0.5-4.3,0.9-4.2,3.9c0.5,1.7,2,2.1,3.4,2.8c3.2,1.7,5.8,1,8.3-0.2c-1.7,1.9-3.3,3.8-5.1,5.5
		c-1.1-2.3-2.9-3.3-5.7-2.7c-0.1,0.1-0.2,0.1-0.3,0.1c0.1,0,0.2-0.1,0.3-0.1c-2-0.1-4-0.3-6-0.4c-1.6-1.6-2.1-4.4-5-4.6
		c-0.9,2.2-2.2,3.9-4.9,3.8c-6.1-1-5.5-6.6-7.2-10.5c0.2-0.1,0.4-0.1,0.6-0.2c0.4-0.2,0.7-0.4,0.9-0.6c1.1,0.4,2.2,0.1,3.3-1
		c1.6-2,4.7-0.1,6.2-2.4c-0.5-2.6-2.4-3-4.4-2.1c-2,1-3.7,0.8-5.4-0.4c-0.4-1.1-0.7-2.3-1.1-3.4c1.4-1.8,2.9-3.6,2.1-6.2
		c0-0.8,0-1.6,0-2.4c0-0.4,0-0.8,0.1-1.2c1.4-1.4,3.6-2.6,1.4-5c-5.7-1.4-11.4-2.2-17,0.1l0,0c-2.2,1.7-3.1,3.6-1.2,6.1
		c2.3,2.3,2.1,5.8,3.8,8.4c-0.5,1.5-1,3-1.5,4.5c-3.3,1-6.9,1.2-9.6,3.8c-3.6,1.3-4.6-1.4-5.8-3.8c-1.7-3.1-3.3-6.3-5-9.4
		c-1.8-4.4-3.7-8.7-7-12.3c-2.2-2.4-1.7-3.7,1.7-4.9c4.6-1.7,10,0.5,13.8-2.4c4.3-3.3,8.7-3.3,13.4-3.3c1,0,2-0.3,2.2-1.6
		c-1.9-1.4-3.8-2.8-5.6-4.3c-1.4-1.1-2.2-3.8-1.1-4c5.6-1,5.5-8.3,10.8-9.2c1.7-0.1,3.5,0.3,5.5-1.1c-3.8-4.1-8.1-7.1-13.2-9.1l0,0
		c-1-1.2-1.4-3.5-3.4-2.8c-6.4,2.1-13.2-0.4-19.5,1.6l0,0c-6.7-0.4-11,5.6-17.2,6.2c-2.5,0.2-3.9,1.6-5.6,2.9
		c-4.7,0.3-9.2,1.1-13.3,3.5c-3.8,3-10.5,2.7-11,9.6c-1.7,1.4-3.4,2.7-5,4.1c-1.2,1-1.5,2.4-0.8,3.8c0.7,1.3,1.1,3.4,3.2,2.8
		c5.1-1.3,4.2,1.8,3.4,4.6c-0.9,2.8-0.8,4.5,2.7,3.7c1.8-0.4,3.1-0.4,3.9,1.5c0.5,1.1,1.6,1.7,2.1,0.3c1.5-4.3,4.6-2.6,7.4-2.4
		c-0.2-0.2-0.5-0.5-0.6-0.7c0.2,0.2,0.5,0.4,0.6,0.7c2.1,1.7,4.1,1,6.1-0.4c2.4,0.1,4.8,0.1,7.2,0.2c1,1.6,2.4,3.1,4,3.2
		c6.5,0.4,9.4,4.9,12,9.9c2.4,4.4,4.8,8.8,7.1,13.2c0.7,1.3-2.8,3.1,0.1,3.6c3.2,0.6,3.8,3.3,5.7,5c3.2,5.7,7.1,11,9.4,17.2l0,0
		c-4.6,2.4-10.5,1.3-14.4,5.5l0,0c-4.4,0.9-9.5-1.3-13.4,2.5l0,0c-0.3,0-0.6,0.2-0.8,0.4c-2.7,0-4.7,1.2-6.3,3.3
		c-4.3,1.7-4.4,8-9.5,8.9c-4.8-5.7-6.8-12.2-5.9-19.6c1.4-0.3,2.8-0.4,4.1-0.8c3.5-1.1,10-2.3,10-3.5c0.1-6.1,5.1-4.1,7.7-5.6
		c1.8-1,4.1-1.3,6.2-1.9c-5.3-5.3-5.4-4.8-12-6.5c-4.7-1.2-9,1.2-13.5,0.3c-2.2,1.2-4.5,1.9-7,1.7c-0.1,0-0.2,0-0.4,0
		c-1.5-0.9-3.7-0.4-4.9-1.7c-7.9-0.1-15.2,3.9-23.2,3.7c-1.6,0-1.6,2-1.8,3.3l0,0l0,0c-3.7,2.3-7,5-10.4,7.6
		c-5.5,4.1-0.7,4.9,1.3,6.5c1.5,1.2,3.5,0.2,5.3,0l0,0l0,0c1.1-0.2,2.3-0.5,3.4-0.4c5.9,0.6,9.7-6.3,15.9-4.3
		c0.8,0.1,1.5,0.2,2.3,0.4l0,0c7.6,5,11.7,12.8,16,20.3c-0.8,6.3-5.9,9.2-9.9,13.1c-5.8-1-10.2,3.4-15.6,4c-0.4-0.1-0.8-0.1-1.2,0
		c-3.2-0.6-6.3-2.1-9.8-1.4c-3.6,0-7.1-0.1-10.7-0.1l0,0c-1.3-0.3-2.5-0.6-3.8-1l0,0c-2.4-1.5-5.1-0.8-7.6-1.1
		c-4.6-0.6-9.7-0.3-13.4-3c-1.9-1.4-1.9-2.1-3.6-0.1c-1.7,2-4.3,2.3-6.7,1.3c-2-0.8-1.2-2.7-1-4.2c1-0.3,3.4-0.5,2.9-1.1
		c-2.9-3.6,1.2-5.1,2.6-8.4c-4.6,1.6-5.9-1-7-3.8c-1.9-0.4-4.3,0.5-5.6-1.4c-2.6-3.7-5.4-1.2-6.8,0.5c-3.9,4.7-8.8,4.6-14,4.2
		c-3.2-1.8-6.9-1.6-9.9-0.5c-8.3,3-17,1.7-25.3,3.2l0,0l0,0c-0.4-0.2-0.8-0.3-1.2-0.5c-0.9,7.3-6.2,11.8-13.3,10.7
		c4.6,5-2.8,6.5-2.4,10.3c-2.9,1.8-7.2,0.1-9.5,3.5c1.5,2.6-0.3,3.6-2.2,4.2c-2.3,0.7-4.3,1.7-6.1,3.3c-0.2,0.3-0.4,0.7-0.4,1
		c-1.1,0-2.2-0.1-3.2-0.1l0,0c-0.7-0.9-1.4-1.8-2.2-2.7c0.2-0.3,0.3-0.7,0.5-1c-0.1-2.6-2.3-3.8-3.6-5.6c-1.8-0.7-3.6-1.9-5.7-1.4
		c-4.2,0.9-5.4-1.5-5.7-4.9c-1.4-6.8-2.9-13.6-4.3-20.4c-0.4-2.9-1.9-5.6-1.5-8.7c0.4-3.2,1.4-5.4,5.2-4.4c3.8,4.2,7.4,1.8,11-0.3
		c2.6,0,5.1-1.4,7.7-1.2c0.6,0.2,1.3,0.4,1.9,0.4c0.2,1.3-0.4,2.7,0.6,3.7c1.8-1.4,4.2-2.2,4.6-4.9c0.4-2.5,2.5-2.6,4.5-2.6
		c6.3,0.5,4.8,4,2.4,8c4.5-0.4,8.3-0.7,12.2-1.1c3.1,1.7,3,6,6.2,7.6c0-4.4-0.1-8.9-0.1-13.3c8.3-3.6,18.5-1.9,26.3-9.4
		c-2.7-0.1-4.8-0.2-6.9-0.3l0,0c-0.7-0.6-2.2-1.6-2.1-1.8c2.5-5.5-1.3-5.5-5-6.8c-5.6-2.1-10.6,1.3-15.9,0.4
		c-7.1,3-15.2,1.1-22.3,4.4c-1.4,0.7-3.5,0-5.3-0.1l0,0c-2.1-1.4-3.4-4-6.2-4.3c-3.2,0.8-6.4-3.1-9.7,0c-6.1-0.6-12.2-0.9-18.1,1.3
		c-1.3-0.9-2.6-1-4.4-0.9c-6.7,0.3-12.5,4.7-19.3,4.4c-3.7-0.2-8.5-1.6-8.5,4.9c0,2.2-5,1.3-3.2,4.8c0.5,1.4-0.3,2.5-0.6,3.8
		c-0.8,3.5,0.9,3.5,3.3,2.1c0.9,0.3,1.9,0.4,2.2,1.6c1,3.2,9,6.5,11.3,4.3c2.5-2.4,5.3-2.2,8.2-2.6c6.5-0.3,12.7,0.1,15.6,7.4
		c2.4,7.6,4.9,15.3,7.3,22.9c2.7,10.3-6.9,9.3-12.7,12.5c3.8,1.3,6.4,0.6,9.1,0c2.5-0.5,5-0.6,5.1,3c1.6,0.7,3.2,1.5,4.8,2.1
		c-0.8,0.2-1.6,0.6-2.4,1.3c-2.4,2.1-4,2-6.3,0.6c-2.5-0.3-5-0.7-7.2,1c-1.9,0.8-4.6,0.6-4.6,3.8l0,0l0,0c-0.1,2.4-1.1,4.6-3.6,4.6
		c-5.1,0.1-8.9,3.6-13.5,4.9l0,0l0,0c-0.4,0.4-0.8,0.9-1.2,1.3c-3.8,2.2-8.4,0-12.2,2.2c-1.9,1.1-2.4,2.3,0.1,3.2
		c2.8,1,5.6,1.9,8.5,2.9c3,2.4,6.5,3.8,10.1,4.9c6.5,1.9,11.2,5.6,13.8,12c-5.1,6.8-14.9,3.4-21.8,9.8c10.7,1.8,20.2,2,29.6-0.5
		c4-1.1,7.8-1.6,11.6,0.5c1.5,3.5,4,6.5,7.3,8c2.8,1.3,2.6,2.9,2.3,5c-10.4,0.3-10.4,0.3-5.6,9.1c0.2,0.3,0.4,0.7,0.7,1l0,0
		c0.6,2.7-1.5,3.5-3.2,4.6c-1.3,0-2.7-0.1-3.7,1c-4.6-1.4-2.1-7.1-4.7-8.7c-5-3.1-3.8-5.4-0.6-8.7c1.3-1.4,1.8-3.5,2.7-5.2
		c-0.2-0.1-0.3-0.1-0.5-0.2c-1-0.4-2-0.9-2.9-0.8c-3.1,0.4-8.8-3-7.1,4.8c0.3,1.3-0.9,1.9-2.4,1.6c-4.2-0.7-6,2-7.5,5.2
		c-1,2,1.6,1.3,1.8,2.4c1.7,4,2.2,8.4,5.6,11.7c2.2,2.1,0.9,4.3-1.6,5.8c-3.2,2-6,4.5-8,7.9c-1.9,1.4-3.7,3.4-2.3,5.4
		c1.3,1.8,3.7,0,5.5-0.5c1.3-0.4,2.7-0.8,4-1.1l0,0c0.4,2.9,2.5,5.7,0.2,8.6c-3,0.5-7.2-0.8-8.3,2.8c-1.4,4.9-0.2,9.7,4.3,12.7
		c-3.1,3.2-5.9,6.2-9.5,8.2c-0.3,2.1-5.1,3.7-2,5.8c3.5,2.4,1.5,3.5-0.1,4.7c-4.3,3.1-3.6,7.1-2.7,11.3c-4,1.8-8,3.3-11,7
		c-2.3,2.8-2,3.8,1.4,4.8c6.4,1.9,12.3-0.2,18.3-2c0.9,1.1,2.5,1.7,2.4,3.5c-3,5-9.2,4.1-13.2,7.3c-1.4-0.2-2.8-0.2-4.1-0.7
		c-2.2-0.9-4.6-2.9-6.6-1c-2.2,2-1.8,5.1-0.4,7.8c-4,2.4-8.5,2.8-12.8,2.3c-5.4-0.6-6.1,1.4-4,5.6c1.8,3.5,0.8,4.5-2.9,4.5
		c-4.3-0.1-8.8-0.5-13,1.4c0.9,2.7,3.2,4.2,5.1,5.8c3.5,3,3.9,5.1-1.1,6.9c-5,1.8-8.2,5.5-11,11c5.3-1.4,9.8-1.7,14-0.9
		c3.1,0.6,7.5-0.3,8.7,4.4c-5.8,2.4-9.1,6.3-9.9,12.8c-0.8,6.2-0.5,12.3-0.7,18.4c-2.7,2.1-5.2,4.4-8,6.4
		c-5.9,4.3-8.1,10.1-7.7,17.2c0.4,6.2,2.4,11.8,6,16.7c8.3,11.3,12.9,12.2,24.7,4.9c1.4-0.8,2.8-1.6,4.1-2.5
		c5.8-3.7,12-3.5,18.3-1.6c-0.6,3-5.3,2.7-4.6,6.5c4.1-0.1,8-0.4,11.9-1.7c7.6,0.1,14.8-1.8,21.7-4.8c5-1.9,10-3.9,13.5-8.4
		c1.1-0.5,2.3-1,3.4-1.4c0.8,0.5,1.5,1,2.3,1.6c7.3,7.1,15.8,12.2,25.3,15.7c0.3,7.6,3.7,11.1,12.1,12c-0.3,1.9,1.4,2.5,2.4,3.5l0,0
		c1,8.5-0.1,16.2-8.5,21c-2.4,1.3-3.7,3.5-4.9,5.9c-1.6,3-1,4.3,2.5,4.5c4.3,0.1,8.3-0.7,12.1-2.7c2.8-0.4,5.6-0.8,8.3-1.1
		s6.2-1.4,7.8,1.1c1.2,2-1,4.8-2.2,7.1c-4.9,9.9-5.9,20-1.8,30.5c1.3,3.3,2.7,3.2,5.2,1.3c7.1-5.7,11.1-13.7,16.3-20.8
		c4.1-7.5,3.6-16.5,7.3-24.1c6,1.7,11.3,4.3,13.4,10.8c-4.8,3.3-8.4,7.7-12,12.2c-1.4,1.7-2.9,3.4-4.3,5.2c3.1,2,6.7-0.7,9.1,2
		c-0.8,0.6-1.7,1.2-2.2,2c-1.5,2-5.4,3-4.2,5.8c1,2.4,4.6,1.7,7.2,1.6c6.5-0.1,13.1-0.3,19.6-0.5l0,0c-6.4,4.5-12.7,9-19.1,13.4
		c-3.5,2.4-2.5,4.5,0.8,5.2c11.5,2.6,22.9,3.6,33.1-4.4c1.2,0,2.3,0.2,3.3,1.1c8,7,17.2,10.8,28.1,9.6c0.7,0.1,1.5,0.3,2.2,0.4
		c4.4,1.6,9,0.6,13.5,0.6c2.2,0.1,4.4,0.7,6.4-0.8h0.4l0.4-0.2c1.7-0.1,3.4-0.4,5.1-0.3c1.8,0.1,3.8,0.9,4.9-1
		c1-1.7-1.1-2.7-1.9-3.9c-2.6-3.9-0.8-4.8,2.9-4.5c3.9,0.3,5.9-0.8,3.9-5l0,0c-0.1-0.4-0.2-0.7-0.5-1c0.8-2,1.6-4.1,2.5-6.1
		c7.5-5,12.1-13,19.2-18.2c0.8-0.3,1.6-0.6,2.5-1c1.7,1.6,3.8,1.2,5.8,1.2c2.2,1.5,3.6,3,0.4,5c-1.5,0.9-2.7,2.2-4.1,3.3
		c-3.7,1-5,4-6.1,7.2c-3,3.4-4.2,7.2-2.4,12.1c2.4-2.4,4.5-4.5,6.6-6.6l0,0c3.4-3.4,8.3-4,12.2-6.4l0,0c9.5-2.3,18.7-5.1,28-8.1
		c9.6-3.1,19.3-5.9,29.7-5.1c0,0.3,0,0.6,0,0.9c-1.6,1.3-3.2,2.5-4.7,3.8c-10,7.3-20.1,14.6-30.1,21.9c-3.3,2.4-3,4.8,0.3,6.4
		c11.1,5.3,22.5,6.5,34.3,1.7c8.1-3.3,14.3-9.6,22.1-13.2c4.2-1.5,8.3-3.1,12.5-4.6l0,0c3.6,0,7.1-0.4,10.5-1.5
		c8.4-1.2,16.9-2,21.8-10.5c4.3-3.3,6.2-7.8,6.1-13.2c4.4-0.5,8.8-1,13.2-1.5c2.7,2.2,5,5,8.3,6.3c1.9,2.7,4.6,4.3,7.3,5.9
		c4.9,5.5,11.6,8.6,17.9,12.1c6.6,5.8,14.6,9.7,20.9,16c2.1,2.2,5.6,3.1,8.5,4.3c2.3,0.9,4.1,0,4.3-2.6c0.3-5.1,1.8-10.5-0.6-15.4
		c-4-8.1-5.8-16.5-5.3-25.4l0,0c0-0.8,0-1.7,0-2.5c-1.3-6.4,3.2-9.1,7.5-11.9c2.1-1.1,4.2-2.3,6.3-3.4c6-3.3,9.1-2.2,12,4.5
		c0.4,3.2,0.8,6.4,1.2,9.7c0.4,2,0.8,4,1.2,6c0,2.8,0.1,5.6,0.1,8.4l0,0l0,0c-0.1,2.2,0,4.4,1.9,7.1c6.5-10.5,17.2-14.8,27.1-20.4
		c4.5-2.5,8.7-5.5,13.1-8.3c7.3,1.3,8.7,7.7,11.1,13.1c2.7,8.2,9.5,12.4,16.2,16.8c3.3,2.1,4.8,1.6,6.7-2c3-5.5,1.1-11.9,4.3-17.1
		c0.5-0.8,1-1.6,1.5-2.3c6.2,0.2,11.4,5.3,18,3.7c2.5,6,7,8.3,13.4,7.1c2.4,2.4,4,5.7,7.3,7.3c5.2,4.1,10.5,8,15.4,12.3
		c2.4,2,4.1,1.4,6.4,0.2c9.9-5.2,19.9-10.2,29.8-15.3c3.6-1.9,7.3-3.3,11.2-0.8c0.6,2.4,1.3,4.8,1.9,7.3l0,0
		c3.8,7.9,4,17.4,10.7,24.1c5.3,5.3,8,5.2,12.5-0.5c1.2-1.5,1.7-3.7,3.8-4.5c6.8,1.7,11-1.7,14.3-7.1c2.5-2.3,3.3-5.5,4.7-8.5
		c2.3-4.5,5.3-8.9,2.6-14.3c2.8-2.5,5.8,0.8,8.7-0.2c2.9,0.6,6.4-0.7,8.3,2.8c2.5,5.3,6,9.8,10.8,13.1c1.7,2.3,4,3.8,6.5,5.1
		c8.6,4.3,10.2,3.4,10.7-6.3c2.9,1.7,5.6,3.7,8.6,5.2c4.4,2.1,7.9,0.1,9.5-4.4c1.1-2.9,0-5.4-0.4-8.1c0.1-1.1,0.2-2.2,0.4-3.4l0,0
		l0,0c2-1.6,6.2-1.3,5-5.9c-0.1-0.6,1.4-1.8,2.3-2.4c4.2-2.5,7.3-6.1,10.6-9.5l0,0c2.2,0.8,1.8,3.5,3.5,4.6l0,0
		c1.1,5.9,5.6,9.7,8.7,14.4c2.4,3.7,4.7,4.8,8.3,2c5.2,0.1,10.3,0.1,15.5,0.2c1.2,1.2,2.3,2.5,3.5,3.7l0,0
		c3.7,5.5,9.7,8.2,14.8,11.9c3.6,1.3,7.4,2.5,4.2,7.7c-0.4,0.6,0.8,1.6,1.9,1.9c10.3,5.2,21.1,6.5,32.6,5.2
		c13.8-1.5,27.4-3.4,39.9-10c5.9-2.7,12.4-3.8,18.1-7.3c2-0.4,3.8-0.5,3.8,2.4c1.5,2.3,3.2,1.4,4.9,0.2c3-0.1,5.7-0.8,8.3-2.4
		c10.9-1.2,15.9-10.4,22.9-16.8c2.1,0.1,2.4,1.9,3.1,3.3c0.9,1.8,1.4,3.7,4.3,2.8c2.8-0.9,2.2-3.1,2.1-4.9c-0.1-6.5-7.9-15-14.8-16
		c-1.9-0.3-3.5-0.5-4.5-2.2c0.2-2.6-3.3-4.2-1.9-7.2l0,0c4.9-2.4,7-9.6,14.1-8.4c0.2,1.3,0.6,2.4,2.1,2.5c1.4,2,2.7,3.9,4.1,5.9
		c2.4,7.1,8.7,11.4,12.9,17.1c1.5,2,3.2,5.2,5.9,4.4c3.1-0.9,0.9-4.6,1.9-6.8c7.6,1.7,10,0.2,11.3-7.1c0.3-1.9,0.4-3.6,2.7-4
		c8.7,3.1,17.9,3.8,26.9,5.1c1.3,0.2,3.2,0.6,3.6-1.1c0.5-2-1.3-2.7-2.8-3.2c-4.7-1.6-9.5-3-14.3-4.5c0.7-1.9,1.5-3.9,2.2-5.8l0,0
		c1.7-1.9,3.8-1.6,6.1-1.1c15.8,3.5,31.7,6.9,47.6,10.3c2,0.4,4.5,1.1,5.3-1.1c1.1-3-2.2-2.7-3.7-3.4c-5.5-2.8-11-5.4-17-7.2
		c-4.7-1.4-8.1-6.2-13.7-6l0,0c-2-1.4-1.3-5.6-5.2-5.2c-0.2-2-0.5-4,1.3-5.5l0,0c2.2,0,3.3-1.1,4.5-3c4-5.8,8.2-11.6,14.3-15.6l0,0
		l0,0c3.8-4.2-0.9-6.4-2.3-9.4l0,0c-1.2-0.8-2.5-1.6-3.7-2.3l0,0l0,0c-0.9-1.3-0.4-2.4,0.3-3.6c1.2,0,2.4,0.2,3.6-0.1
		c1.7-0.4,4.3,1.7,4.8-1.6c0.5-3.4-2.3-2.9-4.3-3.4c-0.4-0.1-0.6-0.8-1.2-1.6c2.3-0.7,4-2.1,6.4-1.1c3.3,1.5,6.6,2.8,9.9,4.1
		c2.5,2.1,5,4.3,7.7,6.6c1.4-3.9,0.4-6.6-1.3-9.6c-4.3-7.5-11.6-12.6-16.1-19.9c-3.8-8.7-6.8-17.9-13.1-25.4
		c-1.1-1.2-2.2-2.5-3.4-3.7l0,0c-1.2-2.4-3.3-1.5-5.2-1.5c-4.3,0-8.6,0.1-12.9,0.2c-3.3-0.5-5.8-2.2-8.1-4.6
		c-3.4-3.6-6.4-7.8-11.6-9.3c-0.7-0.1-1.5-0.2-2.2-0.3c0.2-3.9-1.5-6.9-4.2-9.6c-1.3-1.3-3.4-2.3-3-4.8c3.3-3.5,6-2.9,8.2,1.2
		c0.8,1.8,1.7,3.7,3.4,4.9c2.6,2.1,3.1,8.1,8.7,4.5c6.6-3.2,11.1-8.7,15.8-14.1c0.9-0.8,1.9-1.5,2.6-2.4
		c10-12.2,13.2-26.9,15.4-41.9c0.4-2.6,0.7-4.7,3.6-5.4c3.2-0.3,6.4-0.4,9.5-1.1c7.8-1.7,15.6-3.7,22-8.9c1.1-0.9,2.5-1.6,2.1-3.3
		c-0.4-2.1-2.2-2-3.8-2.2c-7.8-1-15.6-1.7-23.4-1.5c-2.8,0.1-5.6-0.4-8.4-0.8c-1.1-0.1-3.1-0.4-2.2-1.8c2.5-4.1-1.3-3.3-3-4.3
		c0.3-2.3,3.7-3.7,1.4-6.9C1155.3,428.2,1158.6,428.5,1161.4,428.7z M294.1,292.1c0.5,0.4,1,0.8,1.5,1c0,0.1-0.1,0.2-0.1,0.3
		c-0.1,0.8,0.1,1.6,0.3,2.3l0,0c-0.1,0.1-0.2,0.2-0.2,0.3c-1.3,0-2.5-0.1-3.8-0.1C291.9,294.3,293.2,293.3,294.1,292.1z
		 M353.8,252.7L353.8,252.7c1.4,1.6,2.6,3.1,3.9,4.6c-1.3,2.1-1.1,4.4-1.1,6.7c-0.6-0.2-1.3-0.5-1.9-0.7c-1.6-0.3-2.8,0.2-3.8,1
		c-0.9-3.6-3.1-3.6-5.7-2.3C347.3,258.3,350.2,255.1,353.8,252.7z M844.9,234.7c0.3-0.4,0.5-0.8,0.7-1.2c0.1-3.8,1.7-7.4,1.8-11.2
		c4,0.9,1.8,5.6,3.7,8c2.8-1.9,0.1-6.1,3.8-6.9l0,0l0,0c3.3-0.5,6.2-2.9,9.8-2.4c4.1-1.4,6.9,2.9,10.8,2.4c0.3,0,0.7,0.1,1,0.1
		c-1.2,2.2-1.1,4.8,0.1,6.4c3,3.8,2.4,8.2,3.1,12.4c0.1,0.1,0.2,0.2,0.2,0.3c-2.9,2.3-2.4,5.5-0.6,8.8c-4,4.1-7,8.1-0.2,12.5
		c0.5,0.3,0.3,1.9,0.4,2.9c0.1,1.3,0.6,2,1.4,2.4c-0.2,1.3-0.4,2.6-0.8,3.9c0,0,0,0,0-0.1c-4.8-8.3-14-8.1-21.7-10.9
		c-1.9-0.7-2.2,0.4-1.8,2.3c1.3,6.9,3.4,13.4,6.9,19.4c-0.1,0.4-0.1,0.8-0.2,1.2c-1.6,0.8-3.1,1.6-4.7,2.5c-1-0.5-2.9-0.9-3-1.5
		c-0.5-5.4-5-5.7-8.7-7.2l0,0c-4.5-9.8-4.6-20.2-3.8-30.7c2.8-0.4,6.9,0.2,6.7-3.8c-0.2-3.5-3.7-1-5.7-1.5c-4.5-6,2.9-4.9,4.7-7.5
		C847,236,845.8,235.5,844.9,234.7z M742.6,262.2c0.2,1.2,0.8,2.3,1.6,3.2c-1.3,1.1-2.6,2.2-2.5,4.2c0.2,4.4-2.6,4.4-5.9,4.4
		c-3,0-5.6-2.1-8.7-1.2l0,0c-0.8,0-1.5,0.1-2.3,0.1c-1.1-5.6,1.4-11.1,0.2-16.7c0-0.1,0.2-0.4,0.3-0.5c3.8-1.6,4-5.3,5.3-8.4
		c0.4,0,0.7,0.1,1.1,0.1C736.6,251.5,741.7,255.2,742.6,262.2z M849.9,205.7C850,205.8,850,205.8,849.9,205.7
		c0.1,0.1,0.2,0.2,0.3,0.2c-0.1,0-0.3-0.1-0.4-0.1C849.8,205.8,849.9,205.8,849.9,205.7z M352.7,283.4
		C352.7,283.3,352.7,283.3,352.7,283.4C352.7,283.3,352.7,283.4,352.7,283.4c-0.1,2,0.2,3.7,0.8,5.3c-0.2-0.1-0.3-0.2-0.5-0.3
		c0-0.1,0-0.1,0-0.2C352.8,286.6,352.1,285,352.7,283.4z M161,611.9C161,611.9,161,611.8,161,611.9C161,611.8,161,611.8,161,611.9
		C161,611.8,161,611.9,161,611.9L161,611.9z M411.6,364.8c1.7,0.5,3.4,1.3,5.2,0.6c0.3,1.5,0.9,2.9,0,4.4c-0.1,0.1-0.2,0.3-0.3,0.4
		c-2.7-0.1-4.8,0.9-4.6,5.2c-4.1,1.7-8,1.3-12.2-2c0.4,1.6,0.5,2.2,0.7,2.7c0.7,1.6,2.2,3,1.1,4.9c-0.6,1-1.7,0.8-2.7,0.4
		c-2-0.8-3.2-1.8-2.7-4.5c0.5-2.8-1.9-1.6-3.2-1.6l0,0c-2.9-2-6.1,0.9-9.1-0.2c0.5-0.6,0.9-1.4,1.2-2.2c0-1-0.1-2.1-0.1-3.1
		c2.4-0.9,5.3-0.2,7.8-0.6c-0.5-0.2-1-0.3-1.5-0.4c0.5,0.1,1,0.2,1.5,0.4c4.1,0.5,7.7-0.7,10.9-3c0.4,0.1,0.9,0.2,1.3,0.4
		c1-0.2,1.7-0.7,2.2-1.6c0.1-0.5,0.2-1,0.2-1.4c0.6-0.3,1.1-0.6,1.7-0.9C409.9,363.5,410.7,364.2,411.6,364.8z M173.1,377.9
		L173.1,377.9L173.1,377.9L173.1,377.9L173.1,377.9z M313.8,441.2c5.2-1.7,10.4-3.9,16.1-3l0,0c1.6,1.2,3.2,2.4,4.8,3.6
		c2.7-1.6,5.9,1.6,8.5-0.1c0.7,0.2,1.5,0.3,2.2,0.6c1.5-0.3,2.6-1.1,3.2-2.5c2.6,1.2,5.8,1.1,7.9,3.1c-1.4,0.7-2.6,1.5-2.9,3.2
		c-2.4-0.5-3.7,0.9-4.3,3.4c-0.1-0.1-0.3-0.2-0.5-0.3c-0.8-0.3-1.5-0.3-2.1-0.1c0.9-4-2.8-4.3-5.8-5.4c-3.8-1.4-4.4,0.8-4.7,3.7
		c-0.1,0.8-0.9,1.3-1.5,1.7c-4.1,1.1-7.8,3.4-12.1,3.7h-0.1c-0.7-0.3-1.4-0.6-2.1-0.9c-0.4,0.1-0.8,0.3-1.1,0.5
		c-4.4-2.3-7,1.6-10.1,3.6l0,0c-0.4,0.1-0.9,0.1-1.3,0.2c-2.1-3.5-3.9-7.1-7.6-9.2c0.6-1.2,0.8-2.5,0.8-3.9l0,0
		C305.4,443.1,309.6,442.6,313.8,441.2z M424.7,392.2c3.4-1,6.8,0.5,10.2,0.2l0,0c0.3,0.2,0.7,0.3,1,0.5c-0.5,1.6-1.6,3-1.7,4.7
		c-3.2-1.1-6.5-0.9-9.9,0.4c0,0,0,0-0.1,0c0,0,0.1,0,0.1-0.1C425.5,396,425.9,394.1,424.7,392.2z M384.2,439.4L384.2,439.4
		L384.2,439.4L384.2,439.4z M384.2,439.4L384.2,439.4v0.1c-0.1,0-0.1,0-0.2,0C384.1,439.4,384.1,439.4,384.2,439.4z M482.9,397.6
		c0-0.1,0-0.2,0-0.4c0.2,0,0.3,0,0.5,0C483.2,397.4,483,397.5,482.9,397.6z M372.2,383.9L372.2,383.9L372.2,383.9
		C372.2,383.9,372.1,383.9,372.2,383.9C372.1,383.9,372.2,383.9,372.2,383.9L372.2,383.9L372.2,383.9z M764.5,496.1L764.5,496.1
		C764.5,496.1,764.5,496.2,764.5,496.1L764.5,496.1L764.5,496.1z M785.7,548.4c-0.2-2.7-3.9-2.7-5.2-4.7c-1.6-3-4.3-3.9-7.5-4
		c-2.1-0.5-3.8-1.9-5.9-2.2c-4.2-1-3.2-5.2-4.9-7.8c0.3-0.4,0.6-0.8,0.9-1.2c0.5-0.4,1-0.7,1.6-0.9c4.3,0.2,9.1,1.5,10-5
		c-0.1-0.1-0.2-0.3-0.3-0.4c0.8-0.1,1.4-0.5,1.8-1.3c0.2-0.6,0.2-1.2,0-1.8c0.8-0.1,1.5-0.2,2.3-0.3c0.2,0.3,0.3,0.6,0.6,0.9
		c1.8,0.9,3.3,0.9,4.6-0.8c3.3-2.2,3.1,0.8,3.7,2.5l0,0l0,0c2.8,0.8,5.7,1.6,8.5,2.3c2.3-2.3,5.8,0.5,8.4-1.4c-1.4-2.8-4.1-3-6-4.4
		c-2-0.5-3.4-1.6-3.4-3.8c-0.4,0-0.8,0-1.2,0.1c-0.2,0-0.3,0.1-0.5,0.2c0-0.1,0-0.2,0-0.3l0,0l0,0l0.5,0.2c-0.1-0.4-0.1-0.7,0-1.1
		l0,0c6.2,0.2,10.1-5.6,15.9-6.2c-1.2-0.9-2.6-1.2-4.1-1.1c-6.3,0.5-7.3-0.4-7.1-6.1c0.1-2.1-0.1-4.1-2.9-4.2
		c-0.6-0.1-1.1,0.1-1.6,0.3c-1.6-0.8-3.2-2.2-5.6-0.9c0.8,2,2.3,2.6,3.9,3c-0.6,0.8-1.3,1.5-2.1,2c-0.1,0.1-0.2,0.1-0.3,0.2
		c-3.1-2.1-7.1-3.2-8.6-7.3c-0.4-0.5-0.8-1-1.3-1.4c-1-0.9-2.7-2.8-3.4-1.5c-1,1.7-2.2,2.6-3.6,3.1c-2.2-0.4-4.5-0.4-7,0.4
		c-0.6,0.2-1.2,0.5-1.6,1c-0.1,0.2-0.2,0.3-0.2,0.5c-2.3-0.2-4-1.1-4.5-3.7c-2-0.4-4-0.8-4.7,1.4c-0.3,0-0.5-0.1-0.8-0.1
		c-1.3,0.5-2.1,1.4-2.5,2.7c-0.1,0.4-0.1,0.8-0.2,1.2c-0.6,0.2-1.2,0.6-1.7,1.3c-1.5,2.3-3.3,4.2-6,5c-1.4,0.4-3.5,1.7-2.7,2.4
		c2.5,2.3-0.8,6.4,2.4,8.2c0,0.3,0.1,0.6,0.1,1c0.8,2.6,2.8,3.3,5.3,3.4c1.1-0.2,2.2-0.3,3.3-0.5c-3.1,6.7-3.1,6.7,4.7,7.4
		c2.9,0.3,2.4,2,1.9,3.7c-0.1,0-0.1,0-0.2,0c-3.6,0.3-6.8,1.9-10.1,3.3c-2.2,2.1-2.7,5.7-6.5,6.6c-1.9,0.5-2.3,3.1-1.5,5.2
		c1.2,1.9,3,2.4,5.1,2.2c7.7-0.7,8.4-0.7,10.8,4.3c-6.9-0.5-14.2,0.5-19.2-6c0.2-0.2,0.4-0.4,0.6-0.6c0.3-1,0-1.4-0.8-1.2
		c0.2-0.4,0.2-0.9-0.2-1.5c-5.5-2.4-14.1-0.5-18.1,3.6c-0.1-0.2-0.2-0.3-0.3-0.5c-3.9-0.9-7.4-2.9-11.1-4.5c1.5-0.7,2.4-2,2.4-3.9
		c0.1-3-2.5-3.5-4.6-3.8c-3.1-0.4-5-2.2-6.7-4.5c-1-1.4-1.5-3.2-2.7-4.6c2.3-1.5,4.4-3.4,7.1-4.2c4.8-0.4,9.6-0.9,14.4-1.3l0,0
		c2.3-0.9,3.5-2.1,0.9-4c-2.2-1.6-9.1-1.5-14.2-0.3c-0.2-0.1-0.4-0.2-0.5-0.3c-0.9-0.4-1.9-0.5-2.9-0.7c-2.1-0.3-4.3-1.1-6.4-0.6
		c0.2-0.4,0.3-0.8,0.4-1.3c0.4-4.3,3.1-6.6,6.6-8.3c3.9-3.4,6.6-8.3,11.4-10.8c1.8-1.7,3.3-3.7,3.9-6.1c0.6,0.3,1.3,0.4,2,0.5
		c3.3-0.8,6.5-1.7,7.2-5.1c3.3,1.4,6.6-0.3,9.9-0.1c1.6-0.1,3.1-0.8,4.6-1.3c14.6-4.6,29.1-4.8,42.1,4.2c7.4,5.1,14,2.1,21.1,0.7
		c0,0,0,0,0-0.1c2.6,3,5.4,2.8,8.1-0.3c2.5-1.4,4.8-1.6,6.8,0.1c0.2,1,0.3,2,0.4,3c3.2,5.7,4.9,7,10,5.6c0.6,0.2,1.1,0.4,1.7,0.7
		c1,0.5,2,0.9,3,1.3c2.2,1,3.7,2.8,5.3,4.4c0.2,1.1-0.1,2.3-1,3.8c-0.6,1,1.2,1.7,2.4,2l0,0c0.1,0.3,0.2,0.5,0.2,0.8
		c0.5,0.6,1.1,0.7,1.7,0.4c-0.1,0.5,0,0.9,0.1,1.4c0.4,0.5,0.8,1.1,1.1,1.7c-0.8,3.1-2.3,5.7-5.1,7.7c-1.4,1-2.8,2.3-2.4,4.5
		c4.8,6.3,3.9,8.6-3.8,10.7c-2.4,0.7-4.7,1.9-7,3c-0.1,0.3-0.2,0.5-0.3,0.8c0,0.4,0,0.8,0,1.2c-5.3-0.5-9.4,0.2-7.2,7.3
		c0,0.1,0,0.3,0.1,0.4c-0.2,0-0.4,0-0.6-0.1c-0.6-0.1-1.2-0.2-1.8-0.3c-3.7-0.5-6,2.6-9.1,3.5c-0.3,0.1-0.6,0.2-0.8,0.3
		c-2.3-0.2-4.5-0.5-6.7-0.9c-0.7-2.6,3.5-1.8,3.5-4.3c-2.9-1.5-5.5-1.8-7.6,1.4c-0.2,0.6-0.3,1.1-0.5,1.7c-0.1,0-0.3-0.1-0.4-0.1
		C790.1,544,787.7,546,785.7,548.4z M570.1,474.3L570.1,474.3c0-0.1,0-0.1,0-0.2l0.1,0.1C570.2,474.3,570.2,474.3,570.1,474.3z
		 M862.8,464.6c-1.9,0.9-4.6,0.1-5.6,2.5c-0.9-3.3-4.2-3.3-6.5-4.1c-2-0.7-3.6-1.4-3.7-3.4C852.2,461.2,857.7,462.2,862.8,464.6z
		 M911.6,466.4c0.2,0.3,0.5,0.6,0.7,0.8c-0.7,0-1.4,0.1-2.1,0.1C910.8,467.1,911.2,466.8,911.6,466.4z M873.7,474.9
		c-0.3,0.2-0.6,0.4-0.8,0.7c-0.3-0.3-0.6-0.5-0.9-0.8c0.7-0.7,0.7-1.4,0.5-2.1c1.8,0.3,3.5,0.8,5.3,0.9
		C876.4,473.9,874.9,474.2,873.7,474.9z M903.2,449.6c0.3,1,1.2,1.6,2.2,2.1c1.8,0.9,2.6,2.2,2.6,3.9c-0.6,0.1-1.3,0.3-2,0.6
		c-0.3,0.2-0.6,0.3-0.8,0.5c-0.8-0.4-1.7-0.6-2.7-0.6c-2.5-0.1-4.3,1.6-6.4,2.4c-1.9,2.6-1.6,5-0.4,7.3c-0.2,0-0.3,0-0.5,0
		c-0.3-0.3-0.5-0.7-0.4-1.1c0.3-4.5-2.3-5.9-6.1-6.4c-1.2-0.4-3.3,1.8-3.3-1.7c0-2.4-1.9-4.4-4.7-4.5c-3.7-0.1-7.4-1-11,0.7
		c-1.7,2.5-1.1,5.9-3.1,8.3c-0.1-0.1-0.1-0.2-0.2-0.4c-3-2.4-7.2-1.5-10.3-3.6c-3.1-1.4-6-4-9.6-2.7c-0.1-0.2-0.2-0.3-0.3-0.5
		c-0.7-0.5-1.5-0.9-2.3-1.2c1.7-0.2,3.4-0.8,5-1.8c0.9-0.2,1.8-0.5,2.7-0.7c1.6,1.2,3.2,1,4.6-0.4l0,0c2-2.7,4-5.3,6-8
		c2.6,1.5,5.1,1.7,7.4-0.4c0,0.2,0,0.5,0,0.7c1.7,3.7,5.4,4.9,8.5,4.2c6.9-1.7,12.8,0.8,19,2.5C899.1,449.6,901.1,450.6,903.2,449.6
		z M834.4,424.8L834.4,424.8L834.4,424.8L834.4,424.8L834.4,424.8L834.4,424.8z M1007.1,457.7l-0.1-0.1l0.1-0.1l0,0
		C1007.1,457.6,1007.1,457.6,1007.1,457.7z M685.5,380c0-0.1,0-0.1,0-0.2c0-0.5-0.1-1-0.1-1.4c0.3,0.6,0.6,1.2,1,1.7
		C686,380.1,685.8,380,685.5,380z M326.2,407.9L326.2,407.9L326.2,407.9c6.7,2.4,14.1-0.1,20.8,4c3.2,2,4.3,6.2,8.2,7l0,0
		c2,0.8,4.1,1.6,6.1,2.4l0,0c0.4,2.8,0.7,5.6,1.1,8.3l0,0c-1.4,0.9-1.9,2.1-1.2,3.7l0,0c-1.5,3-4.6,2.7-7.2,3.6
		c-3.9-1.9-7.6-4.6-12-1.2l0,0c-5.1-3-10.1,1.2-15.3,0.3c-3.4-0.6-3.9-1.5-2.1-4.3c-4.6,0.2-8,1.1-10.2,5c-1.1,1.9-3.1,2.7-4.9,0.3
		c4-1.3,1.9-2.5-0.1-3.7l0,0c4.9-3.7,0.6-7-0.6-10.3c-0.3-0.9-10.7-2.1-11.4-1.4c-0.2,0.2-0.5,0.8-0.4,1c1.3,3.3-2.6,5.2-2.2,8.3
		c-3.6,0.6-5.8-3.9-9.6-2.4c-1.6,0.6-3.6,0.4-4.8,2.8c7.6,2.3,15.2,4.4,21.6,9.1c-1.2,0.5-2,1.3-2.5,2.5l0,0c-2-1.1-4-0.9-5.9,0
		c-6.1-4.5-12.5-7-19.7-4.4c-0.4-0.3-0.8-0.7-1.2-1.1c-4.3-0.6-6.2-3.8-8.2-6.9c0.9,0.2,1.8,0,1.9-0.6c0.9-3.9,4.4-6.8,4.4-11
		c1.5-0.1,3-0.2,4.5-0.3c6.5,0.3,9.1-0.7,9.8-4.2c2.4-0.2,4.5-1.6,7-1.8c4-0.4,6.5-1.2,7.6-2.4c2,0,4-0.2,5.9-1l0,0
		C312.7,410.1,319.3,407.7,326.2,407.9z M560.5,424.7L560.5,424.7c2.8,0,5.6,0,8.4,0c0.4,0.1,0.9,0.2,1.3,0.3c0.4,0,0.7-0.1,1.1-0.1
		c2.8-0.2,5.4,0.5,8.1,1.4c3.6,1.1,7.3,3.2,11.3,1.1l0,0c4.9-0.6,9.7-0.5,14.4,1.1c2.3,1.6,4.5-0.1,6.8-0.2c0.4-0.3,0.9-0.6,1.2-0.9
		c2.5,0.1,5.4,2.4,7.5-1c-1-0.2-2.2-0.4-2.3-1.5c0-0.8,0.5-1.2,1.1-1.6c0.2,0.1,0.3,0.2,0.5,0.4c0.6,0.5,1.4,0.8,2.2,0.8
		c5.1,0.1,10.4,1.2,15-2.3c0.1-0.2,0.2-0.5,0.3-0.7c3.8,0.2,7.5,0.2,11.2-1.2c1.6,0,3.2,0,4.8,0c1.2-1.3,3.8-0.5,5.1-3.6
		c-3.4,0-6.1,0-8.7,0c-0.8,0.2-1.6,0.4-2.4,0.6c-0.7,0-1.6,0.3-2.4,0.6c-2.4,1.4-5,1.1-7.6,1.3c0,0,0,0,0-0.1
		c-0.7-1.3-1.9-1.7-3.3-1.8c-7.9-0.3-7.9-0.3-9.8-7.7c-0.1-0.6-0.7-0.9-1.2-1.3c-4-2-8-4-12.1-6c-1.5-1.6-3-1.4-4.7-0.2
		c-5.2,0.5-10.5-1.3-15.7,0.2c-2.5,0.5-3.7,1.8-4.1,3.7c-1-1.4-2.1-2.4-4.5-1.4c-2.4,0.8-4.8,1.6-7.2,2.4c-0.4,0.4-0.8,0.8-1.2,1.2
		c-0.9,3.7-1,5.1,0,6.2c0,0.5-0.1,1,0,1.5c0.1,1.1,0.5,2.2,1,3.2c0.3,0.4,0.7,0.8,1,1.2l0,0c-4.6,2.1-9.5,0.6-14.2,1.2l0,0l0,0
		c-4.1,0-8.3,0-12.4,0c-1.5-0.4-3-0.9-4.4-1.8c-2.1-0.7-4.2-0.3-6.3-0.2c0.9-0.5,1.8-1,2.1-2.1c0.9-3.1,3.3-4.2,6.1-4.9
		c1.8-0.5,3.5-1,3.1-3.1c1.1-0.1,2.2-0.3,3.3-0.5c5.2-0.6,10.1-2,14.3-5.6c1.6-1.4,3.6-1.5,5.6-1.7c0.9-0.1,1.9-0.3,2.6-0.9
		c0.4-0.5,0.7-1,0.9-1.5c6.9-2.1,14-1.9,21.2-0.9c2,0.1,4,0.2,6,0.3c0.5-0.3,0.9-0.7,1.2-1.1h0.1c0.2,0.2,0.4,0.4,0.7,0.6
		c5.8,1.4,11.7,2.5,17.4-0.2c0.2,0.3,0.5,0.5,0.8,0.8c3.5,1.4,7.3,2,10.8,3.7c0.1,0,0.1,0,0.2,0c0.4,0.9,1.5,1,2.6,1
		c2,1.4,4.1,1.4,6.3,0.4c0.2-0.1,0.4-0.3,0.6-0.4c0.1,0.1,0.1,0.1,0.2,0.2c1.5,0.5,3.1,0.9,4.7,1.1c-0.4,0.3-0.6,0.8-0.7,1.5
		c2.2,1.3,5.1,0,7,2.1c0.8,0,1.5,0,2.3,0.1l0,0c1,1.6,0.1,4,2.8,4.8c4.1,1.2,5.6,4.8,7,8.4c0-0.9-0.1-1.8,0-2.7l0,0
		c0.5,0.9,0.8,1.8,0,2.7c-1,1.6-2.4,2.3-4.1,2.4c-0.2-0.2-0.5-0.4-0.8-0.6c-2.8,1.1-3.7,5.5-6.9,5.1c-8.7-1-14.7,5.4-22.3,7.3
		c-0.3,0-0.6,0.1-0.9,0.2c-7.2-1.2-14.3,2.7-21.5,1.6c-0.5-0.9-1-1.7-1.6-2.5c-1.7-1.2-3.4-1.3-5.1-0.1c-0.3,0.3-0.5,0.6-0.7,1l0,0
		c-0.2,0-0.4,0-0.7,0c0.3-0.3,0.7-0.7,1.2-1c-0.4-4.2-2-6.3-6.3-3.6c-2.1,1.9-0.8,5.7-3.9,7.1c-5.3,0.2-10.6,0.9-16,0
		c-2.3-0.3-4.8,0.3-6.8,1.7c-0.3,0.2-0.6,0.5-0.9,0.7c-0.3,0.1-0.7,0.2-1,0.3c-0.2,0.3-0.4,0.5-0.6,0.8c-1.5-2-3.6-0.8-5.5-0.8
		c-3.6-0.8-8.3,1.1-10.1-4.1c2.6-1.1,5.5-2,7-4.8c1.2-0.1,2.5-0.3,2.5-1.8c0-1.1-1-1.7-1.9-1.9c-2.7-0.6-5.1-0.2-6.5,2.7
		c-1.1,1-2.3,1.6-3.5,2c-2-1-4.9-0.7-6.6-2.1c-1.8-0.9-3.4-2.1-4.6-3.6c-0.4-0.3-0.8-0.6-1.3-0.9c0.9-1.1,2.3-1.5,4.3-1.5
		C548.7,424.9,554.6,424.8,560.5,424.7z M424.7,361.5c0.7,0,1.4,0.1,2.1,0.4c2.4-0.7,5.3-0.5,7-2.5c0,0.1,0.1,0.2,0.2,0.3
		c1.1,0.8,2.4,1.1,3.8,0.7c1.5,3.5,5.3,4,7.7,2.7c5.2-2.8,10.7-2.8,16-4c0.4-0.3,0.8-0.7,1-1.1c1.6,1.1,3.3,2.2,3.9,4.2l0,0
		c0.4,0.5,0.7,0.9,1.1,1.4c0.3,0.2,0.6,0.2,0.8,0.3c4,1.2,8.9,1.1,10.1,6.8l0,0l0,0c-3.9,2.3-3.1,4.7,0.2,6.4
		c2.9,1.5,6.2,2.3,9.4,3.4c2.6,5.2-0.5,7.7-4.7,9.6l0,0l0,0c-2.9,0-5.7,0-8.6,0l0,0l0,0c-6-0.5-12.4-3-16.8,3.6l0,0
		c-3.9,0-7.7,0-11.8,0c0.7-3.4,4.3-1.5,4.5-5.1c-2.7-0.3-5.6-0.7-8.4-1l0,0c-0.1-1.7,0.1-3.3,1.1-4.7l0,0c1.3,2.3,2.6,3.3,4,0.1
		c2.2-5.1-1.5-11.6-6.9-12.7c-3.2-0.6-4.7,2.8-7.4,2.8c-2.2-1.2,2.1-4.5-2.2-5C424.3,367.2,422.6,365.5,424.7,361.5z M1049.2,480.5
		L1049.2,480.5L1049.2,480.5L1049.2,480.5L1049.2,480.5z M132.3,477.7c-0.5-0.9-1-1.7-1.5-2.5c0.9-0.6,1.8-1,2.9-0.9
		c2.2,0.1,3.6-1.5,5.2-2.5c1.9-1.2,3.6-2.6,5.2-4.1c1.3-0.5,2.6-0.8,3.9-1.1c7.4-1.5,8.4-2.3,5.4-7.5c0.2-0.2,0.5-0.4,0.7-0.5
		c1.2-1,1.7-2.1,1.4-3.5c0.6,0,1.2,0,1.7,0l0,0c4.3,2.6,9,1.6,12.6-0.4c9.6-5.5,19.5-3.8,29.6-3l0,0c6.4,0.9,12.3,3.3,18.3,5.5l0,0
		c-0.2,5.7-4.6,8.3-8.5,11.2c-3-0.1-6,0.3-8.4,2.4l0,0c-1.2,0.4-2.1,2-3.7,1.2c-1-5,5.1-5.8,6.4-10.1c-4.1,1-6.5,3.6-9.1,5.6
		c-1.9,1.5-2.4,4.8-5.8,4.5c-3.6,0.5-7.4-1.4-10.8,1.2l0,0c-2.5-0.2-5.2-0.2-6.8-2.3c0.6-2.3,4.4-0.7,3.6-3.4
		c-0.5-1.7-2.6-1.5-4.2-1.2c-2.4,0.6-3.2,2.2-2.4,4.5c0.3,0.8,0.7,1.5,1,2.2c0.8,2.1,0.2,3.1-2.1,2.7c-6.3-1.1-13.2,0.6-18.8-4.3
		c-1.2-1.1-3.2-1.4-4.7,0.1c4,4,9.2,5.3,13.9,7.5l0,0c-0.4,0.4-0.8,0.8-1.2,1.2l0,0c-2.8,0.1-5.5,0-8.3,0.2c-1.1,0.1-2.6,0.4-2.4,2
		c0.1,1.2,1.4,1.1,2.4,1.1c1.1,0,2.3-0.9,3.3,0.5c-1.2,1.8-2,3.7-1.1,5.9c-3.6,0.6-7.2,0.5-10.1-2.1c-4.3-3.8-8.8-3.7-13.7-1.7l0,0
		c-0.1-0.3-0.3-0.6-0.4-1C125.8,480.9,128.8,479.1,132.3,477.7z M110.3,523.8L110.3,523.8L110.3,523.8
		C110.4,523.8,110.3,523.8,110.3,523.8L110.3,523.8z M457.8,552.7L457.8,552.7L457.8,552.7L457.8,552.7z M257.8,355.6
		c2.7,1,5.1,0.8,7.4-0.5c0.8,0.2,1.6,0.5,2.6,0.6c5.8,1.3,11.4-0.2,17-1.1c2-0.3,4.2-1.1,5-3.5c1,0.8,2.3,0.8,3.7,0.7
		c2.2-0.1,4.4-0.7,6.6-1.3c4.3,1.1,8.6,2.2,13.1,2c2.1,1.7,3.8,4.7,6.8,4.1c5-1,7.8,1.2,9.9,5.2c0.6,1,1.3,2,2.3,2.5
		c0,0.3-0.1,0.6-0.1,1c0.1,0.6,0.4,1.1,0.7,1.5c-1.1,2.6,0,6.9-5.2,6.2c-0.5-0.4-1.1-0.5-1.6-0.6c-0.6-0.2-1.3-0.5-1.9-0.7
		c2.8-4.5,2.4-10.6-0.7-10.4c-4.7,0.3-10.3-2.3-13.9,3.2l0,0c-2.9,2.3-6.3,3.6-9.7,4.9c-1.1,1.2-4.2,1.2-3.4,3.4
		c0.8,2.2,3.1,0.5,4.8,0.6c7.2,0.2,14.4-1.1,21.5,0.6c-1,1.6-2.1,3.1-4.3,3.8c-1.9,0.6-2.8,2-2.3,3.9c-2.2,1.5-4.4,3.1-6.7,4.6l0,0
		c-2.1-0.5-4.3-0.8-6.4-1.4c-1.7-0.5-3.3-1.7-2-3.4c5.5-7.3-1.7-4.2-3.9-4.7c-1.5-0.4-3.1,0-4.7,0.1l0,0l0,0
		c-4.9-1.9-9.6-1.6-14.1,0.9l0,0c-0.5-0.3-1-0.3-1.5,0.1c-6.2,1-12.5-4.1-18.8,0.4c-0.5,0.4-2.2-0.7-3.2-1.3
		c-1.1-0.6-2.2-0.9-3.3-0.6c-0.1-0.3-0.2-0.5-0.4-0.8c-0.6-0.8-1.3-1.4-2.3-1.6c-1.3-0.1-2.6-0.2-3.8,0c-2.8-0.6-5.7-0.3-8.6,0.2
		c-0.5-2.1-0.4-4.3-1.2-6.3l0,0c5.2-1.8,10.7,0.3,16.5-0.2c-2.1-3.2-5-3.1-7.3-4.1c-1-0.4-1.3-0.9-1.2-1.3c0.5,0.3,1,0.5,1.6,0.6
		C251.2,364.1,255.3,361.3,257.8,355.6z M508.4,553.4c0,0-0.1,0.1-0.1,0.2c-0.6-0.5-1.3-0.6-2.1-0.5c-0.1,0.2-0.3,0.4-0.5,0.6
		c-1.5-0.7-2.9-1.4-4.4-2.2l0,0l0,0c-1.3-2.2-3.2-3.7-5.8-3.6c-4.2,0.1-8.4,0-12.4-1.6c-1.5-0.6-2.7,0.3-3.7,1.4l0,0
		c-7,2.6-13.4,7.5-21.5,4.9v0.2c-3-3.3-5-0.6-7.2,1.2l0,0l0,0c-0.3,0.3-0.7,0.5-1,0.8c-0.2-0.1-0.4-0.3-0.6-0.4
		c-1.3-0.2-2.3,0.1-2.8,1.1c-1.9-2.6-5.5-1.3-8.3-3c9.4-2.1,9.9-2.7,7.8-9.2c-2.4-2.7-5.4-3.7-8.6-2.1c-3.4,1.7-7.2,2.2-10.6,3.7
		c-0.4,0.8-0.8,1.6-1.2,2.3c-2.3,1.1-4.7,2.1-7,3.2c-0.4-0.1-0.9-0.1-1.3-0.1c-0.4-0.1-0.9-0.1-1.3,0c-0.8-0.1-1.6-0.4-2.2-1.6
		c0.7-0.4,1.4-0.8,2-1.2c1.4-0.9,4.6-0.5,3.9-2.7c-0.8-2.5-3-0.2-4.5,0.2c-1.9,0.4-3.6,0.5-4.9-1.1c-1-1.2-1.2-2.5-0.6-3.9
		c1-2.1,2.8-3.3,5-4c1.3-0.4,3-0.9,3.1-2.5c0.1-2.6-2.2-0.8-3.1-1.5c-0.5-0.4-0.7-1.3-1-2c6.1-3.9,7.3-12.7,14.7-15.4
		c0.4,0.1,0.7,0,1-0.3c3-0.2,5.7-1.2,8.4-2.6c0-0.3,0-0.6,0.1-0.9l0,0c1.8,0.1,3.5-0.2,5-1.3l0,0c2.5-0.8,4.9-1.6,7.4-2.4
		c2.2,0,4.3-0.3,5.7-2.3c0.5,0,1,0.1,1.5,0.1c6.3-5.4,14.7-8.4,19-16.1l0,0l0,0c6-1.9,12-3.9,18-5.8l0,0c3.2,1.9,6.1,0.7,9.2-0.4
		c6.3-2.4,12.6-4.2,18.8,0.7c1.6,1.3,3.4,1,5-0.1c10.1-0.1,10.9,0.4,14.4,8.8c0.1,0.3,0.7,0.4,1,0.5l0,0c4.5,2.5,6.2,7.7,10.2,10.8
		c1.6,1.2,0.9,3.8-0.1,5.6c-1.1,1.8-3,1.9-4.8,1.6c-3.1-0.5-6.2-1.1-9.3-1.6c8.3,3.7,10.7,6,8.6,9.7c-0.8-0.2-1.6-0.2-2.5-0.1
		c-3.9,2.7-9.2-0.4-12.9,3.1c0.5,1.2,0.9,2.4,1.4,3.6c1.2,1.5,2.6,2.4,4.6,1.6c2.3,0.8,2.3,2.7,2.3,4.5c-0.3,0-0.6,0-0.8,0
		c-2.1,1-3.8,2.3-3.8,4.9c0.1,0.6,0.2,1.2,0.3,1.9c-4.8,3.3-9.7,3.6-15.1,0.2c-2.3-1.5-5.2-2.2-8-1.6c-2,0.4-3.1,1.8-2.7,4
		c0.3,1.4,1,3.3,2.5,2.6c4.8-2.3,8.8,0.6,13.1,1.3c-3.7,3.4-8.1,5.6-13,7C510.9,551.6,509.2,551.7,508.4,553.4z M869.2,605.4
		c-0.1,0.1-0.2,0.2-0.3,0.3c-0.1,0-0.1-0.1-0.2-0.1C868.9,605.5,869,605.5,869.2,605.4z M123.6,358.5c0-0.4,0-0.7,0.1-1
		c4.4,0.3,8.8-1.7,13.2-0.3c0.8,0.8,1.6,1.7,2.4,2.5l0,0c-1.3,1.2-3.3,1.5-3.8,3.5c0,0.4,0.1,0.7,0.1,1.1c-3.4,1.4-6.9,2.9-10.3,4.3
		c-0.3-0.3-0.6-0.6-0.9-0.9c-2.5-2-1.8-5.1-2.5-7.7C122.6,359.8,123.1,359.1,123.6,358.5z M876.4,317.2c0.1,0.3,0.2,0.5,0.3,0.7
		c-2,0.5-4.4,0-6,1.7c-0.4,0.7-1.1,0.9-1.8,1c0.6-0.3,1.2-0.7,1.8-1c-2.1-0.1-4.4,0.4-6.3-0.3c-1.7-0.6-4.7,0-5.5-2.1
		c0.4-0.1,0.7-0.2,1-0.3c3.1-0.7,4.2-2.5,3.9-5c3.9,2.5,8.3,3.5,12.8,3.8C876.4,316.1,876.4,316.6,876.4,317.2z M1025.1,356.4
		c-3.2,0.5-6.6,0.3-9.5,2.1c-0.2-0.4-0.4-0.9-0.6-1.3c4.5-1.2,9.1-2.1,13.7-1.5C1027.6,356,1026.4,356.2,1025.1,356.4z M104.2,412.1
		c0.2,0.1,0.3,0.2,0.5,0.3c3.3,1.2,6.7,2.2,10.2,2.1c-2.2,2-4.3,3.9-4,7.5c-0.5,0.1-0.9,0.5-1.3,1c-1.2-3.9-6.6-4.7-6.8-9.3l0,0
		C103.2,413.3,103.7,412.7,104.2,412.1z M90.3,434.9v0.1c-0.4,0-0.8,0.1-1.1,0.3c-0.4-0.4-0.8-0.6-1.2-0.8c-0.2,0-0.4,0-0.6,0
		c0-0.1,0-0.1-0.1-0.2c1.2-0.3,2.4-0.3,3.6-0.6C90.6,434.1,90.4,434.5,90.3,434.9z M164.5,645.5L164.5,645.5
		C164.5,645.5,164.6,645.5,164.5,645.5L164.5,645.5z M1062.4,391.2c-0.2,0.1-0.4,0.2-0.6,0.3c-1.3-0.5-2.5-1-3.8-1.6
		c0.3-0.1,0.6-0.3,0.9-0.4c0.7-0.8,1.2-1.6,1.4-2.6c1.9,0.9,3.6,2.3,5.3,3.6C1064.6,390.3,1063.5,390.5,1062.4,391.2z M1052.6,394.1
		c0.3-0.2,0.6-0.3,0.9-0.5c1.4,1.4,3.3,2.3,3.3,4.6c0.9,1.2,1.7,2.4,1.9,3.8c-0.1,0.1-0.3,0.1-0.4,0.2c-0.5,0.5-0.8,1-0.9,1.6
		c0,0.1,0,0.1,0,0.2c-4.3,2.3-8.6,1.5-13-0.7c-1.3-1.4-1-3.3-1.4-5c0.1-0.5,0.2-1,0.3-1.4c0.2,0.1,0.4,0.2,0.6,0.3
		c2.8-0.2,4.7-1.2,4.2-4.1C1049.5,394.3,1050.9,394.6,1052.6,394.1z M632.7,273L632.7,273L632.7,273L632.7,273z M615.2,268
		c1.7-3,4.6-4.5,7.9-5.2C622.3,268.6,620.5,269.7,615.2,268z M610.4,266.4c0.4,0.6,1,1.1,1.5,1.7c-0.1,0-0.2,0.1-0.3,0.1
		c-2.1,1.5-3,3.8-3.8,6.1c-1.6-1-2.8-2.4-2.5-4.7C605.8,266.7,608.3,266.7,610.4,266.4z M595.5,289.9L595.5,289.9L595.5,289.9
		L595.5,289.9z M394.3,298.8L394.3,298.8c0.6-0.2,1.3-0.4,2-0.6C395.6,298.5,395,298.7,394.3,298.8z M373.4,301.4c0.4,0,0.8,0,1.2,0
		c0,0,0,0,0,0.1l0,0c-2.6,0.9-4.9-0.9-7.4-1.1c0-0.3,0-0.6-0.1-0.8C369,300.6,371.2,301,373.4,301.4z M364.4,301.3l-0.1,0.1
		c-1,1.1-0.9,2.4-0.6,3.7c-1.9-3.4-4.3-6.3-8.2-7.9c0.3-1.7,0.5-3.3,0.2-4.7c0.9,1.2,1.9,2.3,2.9,3.5
		C360.8,297.4,362.7,299.2,364.4,301.3z M157.7,301.9c1,0.8,2,0.8,3,0.6c-0.8,1.3-1,2.8-0.2,4.4c0.2,0.2,0.4,0.3,0.6,0.4l0,0
		c-2.5-1.5-6.1,0.6-8.4-1.5c1.5-1.6,2.7-3.5,4.6-4.6C157.3,301.5,157.5,301.7,157.7,301.9z M713.9,272L713.9,272L713.9,272
		L713.9,272z M644.5,301.8c-1.1-0.1-2.3-0.1-3.4-0.2c-4.2-0.4-4.5,2.4-3.6,5.2c0.6,2.1,1.4,4.3,3,6c-0.1,0-0.2,0.1-0.4,0.2
		c-3.9-0.3-8.1,0.3-10.5-4c-0.3-0.4-0.6-0.8-0.9-1.2c4.2-3.5,7.8-7.7,12.5-10.5c1-0.8,2-1.6,3-2.3c0.9,0.2,1.9,0.6,2.8,1
		c3.7-0.6,7.7,0.1,11-2.4c0-0.1,0.1-0.1,0.1-0.2c0.1,0.1,0.1,0.2,0.2,0.3c0.5,0.4,1.1,0.7,1.7,0.7c-1.7,1.9-3.6,2.6-6.6,2.3
		C649.5,296.2,645.8,297.5,644.5,301.8z M652.3,284.1c-4.4-1.5-8.9-2.1-13.4-2.6c-1.7-1.6-3.9-0.9-5.9-1.5c-0.1-2.3-0.2-4.7-0.2-7
		c1.6-1,1.3-2.7,1.5-4.3c8,3.6,15.1,8.6,21.4,14.7C654.6,283.9,653.5,284.1,652.3,284.1L652.3,284.1z M617.8,254.3
		c-0.1,0.2-0.1,0.4-0.2,0.7c-0.6,0.1-1.3,0.4-1.8,0.8c-0.7-0.5-1.4-1.1-2.3-1.1c-5.5-0.2-8-2.7-7-8.3c0.2-1.4,0-2.7-0.7-3.7
		c1,0.2,2.1,0.3,3.3,0.2C618.6,242.6,620.5,245.2,617.8,254.3z M592.9,247.3c0.5,1.2,1.6,1.7,2.7,2.2c-2.9,1.4-2.5,5-4,7.3
		c-1-3.3-4.9-3.2-7.5-4.7H584C586,249.1,589.9,248.9,592.9,247.3z M372,290.6c-2.9,0.3-5.7,0.7-7.6,3.2c-0.1,0.3-0.2,0.5-0.3,0.7
		c-3.7-1.1-4.2-4.8-5.6-7.8c1.4,0.2,2.4,1.3,3.7,1.6c3.6,0.8,7.1,1.3,9.3-2c0.2,0.1,0.3,0.2,0.5,0.3l0,0
		C371.4,287.9,371.5,289.3,372,290.6z M359.9,270.9c1.1,1.6,2.4,2.2,3.8,2c0.3,0.2,0.6,0.4,1,0.6c0.6,0.3,1.1,0.6,1.7,0.9
		c-1.3-0.1-2.6-0.6-3.9-1c-1.5-0.4-2.9-0.5-4.2-0.1C358.8,272.4,359.4,271.7,359.9,270.9z M84.1,414.8c0.4,2.3,1,4.4,2.6,5.6
		c-0.9-0.1-1.9-0.5-2.8-0.7c-3.2-0.1-1.7-2.8-2.4-4.3C82.4,415.5,83.3,415.3,84.1,414.8z M956.5,277.9c-1.2-1-2.6-1.1-4.3-0.5
		c-0.7,0.6-1.1,1.1-1.4,1.7c-3.3,0.2-6.7,2.8-10-0.1c0-1.5,0.4-2.4,1.1-2.9c3.1,0.4,6.4-0.7,9.4-0.4c2.2-0.7,4.3-1.6,6.3-2.6
		C957,274.7,956.1,276.3,956.5,277.9z M885.2,252.5c-0.1,0-0.2,0.1-0.2,0.1c0-0.1,0-0.2,0-0.3l0,0l0,0
		C885,252.4,885.2,252.5,885.2,252.5v-0.1C885.2,252.4,885.3,252.4,885.2,252.5C885.3,252.5,885.3,252.5,885.2,252.5z M697.1,257.6
		c0.6,1,1.4,1.9,2.4,2.8c4,1.6,7.9,2.8,12.2,1.3c0.9-0.6,1.4-1.7,2.2-2.5c5.5,1.2,8.6,4.5,8,11.1l0,0c-0.3,0.6-0.6,1.2-0.9,1.7
		c-2.4,0-4.8,0.1-7.2,0.1c-2.1-6.1-5.6-1.7-8.6-1.2c-2.2-0.5-5.2,0.7-6.2-2.7c0.1-3.5-2.4-5.3-4.6-7.3
		C694.8,258.8,695.8,257.9,697.1,257.6z M689.9,266.4c0.1-0.3,0.2-0.5,0.3-0.8c1.4,0.1,2.8,0.4,4,1.6c0.5,2.1-0.5,2.8-1.7,3.3
		c-0.6-0.2-1.2-0.4-1.8-0.6c-0.5-0.2-1.1-0.2-1.6-0.1c0.1-0.6,0-1.2-0.1-1.8c-0.1-0.1-0.2-0.2-0.3-0.3
		C689.2,267.4,689.6,267,689.9,266.4z M622.3,230.4c-1,0.6-1.9,1.3-2.6,2.3c-0.8,1.6-1.8,3.2-1.4,5.2c-4.4-0.4-8.8-1-13-2.4
		c-0.1-3.1-0.2-6.3-0.3-9.4c0-2.2,0.1-4.4,0.1-6.6c4.4,0,8.8-1.1,13.3-0.9c0.2,0,0.5,0,0.7,0C621.1,222.3,622.2,226.2,622.3,230.4z
		 M374.9,271.7c0.6,0,1.2,0,1.9,0C376.2,271.8,375.6,271.8,374.9,271.7z M365.4,256.1c0.1-0.2,0.2-0.3,0.3-0.5
		c0.3,0.2,0.6,0.3,0.9,0.5C366.2,256.1,365.8,256.1,365.4,256.1z M84.8,347.2c0.3-2.1,0.3-4.3,2-6c0.2-0.2,0.5-0.4,0.8-0.6
		c0.6,0.4,1.2,0.7,1.8,0.9c-2.1,3.2-3.7,6.6-4.8,10.2c-0.2-0.1-0.5-0.3-0.8-0.4C84.4,350.1,84.6,348.6,84.8,347.2z M100.1,584.7
		c-0.1-0.1-0.1-0.1-0.2-0.2c0.1,0,0.2,0.1,0.3,0.1C100.1,584.6,100.1,584.7,100.1,584.7z M1064.3,348.5c0.8,1.2,2.1,1.5,3.4,1.9
		c-4.3,1.1-7.2,4.9-6.7,9.1c-4.1,0-7.4-1.7-10.3-4.3C1054.9,355.3,1061.7,352,1064.3,348.5z M1050.2,263c-0.2,0.2-0.5,0.4-0.7,0.6
		C1049.6,263.3,1049.9,263.1,1050.2,263z M823.7,249c2.7,1.1,5.3,2,7.4-0.9V248c4.9,4.7,5.7,10.5,5.3,17c-0.2,2.4-1,4.8-0.5,7.3
		c-2.2-0.2-4,1.3-5.7,2.7c-1.8,1.5-1.4,3.5,0.3,5.1c0.3,0.2,0.6,0.4,0.9,0.6c-0.3,1-0.1,2,0.3,3.1l0,0c-3.7,1.5-6.8-1.8-10.4-1.1
		c-4.1-4.3-9.3-3.9-14.5-3.4c-3.4-0.3-6.1,3.2-9.7,2.4c-0.3-0.1-0.6-0.2-0.8-0.3c0.1-0.3,0.2-0.7,0.3-1.1c-0.1-6.6,0-13.2-0.7-19.8
		c-0.2-1.6-0.1-3.3-0.7-4.8c4.9-1.8,9.9-3.1,15.3-2c1.8,0.4,3.6-0.8,4.5-2.5C817.1,247.2,820.3,247.6,823.7,249z M750.5,264.9
		c2.9-3.2,1.6-8.1,4.7-11.3c0.5-0.8,0.9-1.7,1.5-2.4c1.9,0.2,3.8,0.4,5.4-1.2c4.8,0.1,9.5,0.3,14.3,0.4l0,0c1.5,2.2,4.2,2.8,6.2,4.4
		c1.7,2.3,4.2,4.1,4.9,7.1c1.6,6.8,3.7,13.5,3.7,20.6c-0.8,1.3-1.7,2.5-2.5,3.8c-1.2-0.1-2.5-0.2-3.7-0.3l0,0
		c-4.4-2.6-7.9,2.1-12.1,1.6l0,0l0,0c-0.5-0.4-1-0.8-1.5-1.3c-3-2.6-6.6-4.1-10.6-4.9c-5.7,0.7-6.9-2.4-6.3-7.2l0,0l0,0
		c0-0.4-0.1-0.8-0.1-1.2c-1.6-2.5-3.1-5.1-4.7-7.6C750,265.2,750.2,265.1,750.5,264.9z M693.6,240.3
		C693.7,240.3,693.7,240.2,693.6,240.3c1.6,1.3,3.7,1.5,5.6,2.1c-0.2,0.3-0.3,0.7-0.4,1h-0.1c-1.7,1.3-4.1,1.8-5.1,3.8
		c-0.4-1.2-1.2-2.2-1.3-3.5c-0.8-0.7-1.2-1.7-1.7-2.7C691.7,241,692.7,240.9,693.6,240.3z M678.4,289.6c0.5-1,1.1-1.9,1.8-2.6
		c4.4-0.8,8.8-1.5,13.4-0.8c3.5,0.5,5.6,4.1,9.3,3.6l0,0c4.4,0.4,8.9,0.9,13.3,1.3l0,0c5.3-0.5,5.2,5.3,8.4,7.3
		c0.5,0.8,1.1,1.5,1.6,2.3c-1.7,2.1-2.9,4.9-6.3,5l0,0c-4.9-0.2-9.8,0.3-14.6-1.3l0,0c-4.6-2.9-8.7-6.3-15.2-4.6
		c-5,1.3-11.1-3.5-15.1-2.4c-8.2,2.3-9.9-1.9-12-7.5c-0.1,0.2-0.2,0.3-0.3,0.5c0.1-0.2,0.2-0.3,0.3-0.5c0.6-0.3,1.3-0.6,1.9-1
		c1.3,0.5,2.6,1,4,1.3C672.1,290.3,675.3,290.5,678.4,289.6z M625.7,228.8c0-4.5,0-8.9,0-13.4c0.2-0.1,0.4-0.2,0.7-0.3
		c3.9-2.1,7.2,0,10.6,1.3c-2.8,3.6-2.2,6.1,2.1,8.9C634.5,226.3,630.1,227.4,625.7,228.8z M542.8,199.8c-1.6-1.7-3.3-1.8-5.1-1.8
		c-0.6-0.4-1.2-0.7-1.7-1.2c-4.4-0.6-9.1,0.8-13.1-1.7c4.2-2.1,5.1-3.4,3.7-6.2c5.6-1,11.1-2.5,16.7,0h0.1c-0.1,0.7-0.2,1.3,0.3,2
		c2,2.4,4,4.8,6,7.2c-0.1,0.4-0.2,0.8-0.2,1.2C547.3,200.8,544.6,201.6,542.8,199.8z M374.4,252.5L374.4,252.5c3.6,1,7.2,2,10.7,2.9
		c0.7,1.8,2.3,3,3.9,4.1c1.3,0.5,2.5,1.1,3.8,1.2c-2.1,4.1-5.5,6.4-10.2,6.7c-0.5,0.3-0.9,0.8-1.3,1.2c-2.5-1.4-4.7-3.2-6.5-5.5
		c-0.7-2.7,1.1-6.6-3.8-7l0,0C370.9,253.9,371.8,252.5,374.4,252.5z M339,244.5c-1-0.9-2-1.5-3.3-1.5c0.3-0.6,0.4-1.2,0.4-1.9
		c3,1.7,5.9,2.9,7.9-1c1.5,1.3,3.3,1.5,5.3,0.8c0.4-0.3,0.8-0.6,1.2-0.9c1.3,1.7,2.6,3.5,3.6,5.3c1.1,1.9,1,3.4-0.6,3.9
		c0,0,0-0.1-0.1-0.1c-1.5-3.7-4.2-4.5-7.8-3.4C343.2,246.5,340.9,246.2,339,244.5z M317.1,270.2c-0.7,0.1-1.3,0.1-2,0.2
		C315.8,270,316.5,270,317.1,270.2z M102.3,316.4c0.2-0.2,0.4-0.5,0.5-0.7c0.4,0.3,0.9,0.5,1.3,0.8c-0.8,1.2-1.5,2.5-2.3,3.7l0,0
		l0,0c-0.6,0.2-1.1,0.4-1.7,0.6c-0.3-1.6-1.2-2.9-2.2-3.8C99.4,317.1,100.8,316.9,102.3,316.4z M110.6,600.8c3.7-0.6,6.9-3,10.5-3.8
		c-2.6,2.3-3.6,5.8-2.6,9.4C115.8,604.6,112.8,603.3,110.6,600.8z M127.6,611.2c-0.9-0.7-2.1-1-3.2-1.4c1.4-0.7,2.5-1.7,3.3-3.4
		c0.9-1.3,2-2.6,2.1-4.2c0.1-1.1,0.3-2,0.7-2.7c0.8-0.8,1.7-1.7,2.6-2.4c1.1-0.4,2.5-0.4,4.2,0c1.8-0.2,2.9,0.8,3.8,1.9
		C133.3,599.5,129.3,604.1,127.6,611.2z"/>
	
		<radialGradient id="SVGID_00000136412330317795468760000007045265894130155434_" cx="720.9879" cy="659.9627" r="3.8562" gradientTransform="matrix(1 0 0 1 0 -124)" gradientUnits="userSpaceOnUse">
		<stop  offset="0" style="stop-color:#81BFDA"/>
		<stop  offset="1" style="stop-color:#B7E0FF"/>
	</radialGradient>
	<path style="fill:url(#SVGID_00000136412330317795468760000007045265894130155434_);" d="M716.2,533.4c2.4,3.3,4.5,7.3,9.6,3.6
		C723.5,533.5,720,533.1,716.2,533.4z"/>
	
		<radialGradient id="SVGID_00000134931561940671635620000017522694788925724072_" cx="603.9" cy="559.7" r="0" gradientTransform="matrix(1 0 0 1 0 -124)" gradientUnits="userSpaceOnUse">
		<stop  offset="0" style="stop-color:#81BFDA"/>
		<stop  offset="1" style="stop-color:#B7E0FF"/>
	</radialGradient>
	<path style="fill:url(#SVGID_00000134931561940671635620000017522694788925724072_);" d="M603.9,435.7L603.9,435.7L603.9,435.7z"/>
</g>
<image style="overflow:visible;enable-background:new    ;" width="348" height="355" xlink:href="../../Downloads/png-clipart-flower-zinnia-red-flower-color-annual-plant-thumbnail.png"  transform="matrix(1 0 0 1 -607.0535 -65.9509)">
</image>
</svg>
