<?xml version="1.0" encoding="utf-8"?>
<!-- Generator: Adobe Illustrator 27.8.1, SVG Export Plug-In . SVG Version: 6.00 Build 0)  -->
<svg version="1.1" id="레이어_1" xmlns="http://www.w3.org/2000/svg" xmlns:xlink="http://www.w3.org/1999/xlink" x="0px"
	 y="0px" viewBox="0 0 1199.4 716.8" style="enable-background:new 0 0 1199.4 716.8;" xml:space="preserve">
<style type="text/css">
	.st0{fill:#0A3D62;}
	.st1{fill:#FF3749;}
	.st2{fill:url(#SVGID_1_);}
</style>
<rect x="-1396" y="669.6" class="st0" width="198.6" height="183.4"/>
<rect x="-967.2" y="587.6" class="st1" width="205.8" height="258.3"/>
<image style="overflow:visible;enable-background:new    ;" width="6000" height="4000" xlink:href="../../Downloads/matt-hardy-6ArTTluciuA-unsplash.jpg"  transform="matrix(0.1091 0 0 0.1091 1808.3768 -2177.9971)">
</image>
<image style="overflow:visible;enable-background:new    ;" width="348" height="355" xlink:href="../../Downloads/png-clipart-flower-zinnia-red-flower-color-annual-plant-thumbnail.png"  transform="matrix(1 0 0 1 -607.0535 -65.9509)">
</image>
<radialGradient id="SVGID_1_" cx="601.7263" cy="404.2173" r="431.0633" gradientUnits="userSpaceOnUse">
	<stop  offset="0" style="stop-color:#81BFDA"/>
	<stop  offset="1" style="stop-color:#B7E0FF"/>
</radialGradient>
<path class="st2" d="M1179.7,475.1c0-0.6-0.1-1.3,0.1-1.8c0.9-2,0.1-2.5-1.9-2.5c-6.1-0.2-7.2-1-9.1-6.7c-0.4-1.1-1.4-0.5-2.2-0.7
	c-1.6-0.3-3.1-1.1-2.2-2.9c0.7-1.4,1-2.9,1.8-4.2c1.4-2.5,2.6-5.3,0.3-8c-0.7-0.8-0.6-2-0.5-3c0.1-0.6,0.3-1.2,0.9-0.8
	c1.2,0.7,2.2,1,2.5-0.7c0.3-1.7,1.1-4.2-0.4-4.9c-2.2-1-1.8-2.5-1.8-4c-0.1-1.6,0-3.1,0-4.7c0-1.7-0.9-2.9-2.4-3.2
	c-1.4-0.3-1.9,1.4-2,2.4c-0.4,3.1-2,5.8-2.6,8.8c-1,5.2-1.2,5.3-6.3,4.3c-1.4-0.3-2.6-0.3-2.9,1.3c-1,4.5-5.4,6.7-7.2,10.7
	c-0.4,0.9-1.4,1-2.2,0.7c-2.5-0.9-2.9-0.1-1.8,2.1c1,1.9,0.9,3.5-1.3,4.7c-1.8,1-2.1,2.7-1.9,4.6c-0.2,0.4-0.4,0.8-0.6,1.3h0
	c0,0,0,0,0,0c-0.2,0.4-0.4,0.8-0.6,1.2c-0.9-0.1-1.7,0.2-2.5,0.6c-3,0.8-6.1,0.9-9.2,0.2c-2-0.4-4-1.2-6,0c-1.3,0.8-2.4,0.5-3.8,0.2
	c-3.1-0.7-6.6-2.9-9,1.3c-0.1,0.2-0.6,0.2-0.9,0.2c-2.7-0.2-5.3,0.4-7.9-0.8c-4.6-2.1-9.5-2.9-14.6-2.2c-4.6,0.6-7.8-2.2-11.5-4.4
	c4-1,4-1,4.2-1.9c0.5-3,2.8-5.2,5.8-5.5c1.5-0.1,3.1-0.4,4.6-0.7c0.8-0.1,1.4-0.5,1.5-1.3c0.1-1-0.5-1.5-1.4-1.7
	c-0.8-0.1-1.6-0.1-2.4-0.2c-4.3-0.5-8.5,1-12.8,0.5c-0.5-0.1-1-0.1-1.4,0.2c-0.6,0.5-1.3,0.9-1.9,0.1c-0.7-1,0.2-1.5,0.7-2.1
	c0.6-0.7,1.7-1.3,0.9-2.3c-1.8-2.4-1-3.9,2.2-5.1c-4.4-1.6-7.7-4.4-11.9-1.4c-0.7,0.5-1.7,0.7-2.6,0.9c-0.9,0.2-1.9,0.1-2.4-0.9
	c-0.4-0.9-0.7-1.8-0.1-2.6c0.5-0.7,1-1.3,1.5-2c1.7-0.4,3.8-0.6,3.7-3c-0.1-1.6,1.1-3.9-1.8-4.4c-0.5,0-1-0.1-1.2-0.6
	c0.2-2-1.4-2.9-2.5-4c-0.5-0.5-1.1-0.6-0.8-1.7c0.8-2.9-0.6-4.7-3.6-4.9c-1.4-0.1-2.7-0.1-3.6-1.3c0.1-1.8-1.7-3.8,0.8-5.3
	c0.9-0.5,2.3-1.1,1.4-2.2c-1-1.3-2.2-0.2-3.1,0.7c-0.5,0.5-1.1,1-1.4,1.7c-0.8,1.8-1.5,3.6-3.2,4.8c-1.1,0.8,0,3.6-2.7,3
	c-0.1,0-0.3,0.5-0.4,0.8c-0.5,1.3-1.5,1.4-2.7,1.6c-2.8,0.3-3.4-1.9-4.4-3.6c-0.9-1.5-1.5-3.3-3.9-2.6c-0.4,0.1-1.7,0.4-1.7-0.8
	c0-1.8-1.3-2.2-2.5-2.8c-0.8-0.5-1.7-0.9-1.7-2c0.1-1.6-1-2.2-2.1-3.1c-1.5-1.3-4.4-2.5-1.4-5.2c0.5-0.4,1-1.2,0.3-1.9
	c-0.8-0.7-1.7-0.7-2.5,0.2c-1.1,0.6-2.2,1.1-3.3,1.7c-1.7,0.9-3.4,1.3-4.9,0.1c-2-1.7-3.3-0.8-4.6,0.8c-1.7,2.2-3.8,2.1-6,0.8
	c-1.5-0.9-3.1-1.6-4-3.2c-0.3-0.6-1.2-1.5-1.6-1c-2.3,3-3,0.2-4.3-0.9c-0.8-2.8-2.9-0.7-4.4-1.2c-1-1.9-2.1-1-3.1,0
	c-0.5,0-1-0.1-1.2-0.6c-1.6-1.6-3.1-3.2-4.8-4.6c-0.8-0.6-1.9-1.3-3-0.3c-0.9,0.8-1,1.9-1.3,3c2.4-0.1,2.4,3.2,4.7,3.2
	c0.1,4,0.1,4-4.2,3.5c-0.3,0-0.6,0.1-0.8,0.2c-0.1,0-0.3,0-0.3,0c-1.9-2.7-6-2.6-7.7-5.6c-0.3-0.5-0.9-0.7-1.4-0.5
	c-1.3,0.6-1.9,0-2.4-1.1c-0.6-1.7-1.7-1.6-2.9-0.7c-1,0.7-2.1,0.8-3.1,1.2c-3.6,1.5-2.8-1.6-3.2-3c-0.6-2,0.5-3.3,2.6-3.2
	c2.3,0,3.4-1.3,4.3-3c0.5-1,0.9-2.1,1.7-2.9c1.7-1.7,1-2.7-0.8-3.4c-0.6-0.2-1.8-0.1-1.4-1.1c0.8-1.8-0.4-3.4-0.3-5.2
	c0.6,0,1.2,0,1.9,0c0.2,0,0.4,0,0.6,0c1.3,0.9,2.7,1.6,4.3,0.9c2.5-1.1,5-1,7.6-0.9c1.5,0,3,0,5.1,0c-1.8-1.7-3.7-2.3-3.9-4.4
	c0.4,0,0.8,0,1.2,0c1.7-0.2,3.9,0.8,3.5-2.7c-0.1-0.9,1.2-3.6,2.9-3.9c1.7-0.4,3-1.4,4.5-1.9c1.9-0.6,1.9-1.6,0.9-3
	c-0.4-0.6-1.4-1-0.8-1.8c0.5-0.7,1.6-0.5,2.3-0.3c2.9,0.9,5.8,0.4,8.6,0.5c1,0,2.4,0.3,2.6-1c0.1-1.3-1.4-1.2-2.3-1.5
	c-5.2-1.4-10.3-2.9-15.5-4.3c-1.2-0.3-2.5-1.3-1.2-2.2c2.2-1.5,4.4-3.6,7.9-2.5c2.7,0.8,5.6,1,8.5,1.5c6.8,1.1,13.3,3.5,20,4.9
	c2.1,0.4,4.4,2.3,5.2-1.5c0.1-0.4,1-0.7,1.5-1c2-1.3,4.2-1.7,6.5-1.6c0.7,0,1.6,0.3,1.8-0.6c0.2-0.8-0.6-1.3-1.2-1.6
	c-2.4-1.5-5.1-1.6-7.8-1.4c-0.9-0.1-1.8,0.3-2.5-0.6h0c-0.8-0.9-2-0.9-3.1-1.3c-2.3-0.9-4.7-0.3-7-0.8c-0.9-0.2-2.3-0.5-2.1-1.8
	c0.2-1.3,1.5-1,2.5-0.9c1.8,0.2,3.6,0.1,5.3-0.8c0.9-0.2,1.8-0.5,2.7-0.4c1.4,0.2,3.3,1.2,3.7-0.5c0.4-1.8-2.3-0.1-2.9-1.5
	c0.3-1.1,1.7-1,2.2-1.9v0c0.2,0,0.4,0,0.6,0v0c1.9-0.3,3.5-1.1,5.2-2c4-2,7.2-1.4,10.4,1.9c1.6,1.6,3.8,1.6,5.8,1.2
	c2.9-0.5-0.8-1.4,0-2.1c0.3-0.3,0.6-0.7,0.9-0.8c1.4-0.4,2.7-1.1,4.2-0.5c0.8,0.3,1.7,0.7,2-0.5c0.2-0.9-0.1-1.7-1-2.1
	c-1.7-0.8-3.1-2.1-5.2-2c-0.1-0.1-0.2-0.1-0.3-0.2c-1.9-1-3.7-2.3-5.2-3.9c-1.9-2-4-2.6-6.4-0.9c0,0,0,0,0,0c0,0,0,0,0,0
	c0,0,0,0,0,0c-2.8-1.9-5.5-2-7.5,0.3c-1.3,1.5,0.5,3,0.9,4.5c0.1,0.5,0.4,1,0.4,1.5c-0.1,1.3-0.8,2.4-2.1,2.1
	c-1.7-0.4-3.4,0.1-4.9-0.5c-1.3-0.5-3.9-0.8-3.2-2.4c1-2.4-0.7-4.5,0.2-6.7c0.3-0.6-0.1-1.5-1-1.7c-0.9-0.2-1.3,0.5-1.5,1.2
	c-0.3,0.7-0.4,1.4-0.5,2.1c-0.3,2.4-3.6,4.6-6,4c-2.7-0.7-5.3-1.4-7.6-3.1c-2.5-1.9-2.7-2.2-0.1-4.5c0.5,0,1,0,1.6,0
	c2.4,0.2,3.5-0.4,2-2.9c-0.8-1.3-0.6-2.8,0.6-3.6c1.6-1.1,3.3-2.3,5.4-2.1c2.2,0.2,4.4-0.3,6.4-0.8c2.3-0.6,5.6-1.6,5.6-4.1
	c-0.1-4,4.2-3,4.9-5.6c3.7,0.6,4.5-3.6,7.4-4.4c0.6-0.2,1.2-0.9,0.8-1.8c-0.3-0.6-1-1-1.6-0.7c-3.8,1.6-8.1-2.3-11.8,1
	c-0.6,0.5-2.1,0.5-2.5-0.5c-0.4-1.1-0.4-3.1,0.6-3.4c4.4-1.3,2-3.8,1.3-6c-0.4-1.8-1-3.3-3.1-3.7c-2.3-0.4-3.6,1.1-4.7,2.7
	c-0.6,0.9-1,1.9-1.5,2.9c0,0,0,0,0,0c-1,0.8-1.2,2.1-1.9,3.1c-1.2,0.3-1.8-0.6-2.5-1.2c0,0,0,0,0,0c-0.1-0.9-0.6-1.3-1.5-1.2
	c-1.3,0.1-1.8-0.6-2.6-1.5c-2-2.3-0.7-4.2-0.1-6.3c0.5-1.8,0.2-2.5-1.7-1.7c-2.1,0.9-3.8,0.2-5.4-1c-0.4-0.3-1.4-0.3-0.6-1.2
	c1.3,0.1,2.4-0.3,2.5-1.9c1-0.3,2.2,1,2.8,0.1c0.8-1.2-0.7-2-1.5-2.7c-1.8-1.4-0.9-2.2,0.5-3c2.1-0.1,4.3-0.2,6.2-2.2
	c-2.5-0.5-4.4-0.3-6.4,0.2c-0.8,0.2-2.3,0.9-2.6-1c-0.5-2.8-0.7-5.8-3.4-7.6l0,0v0c0,0,0,0,0,0c0,0,0,0,0,0c1-0.9,0.6-2.1,0.6-3.2
	c0-0.9-0.8-1.4-1.5-0.9c-1.4,1.3-2.5,0.4-3.8-0.2c-1-0.5-2.3-1-3.5-0.1c-2,1.6-4,1-6.1,0.3c-4.4-1.5-8.4-0.6-11.8,2.8
	c-1.1,0.1-1.9-0.4-2.7-1.1c-2-1.6-4-3-6-4.5c-0.1-0.8-0.3-1.8-1.3-1.6c-1.5,0.3-2.8,1.1-3,2.9c-1,0.1-1.7,0.4-1.6,1.7
	c0.1,2.4-2.9,5.8-4.4,4.8c-3.1-2-4.5-1.2-6,1.5c-0.1,0.1-0.4,0.1-0.6,0.1c-1.5,0.2-1.7,1.2-1.7,2.5c-0.3,0.5-0.7,1.3-1.3,0.8
	c-1.8-1.5-2.5,0.4-3.7,1.1c-0.9,0.1-2.4,0.5-2.2,1.2c0.6,2.7-1.6,2.3-2.9,2.9c-0.6,0.3-1.4,0.3-1.7,1.2c-0.8,2-2.7,2.2-4.5,2.8
	c-3.2,1.1-7.1,0.6-9.3,4.1c-0.8,1.3-1.6-0.2-2.3-0.4c0,0,0,0,0,0c-2-1-4.6-0.2-6.2-2.4c-0.2-0.3-1,0.1-1.3,0.5c-0.5,0-1,0.1-1.2,0.6
	c0,0,0,0,0,0c-0.6,0.2-1.2,0.4-1.9,0.6h0c0,0,0,0,0,0c-1.2,0-1.8,0.9-2.6,1.6c-1.6,1.3-7.2,1.4-7.5,0c-0.5-2.6-1.9-4.5-3.4-6.5
	c-0.4-0.5,0.5-2.1-0.8-2.6c-2.5-1-3.9-3.3-5.8-4.9c-3-2.4-6.6-4.3-9.1-7.1c-1.6-1.8-3-2.5-5.1-2.3v0c-3.4-0.8-6.2-3.5-10-3.1
	c0,0,0,0,0,0c-0.4-0.6-0.8-1.2-1.3-1.9c0-1.2,0.2-2.4-0.5-3.5c-0.9-1.2-1.6-1.1-2,0.4c-2.2-0.3-4.1,0.8-6.2,1.3
	c-1.1,0.2-2.2-0.4-3.1,0.6c0,0,0,0,0,0c-2.9,0.9-5.5,2.7-8.7,1.9c-3.4-1.7-6.5-1.1-6.5,1.6c0,2.3-1.1,2.6-2.3,3.1
	c-0.2,0-0.4,0.1-0.6,0.3v0c-3.3-0.7-6.3-2.6-10-1.9c-1.4,0.3-2.9,0.3-4.2-0.5c-2.9-1.7-6.3-1.6-9.5-1.9v0c-2.7-0.7-5.4-2.2-8.1,0
	c-0.7,0.5-1.4,0.6-2.2,0c-2.5-2-5.6-1.8-8.5-1.8c-0.9,0-1.9,0.2-1.3,1.4c0.9,1.8,0.2,3.6,0.2,5.4c0,0,0,0,0,0
	c-0.2,0.2-0.4,0.4-0.6,0.6c-1.4-0.5-3-1.6-3.1,1.3c0,0,0,0,0,0c-1.2,1.5-0.3,3.9-2.3,5.3c-0.3-3.1-0.7-5.9-4.9-5.4
	c-2,0.2-1.4-3.6-4-3.3c0.1-0.1,0.3-0.2,0.4-0.4c1.1-1.5,1.4-3.6,3.6-4.2c0.5-0.1,0.9-0.6,0.8-1.2c-0.1-0.6-0.6-0.8-1.2-0.8
	c-3.7,0.2-7.5-1.5-11.2,0.6c-1.9-0.3-2.8,1.2-3.8,2.3c-1.8,1.9-4.9,3.7-6.5,2.7c-2.8-1.9-4.1-0.2-5.8,1c-1.1,0.7-1.7,1.1-2.1-0.6
	c-0.4-1.4-1.3-1.8-2.5-0.9c-2.3,1.6-5.5,0.8-7.8,2.8c-0.7,0.6-2,0-2.4-1.2c-0.2-0.5,0-1.1-0.8-1.1c-2.5,0.2-5.1-0.7-7.6,0.6
	c-1.2-0.7-4.8,1.9-3.4-2.4c0-0.1-0.4-0.6-0.6-0.6c-1.8,0.2-4-1-5.4,1.1c-0.8,0.4-1.7,0.8-2.5,1.2c0,0,0,0,0,0
	c-0.2-1.6,0.8-2.7,1.4-4c0.3-0.8,0.8-1.6-0.1-2.2c-0.8-0.6-1.6,0-2.1,0.6c-2.1,2.4-5,2.7-7.9,3.2c0,0,0,0,0,0c0,0,0,0,0,0
	c-0.4-0.4-0.8-0.9-1.2-1.3h0c0,0,0,0,0,0c0.1-1.1-0.2-2.5-1.3-2.5c-2.1-0.1-1,2.9-2.3,3.3c-4.1-0.9-5.6-3.6-6.2-7.1
	c-0.1-0.3-0.2-0.6-0.4-0.8c-1-1.1-1.8-1.5-2.3,0.4c-0.2,0.7-0.7,1.2-1,1.8c-1.3,2.8-2,3-4.3,1c-1.3-1.2-2.4-3.2-4-0.3
	c-0.3,0.6-1.1,0.4-1.7,0.1c-1.6-0.7-3,0.4-4.4,0.5c-2.6,0.2-5.3-0.5-7.9-0.8c-0.1,0-0.3-0.5-0.3-0.8c-0.5-3.4-1.7-2.3-3-0.4
	c-1.3,1.4-1.8,3.5-3.7,4.4h0c-1.8,0.4-3.7,0.5-5.3,1.3c-2.4,1.1-3.6,0.7-4.1-1.9c-0.7,0-1.4-0.1-1.9,0.6l0,0
	c-1.2,1.1-1.5,2.6-1.2,4.2c-1.9-0.4-3.2,2-5.2,1.1c-1.3-0.6-2.1-0.1-2.4,1.4c-0.3,1.4-0.8,2.8-0.1,4.2c0.1,0.3,0.1,0.9-0.1,1.1
	c-0.3,0.3-0.9,0.2-1.1-0.1c-1.4-3.4-2.7-1.4-4.3-0.1c-1.3,1-3,1.8-4.8,2c-1.5,0.1-3.2,0.5-4.3,1.6c-3.2,3-8.2,3.9-9.9,8.6
	c0,0-0.4-0.1-0.5-0.1c-0.7-1.4,0.2-3-0.3-4.4c-1.7,0.1-2,1.4-2.8,2.3c-0.9,1-1.6,2.5-3.5,1.1c-1.5-1.1-1.8,0.6-2.4,1.5
	c-1.8,0.5-3.4,1.5-4.5,3c-1.4,1.8-2.1,4.7-5.6,3.5c-0.3-0.1-1.1,0.8-1.6,1.3c-0.6,0.5-0.8,1.6-1.8,1.5c-2-0.1-2.3,1.1-1.8,2.6
	c0.6,1.8-0.4,2.1-1.8,2.2c-2.6,0.2-5.2-0.8-7.8,1c-1,0.7-3.6,1.1-4.9-1c-0.8-1.2-1.9-1-3-1c0,0,0,0,0,0c0,0,0,0,0,0
	c-4.2-1.2-8.2-0.9-11.8,1.9c-1.5,0-2.3-0.5-1.4-2c1.2-2.1,2-4.5,3.8-6.3c0.8-0.7,1-1.6,0.1-2.4c-0.9-0.8-1.8-0.3-2.4,0.5
	c-0.6,0.8-1,1.8-1.6,2.7c-0.5,0.8-0.7,1.9-1.8,1.9c-1.3,0-0.9-1.2-1.2-1.8c-0.2-0.3-0.5-0.8-0.8-0.9c-3.2-0.1-6.3-2.2-9.7-0.1
	c-1.4,0.9-2.9,0.5-3.1-1.6c-0.2-2.7-1.9-2.9-3.7-1.9c-1.8,1.1-3.7,1-5.4,0.7c-1.9-0.3-3.7-0.1-5.5,0.1c-1.4,0.1-2,1.6-3.5,1.9
	c-3.9,0.6-5,2.2-4.1,6c0.3,1.4-0.3,2-0.9,3c-1.8,2.5-3.3,5.1-5,7.7h0c-1,0.6-1.8,1.2-1.9,2.5c-0.5,0.3-0.6,0.7-0.6,1.2
	c-0.5,0-1,0.1-1.2,0.6c-4,2-7,7.5-6.2,11.4c0.6,3.2,0.2,5.7-1.3,7.9c-0.6,0.6-1.2,1.2-1.9,1.9c-0.4,0.2-0.8,0.4-1.2,0.6c0,0,0,0,0,0
	c-3.7,1.8-5.8,5.5-9.4,7.5c0,2.4-2,4.5-0.7,7.1c-1.4-0.1-2.5-0.2-3.6-0.3c-0.2-1.2-0.4-2.4-0.7-3.5c-0.5-1.8-1.3-3.5-3.7-3.3l0,0h0
	c-0.5,0-1-0.1-1.2-0.6c-0.9-2.3-2.5-3.7-5.1-3.8c-1.1,0-2.2-0.3-3.3-0.6c-2.8-0.8-4.5-3.4-3.4-5.2c0.4-0.6,1.4-1,0.9-1.8
	c-0.5-0.8-1.5-0.5-2.3-0.4c-1.2,0.1-2.4,0.5-3.6,0.5c-0.6,0-1.7,0.5-1.9-0.5c-0.3-2.1-2.1-1.6-2.8-1.2c-1.5,1-2.7,0.2-4-0.1
	c0,0,0,0,0,0c-0.6,0-1.2,0-1.8,0c0,0,0,0,0,0c-2.3,0-4.7-1.4-6.9,0.6c-2.8,2.1-5.4,4.6-8.5,6.1c-2.5,1.2-5.4,2.2-8.4,1.4
	c-1.1-0.3-1.5-1.1-1.7-2c-0.1-0.5,0.1-1.3,0.6-1.3c1.8,0.3,2.6-1.4,4-2c1.8-0.7,4.8-1.1,4.2-4.5c-0.1-0.4,0.4-1.1,0.7-1.2
	c1.9-0.8,1.5-3.3,3.2-4.3c0.5-0.3,0.3-1.3-0.4-1.4c-3.2-0.7-0.9-2-0.5-3.3c0.6-1.7,2.7-0.7,3.5-1.9c-0.6-0.8-1.3-0.2-1.8-0.3
	c-1.5-0.4-3.7,0.3-4.3-1.7c-0.6-1.9-2-2.8-3.2-4c-1.3-1.2-3.3-2.4-4.7-1.7c-1.6,0.8-0.6,2.9-0.3,4.5c0,0.1-0.2,0.3-0.4,0.5
	c-1.2-0.2-1.8-1.3-2.5-2.1c-0.7-0.9-1.8-0.9-1.8,0.1c-0.2,2.2,0.2,4.4,0.4,6.6c0,0.1,0.7,0.3,0.8,0.2c1.9-1.8,3.8,2.8,5.8,0.1
	c0.2-0.2,1.4,1.2,0.8,2.1c-1.1,1.6-0.3,2.5,1,3.3c0.1,1.9,0,3.8-1,5.4c-0.4,0.7-0.9,1.7-2.1,0.8c-2.8-2.1-3.5-6.4-7.5-7.4
	c-0.7-0.2-0.3-1-0.1-1.6c1-3.7-0.4-5.1-4.2-4.1c0,0,0,0,0,0c0,0,0,0,0,0h0c0,0,0,0,0,0c-0.2-1.2-1.4-2.3-0.6-3.7c0,0,0,0,0,0
	c0,0,0,0,0,0c0-0.7,0.1-1.4-0.6-1.9l0,0c-1.1-1.7-2.5-3.3-3-5.4c-0.2-0.8-0.3-2.1,0.8-1.9c1.7,0.3,3.7-2.2,4.3-0.6
	c0.9,2.1,2.5,2.5,4,3.8c-0.3-2.8,1.6-3.9,3.4-3.4c3.3,1,7.2,1.2,9.3,4.8c3-3.2,6-4.1,11.1-3.6c0.9,0.1,2,0.1,2.2-1.2
	c0.1-0.7-0.2-1.6-1.1-1.6c-2.6-0.1-2.6-3.3-5-3.9c-0.9-0.2-0.2-1.4,0.2-2.2c1-2.1-1.1-7.9-3.4-8.4c-4.6-0.9-5.1-5.4-6.2-8.4
	c-1.1-2.9-1.9-4.3-4.9-4.2c0,0,0,0,0,0c0,0,0,0,0,0c0,0,0,0,0,0c0-0.7,0.1-1.4,0-2.1c-0.4-2-0.3-4.3-2.3-5.4
	c-1.8-0.9-2.5,1.4-3.9,1.8c-0.2,0.1-0.4,0.1-0.6,0.1l0,0c-2.3-4.2-5.7-1.1-8.6-1.3c0.1,1.4,1,2.2,1.8,3.1c-1.7,3-5.5,4.5-6.2,8.3
	c0,0.2-0.6,0.3-0.8,0.5c-2.1,2.3-4.5,0.1-6.8,0.6c-0.2,0-0.4,0-0.6,0c0,0,0,0,0,0c0-0.4,0-0.8,0-1.2c-0.4-1-1.4-1.1-2.2-1.5
	c-2.6-0.9-5.7,0.5-8.2-1.5c-0.6-0.5-1.7,0.5-1.1,1.4c2.2,3.3-0.3,2.8-2.1,2.8c0,0,0,0,0,0c0-0.5-0.1-1-0.6-1.2
	c-1.8-1.5-2.1,0.9-3.1,1.2c-0.2,0.2-0.4,0.4-0.6,0.6c-1.7,0.3-2.9-1.8-4.7-1.2c-2.5,0.8-4.5-0.4-6.6-1.6c-0.4-0.3-0.8-0.8-1.3-0.4
	c-0.5,0.4-0.5,1-0.1,1.3c2,1.5,1.7,2.9,0.2,4.5c-0.7,0.8,0.5,1.8-0.1,2.3c-1.8,0.5-2-1.5-3.1-1.5c-0.8,0.7,0,1.8-0.9,2.3
	c-1.7-1.9-3.4-3.7-5.6-6c0,2.5-2.3,5.3,2.2,5c0.4,0,1.4,0.5,0.8,1.3c-0.4,0.5-0.8,1.6-1.9,0.9c-1.7-1-3.3-1.8-3.2-4.3
	c0.1-4.8-0.3-5.2-3.7-7c2.4,2.1,0.5,3.5-0.6,5c0,0,0,0,0,0l0,0c-1.2,0.2-2.5,0.3-3.6,0.7c-2.6,0.9-3.7,0.2-2.9-2.6
	c0.2-0.9,0.2-1.4-0.8-1.9c-3.8-2.1-7.4-1.7-10.9,0.6c-1.1,0.7-2,0.9-3.1,0.1c-2-1.4-2.3-0.2-2.3,1.5c0,0.9,0,1.9,0,2.8
	c0,0.2,0,0.4,0,0.6h0c-3.6,2.5-3.7,2.5-6.5-1.2c-0.8-1-1.9-1.7-2.9-1.6c-2.7,0.3-4.9,0.7-7.7-0.7c-2.6-1.3-5.5,1.7-8.6,2.2
	c-1.4,0.2-2,1.1-2.7-0.8c-0.6-1.9-2.1-2.7-4.2-1.7c-0.6,0.3-1,0.6-1,1.3c0,1,0.8,0.6,1.3,0.7c1.7,0.4,2,1.7,1.4,3.1
	c-1.3,2.7,0.8,2.8,2.2,2.3c2-0.7,3.9-0.2,6.3-0.8c-2.1,2-2,1.9-1.5,4.9c0.2,1.2-1.1,0.1-1.6,0.4l0,0c-1-1.2-2.1-1.2-3.1,0
	c-0.2,0-0.4,0-0.6,0c-0.7-1.1-1.6-2-2.8-2.8c-0.4,1.1,1.3,1.8,0.3,2.8c0,0,0,0,0,0c-0.2,0-0.4,0-0.6,0c0,0,0,0,0,0c0,0,0,0,0,0
	c-1.8,1.4-4.3,0.8-6.2,1.9c-1.3-0.5-1,2.7-3,1.1c-2.4-1.8-3.3-1.2-3.8,1.8c-0.2,1.1,0.8,2.8-1.2,3.3v0c0,0,0,0,0,0
	c-0.1-0.1-0.2-0.1-0.2-0.2c-0.9-0.7-1.5-1.9-2.8-1.3c-1.7,0.7-1.3,3.5-3.7,3.5c0,0.2,0,0.5,0.1,0.6c2.1,1.5,2.1,2.8-0.2,4.1
	c-0.4,0.2-0.3,0.7,0,1.1c1.3,1.6,0.2,3.1,0,4.7c0,0,0,0,0,0c-3,0.1-1.5,1.4-0.6,2.5c0,0.2,0,0.4,0,0.6c-0.8,0.6-1.6,1.3-2.5,1.7
	c-3.3,1.2-3.3,1.2-1.2,3.9l0,0c0,0,0,0,0,0c0,0,0,0,0,0c-1.1,0.4-2.7-1.3-3.4,0.2c-1.2,2.8-5.2,1.3-6.1,4.4c0,0.1-0.6,0.2-0.8,0
	c-2.4-2.1-4.1-0.2-5.9,1c0,0,0,0,0,0c0,0,0,0,0,0c-0.2,0.2-0.4,0.4-0.6,0.6c-0.7-1.5-2.3-2.6-3.4-2c-1.4,0.8-2.9,2.3-2.8,4.4
	c0,0,0,0,0,0v0c-0.9,1-0.9,2.1,0,3.1c0,0,0,0,0,0c0,0.2,0,0.4,0,0.6c0,2.3-3.3,2.6-3.1,5c-1.7,0.2-3-1-4.5-1.3
	c-0.8,2.4,2.4,6.1-2.8,6.8c1.4,0.9,2.6,2.2,3.8,2.3c3.6,0.1,3,2.6,3.3,4.9c-5.4,0-10.3-2.3-15.6-2.5c-0.3,1.2,1.7,2.1,0.2,3.1
	c-1.4,1-1.9-0.7-2.7-1.3c-0.4-0.2-0.7-0.4-1-0.8c-1.3-1.5-2.5-1.1-3,0.5c-0.7,2.7-2.1,2.3-3.8,1.2c-0.7-0.4-1.4-1.1-2.5-0.6
	c-4,1.6-8,2.4-11.8-0.6c-0.5-0.4-1-0.4-1.4,0c-2,1.6-3,0.5-4.2-1.2c-1.9-2.5-3.4-2.7-5.4-1c0.3,0.8,2.6,0.5,1.5,1.9
	c-1,1.2-1.2,2.6-1.6,3.9c-0.9,2.9-2.6,3.4-5.1,2.1c-1.2-0.7-2.3-0.9-3.1,0.6c-1.4,0.2-2.7,1.9-4.3,0c-0.6-0.7-2-0.1-2.7,0.7
	c-2,2.5-2.9,6-6.7,6.8c-0.3,0-0.4,0.9-0.5,1.4c-1,4.3-1,4.3-5,3.7c-2.2,0.4-4.4,0.8-5.8,2.9c-0.3,0.5-1,0.9-1.6,0.7
	c-1.7-0.5-1.5,0.3-1.4,1.6c0.1,3.2-2.1,4.4-4.8,2.9c-0.6-0.3-1.5-0.8-1.5-0.3c-0.1,1.4,0.6,2.8-0.1,4.3c3.1,0.6,4.3,5,8.2,4.1
	c1.6-0.3,2.2,1,2.5,2.2c0.4,1.6-1.1,2-2.1,2c-2.4-0.1-5.2,0.9-7.1-1.6c-0.2-0.3-0.6-0.6-1.1-0.4c-0.5,0.3-0.5,0.8-0.4,1.3
	c0.5,2.2-0.3,3.5-2.7,3.9c-1.1,0.2-2.6,0.8-2.7,1.8c-0.2,2.4-1.5,3.7-3.6,4.3c-0.7-0.1-1.2-0.3-0.9-1.2c0.2-0.7,0.6-1.5-0.4-1.8
	c-0.8-0.2-1,0.5-1.4,1c-0.3,0.4-0.4,1-1,1c-1.2-3.9-6.8-3.7-7.5-8.4c-0.3-1.6-1.9-3.2-1.6-5.2c-3.2-0.3-4.1,1.4-3.9,4.1
	c0.1,1.2,0.1,2.5-0.6,3.6c-2,0.9-2.5-1.1-2.2-1.9c1.5-5-4-4.7-5.6-7.4c-0.2-0.4-1.6-1.6-2.7-1c-2.9,1.6-6.9-0.5-9.3,2.8
	c-0.4,0.5-0.9,0.1-1.3-0.2c-1.1-0.8-2.2-1.5-3.2-2.3c0.5,0,1-0.1,1.2-0.6h0c0.5-0.4,1.1-0.7,1.6-1.1c0.1,0,0.2-0.1,0.2-0.2
	c0,0,0,0,0,0c0,0,0,0,0,0c0.2,0,0.4,0,0.6,0h0c1.6,0.5,2.8-1.6,4.4-0.8c0.9,0.4,1.7,2.2,2.8,0.9c1-1.1-1-1.8-1.2-2.8
	c-0.4-1.5-1.1-1.6-2.5-1c-1.1,0.6-1.9,0-2.5-1.1c1-0.5,1.9-1,2.8-1.5c0-1.2,0.2-2.5-1.2-3.1v0c0-0.2,0-0.4,0-0.6c0,0,0,0,0,0
	c0,0,0,0,0,0c-0.1-1.3,1-2.7-0.6-3.7c0,0,0,0,0,0c-0.6-1.5-1.8-3-1.7-4.5c0.2-3.1-0.7-2.6-2.5-1.2c-0.6,0.5-1.4,0.9-2,1.3
	c-2.4-1.2-4.9-1.4-7.5-1.2l0,0c0-1.1,0.8-1.5,1.5-2.1c1.4-1.2,2.3-3.6,2.3-5.7c0.3-0.9,0.1-1.9-0.8-2.8c-2.8-2.2-4.7-5.9-9.1-5.6
	c-0.4,0-0.8-0.2-1.1-0.5c-1.8-1.9-2.5-0.9-2.9,1.1c-0.1,0.6-0.3,1.2-0.6,1.7c-0.8,1.2-2,1.2-2.9,0.4c-0.8-0.7-1.2-1.8,0.2-2.5
	c0.2-0.1,1.4-0.4,0.3-0.6c-2-0.4-1.2-2.2-2-3.2c-0.6-0.8-0.8-2-2.1-1.9c-1.8,0.2-0.3,1.8-1,2.4c-2.6,0.7-5.1-0.3-4.8-2.4
	c0.4-3-1-1.9-2.4-1.5c-2.3,0.8-4,2.5-4.5,4.7c-0.5,2.3-1.1,4.6-0.8,7c0.4,3.5-2.6,5.9-3.1,9.1c-0.1,0.8-1.3,1.2-2.4,0.8
	c-1.1-0.4-2.2-0.7-3.2-1c-0.2-0.1-0.4-0.2-0.5-0.3c-4.1-4.8-5.5-5-10.5-1.3c-0.1,0-0.2,0.1-0.3,0.1c-0.3,0-0.6-0.1-0.9-0.2
	c-0.9-0.5-1.8-1-2.7-1.5c-0.9-0.5-1.8-0.7-2.6,0c-0.9,0.8-1,1.8-0.1,2.7c0.2,0.8,0.5,1.6,0.7,2.4c0.6,2-0.8,3.8-2.8,3.3
	c-2.6-0.7-4.8,1.5-7.4,0.9c-0.5-0.1-0.5,1-0.5,1.6c0,0.8,0,1.7,0,2.5c0,0,0,0,0,0c0,0,0,0,0,0c0,0.4,0,0.8,0,1.2c0,1,0,2.1,0,3.1
	c0,0,0,0,0,0c0,0.4,0,0.8,0,1.2c0,0.4,0,0.8,0,1.2c0,0,0,0,0,0c0,0.2,0,0.4,0,0.6c3.7,1.6-0.3,4.3,0.7,6c2.8,0.5,5.9-1.3,7.7,2.2
	c0.3,0.6,1.1,0.7,1.7,0.5c2.3-0.7,4.5-0.2,6.7,0.1c3.3,0.5,5.6-1.5,8.2-2.6l0,0c0,0.4,0,0.8,0,1.2h0c0.7,1.1,1.7,2.1,1.8,3.5
	c0.1,0.8-0.2,1.8,1,1.9c1,0.1,1.4-0.8,1.7-1.5c0.7-1.3,1.3-2.6,2-3.9c1-1.9,2.4-3.1,4.7-2.6l0,0c0.2,1-0.6,2.5,0.9,3
	c1.4,0.5,2.8,0,3.7-1c1-1.1-0.1-1.7-1-2.3c-0.7-0.5,0.1-1.1,0.4-1.5c0.5-0.7,1.8-1.2,1.3-2.3c-0.6-1.3-2-1-3.1-0.8
	c-1.1,0.1-2.1,0.3-2.2-1.2c-0.1-1.2,0.1-2.3,1.6-2.6c2-0.4,4-1.4,5.7,0.7c0.5,0.6,1.3,0.6,2,0.1c2.3-1.5,2-0.3,2.2,1.6
	c0.2,1.6-0.6,4.1,2.5,4.9c1.2,0.3,2.9,2.3,2.7,4.5c-0.1,0.7-1.1,1.8,0,2.2c1.1,0.4,1.9-0.5,2-1.8c0.1-0.6,0.4-0.9,1.1-0.8
	c0.5,0.1,0.8,0.6,0.6,0.9c-1.2,2.3,0.6,3.4,1.8,4.7c1.3,1.4,0.7,2.9-0.6,3.1c-1.7,0.2-4.1,0.5-4.7-2.2c-0.2-0.8,0-2-1.1-1.9
	c-1.2,0.2-0.9,1.5-0.8,2.4c0.3,2.5-1,3.8-3.2,4.6c-1.1,0.4-2.2,0.7-3.1,1.4c-2.7,1.9-4.8,0.9-6.8-1.1c-3.2-3.3-6.7-2.6-8.7,1.7
	c-0.2,0.2-0.4,0.4-0.6,0.6c-0.3,2.3-2,2.5-3.9,2.5c-0.8,0-2.3-0.4-2.1,1c0.2,1.5,0.1,2.1-1.5,1.7c-0.1,0-0.4,0.5-0.4,0.7
	c0.1,0.7,0.6,0.8,1.1,0.6c1.1-0.4,2.2-0.3,3.2,0.2c-2.2-0.5-4.1,2.6-6.5,0.6c-0.5-0.4-0.9,0.5-1.1,1.2c-0.3,1.8,0.7,3.1,2.2,3.7
	c1.6,0.7,2.2,1.8,2.1,3.4c-0.2,3.1-0.2,6,4,6.4c0.4,0,0.6,0.7,1,1.1c1.7,3-2,3.4-2.7,5.4c-0.6,1.7-1.6-0.4-2.5-0.4
	c-0.9,0-2-0.3-2.4,0.8c-0.8,2.1-1.9,1.1-3.2,0.2c0.4,2-1.3,6.6-2.6,7.3c-0.5,0.3-1.4,0.4-1.7,0.2c-3.2-2.4-2.8,0.3-3,2v0
	c0,0.2,0,0.4,0,0.6c0,0,0,0,0,0c-0.2,0.2-0.4,0.4-0.6,0.6c-2.4-0.2-3.3,2.1-4.7,3.4c-0.8,0.7,1.4,1.8,1.8,2.9
	c0.4,1.2,2.1,2.5,1.1,3.5c-1.6,1.7-0.9,3.3-0.6,4.9c0.6,2.6-0.4,3.5-2.8,3.4c-2.4-0.1-3.2,0.9-3,3.1c0,0,0,0,0,0c0,0,0,0,0,0
	c0,1,0,2.1,0,3.1h0c0.1,0.3,0.1,0.8,0.3,0.8c2.2,1,3.3,2.1,0.3,3.6c-0.6,0.3-0.6,1-0.1,1.3c1.5,0.8,2.7,2.5,4.7,1.2
	c0.5-0.3,0.8-1.1,1.5-0.8c0.9,0.5,0.3,1.2,0.2,1.9c-0.2,0.8-0.4,1.8,0.4,2.3c0.9,0.6,1.5-0.3,2.2-0.7c1.4-0.9,3-0.3,2.6,1
	c-1.1,3.4,1,4.2,3.3,5.2c0.8,0.3,1.4,0.8,1.8,1.7c0.8,2.2,0.8,5,4.3,5c0.3,0,0.6,0.8,1,1.2c1.7,1.9,1.9,6,6.2,4.6
	c0.7-0.2,0.9,1,1.3,1.5c1.8,2.1,5.5,3.3,7.1,1.9c1.4-1.2,2.1-1,3.2,0.3c0.8,1,2.3,1.7,3.6,0.9c1.1-0.6,2.1-1.7,1.8-3.3
	c-0.6-3.1,1.6-2.3,3.1-2c1.4,0.3,1.5,1.4,1.3,2.9c-0.8,4.5,1.1,7.3,4.5,7.4c0.7,0,1.5,0.2,1.9-0.6c0.4-0.7,0.3-1.5-0.4-2
	c-1.8-1.3-1.6-3.5-2.3-5.2c-1-2.5,0.6-4,3.4-3.8c2.4,0.2,3.4-0.9,2.8-3.1c-0.3-1.4-0.4-3,1.1-3.5c1.3-0.4,2.6,0.4,3.1,1.9
	c0.3,0.8,0.5,1.8,1.5,1.8c2.8,0,3.6,1.6,3.6,4.2c0.7-3.8,3.5-4,6.4-4.8c-2,3.8-0.4,8.7,3.2,10.4c0.6,0.3,1.4,0.4,1.7-0.1
	c1.3-2.4,2.8-0.7,4.2-0.2c4.8,1.9,4.8,2.1,1.8,6c-0.4,0.6-1.4,1.3-0.3,2.1c1,0.7,1.9,0.5,2.1-0.7c0.3-1.3,0.9-1.5,2.2-1.3
	c2.1,0.2,4.1-0.1,2.4-3c-0.4-0.7,0.9-1.5,0-2.2c-1.2-0.4-2.3,1.7-3,0.2c-0.6-1.2,1.3-1.6,2-1.9c2.8-1.1,3.1-3,2.6-5.5
	c-0.1-0.7-0.1-1.2,0.1-1.8c1.9-1,2.2,0.4,2.2,1.6c0.1,4.2,0.3,4.4,4.5,3.4c0.5-0.1,1-0.1,1.6,0c3,0.2,5.7-0.1,8-2.3
	c1.2-1.2,2.6-1.3,3.6,0.4c0,1-0.1,2.2-1.4,1.7c-2.7-1.1-3.2,0.5-3.8,2.4c-0.2,0.8-0.8,1.4-1.3,2.1c-0.7,0.8-2.3,1.2-1,2.6
	c1.1,1.1,2.2,0.6,3.2-0.5c1.1-1.3,2.4-0.9,3.7-0.5c1.4,0.4,1.3,1.6,1.4,2.8c0.2,2,0.9,3.8,3.1,4.4c0.4,0.8,0.7,1.6,0.6,2.5
	c0,0.4,0,0.8,0,1.2c-0.2,3.1-0.7,3.3-3.3,1.8c-0.3-0.2-0.7-0.4-1.1-0.5c-0.6,0.5-1.3,1.2-0.9,2c0.4,0.8,1,0,1.6-0.1
	c0.6,1,0.7,2,0.6,3.1c0,0,0,0,0,0c0,0,0,0,0,0c0,0,0,0,0,0c-1.9-0.1-2.6,0.7-2.4,2.6c0.5,4.3-0.8,6.1-5.3,7.3
	c-0.8,0.2-1.8,0.7-1.5,1.2c1.3,2-0.3,4.5,1.2,6.4c2.3-2.4,2.3-2.4,1.4-5.1c-0.2-0.6-0.2-1,0.2-1.4c0.5-0.4,0.9-0.3,1.3,0.2
	c0.6,0.8,1.4,1.4,1.6-0.1c0.1-0.9-1.2-2.1,1.1-2c1.2,0.1,2-1.5,3.4-1.1c0.8,0.2,1.5,0.8,1.2,1.5c-0.9,2.5,0,4.7,0.5,7
	c0.2,0.9-0.3,2.8,1.5,2.4c1.8-0.4,0.7-1.7,0.3-2.7c-0.9-2.2,0.4-2.9,2.2-2.8c1,0,2,0.5,3,0.8c1.9,1.3,0.8,3.3,0.1,4
	c-1.6,1.7-1.8,2.6,0.3,3.8c0.4,0.2,0.9,0.7,0.4,1.2c-0.2,0.2-0.7,0.3-0.8,0.2c-2.6-2.4-2.1,1.3-3.6,1.5c1,0.9,2.2-0.4,2.8,0.7
	c0.9,1.9,2.4,1.4,3.9,1.1c0.7-0.1,2.3-0.6,2.1,0.9c-0.3,2.4,1.6,2.6,2.8,3.4c0,2.4-0.2,4.6-3.2,5.4c-1.1,0.3-0.4,1.4,0.1,1.6
	c3.8,1.5,4.2,4.9,3.4,7.9c-0.6,2,0.4,4.9-2.2,6.2l0,0c-0.9,0.3-3.1-0.6-2.4,1.4c0.7,2.2-0.3,1.3-1.3,1.3c-1.4,0-2.1,1.1-2.4,2.4
	c-0.3,1.4,0.6,1.8,1.8,1.7l0,0c0.6,2,1.3,4.1,0.7,6c-0.5,1.6,1.3,5.7,2.9,5.3c2-0.5,4.3,1.7,6.1-0.7c0.2-0.3,1.4,0,2.1,0.2
	c1,0.3,1.6,0.2,1.7-1c0.1-1,0.8-1.5,1.6-1.6c1.3-0.2,1.1,0.8,1,1.7c0,0.2,0.3,0.6,0.5,0.6c3,0.1,6.2,2.2,9-0.5
	c0.2,0.4,0.5,0.9,0.6,1.3c0.2,0.9,0.7,1.3,1.5,1.1c1.2-0.3,0.1-1.2,0.4-1.8v0c0.8-0.6,1.7-1.2,2.5-1.9c1-1,1.8-1.2,1.8,0.5
	c0,2.5,1.6,3,4,3.2c-0.8-1.4-1.3-2.5,0.1-3.6c1.3-1,2.5-2.1,3.7-3.1c0.5-0.4,1.1-0.8,0.7-1.5c-0.3-0.7-1.1-0.5-1.7-0.5c0,0,0,0,0,0
	l0,0c-0.7-0.4-0.6-1.2-0.6-1.9c0-1.6,0.6-3.5-0.1-4.7c-0.6-0.9-0.9-1.7-0.3-2.2c0.9-0.9,1.6,0.1,2.2,0.7c0.6,0.6,1.9,1.8,1.7,0.1
	c-0.4-2.5,0-5.2-1-7.6c-0.7-2.2,1.4-2.8,2.5-3.7c0.7-0.7,0.5,1.1,1.2,1.3c0,0,0,0,0,0c0,0.2,0,0.4,0,0.6l0,0c0,0,0,0,0,0
	c0,0.8,0,1.7,0,2.5c-1.6,4.4,0.3,8.4,5.6,11.2c1.6,2.5-1.1,2.8-2.5,4.1c2.6,0.6,4.9,1,7,1.5c0.9,0.2,2.5,0.3,1.9,1.7
	c-0.9,2.5,1.1,1.4,1.4,1.1c2.2-2.8,3.1-0.9,4.2,0.9c0.5,0.9,1.5,0.5,2.2,0.7c2.1,0.5,4.5,0.6,4.4,3.7c0.2,0,0.4,0,0.6,0
	c1.2-1.4,0.6-3.6,1.9-5c2.4,0.1,3.6-1.6,5-3.1c2,0.7,2-0.5,1.9-1.9c0,0,0,0,0,0c2.5-0.7,2.5,1.9,3.6,2.9c1.8-2.7,4.7-4,6.7-2.6
	c2.8,2.1,2.5-0.1,2.4-1.6c0-1,0.2-2,1.1-1.6c2.9,1,1.8-1.5,2.1-2.5c1.2-0.1,2,1.7,3,0.6c0.9-1-0.1-2.1-0.5-3.1c-0.4-1.1-1.2-2-1.8-3
	c1.8,1.2,4.2,1.1,5.7,2.6c0.5,0.5-0.2,2,1.2,1.6c1-0.3,1.6-1.5,1.2-2.5c-0.5-1.2,0.3-2.2,0.3-3.3c0,0,0,0,0,0c0,0,0,0,0,0
	c0,0,0,0,0,0c0.6-0.4,1.7-1.1,1.8-1c1.8,1.9,3.3,0.1,5-0.1c2.3-0.3,2.8-1.1,2.7-3.4c-0.1-2.9,1.1-3.7,3.6-3c0,0.9-0.1,2,1.4,1.7
	c0.9-0.2,1.3-1.1,0.9-1.9c-0.5-1-0.4-1.9,0.2-2.9c0.7-1,1.3-2.7,2.4-0.2c0.2,0.5,0.9,0.8,1.5,1.1c0.7,0.4,1.4,0.4,1.9-0.3
	c0.5-0.8-0.2-0.9-0.6-1.3c-1.6-1.6-0.8-2.3,1.1-2.4c0,0,0,0,0,0s0,0,0,0c0.2,0.2,0.4,0.4,0.6,0.6c1.2,0.9,2.7,1.3,4,1.1
	c1.4-0.1,3.5,0.8,3.5-2.4c0-1.3,2.7-2.8,4.3-4c0.5-0.4,1.2,0.4,1.1,1.1c-0.6,2.8,1.2,1.8,1.9,1c1.3-1.5,3.3-2.1,4.5-3.7
	c0.5-0.3,0.8-0.8,0.4-1.2c-0.5-0.6-1.1,0.1-1.7,0c-1.2-0.8-1.3-2.8-3.1-3.1v0c-1.5,0.1-2.5-0.6-3.1-1.9c-2.5-2.5,2.6-3.1,0.8-5.5
	c2.6,1.3,2.5,2.6-0.3,4.4c2.6-0.5,4.5,2.8,5.6-1c0.2-0.7,0.4-2.2,1.6-1.8c0.9,0.4,1.2,1.6,0.7,2.7c-0.2,0.5-0.5,1.3,0.3,1.5
	c0.5,0.1,1.2-0.3,1.6-0.7c1.1-1.2,1.3-2.5-0.2-3.4c-1.3-0.8-1.6-1.7-0.8-3c3.3,2.1,3.6,2,5.1-1.8c0.1-0.3,0.2-0.6,0.5-0.8
	c2-1.3,0.6-1.8-0.6-2.4c0.2-1.8,2.2-2.3,2.8-3.9c0.4-1,1.7-2.2,0.2-2.9c-1.9-0.8-0.8,1.2-1.2,1.9c-0.5,0.7-0.9,1.7-1.7,1.4
	c-1.2-0.4-0.4-1.3,0.1-1.9c0.4-0.5,0.7-1,0.1-1.8c-1.2,0.8-2.7,1.2-3.3,2.8h0c-0.6,0.2-1,0.7-1.2,1.2c0,0,0,0,0,0c0,0,0,0,0,0
	c0,0,0,0,0,0v0c-1.6-0.3-1.9-0.7-1.1-2.5c1.3-2.8,3.8-5.9,0.5-9.1c-0.4-0.4-0.7-1.1-0.1-1.3c1.7-0.5,2.7-2.7,4.8-2.2
	c0.8,1.4-2.3,4.1,1.5,4.4c2.1,1.8,4.5,1.6,6.9,0.6c0.2-0.6,0.7-1,1.2-1.2c0.3,0.1,0.8,0,0.9,0.2c1.3,3.5,2.6,2.3,4.3,0.2
	c1.5-1.8,2.9-1.5,3.6,0.9c0.4,0.9,1.4,1.6,1.3,2.8c0,0.6,0,1.4,0.8,1.4c1.1,0.1,0.9-0.9,1.1-1.5c0.1-0.5,0.4-1,0.6-1.4
	c2-1.5,2.7,1.5,4.4,1.2c0.5,0.7,1.1,0.7,1.8,0.1c0.9-0.8,1.8-1.6,2.8-2.3c1.2-0.9,1.8-0.6,1.7,1l0,0c-0.8,1.8-2,3.4-3.6,4.4
	c-1.4,0.9-2.1,2.1-1.8,3.5c0.3,1.3,1.8,1.6,3.2,1.9c-0.2-0.7-0.2-1.1-0.3-1.5c-0.7-1.5-0.6-2.7,0.9-3.7c1.4-1,2.4-0.5,3.5,0.6
	c0.7,0.7,1.7,1.2,2.5,1.7c0.2,1.5,1.1,2.5,2.6,2.4c1.8-0.1,2.4-1.9,2.8-3.2c0.5-1.5,0.9-2.7,2.6-2.9c-0.1,1.5-0.3,3-0.4,4.5
	c2.1-1.2,2.1-1.2,0.4-4.5c0.2-1.3,0.4-1.8,1.9-1c2.5,1.3,9.2-0.5,11.1-2.7c0,0,0,0,0,0c0,0,0,0,0,0c0,0,0,0,0,0
	c2.3,0,2.4,1.9,2.9,3.7c1.4-1.2,1.1-2.8,1.8-3.8c1.7,0.4,1.2,2.1,2.1,3c1.6-2.4,2.3-5.2,0.3-6.7c-2.5-1.9-0.4-2.8,0.3-3.5
	c1.2-1.3,1.9,0.2,2.5,1.1c0.3,0.4,0.2,1,0.9,1.1c1.7,0.5,7-1.8,8.1-3.3c0.5-0.7,0.4-2.4,1.3-2.2c1,0.2,2.3,1,2.3,2.5
	c-1.5,0.9-2.4,2.2-2.4,4c0,0.6,0.3,1.3,1.1,1.3c0.7,0,0.8-0.7,0.7-1.1c-0.5-2.3,1.1-2.2,2.5-2.3c0.5,1-0.7,1.5-0.2,2.6
	c1.6,3-2.3,3.7-2.9,6c-0.4,1.3-1.3-1.7-2.8-1.2c0.4,2.7,2.2,4.5,4.5,5.4c1.3,0.5,2.2,1.3,2.6,2.4c1.1,2.9,2.8,2.4,4.7,0.9
	c0.9-0.7,1.9-1.3,2.8-1.9c1.8-0.2,3.2-1.2,4.8-2c1-0.6,2.1-0.9,1.7,1.1c-0.1,0.5-0.3,1.1,0.4,1.3c0.6,0.2,1-0.3,1.3-0.7
	c0.9-1.4,1.9-2.7,3.2-3.7c0.7-0.5,2.1-0.4,1.6-1.8c-0.5-1.2-1.6-1-2.7-1.1c-1.1,0-2,0.6-2.9,1c-1.4,0.6-2.1-0.5-3-1.1
	c-0.4-0.2-0.5-0.7-0.2-1.1c0.7-0.8,1.5,0,2.3-0.1c0.6-0.1,1.2,0,1.6-0.6c2-0.3,2.5-2.7,4.5-3.1c0.7-0.2,0.1-1.2-0.1-1.8
	c0-0.8,0-1.6,0-2.4c-0.2-2.4,1-1.1,1.9-0.7c0,0,0,0,0,0c0,0,0,0,0,0c0,0,0,0,0,0c0,1,0,2,0.9,2.8c1.4,1.1,0.4,4.1,2.5,4.2
	c1.4,0.1,1.8-2.2,3.2-3.1c0.1,0,0.2-0.1,0.3-0.2c2-0.6,3.9-1.3,5.9-1.8c0.7-0.2,1.8-0.3,1.9,0.5c0.2,1.5,0,3-0.3,4.5
	c-0.2,0.7-1.1,0.6-1.8,0.1c-1.9-1.3-2,0.8-2.5,1.5c-0.8,1.4,0.7,1.3,1.4,1.6c5.3,1.8,10.5-1.1,15.8-0.5c0.1,0,0.4-0.3,0.4-0.4
	c0-1.7,1.9-2.9,1.6-4.2c-0.4-1.8,1-1.6,1.6-1.9c1.4-0.8,2.6,0.2,3.8,0.7c1.3,0.6,0.3,1.3-0.1,2c-0.4,0.7-0.5,1.5,0.3,1.9
	c0.7,0.4,1.1-0.3,1.5-0.7c1-1.2,2.5-1.8,3.5-3c1.8-1.9,5.4-1.8,7.1,0.1c0.4,0.5,0.9,0.4,1.4,0.2c2.4-0.9,3.2-2.4,2-4.8
	c-1.2-2.5,1.5-2.5,2.4-3.6c0.5-0.7,1.3-0.1,1.3,0.6c-0.2,2.2,1.7,3.5,2.3,5.2c1.1,3.5,2.2,1.9,3.6,0.4c1.8-1.9,3.2-1.3,4.4,0.8
	c0.4,0.7,0.1,2.2,1.4,2c1-0.1,1.1-1.4,1.6-2.2l0,0h0c3.6,1.1,4.1-4.2,7.8-3.5c-2,2.8,0.9,2.9,2.2,4.1c0.6,1,1.2,2,2.6,1.2
	c0.5-0.2,1.3-0.4,1.3,0.1c0,1.2,0.2,1.8,1.5,1c1.1-0.7,1.8-1.6,1.4-3.1c-0.2-0.8-1.7-1.3-0.5-2.3c1.7,0.4,2.4,4.4,5,1.2
	c0.2,0,0.4,0,0.6,0l0,0c1,0,2.1,0.2,2.7-1c0.8-1.8,1.8-1.5,3.1-0.5c1.4,1.1,3,1.3,4.7,0.3c0.5-0.3,1.2-0.6,1.1-1.3
	c-0.1-0.7-0.8-0.8-1.5-0.9c-1.9-0.1-3.7-0.5-4.7-2.4c1.2-0.7,2.7,1.8,3.2-0.2c0.5-1.9,0.7-2.1,2.5-1.2c0.9,0.4,2.5,0.3,3.3-0.9
	c0.2-0.6,0.7-1,1.2-1.2c1.9,0.4,2.5,1.2,0.6,2.5c-0.6,0.5-1.3,0.8-0.5,1.7c0.5,0.6,1.5,1.2,1.8,0.6c1.3-2.1,4.2-1.1,5.5-2.9
	c0,0,0,0,0,0c0.2-0.2,0.4-0.4,0.6-0.6c1.7-0.3,3.5,0.6,5-0.6c0.2-0.2,0.4-0.4,0.6-0.6c0.6,0,1.4-0.3,1.6,0c0.6,0.6-0.2,1.2-0.4,1.9
	c-2.3,2.3-4.8,3.9-8,4.8c-3.3,0.9-3.7,3.8-1.1,6.3c-1.5-2-0.3-3.5,1.1-4c1.4-0.5,3.3-1.6,4.7,0.5c0.9,1.4,1.7,1.6,2.1-0.3
	c0.2-1.1,1.1-1.4,2-1.6c0.4-0.1,0.9,0.2,0.8,0.7c-0.6,3.2,2.1,3.7,4,4.8c0,0,0,0,0,0c0,0.4,0,0.8,0,1.2c-1.8,0-3.3-0.2-3.4,2.6
	c-0.1,1.2-1.6,4.1-4.1,1.5c-0.4-0.4-1-0.5-1.4,0c-0.5,0.5,0,1.1,0.4,1.2c1.6,0.6,2.6,3.4,5,1.2c0.6-0.6,1.4-0.2,2,0.3
	c1.3,1.1,2.4,0.4,3.1-0.7c1.1-1.7,2.3-2.8,5.4-2c-2.7-2.3-3.7-4.3-3.1-6.9c0.3-1.2,0.7-2.6,1.9-3c1.2-0.4,1.1,1.3,1.9,1.6
	c0.4,0.2,0.8,0.2,1.2,0.4c1.8,2.3,4.6,2.4,7.2,3.1c0.9,0.2,2-0.2,2-1.4c0.1-1.3-1-1-1.8-1.1c-0.6-0.1-1.5,0.3-1.3-1
	c0.5-3.9,0.5-3.9,4.5-3.9l0,0c0,0,0,0,0,0c0,0,0,0,0,0c0.2,0.6,0.3,1.2,0.6,1.7c0.7,1.6,2,1.7,3.3,0.9c2-1.1,0.2-1.9-0.4-2.5
	c-1.5-1.6-0.9-3.4-0.6-5.2c0.1-0.8,0.1-2.1,1.4-2.1c1,0,0.7,1.4,1.3,1.9c0.4,0.3,0.6,0.8,0.4,1.4c-0.5,1.3,0.1,2.4,1.1,2.9
	c1.6,0.8,1.2-1.5,2.2-1.8c0.7,0.1,0.6,0.8,0.9,1.2c0.5,0.8,1.1,1.7,2.1,1.5c1.2-0.3,0.2-1.2,0.4-1.8c0.3-1,1-1.6,2-1.7
	c0.9-0.2,1.6,0.2,2.2,0.9c0.9,1,0.2,1.7-0.5,2.4c-0.5,0.5-1.1,1.2-0.4,1.9c0.7,0.8,1.2,0,1.8-0.4c1.2-1.1,2.2-1.8,4-0.6
	c1.2,0.9,2.1-0.1,2-1.6h0c0.8,0,1.7,0,2.5,0c0,0,0,0,0,0c0,0.2,0,0.4,0,0.6c1.8,3.3,5.2,2,7.9,2.5c0.5,0.1,1.2-0.5,1.2-1.2
	c0.1-0.6-0.4-0.9-0.8-1.2c-0.4-0.3-1.4-0.1-1-1.1c2.5-1.2,3.1,2.6,5,2c1.7-0.6,3.2-2.1,4.9-3.2c0.2,2.2-1.9,2-2.5,3.2
	c1.7,1.1,3.3,2.3,5.2,1.1c1.7-1.1,2.8-1.8,4.1,0.5c0.6,1.1,2.5,1.4,4,1c1.6-0.4,0.4-1.4,0.5-2.1c0.2-1,1.1-1.7,2.1-1.4
	c3.5,1.3,5.1-1.1,6.9-3.3c0.3-0.2,0.6-0.3,0.8-0.5c1.1-1.2,2.9-2.2,1.5-4.1c-1.3-1.8-2.6-0.7-3.9,0.3c-1.5,1.1-1.4-0.2-1.5-1.2
	c0-2.7,4.5-2.7,3.5-6c0.5-0.1,1-0.2,1.5-0.3c-0.3-0.3-0.5-0.6-0.7-0.8c0.2,0.1,0.3,0.1,0.4,0.3c0.1,0.2,0.2,0.3,0.3,0.5
	c2.3,1.5,2.4,1.5,2.6,0.5c0.3-1.7,0.3-1.7,2.4-1.1c-0.2-2.7-2.9-2.5-4.4-3.7c0-1.2-4.1-0.7-1.3-3.1c1.1-0.9,2.7-1.6,0.9-3.3
	c-1.3-1.2-2.5-2.9-4.1-0.4c-0.4,0.6-1.1,0.5-1.7,0.5c0,0,0,0,0,0c-1.5-1.8-3.8-2.8-5-5c0,0,0,0,0,0c0,0,0,0,0,0
	c-1.7-1.3-3.8-0.7-5.8-1c-0.9-0.1-2.2,0.8-2.6-0.5c-0.4-1.5,1.8-0.5,2.1-1.6c1.2-0.7,0.1-2,0.6-3c1.6,0.9,3.4,3.2,3.7-0.7
	c1.2-1.3,2-3.3,4.5-2.6c1.1,0.3,1-1,1.1-1.8c0,0,0,0,0,0c0.8-2.7,2.3-3.3,4.6-1.5c1.1-5.3,1.1-5.3-2.7-6.6c0,0,0,0,0,0c0,0,0,0,0,0
	c-1-0.1-2-0.6-1.7-1.7c0.4-1.5,1.6,0.1,2.3-0.2c1.1,1.4,3.6,1.1,4,3.5c1.3-0.9,2.3-1.8,2.9-3.1c0.8-2,1.3,0.1,1.9,0.2
	c0.1,0.9-0.3,2,0.6,2.5c1,0.6,1.5-0.6,2.3-1c1.1-0.6,1.7-1,0.7-2.2c-0.9-1-0.3-2.1,0.2-3.1c2.2,0.8,4.7-0.4,6.8,1
	c3.7,2.3,3.7,2.2,5.6-1.6c3.8-2.7,4.1-4.3,1.6-8.2c-0.6-0.9-1.3-1.8-2-2.7c-1.5-2-6.9-2.3-8.1-0.3c-1,1.6-1.9,1.5-2.9,0.6
	c-1.4-1.4-2.1-0.6-2.8,0.6c-0.6,0.9-1.1,2.4-2.5,1.5c-2.3-1.4-4.1-3.3-4.8-5.9c-0.6-2.2,1.7-2.7,2.7-3.8c2.5-2.7,3.8-6.8,8.2-7.5
	c1.3-0.2,2.4-0.7,2.9,1.1c0.6,2.3,1.8,1.2,3,0.4c0-0.4,0-0.8,0-1.2c0.8-0.4,1.7-0.8,2.5-1.2c1.4-0.7,3.2,1.7,4.4-0.6
	c0.2,0,0.4,0,0.6,0c2.3-1,3.9,0.8,6.1,1.8c-0.5-1.1-1-1.8-1-2.6c0-1.2,0.8-2.1,2-1.5c2,1.1-0.7,5.1,3.2,5.3c0.3,0-0.3,1.3-0.6,1.9
	c-0.3,0.7-0.6,1.3-1,1.9c-1.1,0.6-1.9,1.4-2.5,2.5c-0.6,0.1-1.3-0.2-1.5,0.6c-0.2,0.6,0.6,0.6,1,0.8c1.2,0.4,2.4,1,3.6-0.1
	c1.8-0.5,3.5-1.2,5-2.5v0c2.3,0,4.5-2.4,7-0.2c0.3,0.3,1.3-0.4,1.8-1c1.2-0.8,2.5-1.7,3.7-2.5c0.5-0.2,1-0.3,1.4-0.5
	c1.7-1.2,2.7-4.2,5.7-2.1c0.1,0.1,0.8-0.3,0.9-0.6c1.3-3.6,3.5-2.1,5.6-1.2c0.6,1.2,1.2,2.5,1.9,3.7c0,0.9,0,2.3,1.1,2.1
	c1.2-0.2,1.8-1.5,2-2.8c0.2-1.6,1.3-2.3,2.5-3.1c1.2-0.3,1.8,0.6,2.5,1.2c0,0.7-0.1,1.4,0.6,1.9c0.2,1.1-0.6,2.9,0.9,3.2
	c1,0.2,2.2-0.8,2.9-2c1.2-2,3.1-3.2,5-4.4c2,0.2,2.7-2.7,4.8-2.1c1.9,0.5,2.6-0.5,2.3-2.1c-0.2-1.3,0.8-1.8,1.3-1.3
	c1.9,2.1,4.9,0.6,7.2,2.9c2.1,2,2.4,2.8,0.8,4.9c-1.7,2.3-1,5.3-1,7.8c0,1.6,2.9,1.4,4.2,2.7c1.1,1.1,2.8-0.4,4,0.8
	c0,0.2,0,0.4,0,0.6c-0.9,0.8-2.2,0-3.1,0.6c-1.3-1.5-2-0.9-2.5,0.6c-0.2,0.2-0.4,0.4-0.6,0.6c-1,0.2-2.2-0.4-3.1,0.6
	c-0.2,0.2-0.4,0.4-0.6,0.6c0,0,0,0,0,0c0,0,0,0,0,0c-0.5,1.1-1.6,1.3-2.5,1.9c0,0,0,0,0,0c0,0,0,0,0,0c-2.9-0.2-4.7,1.3-5.9,3.7
	c-0.8,1.7-2.1,3-4,3.1c-3.2,0.1-6.4,0.5-9.6-0.3c-1-0.3-2-0.4-3,0.2c-1,0.6-2.4,1.2-2.9,0.1c-0.7-1.6,0.9-1.6,2-1.8
	c0.8-0.2,1.5-0.8,1.6-1.6c0.1-0.3-0.6-1.1-0.9-1.1c-2.1-0.1-3.4-2-5.4-2.2c-1.4-0.7-3.4,0-4.4-1.9c-0.3-0.2-0.7-0.6-1-0.6
	c-1.7,0-3.9-0.7-4.9,1.1c-0.9,1.7,1.5,2.1,2.3,3.2c0.5,0.9,1.6,1.7,0.5,2.7c-0.9,0.9-1.4,2.7-3.4,1.3c-1-0.7-2.5-0.5-3.7-1.2
	c-1.8-1-8.4,1-8.7,2.7c-0.6,3.6-1.9,3-4.2,1.5c-0.9-0.6-2.7-1.7-3.4,0.1c-0.5,1.4,0.4,2.7,1.9,3.5c2.4,1.2,4.9,1.4,7.6,1.2
	c2.5-0.1,3.8,1.7,5.2,3.3c1.3,1.5-0.5,2.1-0.9,3.1c-0.2,0.7-0.3,1.4-0.3,2.1c-0.1,2.1,0.6,4.3-2,5.7c-1,0.5-0.3,1.7,0.1,2.5
	c2.8,0,5.5-0.4,8-1.8c2.6-1.4,5.1-0.4,7.4,0.5c0.9,0.4,3.7,1.5,1.7,4.2c-1,1.4,1.2,2.3,1.7,2c2.6-1.9,6.1-0.3,8.6-2.3
	c2.1,0.1,4.2,0.5,6.2,1.2c0,0,0,0,0,0c0,0,0,0,0,0c0,0,0,0,0,0c0.1,1.3-0.4,1.8-1.8,1.9c-2.2,0.2-5-0.8-5.8,2.6
	c-0.1,0.2-0.9,0.3-1.4,0.5c-1.3,0.6-2.6,1.2-4.6,2.1c1.4,0.2,1.9,0.3,2.4,0.3c2.6,0.1,3.7,1.8,3.8,3.9c0.1,1.3-1.9,0.8-2.7,1.7
	c-1,1.2-2.8,0.9-4.2,1.8c2.4,2.9,4.7,4.5,8.8,4c4.4-0.5,8.7-1.4,13.1-1.9c1.7-0.2,4.2-1.5,4.8-0.9c2.3,2.3,5.4,2.9,7.8,4.7
	c1.2,0.9,2.1,2.1,3.6,0.6c0.4-0.4,1.1-0.2,1.3,0.3c0.1,0.3,0,0.9-0.2,1.1c-0.6,0.6-1.9,1.1-0.8,2.2c1,1.1,1.9,0.4,2.5-0.6
	c0.4-0.6,1-0.8,1.6-0.6c1.2,0.3,0.2,1.2,0.4,1.8c0.7,2.4,0.6,4.6-0.6,6.9c-0.4,0.7-0.5,2,0.6,2.4c2.9,1.1,0.9,2.5,0.1,3.5
	c-0.5,0.7-1.5,1-1.5,2.1c-0.9,1.9-3.1,2.3-4.4,3.7c0,0,0,0,0,0c-2.9,0.2-7.1-1.6-6.8,4.1c0,0.2-0.2,0.4-0.3,0.6
	c-2.3,3.4-2.4,6.6,0.3,10c2.1,2.7,7.1,4.5,10.5,3.4c0-0.2,0-0.4,0-0.6c1.2-0.9,2.6-0.4,4.1-0.9c-2.5-2.3-1.5-4.7,0.2-6.5
	c1.5-1.6,2.9-3.4,5-4.4c0,0,0,0,0,0c0.9-1,0.6-3.9,3.3-2.2c0.2,0.1,0.7-0.3,1-0.5c3.8-3.3,8.1-5.9,12.5-8.4c2.3,0.4,3.8,1.8,5,3.7
	c0,0.2,0,0.4,0,0.6c0,2.3,0,4.6,0,6.8c-2.1,3.3-4.1,6.6-8.2,7.9c-2.6,0.9-5.5,1.1-7.9,2.5c-0.6,0.3-1.6,0.2-1.4,1.2
	c0.1,0.7,0.9,0.7,1.6,0.7c3.3,0,6.7,0.5,9.9-0.2c3-0.6,6.2-1.7,8.4-3.9c1.3-1.4,1.8-1.4,3.1-0.3c1.4,1.3,2.5,1.7,3.7-0.7
	c0.8-1.6,3-3.4,5.3-1c0.6,0.7,1.6,0.6,2.4,0.5c3.9-0.9,7.9,4,11.8-0.2c0.1-0.1,0.6,0.1,0.9,0.2c1.7,0.6,3.5,0.2,5.2-0.1
	c2.1-0.4,4-1.1,6.2,0c1.4,0.7,2.3-0.6,2.2-2.1c-0.1-1.6,0.5-2.4,2.1-3c1.6-0.6,2.5,0,3.5,1.1c0.7,0.7,1.2,1.6,2.6,1
	c3-1.2,6.2-1.5,9.4-1.2c2.2,0.2,3.8-0.5,4.9-2.5c1-0.4,1.9-0.9,2.2-2c0.7-2.4,2.5-3.1,4.8-3.7c2.3-0.7,4.5-0.3,6.7,0.1
	c0.1,0.2,0.2,0.5,0.3,0.5c4.5,1.1,6.6,4.2,7.5,8.6c0.5,2.6,4.8,3.9,7.1,2.6c2.3-1.3,4.8-4.1,7.1-3.3c4.1,1.4,5.7-0.5,7.3-3.4
	c1.3-0.1,1.2-1.1,1.3-2.1c0.2-2.2,1.9-2.1,3.4-2c0.7,0.1,1.3,1,2.2,1c0,0,0,0,0,0c1.1,1.2,2.1,1.5,3.3,0.1c2.5-3,2.6-2.9,5.1,0
	c0.6,0.7,1.1,1.5,1.7,2.2c1.4,1.5,2.6,2.9-0.4,4.1c-1,0.4-1.2,1.4-0.9,2.4c0.3,1,0.5,2,0.5,3c0,0,0,0,0,0c0,0,0,0,0,0
	c0,0.2,0,0.4,0,0.6c0,0,0,0,0,0c-0.2,0-0.4,0-0.6,0c0,0,0,0,0,0c-0.1,0-0.2,0-0.4,0c0.2-0.8,0.4-1.6,0.1-2.5
	c-0.9-1.6-1.1-3.1-0.8-4.6c0.2-0.6,0.7-1.3,1.3-1.8c0.3-0.2,0.1-0.7-0.3-0.9c0-0.1,0.1-0.1,0.1-0.2c0-0.6-0.3-1.1-0.8-1.5
	c-0.1,0-0.2-0.1-0.3-0.1c-0.6-0.9-1.5-1.2-2.4-0.2c-0.9,0.9-1.8,1.2-2.8,1.3c-0.4-0.1-0.9-0.2-1.3-0.4c-0.7-0.2-1.4-0.5-2.1-0.6
	c-0.4-0.1-0.7-0.1-1,0c-1.1-0.3-1.4,0.5-1.5,1.3c-0.3,0.4-0.5,0.7-0.9,0.9c-0.7,0.5-1.5,0.9-1.8,1.8c0,0.1,0,0.2,0,0.3
	c-1,0.6-1.3,1.7-1.7,2.7c-0.2,0-0.4,0.1-0.7,0.1c-0.6,0.1-1.2,0.2-1.5,0.8c2.4,2.3,5.1,1.4,7.7,0.5c1.7-0.6,3.2-1.8,5.2-1.8
	c2.1,0,3,1.1,3.6,2.8c0.5,1.5,0.3,2.7-1.3,3.7c-2.2,1.4-2.1,3.3-0.7,5.3c0.9,1.3,2.3,1.2,3.6,1.6c1.8,0.6,4.2,1.1,4,3.3
	c-0.3,2.9,1.5,3.1,3.3,3.9c2.5,1,5,1.9,6.4,4.5c0.7,1.2,1.7,1.7,3,1.8c2.8,0.2,5.5,0.6,8.4,1.4c3.5,1,7.4,2.7,11.4,1
	c0.7-0.3,1.9,0,2.7,0.3c5,1.9,10-0.4,15.1,0.2c0.3,0,0.7-0.1,0.8-0.3c1.7-2.6,2.9-0.8,4.4,0.4c3.6,2.9,6.1,2,7-2.5
	c0.2-0.8,0.2-1.5,1-2.1c2.4-1.8,1.9-3.4-0.4-4.8c-2.7-1.6-4.4-3.6-2.7-7c1.2,0.4,2.2,2.3,3.5,1.1c1.2-1.1,0.1-2.4-0.5-3.6
	c-1-2.3,0.1-4,2.9-4.6c1.3-0.3,2.7-0.1,3.7-1.4c1.8,0.4,3.3-2.4,4.7-0.8c1.6,1.7,2.9,1.3,4.6,0.8c2.6,0.2,5.2-1,7.9,0
	c1.2,0.4,2.1,0.9,1.5,2.1c-0.9,1.9-0.1,3.8-0.6,5.7c-0.6,2.2,0.4,3.4,2.9,2.6c1.5-0.5,3.3-1.1,4.2,0.6c1.5,2.9,3.7,2.2,5.5,1
	c5.1-3.4,9.4-1.7,13.6,1.6c1.2,1,2.3,1.2,4,1c3-0.5,6.1-1.6,9.1,0.2c4.2,2.5,8.4,5,13,6.7c3.6,1.3,4.3,5.3,6.6,7.8
	c2,2.2,3.4,1.8,4.6,0.3c2.7-3.3,6.7-3,10.1-3.7c3.7-0.7,7.6-1,11.3-2.1c2-0.6,3.6-0.8,5.4,0.7c1.4,1.2,3.5,1.7,5.5,1.8
	c1,0,2.6,0.7,3-0.8c0.4-1.6-1.3-1.5-2.3-2c-0.6-0.3-1.6-0.4-1.4-1.3c0.1-0.6,0.8-1.2,1.4-1.6c0.9-0.7,1.9-0.6,2.8,0.1
	c0.7,0.5,1.4,0.7,1.8-0.2c0.5-0.9-0.2-1.4-0.9-1.6c-1.6-0.5-1.6-1.7-0.9-2.7c0.6-0.9,2-1.3,2.5-2.2c0.5-1,3-1.3,1.2-3.4
	c-1.4-1.6-0.2-4.4,1.8-4.1c3.1,0.5,4.8-0.8,6.5-2.8c0.3-0.4,1.1-0.5,1.7-0.5c1.2,0,1.9-0.8,2.9-1.4c2.5-1.7,4-4.7,7.3-5.4
	c2.6-0.6,5.2-1.3,7.8-1.9c0.8-0.2,1.9-0.1,1.8-1.2c-0.1-1.1-1.3-1.3-2.2-1.3c-3.5,0.2-7.1-0.9-10.3,1.1c-1,0.6-1.6-0.1-2.5-0.4
	c-2.8-1.1-5.6-3.5-8.6-0.1c-0.5,0.6-1.5,0.9-2.3,0.2c-2-1.8-3.5-0.4-4.8,0.9c-1.2,1.1-2.3,1.8-3.8,0.8c-1.4-0.9-2.2-2.1-1.6-3.9
	c0.6-1.5,0.1-2.7-0.9-4c-1.9-2.3-1.4-3.5,1.7-3.6c1.9-0.1,2.7-0.6,2.6-2.5c0-1,0.3-2.4,1.3-2c2.9,1.3,5.3-0.8,7.9-0.8
	c3.9-0.1,8-0.6,11.8,1c0.8,0.3,1.6-0.1,2.4-0.3c1.1-0.3,1.5-1,1.7-1.9c0.2-1.2-0.8-1.2-1.6-1.4c-0.8-0.1-1.5-0.3-1.5-1.3
	c0-0.9,0.8-1.1,1.5-1.4c1.1-0.6,2.5-0.5,3.3-1.6c0-0.2,0-0.4,0-0.6c0.2,0,0.4-0.1,0.6-0.1c5.7-1,11.5-3.5,17.2,0.1
	c0.5,0.3,1.1,0.3,1.2-0.3c0.2-1.6,1.5-1.1,2.1-0.9c3.2,0.9,6.3,2,9.4,3.1c0.5,1,1.2,1.2,2.2,0.8c1.3-0.4,2.6,0.2,3.1,1.4
	c0.4,1.2-1,1.2-1.7,1.6c-1.3,0.7-1.2,1.7,0.1,2.2c1.7,0.5,3.3,2.8,5.4,0.4c0.7-0.7,2.1-0.2,3.3,0c3,0.4,5.7-0.2,7.6-2.7c0,0,0,0,0,0
	c0,0,0,0,0,0c0,0,0,0,0,0c1.4,0,2.6,0,3.9,0.7c3.7,1.8,4.1,2.6,2.9,5.4c0.7,0.5,4.7-2,1.8,1.9c-0.8,1.1,0.2,1.5,1,1.7
	c1.7,0.5,3.4,0.2,5.1-0.5c3.2-1.3,6.6-2.8,10.1-0.9c1,0.5,1.7,0,2.1-0.8c0.9-1.8,2.7-3.2,1.9-5.6c-0.3-0.9,0.3-1.7,1.2-1.8
	c3.4-0.4,6-1.9,7.6-5c0.4-0.7,1.1-1.2,2-1.4c2.4-0.6,4.7-1.2,7.1-1.8c0-1.7,0-3.3,0-5c0-0.8,0-1.7,0-2.5c0-0.6,0-1.2,0-1.9
	C1185.4,473.2,1182.6,474.5,1179.7,475.1z M971.6,398.6C971.6,398.6,971.6,398.6,971.6,398.6C971.6,398.6,971.6,398.6,971.6,398.6
	C971.6,398.6,971.6,398.6,971.6,398.6z M1011,289.2C1011,289.2,1011,289.2,1011,289.2c0,0,0,0.1,0,0.1
	C1011,289.3,1011,289.2,1011,289.2z M976.6,338.9C976.6,338.9,976.6,338.9,976.6,338.9C976.6,338.9,976.6,338.9,976.6,338.9
	C976.6,338.9,976.6,338.9,976.6,338.9z M956.6,284.7C956.6,284.8,956.6,284.8,956.6,284.7c-0.1,0.1-0.2,0.1-0.2,0.1
	C956.5,284.8,956.5,284.8,956.6,284.7z M956.1,350.7c0,0.4-0.2,0.8-0.4,1.2C955.5,351.6,955.5,351.2,956.1,350.7z M951.6,248.7
	C951.6,248.7,951.7,248.7,951.6,248.7C951.7,248.7,951.6,248.7,951.6,248.7C951.6,248.7,951.6,248.7,951.6,248.7z M950.3,299.5
	c0,0.3-0.1,0.6-0.3,0.9C950.1,300.1,950.2,299.8,950.3,299.5z M948.2,261c-0.1,0-0.1,0.1-0.2,0.2c0,0,0,0,0-0.1
	C948,261.1,948.1,261,948.2,261z M28.1,343.9C28.1,343.9,28.1,343.9,28.1,343.9L28.1,343.9C28.1,343.8,28.1,343.8,28.1,343.9
	C28.1,343.8,28.1,343.8,28.1,343.9C28.1,343.8,28.1,343.8,28.1,343.9C28.1,343.9,28.1,343.9,28.1,343.9z M41.5,355.2
	C41.5,355.2,41.5,355.2,41.5,355.2c-0.2-0.4-0.4-0.8-0.7-1.2c0,0,0,0,0.1,0C41.4,354.3,41.8,354.6,41.5,355.2z M28.1,453.1
	c0.4,0.3,0.6,0.7,0.6,1.2C28.6,453.9,28.4,453.5,28.1,453.1z M29.2,417.5c0.1,0,0.1-0.1,0.2-0.1c0.1,0,0.2-0.1,0.3-0.1
	C29.5,417.3,29.3,417.4,29.2,417.5z M46.8,391.1C46.8,391.1,46.8,391.1,46.8,391.1C46.9,391.1,46.9,391.1,46.8,391.1
	C46.9,391.1,46.8,391.1,46.8,391.1z M51.3,434.2c0-0.1-0.1-0.1-0.1-0.2C51.2,434.1,51.3,434.1,51.3,434.2
	C51.3,434.2,51.3,434.2,51.3,434.2z M52.2,385.9c0-0.1,0.1-0.2,0.1-0.2c0.1,0.1,0.1,0.2,0.2,0.2C52.4,385.9,52.3,385.9,52.2,385.9z
	 M54.9,409.9C54.9,409.8,54.9,409.8,54.9,409.9C54.9,409.8,54.9,409.8,54.9,409.9C54.9,409.8,54.9,409.8,54.9,409.9L54.9,409.9
	C54.9,409.8,54.9,409.8,54.9,409.9z M56.1,447.8C56.1,447.8,56.1,447.8,56.1,447.8C56.1,447.8,56.1,447.8,56.1,447.8
	C56.1,447.8,56.1,447.8,56.1,447.8z M58.3,414.8c-0.1,0-0.2,0-0.3,0v0c0,0,0,0,0,0c0,0,0,0,0,0c0.1-0.1,0.2-0.2,0.3-0.3
	C58.3,414.6,58.3,414.7,58.3,414.8z M60.5,402.3C60.5,402.3,60.5,402.3,60.5,402.3C60.5,402.3,60.5,402.3,60.5,402.3
	C60.5,402.3,60.5,402.3,60.5,402.3C60.5,402.3,60.5,402.3,60.5,402.3C60.5,402.3,60.5,402.3,60.5,402.3L60.5,402.3L60.5,402.3z
	 M67.1,392c0,0,0.1,0,0.1-0.1c0,0.1,0.1,0.1,0.1,0.2C67.2,392,67.2,392,67.1,392z M72.9,400.9c0.2,0,0.4,0.1,0.6,0.1
	C73.3,401.1,73.1,401,72.9,400.9z M73.6,401.1C73.6,401.1,73.6,401.1,73.6,401.1C73.6,401.1,73.6,401.1,73.6,401.1L73.6,401.1
	C73.6,401.1,73.6,401.1,73.6,401.1z M81.1,370.6C81.1,370.6,81.1,370.6,81.1,370.6c0,0,0.1-0.1,0.1-0.1
	C81.2,370.6,81.1,370.6,81.1,370.6z M84.8,444C84.8,444,84.9,444,84.8,444C84.9,444,84.9,444,84.8,444C84.9,444,84.8,444,84.8,444z
	 M86,447.4c0.4-0.3,0.9-0.3,1.4-0.2C86.9,447.3,86.4,447.3,86,447.4z M109.6,462.5c0,0,0.1-0.1,0.1-0.1
	C109.7,462.5,109.6,462.5,109.6,462.5z M112.3,459.7C112.2,459.7,112.2,459.7,112.3,459.7C112.2,459.6,112.2,459.6,112.3,459.7
	C112.3,459.6,112.3,459.6,112.3,459.7z M117.1,453.9c-0.3-0.1-0.5-0.2-0.8-0.2C116.6,453.8,116.9,453.9,117.1,453.9
	C117.1,453.9,117.1,453.9,117.1,453.9z M122.1,469.5c0-0.1-0.1-0.2-0.1-0.3c0.1-0.1,0.2-0.1,0.2-0.2
	C122.2,469.2,122.2,469.4,122.1,469.5z M125.3,450.2C125.4,450.2,125.4,450.2,125.3,450.2c0.1,0,0.1,0,0.1,0
	C125.4,450.3,125.4,450.3,125.3,450.2z M134.1,470.8c0.3,0.3,0.5,0.6,0.5,0.9C134.4,471.4,134.3,471.1,134.1,470.8z M149.6,510
	C149.6,510,149.6,510,149.6,510C149.6,510,149.6,510,149.6,510C149.6,510,149.6,510,149.6,510z M147.2,549.2
	C147.2,549.2,147.1,549.2,147.2,549.2C147.1,549.2,147.1,549.2,147.2,549.2C147.2,549.2,147.2,549.2,147.2,549.2z M151.5,557.3
	C151.5,557.3,151.5,557.3,151.5,557.3C151.5,557.3,151.5,557.3,151.5,557.3C151.5,557.3,151.5,557.3,151.5,557.3z M151.7,439.3
	c-0.2,0-0.4-0.1-0.6-0.1c0,0-0.1,0-0.1,0c0.5,0.1,1,0.2,1.5,0.3C152.2,439.4,151.9,439.4,151.7,439.3z M155.2,377.4
	C155.2,377.4,155.2,377.4,155.2,377.4C155.3,377.4,155.3,377.4,155.2,377.4C155.3,377.4,155.3,377.4,155.2,377.4
	C155.3,377.4,155.3,377.4,155.2,377.4z M155.9,380.6C155.9,380.6,155.9,380.6,155.9,380.6C155.9,380.6,155.9,380.6,155.9,380.6
	c0,0,0-0.1,0-0.1c0,0,0,0,0,0C155.9,380.5,155.9,380.5,155.9,380.6C155.9,380.6,155.9,380.6,155.9,380.6z M161.4,368.2
	C161.4,368.1,161.4,368.1,161.4,368.2C161.4,368.1,161.5,368.1,161.4,368.2C161.5,368.1,161.4,368.1,161.4,368.2z M164.6,350.1
	C164.6,350.1,164.6,350.1,164.6,350.1c-0.1-0.1-0.1-0.1-0.2-0.2C164.5,349.9,164.5,350,164.6,350.1
	C164.6,350.1,164.6,350.1,164.6,350.1z M165.2,370.7C165.2,370.6,165.2,370.6,165.2,370.7C165.2,370.6,165.2,370.6,165.2,370.7
	L165.2,370.7C165.2,370.6,165.2,370.6,165.2,370.7C165.2,370.6,165.2,370.6,165.2,370.7z M165.2,370.6
	C165.2,370.6,165.2,370.6,165.2,370.6C165.2,370.6,165.2,370.6,165.2,370.6C165.2,370.6,165.2,370.6,165.2,370.6z M165.2,369.4
	C165.2,369.3,165.3,369.3,165.2,369.4C165.3,369.3,165.3,369.3,165.2,369.4C165.3,369.4,165.2,369.4,165.2,369.4z M165.8,370.4
	c0,0-0.1,0-0.1,0c0.1,0,0.1,0,0.2,0C165.9,370.3,165.8,370.4,165.8,370.4z M170.8,552.9C170.8,552.9,170.8,552.9,170.8,552.9
	C170.8,552.9,170.8,552.9,170.8,552.9C170.9,552.9,170.9,552.9,170.8,552.9C170.9,552.9,170.8,552.9,170.8,552.9z M173.3,354.5
	C173.3,354.5,173.3,354.5,173.3,354.5C173.3,354.4,173.3,354.4,173.3,354.5C173.3,354.4,173.4,354.4,173.3,354.5
	C173.3,354.5,173.3,354.5,173.3,354.5z M180.8,557.7c0,0.1,0,0.1,0,0.2c0,0,0,0,0,0c-0.1,0-0.1-0.1-0.2-0.1
	C180.7,557.7,180.7,557.7,180.8,557.7z M183.3,363.8C183.3,363.8,183.3,363.8,183.3,363.8C183.3,363.8,183.3,363.8,183.3,363.8
	C183.3,363.8,183.3,363.8,183.3,363.8z M183.9,347C183.9,347,183.9,347,183.9,347c0,0-0.1,0-0.1,0
	C183.8,346.9,183.9,346.9,183.9,347C183.9,346.9,183.9,346.9,183.9,347C183.9,347,183.9,347,183.9,347
	C183.9,347,183.9,347,183.9,347z M187.6,541.2c0,0.2,0.1,0.3,0.1,0.5C187.6,541.6,187.6,541.4,187.6,541.2z M187.7,504.4
	C187.7,504.4,187.7,504.4,187.7,504.4C187.7,504.4,187.7,504.4,187.7,504.4C187.7,504.4,187.7,504.4,187.7,504.4z M190.8,538.1
	C190.8,538.1,190.8,538.1,190.8,538.1C190.8,538,190.8,538,190.8,538.1C190.8,538,190.8,538,190.8,538.1z M191.4,535.5
	c0-0.1-0.1-0.1-0.1-0.2C191.3,535.4,191.4,535.4,191.4,535.5C191.4,535.5,191.4,535.5,191.4,535.5z M191.7,536.3
	c0.2,0.2,0.3,0.4,0.3,0.6C191.9,536.8,191.8,536.6,191.7,536.3z M198.3,346C198.3,346,198.3,346,198.3,346c0,0.1,0,0.3,0,0.4
	C198.3,346.3,198.3,346.1,198.3,346z M200.1,347C200.1,347,200.1,347,200.1,347C200.1,347,200.1,347,200.1,347
	C200.1,347,200.1,347,200.1,347C200.1,347,200.1,347,200.1,347z M202.6,508.1C202.6,508.1,202.6,508.1,202.6,508.1
	C202.6,508.1,202.6,508.1,202.6,508.1C202.6,508.1,202.6,508.1,202.6,508.1z M203.9,368.7c0,0.1-0.1,0.1-0.1,0.2c0,0,0-0.1-0.1-0.1
	C203.7,368.8,203.8,368.8,203.9,368.7C203.9,368.7,203.9,368.7,203.9,368.7C203.9,368.7,203.9,368.7,203.9,368.7
	C203.9,368.7,203.9,368.7,203.9,368.7z M210.1,363.1C210.1,363.1,210.1,363.1,210.1,363.1C210.1,363.1,210.1,363.1,210.1,363.1
	C210.1,363.1,210.1,363.1,210.1,363.1C210.1,363.1,210.1,363.1,210.1,363.1z M226.6,506.3c-0.2,0-0.4,0.1-0.6,0.1
	C226.2,506.4,226.4,506.3,226.6,506.3C226.6,506.3,226.6,506.3,226.6,506.3z M226.9,360.7C226.9,360.7,226.9,360.7,226.9,360.7
	C226.9,360.7,226.9,360.7,226.9,360.7C226.9,360.7,226.9,360.7,226.9,360.7C226.9,360.7,226.9,360.7,226.9,360.7
	C226.9,360.7,226.9,360.7,226.9,360.7C226.9,360.7,226.9,360.7,226.9,360.7C226.9,360.7,226.9,360.7,226.9,360.7
	C226.9,360.7,226.9,360.7,226.9,360.7L226.9,360.7C226.9,360.7,226.9,360.7,226.9,360.7C226.9,360.7,226.9,360.7,226.9,360.7
	C226.9,360.7,226.9,360.7,226.9,360.7C226.9,360.7,226.9,360.7,226.9,360.7z M230.1,360.6C230.1,360.6,230.1,360.6,230.1,360.6
	c-0.1-0.1,0-0.1,0.1-0.2C230.2,360.5,230.1,360.6,230.1,360.6z M245.2,324.5c0.1-0.1,0.1-0.3,0.2-0.4c0.2,0.2,0.4,0.4,0.7,0.6
	C245.8,324.6,245.5,324.5,245.2,324.5z M246.2,319.6C246.2,319.6,246.2,319.6,246.2,319.6C246.2,319.6,246.2,319.6,246.2,319.6
	C246.2,319.6,246.2,319.6,246.2,319.6C246.2,319.6,246.2,319.6,246.2,319.6C246.2,319.6,246.2,319.6,246.2,319.6
	C246.2,319.6,246.2,319.6,246.2,319.6C246.2,319.6,246.2,319.6,246.2,319.6L246.2,319.6C246.2,319.6,246.2,319.6,246.2,319.6
	C246.3,319.6,246.3,319.6,246.2,319.6C246.3,319.6,246.3,319.6,246.2,319.6C246.3,319.6,246.3,319.6,246.2,319.6z M247.1,343
	c-0.1-0.1-0.1-0.2,0-0.3C247.1,342.8,247.1,342.9,247.1,343z M250.6,319C250.6,319,250.6,319,250.6,319
	C250.6,319,250.6,319,250.6,319C250.6,318.9,250.6,318.9,250.6,319C250.6,318.9,250.6,318.9,250.6,319
	C250.6,318.9,250.6,318.9,250.6,319z M252.5,321.5C252.5,321.5,252.5,321.5,252.5,321.5C252.5,321.5,252.5,321.5,252.5,321.5
	c0,0,0-0.1,0-0.1C252.5,321.4,252.5,321.4,252.5,321.5C252.5,321.4,252.5,321.5,252.5,321.5z M256.8,336.4
	C256.8,336.4,256.8,336.4,256.8,336.4C256.8,336.4,256.8,336.4,256.8,336.4C256.8,336.4,256.8,336.4,256.8,336.4
	C256.8,336.4,256.8,336.4,256.8,336.4C256.8,336.4,256.8,336.4,256.8,336.4C256.8,336.4,256.8,336.4,256.8,336.4
	C256.8,336.4,256.8,336.4,256.8,336.4z M262.4,307.2C262.4,307.2,262.4,307.2,262.4,307.2C262.4,307.2,262.4,307.2,262.4,307.2
	C262.4,307.2,262.4,307.2,262.4,307.2z M263.7,459L263.7,459C263.7,459,263.7,459,263.7,459C263.7,459,263.7,459,263.7,459
	C263.7,459,263.7,459,263.7,459z M272.4,315.3C272.4,315.3,272.4,315.3,272.4,315.3C272.4,315.2,272.4,315.2,272.4,315.3
	C272.4,315.2,272.4,315.2,272.4,315.3C272.4,315.2,272.4,315.2,272.4,315.3C272.4,315.2,272.4,315.2,272.4,315.3L272.4,315.3
	C272.4,315.2,272.4,315.3,272.4,315.3C272.4,315.3,272.4,315.3,272.4,315.3z M273.6,308.4C273.6,308.4,273.6,308.4,273.6,308.4
	C273.6,308.4,273.6,308.4,273.6,308.4C273.6,308.4,273.6,308.4,273.6,308.4C273.6,308.4,273.6,308.4,273.6,308.4z M273.7,378.4
	c0-0.6,0.4-0.7,0.8-0.8C274.1,377.9,273.9,378.1,273.7,378.4z M275.5,459.7C275.5,459.7,275.5,459.7,275.5,459.7
	C275.5,459.6,275.5,459.6,275.5,459.7C275.6,459.6,275.5,459.7,275.5,459.7z M275.6,496.1c0.4,0.1,0.7,0.3,0.9,0.7
	C276.2,496.6,275.9,496.4,275.6,496.1z M277.4,525.5C277.4,525.5,277.4,525.5,277.4,525.5C277.4,525.5,277.4,525.5,277.4,525.5
	C277.4,525.5,277.4,525.5,277.4,525.5C277.4,525.5,277.4,525.5,277.4,525.5C277.4,525.5,277.4,525.5,277.4,525.5z M280.1,490.1
	C280.1,490.1,280.1,490,280.1,490.1C280.1,490,280.1,490,280.1,490.1C280.1,490.1,280.1,490.1,280.1,490.1z M293.4,505.1
	c-0.5-0.3-1.1-0.3-1.7-0.1C292.7,504.5,293.1,504.7,293.4,505.1z M299.2,462.1C299.2,462.1,299.2,462.1,299.2,462.1L299.2,462.1
	L299.2,462.1C299.2,462.1,299.2,462.1,299.2,462.1C299.2,462.1,299.2,462.1,299.2,462.1C299.2,462.1,299.2,462.1,299.2,462.1
	C299.2,462.1,299.2,462.1,299.2,462.1C299.2,462.1,299.2,462.1,299.2,462.1C299.2,462.1,299.2,462.1,299.2,462.1z M284.9,276.6
	C284.9,276.6,284.9,276.6,284.9,276.6C284.8,276.6,284.8,276.6,284.9,276.6C284.8,276.6,284.8,276.6,284.9,276.6z M284.4,458
	c0,0,0,0.1,0,0.1c-0.1,0-0.2,0-0.3,0.1C284.2,458.1,284.3,458,284.4,458z M281.7,465.9C281.7,465.9,281.7,465.9,281.7,465.9
	c0-0.1,0-0.1,0-0.1C281.7,465.8,281.7,465.9,281.7,465.9z M281.7,465.8C281.7,465.8,281.7,465.8,281.7,465.8
	C281.7,465.8,281.8,465.8,281.7,465.8C281.8,465.8,281.7,465.8,281.7,465.8z M299.8,474.8c-0.6,0.6-0.9,1.5-1.3,2.2
	c-0.1-0.2-0.1-0.4-0.2-0.6c-0.1-0.4-0.1-0.8-0.2-1.2c1.3-3.6,0.9-4.4-2.1-4.5c1.8,0.7,1.9,2.1,1.9,3.5c0-0.2-0.1-0.4-0.2-0.6
	c-0.6-1.4-1.5-2.8-3.1-2.5c-1.7,0.3-2.7,1.4-2.3,3.3c-0.1,0-0.2-0.1-0.3-0.1c-1.7,0.6-1.2,1.7-0.7,2.7c0.5,0.9,1.3,1.6,1.9,2.5
	c0.4,0.6,0.9,1.4,0.2,2c-1.2,0.9-2.8,0.6-4.2,0.8c-1.4,0.2-1-1.2-1.4-2c-1-2.3-1.6-5-4.8-5.3c-0.1,0.1-0.1,0.2-0.2,0.2c0,0,0,0,0,0
	c-0.9-1.9-0.9-3.7,0-5.6c0.2-0.2,0.7-0.4,0.7-0.5c-0.8-1.9,0-2.7,1.8-3.1c0.2,0,0.4-0.5,0.5-0.7c0.6-2.9,2.6-3.3,5.1-3.1
	c0,0.1-0.1,0.1-0.1,0.2c0.5,1,1.1,1,1.9,0.5c0.1,0.1,0.1,0.3,0.2,0.4c1.1,1.1,3.1,1.3,2.9,3.6c-0.2,1.7,0.7,2.4,2.4,2.9
	C301.1,470.2,301.7,473,299.8,474.8z M301.8,429.3c0-0.1,0.1-0.2,0.1-0.3c0.1,0,0.3,0,0.4,0.1C302.1,429.1,302,429.2,301.8,429.3z
	 M303,427.8C303,427.8,303,427.8,303,427.8c0-0.1,0.1-0.1,0.1-0.2c0,0.1,0,0.1,0.1,0.2C303.1,427.8,303.1,427.8,303,427.8z
	 M306.7,426.1C306.7,426,306.7,426,306.7,426.1C306.7,426,306.7,426,306.7,426.1C306.7,426.1,306.7,426.1,306.7,426.1z M307.2,452.1
	C307.3,452.1,307.3,452.1,307.2,452.1C307.3,452.1,307.3,452.2,307.2,452.1C307.3,452.2,307.3,452.2,307.2,452.1z M307.3,435.3
	L307.3,435.3C307.3,435.3,307.3,435.3,307.3,435.3C307.3,435.3,307.3,435.3,307.3,435.3C307.3,435.3,307.3,435.3,307.3,435.3
	C307.3,435.3,307.3,435.3,307.3,435.3C307.3,435.3,307.3,435.3,307.3,435.3z M308,387.4C308,387.4,307.9,387.4,308,387.4
	C308,387.4,308,387.4,308,387.4C308,387.4,308,387.4,308,387.4z M309.8,349.3c0.4-0.1,0.7-0.2,1.1-0.3
	C310.6,349.3,310.2,349.4,309.8,349.3z M311.1,483.3C311.1,483.2,311.1,483.2,311.1,483.3C311,483.2,311,483.2,311.1,483.3
	C311,483.2,311,483.2,311.1,483.3C311.1,483.2,311.1,483.2,311.1,483.3C311.1,483.2,311.1,483.2,311.1,483.3z M311.1,296
	C311.1,296,311.1,296,311.1,296C311,295.9,311,295.9,311.1,296C311,295.9,311,295.9,311.1,296C311,295.9,311,295.9,311.1,296
	C311.1,295.9,311.1,295.9,311.1,296C311.1,296,311.1,296,311.1,296z M311.7,454.8c0,0-0.1-0.1-0.1-0.1c0,0,0.1-0.1,0.1-0.1
	C311.7,454.7,311.7,454.7,311.7,454.8z M311.6,441.5C311.6,441.5,311.6,441.5,311.6,441.5C311.7,441.5,311.7,441.5,311.6,441.5
	C311.6,441.5,311.6,441.5,311.6,441.5z M321.6,478.9C321.6,478.8,321.6,478.8,321.6,478.9C321.6,478.8,321.7,478.8,321.6,478.9
	C321.7,478.8,321.6,478.8,321.6,478.9z M328.5,384.4c0,0-0.1,0-0.1,0C328.4,384.3,328.5,384.3,328.5,384.4c0-0.1,0-0.1,0-0.1
	C328.6,384.3,328.6,384.3,328.5,384.4z M331,284.1C331,284.1,331,284.1,331,284.1C331,284.1,331,284.1,331,284.1
	C331,284.1,331,284.1,331,284.1z M331,284.1c0,0,0-0.1,0-0.1c0,0,0.1,0.1,0.1,0.1C331.1,284.1,331,284.1,331,284.1z M331.2,302.4
	c0.1,0,0.1,0,0.2,0c0,0.1,0,0.2,0,0.3C331.3,302.6,331.2,302.5,331.2,302.4z M331.6,497.1C331.5,497,331.5,497,331.6,497.1
	c0-0.1,0-0.1,0.1-0.1C331.6,497,331.6,497,331.6,497.1z M331.6,496.9C331.6,496.9,331.6,496.9,331.6,496.9
	C331.6,496.9,331.6,496.9,331.6,496.9C331.6,496.9,331.6,496.9,331.6,496.9z M331.6,276.7C331.6,276.7,331.6,276.7,331.6,276.7
	C331.6,276.7,331.6,276.7,331.6,276.7C331.6,276.7,331.6,276.7,331.6,276.7C331.6,276.7,331.6,276.7,331.6,276.7z M331.6,276.7
	C331.6,276.6,331.6,276.6,331.6,276.7C331.6,276.6,331.6,276.6,331.6,276.7C331.6,276.6,331.6,276.7,331.6,276.7z M335.3,485.1
	C335.3,485.1,335.3,485.1,335.3,485.1C335.3,485,335.3,485,335.3,485.1C335.3,485.1,335.3,485.1,335.3,485.1z M338,299.1
	C338,299.1,338,299.1,338,299.1c0.2,0,0.3,0,0.5,0C338.3,299.1,338.2,299.1,338,299.1z M341.6,304.7L341.6,304.7
	C341.6,304.6,341.6,304.6,341.6,304.7C341.6,304.6,341.6,304.6,341.6,304.7C341.6,304.6,341.6,304.7,341.6,304.7z M344.3,333.3
	c0.3,0,0.5-0.1,0.8-0.1C345,333.4,344.6,333.4,344.3,333.3z M345.3,274.2C345.3,274.2,345.3,274.2,345.3,274.2
	C345.4,274.2,345.4,274.2,345.3,274.2C345.4,274.2,345.3,274.2,345.3,274.2z M345.1,269.6c0.2,0.9,0.5,1.4,1.2,1.7
	C345.2,271.4,345,270.5,345.1,269.6z M354.7,308.4C354.7,308.4,354.7,308.4,354.7,308.4C354.7,308.4,354.7,308.4,354.7,308.4
	C354.7,308.4,354.7,308.4,354.7,308.4C354.7,308.4,354.7,308.4,354.7,308.4C354.7,308.4,354.7,308.4,354.7,308.4z M357.4,281.9
	c0,0,0.1-0.1,0.1-0.1c0,0,0,0.1,0.1,0.1C357.5,281.8,357.5,281.9,357.4,281.9z M384,272.3C384,272.3,384,272.3,384,272.3
	C384,272.3,384,272.3,384,272.3C384,272.3,384,272.3,384,272.3z M378.8,263.6c0.1,0,0.1,0,0.2,0c-0.1,0.1-0.3,0.2-0.4,0.3
	c0,0-0.1,0-0.1,0C378.6,263.8,378.7,263.7,378.8,263.6z M371.5,266.7C371.5,266.7,371.5,266.7,371.5,266.7
	C371.5,266.7,371.5,266.7,371.5,266.7C371.5,266.7,371.5,266.7,371.5,266.7C371.5,266.7,371.5,266.7,371.5,266.7z M369.6,272.8
	c0.1,0,0.1-0.1,0.2-0.1C369.8,272.8,369.7,272.9,369.6,272.8C369.6,272.9,369.6,272.9,369.6,272.8
	C369.6,272.9,369.6,272.9,369.6,272.8C369.6,272.9,369.6,272.9,369.6,272.8z M364.6,308.4C364.6,308.4,364.6,308.4,364.6,308.4
	C364.6,308.4,364.6,308.4,364.6,308.4C364.6,308.4,364.6,308.4,364.6,308.4z M367.2,425.4C367.1,425.4,367.1,425.4,367.2,425.4
	C367.1,425.4,367.1,425.4,367.2,425.4C367.2,425.4,367.2,425.4,367.2,425.4z M368.2,381.9c-0.1-0.1-0.2-0.3-0.3-0.4
	c0.2-0.1,0.4-0.1,0.6-0.2C368.4,381.5,368.3,381.8,368.2,381.9z M384.4,485.5C384.4,485.5,384.4,485.5,384.4,485.5
	C384.4,485.4,384.4,485.4,384.4,485.5C384.4,485.4,384.4,485.5,384.4,485.5z M387.7,493.2c-0.1-0.1-0.2-0.1-0.3-0.2c0,0-0.1,0-0.1,0
	c0-0.1,0.1-0.1,0.1-0.2C387.5,493,387.6,493.1,387.7,493.2C387.7,493.2,387.7,493.2,387.7,493.2z M387.2,465.2
	c0.2,0,0.3,0.1,0.4,0.1c-0.1,0.1-0.2,0.1-0.3,0.1C387.3,465.3,387.3,465.2,387.2,465.2z M398.3,298.4
	C398.3,298.4,398.3,298.4,398.3,298.4C398.3,298.4,398.2,298.4,398.3,298.4C398.2,298.4,398.3,298.4,398.3,298.4
	C398.3,298.4,398.3,298.4,398.3,298.4z M399.1,292.9c-1.3-1.8-2.7-2.4-4.6-0.9c0,0.1-0.1,0.1-0.1,0.2c-0.4-0.1-0.9-0.1-1-0.3
	c-1.7-2.7-2.8-1.8-4,0.5c-0.7,1.4-1.7,2.9-3.6,3c0.3-0.8,0.6-1.5,0.8-2.3c0.3-1.5-0.5-2.4-1.9-1.9c-2.4,0.9-5.2,1.5-6.4,4.2
	c-0.2,0.6-0.4,1.2-0.6,1.9c0,0,0,0,0,0h0c0,0,0,0,0,0c0,0,0,0,0,0c-0.6,0.2-1.2,0.4-1.9,0.6c0.1-0.6,0.1-1.3,0.4-1.8
	c0.5-0.9,1.4-1.7,0.3-2.7c-1.2-1.1-2,0-2.9,0.7c-0.7,0.6-1.5,1.7-2.3,1c-1.5-1.3-2.4,0.2-3.6,0.2c-1.3-1.4-3-0.1-4.6-0.9
	c-0.9-0.4-1.8-0.5-2.1-1.5c-0.3-1.1-0.4-2.6,0.9-3c1.5-0.4,2.4-3.1,3.9-1.9c1.9,1.5,2.3,0.3,2.9-0.9c1-2.3,1.9-4.6,2.8-7
	c1.5-4.1,3.8-4.7,7-1.8c0.5,0.5,0.7,1.4,1.6,0.6c1.2-1.2,2.5-0.4,3.8-0.4l0,0c0.1,0,0.1,0,0.2,0c0.4,2.8,1.9,3.7,5.2,2.8
	c4.4-1.2,4.5,0,5.2,3.1c-2.3-1.2-4.5-0.7-5.6,1.2c-0.4,0.7-0.5,2-0.1,1.9c2.6-0.3,4,2.5,6.4,2.5c3.2,0,6,0.9,8,3.4
	C401.6,295.3,400.2,294.5,399.1,292.9z M407,299.7C407,299.7,407,299.7,407,299.7C407,299.7,407,299.7,407,299.7
	C407,299.7,407,299.7,407,299.7C407,299.7,407,299.6,407,299.7C407,299.6,407,299.6,407,299.7C407,299.7,407,299.7,407,299.7z
	 M412.6,487C412.6,487,412.6,487,412.6,487C412.6,487,412.6,487,412.6,487C412.6,487,412.6,487,412.6,487
	C412.6,487,412.6,487,412.6,487z M434.4,441C434.4,441,434.4,441,434.4,441C434.4,440.9,434.4,440.9,434.4,441
	C434.4,440.9,434.4,440.9,434.4,441C434.4,440.9,434.4,440.9,434.4,441z M441.3,462.7C441.3,462.7,441.3,462.6,441.3,462.7
	C441.4,462.6,441.4,462.7,441.3,462.7C441.3,462.7,441.3,462.7,441.3,462.7z M452.5,332.1C452.5,332.1,452.5,332.1,452.5,332.1
	C452.5,332,452.5,332,452.5,332.1C452.6,332.1,452.6,332.1,452.5,332.1z M458.6,382.3c0.1-0.1,0.3-0.2,0.4-0.3
	C458.9,382.1,458.7,382.2,458.6,382.3z M466.2,465.8C466.2,465.8,466.2,465.8,466.2,465.8C466.2,465.8,466.2,465.8,466.2,465.8
	C466.2,465.8,466.2,465.8,466.2,465.8C466.2,465.8,466.2,465.8,466.2,465.8C466.2,465.8,466.2,465.8,466.2,465.8
	C466.2,465.8,466.2,465.8,466.2,465.8z M467.3,481.1c-0.1,0-0.1,0.1-0.2,0.1c0.1-0.3,0.3-0.6,0.5-0.8
	C467.5,480.6,467.4,480.8,467.3,481.1z M468.1,353.2C468.1,353.2,468.1,353.2,468.1,353.2C468.1,353.1,468.1,353.1,468.1,353.2
	C468.1,353.1,468.1,353.2,468.1,353.2z M468.7,351.3c-0.1-0.1-0.2-0.2-0.3-0.3c0.1-0.1,0.2-0.1,0.2-0.2
	C468.7,351,468.7,351.1,468.7,351.3C468.7,351.3,468.7,351.3,468.7,351.3z M470,355.1C470,355.1,470,355.1,470,355.1
	C470,355,470,355,470,355.1C470,355,470,355,470,355.1C470,355,470,355,470,355.1C470,355.1,470,355.1,470,355.1z M471.8,355.1
	C471.8,355,471.9,355,471.8,355.1C471.9,355,471.9,355,471.8,355.1C471.9,355.1,471.8,355.1,471.8,355.1z M473.7,376.2
	C473.7,376.2,473.7,376.2,473.7,376.2C473.7,376.2,473.7,376.2,473.7,376.2C473.7,376.2,473.7,376.2,473.7,376.2
	C473.7,376.2,473.7,376.2,473.7,376.2C473.7,376.2,473.7,376.2,473.7,376.2C473.7,376.2,473.7,376.2,473.7,376.2z M475.6,345.7
	L475.6,345.7C475.6,345.7,475.6,345.7,475.6,345.7C475.6,345.7,475.6,345.7,475.6,345.7C475.6,345.7,475.6,345.7,475.6,345.7z
	 M476.4,390.7C476.4,390.7,476.4,390.6,476.4,390.7C476.4,390.6,476.4,390.6,476.4,390.7C476.4,390.7,476.4,390.7,476.4,390.7z
	 M601.4,344.5c-0.1-0.1-0.2-0.2-0.3-0.2c0-0.1,0-0.2,0-0.2C601.2,344.1,601.3,344.3,601.4,344.5z M591.5,280.4
	C591.5,280.4,591.5,280.4,591.5,280.4C591.4,280.4,591.4,280.4,591.5,280.4C591.5,280.4,591.5,280.4,591.5,280.4z M565.9,330.2
	C565.9,330.2,565.9,330.2,565.9,330.2C565.9,330.2,565.9,330.2,565.9,330.2C565.9,330.2,565.9,330.2,565.9,330.2z M565.9,375.6
	C565.9,375.6,565.9,375.6,565.9,375.6C565.9,375.6,565.9,375.6,565.9,375.6C565.9,375.6,565.9,375.6,565.9,375.6z M556.7,285.2
	c0,0.1,0,0.1,0,0.2c0,0-0.1,0-0.1,0c0,0,0,0,0,0C556.6,285.3,556.6,285.2,556.7,285.2z M518.1,353.2c-0.2,0.1-0.3,0.3-0.5,0.4
	C517.7,353.4,517.8,353.3,518.1,353.2z M516.1,350.6C516.1,350.7,516.1,350.7,516.1,350.6C516.1,350.7,516.1,350.7,516.1,350.6
	C516.1,350.7,516.1,350.7,516.1,350.6z M514.9,337c-0.2-0.1-0.3-0.1-0.5-0.1C514.6,336.8,514.7,336.8,514.9,337z M503.6,292.2
	C503.6,292.2,503.6,292.2,503.6,292.2C503.6,292.2,503.6,292.2,503.6,292.2C503.6,292.2,503.6,292.2,503.6,292.2z M485.9,476.4
	c0.1,0,0.1-0.1,0.2-0.1c0,0,0.1,0.1,0.1,0.1C486.1,476.4,486,476.4,485.9,476.4z M486.1,437.2C486.1,437.2,486.1,437.2,486.1,437.2
	C486.1,437.2,486.1,437.2,486.1,437.2C486.1,437.2,486.1,437.2,486.1,437.2C486.1,437.2,486.1,437.2,486.1,437.2z M486.2,476.4
	C486.2,476.4,486.2,476.4,486.2,476.4C486.2,476.4,486.2,476.4,486.2,476.4C486.2,476.4,486.2,476.4,486.2,476.4z M489.3,414.8
	C489.3,414.8,489.3,414.8,489.3,414.8C489.3,414.8,489.3,414.8,489.3,414.8C489.3,414.8,489.3,414.8,489.3,414.8
	C489.3,414.8,489.3,414.8,489.3,414.8C489.3,414.8,489.3,414.8,489.3,414.8C489.3,414.8,489.3,414.8,489.3,414.8
	C489.4,414.8,489.4,414.8,489.3,414.8z M498.5,365.4c-1.1-1.1-2.1-2.5-3.9-1.8c-1.7,0.6-2.4-0.3-3.1-1.6c-1-2-2.4-3.8-4.6-4.9
	c-1.3-0.7-2.3-1.7-3.4-2.7c-2.2-2.2-2.6-5.5-4.6-7.8c1.7,0.4,3.2-0.2,4.8-0.9c3.2-1.5,5.4-1,7.3,1.5c0.9,1.2,2.2,1.5,3.6,1.2
	c4.6-0.8,8.5,0.4,11.7,3.9c1.1,1.2,1.1,1.8,0.6,3.1c-0.9,2-3.3,1.6-4.4,3.2c-0.1,0.2-0.1,0.4-0.2,0.6c-0.6,0.5-0.4,1.1,0.1,1.6
	c0,0,0,0,0,0c0.1,0.2,0.3,0.4,0.4,0.5c-0.7,1-0.6,2.2-0.9,3.2C501.2,367,500.3,367.2,498.5,365.4z M500.5,423.5c0,0,0-0.1,0-0.1
	C500.5,423.4,500.5,423.4,500.5,423.5C500.5,423.5,500.5,423.5,500.5,423.5z M506.7,406.7c-0.1,0-0.1,0-0.1-0.1
	C506.6,406.6,506.7,406.6,506.7,406.7C506.7,406.6,506.7,406.7,506.7,406.7C506.7,406.7,506.7,406.7,506.7,406.7z M519.8,431.6
	L519.8,431.6C519.8,431.6,519.8,431.6,519.8,431.6C519.8,431.6,519.8,431.6,519.8,431.6C519.8,431.6,519.8,431.6,519.8,431.6z
	 M521,416.6C521,416.6,521,416.6,521,416.6C521,416.6,521,416.6,521,416.6C521,416.6,521,416.6,521,416.6z M522.3,475.8
	C522.3,475.8,522.3,475.8,522.3,475.8C522.3,475.8,522.4,475.8,522.3,475.8C522.4,475.8,522.3,475.8,522.3,475.8z M524.1,463.3
	c0,0,0.1,0,0.1,0c0,0,0,0,0,0c0,0,0,0,0,0c0,0,0,0,0,0v0c0,0,0,0,0,0c0,0,0.1,0.1,0.1,0.1C524.2,463.4,524.1,463.3,524.1,463.3z
	 M531.6,488c0.2,0,0.4,0.1,0.6,0.3C531.9,488.2,531.7,488.1,531.6,488z M539,412.9C539,412.9,539.1,412.8,539,412.9
	C539.1,412.9,539.1,412.9,539,412.9C539.1,412.9,539.1,412.9,539,412.9z M541.6,480.3c0-0.1,0-0.1,0-0.2c0,0,0,0,0,0c0,0,0,0,0,0
	c0.1,0,0.1,0.1,0.2,0.1C541.7,480.2,541.7,480.3,541.6,480.3z M545.5,442.8c0.1-0.3,0.3-0.6,0.5-0.6c0,0,0,0.1,0,0.1
	C545.8,442.5,545.6,442.7,545.5,442.8z M549,422.1C549,422.1,549.1,422.1,549,422.1c0.1,0.1,0.1,0.1,0.1,0.2
	C549.1,422.2,549,422.1,549,422.1z M565.4,443.5C565.3,443.5,565.3,443.4,565.4,443.5L565.4,443.5
	C565.3,443.4,565.3,443.4,565.4,443.5C565.3,443.4,565.3,443.4,565.4,443.5C565.3,443.4,565.3,443.4,565.4,443.5
	C565.4,443.4,565.4,443.5,565.4,443.5z M580.3,462.1C580.2,462.1,580.2,462.1,580.3,462.1C580.2,462.1,580.2,462.1,580.3,462.1
	C580.3,462.1,580.3,462.1,580.3,462.1z M581,468.8c-0.1-0.1-0.3-0.2-0.4-0.3c0.2,0,0.3,0,0.5,0C581,468.6,581,468.7,581,468.8z
	 M597.7,411.7C597.7,411.7,597.7,411.7,597.7,411.7c0,0,0-0.1,0-0.1c0,0,0.1,0,0.1,0.1C597.8,411.6,597.7,411.6,597.7,411.7z
	 M601.6,408.9c-0.5,0.5-1.4,1.1-1.9,0.5c-2.7-3.2-6.3-1.8-9.5-2.1c0,0,0,0,0,0v0c-1.1-0.5-1.8-2.5-3.3-1.2c-1.2,1-2.2,0.6-3.4,0.6
	c-1.3,0-2.7,0-4,0.2c-0.6,0.1-1.1,0.7-1,1.4c0,0.6,0.5,0.8,1,0.9c4,1.2,5,2.6,4.4,6.9c0,0,0,0,0,0c0,0,0,0,0,0
	c-1,0.4-0.3,2.3-1.2,2.2c-4.1-0.5-2.6,2.2-2.5,4.1c-0.5-0.2-1-0.3-1.4-0.5c-2.9-1.7-2.9-1.7-3,1.5c0,0.3,0,0.6,0,0.9v0
	c-2.7-0.9-3.8,0.2-3.7,2.9c0,1.3,0,2.7,0,4c0,0,0,0,0,0c-1.9-0.5-3.2-1.8-4.4-3.2c-0.9-1.1-2.1-2.4-3.2-2.1
	c-3.3,0.9-6.2-0.4-9.3-0.9c-1.6-0.2-1.6-0.7-1.5-2.2c0.2-2.4,1.9-4.6,0.9-7.2c-0.2-2.3-2.9-2.1-3.7-3.7c-0.8-0.6-1.7-1.2-2.5-1.9
	c0.5-3.7-0.4-4.4-4-3.1c-0.4,0.1-0.7,0.4-1,0.6c0,0,0,0,0,0c-1.2,0.9-1.2,2.3-1.3,3.6c-0.1,0.7-0.5,1.1-1.2,1.2
	c-0.4,0.1-1.1-0.1-1-0.5c1-3.1-2.9-3.2-3.2-6c-1.4,3.6-5,3.4-7,5.3c-0.1-0.1-0.2-0.2-0.3-0.3c0-0.1-0.1-0.2-0.1-0.4
	c0.2-0.9,0.3-1.7,0.4-2.6c0.1-1.1-0.3-1.9-1.6-1.4c-3.2,1.2-6.4,1.6-9.6,1.3c-1.5-0.3-3.1-0.7-4.6-1.3c-0.5-0.3-1.1-0.5-1.7-0.7
	c0,0,0,0,0,0c-0.4-1.2-1.6-0.4-2.3-0.5c-1.5-0.1-1.8-0.7-1.5-1.8c0,0,0,0,0,0c0.3,1,1.3,1.9,1.9,1.6c2.7-1.3,6.8,1.1,8.5-3
	c0.5-1.1,1.7-1.2,2.7-1c1.1,0.2,2.3,0.2,3.4,0c0.8-0.2,2.1,0.2,2.2-1.1c0.1-1-0.7-1.8-1.6-2.1c-1.9-0.5-2.5-1.8-2.8-3.6
	c-0.3-1.7-1.4-2.2-2.5-0.6c-1.3,2-3.6,2.3-5.2,3.8c-0.7,0.7-1.6,0.5-2-0.5c-0.9-1.8-2.2-2.1-4.1-1.7c-2.1,0.4-2.4-0.7-1.5-2.3
	c0.6-1.1,1.3-2.1,1.9-3.2c0.4-0.7,0.9-1.5,0.3-2.3c-0.7-0.9-1.7-0.7-2.6-0.4c-0.9,0.3-1.7,0.8-2.6,1c-1.2,0.3-2.5,1.1-3.7-0.2
	c1.6-1.1,4.3-1.1,3.3-3.7c-0.5-1.2-0.3-1.7,0.4-2.6c1.2-1.4,1.8-3.5,0.4-4.8c-2.4-2.2-1.3-3.7,0.4-5.4c0-0.1,0-0.1,0.1-0.2
	c1.3,0.5,2.5-0.9,3.8-0.4c4.2,1.4,8.1-0.3,12.1-1.2c0.1-0.1,0.2-0.2,0.3-0.4c0,0,0,0.1,0,0.1c3.3,1.9,6.6,0.6,9.9,0
	c0.7,0,1.4,0.1,2.1,0.1c1,0.8,2.2,0.5,3.3,0.4c0.2,0.1,0.3,0.3,0.5,0.4c0.9,0.8,1.6,1.8,2.9,1.9c0.1,0,0.2,0,0.3-0.1
	c1,0.6,1.9,0.5,2-1.1c0.1-1.8,1.2-1.7,2.3-1.7c0.3,0.2,0.6,0.5,1,0.8c0.3,0.3,0.6,0.6,0.9,0.9c0.2,0.1,0.3,0.3,0.5,0.4
	c0.9,2,2.3,2.6,4.7,1.4c0.8-0.4,1.6-1.9,2.6-0.9c1.1,1.1,0.1,2.3-0.6,3.3c-0.3,0.4-0.7,0.8,0,1.6c1.4-0.3,2.7-2.1,4.3-1.8
	c0.2,0.1,0.3,0.2,0.5,0.4c0.2,0.2,0.3,0.5,0.5,0.7c0,0,0.1,0.1,0.1,0.1c-0.1,0.9-0.4,1.5-1.3,1.8c-1.1,0-2.1-0.1-3.2,0.3
	c-0.2,0.1-0.4,0.3-0.5,0.5c-0.4,0-0.8,0-1.2,0c-1.2,0.1-2.9,0.1-2.9,1.5c0,1.5,1.7,1.5,2.9,1.6c0.2,0,0.4,0,0.6,0c0,0,0,0.1,0,0.1
	c2.3,1.3,5.1,0.6,7.5,1.8c4.1,2,8.4,2.2,12.6,0.2c0.8-0.4,1.6-0.6,2.4-0.3c2.6,0.9,5.3,1.3,7.7,2.3c1.8,0.8,3.2,1.9,4,3.8
	c0.4,1,0.4,2.3,1.7,2.8c0.9,0.4,2,0.1,3.6,0.3c-1.6-0.1-2.7,0.2-3.7-0.3c-2.6-1.3-5.2-1-7.9-0.2c-2.1,0.7-4.3,0.5-6.5-0.2
	c-2.6-0.8-5.1-0.9-7.7-0.2c-1.8,0.5-3.5,0.5-5.1-0.3c-1-0.5-2.1-0.8-3.3-0.8c-1.7,0-3.1-0.7-4.5-1.7c-2.8-2-5.7-3.9-9.3-3.9
	c-2.7,0-5.4,0.1-8-0.9c-1.5-0.5-2.9,0-4,1.2c-1.2,1.3-0.9,3.5,0.8,3.8c2.8,0.4,5.3,2.6,8.4,1.4c0.8-0.3,1.9-0.3,2.2,1
	c0,0,0,0.1,0,0.1c-2.4,1.2-4.9,2.3-6.3,4.9c-1,1.9-1.9,2-2.9,0c-1.2-2.8-3.9-3.3-6.4-3.6c-1.3-0.2-2.7,0.7-3,2.2
	c-0.2,1.5,0.8,1.9,2.2,1.8c0.5,0,1.1,0.5,1.6,0.8c1.6,0.8,3.1,1.5,2.8-2c1,1.4,1.7,2.2,2.1,3.1c0.7,1.8,1.6,1.8,2.7,0.5
	c2.5-3,5.3-1.9,8.1-0.9c1.1,0.4,2,1,3.1,1.5c1.6,0.7,3,0.5,3.1-1.6c0.1-1.8,1.1-2.2,2.5-1.5c1.7,0.8,3.1,0.5,4.4-0.4
	c0.1,0,0.2,0.1,0.3,0.1c0.6,0.1,1.2,0.1,1.7,0.2c0.2,0,0.3,0,0.5,0.1c0,0.7,0,1.3,0.8,1.5c0,0.3,0.1,0.5,0.2,0.7
	c1.1,1.3,2.5,1.8,4.1,2c0.6,0,1.3,0,1.9-0.1c1.7,0.3,3.3,0,4.8-1.3c0,0,0,0,0,0c0,0,0,0,0,0c0.8-0.9,1.9-1.4,2.9-1.7
	c6.2-1.3,12.3-1.4,18.3,1c0.8,1.6,2.2,1.2,3.4,1.2c0.3,0.1,0.7,0.1,1,0.2c0.4,0.1,0.8,0.2,1.1,0.4c0.3,0.2,0.6,0.5,0.5,1.1
	c-0.2,1.2-1.3,0.9-2,0.6c-1.3-0.5-2.6-0.4-4-0.4c-0.8,0-2.1-0.1-2,0.8c0,1.2,1.5,1.8,2.3,1.4c3.2-1.4,4.4,1.3,6.3,2.7
	C601.9,407.7,602.3,408.2,601.6,408.9z M554.7,379.3C554.7,379.3,554.7,379.3,554.7,379.3C554.7,379.3,554.7,379.3,554.7,379.3
	C554.7,379.3,554.7,379.3,554.7,379.3C554.7,379.3,554.7,379.3,554.7,379.3C554.7,379.3,554.7,379.3,554.7,379.3z M554.1,381.2
	C554.1,381.2,554.1,381.2,554.1,381.2C554.1,381.2,554.1,381.2,554.1,381.2C554.1,381.2,554.1,381.2,554.1,381.2
	C554.1,381.2,554.1,381.2,554.1,381.2z M571.6,399.8C571.6,399.8,571.6,399.8,571.6,399.8C571.6,399.8,571.5,399.8,571.6,399.8
	C571.5,399.8,571.6,399.8,571.6,399.8z M612,432.8c0,0.1,0,0.1,0,0.2c-0.1,0-0.1,0-0.2,0C611.9,432.9,612,432.9,612,432.8z
	 M610.8,352C610.8,352,610.8,352,610.8,352C610.8,352,610.8,352,610.8,352C610.8,352,610.8,352,610.8,352z M612.1,331
	c0.1-0.5,0.1-0.9,0.2-1.2C612.4,330.2,612.3,330.6,612.1,331z M625,361.9C625,361.9,625,361.9,625,361.9c0.1,0,0.1,0,0.1,0
	C625.1,361.9,625,361.9,625,361.9z M655.7,244.7c0.1,0,0.1-0.1,0.2-0.1c0,0,0,0,0,0C655.9,244.6,655.8,244.7,655.7,244.7z
	 M656.8,378c0.3,0.1,0.7,0.2,1,0.4C657.4,378.2,657.1,378.1,656.8,378z M670.2,247.2c0.3,0,0.6,0.1,0.9,0.1
	C670.8,247.4,670.5,247.4,670.2,247.2z M673.6,381.7C673.5,381.7,673.5,381.7,673.6,381.7c0.9,0,1.8,0,2.8,0
	C675.5,381.9,674.5,382,673.6,381.7z M693.7,249.3C693.7,249.3,693.7,249.3,693.7,249.3C693.7,249.3,693.7,249.3,693.7,249.3
	C693.7,249.3,693.7,249.3,693.7,249.3z M698.9,396.8c0.1-0.2,0.2-0.3,0.4-0.4C699.2,396.5,699.1,396.6,698.9,396.8z M664.3,440.2
	c0.3-0.2,0.5-0.4,0.7-0.6C664.8,439.9,664.6,440.2,664.3,440.2z M674.3,446.5C674.3,446.5,674.3,446.5,674.3,446.5
	C674.3,446.4,674.4,446.4,674.3,446.5C674.4,446.4,674.4,446.4,674.3,446.5C674.4,446.5,674.4,446.5,674.3,446.5z M693.5,463.2
	c-0.4-0.7-0.9-1.3-1.5-1.9c0.8-0.1,1.7-0.1,2.4-0.3C694,461.7,693.7,462.5,693.5,463.2z M699.9,426.7
	C699.9,426.6,699.9,426.6,699.9,426.7C699.9,426.6,699.9,426.6,699.9,426.7C700,426.6,699.9,426.7,699.9,426.7z M706.1,436.6
	C706.1,436.5,706.2,436.5,706.1,436.6c0.1,0,0.2,0,0.2,0C706.3,436.6,706.2,436.6,706.1,436.6z M713.6,500.6
	C713.6,500.6,713.6,500.6,713.6,500.6C713.6,500.6,713.6,500.6,713.6,500.6C713.6,500.6,713.6,500.6,713.6,500.6z M721.1,427.2
	C721.1,427.2,721.1,427.2,721.1,427.2C721.1,427.2,721.1,427.2,721.1,427.2C721.1,427.2,721.1,427.2,721.1,427.2z M730.4,393.7
	C730.4,393.7,730.4,393.7,730.4,393.7C730.4,393.6,730.4,393.6,730.4,393.7C730.4,393.7,730.4,393.7,730.4,393.7z M740.6,254.8
	C740.7,254.7,740.7,254.7,740.6,254.8c0.3-0.1,0.6-0.1,0.8-0.1c0,0,0,0,0,0C741.2,254.7,740.9,254.7,740.6,254.8z M755.4,260.1
	C755.4,260.1,755.4,260.1,755.4,260.1C755.4,260,755.5,260,755.4,260.1C755.5,260,755.5,260.1,755.4,260.1z M756,481.4
	C756,481.4,756,481.4,756,481.4C756,481.4,756,481.4,756,481.4C756,481.4,756,481.4,756,481.4z M756,483.3
	C756,483.3,756,483.2,756,483.3C756,483.2,756,483.3,756,483.3C756,483.3,756,483.3,756,483.3z M762.8,384.3
	C762.8,384.3,762.8,384.3,762.8,384.3C762.8,384.3,762.8,384.3,762.8,384.3C762.8,384.3,762.8,384.3,762.8,384.3z M763.4,271.7
	C763.4,271.7,763.4,271.7,763.4,271.7C763.4,271.7,763.4,271.7,763.4,271.7C763.5,271.7,763.5,271.7,763.4,271.7
	C763.4,271.7,763.4,271.7,763.4,271.7z M775,274.2c0-0.1-0.1-0.3-0.1-0.4c0.2,0.1,0.3,0.2,0.4,0.4
	C775.2,274.2,775.1,274.2,775,274.2z M776.5,271.1C776.5,271.1,776.5,271.1,776.5,271.1C776.5,271.1,776.5,271.1,776.5,271.1
	C776.5,271.1,776.5,271.1,776.5,271.1z M781.1,323c0.2,0,0.3-0.1,0.5-0.1C781.4,322.9,781.2,323,781.1,323z M782.5,326.5
	C782.5,326.5,782.5,326.5,782.5,326.5C782.6,326.4,782.6,326.5,782.5,326.5C782.6,326.5,782.6,326.5,782.5,326.5z M783.8,439.6
	c0.2-0.2,0.5-0.4,0.8-0.5C784.3,439.3,784.1,439.5,783.8,439.6z M785.3,439C785.3,439,785.3,439,785.3,439
	C785.3,439,785.3,439,785.3,439C785.3,439,785.3,439,785.3,439z M786.5,276C786.5,276,786.5,276,786.5,276
	C786.5,276,786.5,276,786.5,276C786.5,276,786.5,276,786.5,276z M786.5,276C786.5,276,786.5,276,786.5,276
	C786.5,276,786.5,276,786.5,276C786.5,276,786.5,276,786.5,276z M789,260.4c0-0.2,0-0.3,0-0.5c-0.1-0.1-0.3-0.2-0.4-0.3
	c0.1,0.1,0.2,0.2,0.4,0.3c0,0,0,0,0,0.1c0.3,0.1,0.5,0.4,0.5,0.7C789.4,260.5,789.2,260.4,789,260.4z M790.8,276
	C790.8,276,790.8,276,790.8,276C790.8,276,790.8,276,790.8,276C790.8,276,790.8,276,790.8,276z M794.1,439.1
	C794,439.1,794,439.1,794.1,439.1c0-0.1,0.1-0.1,0.1-0.1C794.1,439,794.1,439,794.1,439.1z M800.2,253
	C800.2,253,800.2,253,800.2,253C800.2,253,800.2,253,800.2,253C800.2,253,800.2,253,800.2,253C800.2,253,800.2,253,800.2,253
	C800.2,253,800.2,253,800.2,253C800.2,253,800.2,253,800.2,253z M804.6,253L804.6,253C804.6,253,804.6,253,804.6,253
	C804.6,253,804.6,253,804.6,253C804.6,253,804.6,253,804.6,253C804.6,253,804.6,253,804.6,253C804.6,253,804.6,253,804.6,253z
	 M810.5,473.1c0.2-0.3,0.6-0.6,1.1-0.7C811.2,472.6,810.8,472.8,810.5,473.1z M817.1,383.7C817,383.7,817,383.7,817.1,383.7
	c-0.1,0-0.1,0-0.2,0c0-0.1,0.1-0.2,0.1-0.2C817,383.6,817,383.6,817.1,383.7C817.1,383.7,817.1,383.7,817.1,383.7
	C817.1,383.7,817.1,383.7,817.1,383.7z M817.7,386.2C817.7,386.2,817.7,386.2,817.7,386.2C817.7,386.2,817.7,386.2,817.7,386.2
	C817.7,386.1,817.7,386.1,817.7,386.2C817.7,386.1,817.7,386.1,817.7,386.2C817.7,386.1,817.7,386.2,817.7,386.2
	C817.7,386.2,817.7,386.2,817.7,386.2L817.7,386.2z M819.5,255.5L819.5,255.5C819.5,255.5,819.5,255.5,819.5,255.5
	C819.5,255.5,819.5,255.5,819.5,255.5c0,0,0-0.1,0-0.1C819.5,255.4,819.5,255.5,819.5,255.5C819.5,255.5,819.5,255.5,819.5,255.5
	C819.5,255.5,819.5,255.5,819.5,255.5z M824.4,388.7C824.4,388.7,824.4,388.7,824.4,388.7C824.4,388.7,824.4,388.7,824.4,388.7
	C824.4,388.7,824.4,388.7,824.4,388.7z M835.7,378.7C835.7,378.7,835.7,378.7,835.7,378.7C835.7,378.7,835.7,378.7,835.7,378.7
	C835.7,378.7,835.7,378.7,835.7,378.7z M840.6,382.3C840.7,382.3,840.7,382.3,840.6,382.3c0.1,0,0.1,0,0.1,0c0,0,0.1,0,0.1,0.1
	c0,0.1,0.1,0.1,0.1,0.2C840.8,382.5,840.7,382.4,840.6,382.3z M936.2,266.8c0,0,0.1,0.1,0.1,0.1c-0.1,0-0.2-0.1-0.4-0.1
	C936,266.8,936.1,266.8,936.2,266.8z M876.8,308.1c-0.4,0.1-0.8,0.2-1.2,0.3C876,308.2,876.4,308.1,876.8,308.1z M858.1,298.2
	c0.3-0.3,0.6-0.6,0.9-0.9C859.2,297.8,858.5,298,858.1,298.2z M858.1,288.6c0.2,0.1,0.3,0.2,0.5,0.4c-0.2,0-0.4-0.1-0.6-0.1
	C858,288.8,858.1,288.7,858.1,288.6z M857.8,502.7c0-0.3,0.1-0.5,0.2-0.7C858,502.2,857.9,502.5,857.8,502.7z M873.8,496.3
	C873.7,496.3,873.7,496.3,873.8,496.3C873.7,496.3,873.7,496.3,873.8,496.3C873.8,496.3,873.8,496.3,873.8,496.3z M874.4,412.3
	C874.4,412.3,874.4,412.3,874.4,412.3C874.4,412.3,874.4,412.3,874.4,412.3C874.5,412.3,874.5,412.3,874.4,412.3z M883.2,458.1
	c0.2,0,0.3,0,0.4,0.2C883.5,458.2,883.3,458.2,883.2,458.1z M904,467.2c0-0.1-0.1-0.2-0.1-0.3c0.1,0,0.1,0,0.2,0
	C904.1,467.1,904.1,467.2,904,467.2z M914.9,424.7C914.9,424.7,914.9,424.7,914.9,424.7C914.9,424.7,914.9,424.7,914.9,424.7
	C914.9,424.7,914.9,424.7,914.9,424.7z M933,398.6C933,398.6,933,398.6,933,398.6C933,398.6,933,398.6,933,398.6
	C933,398.6,933,398.6,933,398.6z M941.2,382c-3,2.5-2.8,5.8-2.6,9.2c0,0-0.1,0-0.1,0c0,0,0,0,0,0v0l0,0c0,0,0,0,0,0
	c-1.8,0.1-0.4-1.6-1.1-2.1c-2.2,0.7-3.9,1.9-4.8,4.1c-1.1,2.4-5.4,3.6-7.3,1.6c-1.3-1.4-2.9-2-4.6-2.3c-2.3-0.4-1.9-1.3-0.9-2.6h0
	l0,0c0,0,0,0,0,0c2.9-2.2,0.2-4.6,0.1-6.9c-0.1-1.4-1.6-2.3-3.4-1.5c-0.7,0.3-1.2-0.2-1.5-0.7c-0.7-1.1-1.5-0.8-2.4-0.4
	c-1.2,0.7-2.5,0.9-3.9,0.5c-1.7-0.6-2.3,0.6-2.9,1.9c-0.8,1.8,0.6,2.1,1.6,2.7c1.3,0.7,2.6,0.5,3.9,0.6c0.8,0.1,1.9-0.8,2.3,0.1
	c0.4,1,0.1,2.2-0.6,3.2c-0.4,0.6-1,1.1-1.6,1.5c-1.3,0.7-3.1,2.1-2.5-1.2c0.2-1.1-0.6-1.5-1.5-1.6c-2,0-4.1-0.6-5.7,1.4
	c-0.9,1.1-2.1,1.5-3.5,1.7c-2.4,0.2-4.6,1-6.1,3.1c-0.9,1.2-2.3,1.7-3.4,2.5c-0.6,0.2-1,0.7-1.2,1.2c-0.2,0-0.4,0-0.6,0
	c-0.4,0.2-0.8,0.4-1.3,0.6l0,0c-0.5,0-1.2,0.2-1.5,0c-1.9-1.2-4.3,0.9-5.8-0.8c-1.1-1.3-2-1.1-3.2-0.7c-2.8,1-5.6-0.6-6.5-3.4
	c-0.4-1.2,0.1-3.6-2.4-3.2c-2.2,0.4-4.3-1.1-6.6-0.1c-0.8,0.3-2.2-0.2-2.4-1c-0.6-3.6-3-3.9-6-3.2c1.3-2.6,2.6-5,5.7-4.9
	c1.8,0.1,3.7,0.4,5.4,1c2.5,0.9,3.3-1.5,5.1-2.1c1.3-0.5-0.4-1.4-0.5-2.2c-0.1-1.3,3.9-6.7,5.2-6.7c0.2,0,0.4,0,0.6,0.1
	c1,0.7,2,1.4,3,0.2c1.1-1.3-0.4-2.2-0.7-3.4c-0.3-1-1.5-2,0.5-2.7c3.2-1.1,6.4-2,9.2-3.8c1.8-1.1,2.8,0.1,3.2,1.6
	c0.4,2,0.8,4.1,0.7,6.1c-0.2,4.1,2.4,6.7,4.5,9.5c1.2,1.6,2.7,1.4,3.3-0.8c0.5-1.6,1-3.2,1.6-4.7c1-2.6,2.8-3,4.4-0.7
	c1.1,1.5,2.9,2.2,3.8,4.1c0.7,1.5,3.1,0.5,4.8-0.3c3.3-1.5,6.5-3.3,10.1-0.7c0.6,0.5,1.4,0.1,1.6-0.4c0.9-2.7,2.7-2.4,5.2-2.6
	c4.9-0.5,8.9,0.9,12.8,3.3c0,0.1,0,0.1,0,0.2c0,0.4,0.2,0.9,0.5,1.1C944.4,378.9,943.1,380.4,941.2,382z M949.7,407.9
	C949.7,407.9,949.8,407.9,949.7,407.9C949.8,407.9,949.8,407.9,949.7,407.9C949.8,407.9,949.7,407.9,949.7,407.9
	C949.7,407.9,949.7,407.9,949.7,407.9z M949.9,477C949.8,477,949.8,477,949.9,477C949.8,477,949.9,477,949.9,477
	C949.9,477,949.9,477,949.9,477z M953.7,407c0,0-0.1-0.1-0.1-0.2c0,0,0,0,0,0C953.6,406.8,953.7,406.9,953.7,407
	C953.7,407,953.7,407,953.7,407z M962.3,408.6c0.5,0.1,0.9,0.3,1.2,0.6C963.1,409,962.7,408.8,962.3,408.6z M966,505.8
	c-0.1,0-0.1-0.1-0.2-0.1c0.1,0,0.2-0.1,0.2-0.1C966,505.7,966,505.7,966,505.8z M980.4,399.3C980.4,399.3,980.3,399.2,980.4,399.3
	C980.3,399.2,980.3,399.2,980.4,399.3C980.3,399.2,980.3,399.2,980.4,399.3C980.3,399.2,980.3,399.2,980.4,399.3
	C980.3,399.2,980.4,399.2,980.4,399.3C980.4,399.2,980.4,399.3,980.4,399.3z M1009,524.9C1009,524.9,1009,524.9,1009,524.9
	c0.3,0,0.7,0,1,0C1009.7,524.9,1009.3,524.9,1009,524.9z M1035.3,505.7c-0.1-0.4-0.2-0.8-0.2-1.2c1,0.3,1.4,1,1.8,1.7
	C1036.5,506,1036,505.9,1035.3,505.7z M1037,523.7C1037,523.7,1037,523.7,1037,523.7c0.1-0.1,0.2-0.1,0.3-0.2
	C1037.2,523.6,1037.1,523.7,1037,523.7z M1038.2,506.8C1038.3,506.8,1038.3,506.8,1038.2,506.8
	C1038.3,506.8,1038.3,506.8,1038.2,506.8C1038.3,506.8,1038.3,506.8,1038.2,506.8z M1054.3,458.5c0-0.1,0-0.1,0-0.2
	c0.1,0,0.1,0,0.2,0C1054.4,458.4,1054.4,458.4,1054.3,458.5z M1056.4,457.7C1056.4,457.7,1056.4,457.7,1056.4,457.7
	C1056.4,457.7,1056.4,457.7,1056.4,457.7C1056.4,457.7,1056.4,457.7,1056.4,457.7C1056.4,457.7,1056.4,457.7,1056.4,457.7
	C1056.4,457.7,1056.4,457.7,1056.4,457.7z M1166.8,465.5c0-0.1-0.1-0.1-0.1-0.2c0-0.1-0.1-0.1-0.1-0.2c0.2-0.1,0.4-0.1,0.5-0.2
	C1167,465.2,1166.9,465.4,1166.8,465.5z"/>
</svg>
