<?xml version="1.0" encoding="utf-8"?>
<!-- Generator: Adobe Illustrator 27.8.1, SVG Export Plug-In . SVG Version: 6.00 Build 0)  -->
<svg version="1.1" id="레이어_1" xmlns="http://www.w3.org/2000/svg" xmlns:xlink="http://www.w3.org/1999/xlink" x="0px"
	 y="0px" viewBox="0 0 8 7.6" style="enable-background:new 0 0 8 7.6;" xml:space="preserve">
<style type="text/css">
	.st0{fill:#F2EC9B;}
</style>
<path class="st0" d="M6.5,3.9c0,0,0-0.1,0-0.1C6,3.7,5.5,3.5,5,3.4c0.3-0.5,0.5-0.9,0.8-1.3c0,0-0.1-0.1-0.1-0.1
	C5.3,2.2,4.9,2.5,4.4,2.8C4.3,1.8,4.2,0.9,4,0c0,0-0.1,0-0.1,0C3.8,0.9,3.6,1.8,3.5,2.8C3.1,2.5,2.7,2.3,2.3,2.1c0,0,0,0.1-0.1,0.1
	C2.5,2.6,2.7,3,3,3.4C2.5,3.6,2,3.7,1.5,3.8c0,0,0,0.1,0,0.1C2,4.1,2.5,4.2,2.9,4.3C2.7,4.8,2.5,5.1,2.2,5.5c0,0,0.1,0.1,0.1,0.1
	c0.4-0.2,0.8-0.5,1.2-0.7C3.7,5.8,3.8,6.7,4,7.6c0,0,0.1,0,0.1,0c0.1-0.9,0.2-1.8,0.4-2.7c0.5,0.3,0.9,0.5,1.2,0.7
	c0,0,0.1-0.1,0.1-0.1C5.6,5.1,5.3,4.7,5,4.3C5.6,4.1,6,4,6.5,3.9z"/>
</svg>
