<?xml version="1.0" encoding="utf-8"?>
<!-- Generator: Adobe Illustrator 27.8.1, SVG Export Plug-In . SVG Version: 6.00 Build 0)  -->
<svg version="1.1" id="레이어_1" xmlns="http://www.w3.org/2000/svg" xmlns:xlink="http://www.w3.org/1999/xlink" x="0px"
	 y="0px" viewBox="0 0 595.3 841.9" style="enable-background:new 0 0 595.3 841.9;" xml:space="preserve">
<style type="text/css">
	.st0{fill:url(#SVGID_1_);}
</style>
<radialGradient id="SVGID_1_" cx="307.812" cy="569.2476" r="321.6547" gradientUnits="userSpaceOnUse">
	<stop  offset="0" style="stop-color:#4F7302"/>
	<stop  offset="3.303266e-02" style="stop-color:#496B02"/>
	<stop  offset="0.1556" style="stop-color:#375202"/>
	<stop  offset="0.2926" style="stop-color:#293E01"/>
	<stop  offset="0.4502" style="stop-color:#1F3001"/>
	<stop  offset="0.6463" style="stop-color:#192801"/>
	<stop  offset="1" style="stop-color:#172601"/>
</radialGradient>
<path class="st0" d="M663.3,732.6c-0.9,1.9-1.9,3.7-2.8,5.6c-0.8-0.5-1.5-0.9-2.3-1.4c2-7.9,4-15.9,6.1-24.5
	c-3.1,3.3-5.8,6.1-9.7,10.2c-0.3-4.3-0.8-6.9-0.6-9.4c1-12.4,4.1-25,2.8-37.1c-1.1-10.2,2.2-19.4,8.2-23.3c8.6-5.7,6.7-12,6.8-19
	c0-4.4-0.6-8.9-0.6-13.3c0-46.5,0-93,0-139.4c-1,0-2,0-3,0c-6.6,50.8-5.2,101.8-3.3,152.7c0.4,10.5-3.8,16.3-11.6,24.1
	c-0.4-8.3-0.8-14.7-1.1-20.9c-1.2,0.5-2.6,1-3.7,1.5c-2.8-58.5-5.6-116.3-8.5-174.2c-1.1,0-2.2,0.1-3.3,0.1
	c0,13.7-0.3,27.4,0.1,41.1c1.2,45.9,2.6,91.8,4.1,137.7c0.3,8.9-2.9,15.8-9,22c0-19,1-37.2-0.3-55.2c-1.3-17.9-5-35.6-7.7-53.5
	c-0.9,24.2,0.4,48,0.3,71.8c0,6.3-3.9,12.6-6.1,18.9c-1.7-0.3-3.4-0.6-5.1-1c0-20.6,0-41.1,0-60.9c-1.4-1.3-3.3-2.2-3.3-3.1
	c0-3.8,0.8-7.5,1-11.2c2.5-38.6,6.6-77.1,7-115.7c0.2-24.3-5.2-48.7-8.2-73c-1.3,0.1-2.6,0.1-3.9,0.2
	c10.9,53.2,9.5,105.4-12.5,158.3c1.5-23.2,2.9-44.2,4.2-65.1c-1-0.1-2.1-0.3-3.1-0.4c-4.4,31.8-8.9,63.7-13.3,95.5
	c-3.9-7.3-8-15.2-7.4-22.7c0.6-9.2-7.3-11.6-9.5-18.1c9.7,29-1.8,57.5-0.9,86c-18.6-105.3-4-208.2,23.6-310.2
	c-1.1,0.8-1.8,1.6-2.2,2.6c-25.5,73.7-46.9,148.3-46.3,227.3c0.1,11-4.1,19.3-11.7,28.6c-7.4-71.9,1.8-141.7,3.2-211.7
	c-10.2,67.6-19.1,135.4-18,204.2c-16-55.6-28.7-111.5-50.3-164.9c-0.7,1.5-0.8,2.8-0.5,4c8.3,38.8,16.6,77.6,24.7,116.5
	c1.2,5.6,0.7,11.5,1,17.3c0.6,0,1.7-0.1,1.8,0.1c9.7,29.4,18.9,58.9-5.6,86.7c-5.7-15.1,5.6-28,5.2-43.7c-3.5,9.3-6.6,17.4-9.7,25.5
	c-1,0-2-0.1-3-0.1c-0.3-6-1.8-12.3-0.7-18c3.3-16.4,7.6-32.6,11.5-48.8c-2.3,5.3-4.8,10.5-6.8,15.9c-7.3,19.1-14.4,38.2-21.9,58.1
	c-11.6-12.4-10.4-26.1-9.9-39.7c-1.1,3.6-2.3,7.1-4,12.7c-5.3-11.1-9.6-20.1-13.9-29.2c0.9,9,2.9,17.6,4.9,26.2
	c2,8.3,6.8,16.8-2.3,24.9c-1.3-5.5-2.4-10.4-3.5-15.2c-0.3,0-0.6,0-1,0c0,9.4,0,18.8,0,28.2c-0.8-0.5-1.7-1-2.5-1.5
	c-2.9,3.7-5.8,7.3-9,11.4c-2.3-8-4.2-15-6.4-22c-2.2-7-4.7-13.8-7.1-20.7c4.2,23.4,8.2,46.4-5,70.1c-2.1-8.8-3.8-16.2-5.5-23.7
	c-0.6,0.1-1.1,0.1-1.7,0.2c0.5,3.9,1,7.7,1.5,11.6c0,0,0,0,0,0c0,0,0,0,0,0.1c2.1,18.5,5.3,37.1-0.5,57.8c-4-20.7-5.1-39.2,0.5-57.8
	c0,0,0,0,0,0c-1.6,2.2-3.1,4.4-5.2,7.3c-2.4-12.2-4.7-23.4-7-34.7c-0.7,35-2.9,69.8-5.4,104.6c-0.2,2.1-3,4-4.5,6
	c-0.2,0.3-0.2,0.6-0.4,0.9c-0.1,0.1-0.4-0.1-0.4-0.1c-0.6-2.8-1.3-5.4-1.7-8.1c-1.2-10.4-4-21-3.1-31.3c1.6-17.9,5.9-35.6,8.2-53.5
	c4.2-31.9-0.2-64.3,3.2-96.9c-15.8,46.2-31.7,92.5-47.5,138.7c-0.9-0.2-1.8-0.4-2.7-0.7c0-20.8,0.8-41.7-0.2-62.5
	c-1.4-27.3-4.3-54.6-6.5-81.9c-4-49.9-10.5-99.5-24.8-147.6c-5.7-19-14.4-37-21.8-55.5c2.4,15.2,7.7,29.2,11.6,43.6
	c12,43.9,14.4,89.1,18.5,134.1c3.5,37.9,7.6,75.7-1.8,113.4c-1.1,4.5-1.6,9.2-2.4,13.8c-1.5-20.9-1.2-41.5-1.5-62
	c-0.6-32.3-3.4-47.5-8.9-57.4c0,20.2,0,42.6,0,65.1c-0.8,0-1.5,0-2.3,0.1c-4.4-13.3-8.7-26.5-13.1-39.8
	c13.6,74.2,15.7,112.1,5.1,126.3c-1.1-19.9-1.5-39.7-3.6-59.4c-2.1-19.8-5.7-39.5-8.7-59.3c-0.7,0.1-1.4,0.3-2.1,0.4
	c1.9,29.2,3.7,58.4,5.6,87.6c-1.8,0.1-3.7,0.3-5.5,0.4c-4.1-50.5-8.3-100.9-12.4-151.4c-0.8,0-1.5,0.1-2.3,0.1
	c1.6,57.3,3.2,114.6,4.7,171.9c-2.6-11.2-3.3-22.4-4.7-33.6c-1.4-10.8-2.8-21.8-5.3-32.3c-2.5-10.5-6.6-20.6-10-30.8
	c0.5,10.6,2.9,20.5,4.4,30.6c0.5,3.3-0.7,7.2-2.2,10.3c-7.3,15.8-15,31.4-22.6,47c-1,2-2,4-3,6c-0.9-0.4-1.9-0.7-2.8-1.1
	c6.7-20.2,13.4-40.4,20.2-60.5c-0.7-0.4-1.4-0.7-2.1-1.1c-8.2,16.7-16.3,33.4-24.5,50.1c-2.4-28.6,7.6-55.2,10.1-82.8
	c-1.7,4.9-3.4,9.9-5.3,15.3c-1.1-1.8-1.8-2.8-2.9-4.5c-2,6.1-3.6,11-6.1,18.5c0-21.5,0-40.2,0-58.9c-6.1,23.9-9.9,31.6-21.3,39.5
	c0.7-11.7,1.4-22.9,2.1-35.8c-10.8,22.3-2.3,49-23.2,69.1c2.5-23.3,4.8-43.9,7-64.6c-3.4,9.9-5.4,19.9-7.2,30
	c-1.7,9.7-3.1,19.5-4.7,29.2c-4.8-42.5,8.5-81.5,20.5-120.9c-5,12.2-9.9,24.3-14.9,36.5c-1-0.3-2-0.6-2.9-0.8
	c7.3-36.9,14.7-73.9,22.5-113.1c-4.3,7.7-8,13.4-10.9,19.4c-16.1,33.4-23.5,69.1-29,105.5c-2.1,14-6.9,27.6-10.5,41.4
	c-1-0.1-2-0.3-3-0.4c-0.7-11.9-1.4-23.7-2-35.6c-0.2,0-0.5,0-0.7,0c0,7.9,0,15.8,0,23.6c0,7.5,0,15,0,22.5c-1.2-0.1-2.4-0.1-3.6-0.2
	c-2.7-90.9,3.1-181.5,14.8-271.8c-1.1,2.9-2.2,5.8-2.7,8.8c-12,64.7-22.2,129.7-23.5,195.6c-0.5,26.8-9.6,51-14.7,76.3
	c-0.8,4-2.5,7.9-3.8,11.8c-0.8,0-1.6-0.1-2.4-0.1c-8.4-55.6-16.8-111.2-25.2-166.8c-1,0.1-2,0.3-3,0.4c3.2,45.2,6.5,90.5,9.7,135.7
	c-0.3,0.1-0.5,0.1-0.8,0.2c-3.7-17.3-7.5-34.5-11.2-51.8c-1.1,0.2-2.3,0.3-3.4,0.5c5.7,57.1,11.4,114.1,17.2,171.2
	c-1.1,0.1-2.2,0.3-3.3,0.4c-0.9-7.1-1.9-14.2-2.7-20.8c-1,1.8-2.1,3.9-3.2,5.9c-0.8-0.2-1.7-0.4-2.5-0.6c0-14.2,0-28.4,0-44.8
	c-2,5.5-3.1,8.9-4.3,12.2c-3.1-7-4.8-14.1-5.1-21.3c-0.6-14.4-0.1-28.8-0.8-43.2c-1.6-30.6-3.6-61.2-5.5-91.8
	c-0.9,0-1.8,0.1-2.7,0.1c0,40,0,80,0,120c-0.7,0-1.5,0.1-2.2,0.1c-2.8-27.2-5.7-54.3-8.5-81.5c-0.5,0-1,0-1.5,0.1
	c0,16.5,0,33.1,0,49.6c-17.4-71-32.4-142.3-55.9-211.5c-0.7,1.2-0.7,2.2-0.5,3.2C-20,419-6.1,483.3,5.3,548
	c2.9,16.5-2,34.5-3.4,51.7c-1.2,0-2.4,0.1-3.7,0.1c-3-7.2-6-14.3-9.6-22.7c-0.8,6.3-1.3,10.8-1.9,15.4c-1.4,0.1-2.8,0.2-4.2,0.3
	c-9.4-54-18.8-107.9-27.7-159.4c-5,67.7,9,137,9.7,207.3c-6.2-9.7-12.4-19.4-18.6-29.1c-0.8,0.4-1.6,0.7-2.4,1.1
	c0.8,6.7,0.2,13.9,2.6,19.9c5.5,13.5,12.6,26.3,18.7,39.5c1,2.1,1.2,5.6,0.1,7.6c-4.2,8.1-9,15.9-15.3,26.7c-1.5-4-2.5-6.5-3.5-9.1
	c-0.8,0.5-1.5,1-2.3,1.5c0,47.7,0,95.4,0,143.1c10.3,0,20.5,0,30.8,0c-1.8-19.9-4-39.8-3-59.7c1-0.1,2-0.1,2.9-0.2
	c2.1,20,4.1,39.9,6.2,59.9c2.7,0,5.5,0,8.2,0c2-4.6,4.5-9.1,5.8-13.9c3.9-14.3,7.4-28.8,12.1-43.6c-1.2,19.2-2.4,38.3-3.5,57.5
	c33.5,0,67,0,100.5,0c2.1-9.7,4.1-19.5,6.2-29.2c1.2,0.2,2.4,0.5,3.6,0.7c-1.9,9.5-3.8,19-5.6,28.5c11.6,0,23.2,0,34.9,0
	c-0.6-2.7-0.7-5.6-1.9-8c-9.8-19.4-0.4-37.5,2.3-56.1c1.2,0,2.5,0,3.7,0c0,21.3,0,42.7,0,64c6.8,0,13.7,0,20.5,0
	c-0.1-5-0.5-9.9-0.2-14.9c0.4-6.9,1.3-13.9,2-20.8c1.5,0.1,3.1,0.2,4.6,0.3c-0.8,11.8-1.5,23.6-2.3,35.4c38.3,0,76.5,0,114.8,0
	c1.7-9.7,3.3-19.5,5-29.2c1.1,0.2,2.3,0.3,3.4,0.5c-0.7,9.6-1.5,19.2-2.2,28.8c6.8,0,13.7,0,20.5,0c2-11,3.9-22,5.9-33
	c1.5,0.3,3,0.6,4.6,0.9c-2.1,10.7-4.2,21.4-6.4,32c4.8,0,9.6,0,14.4,0c3.7-12,7.5-24.1,11.2-36.1c1.5,0.5,2.9,1,4.4,1.5
	c-4.5,11.5-9,23.1-13.5,34.6c1.4,0,2.7,0,4.1,0c3.4-8.7,6.8-17.5,11.1-28.6c7.5,12.4,1.7,20.4-0.9,28.6c6.8,0,13.7,0,20.5,0
	c0-5.4,0-10.8,0-16.1c-0.3,0.2-1.4,1-2.5,1.8c-7.5-14.8-7.3-18.4,2.6-27c2.2,9,4.4,17.6,6.5,26.2c0.6-0.1,1.2-0.2,1.8-0.3
	c-1.3-8.2-2.7-16.5-4-24.7c0.9-0.2,1.8-0.3,2.7-0.5c2.4,13.5,4.9,27.1,7.3,40.6c39.6,0,79.3,0,118.9,0c-0.2-6.2-1.3-12.5-0.3-18.5
	c1.3-8.2,4.3-16.2,8.7-24.2c2.7,14.3,5.4,28.5,8,42.8c5.5,0,10.9,0,16.4,0c0.8-7.9,1.7-15.8,2.5-23.7c1,0,1.9,0.1,2.9,0.1
	c0.9,7.9,1.9,15.7,2.8,23.6c14.4,0,28.7,0,43.1,0c0.1-9.7,0.2-19.3,0.3-29c2,0.1,4,0.2,5.9,0.3c-0.7,9.6-1.4,19.1-2.2,28.7
	c20.5,0,41,0,61.5,0c4.3-36,8.6-72.1,12.9-108.1C663.9,733.4,663.6,733,663.3,732.6z M-40.6,763.7c-2.2-5.9-3.8-10.4-6-16.2
	c-2.3,13.5,6.6,26-1.2,37.8c-4.2-18.4-8.4-36.7,1.7-54.9C-38.5,740-35.9,750.2-40.6,763.7z M-31,785.2c-1.1,0-2.2,0-3.3,0
	c0-8.3,0-16.5,0-24.8c1.1,0,2.2-0.1,3.3-0.1C-31,768.7-31,776.9-31,785.2z M-30.7,685.6c1.4,21.4,2.7,40.6,4,61.5
	C-44.1,724.1-45.1,709.8-30.7,685.6z M-5.3,636.3c-2.2-13.1-4.5-26.2-6.7-39.3c1.6-0.3,3.2-0.6,4.7-0.8c2.4,13.1,4.9,26.1,7.3,39.2
	C-1.8,635.6-3.6,635.9-5.3,636.3z M13.4,592.5c0.9,16.2,1.8,32.5,2.6,48.7C6.5,625.4,10.8,608.9,13.4,592.5z M11.9,694.3
	c-0.8-10.6-1.6-21.1-2.3-31.7c1.4-0.1,2.8-0.3,4.2-0.4c0.8,10.6,1.7,21.1,2.5,31.7C14.8,694,13.3,694.2,11.9,694.3z M41,815.6
	c-1.5-0.2-2.9-0.3-4.4-0.5c1.8-9.9,3.7-19.7,5.5-29.6c1,0.2,2.1,0.3,3.1,0.5C50.5,796.7,43.5,805.9,41,815.6z M101.4,652.3
	c-4.1-32.9-8.2-65.8-0.5-98.8C99.6,586.4,109.2,619.3,101.4,652.3z M176.5,615.5c-1-0.3-2-0.6-3.1-0.9c0.5-18.6,5-36.1,14.1-52.4
	c1.3,0.4,2.5,0.8,3.8,1.2C186.4,580.8,181.5,598.2,176.5,615.5z M194.1,668.4c-0.8-0.1-1.5-0.2-2.3-0.3c1.4-9.5,2.8-19.1,4.1-28.6
	c1.3,0.2,2.7,0.4,4,0.5C198.1,649.4,196.1,658.9,194.1,668.4z M215.9,727.9c-2.4,15-5.1,29.9-9.7,44.5c-4.6-31.1,3.5-60.6,10.1-90.4
	c5.5,15.3-3.3,28.7-4.6,43.3C213,726,216,727.2,215.9,727.9z M230.4,681.7c-0.9,0-1.9-0.1-2.8-0.1c0-3.1,0.1-6.2,0-9.2
	c-0.1-3.7-0.5-7.5-0.7-11.2c-0.9,0-1.9,0-2.8,0c-0.6,2.7-1.3,5.3-1.9,8c-1.1-0.3-2.1-0.5-3.2-0.8c2.2-23.5,10.6-45.4,19.4-67.4
	C245.3,629,236.5,655.2,230.4,681.7z M305.6,602.2c1.6,0.1,3.3,0.1,4.9,0.2c0,26.9-0.8,53.7,0.4,80.5c0.5,10.9-3.3,18.5-12.8,25.6
	C300.6,673.1,303.1,637.6,305.6,602.2z M305.2,739.1c-1.1-0.2-2.1-0.5-3.2-0.7c1.9-8.8,3.9-17.5,5.8-26.3c1.1,0.4,2.2,0.8,3.3,1.1
	C309.2,721.9,307.2,730.5,305.2,739.1z M368.3,589.7c-2.2,24.3-4.4,48.6-6.7,73c-0.9-0.1-1.8-0.2-2.8-0.3
	C349.4,636.9,364.9,613.9,368.3,589.7z M336.5,740.7c-1.1-0.3-2.1-0.6-3.2-0.8c2.3-13,4.1-26.1,7-38.9c3.6-15.6,8.2-31,12.3-46.5
	c0.9,0,1.8,0.1,2.7,0.1c1.4,15.7,2.7,31.4,4.1,47.1c-1,0.3-2,0.5-2.9,0.8c-1.7-4.4-3.4-8.7-5.1-13.1
	C356.1,709.8,350.1,726.5,336.5,740.7z M351.4,765.6c1.3-8.2,2.6-16.3,3.9-24.5c1.2,0.1,2.3,0.3,3.5,0.4c5.4,9.3-0.6,16.7-4.2,24.6
	C353.6,765.9,352.5,765.7,351.4,765.6z M361.8,784.8c-6.6-8.3-0.6-15.3,0.8-24.1C368.8,769.5,369.4,776.7,361.8,784.8z M428,663.9
	c-1.1,0-2.1,0-3.2,0c0-10.2,0-20.4,0-30.7c1.1,0,2.1-0.1,3.2-0.1C428,643.3,428,653.6,428,663.9z M437.8,632.7
	c-4.5-12.3-6-24.3,1.2-35.8c0.9,0.2,1.8,0.3,2.7,0.5C440.4,609.2,439.1,620.9,437.8,632.7z M444.9,613.5c11.9,15.6,1.7,27.6,0.7,40
	c-1,0-2.1,0-3.1,0C443.2,641,444,628.5,444.9,613.5z M449,701.4c-1.2-0.2-2.4-0.4-3.6-0.6c1.8-10,3.5-19.9,5.3-29.9
	c1,0.2,1.9,0.3,2.9,0.5C452.1,681.4,450.6,691.4,449,701.4z M509.6,697.5c2.1-8.8,4.1-17.6,6.7-28.5c7.6,12.9-2.6,19.9-3.5,28.8
	C511.7,697.7,510.6,697.6,509.6,697.5z M521,798.5c-3.8-12-10.3-23.8-1.8-38.3C524.9,773.7,525.7,785.9,521,798.5z M541.7,652.9
	c-1.1,0.1-2.3,0.2-3.4,0.3c-3.7-25.5-8.1-50.9-10.4-76.5c-0.6-6.7,5.1-14.1,9.4-20.9C537.5,588.4,551.6,620.1,541.7,652.9z
	 M547.8,817.6c-0.9,0-1.9,0.1-2.8,0.1c0-11.9,0-23.7,0-35.6c0.9,0,1.9,0,2.8,0C547.8,794,547.8,805.8,547.8,817.6z M545.2,726.8
	c0.4-8.9,0.9-17.9,1.3-26.8c1.3,0.1,2.6,0.2,4,0.3c-0.8,9-1.6,18.1-2.5,27.1C547.1,727.1,546.2,726.9,545.2,726.8z M553.1,773.6
	c-1.5-0.1-3.1-0.1-4.6-0.2c0.7-11,1.3-22,2-33.1c0.9,0,1.8,0,2.7,0C553.1,751.5,553.1,762.5,553.1,773.6z M552.8,696.8
	c-10.8-19.3-6-37-3.8-54.6C552.8,659.3,559.9,676.1,552.8,696.8z M576.4,646.3c-0.6-1.4-1.2-2.7-2.2-5.2c-0.5,6.3-1,11.5-1.4,16.6
	c-0.7,0-1.4-0.1-2-0.1c0-25.1,0-50.2,0-75.3c1.5-0.1,3-0.1,4.5-0.2c1.3,21.3,2.5,42.6,3.8,63.9C578.1,646.1,577.3,646.2,576.4,646.3
	z M598.1,615.6c-1,0-2,0-3,0c0-12,0-24,0-36c1,0,2,0,3,0C598.1,591.6,598.1,603.6,598.1,615.6z M600.5,569.5
	c-5-22.7,6.1-43.8,7.8-65.9c0.8,0.1,1.7,0.2,2.5,0.2c-2.2,22-4.4,44-6.6,66C603,569.7,601.8,569.6,600.5,569.5z M619.7,676
	c-1.4-0.2-2.8-0.5-4.2-0.7c1.5-10.1,3-20.2,4.6-30.4c1.6,0.3,3.1,0.5,4.7,0.8C623,655.8,621.4,665.9,619.7,676z M639.8,750.4
	c-1.3-0.5-2.6-1-3.9-1.5c3-8,6-16.1,9-24.1c1.5,0.5,3.1,1.1,4.6,1.6C646.3,734.4,643.1,742.4,639.8,750.4z M644.3,723.1
	c-1.3-0.4-2.6-0.7-3.9-1.1c2-7.3,4-14.6,6.1-21.9c1.2,0.3,2.5,0.7,3.7,1C648.2,708.5,646.3,715.8,644.3,723.1z M648.8,669.3
	c-1.2-0.2-2.5-0.3-3.7-0.5c1-7.4,1.9-14.8,2.9-22.2c1.2,0.2,2.4,0.3,3.5,0.5C650.6,654.5,649.7,661.9,648.8,669.3z"/>
</svg>
