<?xml version="1.0" encoding="utf-8"?>
<!-- Generator: Adobe Illustrator 27.8.1, SVG Export Plug-In . SVG Version: 6.00 Build 0)  -->
<svg version="1.1" id="레이어_1" xmlns="http://www.w3.org/2000/svg" xmlns:xlink="http://www.w3.org/1999/xlink" x="0px"
	 y="0px" viewBox="0 0 595.3 841.9" style="enable-background:new 0 0 595.3 841.9;" xml:space="preserve">
<style type="text/css">
	.st0{fill:url(#SVGID_1_);}
	.st1{fill:url(#SVGID_00000016754656105403024630000011977702175282184106_);}
	.st2{fill:url(#SVGID_00000031919435874583780390000010965498856108892596_);}
	.st3{fill:url(#SVGID_00000119103885886724055320000001658321668942922388_);}
</style>
<radialGradient id="SVGID_1_" cx="178.2654" cy="620.0974" r="175.438" gradientTransform="matrix(1 0 0 -1 0 841.89)" gradientUnits="userSpaceOnUse">
	<stop  offset="0" style="stop-color:#4F7302"/>
	<stop  offset="1" style="stop-color:#172601"/>
</radialGradient>
<path class="st0" d="M341.3,319.3c-4.2-4.8-9.1-9-13.9-13.7c3.1-4.9,5.2-10.6,3.8-17c-0.5-2.5,0.2-3.6,2.2-5
	c9.7-6.8,10.5-19.3,2.4-26.2c-0.7-0.6-1-2.2-0.8-3.2c1.2-4.6,0.3-8.8-1.9-12.9c-2.7-5-6.8-8.5-12.1-10.5c2.9-14.8-5-22.4-16.6-27.3
	c1.5-4.8,3.6-8.7,8.5-10.6c1.3-0.5,2.4-1.7,3.5-2.7c9.1-8.8,15-19.5,17.7-31.8c1.6-7.4,2-14.8-4.3-20.7c1.2-1.4,2.3-2.5,3.3-3.8
	c9.7-11.7,10.4-23.1,2.3-35.1c1-1.7,2.2-3.4,3.1-5.2c9.3-17.4-0.2-35.2-19.7-37c-2.5-0.2-3.4-1.1-4-3.5c-1.6-7-6.7-10.3-13.5-8.1
	c-5.9,1.9-11.9,4.2-17.4,7.1c-14.4,7.6-26.6,18.1-37.5,30c-31,33.7-53.3,72.5-67,116.1c-1.7,5.3-3.3,10.5-5.1,16.2
	c-5.1-4.8-9.8-9.4-17.4-7.7c-4-10.2-6.6-20.6-5.3-31.6c-2.1,11.1-0.1,21.7,4.2,32.1c-4.2,1.3-4.5,4.4-3.7,7.7
	c1,3.6,2.4,7.1,3.8,10.6c0.4,1.2,1.1,2.2,1.7,3.3c-1.2-0.3-1.8-0.9-2.4-1.6c-12.3-14.5-24.5-29.1-36.9-43.6
	c-16.3-19.1-32-38.6-50.1-56.2c-12.2-11.8-26.5-19.5-42-25.6c-5.9-2.3-16.1,2.1-19.3,7c-3.6,5.5-3.2,12.7,1.6,18.4
	c2.2,2.5,5,4.6,7.6,7c-5.1,5-7.4,10.9-4.6,18.1c2.6,6.6,8.1,10.5,13.9,13.9c-4.6,8.6-5.5,12.7-2.5,18.4c2.1,3.8,5,7.4,8.2,10.3
	c3.3,2.9,7.4,4.7,11.2,7.1c-1.1,8.2-1.2,9.8,0.9,14.2c5.2,11,13.7,18.4,25.7,20.4c4.5,0.7,6.5,2.3,8.6,6.2
	c5.6,9.8,14.9,15.2,25.6,18c2.5,0.7,5,1,7.7,1.5c-0.3,0.7-0.4,1.1-0.6,1.5c-6.7,11.4-1.1,24.3,9.4,27.7c0.8,0.2,1.4,1.8,1.6,2.8
	c0.7,5.1,1.9,10.1,6.4,13c2.8,1.8,3.6,3.6,3.6,6.8c-0.1,9.1,4.8,15.2,13.7,17c2.4,0.5,3.3,1.3,3.8,3.8c2.9,16,19.1,26.7,35,23.5
	c1.1-0.2,2.6,0.6,3.7,1.3c3.3,2.2,6.2,5.3,9.7,6.7c3.8,1.5,8.2,1.3,12.7,2c0,0.1,0.3,0.8,0.5,1.6c2.4,8.4,6.5,15.9,12.5,22.2
	c2.3,2.4,5.1,4.7,8.1,6.1c5.9,2.8,11.5-0.8,10.5-7.2c-0.8-5.3-2.6-10.7-5.3-15.3c-3.6-6.1-8.5-11.4-13-17.4c0.2-0.2,0.8-1.1,1.5-2.1
	c4.3-6.2,7.1-13,6.7-20.5c-0.7-11.4-2.9-22.6-8.1-33c-2.1-4.2-3.8-8.6-5.7-12.9c2.1,1.3,4,2.8,5.6,4.5c7.6,8.1,15,16.2,22.7,24.2
	c3.9,4.1,8.6,5.8,14.3,4.2c0.8-0.2,1.9,0.2,2.8,0.5c6.9,2.6,13.7,3.5,20.5-0.2c1.2-0.6,2.6-1.3,3.8-1.2c9.2,0.7,18-0.7,26.4-4.5
	c0.3-0.1,0.6,0.1,0.9,0.1c1.1,2.4,1.9,4.7,3.1,6.9c5.1,9.6,11.4,18.2,21.4,23.3c3.4,1.7,7,2.4,10.3-0.2s3-6.2,2.2-9.7
	C349.7,330.7,346,324.6,341.3,319.3z"/>
<radialGradient id="SVGID_00000121248662907481937510000004135634417072547007_" cx="489.0626" cy="341.4082" r="106.8753" gradientTransform="matrix(1 0 0 -1 0 841.89)" gradientUnits="userSpaceOnUse">
	<stop  offset="0" style="stop-color:#4F7302"/>
	<stop  offset="1" style="stop-color:#172601"/>
</radialGradient>
<path style="fill:url(#SVGID_00000121248662907481937510000004135634417072547007_);" d="M588.7,428.7c-2.5-2.8-5.9-5.1-9.3-3.5
	c-7.1,3.3-14.5,6.6-20.4,11.4c-6.8,5.6-12.7,12.5-18.3,19.4c-12.3,15-24.1,30.3-36.1,45.5c-0.7,0.9-1.5,1.7-2.2,2.6
	c0.7-4.8,4.6-9.3,0.4-13c-5.3-1.1-8.4,1.6-11.4,4.6c-3.1-9.1-5.5-17.9-8.9-26.4c-9.3-23.3-21.7-44.7-39.6-62.7
	c-7.4-7.4-15.5-13.8-25.7-17.1c-4.5-1.4-7.1-0.3-8.5,4.2c-0.7,2.1-1.6,2.8-3.7,3.1c-8.4,1.2-13.7,8.4-12.3,16.7
	c0.6,3.4,2.2,6.6,3.3,10c-6.4,8.9-1.9,16.6,3.1,23.6c-0.9,2.5-2.3,4.7-2.3,7c-0.2,11.5,4.4,21,13.1,28.5c1.9,1.7,3.5,3.7,5.6,6
	c-8.4,3.7-12.3,9.1-10.8,17.4c-5.9,3.5-9.5,8-8,15.2c0.1,0.6-0.4,1.4-0.9,2c-4.3,5.7-3.7,11.2,1.6,16c0.7,0.6,1.4,1.5,1.5,2.4
	c0.5,4,0.9,7.9,1.3,11.9c0.3,0,0.6,0,0.9,0.1c-0.6,0.5-1.2,1-1.8,1.5c-6,4.9-10.5,10.9-12.1,18.5c-0.4,1.8,0.2,4.9,1.5,5.7
	c1.5,1,4.6,0.9,6.2-0.1c2.9-1.8,5.6-4.3,7.7-7.1c2.6-3.5,4.5-7.5,6.3-10.6c5.4,0.6,10.5,1.2,15.7,1.9c0.8,0.1,1.6,0.2,2.3,0.6
	c4,2.4,8.1,2,12.2,0.4c0.6-0.2,1.3-0.5,1.9-0.4c4.2,1.2,7-1,9.5-3.9c4-4.7,8.1-9.3,12.1-13.9c0.7-0.8,1.7-1.5,3.2-2.9
	c-5.6,14.9-12.9,28.7-2.6,44c-0.7,0.5-1.6,0.9-2.2,1.6c-4.8,5.1-8.5,10.8-9,18c-0.3,4.5,3.2,6.6,7,4c2.2-1.5,4.3-3.5,5.7-5.8
	c2.5-4,4.4-8.4,6.3-12.3c2.7-0.6,6.2-0.4,8-2c3.8-3.3,7.9-3.8,12.7-4.3c8.1-0.9,12.5-6.7,14.7-14.4c0.3-1,1.1-2.3,1.9-2.7
	c6.2-2.3,8-4.8,8.4-11.3c0.1-1.1,0.7-2.2,1.3-3.2c1.4-2.6,2.8-5.3,4.3-7.8c0.7-1.1,1.2-2.6,2.3-3.2c4.8-2.9,7.1-8,5.6-13.5
	c-0.4-1.4-0.9-2.7-1.5-4.3c1.3-0.3,2.4-0.4,3.5-0.7c7.1-1.9,13.1-5.5,16.4-12.3c0.9-1.9,1.9-2.6,3.9-2.9
	c9.7-1.3,16.9-10.6,16.5-20.6c0-0.9,1.2-2.2,2.2-2.8c9.3-5.4,11.6-11.1,8.2-20.1c2.7-3.6,5.7-6.5,7.5-10c2.1-4,0.1-7.9-2.3-10.8
	c2-2.6,4.2-4.8,5.5-7.3C591.7,435.2,591.3,431.6,588.7,428.7z"/>
<radialGradient id="SVGID_00000161614946221496158660000000111964481314117002_" cx="210.2697" cy="146.5074" r="105.7281" gradientTransform="matrix(1 0 0 -1 0 841.89)" gradientUnits="userSpaceOnUse">
	<stop  offset="0" style="stop-color:#4F7302"/>
	<stop  offset="1" style="stop-color:#172601"/>
</radialGradient>
<path style="fill:url(#SVGID_00000161614946221496158660000000111964481314117002_);" d="M314.8,754c-3-3.6-6.7-6.7-9.9-9.8
	c0.7-2.6,2.1-5.3,2-8c-0.2-2.9,0.7-4.4,2.8-6.1c4.5-3.6,4.5-8.8,0.6-13.2c-0.6-0.7-1.2-1.8-1-2.5c1.1-5.6-1.8-9.1-6-12
	c-0.9-0.6-1.9-1.1-2.8-1.5c1.7-8.8-3.8-12.7-10.9-15.8c1.3-1.7,2.1-3.8,3.5-4.6c7.2-3.8,11.5-10,14.3-17.3c2.1-5.4,3.4-11-1.2-15.9
	c8.2-9.6,9-15.1,3.4-22.3c0.7-1.1,1.5-2.2,2.1-3.4c4.5-8.2,1.2-16.9-7.7-19.8c-1.6-0.5-3.4-0.5-5-1.1c-0.9-0.3-2-1-2.4-1.8
	c-2.3-4.9-4.6-6.4-9.4-4.4c-7,2.9-14.3,5.7-20.4,10.1c-24.6,17.7-40.9,42-52.7,69.5c-2.4,5.6-4.2,11.5-6,16.6
	c-3.5-1.3-6.5-2.9-9.7-3.5c-3.9-0.6-5.5,1.8-4.4,5.7c0.7,2.2,1.7,4.3,2.6,6.5c-0.3,0.2-0.5,0.4-0.8,0.7c-0.5-0.8-0.8-1.6-1.4-2.3
	c-13.5-14.6-26.9-29.2-40.5-43.6c-11-11.5-22.7-22.2-38.6-26.9c-3.6-1.1-6.7-0.7-9.8,1c-5.4,2.9-6.4,8.6-2.2,13.1
	c1.4,1.5,3,2.7,4.7,4.1c-3.1,3-4.9,6.7-2.7,10.5c1.9,3.3,5.1,5.8,7.9,8.8c-2.7,3.6-3.2,8.1,0.3,11.8c3,3.2,7,5.6,10.8,8.6
	c-1.6,4.9,0.9,9.1,4.6,12.8c3.8,3.8,8.4,6.1,13.9,6.7c1,0.1,2.3,0.7,2.7,1.4c4.1,7.5,11,10.6,18.8,12.3c1.1,0.2,2.1,0.4,3.4,0.7
	c-2.3,4-3.4,8.1-0.7,11.6c1.7,2.2,5,3.2,6.7,5.4s2.3,5.3,3.5,7.9c0.3,0.6,1.4,0.8,1.9,1.4c0.6,0.7,1.3,1.6,1.4,2.4
	c0.8,6.9,2.4,9,8.9,10.8c0.9,0.3,1.9,1.2,2.2,2c3.2,9.9,11.3,15,21.6,13.7c0.9-0.1,2.2,0,2.7,0.5c3.9,3.9,8.5,5.5,13.8,4.6
	c1.4,2.9,2.3,6,4.2,8.3c2.5,3.3,5.5,6.3,8.8,8.8c1.3,1,4.4,0.7,5.9-0.2c1.1-0.7,1.4-3.4,1.2-5.2c-0.3-2.1-1.1-4.3-2.3-6
	c-2.7-3.8-5.7-7.3-8.8-11.1c3.5-4.4,6.1-9.7,4.7-16c-1.3-5.5-3.2-10.9-5.1-16.2c-0.8-2.2-1.9-4.4-2.9-6.5c0.2-0.2,0.5-0.3,0.7-0.5
	c5.1,5,10.2,10.1,15.4,15c1.8,1.6,4,3.3,6.2,3.9c3.8,1,7.8,1.5,11.7,1.4c3.1,0,6.1-1.5,9.2-1.9c5.8-0.7,11.7-1.2,17.8-1.8
	c1.2,1.9,2.5,4.6,4.2,6.9c3.3,4.5,7,8.5,12.6,10.1c4.6,1.3,7.7-1.6,6.3-6.1C318.4,759.6,316.8,756.5,314.8,754z"/>
<radialGradient id="SVGID_00000111186189512693559520000000089102725549449639_" cx="141.2" cy="642.54" r="7.6234" gradientTransform="matrix(1 0 0 -1 0 841.89)" gradientUnits="userSpaceOnUse">
	<stop  offset="0" style="stop-color:#4F7302"/>
	<stop  offset="3.303266e-02" style="stop-color:#496B02"/>
	<stop  offset="0.1556" style="stop-color:#375202"/>
	<stop  offset="0.2926" style="stop-color:#293E01"/>
	<stop  offset="0.4502" style="stop-color:#1F3001"/>
	<stop  offset="0.6463" style="stop-color:#192801"/>
	<stop  offset="1" style="stop-color:#172601"/>
</radialGradient>
<path style="fill:url(#SVGID_00000111186189512693559520000000089102725549449639_);" d="M132.4,193.1c5.3,3.8,11.2,7.9,17.6,12.5
	C144.6,199.4,138.5,195.6,132.4,193.1z"/>
</svg>
