<?xml version="1.0" encoding="utf-8"?>
<!-- Generator: Adobe Illustrator 27.8.1, SVG Export Plug-In . SVG Version: 6.00 Build 0)  -->
<svg version="1.1" id="레이어_1" xmlns="http://www.w3.org/2000/svg" xmlns:xlink="http://www.w3.org/1999/xlink" x="0px"
	 y="0px" viewBox="0 0 1199.4 716.8" style="enable-background:new 0 0 1199.4 716.8;" xml:space="preserve">
<style type="text/css">
	.st0{fill:url(#SVGID_1_);}
</style>
<radialGradient id="SVGID_1_" cx="599.1332" cy="170.8261" r="757.6002" gradientTransform="matrix(0.9132 0 0 1.3073 58.802 -52.4987)" gradientUnits="userSpaceOnUse">
	<stop  offset="0" style="stop-color:#4F7302"/>
	<stop  offset="3.303266e-02" style="stop-color:#496B02"/>
	<stop  offset="0.1556" style="stop-color:#375202"/>
	<stop  offset="0.2926" style="stop-color:#293E01"/>
	<stop  offset="0.4502" style="stop-color:#1F3001"/>
	<stop  offset="0.6463" style="stop-color:#192801"/>
	<stop  offset="1" style="stop-color:#172601"/>
</radialGradient>
<path class="st0" d="M474.3,582.6c-2.6,2.9-5.1,5.8-7.8,8.6c-2.7,2.9-3.8,5.6-1.7,9.6c1.3,2.5,1.3,5.7,2,9.1
	c0.7-0.4,1.8-0.9,3.3-1.7c0.2,1.4,0.7,2.9,0.7,4.2c-0.1,1.9-4.5,4,0.1,6c-1.3,1.4-2.4,3.2-3.8,4.3c-2.7,1.8-5.6,3.2-8.4,4.8
	c0.2,0.6,0.5,1.3,0.7,1.8c5.5-2.5,10.9-5.1,16.3-7.5c0.4,0.5,0.6,1,0.9,1.6c-1.4,1.9-2.7,3.8-4.2,5.7c0.4,0.1,0.7,0.3,1.2,0.4
	c-0.7,2.5-1.5,5.1-2,7.5c-0.4,2.2-0.7,4.5-0.5,6.8c1.7,10.1,1.7,10.1-8.4,10.4c0.6-8.7-5.3-8.2-10.6-8.3c0.7,0.9,1.7,1.9,2.8,3.2
	c-1.1,0.6-1.9,1-3.6,1.9c3.1,1.4,5.6,2.6,8.3,3.9c-0.4,0.3-0.9,0.8-1.5,0.8c-11.3-0.4-22.7,3.1-34-0.4c-4.3-1.3-9-0.8-13.5-0.4
	c-2,0.1-3.9,2.1-6.1,3.2c4,5.6,2.4,14.2-3,17c-5.7,3-8.1,6.6-5.5,13.8c0.7,1.8-1.8,5.1-3.1,8.7c2.1-0.5,4-0.9,6.3-1.4
	c-1.1,1.4-2,2.7-3.4,4.5c4.4-0.3,8.1-0.5,12.5-0.8c-3.6,8.3-10.9,4.5-16,8.4c-0.1-2.5-0.2-4.2-0.4-6c-2.5,0.5-4.6,0.9-7.9,1.6
	c-0.5,1-1.4,3.4-2.5,5.8c0.5,1.4,1.1,3.1,1.5,4.7c-1.5,0.1-3.1,0.3-4.6,0.5c-1.1,0.3-2.1,0.8-3.2,1.3c-3.6,1.7-7,4.8-10.9,0.4
	c-0.7-0.8-2.8-0.1-3-0.1c-5.6-5.8-10.3-11-15.9-17c-1.8,9.7-1.5,10.4,4.3,13.6c-6.1-1.3-5.9,2.7-6.1,6.8c-0.1,6-0.5,11.8-0.8,19.1
	c-3.6,1.3-8.5,3-13.4,4.8c-1.5-2.7-2.7-4.9-3.8-6.8c1.8-5.5,3.6-11.3,5.7-18.1c-2.3,0.4-3.7,0.8-5.1,1c-0.1-0.3-0.4-0.6-0.5-0.9
	c2.1-1,4.2-2.2,6.6-3.5c0,2.3,0,4.4,0,6.5c0.6,0,1.2,0.1,1.8,0.1c0.4-5.8,0.7-11.6,1.2-17.4c-0.5-0.1-0.9-0.3-1.5-0.3
	c-0.5,1.2-0.9,2.3-1.4,3.5c-0.2-1.4-0.4-2.9-0.6-4.4c-10.2,3-9.8-4-10.3-11.4c-0.7,3.1-1.4,6.2-2.4,9.7c-5.6,0-2.7-3.9-1.5-7
	c-3.8-1.9-3.8-1.9,2.7-12.9c-7.8-0.9-15.3-1.9-22.7-2.7c-3.7-0.4-7.5-0.9-11.2-0.6c-2.5,0.1-4.9,1.3-7.2,2.3c-3,1.4-5.8,3.6-7.5-2.1
	c-0.8,1.4-1.7,2.7-3.2,5.1c-0.1-3.4-0.2-5.3-0.4-7.4c-2.1,1.9-4.2,3.9-6.5,6.2c1.4,0.6,2.7,1.3,4.6,2.2c-2,1.6-3.7,2.7-6.2,4.7
	c2.4,2.2,4.5,4,7.7,7c-1.5,0.5-3.1,1-4.6,1.4c0.4,0.6,0.7,1.3,1.1,1.9c2.5,0.3,4.9,0.5,7.4,0.9c-0.2,0.4-0.5,0.8-0.7,1.2
	c4.7,4.5,9.6,9,14.4,13.5c-0.4,0.4-0.7,0.8-1.2,1.2c-5.2-4.9-10.8-5.5-17.7-4.5c-6.4,0.9-13.5,3.1-20-0.8c-0.6-0.4-0.9-1.6-1.9-2.3
	c1.4,5.8-1.1,11.6-0.2,19.5c2.7-4.2,4.5-6.9,6.5-10c2.5-0.1,6.6-1.4,10.2-0.4c4.4,1.2,8.4,4.3,11.2,7.4c1.7,3.9,3.3,7.7,5.1,11.6
	c-0.2,0.3-0.5,0.5-0.7,0.8c-3.1-3.1-6.2-6.2-10.3-10.5c-1.4,4.7-2.5,7.9-3.6,11.3c-2.4-0.8-4.4-1.6-6.4-2.2
	c-0.7-3.6,3.3-9.2-2.7-10.4c-2.8,2.2-5.2,4-8.4,6.5c0,0.4,0.2,2.3,0.6,4.9c3.2,1.4,6.6,3,10.7,4.9c-1.5,1.7-3.9,4.2-6.6,7
	c0.7,5.3,11.7,0.4,8.5,11c-1.9,0.5-4.9,1.6-8.1,2.2c-6.2,1.3-7.9,4.3-6.8,12.1c0.8,6.4,5.2,3.5,8.4,3.6c1.2,0,2.3-0.4,3.4-0.5
	c0.1,0.5,0.2,1.2,0.5,1.7c-8.9,3-17.7,5.8-27.8,9.2c1.1-4.9,1.8-8.1,2.6-11.6c-5.9,1.7-10.8,3.5-10.9,10.8c0,0.8-1.1,1.9-1.8,2.2
	c-8.1,2.1-16.3,4-24.4,5.7c-1.5,0.3-3.2-0.5-4.9-0.9l0.1,0.1c1.7-5.7,3.3-11.3,5.2-18.1c-3.2,0.6-5.3,1-8.4,1.6
	c1.7-2.2,2.6-3.6,4.3-5.8c-3.3,0.5-5.7,0.9-9,1.3c0.8,3.5,1.5,6.6,2.4,10.3c-0.9,0.5-2.5,1.2-4.5,2.2c0-3.9,0-7.3,0-11.3
	c-4.5,6.5-17.8,4-13.8,15.7c2.8,2.6,4.6,4,6.6,5.8c-3.4,1.4-5.9,2.5-9.1,3.9c-0.5-4-1.1-8.6-1.8-13.9c-1.5,1.4-3.4,3.2-5.6,5.1
	c1.2,1.2,2.3,2.1,4,3.8c-5.3,1.2-9.7,2.2-14.8,3.4c-5.6,9.5,2.7,14,8.4,20.1c-1.8,1-3.3,1.8-5,2.9c-1.2-1.8-2.4-3.9-3.7-5.8
	c-0.4,0.1-0.6,0.3-0.9,0.4c0.6,1.8,1.2,3.6,2.3,6.8c-9.6,0-18.6,0-27.5,0c-32.5-0.1-65.1-0.3-97.6-0.4c-2.5,0-5.1,0.4-7.6,0.6
	c-4,0.5-6.3-1.3-6.8-5.7c8.2-5.2,7.5-14,7.6-23C12.2,806.4,1.2,805-4,811.5c0.4-0.5,0.8-1.2,1.1-1.7c1.1-2.1,2-4.3,3.1-6.4
	c-2.1-0.4-4.2-0.8-6.3-1.3c-2.1-0.5-4.2-1.2-7-1.9c3.2-3.4,5.5-5.8,8.7-9.4c-3.7-1-5.8-1.7-8.1-2.3c6.5-10.1,12.1-11.7,17.9-5.3
	c3.9-2.3,7.8-4.8,11.7-7.3c-0.2-0.9-0.5-1.9-0.7-2.9c-16.4,2.2-32.6,5.2-49,6.4c-16.4,1-32.9,0.3-49.4,0.3c-0.5,1.8-1.2,4.5-2.4,8.8
	c3.4-0.9,6.5-1.3,9.3-2.7c3.8-1.9,7.1-4.9,10.4,1c0.6,1,3.2,0.6,5,2.5c-4,0.4-7.9,0.8-12.6,1.3c2.5,6.8,7.4,6,11.5,7
	c5.1,1.3,10.2,3.2,14.8,6.2c-13.8,1.2-24.6-9.1-37.4-11.4c-2.8,14.8-2.8,14.8,2.8,15.8c-0.7,0.8-1.3,1.4-2.6,3
	c3.3,0.9,6.2,1.8,9.1,2.6c1.2,7.4,0.1,9.2-7,9.6c-6.6,0.3-13.4,0.4-20.2,0.4c-0.7,0-1.5-0.4-4-1c2.5-1.7,3.7-3.1,5-3.5
	c4.6-1.2,5.5-4,5.5-9c-0.1-5.3,1.3-10.7,2.3-16.9c-3.8-0.3-7-0.4-11.3-0.6c0-9.9,0-19.7,0-29.6c0-33.5,0-67,0-100.4
	c0-44.3-0.1-88.6,0-132.9c0-20.3,0.8-40.5,0.8-60.8c0-23.3-0.5-46.4-0.7-69.6c0-3.5-0.5-7.1,3.9-8.1c0.6,3,1.2,5.8,1.9,9.6
	c3.1-0.5,6.2-1.2,9.1-1.7c1.9,0,3.6,5.2,5.6,0.9c0.9-2.1-0.1-5.2-0.4-7.9c-0.6,0-1.2,0-1.9,0c-1.1,2.3-2.3,4.7-3.3,7.1
	c-0.1-5.3,3.7-12.1-3.7-14.2c-2.8,2.3-5.2,4.3-7.6,6.4c-2.5-1.7-2.6-3.4-2.6-7.1c0.4-17.7-0.8-35.5-1.3-53.1c0-1.6,1.8-3.1,2.1-4.9
	c0.5-1.8,4-4.8-1.1-5.6c-0.5-0.1-1.1-1.3-1.1-1.9c0.5-7,1.2-14,1.8-20.9c0.2-2.9,0-5.7,0-8.6c4.9,0.1,10,4.9,14.6-1.6
	c7.2,4.5,15.3,7.5,24.1,4.4c0.1-0.6,0.2-1.3,0.4-1.9c-3.4-0.5-6.9-0.9-10.8-1.4c1.1-2.3,1.8-4,2.1-4.9c-7.6-2.9-15.3-7.9-20.6,0.4
	c-2.7-1.3-4.6-2.6-6.6-3c-3.1-0.6-4.5-1.8-4.3-5.5c0.2-3-0.6-6-0.7-9c-0.5-9.7,0-11.6,5.2-21c4.3,1.6,6.1,3.8,1.3,8.6
	c0.7,0.4,1.3,0.6,2,1c2.6-1.9,5.3-3.8,7.9-5.7c1.8-0.6,5.5,3.5,5-1.7c3,0.6,7.2,2.3,7.7,1.6c3.3-6.1-5-3.6-5.1-8.4
	c3.3,1,6.5,1.9,11,3.4c-4-6.4-7.4-11.8-10.8-17.4c-3-4.7-7.5-1.6-8.2,0.3c-1.9,4.8-5.7,5.5-9,7.5c-2.1,1.3-4,3.2-6.6,5.3
	c0-10,0-19.7,0-29.4c0-21.4-0.1-42.7,0.2-64.2c0.1-4.4,1.8-8.8,2.5-13.3c0.2-1.6,0.7-3.6,0-4.9c-3-6-3.1-6-2.3-11.4
	c1.4,0.5,2.7,0.9,5.2,1.8c-0.6-5.1-1.1-9.2-1.5-13c6.4-6.6,4.5-15.1,4.5-23.3c-3-0.3-5.7-0.6-8.5-0.9c-1.1-8.3,12-5.8,9.6-16.4
	c-3.2,3.4-5.8,6-8.3,8.6c-0.4-0.4-0.8-0.6-1.2-1c0.2-4.4,0.5-9,0.8-15.2c1.8,3,2.4,4.9,3.6,5.7c2.3,1.6,4.7,2.7,5.5-2.1
	c0.2-1.9,2.3-3.6,2.3-5.5c0-4,1.3-9.1-4-9.2c1.4-3.2,2.6-5.8,3.6-8.4c1.9-5.6,3.9-11.2,5.2-17c0.6-3-0.1-6.4-0.5-9.5
	c-0.4-3-1.4-5.8-1.3-8.8c0.5-15.7,1.2-31.6,1.9-47.3c1.5,0.4,3.3,0.8,5,1.2l0,0c-1.1,5.1-2.6,10.1-3.1,15.2
	c-0.6,9.7-1.1,19.9-1.5,30c-0.1,1.9-0.4,4.7,0.6,5.6c4.4,4.4,1.9,8.8,0.8,13.4c-0.9,4.2-2.1,8.4-2.5,12.6c-0.1,1.9,1.7,4,2.3,5.2
	c-1.1,4.3-3.7,9-2.7,12.3c2,7-1.7,12.7-1.5,19.1c0.1,3.2,0.6,6.4,0.8,9.2c-0.4,2.5-0.8,4.7-1.1,6.9c-0.4,2.5-0.4,4.9-0.9,7.3
	c-2,7.1-5,14-1.9,21.7c0.2,0.6,0.1,1.6,0,2.2c-1.1,7.9-2.3,15.8-3.4,23.6c-0.2,1.2-0.9,2.3-1.2,3.5c-0.6,3.5-1.1,6.9-1.5,10.4
	c2.6,0,5.2,0,7.7,0c0.2-2.3,0.4-4.4,0.7-7.5c1.5,4.3,2.6,7.1,3.3,9c7.4-5.6,13.9-10.7,21.1-16.1c-1.2,3.6-2.1,6.6-3.1,9.6
	c-3.9-0.8-5.3,1.8-6.9,5.2c-1.4,3.2-3.8,5.8-6.4,10c-0.1,2.1-0.4,5.8-0.7,9.9c0.9-0.1,1.9-0.1,2-0.4c1.7-4.3,4-6.8,8.7-5.1
	c0.5,0.1,1.5-1.6,2.1-2.5c0.9-1.4,2-3,2.6-4.7c0.6-1.6,1.2-3.2,0.9-4.8c-0.2-2.3-1.1-4.5-1.7-6.8c2,1.3,4.2,2.7,6.2,4
	c-0.1,2.1-0.1,4.2-0.4,6.2c-0.1,1.3-0.5,2.6-0.9,3.8c-0.4,1.2-1.7,2.5-1.4,3.2c0.6,1.9,1.9,3.5,3.7,6.6c1.4-5.2,2.3-8.3,3.2-11.3
	c0.7-2.2,1.8-4.3,2.6-6.5c-2.4-0.6-4.6-1.3-7-1.8c2.3-2.9,4.5-5.8,7-9c2.7,2.7,5.3,5.5,8.1,8.2c0.2-3.8,0.5-6.6,0.6-10.1
	c2.6,1.2,4.2,2.3,5.8,2.5c4.7,0.5,4,3.1,2.8,6.8c-0.8,2.6-0.6,5.7-0.9,9.9c3.1-2.5,4.6-3.8,7.1-5.8c-1.9,8.6,5,13.9,12.3,12.3
	c-3.8-4-7.8-8.4-11.9-12.9c0.4-0.5,0.6-0.9,0.9-1.4c3.6,2.1,7.1,4,11.4,6.5c2.3-12.9-9.8-15.1-12.2-23.5c4-1,5.6-0.1,8.4,3.9
	c1.8,2.6,4.4,4.7,6.5,6.9c0.8-0.6,1.8-1.4,2.6-2.1c-2.7-5.6-5-11.4-8.2-16.6c-3.2-5.2-7.1-9.7-10.8-14.7c0.6-0.6,1.3-1.3,1.9-2.1
	c4.5,4.3,8.9,8.6,13.4,12.9c0.4-0.4,0.8-0.9,1.2-1.3c-4-2.5,0.4-11.7-7.9-10.8c0.4-1.8,0.8-3.6,1.2-5.5c1.8-0.1,3.4-0.3,5.7-0.4
	c-0.4-3-0.7-5.7-1.2-9.2c1.7,0.9,2.7,1.4,4.2,2.2c4.3-8.1,3.6-16.6,0.6-25.3c2.5,1,4.5,1.9,6.5,2.7c-0.9-3.8-1.8-7.5-2.7-11.2
	c2.5,1.9,5.3,4.2,9.7,7.5C-2.2,68-4.4,62.3-6.4,56.4c0.6-0.3,1.2-0.5,1.8-0.9c1.2,1.2,2.4,2.2,3.3,3.1c3.6-1.3-1.7-8.3,4.6-6.4
	C2.6,45.5,2,39.7,1.4,34c1.2,1.3,2.7,3.1,4.2,4.8c1.7-12.6,3.2-24.8,4.7-37.2c5.7-0.4,4.7-4.5,3.3-9.5c1.7,0,3,0,3.8,0
	c-0.2,7.7,2.5,15.7-3.3,22.2c0.2,0.6,0.5,1.2,0.6,1.8c2.8-0.4,5.7-0.8,9.3-1.3c-5.7,7.1-11.9,13.9-7.6,24c-1.2,3-2.4,6-3.8,9.4
	c2.1,0.4,3.6,0.6,6.5,1.3c-2.8,1.3-4.3,1.9-6.3,2.9c7.9,3.6,5.2,7,0.6,9.5c0,8.6,0,16.6,0,23.5c4.6,4.5,8.4,8.3,12.3,12.2
	c0.5-0.4,1.1-0.9,1.5-1.3c-0.4-3.2-0.7-6.4-1.1-9.6c0.5-0.3,0.9-0.6,1.3-0.9c1.2,1.2,3.6,2.6,3.4,3.5c-0.8,5.2,1.4,6.2,5.6,6.5
	c2.4,0.1,4.6,1.7,7.1,2.6c-0.1-9.4-4.5-19.9-9.1-26.9c-0.1-1.6,0.2-3.5-0.5-4.5c-3.1-4.5-6.4-8.7-9.7-13.1c0.4-0.6,0.7-1.3,1.2-1.9
	c1.9,0.3,4,0.1,5.8,1c4.3,2.2,8.3,4.9,12.6,7.1c1.7,0.8,3.6,0.8,6.5,1.3c-4.7-10.1-8.8-18.8-13-27.7c8.9-2.7,8.5,10.3,17.3,8.8
	c-1.3-3.4-2-7-3.8-9.6c-2.7-4-4.2-7.7-0.4-12.6c3.1,1.7,6.3,3.5,9.8,5.3c3-6-2.3-8.7-3.8-12.7c-1.7-4.4-3.3-8.7-4.9-13.1
	c0.6-0.4,1.3-0.9,1.9-1.3c2.4,1.9,4.7,3.9,7.4,6c0.6-0.9,1.2-1.9,1.8-3C65.3,3.7,67.6,5.9,70,8c0-2.5,1.9-5.6-2.8-7.5
	c-1.8-0.8-1.8-5.6-3.7-7.5c-2.7-3-2.7-4.5,0.4-6.9c0.5-0.4-0.2-2.7-0.5-4.2c-0.2-2.2-0.6-4.4-1.1-8.1c1.7,2.1,2.5,3,3.7,4.5
	c0-3.5,0-6.4,0-9.6c1.4,0.5,2.5,0.9,3.9,1.4c0.2-2.1,0.5-4.2,0.7-6.8c1.4,1.6,2.4,2.7,3.3,3.9c1.8-1.3,3.3-2.5,5-3.6
	c-1.2-1.9-2.1-3.8-2.4-4c1.7-3.5,2.7-6,4.2-8.3c1.7-3,3.7-5.8,6.3-7.9c1.9-8.1,3.7-16,5.7-24.9c0.9,2.2,1.7,3.8,2,4.8
	c2.4-1.9,4.5-3.8,6.6-5.6c0.4,0.3,0.8,0.4,1.2,0.6c-0.6,2.5-1.2,4.8-2,7.9c0.9,0.9,2.3,2.2,3.6,3.5c-0.1,0.4-0.1,0.6-0.2,0.8
	c-3.8,3.9-7.7,7.7-1.5,13.3c3.7,3.2,3.9,7.4,1.1,12c1.4,0.5,2.5,0.8,3.4,1.2c1.9,5.2,1.9,5.2,6.2,5.1c-3.2,6.2-6.5,12.6-9.5,18.3
	c2,2.1,3.7,3.6,5.3,5.3c0.1-0.4,0.2-0.8,0.2-1.2c3,0.9,6.1,1.8,8.9,3c0.6,0.3,0.8,3.1,0.6,3.1c-1.5,0.6-3.3,0.9-5.6,1.4
	c2.1,2.6,4.2,6.1,7,8.2c2.7,2.1,2.5,3.5,1.2,6.2c-1.8,3.5-3,7.4-5,12.7c5.2-2.9,9.3-5.2,13.4-7.5c0.5,0.6,0.9,1.3,1.4,1.9
	c-7.9,3.2-12.5,9-12.3,19c2-0.5,3.7-0.9,5.5-1.3c-1.4,7.9-7.9,14.8-3.8,24.2c3,0.1,6.2,0.3,9.3,0.4c0.1,0.6,0.1,1.2,0.2,1.8
	c-3.1,0.4-6.3,0.9-8.7,1.2c0,2.6,0,6.1,0,9.6c-1.8,0-3.4,0-5.6,0c1.3,1,2.6,2.1,3.9,3c-2.3,3.8-4.3,7.1-7.6,12.3
	c5.6-0.5,9.7-1,13.8-1.4c0,0.5,0,1.2,0.1,1.7c-2.5,0.3-5,0.4-7.5,1c-1.9,0.5-3.8,1.6-5.5,2.9c-0.2,0.3,0.7,3.6,1.3,3.8
	c1.9,0.3,3.9-0.4,5.8-0.6c0.5-0.1,0.9-0.1,3-0.4c-3.6,4.2-6.3,7.3-9,10.5c3.7,6.8,5.3,6.6,10.4,0c1.3-1.7,3.7-2.3,6.6-3.9
	c2.5,1.3,3.1,3.6,0,6.9c-2.3,2.5-5.3,4.2-7,5.5c-3.4,0-6.1,0-8.5,0c-0.1,0.6-0.2,1.2-0.4,1.8c1.3,1,2.6,1.9,4.3,3.2
	c-1.9,1.3,0.2,5.5-3.9,5.8c-0.6,0-1.5,4.7-0.9,6.6c0.7,2.2,3,3.9,4.7,5.6c0.1,0.1,1.9-2.1,3.1-3c2.5-2.1,5-4,7.6-6.1
	c-0.6,7.9-2.4,15.5-9.3,20.7c-3.7,2.7-4.5,7.1-2.7,10.8c1.7-0.9,3.3-1.9,5.7-3.2c-0.2,1.7-0.4,2.6-0.5,4c1.5-0.1,3-0.4,4.9-0.5
	c0.4,2.7,1.7,5.7,0.9,7.9c-0.8,2.6-3.4,4.5-5.9,7.5c3.6,3.9,8.2,0,12.8-1c-1.3,5.8-5.3,8.3-11.7,7.9c-1.4,2.5-2.6,4.7-4,7.1
	c0.7,0.3,1.9,0.5,2.5,0.8c0.1,3.9,0.4,7.7,0.5,12c-0.9,0.3-2.7,0.9-5.8,1.9c2.8,1.6,4.5,2.3,7.8,4.2c-3.6,0.5-5.6,0.8-7.9,1
	c-0.2,2.1-0.5,4.4-1.1,8.8c3.7-1.3,6.4-2.2,9.5-3.2c1.4,2.9,1.3,2.7-3.2,4.4c-2.6,0.9-5.1,2.6-7.5,4.7c8.1,3.2,16,5.7,25.4,2.2
	c-3.9,13.6-12.6,22.7-22.3,33.5c7.2,1.7,13.2,3,20.6,4.8c-3.3,2.2-6.2,4.3-7.9,5.5c-2.5,4.3-4.4,7.5-6.5,11c3.1,0.6,7.2,0.4,9.4,2.5
	c1.7,1.7,0.7,6.4,0.9,10.7c3-2.3,5.2-4.3,8.3-6.8c-1.2-2.6-2.6-5.5-3.9-8.3c1.8,0.1,3.8,0.3,6.1,0.4c0.1,14.6-2.7,17.4-18.7,17.8
	c0.5,4,0.5,4,4.5,3.4c3.2,2.3,5.3,3.9,7.9,5.8c1.8-4,3.4-7.7,5.6-12.6c3.7,12.2-7.1,13-11.5,19.9c5.2,0,8.8,0,12.5,0
	c-2.1,5.7-5.5,7.3-10.1,4.8c-0.4,0.8-0.8,1.3-0.7,1.6c2.5,5.3,5,10.7,7.8,15.8c0.4,0.8,2.7,0.1,4,0.3c1.5,0.3,3.1,0.8,5,1.3
	c1.2-1.6,2.5-3.4,3.9-5.2c0.1,0.5,0.2,1,0.5,1.6c3.4-1,6.9-2.1,11.2-3.4c-2.4-3.1-3.7-4.9-4.3-5.7c-3.6-0.4-6.4,0.1-8.5-1.2
	c-0.8-0.5,0.1-4.5,0.2-7c0.1-2.3,0.2-4.7,0.4-7.1c0.6,0,1.2-0.1,1.8-0.1c0.5,3.4,0.9,6.8,1.5,11.2c2.1-3,3.7-5.1,5.9-8.2
	c-0.5,5.6,1.7,7.5,12.9,13.4c0.2-1.3,0.5-2.6,0.9-5.2c2,3.2,3.3,5.5,4.6,7.7c0.6-0.3,1.2-0.6,1.8-0.9c-1.3-3.5-2.7-7.1-4-10.5
	c-14.1,0-1.2-9.1-3.9-12.6c1.5-0.4,2.8-0.8,4-1c-2-3.9-4-7.9-6.3-12.1c1.1-0.4,2.7-1.2,3.4-1.4c0-6,0-11.4,0-16.8
	c1.4,1.3,3.2,2.7,5,4.2c0.6-0.5,1.3-0.9,1.9-1.4c-1.3-2.9-3-5.6-4-8.4c-1.2-3.1-1.9-6.5-2.7-9.7c0.6-0.4,1.2-0.8,1.7-1.2
	c2.7,2.2,5.6,4.4,9,7.3c-2-7.5-3.8-14.3-5.6-21c0.6-0.3,1.3-0.5,1.9-0.8c1.1,3,2.1,6,3.8,10.7c1.3-6.5,2.3-11.4,3.2-16.2
	c0.5,0.1,0.8,0.3,1.3,0.4c1.4,4.8,2.5,9.6,4.2,14.3c1.4,4,3.4,7.9,5.2,11.8c0.6-0.1,1.2-0.4,1.8-0.5c0.1-1.9,0.2-3.9,0.4-5.8
	c1.2-0.1,2.5-0.3,3.7-0.4c-0.2-4-0.6-7.7-0.8-11.3c0.7-0.1,1.3-0.3,2-0.4c0.7,4.3,0.8,9,2.4,13s4,8.2,7.1,10.9
	c3.9,3.4,7.4,1,8.8-5.6c-2.3,1.2-4,2.1-5.7,2.9c-3.1-4-5.9-7.9-8.9-11.8c0.1-0.3,0.4-0.4,0.5-0.6c2.3,1.4,4.5,2.7,7.1,4.3
	c0.2-1.3,0.4-2.2,0.6-3.6c0.9,1.2,1.8,2.2,2.8,3.5c1.2-2.2,2.1-4.2,3.3-6.5c-7.8-0.6-5.9-7.5-7-12.7c4,5.1,6.5,12.1,14.6,13.9
	c0.4,1.4,1.1,4.3,1.9,7.9c1.3-1.6,2.3-2.6,3.1-3.6c2.7,2.3-4.5,10.3,3.9,9.4c0.5-7.3,0.9-14.4,1.5-22.1c2.5,2.2,4.2,3.8,5.8,5.2
	c0.6-0.1,1.2-0.1,1.8-0.3c-0.2-2.1,0.2-4.7-0.7-6c-2.1-2.9-5-4.9-8.4-8.1c-4,2.1-5.9-1.3-6.3-7.8c1.2,0.8,2.1,1.4,3.1,2.1
	c1.3-7.1-4.2-13.1-10.4-11.4c-4.2,1.2-8.1,4.3-12.6,0.3c-5.5-4.8-7.8-8.7-9-17.9c2,1.6,3.8,2.9,5.6,4.3c0.4-0.3,0.7-0.5,1.2-0.8
	c-1.5-3.2-2.5-7.5-5-9.6c-5.5-4.5-4.9-9.4-2.6-15.1c0.5-1.3,0.1-3.1,0.1-5.7c-7.8,6.8-7.8-1.7-11-4.4c9.1-2.7,11.7-1.9,15.9,4.2
	c0.5-2.6,0.9-5.2,1.5-8.6c-3,0.4-4.9,0.8-7.6,1.2c2-3.6-3.9-7.5,1.8-10.1v-0.1c0.9,0.4,1.9,0.6,2.8,1c0.2-1.7,0.4-3.4,0.7-6.1
	c1.9,2.7,3.3,4.9,5.2,7.8c1.1-2.9,1.8-4.7,1.9-4.9c4.4-0.5,7.7-1,12.6-1.7c-3.7-5.7-6.6-10.5-10-15.7c2.6-1.8,2.8-4-0.5-6.9
	c-1.3-1.2-1.2-4.4-2-8.6c4.4,2.3,6.8,3.6,9.1,4.9c1.3-0.9,2.8-2.1,4.7-3.5c-0.2-0.8-0.8-2.2-1.4-3.8c1.1-0.4,2.4-0.8,2.8-0.9
	c-1.1-5.1-2.1-9.6-3.2-14.7c4.2,1.6,8.4,3.1,13.3,5.1c-0.5-1.6-1.1-3.1-1.5-4.5c1.3-0.9,2.7-1.9,4.5-3.1
	c-6.9-7.8-19.8-9.2-19.3-25.5c3.4,8.4,7.5,13.8,15.4,12.5c0.5-1.2,1.2-3.2,2.1-5.7c-1.1-0.8-2.1-1.6-3.2-2.3c-0.5-0.4-1.4-0.6-1.4-1
	c-1.4-7-4.3-13.4-8.9-19c0.5-0.3,0.9-0.5,1.5-0.8c2.1,1.7,4.3,3.4,6.4,5.1c-1.7-13.1,3.3-20.8,14.4-25.2c-2.3-1.9-3.8-3.2-5.5-4.7
	c1.2-1.7,2.3-3.4,3.7-5.5c0.8,1.6,1.7,3,2.5,4.4c0.5,0,0.9,0,1.5,0c0.5-3.6,0.8-7.3,1.7-10.8c0.5-1.8,1.7-4.8,2.8-4.9
	c4-0.4,4.2-2.7,3.6-6c-1.4-7.7,0.2-9.5,7.5-9.1c1.2,0,2.5-2.3,3.7-3.8c0.2-0.3-0.1-1.3-0.4-1.8c-2.3-5.3-1.4-10,2.5-14.8
	c0.2,1.3,0.2,2.5,0.7,3.1c0.9,1.2,2.1,1.9,3.3,2.9c0.7-1.2,1.8-2.2,2.1-3.5c1.2-4.9,2-10,3.1-15.1c0.6,0.1,1.2,0.1,1.8,0.3
	c0,3.4,0,6.8,0,10.9c1.5-0.9,2.5-1.6,4.5-2.7c-3.1,7.1-8.3,12.6-4.9,21.2c3.3-1.9,6.2-3.5,9.5-5.5c0.8,4.3,1.7,8.3,2.6,12.5
	c-1.7,2.5-6.2,4.8-0.8,8.7c-1.7,1.3-3.1,2.3-3.7,2.9c1.7,2.3,3.2,4.7,4.4,6.4c-3.9,2.5-8.7,3.6-10,6.8c-2.7,6.1,3.4,8.1,7,9.9
	c1.5,0.8,4.6-1.9,6.8-3c-0.4,7.3-2,8.3-16.4,9.9c0.5,1.8,0.8,3.5,1.4,5.7c-1.7-0.3-3.3-0.5-4.9-0.8c-0.2,0.8-0.6,1.4-0.5,1.4
	c1.9,1.6,4.4,4.7,5.6,4.2c3.8-1.6,9-1.2,10.3-7.5c0.2-1.4,3.3-2.1,5.9-3.6c-0.4,4.8-0.6,8.7-0.9,12.7c3.7,0.5,3.7,0.5,8.5-9.1
	c2.5,3.5,4,6.4,0.1,9.9c-1.1,0.9-1.8,3-1.8,4.4c0,3.5,0.5,7,0.7,10.5c-8.5-1.6-11-0.5-14.1,6c5.2,3.8,12.7,0.5,14-6.1
	c4.5,0.9,5-2.7,5.7-6c0.5-1.9,0.7-4,1.1-6.1c0.7,0.1,1.3,0.1,2,0.3c-0.2,2.7-0.4,5.5-0.6,8.4c0.8,0,1.9-0.1,3.4-0.3
	c-1.4,1.8-2.6,3.4-4.6,6.1c2.6-1,4.2-1.6,7.5-2.9c-3.6,5.3-6.1,9.2-8.7,13.1c0.2,0.1,1.7,0.6,3.9,1.4c-2.7,4-5.2,7.5-7.9,11.6
	c1.8,0.6,3.1,1.2,4.5,1.8c-1.2,3.1-2.4,6.4-3.4,9.6c0.6,0.5,1.3,1,1.9,1.6c5.2-6.1,10.6-12.2,16.3-19c-0.8,8.6-2.4,15.5-11,19.1
	c3.6,1.7,5.8,2.9,8.8,4.3c-5.1,4.5-7.2-1.9-11.9-3.1c-0.7,4.5-1.3,9.2-2.4,13.8c-1.3,5.3-4.7,8.3-10.1,8.4c0.5,3.6,0.9,6.9,1.2,9.2
	c-3.7,1.3-7.6,3-11.6,3.9c-1.9,0.4-4.2-0.1-6.1-1c-2.1-1-3.9-2.7-6.3-4.5c-1.5,3.6-3,6.6-3.9,9.7c-0.6,2.1-0.6,4.4-0.9,6.6
	c2,0.1,3.9,0.3,5.8,0.3c0.2-3.9,0.4-7.3,0.7-11.7c3.2,2.3,5.7,4.2,8.2,6c2.6,1.7,5.9-3.1,9,1.3c1.4-1.2,2.8-2.3,4.5-3.8
	c0.6,3.4,1.3,7,1.9,10.8c0.5,0.1,0.9,0.1,1.5,0.3c1.5-4.2,3.1-8.2,4.6-12.2c1.5,3.5,3,6.8,4.4,10c3.7-2.6,6.6-4.8,9.8-7
	c0.8,5.5,0.5,5.7-5.3,8.6c-1.3,0.6-2,2.7-3,4.2c0.5,0.4,0.9,0.8,1.3,1.2c2.6-1,5.1-2.2,9.1-3.9c-4.5,7.5-11.2,10.5-17.4,8.7
	c-0.5,1.7-0.9,3.5-1.7,5.8c-5.8-4.8-10.9-4.3-14.9,2.6c1.5,2.6,3.2,5.5,5.1,8.7c4.2-0.9,8.3-1.9,12.8-3c1.3,3.4,0.5,6.1-2.7,8.3
	c-2.5,1.7-4.9,3.5-7.2,5.3c0.1,0.8,0.4,1.6,0.5,2.3c3.2,0.8,6.4,1.4,10.1,2.3c-4.4,2.5-7.7,7.5-14.9,4.7c2.3-1.3,3.3-1.9,5-3
	c-1.7-1.8-3.1-3.5-4.5-5.2c1.1,4.4-7.4,7.7-1.4,11.2c-0.9,2.2-1.9,4.3-2.5,5.6c-2.7,0-5,0-7.4,0c-5.6,0-10-4.5-13-11.6
	c-0.9-2.2-4.2-3.2-7.4-5.7c-0.7,10.1-1.4,18.6-2,27c0.5,0.1,0.9,0.3,1.4,0.4c0.6-1.6,1.2-3,2.3-6c2.4,9.6,6.8,7,11.4,3.4
	c0.7,1.6,1.3,2.7,2.3,4.7c1.9-1.9,3.8-3.6,5.7-5.6c1.9,1.6,4.2,3.2,6.9,5.5c0-2.3,0-3.8,0-5.6c1.4,1,2.7,2.1,3.9,3
	c1.7-3.4,2.5-7.8,4.9-9.4c2.4-1.6,6.4-0.4,10.8-0.4c-2.3,2.7-4.3,5.2-6.1,7.4c0.8,2.5,1.8,5.3,3.2,9.2c1.9-2.2,3.6-4.3,5.3-6.2
	c0.4,0.1,0.6,0.3,0.9,0.5c-1.7,2.9-3.2,5.7-4.7,8.4c3.9,1.7,5.9,0.8,10.8-6.5c0.6,1.2,1.1,2.2,2.1,4.3c1.2-1.7,2.3-3.2,3.7-5.1
	c-0.4,10.8-9,8.6-14.4,12.1c1.2,0.4,2.3,0.8,3.2,1.2c0,0.5-0.1,1-0.1,1.6c-1.5-0.1-3.3,0.1-4.6-0.5c-6.9-3.8-16.8,2.9-16.5,11.3
	c0.1,1.7,1.9,4.7,3.1,4.8c4.4,0.6,3,3.1,2.5,6c-0.9,6.2-1.5,12.5-2.1,18.7c-0.1,0.8,1.4,2.2,2.3,2.3c0.8,0.1,2.3-1.2,2.4-2.1
	c0.2-1.7-0.4-3.4-0.7-5.7c3.1-5.5,6.6-11.6,10.4-18.3c0.5,4.7,0.8,8.8,1.2,13.6c1.5-0.6,3.3-1.3,5.1-2.1c-0.9,2.7-1.9,5.5-2.8,8.2
	c0.5,0.4,0.9,0.6,1.3,1c1.8-1.3,3.7-2.7,6.5-4.9c-3,5.3-5.3,9.6-7.8,13.9c0.5,0.4,0.7,0.8,0.9,0.9c1.4,0.4,4.5-2.6,5.1-4.3
	c1.5-4,3.2-8.1,4.9-12c0.5,0.3,1.1,0.5,1.5,0.8c-1.4,3.6-3,7.3-4.6,11.4c2.4,1,5.3,2.3,6.9,3c2-2.1,3.6-3.6,5.2-5.3
	c0.9,2.3,1.7,3.9,2.3,5.6c0.6-1.6,1.2-3.1,1.7-4.7c0.8-2.5,0.1-6.5,5-4c0.8,0.4,4.4-4.9,6.3-8.1c1.3-2.1,1.8-4.8,2.6-7.3
	c0.7,0.3,1.4,0.4,2.1,0.6c0,4,0,8.1,0,12.6c2.1-0.5,4.3-1,7.1-1.7c-2.7,3.6-5,6.6-7.8,10.4c3.2,0.5,5.1,1,7,1
	c6.8,0,9.3,4.8,6.1,11.8c-0.7,1.7-1.5,4-1.1,5.5c1.7,4.5,0.5,8.2-2.3,11.2c-4.9,4.9-4.3,10.8-3.3,16.9c2.1-0.3,4.5-0.4,7.9-0.6
	c-3.4,5.2-6.2,9.2-9.6,14.4c5-2.2,9.1-4.2,13.4-6c0.8,1.6,1.7,3,3.1,5.8c1.2-3.6,1.9-6.2,2.7-8.6c4.3,4.8,4.2,6.9-1.1,11.2
	c-4,3.4-7.7,7.3-12.6,9.7c-2.7,1.6-3.8,6.9-5.7,10.5c-1.1,2.2-2.1,4.4-3.7,7.8c0.5,0.9,1.9,3.5,2.7,4.9c2.7-2.5,5.8-5.1,8.8-7.9
	c0.6-0.6,0.5-2.1,0.9-3c0.7-1.4,1.8-2.7,2.4-4.2c2.7-6.6,11.5-8.8,9.7-18.8c0.7,0.3,1.4,0.6,2.1,0.9c-0.2,4-0.5,7.9-0.8,12
	c-0.1,1.6-0.5,3.1-0.7,4.7c1.7-0.3,3.2-0.5,4.9-0.8c3.4,4.4-12.2,4-1.7,10.9c-3.1,2.1-5.6,4-8.2,5.8c0.1,0.4,0.2,0.8,0.4,1.2
	c2.1-0.1,4.3-0.4,6.3-0.5c0.4,0.5,0.8,1.2,1.2,1.7c-4,4.4-8.2,8.8-12.1,13.3c0,4,0,8.3,0,12.6c0.4,0,0.7-0.1,1.1-0.1
	c1.2-4.5,2.5-9.2,3.7-13.8c0.9-0.1,1.9-0.3,2.7-0.4c2.1,4.9,4.3,9.7,6.5,15.1c4.7-3.5,1.9-15.8,12.3-12.1c1.4-2.3,2.8-4.9,5.1-8.7
	c0.4,4.3,0.6,7,0.8,9.9c-7.6,1.6-12.3,8.2-10,14.2c1.7-2.3,3.3-4.5,5.3-7.3c5,7.5-1.2,9.5-4.4,13.1c-0.8-1.6-1.7-3.1-3.4-6.2
	c-3.6,6.5-6.4,12-10,18.4c5.5-2.6,9.8-4.7,14.2-6.8c0.4,0.4,0.7,0.8,1.1,1.3c-3.2,3.2-6.5,6.4-9.6,9.6c-1.5,1.6-2.7,3.5-4.6,5.8
	c5.6,1.3,9.8,8.4,14.4-0.5c0.5,0.5,1.1,0.9,1.5,1.4c-0.8,4.2-1.7,8.3-2.6,13c2,0.1,3.7,0.3,5.8,0.3c-0.4,3.2-3.1,7.4,3.1,8.4
	c0.8-1,2-2.5,3.3-3.9c0.5,7.7-8.7,4.7-10,11.8c3.2-0.3,6.2-0.4,9-0.8c0.1,0-0.1-2.2-0.2-3.9c9.1,0.3,2.4,12.6,8.7,13.9
	c1.8-1.3,3.4-2.7,5.5-4.3c-0.1-1.3-0.4-3.1-0.5-5.2c1.8-0.5,3.2-0.9,5.1-1.4c0.2,1.7,0.5,3.1,0.9,5.8c3.8-6.6,7-12.3,10.4-18.2
	c6.2,8.1,7.1,16.1,3.6,24.8c0.5,0.3,0.9,0.6,1.4,0.9c2.4-3.1,4.7-6.2,6.1-7.9c2,4.8,4.3,10,6.5,15.5c2.6-3.5,5.2-7.1,7.7-10.7
	c1.5,6.6,3,13.1,4.4,19.5c0.2,1,0.4,2.1,0.4,3.2c-0.2,5.7-0.2,5.7,3.7,6.6c2.6-3.6,5-6.8,7.1-10c0.9-1.4,1.4-3.4,1.8-5.2
	c0.6-3.5,0.9-7,2.6-10.4c0.5,5.3,0.9,10.7,1.4,16.1c2,2.7,4.3,5.7,6.4,8.8c0.5-0.1,0.9-0.4,1.3-0.5c0-8.8,0-17.8,0-26.6
	c0.7,0,1.4,0,2.1,0c0,7.9,0.7,15.8-0.2,23.6c-0.6,5.1,2,7.9,3.6,11.7c0.2,0.6,1.3,0.9,1.5,1.6c3.3,8.6,3.2,8.6,12,6.9
	c-0.9-2.1-1.8-4.2-3-7c2.5-0.6,4.7-1.3,7.5-2.1c-0.4-1.4-0.7-3.4-1.2-5.3c0.4,0.1,0.7,0.4,1.1,0.5c1.9-5.8,3.8-11.7,5.7-17.5
	c0.5,0,1.1,0.1,1.5,0.1c0,2.6,0,5.2,0,7.5c3.7-1.2,7-2.3,10.3-3.4c0.1-2.1,0.4-4.7,0.7-8.6c1.8,3.2,7.7,2.5,4.4,6.5
	c-0.1,6.8,8.5,8.6,4.6,16.4c-0.4,0.8,1.5,3,3.9,4.5c1.2-4.8,2.5-9.7,3.3-13c2.6,0.3,4.6,0.4,4.9,0.5c1.4-10.7,2.7-19.7,3.9-28.8
	c0.5-0.1,1.1-0.3,1.5-0.4c0.6,1.9,1.4,3.9,1.7,5.8c0.5,3.9-0.5,8.3,1.1,11.6c1.3,3,4.7,6.1,7.6,6.6c4.3,0.6,9.5,0.6,12.8-5.2
	c0,5.1,0,10,0,14.2c2.7,0.6,5.9,1.3,9.7,2.1c-2.4,3.2-4.5,6.2-6.6,9.4c2.4,2.1,4.3,3.8,6.8,6c5-2.3,10.9-4.4,16.3-7.7
	c4.6-2.7,9.7-6,8.2-13.6c5.7,4.9,9.8,11.3,14.8,12.1c4.5,0.8,9.7-4.7,15.8-7.9c0.1,0,1.9,0.8,3.7,1.6c0.4-0.5,0.7-1,1.1-1.6
	c-1.3-1.6-2.6-3.1-3.3-3.9c2.5-3,5.1-6.4,7.5-9.2c-4.7-11.7,0.6-22.2-0.4-33c0.8,0,1.5-0.1,2.4-0.1c0.6,7,0.8,14.2,2,21
	c1.3,7,3.6,13.8,5.3,20.4c4.7-0.4,4.3-0.5,5.5-6.9c1.7-9,3.4-18.1,6.5-26.4c2.1-5.6,6.5-10.1,10.3-14.7c0.6-0.8,3.7,0,4.9,1.2
	c1.4,1.4,2.5,3.8,3,6c1.1,4.3,1.5,8.8,2.3,13.1c0.1,0.8,0.8,2.1,1.3,2.1c1.2,0,2.8-0.1,3.4-1c0.9-1.4,1.2-3.5,1.4-4.3
	c2.3,7,4.9,14.8,7.6,23.1c1.5-3.6,3-7,4.4-10.3c0.6,0.3,1.2,0.4,1.7,0.6c0.7,1.9,1.4,3.9,2.1,5.8c0.2-0.3,0.4-0.6,0.6-0.9
	c2.6,1.9,5.2,3.8,8.1,5.8c2.5-6.2,5.3-13,7.8-19.2c1.1,1.3,2.3,2.9,3.9,5.1c0.7-2.9,1.2-4.5,2-7.7c2,6.8,3.4,12.2,5.2,17.7
	c0.9,2.9,2,5.7,3.6,8.1c1.4,1.9,4.4,5.1,5.2,4.5c2.6-1.6,7.4-1.8,6.3-7.5c-0.2-1.2,1.1-2.6,2.1-4.9c3,10.5,7.8,0.8,10.3,2.2
	c1.1-3.1,2.6-5.8,2.8-8.7c0.5-4.7,0.1-9.5,0.4-14.2c0.2-2.7,1.4-5.2,1.7-7.9c0.2-2.5,0-5.1,0-7.5c0-1.6-0.5-3.1-0.2-4.7
	c1.5-8.8,3.1-17.8,4.9-26.6c0.2-0.9,1.8-1.6,2.3-1.9c1.8,4,4,7.7,5,11.7c0.7,3.1-0.6,6.8-0.7,10.1c0,2.2,0.5,4.4,0.7,7.1
	c1.7-1,2.8-1.7,3.9-2.3c0.2,0.6,0.6,1.4,0.5,1.4c-2,1.2-4,2.3-6.1,3.5c-0.5-0.5-0.9-1-1.3-1.4c-0.4,2.5-0.6,5.1-0.9,7.9
	c4.2-1,7.4-1.8,10.9-2.7c1.1,4.4,1.9,8.2,3,12.9c2.4-2.2,4-3.6,5.8-5.2c-4.5-7.7-4.5-7.7,2.3-13.3c0.7-0.5,1.1-1.8,1.4-2.7
	c3-6,6.1-12,9.1-17.9c3,2.5,5.1,4.4,8.1,7c0.5-3.5,0.7-5.6,1.1-7.7c0.6-2.5,0.7-5.7,2.1-7.1c4.4-4.2,8.3-7.9,3.6-14.7
	c-0.5-0.6,0.1-1.9,0.2-4.3c-3.2,1.8-5.6,3.8-8.2,4.4c-2.4,0.5-5.1-0.8-7.6-0.8c-3.1,0-6.1,0.6-9.7,1.2c5-3,9.5-5.7,14-8.3
	c0.6-0.4,1.4-0.4,2.3-0.3c4.6,0.5,9.4,2.1,13.8,1.2c2.6-0.5,4.5-4.9,7.1-7.9c-2.5-0.8-4.2-1.3-5.7-1.7c0.2,0.6,0.4,1.2,0.6,1.8
	c-2.3,0.9-4.5,1.7-7.6,2.9c0.6-2.7,0.9-4,1.2-5.3c-2.4,0.3-4.9,0.4-8.4,0.8c-1.7-2.3-4-5.8-6.4-9.4c1.8-1.4,3-2.5,4.2-3.5
	c-1.5-1-3-2.2-4.5-3.2c-0.9-0.6-1.9-1.3-2.8-1.9l-0.1,0.3c3.6-1.7,7.2-3.4,10.9-5.2c0-1.8,0-3.5,0-5.7c-1.4-0.5-3-1-4.9-1.7
	c0.4-0.8,0.5-1.4,0.7-1.7c3.3-3.6,6.5-7.4,10.1-10.7c1.4-1.3,3.7-1.9,5.7-2.2c4.6-0.4,6.2-3.6,4.2-8.3c-0.7-1.6-0.4-3.8-0.5-5.6
	c-0.4-7.1,3.2-13.8,2.3-21c-0.1-1.3-0.6-3.4-1.2-3.6c-4.7-1.4-9.7-2.6-14.6-3.6c-0.6-0.1-1.3,0.8-2.1,1.2c0.4,2.2,0.7,4.3,1.1,6.2
	c-0.6,0.1-1.2,0.3-1.8,0.4c-0.5-2.3-0.9-4.7-1.4-6.9c-2.5-2.1-5.5-4.4-7.4-5.8c2.1-3.5,3.3-5.7,4.7-7.7c1.7-2.1,3.6-3.8,5.8-6.1
	c-1.1-0.5-3.3-1.6-5.9-2.9c0.9-1.7,2-3.6,4-7.3c-6.2-0.8-11.3-1.3-16-1.8c0.5-1.3,1.5-3.5,2.4-5.7c-2-0.9-3.7-1.4-5.1-2.3
	c-0.8-0.6-1.8-1.9-1.8-3c0-0.8,1.3-1.8,2.3-2.2c2.3-0.9,4.7-1.6,7.1-2.2c-1.1,3.4-0.8,5.8,2.1,6c2-1.9,3.6-3.4,5.9-5.7
	c-1.5-1.2-3.7-2.9-5.7-4.5c0.7-0.4,1.9-1.3,2-1.2c5.3,6,9.7-2.7,14.8-1.4c0.6,0.1,2.1-3.9,3.2-5.8c-2.1-1.2-5-2.3-4.9-2.9
	c0.7-3.6,1.4-9.6,3.2-10.1c7.5-2.3,7.2-7,4.5-14c-2,2.6-3.7,4.9-5.5,7.1c1.8-4.9-6.3-9.4-1.4-14.8c3,1.4,5.3,2.6,9,4.4
	c-0.5-11.2-0.8-21.4-1.3-31.8c0.6-0.1,1.3-0.1,1.9-0.3c0.1,16.5,0.9,32.9,4.7,48.7c0.6-0.1,1.1-0.3,1.7-0.4
	c-0.1,2.5-0.4,4.9-0.5,7.4c0.5,0.1,1.1,0.1,1.5,0.3c1.2-1.6,2.5-3.1,3.9-5.1c4.5,8.6,10.3,2.7,15.1,2.5c0-3.1,0-5.7,0-8.3l-0.2,0.3
	c0.6,0,1.2,0.1,1.8-0.1c4-1.9,8.1-3.9,12.5-6.1c0.6,6.5-3.4,5.3-6.8,6.6c1.2,0.8,2.4,1.6,3.6,2.2c-0.9,2.2-2,4.4-3,6.6
	c0.5,0.3,0.9,0.5,1.4,0.8c0.5-0.9,0.8-1.9,1.8-3.9c2.5,3,4.5,7.1,7.2,7.9c3.8,1.2,8.7,0.9,12.2-0.8c1.8-0.9,2.7-6.2,2.5-9.5
	c-0.2-3-0.4-4.3,1.4-7.1c2.4-3.6,3.3-10.3,2-14.4c-1.5-4.8,0.9-7,2-10.7c1.1,3.2,1.9,6.2,2.8,9.1c-1.1,8.1-2.5,16.6-3.2,25.2
	c-0.1,1.6,2.5,3.4,3.9,5.1c1.4,7,7.2,9.6,13.3,6.2c-1.7-1.2-3.2-2.7-5.1-3.6c-2.7-1.2-5.6-1.7-8.3-2.5c5.3-7.7,7.5-8.2,14.8-4.4
	c1.4,0.8,3.4,0.3,5.2,0.3c-0.4,2.3-0.8,4.8-1.2,7.1c0,0.1,0.2,0.4,0.5,0.8c1.5-0.5,3.1-1.2,6.2-2.2c-0.6,3.6-1.1,6.2-1.5,9.2
	c1.1-0.3,2.5-0.5,4-0.8c0.4,0.4,0.7,0.6,1.1,1c-2.4,3.1-5.2,6-6.9,9.6c-1.3,2.6-1.2,6-1.8,9.1c0.6,0.3,1.2,0.5,1.7,0.6
	c1.8-1.2,3.6-2.3,6.8-4.5c-1.7,3.4-2.5,5.5-3.2,6.9c3,2.6,5.9,5.1,9.6,8.2c0-18.7,0-37,0-55.3c0.2-0.1,0.6-0.1,0.8-0.3
	c0.6,4.3,1.7,8.6,1.9,12.9c0.4,8.3,0.1,16.6,0.1,24.9c0.1,11.6,0,23,0.4,34.6c0.1,4.8,0.9,9.5,1.4,13.6c3.8,1.9,7.7,4,11.7,6
	c-2.1,3.9-4.4,7.9-7.1,13.1c-1.5-3.9-2.5-6-3.7-8.8c-3.7,5.6-0.8,7.8,2.8,9.6c-9.1,12.5-3.1,25.9-3.3,40.8
	c6.9-5.2,12.7-9.5,18.2-13.6c-2.3,8.4-7.7,14.4-15.3,18.8c-1.9,1.2-2.8,4.3-5.1,8.1c3-0.8,4-1,5.6-1.4c-0.5,0.9-0.6,1.6-0.9,1.8
	c-3.8,1.9-3.7,6.6-1.8,7.9c5.5,3.6,2.4,7.4,1.7,12.2c5.5-3.5,10.9-7,17.3-11c-2.6-0.1-4.2-0.3-6.2-0.4c-0.2-2.6-0.5-5.3-0.7-8.1
	c0.4-0.3,0.7-0.5,1.1-0.8c2.8,3.6,5.6,7.4,8.4,11c2.1-9,8.7-5.7,13.9-6.5c0.2,0.5,0.6,1,0.8,1.6c-4.4,2.3-8.9,4.7-13.3,7
	c0.1,0.4,0.2,0.9,0.5,1.3c1.7,0.3,3.3,0.4,5.7,0.8c-1.1,1.3-1.8,2.1-2.5,3c1.2,0.5,2.6,1,3.8,1.6c1.3-2.6,2.5-4.8,4-7.5
	c1.8,4.7-0.4,8.3-5.7,10.8c1.3,0.8,2.3,1.4,3.2,2.1c-0.4,0.4-0.6,0.6-0.8,1c-1.4,1.6-2.7,3-4.2,4.5c2.3,0.9,4.5,2.5,6.6,2.5
	c3.7,0.1,7.4-0.9,11-1.2c0.6,0,1.7,0.5,2,1.2c1.8,4.3,5.9,5.2,9.1,7.3c1.8,1.2,4.3,1,6.4,1.6c0.6-7.7,1.2-14.8,1.8-22.9
	c-3.2,0.8-5.9,1.6-9,2.3c0.2,2.1,0.5,3.8,0.5,4.5c-2.6,0.1-5,0.4-7.8,0.5c0.9-1.4,2.3-3.2,3.7-5.3c-0.9-0.8-1.9-1.6-3.2-2.7
	c2.1-0.4,3.7-0.8,6.4-1.4c-2.1-3-3.7-5.2-5.9-8.4c3.9-3.9,7.8-7.9,13-13.1c-2.3,5.3,3.4,10.7,6.9,8.6c3.1-1.8,5.7-4.8,8.7-7.4
	c-3.9-1.6-8.4-3.2-13.5-5.2c3-1.8,4.7-3,6.1-3.8c-1.5-4.5-2.7-8.2-4.2-12.3c1.9-1,3.6-1.8,5.3-2.7c-2.4-6.5-4.9-6.8-13.5-1.2
	c0-1.9,0-3.8,0-5.2c2.4-1.3,4.7-2.5,7.6-4c0.6,1.4,1.1,2.7,1.7,4.3c5.9-2.9,11.7-5.7,17.4-8.4c-0.1-0.8-0.2-1.7-0.4-2.5
	c-4.4-2.3-8.3-5.6-14.2-2.9c-4.7,2.2-10.1,2.7-16.3,4.3c0.2-0.5-0.5,1.6-0.9,1.6c-1.8-0.1-3.4-1.2-6.6-2.3c-4.7,0.6-7.9,10-15.5,7.7
	c0.4-3.9,0.8-7.7,0.8-11.4c0.2-6.5,5.3-4.9,8.4-6c6.3-2.2,9.8-6.2,10.2-14.8c1.2,2.2,1.8,3.4,2.5,4.5c2.4-4.4,4.4-9.1,7.2-13
	c2.7-3.8,6.2-6.8,9.4-10.1c0.4,0.4,0.7,0.8,1.1,1.2c0.2-2.3,0.5-4.5,0.6-6.4c-1.9-1.9-3.9-3.9-6.4-6.5c-1.7,2.9-3.6,5.8-5.8,9.7
	c-2.6-1.2-6.1-2.7-8.2-3.6c-1.3-4.5-2.4-8.2-3.4-11.8c-0.6,0.1-1.2,0.3-1.8,0.4c0.1,2.6,0.4,5.3,0.5,7.9c-0.4,0.1-0.6,0.1-0.9,0.3
	c-0.7-1.8-1.4-3.6-2.4-6.4c-5.7,3.4-11.3,6.5-17.1,9.9c-0.2-2.7-0.5-4.9-0.7-7.5c1.3-0.1,2.5-0.4,4.3-0.5c-1.5-1.4-2.5-2.3-3.4-3.2
	c4.4-7,6.4-7.3,14.5-2.7c1.1,0.6,2.8,0,4.2-0.6c0.7-0.3,1.1-1.7,1.4-2.7c0.8-2.3,1.5-4.8,2.5-7.7c5.1-0.3,8.5-2.3,5.1-9.4
	c-0.7,0.6-1.3,1.2-1.9,1.8c-0.5-1-1.3-1.9-1.3-3c0-3-0.4-6.2,0.7-8.7c0.9-2.2,3.7-3.8,5.8-5.2c3.7-2.3,9.6-2.3,7.8-10
	c-0.2-0.9,2.5-3.6,3.6-3.5c2.8,0.4,5.2,0,4.5-3.4c-0.4-1.4-3.9-1.9-6.2-2.6c-0.8-0.3-1.9,0.4-1.9,0.4c-0.9-2.3-1.2-5.2-2.5-5.8
	c-1.9-0.9-4.5-0.3-6.9-1.3c3.3-0.3,6.6-0.1,10-0.6c4.6-0.8,9.4-1.7,13.9-3c2.7-0.8,2.8-6.4,0-8.4c-2.1-1.6-5-2.1-6.9-2.9
	c-0.2,3.6-0.5,6.2-0.6,9.2c-4.3,0.3-8.3,0.6-12.3,0.8c-4.7,0.3-9.3,0.8-8.5,8.8c-9.7-3.6-8.9,5.5-11.9,10c1.2,0.6,2.3,1.3,2.4,1.4
	c-6.3,1-13.2,2.3-20.3,3.5c0.5-2.7,1.3-6.6,2.4-12.1c-2.6,0.6-4.7,1.3-7,1.8c-0.6-1.7-1.5-4-2-5.3c5.3-4.9,10.3-9.6,16.1-14.9
	c-3.3-1-4.9-1.6-7-2.2c2-1.7,3.6-3,5.2-4.4c0-2.5,0-5.1,0-8.3c4.2,3.8,10.8,1.4,13.5-3.2c0.8-1.4,3.4-1.7,5-2.7
	c1.9-1.2,3.6-2.7,5.1-5.1c-3.8-1.2-8.1-0.4-7.9-6.2c-1.5,0.1-3,0.1-3.6,0.3c0-3.8,0-8.8,0-15.1c3.2-0.6,7.7-1.4,11.4-2.2
	c-4.2-3.1-9.1-6.9-13.9-10.8c-0.8-0.6-0.6-2.7-0.8-4.3c0.8,0.4,1.7,0.8,3.1,1.3c0.7-4,1.4-7.8,2.3-12.1c0.7,0.4,1.5,0.8,2.5,1.3
	c2.7-3.9-0.4-12.2,6.3-12c2.8-7.4,5.5-14,8.2-21c-4.5,1-7.7,1.7-10.8,2.3c-0.1-0.5-0.1-1-0.2-1.4c4.2-1.8,8.3-3.6,12.7-5.6
	c-0.2,3.4-1.1,6.8-0.5,7.1c2.1,1,5.2,2.3,7,1.4c3.1-1.8,5.7-4.9,8.1-7.9c0.5-0.6-0.2-3.8-0.7-3.9c-4.2-0.8-8.4-1.7-12.6-1.3
	c-5.6,0.5-11,2.3-16.6,3.5c-0.2-0.8-0.5-1.6-0.7-2.3c2.7-1.7,5.3-3.4,8.2-5.1c-1.4-1.6-3.2-3.6-5.6-6.5c3.1-1.4,5.3-2.3,7.5-3.4
	c-2.7-2.7-5.6-5.7-8.5-8.7c0.2-0.4,0.6-0.8,0.8-1.2c1.3,0.6,2.5,1.4,4.3,2.3c0.2-4.4,0.5-8.3,0.8-12.9c6.2,4.2,5.9-0.1,6.2-4.8
	c0.7,1.6,1.4,3.1,2.1,4.5c0.5,0,1.1,0,1.5,0c0-2.1,0.7-5.3-0.1-5.8c-6.1-4.2-1.8-9-1.4-14.7c0.9,1.4,1.3,1.9,1.5,2.5
	c0.7,1.6,1.4,3,2.1,4.5c1.3-1.2,3.4-2.1,3.8-3.4c1.4-5.6,3.4-7,8.1-3.4c1.1,0.8,3.4-0.4,6.3-0.9c0.5,2.9,0.9,6,1.4,8.7
	c0.9,0.6,2.4,1.7,3.7,2.7c-0.1-0.4-0.1-0.8-0.2-1c5.3,0.8,10.8,1.4,16.7,2.2c0.4-5.5,0.9-10.7,0.7-16c0-1.3-2.8-2.5-4.6-3.8
	c0.6-0.9,1.7-2.5,3.1-4.5c-2.4-0.5-3.9-0.8-6.6-1.4c2.6-4.4,5-8.3,7.2-12.2c0.4,2.6,0.7,5.5,0.9,7.9c3-3.6,4.9-6.8,7.4-9.2
	c4.4-4.2,4.7-19.7,0.5-24.3c-1.4-1.6-2.3-3.6-3.4-5.6c0.5-0.4,0.9-0.6,1.4-1c2.5,2.6,4.9,5.3,7.5,7.7c0.5,0.4,2-0.1,2.7-0.6
	c0.5-0.5,0.8-2.3,0.5-2.7c-5.1-6.9,0.4-12,2.3-17.8c1.3,1.8,2.5,3.5,3.8,5.2c0.5-0.1,0.8-0.4,1.3-0.5c-0.6-1.8-1.5-3.5-1.8-5.3
	c-0.2-1.6,0.4-3.4,0.6-5.1c1.2,1,2.4,2.1,3.4,3.2c0.4,0.4,0.5,1.2,0.9,2.3c1.5-0.8,3.1-1.4,5.2-2.5c2,4.7,4.2,9.5,6.4,14.6
	c3.4-1,2-9.5,7.9-8.6c1.2,0.1,2.1,2.2,3.3,3.5c0.4-0.3,1.2-1,3-2.6c0.2,3.8,0.5,6.4,0.6,9.1c0.2,4.8,0,8.8,4.2,13
	c2.8,3,2.1,10.1,3.1,15.5c-0.6,0.5-1.2,1-1.8,1.6c3.2,0,6.4,0,10.6,0c-2.3,3-3.9,5.2-6.6,8.8c2.5-0.6,3.4-0.9,5-1.4
	c0.2,2.7,0.4,5.6,0.6,8.7c2.8-1.6,5.3-3,7.9-4.4c5.8,7.4-7.2,9.7-2.5,16.6c-10.3-1.7-8.3,8.8-12.1,13.5c1.9-1.6,3.7-3.2,5.1-4.4
	c2.1,0.5,4.2,0.9,6.3,1.3c-0.2,2.6-0.5,5.8-0.7,9.9c4.2-0.8,7.2-1.2,10.6-1.8c1.1,1.9,2.5,4.5,4.3,7.9c-1.8,1.2-3.7,2.6-5.6,3.9
	c-2.4-2.3-4.4-5.1-7-7c-3.1-2.5-6.6-4.2-10-6.4c-4.5-3-7.8-0.8-8.2,5.7c1.8-0.5,3.4-1,4-1.2c1.1,3.6,2,6.6,3.1,10
	c2-1.3,3.4-2.3,3.9-2.6c0.8,1.7,2,5.1,2.5,4.9c3.9-0.9,7.8-2.3,11.6-3.8c-0.6,2.9-2.6,5.6,1.5,8.1c4.9,3,6.9-1.7,8.9-3.6
	c4.7-4.7,6.4-6.2,12.1-6.4c0.6-1.2,1.2-2.6,2-3.8c0.6-1,1.4-1.9,2.3-3.2c-3.6-4-7.2-8.1-3.2-14.6c-4-1.3-7.7-2.6-11.6-3.9
	c-1.4-3.6-3.2-8.2-5.3-13.6c3.8,0,7,0,12,0c-2.8,2.3-4.5,3.8-6.9,5.7c2.1,0.8,4.2,1.9,6.2,2.2c2.1,0.3,4.5,0.1,6.4-0.8
	c1.1-0.5,2-3.4,1.7-4.8c-0.6-3-2.3-5.6-3.1-8.4c-0.5-1.8,0.1-3.9,0.1-5.8c0-1.6,0.5-3.5-0.1-4.4c-0.6-0.8-2.5-0.5-3.9-0.5
	c-2.6,0-5.2,0.3-7.9,0.4c0.1-11.6,9.7-6.8,14.2-10.4c-2.4-3.4-4.6-6.6-7.1-10.1c-0.2-3.1-0.6-7.1-1.1-12.3c1.9-3.8,4.7-9.1,7.8-15.3
	c-1.8-1.6-4.2-3.5-7.2-6.2c2.7-0.3,4.7-0.4,7.2-0.6c0.7,2.7,1.5,5.5,2.5,8.8c1.1-3,1.9-5.5,2.5-6.9c5.3,1.2,9.5,2.1,13.8,3.1
	c-0.7,1.2-1.8,3-2.8,4.9c1.3,1.2,2.5,2.3,3.8,3.5c-0.8,0.9-1.7,1.9-2.8,3.4c2.3,0.8,4,1.6,6.3,2.5c1.1-2.3,2.1-4.5,3.1-6.5
	c2.7,2.1,5.5,4.4,8.9,7c3.6-9.2,16.1-9.9,14.9-23.3c-3.9,0.3-7.9,0.4-11.2,0.6c5.2-4.8,4.5-12.3,3.6-20c6.3,2.3,12,0,15.8-6.2
	c5.1-8.3-5.1-7.8-5.9-11.7c2.8-3.4,5.2-6.4,7-8.6c0.9,2.6,1.9,5.6,3.2,8.4c0.2,0.5,2.4,0.8,3.1,0.3c1.1-0.8,2.4-3,2.1-3.4
	c-4-5.1,2-6.1,2.6-10c1.3,2.3,2.1,3.9,3.3,6.2c2-4.8,3.8-8.8,5.6-12.7c0.2,0.1,0.5,0.3,0.7,0.4c-0.2,5.6-0.6,11.3-0.9,17
	c8.5,3.4,6.6-7.5,12.5-9.9c-0.8,6.9-1.5,13.3-2.4,20c1.7-0.5,3-1,4.7-1.7c-0.1,3-0.2,6-0.4,7.1c-2,4.3-3.3,7.3-4.9,10.5
	c-2.5,1.2-5.6,2.5-8.7,3.9c0.1,0.6,0.1,1.3,0.2,1.8c2.4,1.3,5,2.2,7,3.9c0.8,0.8,0.9,4.4,0.2,4.9c-7.2,5.1-7.2,4.9-1.9,13.9
	c2.7-3.4,5.2-6.5,8.2-10.3c1.2,2.7,2,4.8,2.5,6c3.1-2.3,6.3-4.5,9.1-7.3c1.9-1.9,4.5-6.4,4.2-6.9c-2.5-3-4.7-8.7-11-1.6
	c3.4-9.6,7-16,14-21.4c-4.3,17.1-3.9,19.7,1.7,20.1c0-3.4,0-6.9,0-10.3c5.2,8.8,13.5-7.3,17.3,3.9c2-1.2,3.7-2.2,4.7-2.7
	c0.5-6.1,0.8-11.6,1.2-16.9c0.8-0.1,1.7-0.4,2.5-0.5c1.8,3.9,5.1,7.9,5.1,12c0.5,23,0.2,46-1.1,69.1c-0.2-1.4-0.4-2.7-0.7-5.1
	c-4,2.3-7.5,4.4-10.7,6.2c-1.2-0.9-3-2.3-5.6-4.4c0.1,5.7,1.2,11.2-5.5,6.1c-1.5-1.2-4.7,0.6-7.1,0.4c-5.9-0.8-8.4,3.6-11.4,7.9
	c-1.1,1.6-3.9,1.6-6.4,2.5c0.5,1,0.9,2.2,2,4.5c-5.9,2.6-11.7,5.2-17.6,7.8c-0.1-0.4-0.4-0.6-0.5-1c2.3-1.4,4.5-3,7.6-4.9
	c-5.3-3.9-7.6-0.4-9,2.6c-5.1,11-5.5,21.4,3.2,29.8c3.7-3.1,7.5-6.4,11-9.4c1.8,0.8,3.9,1.7,6.3,2.7c-0.5,3.9-1.1,8.4-1.7,12.7
	c6.1,2.3,11.6,1.3,15.1-6.5c-0.9-0.9-2.3-2.3-3.6-3.6c2.7-1,5.2-1.8,7.9-2.9c0.6,0.9,1.5,2.2,3.1,4.4c1.1-2.7,1.8-4.8,2.3-6
	c7.2,1,14.1,1.9,21.1,2.9c-0.8,2.5-6.8,3-1.8,7.5c-1.5,0-3.7,0.6-4.2-0.1c-3-4.3-6.2-2.2-8.3,0.1c-0.8,0.9,1.2,4.7,2,7.5
	c-4.5,5.5-6.3,5.6-12.1,0.1c-0.6,1.8-1.1,3.5-1.8,6c-1.4-1-2.5-1.9-3.6-2.7c-1.8,1.2-3.8,3.6-5.2,3.2c-4.6-1-5.9,1.4-6.1,4.7
	c-3.9,1.4-7.1,2.6-10.3,3.8c1.3-1.8,2.6-3.5,3.8-5.2c-0.9-1.7-1.8-3-2.6-4.4c-14.9,7.3-14.9,7.3-10.6,14.2c1.4-0.5,2.8-0.9,4.4-1.4
	c-3.9,4.2-7.2,8.6-4.4,15.2c5.1,2.6,9.1,1.8,10.3-3.1c5.5-2.5,9.6-4.4,14.4-6.5c-0.1,1.9-0.4,3.6-0.5,5.1c8.4-2.2,15.8-1.3,20.9,7.9
	c3.8-2.7,3.7-6,1.3-8.6c3.6-1.8,6.9-3.6,10.7-5.6c4,2.3,5.6,6.6,5.2,12.5c-0.2,4.2-0.1,7.8-5.1,8.6c-0.8,0.1-1.3,2.6-2.3,4.4
	c-8.5-0.5-17.4,0.6-24.6,8.1c0.8-1.4,1.4-3.5,2.5-4c4.5-1.9,3.7-5.8,4-10.4c-2.8,1.6-5.1,2.9-7.2,4c-0.1-2.1-0.2-4-0.4-6.6
	c-8.4,0.5-11.3,7.4-16.1,14c2.5-0.1,3.7-0.3,4.9-0.4c-2.1,1-4.2,1.9-6.3,3c-0.2-0.6-0.6-1.2-0.8-1.8c1.2-1.8,2.4-3.6,4.2-6.2
	c-4.9-1.2-9.3-2.2-14.5-3.4c0.4,5.3,0.7,9,0.9,12.7c0.5,0,0.9,0,1.3,0c0.6-1.9,1.3-3.8,2-6.1c1.8,0.9,3.3,1.7,4.5,2.3
	c0,6.6-10.2,5.2-7.6,13.8c1.7,5.5,1.4,11.4,2.1,18.2c3.1-4,5.3-7.1,7.6-10.1c-0.2,0.6-0.5,1.2-0.6,1.8c-2,8.3-0.8,9.9,6.9,9.9
	c5.2,0,8.1,1.8,10.2,7.9c-6.4,1.6-12.7,2.9-18.9,4.7c-1.5,0.4-2.8,2.2-4.3,3.4c1.2,1.6,2,3.8,3.4,4.7c2.8,1.8,6.1,3,9.6,5.6
	c-1.8,0.1-3.8,1.2-5.2,0.4c-4.9-2.2-8.4,0-7.9,5.7c0.4,3.4,1.9,6.6,3,9.9c0.6,0.1,1.3,0.4,1.9,0.5c0.8-1.7,1.7-3.2,3-5.8
	c1.4,3.6,1.2,10.3,6.4,3.1c-0.2,3.9-0.4,6.8-0.6,10.4c2.5-2.2,4.4-3.8,7.5-6.5c-0.9,9-8.4,10.3-10.8,15.7c0.8-2.6,1.8-5.1,2.5-7.3
	c-3.1-1.2-5.9-2.3-8.8-3.4c-0.4,0.4-0.7,0.8-1.1,1.3c1.5,1.7,3,3.5,4.9,5.6c-1.8,0.9-3.4,1.8-5.2,2.7c-0.1,1.9-0.1,4-0.2,6.6
	c2-0.9,3.6-1.7,5.1-2.3c-1.8,1.3-3.6,2.7-5.3,4.2c3.4,3.1,5.7,5.1,7.8,7.1c0.7,0.6,1.5,1.7,1.5,2.5c0,0.6-1.3,2.1-1.9,1.9
	c-1.2-0.3-2.5-1-3.3-1.9c-0.8-1.2-1.1-2.7-1.5-4.2c-0.5,0.1-1.1,0.3-1.5,0.4c0,4,0,8.2,0,12.6c7.4-0.9,16.1,3.9,19.8-7.7
	c0.8,1.4,1.3,3.9,2.4,4.2c3.1,0.9,6.4,0.9,9.6,1.3c-0.2-0.3-0.5-0.5-0.7-0.9c4.6-2.5,9.3-5.1,15.7-8.4c-3-1.7-4.9-2.7-6.9-3.9
	c2.1-2.1,3.3-3.2,4.7-4.5c-10.1-6-13.2-5.1-13.2,3c-1.8-0.8-3.6-1.7-5.7-2.7c0.2,4,0.5,7,0.7,9.6c-2.6,0.4-4.4,0.6-6.2,1
	c0.9-2.1,1.9-4,3.2-6.8c-2.3-1.8-4.6-3.8-7-5.7c5.2-8.8,13.4-8.6,21.5-8.3c-1.5-5.2-3.1-9.9-4.2-14.7c-0.4-1.6,0.8-3.6,1.8-5.1
	c1.1-1.7,2.6-3.1,5.1-5.8c0.6,0.8,2.1,2.9,3.7,4.9c0.1,0.3,0.1,0.5,0,0.9c-2.5,2.2-5,4.5-7.7,7c7,8.4,11.6-1,17.8-0.5
	c-1.7,9.7,3.9,20.8-3.7,28.7c1.4,3.1,3.4,5.7,3.4,8.3c0.2,12.2,0.1,24.4-0.4,36.8c-0.1,3.1-1.7,6.1-2.7,9.7c0.1,0,1.4,0.3,2.8,0.5
	c-0.8,1.9-1.5,3.9-2.5,6.1c-1.7-0.6-3-1.3-4.4-1.9c-1.3,2.1-2.7,4-4.2,6.1c-0.7-0.3-1.5-0.6-2.3-0.9c0.9-4,2-7.9,3-11.7
	c-0.8,0-3.2,0.3-5.5,0.4c-0.6-0.9-1.2-1.7-1.8-2.6c2.7-1.2,5.3-2.2,8.1-3.4c-0.5-0.9-0.8-1.7-1.3-2.6c-4.4-1.7-8.9-3.1-13.2-5.2
	c-0.8-0.4-0.9-2.6-1.8-4.7c4.9,1.6,8.4,2.9,12,4c2.4-4.9,2.4-7.3-2.8-8.2c-3.4-0.6-6.4-3.4-9.6-5.2c0.2-0.6,0.5-1.4,0.8-2.1
	c1.7-0.1,3.2-0.3,5.2-0.5c0.1-2.2,0.2-4.2,0.4-6.1c-9.8-3.1-13.6-1.4-17.7,8.3c1.8-1,3-1.7,4.9-2.7c0.5,2.2,0.8,4,1.2,6
	c0.2,1.2,0.2,2.9,0.8,3.2c6.1,3.8,1.3,6-0.9,8.4c-1.1,1.2-3.7,2.1-3.6,2.7c0.9,8.8-5.6,11.7-10.4,15.6c-4.2,3.4-5.3,7.4-4.5,12.6
	c0.8,5.7,1.4,11.4,2.1,17.5c3-0.9,5.8-1.7,8.8-2.6c0.2,0.4,0.4,0.8,0.6,1.2c-2.1,1.7-4,4-6.3,5.2c-4.7,2.3-2.8,6.2-1.4,9.1
	c0.6,1.2,4.2,0.6,7.5,1c0,0,0.5,1.7,1.1,3.5c-1.2,0.5-2.5,1-4.2,1.7c0.8,1.8,1.5,3.5,2.4,5.1c2.5-1.4,4.6-2.6,7-3.9
	c-0.4-1.3-0.7-3.2-1.3-6c2.4,0.9,4.2,1.7,5.8,2.3c1.3-2.7,2.5-5.3,3.9-7.8c0.5-0.8,1.3-1.8,2.1-1.9c4.6-0.5,9.4-0.9,12.7-1.2
	c3-3.1,5.2-5.7,7.7-8.2c-0.7-2.2-1.8-5.2-2.7-8.2c5.7,7.1,6.1,24.9,1.8,27.9c0.9,1.3,1.8,2.6,2.7,3.9c-3.6,1.4-7.1,2.9-11.2,4.4
	c0.5,1.6,1.2,3.9,2,6.5c0.8-0.5,1.9-1,3-1.6c0.2,0.9,0.9,2.6,0.7,2.7c-1.7,1.2-4.5,3.2-5,2.7c-5.2-5.5-9.5-1.7-14,1.2
	c-0.7,0.5-2.1-0.4-2.8-0.5c-0.9,10-13.9,6.4-14.2,14.9c3,3.1,5.8,6,8.5,9c3.8,4.3,6.9,3.9,10.9-1.8c4.7,1.6,9.6,3,14.2,4.5
	c2.4-3.8,4.6-7.5,7.6-12.3c0,9.7,0,18.2,0,26.1c-5.1,0.9-10,1.6-14.5,2.9c-1.1,0.3-2,3-2,4.7c0,0.8,2.4,2.6,3.2,2.3
	c2.4-0.6,4.5-2.2,6.8-3.2c2.1-0.9,4.3-1.7,6.9-2.6c0,5.3,0.2,9.9,0,14.3c-0.4,6.6-4.5,9.5-10.4,7.3c-7.2-2.6-10.2-1.4-14.5,5.6
	c6.3-0.6,12.6-1.4,18-1.9c1.5,2.9,3.1,5.6,5.1,9.5c-2.1-0.1-4.4-0.3-6.5-0.3c0,1.7,0,3.9,0,6c7-1,7-1,7.2,9.2
	c0.4,16.6,0.7,33.1,1.2,49.8c0.1,2.7,0,5.5,0,8.6c-9.5,0.5-18.2,0.8-26.8,1.7c-1.4,0.1-3.7,3.9-3.4,5.5c0.5,2.2,2.8,5.2,4.6,5.5
	c6.3,0.6,12.7,0,19.1,0.4c4.3,0.3,5.1,2.5,4,7.3c-0.2,1.2,0.1,2.6,0.1,3.9c-0.6,0.5-1.1,0.9-1.7,1.4c-0.2-1-0.5-2.1-0.8-3
	c-0.4-0.9-1.1-1.8-1.8-3.1c-6.3,0.9-7.4,6.9-10.1,11c0.5,0.5,0.8,0.9,1.3,1.4c0.7-1.7,1.4-3.4,2.4-6c4.6,5.2,8.2,8.7,11.3,12.7
	c1.2,1.6,1.5,4.2,1.5,6.2c0.1,19.4,0,38.7,0.1,58.1c0.1,9.6-1.1,11.2-11.9,13c-0.1,0.4-0.5,0.8-0.5,1c0.4,1.4,0.7,2.9,1.3,4.8
	c1.3-1.2,2.1-1.9,3.6-3.2c0.9,3.4,1.8,6.2,2.5,8.7c-0.7,0.8-0.9,1.2-1.3,1.3c-2.8,0.8-5.7,1.4-8.5,2.2c1.8,2.6,3.7,5.2,5.5,7.8
	c2.4,3.2,4.9,6.5,7.7,10.1c0,0.8,0,2.7,0,5.8c-3.9,3.4-9,7.8-14.1,12.2c0,0.9,0.1,1.8,0.1,2.7c4.5,3,9,5.7,13.5,8.8
	c0.9,0.6,1.9,2.2,1.9,3.2c0,23.1,0,46.1-0.1,69.2c0,0.4-0.2,0.8-0.2,0.9c-4.9,0.8-9.5,1.6-14.5,2.3c1.4,4.8,9-0.9,6.2,7.8
	c2.3-1.4,3.9-2.5,5.8-3.5c1.2,10.3,2.3,20.1,3.4,31c-8.8,0.5-16.4,1.7-23.8,1.3c-14.9-0.8-29.9-2.6-44.8-3.8
	c-6.1-0.5-9.1-2.9-9.1-10.3c0-5.7-1.9-11.6-3-17.4c0.2-0.6,0.6-1.3,0.6-1.8c-1.1-13.4-2.1-26.8-3.3-40.1c-0.1-0.6-1.4-1.2-2.1-1.8
	c-0.7-9.1-1.5-18.2-2.3-27.3c-0.6,0.1-1.1,0.1-1.7,0.3c1.3,9,2.6,18.1,3.9,27c1.7,14.6,3.3,29.1,5,43.7c0.6,8.1,1.1,16.2,1.7,24.7
	c-17.1-0.1-33.3-2.6-49.4-7.8c-8.2-2.6-16.5-4.5-24.8-6.8c-9.3-2.5-18.6-4.7-28.6-7.3c1.5-1.9,3.1-4.2,5-6.8c-2,0.4-3.7,0.6-5.3,0.9
	c-1.3-2.6-2.5-5.1-3.9-8.1c4.5-2.6,9.3-5.3,14-8.1c0-0.4,0-0.8,0-1.2c-4.6-0.5-9.5-0.5-14-1.6c-15.3-3.5-31.1-3.2-46.1-8.1
	c-3.3-1-8.7-3.5-8.9,3.2c-2.4-0.6-4.9-1.3-7.1-2.2c-1.7-0.6-3.2-1.8-4.7-2.5c-1.5-0.6-3.2-1.2-4.7-1.3c-2.5-0.3-5.1-0.3-7.7-0.1
	c-6.8,0-8.9-1.9-10.8-8.8c-0.9-3.5-3.2-6.6-4.9-9.9c-0.6,0.3-1.2,0.4-1.8,0.6c-0.6,1.4-1.2,2.9-2.1,5.5c-3.2-4.4-6.2-8.4-9.4-13
	c6.4,0.3,6.5-4.9,6.3-8.7c-1.7-23.9-3.8-47.7-5.8-72.2c-4.3,2.6-8.2,5.1-12,7.4c0,0.6,0,1.4,0,2.1c3.3,1.6,6.5,3.2,9.8,4.8
	c-0.1,0.5-0.4,1.2-0.5,1.7c-1.8,0-3.7-0.4-5.2,0.1c-1.8,0.6-3.3,2.2-5.1,3.4c0.6,3.1,1.2,6.1,1.8,8.6c-1.3,0-3.7-0.3-3.7,0
	c-0.6,3.2-1.5,6.6-0.9,9.7c0.2,1.2,4.3,1.4,6.9,2.2c-0.4,0.6-0.7,2.2-1.4,2.5c-5.8,2.2-4.9,6.6-3.8,11.7c1.2,5.6,1.5,11.4,2.3,17.1
	c0.5,3.5,0.8,7,1.3,11.3c-2.5,1.9-4.5,0.5-5.5-3c-1.9-7-3.8-13.9-5.1-21c-0.4-1.9,1.1-4.3,1.9-6.4c1.4-3.2,3.3-6.1-1.7-8.1
	c-3.8-1.4-2.8-4.9-1.1-7.4c4-5.3,1.3-7.5-2.8-9.2c-0.9,2.3-1.9,4.5-2.3,5.3c0.7,4.9,1.8,9,1.7,13c0,0.8-4.3,1.4-7.6,2.5
	c0,1.3,0,4,0,8.2c2.6-1.8,3.9-2.9,5.2-3.4c0.7-0.3,2.3-0.1,2.6,0.4c0.6,0.9,1.1,2.5,0.7,3.5c-1.1,3.8-2.5,7.4-3.8,11.3
	c-0.7-2.3-1.4-5.1-2.4-8.4c-2.3,6.4,5.7,16.1-6.2,17.5c0,4.2,0,7.9,0,11.7c-0.5,0-0.9,0-1.4,0c-0.5-6.1-1.2-12.2-1.5-18.3
	c-1.7-22.2-3.3-44.3-4.7-66.5c-0.6-8.7-0.4-17.5-0.5-26.4c5.2,4.4,14.4,1.6,17.6,10.8c0-2.6-0.6-5.2-1.8-7.3
	c-2.7-4.8-8.9-6-15.9-3.2c-1.2-10.4-2.4-20.9-3.7-31.3c-0.2,0-0.4,0-0.6,0c0.5,8.1,0.9,16,1.4,24.2c-2.4,0.5-4.6,1-8.7,2.1
	c11.6,3.2,9.1,12.3,9.6,19.9c1.1,16.6,2,33.1,3.1,49.8c0.6,9.2,1.7,18.4,1.9,27.7c0.1,2.6-2,5.2-3.1,7.9c-0.6,1.4-1.1,2.7-1.7,4.2
	c-0.9,1.8-2,3.6-3.1,5.5c-0.7-1.7-1.4-3.5-2.3-5.1c-0.6-1-1.5-2.9-2-2.7c-1.2,0.3-2.7,1.2-3.1,2.2c-1.3,4.3-4.2,5.2-7.5,4
	c-23.1-7.7-46.3-15.3-69.3-23.1c-0.4-0.1-0.6-0.5-1.1-1c1.3-0.6,2.5-1.3,5.5-2.9c-4-1.4-6.5-2.5-9-3.2c-4.7-1.3-9.6-2.3-14.4-3.9
	c-4.7-1.4-7.1-5.1-7-11c1.3,0,2.4,0,3.8,0c-0.8-17.7-1.5-34.9-2.4-52.5c-2.3,0-3.9,0-5.1,0c1.7-6,3.4-12,5.1-18.1
	c-3.3-1.2-5.5-1.8-7.5-2.5c2-1.7,4.4-3.6,6.9-5.7c-0.4-0.4-0.6-0.9-0.9-1.3c-7-0.5-14-1.2-21.1-1.3c-4.5-0.1-6.3,6-3.4,11.6
	c0.5,1,1.3,1.8,2.3,3.1c-2.7,0.5-4.7,0.8-8.4,1.4c2.1,1.9,3.3,3,4.4,4c1.7,1.7,4.5,3.4,4.5,5.1c0,2.1-2.3,4.3-3.8,6.1
	c-0.8,1-2.1,1.6-4.4,3c2.8,0.4,4.5,0.5,6.8,0.8c-1.4,0.8-2.4,1.4-3.6,2.1c1.9,4.5,4.4,9,5.5,13.8c0.4,1.3-3.2,3.8-5.3,6.1
	c0.9,0.9,3.8,3-1.9,5.3c2.6,0.8,3.9,1,5.2,1.4c0,0.4-0.1,0.8-0.1,1.2c-5.5,0-10.8,0-16.8,0c0.5-2.7,0.8-4.4,1.1-5.8
	c-3.1,0-6.2,0-10.3,0c3,3.4,5,5.8,7,8.2c-0.2,0.5-0.5,0.9-0.7,1.4c-7.4-2.2-14.8-4.3-22.2-6.5c-0.2-0.5-0.5-0.9-0.7-1.4
	c7.4-2.2,9.3-7.3,7.8-13.8c-5.3,0.4-10.3,0.8-14.9,1c-4.7-1.9-9.5-3.9-15.2-6.2c1.4-2.2,3-4.8,4.5-7.3c2.3-3.6,2.3-6.2-3.1-6.5
	c2.3-1.8,4.3-3.1,6.1-4.7c1.5-1.3,3.1-2.9,3.9-5.6c-3.6,0.8-7,1.6-11.4,2.6c4.4-3.9,8.1-7.3,11.4-10.3c0.5-3.4,0.8-6.5,1.1-9.1
	c-6.9,1.8-14.5,3.9-22.1,6c-0.4-1-0.6-1.9-0.9-3c2.5-1.3,5-2.5,9.4-4.7c-9.4-0.6-17.3-1.3-26.1-1.9c4.5,5.1,6.2,14.6,3.2,16.8
	c1.2,1,2.3,1.9,3.4,3c-3.1-0.6-6.2-1.3-9.1-1.8c0,0.4-0.1,0.8-0.1,1.2c2.1,1.4,4.3,2.9,6.4,4.3h0.1c-2.4,1.2-4.7,2.3-7.1,3.4
	c6.6,3.2,12.6,6.1,18.6,9c-0.8,3.9-1.2,4.3-8.4,4.8c-6.2,0.5-12.8,2.5-17.3-4c-2.8-0.1-5.8-0.4-10.3-0.6c4.2-3.6,6.8-5.8,10.3-9
	c-3-1-4.6-1.6-6.4-2.2c-0.2-0.6-0.4-1.3-0.6-1.9c3.6-1.6,7.2-3.1,11.3-4.9c-1.9-1.6-3.9-3.1-6.6-5.2c3-0.9,4.9-1.6,6.9-2.2
	c-0.1-0.6-0.2-1.3-0.4-1.9c-3.6,1.2-7.1,2.3-12.3,4.2c2.6-4.8,4.4-8.2,6.2-11.6c-0.5-0.3-0.8-0.5-1.3-0.8c2.6-1,5.2-2.1,7.8-3
	c-5-8.3-12.1-7.4-18.4-3.4c-7.1,4.5-13.3,3.2-19.7-0.9c-0.5,0.4-1.1,0.6-1.5,1c1.1,2.7,2.1,5.5,3.7,9.5c4.7-12.6,6.4,4.9,10.7-1.9
	c-1.3,10.8-2.5,20.1-3.7,29.4c-3.1-3.6-5.5-6.4-7.7-9.1c-0.6,0.5-1.2,1-1.8,1.6c1.1,2.2,2.3,4.4,3.9,7.7c-7.8-1.8-14.7-3.5-21-5.1
	c0.6-2.6,1.3-5.1,2-8.1c-3.2,0-5.7,0-7.8,0c0.8-4.7,1.7-9.2,2.4-13.6c-0.5-0.1-0.9-0.3-1.4-0.4c1.8-1,3.6-2.1,6.4-3.6
	c-1.9-0.8-3.2-1.8-3.8-1.6c-8.1,4.7-16.5-0.4-24.7,1.2c-0.6,0.1-1.3,0.1-1.8-0.1c-7.4-6-14.7-1.6-22.2-0.1
	c-4.9,0.9-9.7,1.4-14.6,1.7c-1.2,0.1-2.5-1.4-3.3-0.3c-5,1.8-10.1,3.5-15.1,5.3c-0.8,0.3-2,1.2-2,1.7c0.2,5.3,0.7,10.5,1.1,16.4
	c0.4-0.3-0.7,0.4-1.7,1.2c0.7,1,1.3,2.5,2.3,3.2c1.5,1.2,3.2,1.9,4.9,2.9c-0.2,0.6-0.6,1.2-0.8,1.8c-1.7-0.8-3.3-1.7-5.1-2.5
	c-0.4,0.5-0.6,0.9-0.9,1.4c2.3,1.8,4.5,3.6,8.1,6.4c-6.3,1.4-12,2.6-17.7,3.9c0.7,1.4,2.5,3.6,2.1,4.5c-0.8,1.6-2.8,2.6-4.6,3.5
	c-5.3,2.6-10.7,5.1-16.3,7.3c-2.1,0.9-4.6,0.6-7.2,1c0-1.8,0-3.2,0-5.7c-3.4,2.7-6.3,5.1-9.6,7.8c-0.1-1.9-0.2-3.4-0.2-5.2
	c-2.3,0.1-4.5,0.3-6.9,0.5c0.7,5.6-3.3,5.3-6.4,5.8c-1.2,0.3-2.6-1.4-5.2-3c-0.8,0.8-2.8,2.6-4.9,4.3c1.8-2.3,3.7-4.5,5.3-7
	c1.1-1.6,2-3.2,3-4.9c-5.6-3,0.2-6.4-0.4-10.4c-1.7,0.9-3.1,1.7-4.5,2.5c-0.2-0.9-0.6-1.8-0.8-2.6c2.4-3.5,4.7-7.1,7.2-10.7
	c-0.4-2.3-0.8-4.7-1.2-6.9c-2.3-0.3-4.5-0.4-6.9-0.6c0-0.3,0-0.6,0-0.9c1.9-0.6,3.9-1.2,6.2-1.9c-1.1-1-1.7-1.7-2.6-2.6
	c2.1-0.6,3.9-1.2,6.6-1.8c-2.6-1.8-4.3-3-6.4-4.4c1.7-1.9,3-3.4,4.6-5.3c-6.4-1.7-11.2-0.4-15.1,5.5c2.7-0.6,5.1-1,7.4-1.6
	c0.1,0.5,0.1,1,0.2,1.7c-10.9,3.8-10.1,0.9-8.9,14.4c0.4,4.2,1.2,8.3,1.8,12.3c2.4,1.2,4.7,2.2,7,3.2c-1.7-0.1-3.4-0.4-4.6-0.5
	c-0.7,6-1.4,11.4-2.3,17.9c0.7,0.8,2.6,2.9,4.4,5.1c-6.4,3.6-12.8,7.3-20.3,11.4c-0.2-7-3-8.6-7.4-7.1c0.4-2.2,0.7-4.3,1.2-7.1
	c1.1-0.1,3-0.3,4.3-0.3c0.8-2.7,1.7-5.5,2.7-9.1c0.1,0.1-1.1-0.8-2.3-1.7c0.9-0.6,2.1-1.3,3.9-2.3c-1.9-1.4-3.3-2.6-5-3.9
	c1.5-0.1,3-0.1,4.2-0.3c1.1-6.1,2.1-12.1,3.2-18.1c0.4,0.3,0.8,0.5,1.2,0.8c1.7-3.4,3.4-6.8,4.7-10.3c0.2-0.5-2-2.6-3.4-3.1
	c-3.4-1.4-7.6-1.6-7.4-7.5c0-0.8-2.3-2.5-3.4-2.5c-9.7,0.5-19.3,1.3-29.1,2.5c-1.8,0.3-3.4,2.3-5.2,3.6c0-6.1,0-12.1,0-18.2
	c-1.7,1.6-2.6,3.4-2.8,5.3c-0.4,3.8-0.4,7.7-0.5,12.2C471,582.6,472.6,582.6,474.3,582.6z M267.9,126.6c-0.9-0.3-2-0.6-4-1.2
	c1.8,5.2,3.2,9.5,4.6,13.8c0.7-0.3,1.5-0.4,2.3-0.6c-1.1-4-2.1-8.1-3.2-12.2c1.5,0.3,3,0.5,4.5,0.8c0.2-2.9,0.4-5.7,0.6-8.6
	c-0.7-0.1-1.4-0.3-2.1-0.4C269.7,121,268.7,123.7,267.9,126.6z M-35.6,345.9c-0.2,1.7-0.4,3.4-0.8,4.9c-1.4,4.8,0.4,5.7,4.2,4.8
	c0.2-4,2.7-8.8-3.6-9.6c-1.1-6-7.5-7.1-15.1-2.1C-45.3,344.7-40.4,345.4-35.6,345.9z M129.3,722.2c-0.1,4.7,1.4,7.4,6.3,6.1
	c0-6.4-0.2-6.5-6.4-6c0.2-2.2,0.5-4.3,0.7-6.5c-2.8,0.5-5.6,0.9-8.4,1.4c0,0.9-0.1,1.7-0.1,2.6C123.9,720.7,126.6,721.5,129.3,722.2
	z M278.4,120.3c2.4-1.2,4.9-2.2,7-3.8c0.9-0.6,1.2-2.5,1.8-3.6c-2.4-0.3-5.5-1.6-6.9-0.4c-1.7,1.3-5.7,4-1.8,7.7
	c1.4,4.8,9.1,8.6,12.6,5.8c0.7-0.5,1.4-2.2,1.2-2.6c-0.7-1.2-1.9-2.6-3-2.7C285.7,120.3,282,120.5,278.4,120.3z M1178.6,744.7
	c4.4-1,8.7-2.1,13-3.1c-0.1-1-0.2-2.1-0.2-3.1c-4.5,0-9,0-14.6,0c0.8,2.3,1.4,4.2,2.1,6.1L1178.6,744.7z M195.6,335.6
	c0,3.9-0.1,7.7-0.1,12.1c5.2,2.9,6.1-5.1,9.6-7.7c0.5-0.4,0.2-2.5-0.2-3.5c-0.2-0.5-2.1-0.8-2.5-0.4c-2.6,3.6-4.7-0.3-7-0.3
	c-1.4-1.6-2.7-3-4.3-4.5c1.1-1.4,2.1-2.7,4-5.1c-2.3-1.2-4-2.1-5.8-3c-0.6,2.1-2.1,4.4-1.8,6.2c1.1,4.4,2.8,8.7,4.9,14.2
	C194,339.8,194.8,337.7,195.6,335.6z M1129.6,251c-5,5.1-10.1,10.1-15.1,15.2c0.4,0.8,0.8,1.6,1.2,2.3c2.8-0.9,6.1-1.2,8.4-2.9
	c2-1.4,3.4-4.4,4.4-7c0.8-2.3,0.6-5.1,0.8-7.7c3.4,0,6.8,0,10.2,0c0.4-0.6,0.7-1.2,0.9-1.8c-2-1.7-4.2-3.5-6.6-5.6
	C1132.4,246.5,1131.1,248.8,1129.6,251z M1170,310c-2.8-1.9-5.6-4.2-8.4-5.8c-0.7-0.4-1.9,0.3-3,0.5c0.7,1,1.2,2.9,2,3.1
	c3.1,0.9,6.4,1.4,9.6,2.1c-1.8,1.3-3.4,2.9-5.3,3.9c-1.3,0.6-3.1,0.4-4.5,0.9c-0.2,0.1-0.4,2.5-0.1,2.6c1.5,0.8,3.2,1.3,7,2.6
	c-3.3,4.4-6.2,8.3-9.1,12.1c2-2.6,5.2-4.5,8.4-6.5c2.3-1.4,4.3-3.6,6.6-4c2.4-0.5,5,0.8,6.5,1c0.7-5.3,1.3-10.3,2.1-16.2
	C1177,307.7,1173.4,308.9,1170,310z M1051.6,140.9c3.7-1.6,8.2-5.5,10.9-4.3c5.6,2.3,5.9-1.2,6.8-5.1c1.9,1.3,3.3,2.3,5.2,3.6
	c-1.8-9.9,4.9-13.3,9-18.6c-3.3,0.4-6.3,0.6-9.5,1c0.4,2.3,0.7,4.3,0.9,6.1c-0.4,0.1-0.7,0.4-1.1,0.5c-1.2-1.7-2.4-3.4-3.6-5.2
	c-3.1,1.7-6.8,2.7-9,5.3c-1.9,2.2-1.8,6.4-3.3,9.2c-1.5,2.9-4.2,5.1-6.3,7.5c-2.7-3.1-2.7-3.1,3.6-9.7c-3.1-0.9-5.8-1.7-8.4-2.3
	c-0.1,0.4-0.2,0.9-0.5,1.3c1.1,1.3,2,2.6,3.4,4.3c-9.7-1.3-11,0.9-8.3,13.3c4.9,0,9.7,0,15.1,0
	C1054.6,144.9,1053.1,143,1051.6,140.9z M1038.5,323.7c-3.1-1.7-6.2-3.4-9.7-5.5c-1.1,7.7-11,4.7-12,12.5c9.6,2.7,18.5,5.2,27.5,7.7
	c0.2-0.6,0.5-1.3,0.8-1.9c-2-1.6-3.9-3.5-6.1-4.7c-2.1-1-4.5-1-6.9-1.6c0-0.4,0.1-0.6,0.1-1c2.8,0,5.7,0,9.7,0
	c-1.3-2.1-2.1-3.2-3-4.5c1.8,0.8,3.4,1.6,5.2,2.2c0.4-0.5,0.7-0.9,1.1-1.4c-1.2-3.9-2.4-7.9-3.8-12.5
	C1036.8,316.6,1035.5,319.6,1038.5,323.7z M34.6,799.9c-2,0.8-3.9,1.7-6.3,2.6c-0.1,4.7-3,10.4,2.8,14c4.4-4.8,8.5-9.1,12.6-13.5
	c-0.1-0.6-0.4-1.3-0.5-1.9c-3-0.4-5.9-0.6-8.8-1c1.7-0.9,3.9-3.2,5.1-2.7c6.5,3.2,5.8-3,7.9-6.4c-6.8-3-6.6-8.2-3.6-15.2
	c-4.4,0.8-7.8,0.9-10.9,1.9c-3,1,0.2,6.6-3.9,7.3c0.6,1.6,1.2,3.1,2,5.2C27.5,794.9,28.4,797.9,34.6,799.9z M1130,299.8
	c3.3-0.5,6.6-1,11.4-1.7c-2.1,2.9-3,4.8-4.2,5.2c-3.7,1.6-5,4.4-3,7.5c0.8,1.3,4.5,0.5,7.2,0.8c-0.8-3.2-1.3-4.8-1.8-6.5
	c1.4-0.4,3.2-1.7,4.3-1.2c4.2,2.1,5.7-0.4,7-4c0.4-1,1.5-1.7,2.3-2.5c0.8-1,2.4-2.7,2.3-3.1c-1.1-1.9-2.5-4.8-4-5.1
	c-8.7-1.4-15.9,3.9-23.6,7.1c-0.4,0.1,0,2.2,0.1,3.5c-2.6,2.5-5.3,4.8-8.5,7.8c0.4,0.1-0.9-0.4-2.7-1.3c0.5,5.3,0.8,9.6,1.3,15.3
	c3.9-3,6.4-4.9,9.6-7.3c-0.4-0.1,0.6,0.4,1.3,0.6c0.8-4.7,1.7-9,2.4-13.4C1131.3,301.3,1130.5,300.4,1130,299.8z M1239.9,237
	c5.1,0,10.2,0,15.5,0c0.1-5.1,3.7-11.2-4.7-12.9c1.4-2.6,3-4.4,3.3-6.6c0.4-2.1-0.1-4.8-1.2-6.2c-0.6-0.8-3.3,0.3-6.4,0.6
	c2,1.9,3,2.7,3.3,3.1c-1.9,8.2-7.8,4.9-12.2,5.7c0,0.6,0,1.4,0,2.1c3.6,0,7,0,10.6,0c-5.6,6.2-5.6,6.2-12.7,3.4
	c-1.2,3.2-2.5,6.4-3.4,9c2.1,0.5,5.1,1.3,8.1,2.1c-1.1,0.3-2.5,0.1-3.3,0.8c-4.2,3.8-8.1,7.8-12.8,12.5c3.1,0,8.5,0.5,8.5-0.1
	c0.8-5.2,4.7-5.8,7.9-7.8C1243.7,240.5,1243.3,238.4,1239.9,237z M186.6,495.2c-4.2,2.1-8.3,4.3-12.6,6.4c2.5,4.5,6.8,3.9,10.2,2.2
	c4.6-2.1,8.8-5.5,13.2-8.2c0-0.4,0-0.9,0-1.3c-3.6,0.3-7,0.6-10.6,0.9c0.4-1.9,0.7-3.9,0.8-4.3c6.2-3.6,11.6-6.9,17.2-10.1
	c-6.5-7.9-14.4-6.9-23-6c3.2-1.8,5.3-3,7.5-4.3c-4.3-2.3-7.1-1.7-8.8,2.7c-1.2,3.2-3,6.2-4.7,9.9c1.8,0.6,3.8,1.6,5.8,2.3
	C178.9,492.6,180.1,494.9,186.6,495.2z M-86.1,185.4c-2.3-1.3-4.6-2.7-5.7-3.4c-1.8,2.9-3.7,5.7-5.2,8.7c-0.7,1.3-1.3,3.1-0.9,4.4
	c0.4,1.4,1.8,2.5,2.8,3.8c0.9-1.2,1.7-2.2,2.1-2.7c2.3,2.6,4,4.8,6.3,7.4c-1.9,3.1-4.6,7.4-8.2,13c4.2-0.8,5.9-1.2,6.6-1.3
	c1.3,3,2.4,5.1,3.3,7.3c0.8-1.7,1.3-3.5,2.4-4.8c1.3-1.6,3.2-2.6,4.6-4c1.7-1.6,4.4-3.2,4.5-4.9c0.1-2.9-2-5.7-2.4-8.6
	c-0.5-3.9-1.9-6.1-5.6-6.9c-3.4-0.8-7-2.6-4.9-7.9c5.6,6.2,11.5,3.5,18.6,0.6c-6.4-6-13.4-5.5-21.6-7.1
	C-87.8,182.1-87,183.7-86.1,185.4z M1096.7,317.3c0.6,2.6,0.5,6,4.6,4.7c3.8-1.2,6.5-2.7,5-8.3c-3.4,1.3-6.6,2.6-9.8,3.8
	c2-2.2,4-4.5,6.2-6.6c5.1-5.2,4.3-17.9-1.5-18.8c-3.8-0.5-6.1-1.9-8.5-4.7c-0.9-1-2.8-1.2-4.4-1.3c-2.4-0.3-4.7,0-7.6,0
	c1.7,6.6,6.9,8.8,12.1,11.2c-1.9,1.2-3.9,2.6-5.9,3.5c-1.9,0.9-3.9,1.2-5.9,1.8c3.9,2.9,4.2,4.7,1.4,8.2c1.1,0.9,2.5,1.7,3.1,2.9
	c1.1,2.1,1.5,4.5,1.9,5.6C1091.3,318.3,1093.9,317.8,1096.7,317.3z M262.7,348.9c7.4-3.8,13.5,1.3,20.6,2.6
	c-1.2-1.2-2.4-2.3-2.3-2.2c0.4-6,0.6-10.7,0.8-15.8c3.1-0.9,7.1-2.1,11-3.1c-0.1-0.6-0.1-1.3-0.2-1.8c-3.2-0.4-6.4-0.8-10.6-1.4
	c0-0.9-0.2-3.6-0.4-6.5c-0.5-0.3-0.9-0.6-1.4-0.9c-1.3,1.9-2.6,3.9-4,6c-2.4-1.7-5-3.5-8.4-5.8c5.3-4.8,9.6-9.9,4.3-18.3
	c-1.8-1-5.2-2.9-8.9-4.9c-0.7,8.2-1.3,15.7-2.3,23.3c-0.8,7.1,0.7,10.8,6.6,14.7c-2.1-0.6-4.3-1.2-7.6-2.2
	c-0.4,5.1-0.8,9.6-0.8,14.2C259.2,347.2,261.5,348.1,262.7,348.9c-0.6,0.5-1.9,1-1.9,1.4c0.8,5.3,0.4,10.1-3.1,14.4
	c-0.6,0.6,0.5,2.9,0.7,4.4c0.6,0.3,1.2,0.4,1.8,0.6c3.1-4.8,6.3-9.6,9.7-14.9c0.2,1.4,0.8,2.5,0.6,3.1c-1.5,3.5,0.4,6.4,2.6,7
	c2,0.6,6.2-0.6,6.8-2.3c1.8-4.9,4.4-3.2,7.5-1.6c-2.5,2.2-5.3,3.1-8.1,4.5c-5.3,2.7-10.7,5.6-16.4,8.6c1.5,0.4,2.7,0.8,4,1
	c-0.9,1.3-1.9,2.6-2.8,3.9c0.2,0.5,0.5,1,0.7,1.6c1.7-0.6,3.4-1.3,5.2-2.1c2.7,7.4,9.3,1.7,15.2,4.7c-1.9-5.1-3.3-8.7-4.6-12.3
	c5.1,6.5,5.1,6.4,10.8,0.1c0.7-0.8,1.8-1.4,2.8-2.3c0.6,4.7,1.1,8.8,1.5,13.1c5.9-13.6,11.2,0.9,17.4-0.4c-0.2-2.9-0.2-5.7-0.9-8.2
	c-0.2-0.8-2.6-0.8-4.9-1.4c0-1.2,0-3.4,0-5.6c2.1,0.3,4.3,0.5,7.4,0.8c0.6-4.9,1.2-9.9,1.9-14.9c0.1-1,0.4-2.2,0.9-2.9
	c4.9-4.4,10-8.7,14.9-13c-0.4-0.6-0.8-1.2-1.2-1.8c0.7,2.5,1.4,4.9,2.3,7.5c0.5-0.1,0.9-0.3,1.4-0.4c0-5.3,0-10.5,0-16.9
	c5.2,2.3,9.4,4.2,13.5,6c0.1-0.5,0.2-1,0.4-1.6c-1.2-1-2.4-2.1-3-2.6c2.6-6,6.4-11.3,6.8-17c0.2-3.2-5.2-6.9-8.2-10.4
	c1.5-1.6,3-3.1,4.5-4.7c-0.5-0.5-1.1-1-1.5-1.6c-2.1,3-3.9,6.1-6.4,8.8c-1.8,1.9-4.3,2.9-6.3,4.5c-1.2,1-2.3,2.7-3,4.3
	c-0.6,1.3-0.7,2.9-0.9,3.6c-3.7-1.7-6.8-3.2-9.4-4.4c1.3-2.1,2.6-4.2,3.8-6.1c0.5,0.8,1.2,2.5,1.3,2.5c2.7-1.4,5.3-3,9.8-5.6
	c-3.6-2.5-5.8-5.1-8.4-5.8c-3-0.9-6.4-0.3-9.6-0.3c-0.6,1.4-1.3,3.2-1.8,4.5c-1.9-1.4-3.1-2.9-4.5-3.5c-2.4-1-5.1-1.7-7.9-2.6
	c1.9-3,2.8-4.5,3.8-6.1c-5.5,3.8-10.1,7.4-16.6,3.8c-0.6-0.4-3.4,1.8-3.6,3.1c-0.4,4.3-2.6,5.3-5.9,5.3c1.2-1.7,2.3-3.2,4-5.8
	c-2-2.3-4.3-4.7-6.6-7.3c-1.8,3-2.8,4.5-4,6.4c2.3,2.2,4.5,4.4,6.8,6.6c-5.3,6,1.2,12.5-1.4,18.8c5.8-2.5,7.5-5.5,8.1-14.6
	c1.5,0,3.1,0,3.7,0c-0.9,4.5-1.9,9-3.4,15.7c6.2-3,10.8-5.3,15.2-7.4c1.7,9-8.8,6.4-12.2,13.1c3.3-0.3,5.6-0.4,8.7-0.6
	c-1.7,3-2.8,5.1-4,7.1c1.2,2.3,2.4,4.7,4,7.9c1.8-3.2,3.1-5.6,4.6-8.4c3.1,5.5,7.1,6.1,12.6,2.2c-0.7,6.5-9.7,9.7-4.2,17
	c-1.4-1.2-2.8-2.3-4.3-3.5c-6.6,5.6,4.9,10.9,0.8,16.6c-2.4-4.2-4.6-8.1-6.9-12c-3.4,0.3-6.9,0.6-10.4,0.8
	c-7.9,0.1-16.1,4.5-23.6-2.3C267.9,348.7,264.9,349.3,262.7,348.9z M272,401.4c-1.2-2.2-2.3-4.4-3.8-7.5c-3,1.7-6.5,3.8-10.2,5.7
	c0.1,0.5,0.2,1.2,0.4,1.7c4.6,0,9.1,0,13.8,0c-0.9,1-1.9,2.9-2.7,2.7c-2.5-0.1-4.9-1.2-7.2-1.8c-3.2-0.8-5-0.8-6.4,4
	c-2.6,8.3-1.5,15.7,0.8,23.5c0.4,1-0.9,2.7-2.6,6.5c5.2-6.8,5-0.3,7.5,1.2c0-3.2,0-5.7,0-8.1c4.3,2.5,0.2,9.6,6.3,12.1
	c-0.1-3.4-0.2-5.3-0.4-7.3c0.2,0,0.6-0.1,0.8-0.1c1.2,4.5,2.4,9.1,3.8,14c-4.4,2.1-7.9-7.4-14-1.4c2.6,1.3,4.7,2.3,7.9,3.9
	c-4,2.2-7.1,4.9-10.3,5.3c-5.7,0.8-5.1,5.3-4.2,8.4c0.6,2.2,3.9,4.3,6.3,4.9c3.8,1,7.9,0.9,12,1.3c-4.6,8.3-16.6,3.4-19.3,14.4
	c5.9,3.8,11.5,7.4,17.2,10.9c4.5-5.8,10.4-5.8,15.8,0.3c4.4-5.1,8.5-8.3,16.4-5.8c-3.3-5.2-6.8-10.4-10.1-15.5
	c4.6,2.1,11.2-1.2,13,5.7c7-7.9-1.7-13.4-2.6-20.1c1.3-1.6,2.6-3,2.8-3.2c-0.5-3.2-1.7-6.1-0.8-6.9c3.9-4.4,1.7-8.8,0.1-13.6
	c2.4,0.9,4.3,1.8,6.1,2.6c0.4-0.5,0.8-0.9,1.2-1.4c-2.5-3.4-5-6.9-6.4-8.7c0.6-2.9,0.7-4.3,1.2-5.7c2.1-6.2-0.7-13.8,5-19.1
	c1.7-1.6,1.7-5.1,2.4-7.7c-0.5-0.4-0.8-0.6-1.3-1c-2.8,1.7-5.7,3.4-8.4,5.1c-0.4-0.4-0.6-0.8-0.9-1c1.1-2.3,2.1-4.5,3.9-8.3
	c-2.5,1.9-3.8,3-5.2,4.2c-0.5-1.9-0.9-3.6-1.3-5.5c-0.9,0.1-1.8,0-2.1,0.4c-3.7,3.9-6.9,6.1-9.5-1.3c-0.2-0.8-3.6-1.6-4.2-0.9
	C278.7,392.4,275.5,396.9,272,401.4z M1266.8-4.6c4.2-1.7,10.3-5.6,11.5-4.3c4.2,4.8,9.3,0.4,13.3,3c0.6,0.4,2.5-0.9,3.3-1.8
	c2.1-2.9,4.2-6.1,5.8-8.7c-1.3-2.6-2.5-5.2-3.7-7.5c5.5,1.7,10.3,3.2,16.1,5.1c0.6-4,0.9-7.7,1.4-11.2c-1.9,1.2-3.8,2.5-6.2,3.9
	c-0.9-0.8-2.4-1.9-3.3-2.7c2.3-1.6,4.4-3,6.5-4.4c-0.4-0.5-0.6-1-0.9-1.4c-4.2-0.5-8.3-0.9-13-1.4c0.4-5.2,0.8-11.2,1.2-17
	c-10.7-0.6-16.3,10.4-26.2,13.5c2.7,2.3,3.9,3.5,5.2,4.5c-1.7,0.8-3.2,1.8-4.9,2.5c-0.8,0.3-2,0.1-2.8-0.3c-6.5-3.5-11.2,3.1-17,3.9
	c-1.1,0.1-2.7,3.4-2.4,4.5c0.9,2.7,2.8,4.9,4.3,7.1c-2.1,4-4.5,8.3-6.6,12.7c-0.4,0.6,0.6,2.3,1.3,3.1c0.5,0.4,2.4,0.1,2.5-0.3
	c1.1-4.7,5.5-3.9,7.6-5.7C1265.4-11.9,1266.2-9.3,1266.8-4.6z M159.5,348.2c-2.5-2.1-5.3-3.6-6.9-6.1c-1.8-2.9-2.6-2.1-5-0.9
	c-8.5,4.2-6.9,11.4-5.3,18.8c0.2,1.3,1.1,2.5,1.8,3.6c4,6.6,3.2,11.2-2.1,13.8c-1.7,0.8-2.8,2.6-4.3,4c1.7,1.2,3.2,2.9,5,3.5
	c1.5,0.6,3.4,0.3,4.5,0.4c0.4,1.6,0.6,2.9,0.9,4.2c1.2-0.5,2.7-0.6,3.7-1.4c3.7-3.5,12.8-3.5,15.8,0.9c2.6,4,1.5,8.1-4.2,12.1
	c7.5-2.7,4,3.1,6.3,5.2c2.4-0.6,6.5-0.5,7.6-2.3c4.2-7.3-3.6-21.3-11.5-22.1c-3.3-0.3-6.6-1-9.6-1.6c1.4-3.1,2.5-5.6,3.7-8.1
	c-3.1-1.4-6.2-2.7-9.3-4.2c-0.7-0.1-1.4-0.4-2-0.5c4.2-2.5,8.3-5.1,12.5-7.5c-0.7-0.6-1.3-1.4-2-2.1c0,3.4,0,6.9,0,10.1
	c3.7-0.3,6.6-0.4,9.6-0.5c0.1-2.5,0.4-4.8,0.4-7.1c0-2.2,0.6-5.1-0.4-6.6c-1.5-2.5-3.9-2.2-6.4-0.1c-2.8,2.3-6.1,2.7-6.2-3
	C157.2,349.5,158.5,348.7,159.5,348.2z M1261.8,331.3c0.6-0.3,1.2-0.5,1.9-0.6c-1.2-3.8-2.6-7.4-3.7-11.2c-0.5-1.7-0.7-3.6-0.6-5.5
	c0.1-3.8,0.8-7.5,0.8-11.4c0-1.3-1.5-2.5-2.1-3.4c0.4-3.4,0.8-7.4,1.4-11.7c-3.3-1.3-6.1-2.3-9.8-3.9c1.3,3.5,2,5.5,2.8,7.9
	c-4.5,0.4-9.4-0.6-11.9,1.6c-4.5,3.9-7.8,4.5-12.5-0.1c0.4,8.8,0.8,17.1,2.3,25.3c0.7,3.9,3.1,7.8,7.8,6.8c5-1,10-2.6,14.9-3.9
	c0.8-0.3,1.8,0.4,2.7,0.5c-0.6,2.2-1.1,4.2-1.5,5.7C1257.1,329,1259.4,330.2,1261.8,331.3z M248.2,143c-3.2,1.3-6.3,2.5-9.7,3.9
	c-0.5-0.8-0.8-2.3-1.9-3.1c-0.7-0.5-3.1,0.1-3.1,0.4c-0.1,2.2-0.5,4.9,0.5,6.4c1.1,1.7,3.6,2.5,5.6,3.1c1.7,0.5,3.6,0.1,5.8,0.1
	c-0.6-1.9-1.1-3.8-1.7-5.6c0.4-0.3,0.7-0.4,1.1-0.6c3.3,5.8,6.5,11.7,10.2,18.3c-2.6-1.2-4.4-1.9-7.8-3.5c2,2.9,3,4.2,3.8,5.5
	c0.8,1.2,1.7,2.2,2.5,3.2c-8.2,2.6-14-3-12.2-11.8c0.2-1.3-0.7-2.9-1.2-4.2c-3.4,5.6-6.4,10.1-9.1,14.9c-0.6,1-0.2,2.6-0.4,3.9
	c-0.4,3.5-0.8,7.1-1.3,11c8.2,4.7,10.4,4.3,10.3-1.6c1.9-0.9,3.6-1.6,5.2-2.3c-0.2-0.5-0.4-1-0.6-1.6c-1.9,0.3-3.9,0.4-6.8,0.8
	c3.1-2.5,5.2-4.2,7.2-5.7c4.3,5.5,4.5,10.5-1.1,14.2c2.7,1.4,5.2,2.7,8.3,4.3c0.9-0.6,2.6-1.8,4.5-3c-7.1-2.9-7.9-5.5-3.9-13.1
	c1.4,8.1,6.9,9.9,12.9,11c1.3-3.1,1.2-5.5-2.7-7.1c-2.7-1.2-4.9-3.8-7.2-5.7c0.2-0.4,0.5-0.8,0.7-1.2c1.4,0.4,2.8,0.8,4.4,1.3
	c-0.4-2.6-0.5-4.5-0.8-7c2.5,1.6,4.4,2.7,6.4,4c0.5-0.6,0.8-1.3,1.3-1.9c-1.9-1.6-3.8-3.1-5.8-4.7c-0.8-0.6-1.5-1.3-2.4-1.9
	c0.8-0.8,1.8-1.7,3.2-3c-1.7-2.3-3.6-4.7-5.1-7.3c-0.8-1.3-1.1-3.1-1.3-4.8c-0.1-0.9,0.2-1.9,0.2-3c-1.2,0.3-2.4,0.4-3.4,0.8
	c-1.3,0.4-2.6,1-4,1.6C248.5,146.5,248.4,145,248.2,143z M6.1,148.1c3.3-1.2,6.2-2.2,7.9-2.9c0.2,1.6,0.6,3.1,0.9,4.7
	c1.7-1.2,3.3-2.3,4.5-3.2c5.6,1,11.3,2.1,17.3,3.2c-0.8-9.2-0.5-17.5-8.7-24.3c9.5,0.9,2-4.9,5.1-7.3c2.7,7.8,7.7,5.1,12.7,2.7
	c-3.4-2.1-7.5-2.9-10.7-5.1c-3.2-2.2-5.5-6-6.9-7.5c-4.9,1.9-8.8,3.5-11.7,4.7c0.9,1.4,4.2,4.9,3.6,6c-3.7,6.8,0,9.2,5,11.3
	c-5.2,4.5-10.1,8.8-14.5,12.6c-2.5-1.8-4.4-3.2-6.3-4.7c-2.3,4.8-4.2,8.7-6.1,12.7c0.6,0.5,1.2,0.9,1.7,1.4
	C1.1,149.2,7.5,155.4,6.1,148.1z M1140.6,221.4c2.7-3.5,5.1-6.8,6.6-8.8c5.7,0.4,10.2,0.6,15.2,1c-0.2-2.3-0.4-3.9-0.5-4.4
	c-2.1-0.1-3.7-0.3-5.2-0.4c2-2.1,4.2-4.2,6.6-6.6c-0.9-4.8-12.6-0.4-8.7-10.3c-4.3-1.4-8.1-2.7-11.5-4c-5.7,3.9-11.6,7.9-17.4,12.2
	c-0.8,0.6-1.2,2.2-1.8,3.4c1.2,0.3,2.5,0.8,3.6,0.5c0.9-0.1,1.7-1.3,3.2-2.6C1127.4,210,1131.4,217.7,1140.6,221.4z M1042.5,634.4
	c0.2,4,0.6,9.1,0.7,14c0.2,7.9,0.1,16,0.6,23.9c0.1,1.6,1.5,3.5,2.8,4.4c4.5,3.2,9.1,6,13.8,9c0.4-0.3,0.7-0.6,1.1-0.9
	c-1.9-4.5-3.7-9.2-5.6-13.8c0.5-0.3,0.8-0.5,1.3-0.6c0.6,0.8,1.2,1.7,1.8,2.5c0.6-0.1,1.2-0.3,1.8-0.3c-0.6-5.6-1.2-11-2-18.1
	c-2.4,3.4-3.6,5.2-5.2,7.7c-0.5-1.8-0.7-2.6-0.8-3.4c-0.4-4.9,3.9-9.9-0.1-14.8c-0.2-0.3,0.5-2.1,0.8-2.1c9.5-0.9,3.2-7.4,4-10.3
	C1052.5,632.5,1048,633.4,1042.5,634.4z M212.4,288.6c-0.6,6.5-1.1,11.3-1.5,16.1c0.4,0.1,0.8,0.3,1.2,0.3c1.3-3.1,2.5-6.2,4.2-10.3
	c3.2,5.8,6.6,9.2,12.6,5.3c-0.8-1.7-1.5-3.1-2.5-5.1c2.8,1.3,5.2,2.5,7.8,3.6c1.3-3.9,4.5-7.9-2.1-9.7c-0.5-0.1-0.8-1.2-1.3-1.8
	c-3.8-4.9-7.1-10-7.2-16.9c0-1-1.1-1.9-2.6-4.4c-0.9,5.1-1.5,8.7-2.3,12.1c-2.6-1.7-4.7-3.4-7-4.4s-5.7-2.6-6.8-1.7
	c-1.8,1.7-2.1,5.3-3.2,8.3c-0.6,0-2-0.1-3.4-0.1c-0.1,0.5-0.2,1-0.4,1.6c2.7,1.2,5.5,2.5,8.2,3.6c0,2.9,0,5.8,0,9.9
	C208.4,292.6,210,291.1,212.4,288.6z M918.2,295c-3.7-2.6-7.1-4.9-10.8-7.4c0.9-6.2-0.9-9.2-7.6-12.3c-2.6,3.8-4.9,7.1-7.6,11
	c2.8,0.5,5.7,0.9,8.5,1.4c0,0.4,0,0.8-0.1,1.2c-3.9-0.3-7.7-0.5-11.6-0.6c0,0.6-0.1,1.4-0.1,2.1c3.3,0.4,6.5,0.9,11.5,1.6
	c-4.5,1.7-6.5,6.1-10.9,2.7c-0.6-0.5-2.8,0-3,0.5c-0.5,1.7-0.5,3.6-0.4,5.5c0.1,1.9,0.4,4,0.9,5.8c0.8,3-2.5,8.6,2,8.6
	c4.9,0.1,3.8,3.6,5.5,5.6c-1.4,0.5-2.3,0.8-2.6,0.9c2.5,3.8,4.7,7.4,7.4,10.7c0.6,0.8,2.3,0.8,3.3,1.2c0.1-1,0.5-2.7,0.4-2.9
	c-6.6-1.9-1.4-5.5-0.8-8.4c-2.6-2.5-5.2-5.1-8.9-8.7c3.9-1.9,7.5-3.8,10.3-5.3c1.7,2.5,3.1,4.5,4.5,6.6c0.5-0.4,0.9-0.8,1.4-1
	c-1.5-3.6-3.1-7.4-5.1-12.2c-1.3,2.5-1.9,3.5-3.1,5.7c-0.1-3.1-0.2-4.9-0.4-6.6c-1.9-0.6-3.4-1-5.2-1.7c6.6-6.1,9.8-6.5,16.1-1.7
	C914.9,299.8,917.2,299.9,918.2,295z M162.7,779.1c0.7-6.2,1.5-12.5,2.4-19.4c-2.6,1.2-4.5,2.5-6.5,2.9c-2.7,0.5-5.8,1-8.4,0.1
	c-3.3-1.3-6.2-4-9.4-6c-0.8-0.5-2.5-0.6-3.1,0c-3,3.1-5.8,6.5-9.1,10.4c0.8,1.2,2,4.3,3.4,4.5c6.3,0.8,8.9,7.3,13.9,10
	c2.1,1.2,4.9,2.7,6.9,2.3C156.4,783,159.7,780.7,162.7,779.1z M1100.7,672.9c-0.4-2.9-0.1-5.1-0.9-6.6c-1.3-2.5-4.3-4.4,1.1-5.7
	c1.5-0.4,3.6-3.9,3.6-6c0.1-5.1-0.7-10.3-1.1-14.4c-3,0-5.8,0.9-6.9-0.1c-2.6-2.7-4.5-6.5-7.4-11c-0.4,2.7-0.8,4.4-0.7,6.1
	c0.7,11.8,1.3,23.6,2.3,35.3c0.5,6.1,5.9,12.3,11.6,13.5c0.5-3.5,0.8-7.1,1.3-10.7C1102,673,1100.8,672.9,1100.7,672.9z
	 M1238.4,74.4c-3.1,1.9-5.8,5.1-8.7,5.3c-5.7,0.4-6.3,0.3-7.5,5.8c-0.2,1.2-2.5,1.9-3.9,2.7c-1.5,0.9-3.8,1.2-4.4,2.5
	c-0.6,1.3,0.1,3.9,1.1,5.1c0.5,0.6,2.8-0.4,4.3-0.8c1.3-0.4,2.5-0.8,3.8-1.3c2-0.8,4.3-1,5.9-2.3c3.6-2.6,13.5-3.5,16.4-0.8
	c5.9-2.3,2.8-7.7,2.8-11.6c0-6.5-4.4-8.3-10.4-8.4c1.5-3.2,2.7-5.6,3.6-7.1c-4.2-0.8-8.4-1.7-11.7-2.3c-2.4,3.2-4.3,5.8-6.4,8.8
	c1.2,0.4,2.5,1.4,3.2,1c2.5-1.4,4.9-3.4,7.2-5.1C1235,68.4,1236.5,71.1,1238.4,74.4z M868.9,332.6c0.9,0,1.9-0.1,2.8-0.1
	c0.2-2.6,1.1-5.5,0.5-7.9c-1.5-6.5,2.1-9.9,5.7-15.1c1.7,3,2.7,4.9,3.8,6.9c0.5-0.4,1.1-0.8,1.5-1.3c-0.7-2.5-1.9-4.9-2-7.5
	c-0.1-2.9,1.3-5.8,0.9-8.6c-0.5-4.9,1.4-11.7-6.1-12.9c-0.1,0-0.1-0.4-0.5-2.2c0.7-0.4,2-1.2,3.4-2.1c-0.1-0.6-0.2-1.2-0.2-1.8
	c-3.6,0-7.4-0.6-10.7,0.3c-1.5,0.4-2.3,4-3.1,5.7c4.9,1.9,8.4,3.4,12.1,4.9c-0.2,0.6-0.4,1.3-0.6,1.9c-1.5-0.3-3.1-1-4.5-0.6
	c-2.4,0.5-4.7,1.7-7.1,2.6c1.1,2.1,1.7,4.5,3.1,6.1c3,3.4,2.5,5.1-2.4,7C866.8,316.1,867.8,324.4,868.9,332.6z M1166.8,348.5
	c-0.9-2.2-1.8-4.3-2.7-6.2c0.2-0.4,0.6-0.6,0.8-1c2.1,2.1,4.3,4.2,6.2,5.8c-0.8,2.9-1.7,5.2-2.4,7.5c2.6,0.3,5.5,1.2,7.8,0.6
	s4.5-2.7,8.1-5.1c-4.2-1.7-6.8-2.9-10.2-4.3c1.7-2.1,3.3-4,4.9-6c-0.2-0.5-0.5-1-0.7-1.6c-2.7,1.6-5.5,3.1-8.2,4.7
	c0-0.8-0.1-1.4-0.1-2.2c-2.4-0.5-4.7-1-7.2-1.6c-1.1-0.1-2.8,0.5-3.3-0.1c-3.4-4.5-6.5-1.2-9.8,0.3c-2.4,0.9-5,1.6-8.5,2.6
	c-0.6,3.8,1.5,5.1,6.2,5.3c3.4,0.1,6.9,2.5,11.4,4.2c-5.1,2.3-8.7,3.9-12.3,5.6c2.3,6.9,7.5,1.9,11.6,3.6c-1.8,1.6-3.1,2.6-5.1,4.3
	c6.4-1.2,10.9-8.3,9.1-13.3C1163.7,350.7,1165.1,349.6,1166.8,348.5z M147.5,707.8c0.1,0.4,0.4,0.8,0.5,1.2
	c-1.7,1.3-3.6,2.3-5.1,3.8c-1.7,1.6-3,3.5-4.5,5.3c2.5,1.4,5.1,4,7.6,3.9c2.7-0.3,5.9-2.5,7.7-4.9c2.6-3.6,4.6-3.9,7.8-1.4
	c1.3,1,3.4,0.6,5.3,1c-2-10.1-10.4-4.8-14.9-9.5c2.5-1.3,4.4-2.5,6.8-3.8c-0.9-1.9-1.7-3.6-2.6-5.5c1.7-0.9,3.3-1.8,5-2.9
	c-0.6-1.2-1.2-2.2-1.8-3.4c-5.8,1.6-11.6,3-17.6,4.5c1.9,2.5,3.3,4.3,5.1,6.8c-4.3,1.3-9.1-1.6-10.2,6.2
	C140.4,708.9,143.9,708.3,147.5,707.8z M299.4,115.4c0.4-0.5,0.8-1,1.2-1.6c-0.5-4.3-1.1-8.6-1.5-12.6c0.7-1.2,1.8-3,2.7-4.8
	c-4.7-1.8-3.7-6.4-4.2-10.1c-0.5-3.8-2.6-3.6-4.5-1.8c-1.2,1.2-2.1,3.2-2.1,4.9c0,0.8,2.4,1.7,3.6,2.6c-3,6.4-6.5,6.5-10.9,1
	c0.7-2.5,2.1-4.7,1.8-6.5c-0.2-1.2-2.8-1.9-5.1-3.2c-0.7,9-1.3,16.8-1.9,24.6c0.5,0.1,0.9,0.3,1.3,0.4c1.4-1.7,3-3.4,3.6-4
	C289,108.1,294.2,111.8,299.4,115.4z M1151.6,155.8c-4.9-2.2-8.3-5.1-11.7,0.4c-0.6,0.9-3.7,1.4-4.2,0.8c-4.3-6-8.3-0.6-13.6-0.8
	c1.7,1.6,2.3,2.1,3,2.7c-1.9,0.6-3.7,1.3-6.6,2.3c2.6,2.3,4.5,4,6.5,5.8c-0.1,1.2-0.4,2.7-0.6,5.1c5.5-2.7,10.1,7.3,15.3-0.8
	C1142.8,166.2,1147,161.7,1151.6,155.8z M196.3,375.2c-3.8,4-7.1,4.7-12.3,1.9c-1.1,8.3-2,16.1-3.1,25.6c5-2.7,8.4-4.7,12-6.5
	c-0.2-0.8-0.4-1.4-0.6-2.2c-2.3-0.5-4.6-1-8.1-1.7c1.4-3.2,2.8-6.5,4.5-10.3c1.3,2.2,2.3,3.6,3.4,5.6c3.9-5.5,4.6,0.4,6.8,0.9
	c5.5,0.5,10.9,1,16.6,1.6C215.2,374.1,202.5,379.1,196.3,375.2z M1236.2,2.8c-5.9-0.6-11-1.3-15.9-1.8c-1.7,1.6-3.3,4.7-5,4.7
	c-9.7,0.3-10.2,0.5-8.7,10.8c5.5,1.4,10.9,2.5,16,4.3c3.4,1.2,5-0.1,5.3-3.4c0.2-2.2-0.5-4.5-0.8-7c2.3,0,4.5,0,6.8,0
	C1234.8,7.8,1235.4,5.6,1236.2,2.8z M-12.6,197.4c0.6-0.4,1.1-0.9,1.7-1.3c-1.1-1.4-2-3.8-3.3-4.2c-4.9-1.6-10-2.6-14.9-3.8
	c-6.5-1.4-7.1-0.8-7.4,7.1c1.9-0.1,3.7-0.3,5.7-0.4c0.1,4.9,1.9,7.8,6.6,6.1c0.8,2.6,1.5,4.7,2.1,6.5c-4.5,0-8.7,0-12.7,0
	c2.3,2.2,5.6,5.2,7.1,4.4c2.7-1.6,4.4,0.1,6.5,0.1c2.6,0,5.3-2.1,7.9-3.4c-1.2-2.3-2.1-4.8-3.4-7.1c-0.9-1.6-2.3-2.7-4-5.1
	C-17.2,197-14.8,197.3-12.6,197.4z M1307,595.8c0.2,0.9,0.5,1.8,0.6,2.7c2.7-0.8,7.7-1.3,7.8-2.5c1.1-8.8,1.3-17.8-2.1-24.9
	c-3.7,0.4-6.5,0.8-9.7,1c-2.8,3-6.3,6.5-10.2,10.5c-1.1-2.6-1.7-4-2.4-5.6c-3,4.7-3,5.5,1.7,6.2c6.8,1.2,12.8,3.4,17.6,9
	c0.4,0.4,0.6,1,0.8,1.6C1309.6,594.7,1308.3,595.2,1307,595.8z M1258.6,374.3c6.9-4.8,0.8-9.4,1.7-13c-2.1-0.3-3.9-0.5-7.2-0.9
	c3.8-1.8,5.9-2.9,7.9-3.9c-2.4-3-4.7-6-7.1-9c-4.9,3.9-9,7.3-12.3,10c2.4,4,4.4,7.4,5.9,9.9c-2.4,2.5-4.3,4.4-7,7.3
	c3.1,1.6,5.1,2.6,7.7,3.9c0.7-2.6,1.4-4.8,2.1-7.5c0.9-0.3,2.8-0.4,4.5-1.2C1258.6,368.2,1258.6,368.2,1258.6,374.3z M240.4,205.4
	c0.7,1.3,1.1,3.2,2.1,3.9c2,1.3,4.4,1.7,6.5,2.7c4.6,2.5,7,7.7,4.4,11.2c-3.1,4.2,0.7,5.8,1.8,8.2c1.1,2.2,3.6,3.6,6.2,6
	c0.9-12.7,1.7-23.3,2.6-34.8c-2,0.5-4.4,0.5-5.7,1.7C251.3,210.9,248.9,211.2,240.4,205.4z M1156.5,168.3c-1.3,1.6-2.4,2.9-3.9,4.7
	c0.4-3.1,0.6-5.5,0.8-7.8c-6.1-0.9-9.7,2.2-11.7,9.6c4.6,3.4,9.1,7.1,13.9,10.3c4.6,3.1,13.2-1.4,13.8-6.9
	C1160.3,176.9,1157.5,176.2,1156.5,168.3z M339.8,442.1c5.9,4.8,8.2,4,9.3-2.1c0.5-2.9,1.3-5.7,1.5-8.7c0.2-3.6,0.2-7.3,0-10.9
	c0-0.6-0.9-1.4-1.5-1.7c-5-1.3-10.1-2.6-14.5-3.6c-1.3,3.4-3.2,6-3.3,8.7c-0.1,2.7,1.4,5.7,2.6,8.3c0.2,0.4,2.6,0.4,3.4-0.3
	c2.6-2.3,5-5.1,8.5-8.7c-0.4,4.5-1.9,9-0.6,11C349.7,441.4,345.6,441.8,339.8,442.1z M1157.5,250.1c0.9-2.2,0.4-5.7,5.6-3
	c3.7,1.8,5,5.2,7.9,7c1.4,0.9,3.2,1.2,4.9,1.3c0.4,0,1.2-1.7,1.2-2.6c0.2-10.5-4-14.3-13.4-11.8c-1.1,0.3-2,0.6-3.1,1
	c-0.1-0.3-0.2-0.6-0.4-0.9c1.3-0.6,2.6-1.4,5.3-2.9c-5.7-2.1-10.1-3.6-14.5-5.2C1153.7,239.5,1148.5,248.1,1157.5,250.1z
	 M1043.9,54.5c-0.6,0.5-1.9,2.3-3.6,3.1c-3.8,1.6-4,1.3-0.9,10.5c0.4,1.2,3.7,1.6,5.6,1.6c1.3-0.1,2.5-1.7,3.2-2.2
	c0.6,3,1.2,6.1,2,10.5c3.2-3.2,5.8-5.7,7.4-7.3c-1.3-5.3-2.3-9.2-3.1-12.7C1051.5,56.9,1048.3,55.9,1043.9,54.5z M943.9,314.6
	c7.6-0.1,11.6-4.2,11.7-9.5c0.1-6.6,0-13.3,0-19.7c-9.4-1.9-14,4.2-12.2,14.4c2.7,1.7,5.1,3,7.6,4.4
	C948.3,308.1,946,311.3,943.9,314.6z M268.5,246.9c-3.8,10.9-3.8,10.9,5.8,11.8c0.4,0,0.8,0.5,1.1,0.4c3.6-1,7.1-2.2,10.6-3.5
	c0.5-0.3,0.8-1.4,1.1-2.2c2-5.7-1.4-8.3-5.2-10.5c-2.5-1.4-5.5-2.2-8.1-3.4c-1.4-0.6-2.6-1.6-3.9-2.5c-0.7,1.8-1.5,3.5-2.8,6.8
	c4.9,0.9,8.7,1.6,13.2,2.3c-0.5,1.2-0.7,4-2.3,5.5C272.5,256.5,272,247.7,268.5,246.9z M366.6,414.6c1.8-2.5,3-4.5,4.6-6.4
	c3.3-3.6,1.7-5.2-1.7-6.8c-1.7-0.8-3.3-2.2-4.3-3.8c-1.4-2.2-2.4-4.8-3.9-8.1c-0.4,0.1-1.9,0.6-3.4,1.2c6.3,4.2-1.3,5.5-0.9,8.3
	c0.4,3.2-0.9,6.6-1.1,10c-0.1,2.9,0.5,5.7,0.8,9.6C360.5,415.4,361.3,408,366.6,414.6z M1052.3,207.9c-0.6-0.4-1.1-0.8-1.7-1.3
	c-1.4,2.6-3.7,5.1-3.9,7.8c-0.2,1.8,2.1,5.3,3.8,5.7c3.6,0.9,7.6,0.9,11.3,0.1c2.6-0.5,4.9-3,5.8-3.5c1.3-3.6,2-5.8,2.8-8.1
	c-10.1-3.4-15.3,0.5-18.5,5.3C1051.9,212.2,1052.1,210,1052.3,207.9z M1050.4,700.8c5.2-8.3,4.9-9.5-6.1-22.2
	c0.7,8.4,1.4,15.6,2.1,23.8c-0.4,0.5-2.5,1.8-2.5,3.4c-0.1,2.7,0.4,5.7,1.7,8.1c0.6,1.2,3.2,1,5,1.4c0.4-2.1,0.7-4.2,1.2-6.1
	c0.5-1.8,1.1-3.8,1.8-6.2C1052.7,702.2,1051.5,701.5,1050.4,700.8z M1225.5-20.9c-0.2-2.3-0.4-4.3-0.5-6.2c6.8-1.2,7.6-2.6,4.5-7
	c-2.6,1.3-5,3.1-7.6,3.4c-0.9,0.1-2.4-3.1-3.9-5.6c-4.3,7.1-10,13.4-19.9,10.4C1206.4-16.6,1216-23,1225.5-20.9z M910.8,373.8
	c1.2-2.3,2-3.9,2.8-5.6c7.2,6.9,4.3-3.1,7-3.8c0-0.6-0.1-1.3-0.1-1.9c-9-1.6-18-3.1-27.2-4.7c-1.8,6.5-0.2,9.4,5.7,9.9
	c-0.1-1.7-0.2-3.5-0.4-5.3c2.3,0.9,3.4,2.1,3.9,3.5c0.5,1.4,0.1,3.2,0.1,5.3c1.7-0.9,3-1.7,4-2.2C908,370.4,909,371.7,910.8,373.8z
	 M1032.6,140.5c0-7.5-2-10.1-10-12.2c1.1,2.5,1.8,4.2,3.3,7.5c-3.8-0.6-6.6-1.4-9.6-1.4c-4.3-0.1-8.9-1.4-12.9,4.9
	c8.3,1.8,15.9,3.4,24.1,5.1c-1.1-2.3-1.7-3.8-2.8-6.1C1027.9,139.2,1030.1,139.7,1032.6,140.5z M1237.7,46.9
	c1.4,0.1,3.7,0.6,3.8,0.3c0.8-2.5,1.3-5.1,2.1-9c-4.3,1.8-6.9,3-10.1,4.3c1.2-1.8,1.9-2.7,3.3-4.9c-10.1,2.3-18.9,4.2-25.5,11.2
	c0.2,0.6,0.5,1.3,0.7,1.9c4-2.1,8.1-4,12.2-6.1c3.2,2.6,6.6,5.5,10.4,8.6C1236.2,50.2,1237.1,48.4,1237.7,46.9z M14.2,177.9
	c2.6,0,5.2,0,7.7,0c0,0.6,0.1,1.3,0.1,1.9c-1.7,0.5-3.3,0.9-4.9,1.4c-0.2,0.5-0.5,1-0.6,1.4c2.6,1.6,5.1,3.5,7.9,4.4
	c1.2,0.4,3.6-0.5,4.3-1.7c2.6-4.2,0.5-11.7-3.9-14.4c-3.2-1.9-6.5-3.6-10.1-5.6C14.6,169.7,14.4,173.4,14.2,177.9z M1038.2,682.5
	c0.6,0,1.2,0,1.7,0c0-16.5,0-33.1,0-50c-5.1,1.8-6.5,4.8-5.5,9.6c1.1,4.5,1.9,9.1,2.3,13.8C1037.4,664.7,1037.7,673.5,1038.2,682.5z
	 M1161.6,172.8c0.8-1.2,3-3.6,2.7-4c-3.6-5.1-0.8-8.2,2.1-10.7c-0.8-3-1.9-5.2-2-7.5c-0.1-3.6,0.6-7.3,0.9-11.6
	c-3.1,4-5.5,7.3-7.9,10.3c-3.2,3.9-3.1,10.3-0.1,14.8C1158.8,166.1,1159.7,168.8,1161.6,172.8z M1238.1,25.5
	c0.5-1.6,1.2-3.9,2.1-6.8c-2.4,0-4,0-5.8,0c0.5-1,0.7-1.8,1.1-2.5c-3,2.2-5.2,4.9-6.6,8.2c-1.2,2.6-2.8,7.3-1.8,8.4
	c2,2.2,5.8,3.6,8.5,3.2c2.3-0.4,4.3-3.8,5.9-6.1C1241.8,29.7,1239.5,27.3,1238.1,25.5z M1253.3,147.2c-0.7-5.8-1.4-11.3-2.1-16.8
	c-7.5,2.9-7.5,2.9-13.5,14.4C1241.8,152.6,1247.5,147.6,1253.3,147.2z M1086.6,158.2c-0.1-0.5-0.2-1.2-0.2-1.7
	c-10.2-1.8-18,6.5-27.2,7.7c4.7,1.6,9.6,4.7,14.4,4.5c4.9-0.1,9.6-3.4,15.2-5.5c-2.5-1.6-4-2.5-7.1-4.4
	C1084.3,158.4,1085.4,158.3,1086.6,158.2z M-34.8,174.1c4.3,2.9,7.7,6.5,11.7,7.5s8.5-0.4,11.5-0.6c0.8-3.9,1.5-7.1,2.1-9.5
	c-7.5,0-15.1-0.1-22.7,0.1C-33,171.5-33.9,173.4-34.8,174.1z M1084.9,641.7c-0.5,0-1.1,0-1.5-0.1c-0.5,4.4-1.4,8.7-1.4,13.1
	c0,4,4.7,9.4-2.1,10.3c-4.4,8.6,0.7,14.4,5.1,20.8C1084.9,671.1,1084.9,656.4,1084.9,641.7z M970.4,449.9c-0.6,0.1-1.2,0.3-1.9,0.3
	c3.4,4.4,10.6,3.6,18.2-2.7c-3.3-3.9-6.5-7.9-10.1-11.4c-0.8-0.8-3.2,0.3-4.9,0.5c0,0.4,0,0.8,0.1,1.2c1.4,0.6,3,1.3,4.4,2.1
	c-0.1,0.4-0.1,0.8-0.2,1.2c-1.9,0-3.7,0-4.4,0C971,444.5,970.8,447.2,970.4,449.9z M283.1,278.2c-3.1-9.5-10.6-11.8-17.3-6
	c0,2.5,3.6,3.8,0.9,7.7c-2,3.2,4.3,6.9,11,5.2c-1.5-2.9-3-5.6-4.6-9.1C276.7,276.9,279.6,277.5,283.1,278.2z M1243.2,164.8
	c-1.4,4.4-2.7,8.4-3.8,12.3c-0.6,1.9-0.7,3.9-1.1,5.8c3.9,0.4,7.9,1,11.9,1c1.2,0,2.5-1.8,3.3-3.1c0.5-0.6,0.1-1.9-0.1-3
	c-0.9-6.4-5.5-3.4-9.5-3.9c0.9-3,1.8-5.6,2.6-8.3C1245.4,165.6,1243.9,165,1243.2,164.8z M1233.8,214.9c3-0.3,5.3-0.4,8.2-0.6
	c-1.4-3.1-2.6-5.6-3.8-8.2c-0.5,0.3-0.8,0.4-1.3,0.6c0.1,0.9,0.2,1.8,0.4,2.7c-10.1-0.1-11,0.8-7.8,7.3c-8.1,6.1-8.1,6.1-6.4,11.8
	C1235.6,222.3,1235.9,221.9,1233.8,214.9z M1219.5,114.5c0.2,1.2,0.5,2.2,0.6,3.4c8.4-0.1,17.9,5.3,23.1-6c0.8,2.5,1.8,5.3,2.7,8.1
	c0.9-0.4,1.9-0.6,2.8-1c-0.9-3.9-1.9-7.8-2.6-10.5c-5.8,1.4-11.2,2.7-16.6,3.9C1226.2,113.1,1222.8,113.7,1219.5,114.5z
	 M175.5,423.3c-5-0.5-9.7-1.8-12.1,4.2c-1.5,3.9,2.7,11.3,8.9,15.8C173.3,436.7,174.3,430.3,175.5,423.3z M134.5,332.8
	c1.2-0.5,3.4-1.6,5.5-2.9c0.4-0.3-0.1-3.2-0.9-3.8c-3.3-2.2-6.9-5.2-10.4-5.5c-2.8-0.1-5.9,3.2-8.9,5.1c1.9,1.8,3.7,4,5.8,5.1
	C128,332,130.9,332,134.5,332.8z M170.7,771.9c1.7-3.8,3.1-7,4.4-10.3c0.6-1.4,1.4-3.9,0.8-4.7c-0.8-1-3-1.7-4.4-1.3
	c-1.4,0.4-3.6,1.8-3.8,3.1c-1.1,6.1-1.7,12.5-2.6,20.4c4.5-2.1,7.8-3.6,11.3-5.2c-0.2-0.6-0.5-1.4-0.6-2.1
	C174.2,771.9,172.6,771.9,170.7,771.9z M1014.8,586.2c0.2,0.5,0.6,1,0.8,1.6c-0.9,1.3-1.9,2.6-3.8,5.1c4.7,0.4,8.3,0.8,10.8,0.9
	c-0.7-5.5-1.3-9.2-1.8-13c1.5,0.8,2.8,1.3,4.6,2.1c-1.9-6.4-4.9-7.4-9.3-4.3c-3.1,2.2-6.2,4.3-9.1,6.6c-0.6,0.4-0.5,1.7-0.9,3.4
	C1009.5,587.8,1012.2,587,1014.8,586.2z M-37.2,215.2c-4.6,0.8-6.1,11-13.2,4.9c-0.6,2.9-1.2,5.2-1.5,7c3.3,0.4,6.1,0.6,7.5,0.8
	c4.9-2.6,8.9-4.8,12.5-6.6c2.6,0.4,4.9,0.9,7.1,1c0.1,0,0.8-2.5,0.5-3.6c-0.4-1.2-1.5-2.1-3.2-4.2c0.1,2.5,0.1,3.5,0.2,5.6
	C-31,218.2-34,216.7-37.2,215.2z M214.1,344.4c1.8,0.3,4.2,1.2,4.7,0.4c1.5-2.1,3.3-5.1,3-7.1c-0.4-1.8-3.6-4.2-5.6-4.2
	c-1.9,0-5.1,2.2-5.7,4.2c-1.7,6.2-2.3,12.9-3.3,19.4c2.3-0.6,5-1.4,8.5-2.5c-2.1-1.4-3.3-2.2-4.4-3
	C212.5,348.9,213.4,346.5,214.1,344.4z M33.8,228.7c0.5-0.8,1.1-1.6,1.5-2.2c-3.6-3.4-6.8-8.2-10.9-9.5c-2.3-0.6-6.1,4.5-9.5,7.4
	C21.1,230.9,27.9,227.5,33.8,228.7z M1152.3,663.5c3.3,5.2-0.4,14.7,8.2,16c1.3-2.7,2.4-5.1,3.6-7.4c1.1-2.3,2.1-4.7,3.7-8.2
	c-3.7,1-5.6,1.7-7.9,2.3C1159.1,659.5,1155.3,663.3,1152.3,663.5z M869,340c1.3,3.6,1.5,7.8,3.6,9.6c2.4,2.1,6.2,2.2,9.8,3.2
	c-0.9-5.8-1.9-12.1-3.1-19.4C875.7,335.7,872.6,337.7,869,340z M142.3,753.7c3,2.1,5.6,4.3,8.5,5.8c2,0.9,4.5,1,6.6,0.9
	c2.1-0.3,4.3-1,6.1-2.2c1.2-0.8,2.5-2.9,2.4-4.2c-0.1-1.3-2.1-3.2-3.2-3.1C155.9,751.5,149.2,752.6,142.3,753.7z M22.1,204.4
	c1.3-6.2-4.3-6.8-6.9-9.5c-0.7-0.8-3.8-0.6-4,0c-2.3,4.9-8.4,8.7-3.8,16.6c0.1-1.6,0.2-2.5,0.2-1.7c4-0.4,7.8-0.9,12.5-1.4
	c-3.1-2.7-5.6-4.9-8.3-7.3C18,194.7,17.9,204.7,22.1,204.4z M1043.5,608c-0.2,3.9-0.7,6.5-0.5,9c0.1,1.8,1.2,3.6,1.9,5.3
	c3.6-2.6,7.2-4.9,10.6-7.8c0.6-0.5-0.5-3.2-0.9-4.8c-0.1-0.4-0.9-0.9-1.5-0.9C1049.9,608.6,1046.8,608.3,1043.5,608z M229.4,415.4
	c-6.9,2.2-12.2,3.9-17.7,5.7c0.2,0.8,0.4,1.6,0.6,2.3c5.3,0,10.7,0.1,16-0.1c0.8,0,2.4-1.8,2.4-2.9c0.4-3.6,0.1-7.4,0.1-13.1
	c-3.3,1.7-6.2,3.1-8.9,4.5c0.1,0.6,0.2,1.3,0.4,1.8C224.1,414.1,225.8,414.5,229.4,415.4z M-59.3,295.3c-1.4,2.5-1.7,6,2.5,7.7
	c4.9,2.1,10,3.2,15.1,4.7c1.8,0.5,3.6,0.5,5.3,0.8c0.1-0.5,0.2-1,0.2-1.6c-1.8-0.5-3.6-1.2-5.7-1.8c3.3-4.7-0.2-5.1-2.8-5.8
	C-49.3,297.9-54.1,296.8-59.3,295.3z M853.1,366.1c0-5.1,0-9.6,0-14c-0.6-0.4-1.3-0.8-1.9-1c-4,5.7-8.1,11.6-12.9,18.6
	C843.7,368.2,848.1,367.3,853.1,366.1z M-67.3,301.2c-1.8-1-3.7-3-5.6-2.9c-4.6,0.1-9.3,1.2-13.9,2.2c-0.5,0.1-0.9,3.4-0.5,4.8
	c0.8,2.3,9.8,4.2,11.7,2.6C-72.8,306-70.3,303.9-67.3,301.2z M341.3,398.1c4.5,2.9,7.7,4.9,12.1,7.7c-2.6-7.5,1.7-15.6-5.8-22.2
	c0,3.6,0,6.2,0,7.1C345.1,393.7,343.3,395.8,341.3,398.1z M886.6,434.7c0,5.6,0,11.2,0,18.4c5.3-3.1,9.4-5.6,14.5-8.6
	C895.1,441.5,887.2,444.6,886.6,434.7z M-54.2,200.2c-3.8-1.9-5.8-2.7-7.5-4c-1.9-1.4-3.3-3.6-5.3-4.7c-1.8-0.9-4.2-0.6-6.3-0.9
	c0.5,2.7,0.2,7.5,1.4,8.1c4.6,1.8,9.7,2.3,14.6,3.1C-56.6,201.9-55.9,201.2-54.2,200.2z M192.6,408c2.1,1.7,3.6,2.7,5,3.8
	c0.8-2.6,1.8-4.7,2.3-6.8c0.4-1.4,0.5-3.8-0.2-4.4c-0.9-0.9-3.4-1.2-4.3-0.5c-3.7,3.2-7,6.9-10.7,10.7c3.9,0.8,6.6,1.3,9.6,1.8
	C193.7,411.2,193.4,410.1,192.6,408z M-69.2,174.9c1.1,3.1,1.4,5.3,2.5,6.9c1.2,1.8,3.1,4.4,4.5,4.3c5.1-0.5,8.9,0.9,11.3,6.5
	c0-3.1,0.2-6.2-1.1-8.1c-2.1-3-5.3-5.1-8.5-7.9c-0.4,0.3-1.8,1.6-2.8,2.5C-65.5,177.6-67.3,176.3-69.2,174.9z M26.9,297.3
	c2,4.4,3.7,8.4,5.3,12.1c5.2-1.3,10-2.5,16.4-4C40.8,302.5,34.2,299.9,26.9,297.3z M46.9,185.6c-3.6-2.2-3.8-3.2-5.5-9.1
	c-0.4-1.2-3.7-1.9-5.5-1.7c-1.2,0.3-2,2.7-3,4.3c2,2.6,4.2,4.5,5.6,7C42.1,192.4,43,192.6,46.9,185.6z M1252.4,521.8
	c-1.5,6.5,0.6,8.6,5.8,7.7c0.9-0.1,1.9,0.1,2.8-0.1c1.5-0.4,3.1-1.2,4.6-1.7c-1.3-1.9-2.3-4.9-3.9-5.5
	C1259.1,521.1,1255.9,521.8,1252.4,521.8z M1023.2,606.5c-3.9-0.5-7.8-1-12.2-1.6c-2,4-1.1,7.9,3.9,10.1
	C1021.8,618,1020.5,610,1023.2,606.5z M222.1,346.4c2.7,0.6,4.9,1.3,7,1.6c1.1,0.1,2.1-0.6,3.2-1c-1.3-4.3,4.3-10.5-3.3-13.3
	C226.5,338.2,224.1,342.6,222.1,346.4z M1168.3,280.9c-0.1,0.8-0.2,1.7-0.2,2.5c2.7,0.6,6.5,2.9,7.8,1.7c4-3.9,5-9.1,1.7-15.6
	c-2,1.9-3.7,3.6-5.6,5.6c1.8,1,2.8,1.7,4.3,2.5C1173.2,279,1170.7,280,1168.3,280.9z M1082.6,193.6c0,0.9,0.1,1.9,0.1,2.9
	c4,0.8,8.2,1.4,12.5,2.2c0-3.6,0-5.5,0-7.4c0-1.6-0.2-3-0.2-4.5C1090.3,189.5,1086.5,191.5,1082.6,193.6z M1070.9,95.9
	c-0.1-0.6-0.1-1.2-0.2-1.8c-3.8,0.4-7.6,0.3-11.3,1.3c-1.3,0.4-2.8,3.5-2.6,5.1c0.4,2.6,1.8,5.3,5.5,3.4c1.4-0.8,3.4-0.1,5.2-0.1
	c-0.5-1.6-0.9-3.5-1.5-5.6C1067.8,97.2,1069.4,96.6,1070.9,95.9z M123.4,346.8c2.6,2.7,4.6,4.9,7.2,7.7c1.4-9.7,1.4-9.9-13.3-12.1
	c1.1,2.6,1.9,5.1,2.8,7.4c0.6,0.4,1.2,0.8,1.7,1.2C122.4,349.6,122.9,348.2,123.4,346.8z M1054.6,76.4c4,9.1,4,9.1,12.6-3.2
	C1063.3,69,1063.3,69,1054.6,76.4z M207.4,332.6c2.7-2.2,5.6-4.3,5.5-4.5c-1.5-3.2-3.6-6.1-5.5-9.2c-1.7,2.3-4.2,4.4-4.6,7
	C202.4,327.4,205.2,329.6,207.4,332.6z M1150.6,122.4c4.5,1.8,8.4,3.2,12.3,4.8c0.4-0.5,0.7-1,1.2-1.6c-1.2-4.4-2.5-8.8-3.7-13.4
	C1161.7,120.3,1153.5,116.7,1150.6,122.4z M912.7,250.3c-5,1.9-9.3,3.6-13.6,5.3c0.5,1.3,1.1,2.9,1.9,5.1c1.8-2.3,3.2-4.2,5.1-6.6
	c0.8,3.2,1.2,5.2,1.8,7.5c3.2-2.9,5.9-5.3,8.8-8.1C914.3,251.7,912.9,250.5,912.7,250.3z M1140.8,113.6c-5.8,3.8-10.7,6.9-16,10.3
	c7.1,2.7,14.1-0.1,18.5-7.1C1142.3,115.4,1141.2,114.1,1140.8,113.6z M1115.4,635.3c-0.5,0-0.9,0.1-1.4,0.1
	c2.3,19.4,4.6,38.7,6.9,58.1c0.4,0,0.7-0.1,1.2-0.1C1119.8,674,1117.5,654.7,1115.4,635.3z M1030.5,158.8c2.1,0.1,4.5,0.3,7.1,0.4
	c-0.2-5.2-0.6-10.3-0.8-15.2C1030.4,147,1028.8,151.9,1030.5,158.8z M1182,325c-4.6,7.1-5.2,0-7.8-3.5c-2,3.6-3.6,6.6-6.2,11.3
	c5.9-0.4,10.4-0.8,15.1-1.2C1182.7,329,1182.4,327.2,1182,325z M1091.1,123.9c1.2,1.7,2,2.9,3,4c0.5-0.1,0.9-0.4,1.4-0.5
	c-0.4-2.1-0.4-4.4-1.3-6c-0.6-0.8-3.1-0.1-4.6,0c-0.8,0.1-1.9,1-2.5,0.8c-6.4-3.5-3.2,2.3-3.7,4.3c-1.7,0.5-3.3,1-5,1.6
	c0.2,0.6,0.4,1.2,0.6,1.8C1082.7,127,1089,132.4,1091.1,123.9z M1134,325.2c-0.6-2.2-1.1-3.6-1.5-5.2c-4.2,4-12.2-2.6-14.5,7.1
	C1123.8,330.8,1128.5,326.4,1134,325.2z M-36.9,227.9c-4.5,1.9-8.4,3.8-12.5,5.6c0.1,0.5,0.1,1.2,0.2,1.7c4.6,0.4,9.4,0.8,14.8,1.2
	c0.4-0.8,1.3-3.1,2.3-5.2C-34,229.7-35.8,228.6-36.9,227.9z M127.4,800.1c0.7-0.3,1.3-0.5,2-0.6c2.6-5.8-0.2-15.5-6.8-22
	C124.3,785.1,125.9,792.7,127.4,800.1z M2.3,228.8c0.4,3.9,0.6,7.1,0.9,10.4c3.9-1.9,7-3.4,10.4-5.1c0.2-0.9,0.9-2.7,1.5-4.7
	C11.3,229.3,7.2,229.1,2.3,228.8z M48.2,141.9c0.7-0.9,1.4-1.8,2.1-2.9c-2.8-4.2-5.7-8.2-8.7-12.3c-0.8,0.4-1.7,0.8-2.6,1
	c0.6,2.9,0.6,6.4,2,8.6C42.8,138.8,45.8,140.1,48.2,141.9z M815.4,581.4c-2.7,0-5,0-7.4,0c-0.4,2.2-0.6,4-0.8,6.2
	c1.9,0.1,3.6,0.3,6.2,0.5c-2.4,1.9-4,3.2-6.1,4.8C815.3,594.1,816.6,592.1,815.4,581.4z M-4.3,368c1.2,2.5,2.1,5.1,3.6,7.1
	c0.8,1.3,2.5,1.9,3.9,2.9c0.9-1.7,2.6-3.2,2.7-4.9C6.1,366.9,4.3,366.1-4.3,368z M1174.1,299.1c0.2,0.4,0.4,0.8,0.6,1.2
	c1.9-0.5,3.8-1.2,5.7-1.7c-1.7-3.8-3.2-7.7-5.6-13c-2.5,4.3-3.9,6.8-6.2,10.4c3.3,0,5.2,0,7.7,0
	C1175.4,297.3,1174.7,298.2,1174.1,299.1z M-5.8,239.7c0.9-0.1,2-0.1,3-0.3c0.2-2.7,0.1-5.7,0.9-8.3c2.3-7.5-1.5-7-7-6.2
	C-7.8,230.1-6.8,234.9-5.8,239.7z M1272.6,338c1.3,4.9,2.1,8.6,3.2,12.2c0.1,0.5,1.5,1,2,0.8c3.1-1.6,6.8-2.9,5-7.8
	c-2.3,0.1-4.2,0.3-6.1,0.4c0-0.6-0.1-1.2-0.1-1.8c1.7-0.5,3.2-1.2,6.5-2.3C1279,338.7,1276.5,338.5,1272.6,338z M256.7,383.6
	c-2.5,7.8,4.5,5.2,6.1,7.7c2.8-2.2,5.2-4,7.6-5.8c0-0.6,0-1.2-0.1-1.8C266,383.6,261.7,383.6,256.7,383.6z M875.8,376.1
	c2.6-3.6,5.3-6.2,6.9-9.5c1.9-3.9-0.7-9.5-4.6-10.1c2.8,4.5,1.7,7.9-1.7,11.2C873.5,370.3,872.9,373.5,875.8,376.1z M156.2,342.2
	c2.6,0,4.3,0,5.8,0c1.1,0,2.1,0.3,3.1,0.4c-0.4-1.2-0.5-2.7-1.2-3.4c-2.5-2.5-5.3-4.7-8.2-7.1C150.2,336.1,154.9,339.4,156.2,342.2z
	 M-72.1,257.7c-1.7-0.4-2.8-1-3.7-0.8c-3,1.3-6.1,2.7-8.7,4.8c-1.2,0.9-1.1,3.6-1.7,5.5c1.9,0.1,4.4,1.2,5.5,0.3
	C-77.7,264.9-75.3,261.6-72.1,257.7z M199.4,305.5c-3.8,3.8-3.7,6.5-1.8,8.8c2.4-0.8,5-1.2,7.2-2.5c1.1-0.6,1.3-2.9,1.9-4.4
	c-1.2,0-2.5,0.1-3.7-0.1C201.9,306.9,200.9,306.1,199.4,305.5z M896.2,609.9c-2.6-0.8-4.6-1.3-5.7-1.7c0,5.2,0,10.4,0,15.7
	C894.3,620,900.2,617.3,896.2,609.9z M1191.5,236.5c-3.8,1.3-7.1,2.5-10.3,3.6c-1.2,0.4-2.4,0.8-3.3,1.4c-0.2,0.1,0.4,2.5,0.8,2.6
	c1.3,0.4,2.8,0.3,4.3,0c0.9-0.3,1.8-1.6,2.6-1.6c3-0.3,6.1-0.1,10.3-0.1C1193.4,239.2,1192.4,237.8,1191.5,236.5z M369.4,440.5
	c0-0.9,0-1.9,0-2.9c-4.3,0-8.5-0.3-12.7,0c-0.5,0-1.4,3-1.1,3.5c1.5,1.9,3.6,3.5,5.9,5.6c1.2-3.6,1.8-5.5,2.1-6.2
	C366,440.5,367.8,440.5,369.4,440.5z M226.4,316.8c-11.3-4-11.3-4-14.4-1.9c0.7,8.3,6.4,4.9,10.4,5.2
	C223.5,320,224.6,318.3,226.4,316.8z M-29.3,226.7c5.2,3.5,11.6,1.2,15.2-5.7c-1.2-1.2-2.5-2.5-4.3-4.3
	C-18,226.7-26.7,222.2-29.3,226.7z M226.5,313.4c4.5-6.8,11.7,0.3,15.2-4.9c-5.1-1.8-9.7-3.6-14.4-5.1c-0.8-0.3-3,1.6-3,2.3
	C224.3,307.7,225.3,309.6,226.5,313.4z M1118.5,257.1c3.9-3.8,7.2-7,10.7-10.3c-0.1-0.4-0.2-0.8-0.4-1.2c-3.9,0.5-7.8,0.9-12.6,1.4
	C1116.8,250,1117.5,253.1,1118.5,257.1z M-0.5,155.2c-0.2,0.5-0.5,1-0.7,1.6c1.3,1.6,2.6,3.1,3.9,4.8c-1.9,1.3-3.8,2.5-6.4,4.2
	c8.5,1,9.6,0,11.2-10C4.9,155.7,2.1,155.4-0.5,155.2z M167.4,462c-3.6,2.1-6.1,3.5-8.4,4.9c-0.2,7.9,6.4,5.6,10.7,7.5
	c-1.2-1.8-2.4-3.6-3.7-5.5C166.3,467.1,166.7,465,167.4,462z M224,403c2.3,1,4.6,2.1,7,3.1c2.5-7.5,2.1-8.6-3.3-11.8
	C226.4,397.5,225.1,400.4,224,403z M64.8,810.8c-4.9-1.8-7.7,0.6-10.2,3.4c-0.4,0.4,1.1,4.5,2.1,4.8
	C62.6,820.5,61.9,814.2,64.8,810.8z M795.8,576.2c1.5,10,2.8,11.6,9.8,12.1C806.2,580.5,798.9,581,795.8,576.2z M1091,278.8
	c-1.5,1.8-2.7,3.1-3.8,4.4c0.1,0.4,0.2,0.8,0.4,1c3-1.2,5.9-2.5,8.9-3.6c-2.8-8.6-5.5-9.7-9.7-4.3
	C1087.9,277.2,1089.1,277.8,1091,278.8z M171.8,510.5c0.2,3.4,0,6,0.8,8.2c0.5,1,3.9,1.9,4.5,1.3c1.5-1.8,2.3-4.5,3.7-7.7
	C177.5,511.5,175.3,511.1,171.8,510.5z M275.6,85c-5.1,4-5.9,12.5,0,17.4C275.6,96.1,275.6,90.5,275.6,85z M1175.7,665.1
	c3.2-1.9,6.3-3.9,9.4-5.8c-0.2-0.6-0.6-1.3-0.8-1.9c-2.6,1-5.2,2.1-7.5,2.9c-0.8-1.9-1.8-3.9-2.8-6.4c-1.5,2.1-2.4,3.2-3.4,4.7
	C1172.2,660.8,1173.9,662.7,1175.7,665.1z M1238.6-21c4.7,3.1,6.2-2.2,8.9-3.8c0.5-0.3,0.4-2.6,0.2-2.6c-2.7-0.8-5.6-1.3-7.9-1.8
	C1239.4-26.2,1239-23.9,1238.6-21z M1227,128.1c3.4,11.2,4.4,11.4,12.2,3.8C1235.1,130.6,1231.6,129.6,1227,128.1z M1193.1,277
	c-2.6-1.2-3.8-1.7-4.9-2.3c-1.2-0.6-2.4-1.6-3.6-2.3c-0.6,1.7-2,3.8-1.5,4.8c0.8,1.9,2.8,4.7,4.3,4.5
	C1189.1,281.8,1190.7,279.2,1193.1,277z M148.8,466.3c-0.2-0.8-0.6-1.6-0.8-2.3c-3,0.9-6.2,1.3-8.9,2.7c-0.9,0.5-0.9,3.2-1.4,4.9
	c1.5,0.1,3.3,0.8,4.5,0.1C144.5,470.3,146.6,468.1,148.8,466.3z M254.2,114.5c1.3,2.2,2.6,4.3,3.8,6.4c0.7-0.6,1.5-1.3,2.3-1.8
	c-1.8-4.5-3.6-9.1-5.8-14.9c-2,5.2-3.3,8.7-5.3,14C251.6,116.3,252.7,115.5,254.2,114.5z M-33.2,277.3c-0.2-1.9-0.1-5.2-0.8-5.5
	c-3.2-1.2-6.6-1.8-10.1-1.9c-0.8,0-1.7,2.7-1.9,3.1C-41.6,274.4-38.1,275.6-33.2,277.3z M890.2,422.8c2.6-1.9,4.4-3.2,6.1-4.5
	c-2.3-1.7-4.4-3.6-6.9-4.8c-0.8-0.4-2.5,1.8-3.8,2.9C887,418.2,888.5,420.2,890.2,422.8z M-91.9,333.8c-0.5,0.5-0.8,1-1.3,1.6
	c1.9,1,3.9,1.9,5.3,2.7c-3.4,7.8-3.4,7.8,1.2,8.8C-83.2,336.3-84.2,333.7-91.9,333.8z M877.8,634.4c-0.4,5.1-1.5,10.3,2.4,14.4
	C881.2,643.6,883.1,638.3,877.8,634.4z M144.5,490.5c-2,2.2-3.1,3.5-4.2,4.7c2.1,1.4,4,3.4,6.3,4c0.9,0.3,2.6-2.1,4-3.2
	C148.9,494.5,147.1,492.8,144.5,490.5z M21,161.9c0.5-0.4,1.1-0.8,1.5-1.2c-0.9-11.4-0.9-11.4-7.5-7.8C17.1,155.9,19,158.9,21,161.9
	z M1284.7,510.1c0.5-0.5,0.8-1,1.3-1.6c-0.8-3.1-1.8-6.2-3-10.9c-2.6,3-4.5,4.9-6.4,7C1279.4,506.6,1282.1,508.3,1284.7,510.1z
	 M598.6,583.1c-3.9,0.5-6.9,0.9-9.5,1.3c-0.4,9.1,6.1,3.1,8.9,6.5C598.3,588.3,598.4,586.2,598.6,583.1z M1166.1,364.7
	c3.6,1,5.3,1.9,7.1,1.8c1.9-0.1,3.9-0.9,5.5-2.2c0.5-0.4-0.7-3.1-1.2-4.7C1173.4,361.5,1170.5,362.8,1166.1,364.7z M133.1,667.2
	c9.3,3.6,10.2,3.1,10.9-5.7C139.9,663.5,136.4,665.3,133.1,667.2z M918.6,260.7c6.4-3.2,6.3-8.6,0-14.3
	C918.6,251.2,918.6,255.7,918.6,260.7z M10.6,387.2c1.3,10.5,3,11.7,11.2,6.9c-3.4,0-5.3,0-8.4,0c1.4-3.2,2.5-5.7,4-9.1
	C14.4,385.9,12.6,386.4,10.6,387.2z M441.1,634.5c2.4,8.3,7.4,10.5,12.9,6.5C449.8,639,446,637,441.1,634.5z M1219.5-17.2
	c-3.1,0-5.9-0.3-8.7,0.1c-1.2,0.1-2.5,1.6-3.1,2.9c-0.4,0.6,0.7,2.1,1.1,3.1C1212.2-13.1,1217.9-9.8,1219.5-17.2z M-12.8,401.2
	c4.5-2.1,7.9-3.5,11.4-5.1c-0.1-0.6-0.2-1.2-0.4-1.8c-3.7,0-7.4,0-11.5,0C-13,396.9-12.9,398.8-12.8,401.2z M262.1,134.5
	c0-2.5,0-4.9,0-7.7c-4.5-0.8-7.9,1.7-8.1,5.6C253.8,139.8,259.6,131,262.1,134.5z M160,405.9c0.6-0.1,1.2-0.4,1.8-0.5
	c-0.4-3-0.6-6.1-0.9-9.1c-2.3,1.2-6.1,1.8-6.5,3.5C152.7,405.5,159.6,401.9,160,405.9z M87.2,779.7c0.5-0.1,0.9-0.1,1.4-0.3
	c-0.8-3-1.5-6.1-2.7-9c-0.2-0.6-2.4-1.2-3.1-0.6c-0.9,0.6-1.8,2.2-2,3.5c-0.1,0.8,0.9,1.9,1.7,2.6C84,777.3,85.7,778.5,87.2,779.7z
	 M980,430.1c-0.5,0.1-1.1,0.4-1.5,0.5c0.9,1.9,1.4,5.1,2.8,5.7c2.6,1.2,5.7,0.9,8.7,1.2c0.1-0.6,0.2-1.4,0.4-2.1
	C986.9,433.6,983.5,431.8,980,430.1z M900.9,636.9c-1.7-2.1-2.4-3.9-3.3-4.2c-2.1-0.5-4.5-0.3-6.8,0.1c-0.4,0-0.9,2.6-0.8,2.7
	c1.9,0.9,3.8,1.7,5.7,2.2C897,637.8,898.3,637.3,900.9,636.9z M318.2,351.2c1.3,2.6,2,3.9,2.6,5.1c3.4-2.3,6.9-4.8,11.2-7.7
	C325.8,341.6,323.8,353.2,318.2,351.2z M1304.4,555.4c-1.8,3.4-3.4,6.5-5.1,9.5c0.5,0.5,0.8,1,1.3,1.6c3-2.2,5.8-4.3,8.8-6.5
	C1307.6,558.4,1306.3,557.2,1304.4,555.4z M195.5,318.2c0.4-0.5,0.8-1,1.2-1.6c-0.8-4.3-1.8-8.6-3-14.6c-1.5,2.7-2.8,4.9-3.9,6.8
	C192,312.4,193.7,315.3,195.5,318.2z M293.9,182.6c-1.1-0.3-2.1-0.5-3.3-0.8c-0.8,3.9-1.7,7.9-2.4,11.8c0,0.3,0.9,1.3,1.2,1.2
	c0.9-0.5,2.4-1,2.6-1.9C292.8,189.6,293.3,186.1,293.9,182.6z M341.6,373.4c-0.6,0.5-1.3,1-1.9,1.6c0.9,3.5,1.8,7,2.7,10.5
	c0.9-0.1,1.9-0.3,2.8-0.4c0-2.7,0.4-5.6-0.1-8.2C344.8,375.5,342.9,374.5,341.6,373.4z M-50.4,180.8c0.6,0.1,1.2,0.3,1.8,0.4
	c1.1-3.2,2.7-6.5,3.1-10c0.1-0.9-3.1-2.3-5.6-4.2C-50.8,172.8-50.6,176.7-50.4,180.8z M1131.2,126.1c-1.9,4.5-3,7-4,9.6
	c3,0.3,5.6,0.4,9.8,0.8C1135,132.8,1133.6,130.2,1131.2,126.1z M1038.1,120.5c5.2-0.8,8.4-1.2,11.9-1.7c-1.5-2.3-3.3-4.8-5.6-8.1
	C1042.6,113.6,1040.8,116.2,1038.1,120.5z M100.6,25.8c0,0.6,0,1.2-0.1,1.8c1.3,0.6,2.7,1.8,3.9,1.7c2-0.4,4-1.6,5.9-2.7
	c0.2-0.1-0.1-2.6-0.2-2.6c-1.8-0.1-3.7-0.3-5.3,0.1C103.3,24.2,102,25.1,100.6,25.8z M1036.3,238.8c1.7,2.7,3,4.9,4.3,7
	c0.6-0.4,1.3-0.8,1.9-1.2c-1.3-3.2-2-7-4.2-9.6c-0.8-1-4.5,0.9-6.9,1.4c0.1,0.5,0.1,0.9,0.2,1.4
	C1033.6,238.3,1035.5,238.7,1036.3,238.8z M192.3,428c-0.1,0.9-0.2,1.7-0.4,2.6c3.7,0.8,7.5,1.6,11.2,2.3c0.1-0.8,0.4-1.7,0.5-2.5
	C200,428.2,197.1,423.8,192.3,428z M554.5,592.5c2.8-2.6,4.7-3.9,6.2-5.8c0.7-1,0.7-3.1,0.6-4.7c0-0.5-1.9-1.6-2.3-1.2
	c-1.1,0.8-2.3,1.9-2.7,3.2C555.5,586.2,555.2,588.7,554.5,592.5z M239.5,505.4c-2.4-3.8-4.2-6.6-6.8-10.8c-0.5,4.7-0.8,7.9-1.2,11.7
	C234.4,506.1,236.4,505.8,239.5,505.4z M990.5,424.1c0,0.5,0.1,1,0.1,1.7c3.2,1.2,6.4,2.5,10,3.9c0-2.9,0-4.8,0-7.5
	C996.9,422.8,993.7,423.4,990.5,424.1z M1175.1,231.2c-0.8-4.2-0.6-6.8-1.8-8.1c-3.7-4.2-6.3-1.6-6.3,2.6
	C1167.1,227.3,1171.6,228.8,1175.1,231.2z M124.5,761.9c0.9-4,1.5-6.1,2.3-9c-3.3,0.5-5.9,0.9-8.7,1.3
	C119.9,756.4,121.8,758.6,124.5,761.9z M985.2,415.3c-1.7-1.7-3-3-4.9-4.8c-1.3,4.4-2.4,8.2-3.9,13.8
	C979.9,420.6,982.2,418.1,985.2,415.3z M294.8,387.1c0.1,0.6,0.2,1.3,0.4,1.9c2.4-0.9,5.2-1.2,7.1-2.9c1.5-1.4,1.8-4.4,2.6-6.8
	c-0.5-0.1-0.9-0.3-1.4-0.4C300.5,381.9,297.7,384.5,294.8,387.1z M1121.8,375.9c-0.1,0.6-0.2,1.2-0.4,1.8c2.8,1.2,5.8,2.5,8.8,3.6
	c1.1-2.7,1.8-4.7,2.7-7C1128.8,374.8,1125.3,375.4,1121.8,375.9z M1049.3,106.1c2.8-2.9,4.6-4.7,7.2-7.3c-4-0.6-6.8-1.2-11-1.9
	C1047.1,100.5,1048,102.8,1049.3,106.1z M266.6,14.3c-0.8,0-1.5-0.1-2.4-0.1c-0.5,4-0.9,8.1-1.3,12c-0.1,0.9,0.2,2.1,0.7,2.9
	c0.2,0.4,0.9,0.4,2.1,0.9C266,24.5,266.3,19.4,266.6,14.3z M295.6,59.5c-0.1,0.6-0.1,1.2-0.2,1.8c2.5,0.6,5.1,1.7,7.6,1.7
	c0.6,0,1.1-3.9,1.9-7.7C300.9,57.3,298.3,58.4,295.6,59.5z M58.1,768.2c-1.1-0.3-2.1-0.6-3.2-0.9c-0.7,4.8-1.4,9.7-2.1,14.6
	c0.7,0.1,1.5,0.4,2.3,0.5C56.1,777.7,57.2,773,58.1,768.2z M112.7,724.3c0,1,0,1.9,0,3c3,0.4,5.9,0.8,8.9,1.2
	c-0.6-1.6-1.1-4.2-2-4.4C117.6,723.7,115.1,724.2,112.7,724.3z M190.9,522.6c2.8-2.7,5.3-4.9,8.5-8.1
	C191.6,513.2,189.9,515,190.9,522.6z M23.5,311.8c2-3.4,3-5.1,4.4-7.5c-1.8-1.6-3.9-3.5-6.2-5.5c-0.4,0.4-0.6,0.8-0.9,1
	C21.6,303.5,22.4,307,23.5,311.8z M277.6,618.7c-0.5,1-0.9,2.2-1.3,3.2c2.1,1.3,4.3,2.6,6.4,3.8c0.6-1.7,1.3-3.2,1.9-4.9
	C282.1,620.3,279.9,619.5,277.6,618.7z M1122.6,347.7c-0.7,0.1-1.3,0.3-2,0.4c-0.1,2.7-0.6,5.5-0.1,8.2c0.1,0.9,2.4,1.7,3.8,1.9
	c0.5,0.1,1.8-2.1,1.7-2.7C1125.1,352.6,1123.7,350.2,1122.6,347.7z M1144.6,315.7c0.1-0.6,0.1-1.4,0.2-2.1c-1.3-0.4-3-1.4-3.8-0.9
	c-2,1.3-4,3-5.1,5.2c-0.6,1,0.9,3.4,1.7,5.2C1139.3,319,1138,313.7,1144.6,315.7z M946.8,324.2c2.6-0.6,5.1-1,7.2-2.1
	c0.6-0.3,0.8-3.6,0.2-4C951.9,316.4,947.4,319.8,946.8,324.2z M866.8,431.5c0.2,4.7,0.5,8.3,0.7,11c2.1-1.7,3.8-2.9,5.5-4.3
	c0.5-0.4,1.1-1.4,0.9-1.9c-0.1-0.8-0.8-1.6-1.4-1.9C871.3,433.4,869.8,432.9,866.8,431.5z M1171.2,98.3c0.1,0.5,0.2,1.2,0.4,1.7
	c1.8-1.7,3.7-3.4,5.5-5.1c-2.4-2.2,3.3-7.1-1.1-8.4C1174.1,90.9,1172.6,94.5,1171.2,98.3z M-15.3,118c-0.2,0.8-0.6,1.7-0.8,2.5
	c3.3,2.6,6.2,6.2,10.7,5.1c0.2-0.6,0.5-1.3,0.7-2.1C-8.2,121.8-11.7,120-15.3,118z M229.4,725.4c0.5,0.1,1.1,0.1,1.5,0.3
	c-0.2-3.8-0.2-7.5-0.8-11.3c-0.1-0.8-2.5-1.2-4.4-2.1C227.2,717.4,228.4,721.5,229.4,725.4z M1151.8,249.7c-2.7-4.9-5-6.8-7.7-3.2
	c-0.7,1-0.1,3.2-0.1,4.9C1146.4,250.9,1148.9,250.4,1151.8,249.7z M255.5,299.2c-1.9,1.9-3,2.5-3.2,3.4c-0.7,2.2-1.3,4.5-1.4,6.8
	c0,0.4,1.8,1,2.7,1.6c0.7-1.8,1.5-3.8,2-5.7C255.8,303.9,255.5,302.5,255.5,299.2z M1159.8,313.3c-3.7-5.8-7.6-6.1-12.2-0.9
	C1151.8,312.7,1155.2,312.9,1159.8,313.3z M228.7,320.3c-2.8,9.6-2.8,9.7,3.9,10C231.2,326.9,229.9,323.7,228.7,320.3z M858.6,319.8
	c-0.5,0.4-1.1,0.6-1.5,1c0.6,3.2,1.1,6.4,1.7,9.5c1.8-1,3.2-1.8,5.7-3.1C862.2,324.4,860.3,322.1,858.6,319.8z M914.2,325.9
	c-0.8,0.3-1.7,0.5-2.5,0.8c0.2,2.1-0.2,4.8,0.8,6c1.7,1.8,4.3,2.3,7.8,4.2C918.1,333,916.1,329.4,914.2,325.9z M1245.6-43.7
	c-3.8-1.6-5.9-0.3-5.6,3.8c0.1,1.6,2.3,2.9,4.3,5.3C1245-39.2,1245.2-41.5,1245.6-43.7z M339.7,394.7c0.8,0,1.5-0.1,2.4-0.1
	c0-2.2,0-4.4,0-6.5c-2.4,0.1-4.7,0.1-7,0.3c0,0.6,0.1,1.3,0.1,1.9C336.6,391.6,338.1,393.2,339.7,394.7z M356.6,363.9
	c-0.5-0.4-1.1-0.9-1.5-1.3c-6.3,1.3-7.2,3.8-3,9.7C353.8,369.3,355.2,366.5,356.6,363.9z M1072.7,50.1c2.4-5.3,0.1-8.7-5-8.6
	C1065.1,47.5,1071.2,46.7,1072.7,50.1z M1162.7,85.5c0.2,1,0.5,2.2,0.7,3.2c2.5-0.5,5-0.8,7.4-1.7c0.4-0.1-0.2-3.2-0.5-4.9
	C1167.7,83.2,1165.2,84.4,1162.7,85.5z M-2.6,172.8c2.5,1.4,5.1,2.9,9.1,5.2c-0.8-4.8-1.3-7.9-1.8-10.7
	C2.1,169.5,0.1,170.9-2.6,172.8z M352,697.8c0.5-0.3,1.1-0.5,1.5-0.8c-0.4-2.6-0.5-5.3-1.1-7.8c-0.2-1-1.7-1.8-2.5-2.7
	c-0.7,1.2-2.3,2.7-2,3.4C348.9,692.8,350.6,695.2,352,697.8z M1134.7,342c-3.9,2.3-3.8-8.7-9.6-3.1c3,2.7,5.7,5.1,8.1,7.3
	C1133.7,345,1134,343.9,1134.7,342z M1204.2,339.9c-7-3.4-6.6,2.3-8.7,5.3c0.5,0.5,0.9,1.2,1.4,1.7
	C1199.3,344.6,1201.8,342.2,1204.2,339.9z M862.7,348.7c1.1-0.9,1.9-1.7,2.6-2.3c-1.4-1.3-2.7-2.7-4.3-4.2
	c-3.4,6.8,0.5,9.1,4.6,11.2C864.9,352,863.9,350.6,862.7,348.7z M1029.5,412.7c1.4,3,2.3,5.3,3.6,7.4c0.6,0.9,1.9,1.3,3,1.6
	c0.4,0.1,1.5-1.3,1.4-1.7c-0.8-2.3-1.5-4.9-3.2-6.5C1033.1,412.4,1030.7,412.9,1029.5,412.7z M111.6,49c-4.2-2.2-6.9-3.8-10.9-6
	c1.2,3.9,2,6.4,2.8,9C106.1,51.1,108,50.5,111.6,49z M246.8,399.3c-3.3,1.6-5.6,2.6-8.1,3.6c1.9,1.9,3.7,3.6,6.8,6.6
	C246.1,405.2,246.4,402.4,246.8,399.3z M96.3,95.1c0,0.8-0.1,1.4,0,2.1c0.2,1,0.4,2.5,1.1,3.1c0.4,0.4,2.4-0.1,2.5-0.5
	c0.2-1,0-2.5-0.5-3.5c-1.7-3.8-4-5.8-9.5-2.7C92.8,94.2,94.3,94.6,96.3,95.1z M1278.7,509.4c0.9,8.7,4.7,6.5,7.8,5.7
	c0.2-0.6,0.5-1.4,0.8-2.1C1284.8,512,1282.5,511,1278.7,509.4z M1168,183.2c6.8,3.2,10.4,1.6,13.4-4.9
	C1177.2,180,1173.4,181.3,1168,183.2z M1135.7,140.6c-4,0-8.1,0-12.3,0C1124.9,144.1,1131.2,144.5,1135.7,140.6z M357.2,345.4
	c-0.2-4.3-0.5-7.7-0.7-11c-0.6,0-1.1,0.1-1.7,0.1C351.5,343.1,351.5,343.5,357.2,345.4z M1007,197.1c-0.8,0.8-1.5,1.4-2.4,2.2
	c1.4,2.1,2.8,4.3,4.3,6.4c1.1-1,2.1-2.1,3.3-3.1C1010.4,200.9,1008.8,199.1,1007,197.1z M-37.6,241.2c-1.7,2.3-2.4,3.4-3.2,4.5
	c1.7,1.3,3.2,2.7,5,3.6c0.4,0.1,2.5-2.2,2.3-2.6C-34.4,244.9-35.7,243.5-37.6,241.2z M238.3,387.6c0.5,0.8,0.9,1.4,1.4,2.2
	c5.1,1,4.3-4.7,6.2-7.3c-0.4-0.4-0.7-0.9-1.2-1.3C242.6,383.3,240.5,385.5,238.3,387.6z M281.3,81.5c3.7-2.1,5.6-3.2,7.8-4.5
	c-0.9-5.3-4.9-0.9-7.4-1.7C281.6,77.1,281.5,79,281.3,81.5z M202.5,401.2c0.9,1.8,2,3.8,3,5.6c0.9,1.8,1.8,3.8,2.6,5.6
	C210.8,407.3,209.6,403.9,202.5,401.2z M347.8,372.3c-0.6,0.9-1.3,1.8-1.9,2.7c2,1.7,4.2,3.4,6.2,5.1c0.6-1.3,2-3.5,1.8-3.6
	C352,375,349.9,373.7,347.8,372.3z M157.1,387.8c-3.7,2.6-6.3,4.4-8.9,6.4C155.1,395.5,156.4,394.6,157.1,387.8z M1188,154.6
	c-2.3-5.2-5-7.3-8.3-4.7c-0.1,0.9-0.2,1.8-0.4,2.7C1182.2,153.3,1185.2,154,1188,154.6z M-6.2,199.9c-0.5,0.5-0.9,1.2-1.3,1.7
	c1.1,1.6,1.9,3.9,3.2,4.3c1.5,0.4,3.6-0.9,5.3-1.6c0-0.6,0-1.4-0.1-2.1C-1.4,201.5-3.8,200.6-6.2,199.9z M699.7,569.7
	c0.9-6.8,0.6-7.3-5.6-5.6C696.2,566.1,694.1,571.8,699.7,569.7z M1027.1,640.1c0.7-0.1,1.3-0.1,2-0.3c-0.7-6.1-1.3-12.2-2-18.3
	c-0.5,0-0.9,0.1-1.3,0.1C1026.2,627.9,1026.7,634,1027.1,640.1z M1037.1,116.8c-1.2-0.3-2.4-0.4-3.4-0.6c-0.4,3.2-0.7,6.4-1.1,9.6
	c0.7,0.1,1.5,0.3,2.3,0.4C1035.6,123.1,1036.3,120,1037.1,116.8z M868.5,266.4c-0.6-1-1.2-1.9-1.7-3c-1.9,1-3.9,2.2-5.8,3.2
	c0.8,1.2,2,3.4,2.4,3.2C865.1,269,866.8,267.5,868.5,266.4z M1273.7,67.5c0.2-0.5,0.5-1,0.7-1.6c-3.8-6.2-3.8-6.2-8.5-3.2
	C1268.8,64.4,1271.3,65.9,1273.7,67.5z M1047.2,376.7c-0.4-2.2-0.7-4-1.1-6.5c-2.4,0.8-4.2,1.4-5.2,1.8c0.7,3,1.2,4.9,1.7,7
	C1043.9,378.4,1045.2,377.7,1047.2,376.7z M261,43.2c-1.7-2.1-3.4-4.5-5.3-6.8c-0.1-0.1-2,0.9-2,1.6c-0.1,4.7,3.4,5.3,6.3,6.6
	C260.1,44.6,260.2,44.3,261,43.2z M217.8,407.3c0.7-0.4,1.3-0.8,2-1.2c-0.7-2.1-1.2-4.7-2.5-6.2c-0.6-0.6-3.1,0.6-6.5,1.4
	C214.3,404.2,216,405.8,217.8,407.3z M1163.2,409.4c0.5,0.5,0.9,0.9,1.4,1.4c2.3-1.4,4.4-2.7,6.6-4.2c-1.4-1.4-2.7-3-4.6-4.9
	C1165.2,405,1164.3,407.2,1163.2,409.4z M341.3,412.1c5.5,1.7,10.4-1.8,9.8-6C347.7,408.2,344.5,410.2,341.3,412.1z M1127.5,236.5
	c1.8,2.3,3.2,4.2,4.6,6.1c1.2-2.5,2.3-4.9,3.4-7.5C1133.1,235.5,1130.8,235.8,1127.5,236.5z"/>
</svg>
