<?xml version="1.0" encoding="utf-8"?>
<!-- Generator: Adobe Illustrator 27.8.1, SVG Export Plug-In . SVG Version: 6.00 Build 0)  -->
<svg version="1.1" id="레이어_1" xmlns="http://www.w3.org/2000/svg" xmlns:xlink="http://www.w3.org/1999/xlink" x="0px"
	 y="0px" viewBox="0 0 720.1 848.5" style="enable-background:new 0 0 720.1 848.5;" xml:space="preserve">
<style type="text/css">
	.st0{fill:url(#SVGID_1_);}
	.st1{fill:url(#SVGID_00000124845613343039795780000012707985277223602095_);}
	.st2{fill:#D1D1D1;}
</style>
<radialGradient id="SVGID_1_" cx="-1897.5848" cy="1407.9132" r="393.4477" gradientUnits="userSpaceOnUse">
	<stop  offset="0" style="stop-color:#4F7302"/>
	<stop  offset="0.21" style="stop-color:#4C6E02"/>
	<stop  offset="0.452" style="stop-color:#416002"/>
	<stop  offset="0.7099" style="stop-color:#314901"/>
	<stop  offset="0.9772" style="stop-color:#192901"/>
	<stop  offset="1" style="stop-color:#172601"/>
</radialGradient>
<path class="st0" d="M-1868,1775.1c-0.7,0.9-1.5,1.8-2.1,2.8c-2,3.2-4.1,5.5-8.5,4.1c-1.9-0.6-4.1,0.2-6.9,0.4
	c-0.2-0.2-1.1-1.2-2.1-2.4c0.7-0.6,1.9-1.3,2.5-2.3c0.7-1.3,1-2.9,1.5-4.3c-1.7-0.3-3.5-0.9-5.1-0.6c-0.6,0.1-0.8,2.6-0.9,4
	c-0.1,1,0.2,2.1,0.4,3.2c-0.6,0.1-1.1,0.2-1.7,0.4c-0.6-2-1.2-3.9-2-6.4c-0.9-0.2-2.2-0.5-3.1-0.7c-1.9,2.5-3.7,4.8-6.1,7.9
	c-0.5-2.5-0.8-3.9-1.2-5.8c-1.1,0.8-1.9,1.4-3.1,2.3c0.4-8-6.3-2.7-9.1-6.1c-1,2.9-1.8,5.2-2.9,8.4c-1.2-4.2-2.1-7.6-2.9-10.2
	c-3.4-0.3-6-0.5-9-0.8c-0.6,3.1-0.8,6.9-2.1,10.2c-1.1,2.7-3.5,4.9-5.6,7c-2.3,2.3-4.9,4.2-8.4,7.1c-0.1-0.1-1-1.2-2.1-2.4
	c-1.6,1-3.8,3.2-6.3,3.7c-2.6,0.5-5.7,1.1-8-2c-1.3-1.7-7.5,1.5-9.2,4.5c-0.3,0.5-0.6,1.1-1,1.8c-1.9-1.8-1-5.8-4.8-5.4
	c-0.3,0-0.8-0.6-0.9-0.5c-1.4,0.8-2.8,1.7-3.9,2.5c-3.7-7.4-10.6-10-15.7-14.8c-3.1,2.7-6.2,2.3-9.5-0.1c-1.8-1.3-4.2-2-6.4-2.9
	c-2.3-6.1-4.8-12.7-7.4-19.3c-1.3-3.3-3.2-6.5-4-9.9c-1.1-4.7-4.9-6.2-8.4-6.3c-5.3-0.1-11.7-1-14.1,6.4c-0.3,1-2.6,1.4-4.3,2.3
	c0.7,1.1,1.5,2.4,1.8,2.8c-1.6,2.4-3.8,4.3-4,6.4c-0.5,6-5.1,9.3-8.9,12c-5.5,3.9-8.4,8.5-10.7,14.5c-0.9,2.3-5,3.4-7.6,5
	c-0.3-0.3-0.7-0.7-1-1c-1.3,5.7-2.6,11.3-4,17.2c-3.1-0.3-7.3,1.4-6.8-5.5c-1.2,1.9-1.8,2.9-2.6,4.2c-3.1-1.9-5.2-5-8.7-6.8
	c-4.7-2.4-5.6-1.7-6.4,2.7c-0.1,0.8-0.6,1.5-0.9,2.3c-1.3-0.1-2.6-0.2-3.8-0.2c-1.3,0-3,0.7-4,0.1c-2.4-1.4-4.4-3-4.9,0.1
	c-4.6-1.2-8.7-2.2-14.2-3.7c-1.5,1.8-3.9,4.6-6.7,7.8c-1.1-1.6-1.7-2.6-2.4-3.7c-3.8,3.1-10.6-0.7-12.5,4.5
	c-2.2,0.7-4.3,0.7-5.1,1.7c-3.1,4-5.4,4.6-9.8,1.8c-1.5,4.9-3.2,4.9-8.5-0.3c-1.6,1.9-2.8,7.1-6.5,0.4c-0.4,3.3-0.7,5.8-1.2,9.5
	c-1.3-2.4-1.9-3.6-2-3.8c-2.4,1.3-4.7,2.6-6.9,3.9c-1.1,0.6-2.1,1.3-3.1,2.1c-3,2.4-5.9,4.8-8.9,7.3c-3-3.8-6.1-6.2-7.1-9.4
	c-1.1-3.4-0.2-7.4-0.2-11.5c-1.2,0.1-2.6-0.1-3.8,0.3c-2.7,0.8-5.3,2-5.8-2.4c0-0.2-0.1-0.4-0.2-0.4c-8.1-1.5-4.6-8.9-6.5-13.4
	c-0.9-2.2,0.4-5.3,0-7.9c-0.5-3.8-0.7-8.3-7.2-7.9c1.1-8.9,2.2-17.1,3.2-25.2c0.7,0,1.3,0.1,2,0.1c0.4,3.3,0.7,6.6,1.1,9.8
	c0.5,0,1,0,1.6,0c0-2.6-0.2-5.2,0.1-7.8c0.2-2.3,0.8-4.7,1.3-7c0.1-0.4,0.4-1.1,0.2-1.3c-4.2-4.4,1-4.3,2.8-5.9
	c-5-1.7-5.4-1.3-8.3,8c-0.5-7.1-0.4-14.2-1.7-21.2c-0.7-3.9-3.5-7.4-5.3-11.1c-0.4-0.8-1.1-1.6-1.1-2.3c0.5-6.6,1.1-13.2,1.8-20.3
	c-2.1-3.3-7.9-4.8-7.4-10.8c0-0.4-0.5-0.8-0.8-1.1c-5.3-5-4.6-7,1.9-10.7c1.1,5.6-0.6,13.2,8.6,13.2c5,0,6.8-3.8,6.6-7.7
	c-0.2-3.2-1.5-7.3-3.8-9c-2.3-1.6-6.4-0.7-11.1-0.9c1.9-2.4,3.2-4.1,4.5-5.8c0.4-0.6,1-1.1,1.3-1.8c1-2.2,2-4.3,2.7-6.6
	c0.9-2.6,1.5-5.3,2.4-8.2c3,1.1,4.4-0.5,5.4-4.4c0.9-3.8,4-7,5.2-10.8c0.8-2.6,0-5.8,0.2-8.7c0.1-1.8,0.6-3.6,1-5.8
	c-1.2-0.1-2.4-0.2-4-0.3c0.6-1.7,0.7-3.8,1.8-4.9c3-3,3-2.9,3.8-7c1.5-7.6,3.7-15,4.9-22.7c0.6-3.8-0.2-7.8-0.4-11.7
	c0-1-0.2-1.9-0.2-2.9c0.3-2.6,0.7-5.3,1.1-7.9c0.5-4,0.9-8,1.4-11.9c0.1-0.6-0.3-1.4,0-1.9c4.3-6.5,1.9-14.2,3.8-21.1
	c0.2-0.6,0-1.5,0.4-1.9c7.6-7.5,6.5-17.4,7.5-26.8c0.3-2.9,2.8-5.5,3.1-8.4c1.3-10.4,2-20.8,3.1-31.3c0.3-3.3,1.8-6.5,1.6-9.7
	c-0.2-2.6-2.4-5.1-3.2-7.7c-1.2-4.3-1.9-8.7-3-13.1c-1-4.1-2.8-8.2-3.1-12.4c-0.3-5.8,1.5-11.9,0.7-17.5c-0.9-6-3.9-11.8-6.1-17.6
	c-0.1-0.3-1.3,0-1.8-0.4c-2.3-1.4-5.6-2.5-6.5-4.6c-2.5-6.1-8-11.8-3.7-19.7c8.8,1.6,2.4,11,6.8,15.6c0-8.3,0-15.8,0-23.2
	c-0.5,0-0.9-0.1-1.4-0.1c-0.3,2-0.6,3.9-0.9,6.1c-1.6,0-3.2,0-6.3,0c1.3-3.6,2-7,3.6-9.9c3.1-5.6,3-11.3,2.9-17.4
	c5.3-1.1,7.1-4.8,5.5-10.7c-0.8-2.8-0.9-6.1-0.3-8.9c1.1-4.7,3.1-9.2,4.6-13.8c0.5-1.6,0.9-3.2,0.9-4.9c0.2-7.8,1.5-15.4,5.3-22.4
	c0.8-1.4,1.1-4.1,0.3-5.3c-5-7.4-1.9-15.8-3.6-23.6c-1.4-6.5-3.2-12.9-4.5-19.5c-0.4-1.7,0.4-3.7,0.5-5.6c0-0.4-0.2-0.9-0.3-1.3
	c-1.6-4.7-3.2-9.4-4.6-14.2c-0.2-0.5,0.8-1.4,1.3-2.1c2.6-3.2,2.7-9,0.2-12.3c-0.5-0.7-1-1.7-0.9-2.4c1.5-6.7-0.8-12-4.9-17.3
	c-2.7-3.5-3.7-8.2-5.8-12.2c-1.4-2.8-2.2-5.8-5.2-8.1c-1.6-1.3-1.1-5.5-1.4-8.3c-0.4-3.2-0.6-6.5-0.8-9.9c0.2,0,1.2,0.2,2.7,0.4
	c-0.2-2.1-0.4-4.1-0.4-6c0-1.8-0.4-4.2,0.5-5.2c3.9-4.4,1.9-8.2-1.1-13c2.2,1,3.5,1.6,3.8,1.8c2-5.4,4.4-10.5,5.6-15.8
	c2.7-12.4,4.8-24.9,7.2-37.3c0.2-1.1,0.3-2.3,0.5-3.7c1.6,0.2,3,0.3,5.7,0.7c-2.4-1.6-3.9-2.6-6.2-4.1c1.9-1.4,3.6-2.6,5.2-3.8
	c0.7-0.5,1.5-0.9,2.2-1.4c-1.5-1.9-3.1-3.9-4.6-5.8c1.5-1.3,0.2-6.3-1.6-9.7c-3-5.6,0.5-9,1.6-12.5c6.2,0,12,1.2,16.8-3.4
	c0.9-0.8,2.3-1.1,3.5-1.7c1.7-0.9,3.4-1.8,5.1-2.6c2.1,0.7,4.6,1.5,6.7,2.2c3.7-5.5,7.1-10.7,11.1-16.6c1.5,3.8,2.5,6.2,4,9.9
	c0.6-2.7,0.9-4,1.4-6c3.1,2.3,5.9,4.4,8,6c2.6-1.1,5.6-3.6,8.2-3.2c3,0.5,5.7,3.4,8.8,5.5c4-1.8,7.3-0.4,9,4.4
	c0.7,2,1.2,4.4,2.6,5.8c1.2,1.3,3.4,1.9,5.3,2.2c1.6,0.3,3.4-0.3,5.7-0.6c0.3-0.7,0.9-2,1.6-3.6c0.4,1.3,0.5,2.7,1.2,3.6
	c0.6,0.8,2,1,3.2,1.6c-2.1,5.7,3.1,8.3,5.1,12.4c1.1,2.1,1.8,4.4,2.5,6.6c0.5,1.8,0.3,5,1.2,5.3c1.7,0.6,4-0.4,5.9-0.4
	c4.7,0.6,9.4,1.1,14.6,1.8c0.4-0.6,1.2-1.9,2.6-4.1c4.1,3.7,7.9,7.2,11.5,10.4c2.6-0.9,5.7-1.3,7.9-2.9c2.1-1.6,3.2-4.6,5.4-8.1
	c1.4,3.2,2.1,4.8,2.9,6.7c1.4-1.7,2.4-3.5,4-4.7c2.2-1.7,4.4-2.3,7.7-1.7c3.9,0.7,8.5-0.6,9.3-6.3c0.2-1.3,1.5-2.5,2.6-4.1
	c3.5,2.7,7.1,5,10.2,7.9c1.4,1.3,2.4,3.4,2.6,5.3c0.6,5.8,3,8,9.1,8.1c1.3,0,2.7,1,4.3,1.7c0.1-0.9,0.3-1.8,0.5-3.3
	c1,1.1,1.7,1.9,2.4,2.7c2.8-6.6,8.3-8.3,14.1-4.3c0.2-2,0.5-3.8,0.6-4.9c2.7,0.4,5.2,0.5,7.6,1.2c1.4,0.5,2.8,1.8,3.7,3
	c3.1,4.7,6,9.6,8.8,14.2c0.5-0.1-0.4,0.1-2.4,0.6c2.2,3.1,4.2,5.9,6.4,9.1c1.3-1.8,2-2.8,2.7-3.9c0.1,0.4,0.2,0.8,0.3,1.2
	c2.2-0.3,4.4-0.6,7.1-0.9c0.2,0.6,0.6,1.9,1.2,2.9c1,1.6,2.2,4.3,3.4,4.4c3.6,0.1,5.4,2.7,8,4.1c1.8,1,4,1.3,6.7,2.2
	c2.1,1.6,5,3.8,7.9,6c0.5-0.5,1-1,1.5-1.5c-1-1.5-2-3-3.1-4.6c1.1-0.5,2.2-1,3.5-1.6c0.9,2.9,1.4,5.7,2.5,8.1
	c1.1,2.3,2.9,4.3,5.1,7.2c0.4-1.8,0.7-3,0.8-3.5c3-0.8,5.8-2.3,8.4-1.9c2.5,0.4,5.3,2.5,6.6,4.6c1.9,3.3,2.4,7.4,4,10.9
	c0.5,1.2,2.6,1.7,3.3,2.2c0.5,3.4,0.9,6.6,1.6,11c2.6-3.1,4.2-5,6.6-7.9c0.4,2.4,0.5,3.3,0.7,4.3c0.4,0.1,0.7,0.3,1.1,0.4
	c1-1.9,2.1-3.8,3.5-6.3c0.9,0.9,2.1,2.2,3.6,3.8c1.5-0.2,3.5-0.5,5-0.8c1.7-2.8,3.2-5.3,4.8-7.8c0.6-1,1.7-1.8,2-2.8
	c1.8-6.7,6.8-8.1,11.7-7.8c1.8-3.9,3.2-7.2,4.4-9.8c2.3,1.1,4.5,2.1,6.7,3.1c0.9-2.3,1.9-4.5,2.8-6.8c0.6-1.4,1-2.9,2.5-4.1
	c0,3.1,0,6.2,0,10.1c5.9-2.2,1.9-9.1,5-10.3c3.4,0,5.6-0.1,7.7,0c3.8,0.2,7.6,1,11.4,0.8c4.7-0.2,3.2-3.9,2.6-6.4
	c-0.4-1.8-1.9-3.3-3.6-5.9c3.6-0.2,6.5-0.3,9.9-0.5c0.2,0.5,0.7,1.8,1.6,3.7c1.6-2.2,3-4.1,5.3-7.1c1,2.2,1.7,3.6,2.9,6.2
	c4.7-0.6,9.3,10.5,16.9,3.3c2,2,4.2,4.2,6.4,6.4c0.4,0.4,1.1,0.8,1.5,0.7c6.3-2.3,6.6,1.8,6.5,6.2c6.2,2.7,5.1-2.8,6.3-6.2
	c2.6,3,7.6,2.2,8.3,7.2c0.1,0.6,2.7,0.6,4.1,1.2c1.2,0.5,2.2,1.3,2.3,1.3c9,0,17.2,0,26.3,0c1.8,0.8,4.7,2.2,7.9,3.7
	c1.3-1.7,2.5-3.3,4.6-6.1c-0.8,7.3,3.4,8.4,8.4,8.7c0.1-0.7,0.3-1.8,0.6-3.4c1.8,4.2,2.9,0.7,4.2-0.4c5.4,4.3,10.9,3.9,16.8,1.8
	c1.8-0.6,4.3,0.5,7,0.9c0,0.2,0.1-0.9,0.2-1.2c2.6-1.9,4.8-3.4,6.9-4.9c-0.1-0.2,0.2,0.6,0.9,2.2c2.4-3.1,4.4-5.7,6.5-8.4
	c1.8,1.2,4.1,2.6,6.6,4.2c1.4-0.8,3-1.6,4.7-2.5c-0.5-1.8-1-3.3-1.4-4.8c0.4-0.3,0.8-0.6,1.2-0.8c1.5,1.8,2.9,3.6,4.4,5.4
	c-0.2,0.4-0.4,0.8-0.5,1.2c3,0,6.1-0.2,9.1,0.1c0.9,0.1,1.5,1.6,2.5,2.3c1.4,1,2.9,1.8,4.5,2.4c0.2,0.1,1.2-1.9,2.5-4.1
	c6.1,2,12.7,4.1,19.1,6.4c5.2,1.9,5.7,1.7,6.7-5.4c3.3,3.7,6,6.7,9.1,10.1c-0.2,0.1,0.4-0.2,1-0.3c1.5-0.4,3-0.8,4.4-1.1
	c-0.1,1.6,0.1,3.3-0.4,4.7c-2.1,5.2-3.2,10.2-1.1,15.8c0.9,2.3,0.1,5.3,0.9,7.6c1,2.9-1.6,6.7,3,9.1c1.8,0.9,2,5.6,2.1,8.6
	c0.2,6.2-0.4,12.5-0.3,18.7c0.2,8.9,0.9,17.9,1.3,26.8c0.2,4.6,0.4,9,2.9,13.3c4,7.1,3.5,15.2,3.9,23c0.3,5.5-0.1,11.2,3,14.6
	c-0.4,4.6-0.8,8.3-0.9,12c-0.2,5.7,0,11.4-0.6,17c-0.4,3.4-1.4,5.6,1.8,9.1c2.7,2.9,2.1,8.9,2.9,13.5c0.2,1.1-0.1,2.6,0.5,3.3
	c5,6,2.4,12.5,1.9,19c-0.1,0.6-0.2,1.5,0.1,1.9c1.5,2.3,3.1,4.2,0.2,7.1c-0.8,0.8-0.1,4.7,1.1,6c4.4,4.5,3.3,9.7,2.8,14.9
	c-0.1,1-0.5,2.1-0.1,2.8c4.7,8.1,3.2,17.1,3.9,25.8c0.1,1.6-0.2,3.5,0.5,4.9c4.3,8.2-0.6,16.4,0.5,24.6c0.2,1.8,1.5,3.5,2.2,5.1
	c-0.5-0.1-1.7-0.3-3.2-0.5c0,2-0.6,4.1,0.1,5.1c3.6,5,1.6,9.9,0.4,15c-0.5,1.8-0.4,3.9,0.1,5.8c1.1,4.9,2,9.7,0.6,14.7
	c-0.3,1.3,0.3,2.8,0.5,4.3c0.1,0.8,0.8,2.1,0.6,2.2c-2.8,1.9-0.5,4.3-0.9,6.4c-0.6,3.6-1.4,7.2-2.1,10.8c-0.2,0.9-0.6,2.1-0.3,2.8
	c2.6,5.4,2.1,11.7,1.2,16.7c-1.1,6.2,3.4,9.5,3.2,14.2c-0.7,2.8-2.3,5.7-2.1,8.4c0.6,6.7,2.7,13.3,2.8,19.9
	c0.1,3.6,2.1,7.2-0.6,11.3c-1.8,2.6-1,7-1,10.6c0.1,5.7-0.4,11.7,1.1,17c1,3.5,0.5,6.9,1.5,10.1c1.9,6.3,0.5,12.6,1,18.9
	c0.3,4,2.6,7.8,3.3,11.8c0.4,2.5-0.3,5.2-0.7,7.8c-1.1,7.7-2.4,15.3-3.4,23c-0.4,2.9,0.1,5.9-0.5,8.7c-1.1,5.4-2.9,10.7-4.1,16.1
	c-1,4.2-1.6,8.4-2.4,12.7c-0.4,1.9-0.7,3.9-1.2,5.7c-0.7,2.7-2,5.3-2.2,7.9c-0.5,6.8-0.4,13.6-0.8,20.3c-0.1,2.5-1,5-1.5,7.4
	c-1.5,7.4-3.1,14.8-4.5,22.2c-0.9,4.6-1.8,9.2-2.6,13.8c-0.5,0-1.1,0-1.6,0c-1.2-2.8-2.3-5.7-3.9-9.6c-1.3,2.5-2.3,4.1-3.5,6.4
	c-1.2-0.3-2.8-0.7-5-1.3c-1.4,2.9-2.3,6.6-4.6,8.6c-1.9,1.6-6.4,2.6-8.1,1.5c-2.6-1.7-4.3-3.3-7.5-2.1c-0.5,0.2-1.5-1-2.3-1.6
	c-3.2,2.6-5,6.9-9.8,6.9c-0.6,0-1.3,0.3-1.9,0.2c-7.1-1.4-7.8-0.1-12.7,5.3c-1.8,2.1-3,6.5-8.3,6.5c-2.6,0-5.8,5-7.6,8.4
	c-1.8,3.4-2.1,7.5-3.1,11.2c-2.7,1.5-5.4,3-8.2,4.6c-5.4-6.5-12.9-5.5-22.8,3.3c-0.5-1.4-0.9-2.6-1.3-3.8c-2.9,2.6-5.8,5.2-9.1,8.1
	c-1.1-3.2-2.1-6.3-3.6-10.6c-2.5,0-5.8,0.4-9.1-0.1c-1.7-0.3-3.1-2.1-4.8-3.1c-4.6-2.8-9.2-5.4-14-8.3c0.1-0.1-0.5,0.6-0.9,1
	c-1.8-2.5-3.6-4.9-5.3-7.3c1.3-9.1-7.7-9.5-11.4-13.9c-0.6-2-1.4-5.6-1.9-5.6c-2.7,0.2-5.7,0.7-7.8,2.2c-2.2,1.6-3.5,4.4-5.8,7.4
	c-0.8-3.3-1.4-5.6-2.2-8.8c-2,2.1-3,3.2-4,4.3c-0.8-1-1.5-2.8-2.6-3.2c-1.4-0.5-3.3,0-5.4,0.1c0.9,1.1,1.6,2,2.3,2.8
	c-3.8,1.2-7.3,2.3-11.8,3.7c-0.5,0-2.3-0.1-4.1,0.1c-0.3,0-0.3,1.5-0.7,3c-0.7,0-2.4,0.2-4.3,0.3c0.5,3.1,1,6.1,1.4,9.2
	c1,8,0.6,8.5-7.4,8.8c-0.8,0-1.6,0-1.9,0c-1.1,5.2-2.1,10.1-3.2,15.4c-1.1-0.9-2-1.5-2.7-2.1c-1.5,2.4-2.9,4.6-4.5,7
	c-3.3-2.3-6.2-4.4-8.9-6.3c-2,0-4.5-0.7-6.2,0.2c-2.6,1.2-6.5,0.4-7.7,4.5c-0.3,0.8-2.7,1.6-4,1.4c-1.2-0.2-2.5-1.6-3.1-2.8
	c-1.2-2.2-2.1-4.7-3.1-7.2c-5.8,4.4-10.2,4.1-16.1,0.9c-2.1-1.2-5.4-0.2-7.3-0.2c-1.4-4-2.6-7.5-3.9-11c-2-5.5-5.5-4.4-9.3-2
	c-3.6-5.8-7.2-0.6-11.3-0.4c0.4,1.9,0.7,3.4,1.1,5.4C-1875.4,1776.7-1872.7,1773.7-1868,1775.1z M-2084,1789.3
	c0.7-1,1.2-1.7,1.8-2.4c2.3-2.6,4.6-5.2,6.9-7.8c0.8-0.9,1.6-1.6,2.5-2.4c-1.2-0.4-2.5-1.4-3.6-1.2
	C-2082.7,1776.3-2085.5,1781.4-2084,1789.3z M-1825,1069.4c0.9,5,3.9,6.8,7.9,6.2c3.7-0.6,6.6-2.5,7.1-8
	C-1815.2,1070.2-1819.5,1076.3-1825,1069.4z"/>
<radialGradient id="SVGID_00000128460540024201842330000008316588707510036649_" cx="360.0271" cy="424.2437" r="257.684" gradientUnits="userSpaceOnUse">
	<stop  offset="0" style="stop-color:#4F7302"/>
	<stop  offset="9.229815e-02" style="stop-color:#486902"/>
	<stop  offset="0.4825" style="stop-color:#2D4501"/>
	<stop  offset="0.7989" style="stop-color:#1D2E01"/>
	<stop  offset="1" style="stop-color:#172601"/>
</radialGradient>
<path style="fill:url(#SVGID_00000128460540024201842330000008316588707510036649_);" d="M362.9,663.8
	c15.9-28.2,37.6-40.9,69.5-37.2c12.2,1.4,22.6-3.1,27.8-14.6c6.8-14.8,18.3-26,27.9-38.6c15.3-20,10.4-41.1-12.6-51.1
	c-4.3-1.9-9.1-2.4-13.7-3.5c-11.9-2.8-17.5-9.3-13-21.8c3.6-10.1,3.9-20.7,4.8-31.3c2.1-24.7,9.7-48.1,27.1-65.9
	c21.9-22.3,23.4-45.7,11-72.7c-9-19.5-6.6-23.8,12.9-32.1c21.5-9.1,44.2-12.3,66.9-15.8c16.8-2.6,20.3-8.7,14.9-24.1
	c-5.1-14.4-10.7-28.7-16.1-43c-3.5-13.8-6.5-28-24.2-30.5c-20.2-2.8-40.5-5.7-60.7-8.6c0,0,0,0,0,0c-15.5-2.9-31.1-5.8-46.6-8.8
	c-49.6-9.7-99.8-16.2-150-22.3c-26.4-3.3-30.4-2-39.3,23.9c-13.8,40.6-29.4,80.6-44.2,120.8c-3.4,6.7-6.7,13.5-7.2,21.2c0,0,0,0,0,0
	c-10.2,26.2-20.7,52.2-30.4,78.5c-11.1,30.1-25.6,59.2-29.9,91.5c-5.3,6.1-7,13.4-6.7,21.2c0,0,0,0,0,0c0,0,0,0,0,0
	c10.8,14.2,13.1,31.1,13.8,48c1.9,44.1,1.6,44.1,42.6,58.5c0,0,0,0,0,0c0,0,0,0,0,0c0,0,0,0,0,0c13.2,10.4,25.7,20.8,25,40.2
	c-0.8,21.6,13.9,34.9,29.2,45.7c17.6,12.4,41.8,19.8,59.7,14.6C324.5,699.5,349.9,686.9,362.9,663.8z"/>
<path class="st2" d="M-1279.5,490.9c-8.9-0.9-17.8-2-26.7-3c-1,0-2,0-3,0c-0.5-0.3-0.9-0.5-1.4-0.6c-2.5-0.7-5.1-0.3-7.6-0.4v0
	c-3,0-5.8-0.8-8.9-0.4c-11.1,1.3-19.8,7.8-29,13.2c-1.2,0.7-2.1,2.1-2.8,3.4c-3.7,6.2-8.5,11.3-14.2,15.7c-0.7,0.3-1.4,0.6-2.1,0.9
	c0,0,0,0,0,0c-3.5,2.9,0,4.3,1.4,5.8c8.2,8.5,7.3,12.2-4,16c-3.7,1.2-6.5,3.2-7.3,7.2c-2.3,2.7-2.4,5.4,0,8c0,0,0,0,0,0
	c1.3,3.8,2.4,7.6,1.7,11.7c-0.1,0.9,0.1,2.1,0.6,2.8c3.8,4.5,7.8,9,14.2,9.3c4.5,0.2,7.5,2.1,9.8,5.7c1.4,2.1,2.8,4.2,4.6,5.9
	c3.4,3.1,4.3,6.5,2,10.7c-0.4,0.6-0.7,1.3-1.1,1.9c0,0,0,0,0,0c-2.6,1.9-5.2,3.6-7.6,5.6c-4,3.2-4.2,5.7-0.1,8.7
	c3.8,2.8,5.6,6.1,6,10.8c0.5,6.1,2.3,7.8,8.2,7.7c8.6-0.1,16.8,1.7,24.9,4.2c2.4,0.7,4.4,0.4,6.7-0.6c8-3.6,15.2-8.1,20.8-14.9
	c2-2.5,4.8-4.1,7.7-5.4c2.7-1.2,4.1-3.2,4.2-6.2c0.7-12.2,1.3-24.5,2.1-36.7c0.7-12.6,1.1-25.2,2.3-37.7c1.4-14.7,1-29.5,2.5-44.2
	C-1275.1,493-1276.3,491.2-1279.5,490.9z"/>
<path class="st2" d="M-1146.4,456.9c0-0.3-0.1-0.7-0.1-1c-0.8-7.1-1.8-8.4-8.7-6.4c-10.6,3-20-0.2-29.5-3.9
	c-1.6-0.6-3.8-1.8-2.7-3.4c3.1-4.5,2.4-9,1.3-13.7c-0.2-0.8,0.4-1.9,0.9-2.8c3.2-5.3,7.2-9.2,13.7-10.5c10.4-2.1,10.4-2.4,4.2-11.2
	c-2.5-3.6-4.4-7.8-9.1-9.5c-5.8-2.1-11.5-4.5-17-7.1c-6.1-2.9-11.4-7.2-14.5-13.2c-2.7-5.3-6-8.1-12-7.2c-0.8,0.1-1.7,0-2.5-0.1
	c-14.3-3.1-27.5,3.3-41.3,4.8c-0.9,0.1-1.8,0.8-2.6,1.4c-7.7,5.8-15.7,11.1-25.1,13.9c-0.6,0-1.3,0.1-1.9,0.1c0,0,0,0,0,0
	c-7.9,3-16.2,5.2-23,10.4c-6.8,5.2-13.7,9.9-21.8,12.7c-4.1,1.4-8.3,2.9-12.5,4.4c0.7,1.7,2.1,1.6,3.1,1.8
	c13.2,3.2,26.5,6.4,39.7,9.6c27.3,6.5,54.7,12.9,82,19.4c24.2,5.8,48.4,11.7,72.7,17.5c2.5,0.6,5.6,2.2,7.7,0.4
	C-1143.3,461.5-1146.6,459.2-1146.4,456.9z"/>
<path class="st2" d="M-1455.7,270.9c-7.4,1.3-14.8,2.1-22-1.3c-7.9-3.8-20.2,3.5-23.9,9.2c-0.8,1.2-1.6,2.7-1,3.7
	c3.2,5.2,1.8,11.9,5.8,16.7c0.7,1.7,1.4,3.3,2,5l0,0c3.1,19.1,1.4,21.5-16.4,21.9c-3.9,0.1-6.1,1.3-5.6,5.5c0.4,3.8-1.4,5.9-5,6.8
	c-1.8,0.4-3.7,1.2-3.8,3.4c-0.1,3.8-1.4,7.5-0.7,11.4c1.3,7.6,2.5,8.5,10.3,7.3c2.9-0.5,6.1-0.5,8.8-1.6c6.9-2.9,12.7-3.2,17,4.2
	c0.9,1.5,3.1,2.4,4.9,3.2c9,4.1,10.2,3.8,16.1-4.2c3.2-4.3,6.4-8.5,8.8-13.3c1.6-3.3,4-4.1,7.4-2.9c4.8,1.8,9.8,3.2,14.9,3.9
	c2.6,0.4,5.1,0.2,6.8-1.9c4.7-5.5,10.5-8.4,17.7-8.6c1,0,2-0.3,2.9-0.6c2.9-0.8,3.8-2.3,1-4.3c-3.8-2.7-6.4-6.2-8.4-10.3
	c-0.3-0.7-0.7-1.3-1-2c0,0,0,0,0,0c-1-2.3,0.2-4.3,1.4-6c2-2.8,4.4-5.4,6.6-8l0,0c1-0.7,2-1.4,2.9-2.1c0,0,0,0,0,0c0,0,0,0,0,0
	c3.3-2.5,6.7-4.9,9.9-7.6c4.8-4.1,5.1-9,1.4-14c-2.8-3.9-7-4.4-11-5c-13.9-2.4-27.9-4.3-41.5-8.3
	C-1451.4,270.6-1453.5,270.5-1455.7,270.9z M-1476.2,291.6c0.2-0.2,0.4-0.5,0.5-0.7c0.3-0.3,0.5-0.6,0.7-1c0.1-0.1,0.2-0.2,0.2-0.3
	C-1474.9,290.4-1475.4,291.1-1476.2,291.6z"/>
<path class="st2" d="M-1598.3,200.8c11.2,14.2,22.3,28.5,33.4,42.7c7,9,13.9,18.2,21.1,27.1c3.7,4.6,5.3,4.3,8.7-0.4
	c4.1-5.7,8.2-11.3,12.3-16.9c0,0,0,0,0,0c7.6,2.7,14.6,7.1,22.8,8.4c4.4,0.7,7.2-0.2,8.9-4.1c3.8-9,10.8-13,20.1-14.1
	c2.6-0.3,5.3-0.8,7.1-3.1c4.7-1.5,9.2-3.7,12.9-7c0,0,0,0,0,0c2-1.2,3.9-2.6,6.1-3.4c4.3-1.7,5.5-4.4,3.4-8.6
	c-0.6-1.2-1-2.5-1.2-3.8c-1-5.5,0.7-7.8,6.2-8.2c5.3-0.3,9.8-2.9,14.7-4.4c2.9-0.9,2.8-3.1,1.3-5.1c-3.2-4.4-4.9-9.4-6.1-14.6
	c-0.5-2.3-1.7-4.1-4.1-4.4c-5.1-0.6-10-2-15.3-0.8c-11.2,2.6-22.6,3.6-34,3.1c-7.6-0.3-15.2-0.7-22.8-0.8c-2.5,0-5,0.1-7,1.9
	c-2,2-3.9,4.1-5.9,6.1c0.3,0.1,0.6,0.2,0.9,0.3c-0.3,0-0.6-0.1-0.9-0.3c-8.8,3.4-17.5,1.9-26-1c0,0,0,0,0,0c-1.3-1-2.7-2-4-3
	c0,0,0,0,0,0c-2.1-3.6-5.7-5.4-9-7.6c-10.5-7-22.1-8.3-34.3-7.5c-3.5,0.2-5,0.9-4.7,4.9c0.3,4.5-1,9.1-4.9,11.9
	c-6,4.1-6.1,3.9-1.7,9.9C-1599.7,199-1599,199.9-1598.3,200.8z"/>
<path class="st2" d="M-1540.4,569.4c-3.6-1.7-6.9-3.4-6-8.4c0.2-1.2-0.8-2.2-1.8-2.7c-6.6-3.4-11.5-9.5-18.6-12.2
	c-3.4-1.3-5.5-4.3-6.5-7.8c-1.4-4.9-4.2-8.6-8.2-11.5c-1.1-1.6-3.3-2-4-3.9c0,0,0,0,0,0c-1.4-2.8-2.9-5.6-3.7-8.7
	c-2.1-8.4-3.7-9.4-12.1-7.5c-12.7,2.8-19.3-0.2-25.5-11.9c-1-1.9-2.7-2.3-4.5-2.6c-6-1.1-12-2.6-18.2-1.3c-4.5,1-7.6-0.3-9.5-5.4
	c-2.3-6-5.8-11.6-11.6-15.2c-1.1-0.7-2-2.1-3.5-1.3c-1.5,0.7-1.2,2.2-1,3.5c0.1,1,0.4,2,0.5,2.9c4.4,23.8,8,47.8,13.2,71.5
	c0,2.1,0.1,4.1,1,6c0,0,0,0,0,0c0.3,2,0.6,4,1,6c0,0,0,0,0,0c0,0,0,0,0,0c0,0.7,0,1.3,0,2c2,9.7,3.1,19.5,6,28.9c0,0,0,0,0,0
	c0.3,3,0.7,6,1,9c0,0,0,0,0,0c1.9,1.3,3.9,0.6,5.7,0c4.6-1.5,9.2-2.7,13.9-3.7c7.4-1.6,14.8-3.5,22.2-5.3c1-0.3,2-0.7,2.9-1
	c0,0,0,0,0,0c1.8-0.2,3.7-0.2,5.4-0.6c20.4-4.4,41-8.2,61.2-13.3c1.4-0.4,3.3-0.2,3.4-2.2C-1537.5,570.8-1539.1,570.1-1540.4,569.4z
	"/>
<path class="st2" d="M-1371,456c2.7-8.5,6.5-16.8,3.9-26.1c0,0,0,0,0,0c0,0,0,0,0,0c-2.9-7.8,1-14.3,4-20.9v0
	c2.9-6.6,6.2-12.9,11.5-17.9c2.1-2.1,4.3-4.2,5.5-7c0,0,0,0,0,0c1.8-1.6,1.8-3.3,0.5-5.3c-1.5-2.3-3.4-4.6-4.3-7.2
	c-4.3-12.3-12.9-14.4-24.2-10.5c-2.7,0.1-5.5-0.4-8,1c0,0,0,0,0,0c-0.3,0-0.7,0-1,0c-2.1,0.1-3.8-0.9-5.5-2.1
	c-2-1.3-4.1-2.1-6.5-1.4c-7,2.1-14.1,4.2-15.8,12.9c-0.3,1.6-1.4,3-2.1,4.4c0,0,0,0,0,0c-0.3,0-0.6,0-1,0c-4.9,1.5-10,0.8-15,1
	c0,0,0,0,0,0v0c-2.3,0-4.7,0-7,0c-1,0-2,0-3,0c-0.2,0.1-0.3,0.3-0.3,0.5c-0.3,0.5-0.5,1-0.8,1.5c0,0,0,0,0,0c-1.8,3.9-0.7,8-1,12
	c0,0,0,0,0,0h0c0,0.7,0,1.3,0,2c-0.3,0.3-0.4,0.6-0.4,1c-1.3,3.5-0.8,7.6-3.7,10.6c-4.7,5-5.3,11.2-4.5,17.7
	c0.4,3.5,2.4,5.2,5.9,5.6c3.5,0.3,7,0.6,10.3,1.4c4.2,1,7.9,0.5,11.3-2c3-2.2,6.4-2.5,10-2c2.3,0.4,4.6,0.5,6.9,0.8c0,0,0,0,0,0
	c2.4,3.3,5.2,5.8,9.6,6.1c2.5,0.1,4.1,1.9,5.4,3.9c3.1,4.8,3.1,9.5-0.6,14.1c-1.1,1.3-1.7,3.1-0.9,4.7c2,4.1,5.5,6.1,10,6.1
	C-1377.3,460.9-1372.8,461.7-1371,456z"/>
<path class="st2" d="M-1359.2,241.4c0.3,0.3,0.6,0.5,0.9,0.7c4.4,3.7,5.4,8.7,5.1,14.2l0,0c0,2.6,0,5.3,0,7.9c0,0,0,0,0,0
	c0,3.3,0,6.6,0,9.9c-0.1,3.2,1.4,5.1,4.4,5.6c8.4,1.4,16.2,4.8,24.4,6.7c3.2,0.7,6.2,0.7,9-1.3c2-1,4-2,6-3v0
	c2.4-0.1,4.6-1.3,6.4-2.6c4.1-2.9,7.6-2.4,11.3,0.6c4.1,3.3,8.5,6.4,12.8,9.5c2.4,1.8,4.9,2.7,7.9,2c4.7-1.2,9.4-2.2,14.1-3.3
	c5-1.1,9.6-3.2,12.8-7.2c5.7-7.2,13.3-10,22.1-10.9c7.5-0.8,7.5-1,7.6,6.5c0,8.2,7.5,16,15.8,16.2c3.7,0.1,6.9,1,9.4,3.8
	c1.8,2,3.6,2,5.5,0c4.8-5.2,9.8-10.2,9.4-18.4c-0.3-5.9,1.5-8,7.7-6.7c7.7,1.7,10.4-0.3,14-6.4c1.8-3.1,1.4-4.9-1.8-6.2
	c-15.9-6.2-30.4-15.4-46.6-21.2c-17.6-6.4-34.3-15.1-51.4-22.7c0,0,0,0,0,0c0,0,0,0,0,0c-1.6-0.7-3.3-1.4-4.9-2.1c0,0,0,0,0,0
	c-7.3-4.7-15.4-7.6-23.1-11.4c-2.4-1.2-4.6-1.4-6.8,0.8c-2.3,2.2-3.2,4.3-2,7.5c1.2,3.3,2.7,6.4,5.2,8.9c1.4,1.5,2.8,2.9,1.7,5.2
	c-8.4,0.8-16.5,3.7-25,4.1c-1.6,0-3.3,0-4.9,0c0,0,0,0,0,0c-5.3-0.4-10.8,0.7-16-1c-1.4-0.5-3-0.7-4.2-1.5
	c-10.3-6.8-19.8-2.1-29.3,1.9c-4.1,1.7-4.9,5.1-4.2,9.1C-1365.3,240.9-1362.2,241.1-1359.2,241.4z"/>
<path class="st2" d="M-1415,510.8C-1415,510.8-1415,510.8-1415,510.8c-3-5.4-8.3-9.6-8.4-16.6c-0.1-3.9-2.2-6-5.9-7.7
	c-7.5-3.4-14.2-8-16.6-16.7c-0.3-0.9-0.9-1.8-1.6-2.4c-7-6.6-7-6.6-1.9-14.8c1.2-2,2-4.2,2.3-6.5c0.3-1.9,0-3.8-1.6-5
	c-6.3-4.9-12.7-9.7-21.2-10c-3-0.7-6-1.3-9-2c0,0,0,0,0,0c-5-1.6-10-3.4-15.2-4.6c-3.4-0.8-5.4-2.5-6.2-5.6
	c-0.7-2.5-1.1-5.2-1.6-7.8v0c0.4-3.8,2.8-8.2-0.4-11.3c-6.1-5.8-12.1-12.3-21.5-12.6c0,0,0,0,0,0c-2.5-1.4-5.2-2.1-8-2.7
	c-7.7-1.9-14.9-1.8-19.9,5.7c-0.7,1-1.3,2-2,3c0,0,0,0,0,0c-3.8,5.8-10.2,7.7-15.8,10.8c-2.3,1.3-4.5,2.7-4,5.6
	c1.2,8.2-2.5,16.4-0.2,24.6c0.5,1.6,0.2,3.8-0.5,5.4c-2.4,5.7-0.5,9.6,3.4,14.2c4.5,5.3,9.5,11.6,3.9,19.5c-0.9,1.3-0.5,2.9,0.3,4.3
	c2.9,4.9,6.1,9.2,12.4,10.5c14.9,3.3,29.7,7.1,44.5,10.7c0,0,0,0,0,0c0,0,0,0,0,0c0.3,0,0.6,0,1,0c0,0,0,0,0,0c0,0,0,0,0,0
	c7,3.1,14.6,4.3,22,6c5.3,1.5,10.5,3.3,15.9,4c0,0,0,0,0,0c2.8,1.5,5.9,2,9,2c2.2,1.1,4.4,2.1,7,2c0,0,0,0,0,0
	c11.8,3.1,23.6,6.4,35.4,9.3c3.3,0.8,7.8,3.7,10.1,0.2c2.1-3.1-1.8-6.5-3.6-9.6C-1413.6,512.1-1414.3,511.5-1415,510.8z"/>
</svg>
